<svg xmlns="http://www.w3.org/2000/svg" width="160" height="51.903"><path d="M10.274 51.9c-.413 0-.817-.005-1.227-.015a17.226 17.226 0 01-2.536-.221 7.983 7.983 0 01-2.248-.739 7.335 7.335 0 01-1.9-1.379 7.22 7.22 0 01-1.385-1.895 7.764 7.764 0 01-.737-2.249 16.844 16.844 0 01-.226-2.544c-.009-.286-.02-1.239-.02-1.239V10.271s.012-.938.02-1.214a16.785 16.785 0 01.225-2.54 7.81 7.81 0 01.737-2.255 7.291 7.291 0 011.377-1.9 7.551 7.551 0 011.9-1.387A7.9 7.9 0 016.497.237 17.077 17.077 0 019.05.017L10.275 0h139.444l1.239.017a16.785 16.785 0 012.521.221 8.05 8.05 0 012.267.743 7.584 7.584 0 013.281 3.284 7.789 7.789 0 01.726 2.237 17.608 17.608 0 01.236 2.561v1.208c.011.509.011.993.011 1.481v28.4c0 .493 0 .974-.011 1.459 0 .441 0 .845-.005 1.261a17.169 17.169 0 01-.232 2.515 7.756 7.756 0 01-.733 2.266 7.423 7.423 0 01-1.377 1.88 7.346 7.346 0 01-1.9 1.387 7.944 7.944 0 01-2.263.746 17.005 17.005 0 01-2.536.221c-.4.009-.813.015-1.217.015h-1.471z"/><path d="M100.146 38.266c-2.218 0-3.841-1.1-4.028-2.768h-2.581c.163 3.048 2.686 4.976 6.423 4.976 3.994 0 6.5-1.974 6.5-5.127 0-2.465-1.436-3.853-4.893-4.671l-1.856-.456c-2.172-.537-3.059-1.238-3.059-2.429 0-1.495 1.39-2.522 3.421-2.522s3.421 1.015 3.574 2.7h2.546c-.082-2.907-2.523-4.9-6.083-4.9-3.6 0-6.131 2-6.131 4.9 0 2.348 1.436 3.8 4.53 4.542l2.184.526c2.184.537 3.106 1.32 3.106 2.628.003 1.504-1.527 2.601-3.653 2.601zm-43.931-2.628h-6.423l-1.542 4.553h-2.72l6.083-16.85h2.826l6.083 16.85h-2.766zm-5.757-2.1h5.091l-2.51-7.391h-.07zm18.076 6.783c3.083 0 5.127-2.453 5.127-6.27s-2.055-6.271-5.173-6.271a4.358 4.358 0 00-3.912 2.172h-.046v-2.044h-2.441v16.349h2.522v-6.085h.058a4.165 4.165 0 003.865 2.149zm2.535-6.27c0-2.487-1.285-4.122-3.246-4.122-1.927 0-3.223 1.67-3.223 4.122 0 2.475 1.3 4.133 3.223 4.133 1.96 0 3.246-1.623 3.246-4.133zm10.986 6.27c3.083 0 5.127-2.453 5.127-6.27s-2.055-6.271-5.173-6.271a4.358 4.358 0 00-3.912 2.172h-.046v-2.044H75.61v16.349h2.522v-6.085h.058a4.165 4.165 0 003.865 2.149zm2.535-6.27c0-2.487-1.285-4.122-3.246-4.122-1.927 0-3.223 1.67-3.223 4.122 0 2.475 1.3 4.133 3.223 4.133 1.958 0 3.246-1.623 3.246-4.133zm27.312-9.05v2.907h2.336v2h-2.336v6.772c0 1.052.468 1.542 1.495 1.542a7.886 7.886 0 00.829-.058v1.985a6.916 6.916 0 01-1.4.117c-2.487 0-3.457-.934-3.457-3.317v-7.044h-1.783v-2h1.786v-2.904zm9.515 2.756c-3.55 0-5.826 2.429-5.826 6.294s2.254 6.294 5.826 6.294 5.828-2.418 5.828-6.294-2.262-6.294-5.823-6.294zm3.258 6.294c0-2.651-1.215-4.216-3.258-4.216s-3.257 1.577-3.257 4.216c0 2.662 1.214 4.215 3.257 4.215s3.258-1.553 3.258-4.215zm7.053-6.143h-2.4v12.283h2.521v-7.285a2.541 2.541 0 012.628-2.826 3.516 3.516 0 011.133.152v-2.359a3.9 3.9 0 00-.864-.094 2.93 2.93 0 00-2.955 2.22h-.058zm15.5 8.677c-.339 2.23-2.51 3.761-5.289 3.761-3.574 0-5.793-2.394-5.793-6.236s2.231-6.352 5.687-6.352c3.4 0 5.536 2.335 5.536 6.06v.864h-8.667v.152a3.2 3.2 0 003.305 3.48 2.78 2.78 0 002.837-1.728zm-2.383-3.666h-6.133a3.11 3.11 0 013.129-3.118 2.954 2.954 0 013.012 3.118zM78.998 10.261h1.206v8.495h-1.206zm-26 1.509a3.582 3.582 0 00-2.853-1.11h-2.929v8.1h2.929c2.412 0 3.81-1.487 3.81-4.073a3.582 3.582 0 00-.958-2.917zm-3 5.842h-1.525v-5.808h1.526a2.552 2.552 0 012.67 2.9 2.545 2.545 0 01-2.67 2.912zm5.371-1.913a2.895 2.895 0 115.763 0 2.9 2.9 0 11-5.763 0zm2.883-2.1c1.044 0 1.639.775 1.639 2.1 0 1.33-.595 2.1-1.639 2.1s-1.638-.769-1.638-2.1.592-2.099 1.64-2.099zm10.54 5.157h-1.247l-1.263-4.5h-.1l-1.257 4.5h-1.237l-1.684-6.11h1.223l1.095 4.662h.09l1.256-4.662h1.157l1.256 4.662h.1l1.089-4.662h1.206zm4.255-6.11h-1.16v6.11h1.206v-3.574a1.4 1.4 0 011.459-1.548c.892 0 1.318.488 1.318 1.47v3.652h1.206v-3.955a1.987 1.987 0 00-2.114-2.277 1.829 1.829 0 00-1.823 1.089h-.094zm10.187.317a2.9 2.9 0 00-1.355 2.735 2.9 2.9 0 105.763 0 2.895 2.895 0 00-4.408-2.735zm3.167 2.735c0-1.324-.595-2.1-1.639-2.1s-1.638.775-1.638 2.1.59 2.1 1.638 2.1 1.64-.774 1.64-2.1zm4.783-.494c-1.454.09-2.272.724-2.272 1.824a1.846 1.846 0 002.033 1.829 2.056 2.056 0 001.835-.959h.1v.859h1.165v-4.176c0-1.291-.864-2.053-2.4-2.053-1.386 0-2.373.673-2.5 1.723h1.167c.134-.432.6-.679 1.273-.679.824 0 1.251.364 1.251 1.01v.527zm1.655 1.3v-.511l-1.492.1c-.841.056-1.223.342-1.223.881s.477.87 1.133.87a1.44 1.44 0 001.588-1.338zm5.322-3.961c-1.544 0-2.536 1.223-2.536 3.154s.982 3.158 2.536 3.158a2.121 2.121 0 001.919-1.066h.1v.965h1.155v-8.493h-1.21v3.356h-.09a2.014 2.014 0 00-1.873-1.072zm-1.291 3.154c0 1.3.611 2.076 1.632 2.076s1.644-.791 1.644-2.07-.633-2.079-1.642-2.079-1.633.785-1.633 2.07zm10.8-2.735a2.894 2.894 0 00-1.355 2.735 2.9 2.9 0 105.763 0 2.895 2.895 0 00-4.408-2.735zm3.175 2.736c0-1.324-.6-2.1-1.639-2.1s-1.638.775-1.638 2.1.59 2.1 1.638 2.1 1.639-.774 1.639-2.1zm4.019-3.052h-1.161v6.11h1.206v-3.574a1.4 1.4 0 011.459-1.548c.892 0 1.318.488 1.318 1.47v3.652h1.206v-3.955a1.987 1.987 0 00-2.117-2.277 1.829 1.829 0 00-1.823 1.089h-.09zm10.839-1.522v1.55h1.324v1.016h-1.324v3.142c0 .64.264.92.864.92a4.008 4.008 0 00.46-.028v1a3.954 3.954 0 01-.656.062c-1.341 0-1.875-.472-1.875-1.65V13.69h-.97v-1.016h.97v-1.55zm4.166-.864h-1.2v8.495h1.206v-3.567a1.427 1.427 0 011.538-1.549c.852 0 1.307.494 1.307 1.47v3.647h1.207v-3.945a2.013 2.013 0 00-2.1-2.278 1.88 1.88 0 00-1.862 1.091h-.1zm11.093 6.845a2.48 2.48 0 01-2.647 1.768 2.775 2.775 0 01-2.822-3.154 2.817 2.817 0 012.817-3.192c1.7 0 2.726 1.161 2.726 3.08v.421h-4.315v.068a1.616 1.616 0 001.627 1.75 1.467 1.467 0 001.455-.741zm-1.155-1.969h-3.087a1.562 1.562 0 011.582-1.583 1.474 1.474 0 011.5 1.583zM30.229 10.646a6.611 6.611 0 01-1.512 4.736 5.562 5.562 0 01-4.392 2.077 6.291 6.291 0 011.548-4.561 6.726 6.726 0 014.356-2.252zm5.391 10.08a6.715 6.715 0 00-3.2 5.634 6.488 6.488 0 003.964 5.966 14.874 14.874 0 01-2.06 4.2c-1.214 1.815-2.486 3.589-4.506 3.622a5.05 5.05 0 01-2.284-.542 5.988 5.988 0 00-2.588-.613 6.347 6.347 0 00-2.726.634 5.725 5.725 0 01-2.131.566c-1.923.071-3.393-1.938-4.651-3.736-2.514-3.673-4.471-10.35-1.847-14.893a7.212 7.212 0 016.069-3.7 7.924 7.924 0 013.055.767 5.6 5.6 0 001.841.534 5.7 5.7 0 001.769-.523 8.385 8.385 0 013.879-.84 6.874 6.874 0 015.416 2.924z" fill="#fff" fill-rule="evenodd"/></svg>