<svg xmlns="http://www.w3.org/2000/svg" xmlns:xlink="http://www.w3.org/1999/xlink" width="300" height="300"><defs><clipPath id="b"><path data-name="Rectangle 3198" transform="translate(772 2687)" fill="none" stroke="#707070" d="M0 0h300v300H0z"/></clipPath><clipPath id="c"><path data-name="Path 959" d="M146.985 0c25.814 0 50.248 10.251 71.321 21.932 15.287 8.474 27 22.382 38.35 35.039 22.087 24.622 37.314 53.363 37.314 90.014 0 13.151.5 27.494-2.737 39.629-10.255 38.4-41.032 66.446-75.487 85.213-21.788 11.867-42.367 22.143-68.762 22.143-34.5 0-65.613-16.945-90.8-36.934C22.369 230.2 0 193.662 0 146.985c0-37.666 17.861-68.857 41.2-94.91C68.071 22.072 103.474 0 146.985 0z" transform="rotate(-85 992.34 747.967)" fill="#deeeff"/></clipPath><clipPath id="d"><path data-name="Rectangle 850" fill="none" d="M0 0h293.532v464.913H0z"/></clipPath><clipPath id="e"><path data-name="Rectangle 653" fill="none" d="M0 0h293.532v28.795H0z"/></clipPath><clipPath id="f"><path data-name="Rectangle 735" fill="none" d="M0 0h21.094v23.583H0z"/></clipPath><clipPath id="g"><path data-name="Rectangle 655" fill="none" d="M0 0h20.962v23.435H0z"/></clipPath><clipPath id="h"><path data-name="Rectangle 656" fill="none" d="M0 0h20.829v23.288H0z"/></clipPath><clipPath id="i"><path data-name="Rectangle 657" fill="none" d="M0 0h20.698v23.14H0z"/></clipPath><clipPath id="j"><path data-name="Rectangle 658" fill="none" d="M0 0h20.566v22.993H0z"/></clipPath><clipPath id="k"><path data-name="Rectangle 659" fill="none" d="M0 0h20.434v22.847H0z"/></clipPath><clipPath id="l"><path data-name="Rectangle 660" fill="none" d="M0 0h20.302v22.698H0z"/></clipPath><clipPath id="m"><path data-name="Rectangle 661" fill="none" d="M0 0h20.17v22.551H0z"/></clipPath><clipPath id="n"><path data-name="Rectangle 662" fill="none" d="M0 0h20.038v22.403H0z"/></clipPath><clipPath id="o"><path data-name="Rectangle 663" fill="none" d="M0 0h19.907v22.256H0z"/></clipPath><clipPath id="p"><path data-name="Rectangle 664" fill="none" d="M0 0h19.775v22.11H0z"/></clipPath><clipPath id="q"><path data-name="Rectangle 665" fill="none" d="M0 0h19.643v21.961H0z"/></clipPath><clipPath id="r"><path data-name="Rectangle 666" fill="none" d="M0 0h19.511v21.814H0z"/></clipPath><clipPath id="s"><path data-name="Rectangle 667" fill="none" d="M0 0h19.38v21.666H0z"/></clipPath><clipPath id="t"><path data-name="Rectangle 668" fill="none" d="M0 0h19.248v21.519H0z"/></clipPath><clipPath id="u"><path data-name="Rectangle 669" fill="none" d="M0 0h19.116v21.372H0z"/></clipPath><clipPath id="v"><path data-name="Rectangle 670" fill="none" d="M0 0h18.984v21.224H0z"/></clipPath><clipPath id="w"><path data-name="Rectangle 671" fill="none" d="M0 0h18.852v21.077H0z"/></clipPath><clipPath id="x"><path data-name="Rectangle 672" fill="none" d="M0 0h18.72v20.93H0z"/></clipPath><clipPath id="y"><path data-name="Rectangle 673" fill="none" d="M0 0h18.589v20.782H0z"/></clipPath><clipPath id="z"><path data-name="Rectangle 674" fill="none" d="M0 0h18.457v20.635H0z"/></clipPath><clipPath id="A"><path data-name="Rectangle 675" fill="none" d="M0 0h18.324v20.487H0z"/></clipPath><clipPath id="B"><path data-name="Rectangle 676" fill="none" d="M0 0h18.193v20.34H0z"/></clipPath><clipPath id="C"><path data-name="Rectangle 677" fill="none" d="M0 0h18.061v20.193H0z"/></clipPath><clipPath id="D"><path data-name="Rectangle 678" fill="none" d="M0 0h17.929v20.045H0z"/></clipPath><clipPath id="E"><path data-name="Rectangle 679" fill="none" d="M0 0h17.797v19.898H0z"/></clipPath><clipPath id="F"><path data-name="Rectangle 680" fill="none" d="M0 0h17.666v19.75H0z"/></clipPath><clipPath id="G"><path data-name="Rectangle 681" fill="none" d="M0 0h17.534v19.603H0z"/></clipPath><clipPath id="H"><path data-name="Rectangle 682" fill="none" d="M0 0h17.402v19.456H0z"/></clipPath><clipPath id="I"><path data-name="Rectangle 683" fill="none" d="M0 0h17.271v19.308H0z"/></clipPath><clipPath id="J"><path data-name="Rectangle 684" fill="none" d="M0 0h17.139v19.161H0z"/></clipPath><clipPath id="K"><path data-name="Rectangle 685" fill="none" d="M0 0h17.006v19.013H0z"/></clipPath><clipPath id="L"><path data-name="Rectangle 686" fill="none" d="M0 0h16.875v18.866H0z"/></clipPath><clipPath id="M"><path data-name="Rectangle 687" fill="none" d="M0 0h16.743v18.719H0z"/></clipPath><clipPath id="N"><path data-name="Rectangle 688" fill="none" d="M0 0h16.611v18.571H0z"/></clipPath><clipPath id="O"><path data-name="Rectangle 689" fill="none" d="M0 0h16.479v18.424H0z"/></clipPath><clipPath id="P"><path data-name="Rectangle 690" fill="none" d="M0 0h16.347v18.277H0z"/></clipPath><clipPath id="Q"><path data-name="Rectangle 691" fill="none" d="M0 0h16.215v18.129H0z"/></clipPath><clipPath id="R"><path data-name="Rectangle 692" fill="none" d="M0 0h16.083v17.982H0z"/></clipPath><clipPath id="S"><path data-name="Rectangle 693" fill="none" d="M0 0h15.952v17.834H0z"/></clipPath><clipPath id="T"><path data-name="Rectangle 694" fill="none" d="M0 0h15.82v17.687H0z"/></clipPath><clipPath id="U"><path data-name="Rectangle 695" fill="none" d="M0 0h15.688v17.54H0z"/></clipPath><clipPath id="V"><path data-name="Rectangle 696" fill="none" d="M0 0h15.557v17.392H0z"/></clipPath><clipPath id="W"><path data-name="Rectangle 697" fill="none" d="M0 0h15.425v17.245H0z"/></clipPath><clipPath id="X"><path data-name="Rectangle 698" fill="none" d="M0 0h15.292v17.097H0z"/></clipPath><clipPath id="Y"><path data-name="Rectangle 699" fill="none" d="M0 0h15.161v16.95H0z"/></clipPath><clipPath id="Z"><path data-name="Rectangle 700" fill="none" d="M0 0h15.029v16.804H0z"/></clipPath><clipPath id="aa"><path data-name="Rectangle 701" fill="none" d="M0 0h14.897v16.655H0z"/></clipPath><clipPath id="ab"><path data-name="Rectangle 702" fill="none" d="M0 0h14.765v16.508H0z"/></clipPath><clipPath id="ac"><path data-name="Rectangle 703" fill="none" d="M0 0h14.633v16.36H0z"/></clipPath><clipPath id="ad"><path data-name="Rectangle 704" fill="none" d="M0 0h14.501v16.213H0z"/></clipPath><clipPath id="ae"><path data-name="Rectangle 705" fill="none" d="M0 0h14.369v16.066H0z"/></clipPath><clipPath id="af"><path data-name="Rectangle 706" fill="none" d="M0 0h14.238v15.918H0z"/></clipPath><clipPath id="ag"><path data-name="Rectangle 707" fill="none" d="M0 0h14.106v15.771H0z"/></clipPath><clipPath id="ah"><path data-name="Rectangle 708" fill="none" d="M0 0h13.974v15.623H0z"/></clipPath><clipPath id="ai"><path data-name="Rectangle 709" fill="none" d="M0 0h13.843v15.476H0z"/></clipPath><clipPath id="aj"><path data-name="Rectangle 710" fill="none" d="M0 0h13.711v15.329H0z"/></clipPath><clipPath id="ak"><path data-name="Rectangle 711" fill="none" d="M0 0h13.579v15.181H0z"/></clipPath><clipPath id="al"><path data-name="Rectangle 712" fill="none" d="M0 0h13.447v15.034H0z"/></clipPath><clipPath id="am"><path data-name="Rectangle 713" fill="none" d="M0 0h13.315v14.887H0z"/></clipPath><clipPath id="an"><path data-name="Rectangle 714" fill="none" d="M0 0h13.183v14.739H0z"/></clipPath><clipPath id="ao"><path data-name="Rectangle 715" fill="none" d="M0 0h13.051v14.592H0z"/></clipPath><clipPath id="ap"><path data-name="Rectangle 716" fill="none" d="M0 0h12.92v14.444H0z"/></clipPath><clipPath id="aq"><path data-name="Rectangle 717" fill="none" d="M0 0h12.788v14.297H0z"/></clipPath><clipPath id="ar"><path data-name="Rectangle 718" fill="none" d="M0 0h12.656v14.15H0z"/></clipPath><clipPath id="as"><path data-name="Rectangle 719" fill="none" d="M0 0h12.524v14.002H0z"/></clipPath><clipPath id="at"><path data-name="Rectangle 720" fill="none" d="M0 0h12.392v13.855H0z"/></clipPath><clipPath id="au"><path data-name="Rectangle 721" fill="none" d="M0 0h12.26v13.707H0z"/></clipPath><clipPath id="av"><path data-name="Rectangle 722" fill="none" d="M0 0h12.129v13.56H0z"/></clipPath><clipPath id="aw"><path data-name="Rectangle 723" fill="none" d="M0 0h11.997v13.413H0z"/></clipPath><clipPath id="ax"><path data-name="Rectangle 724" fill="none" d="M0 0h11.865v13.265H0z"/></clipPath><clipPath id="ay"><path data-name="Rectangle 725" fill="none" d="M0 0h11.733v13.118H0z"/></clipPath><clipPath id="az"><path data-name="Rectangle 726" fill="none" d="M0 0h11.602v12.97H0z"/></clipPath><clipPath id="aA"><path data-name="Rectangle 727" fill="none" d="M0 0h11.47v12.823H0z"/></clipPath><clipPath id="aB"><path data-name="Rectangle 728" fill="none" d="M0 0h11.338v12.676H0z"/></clipPath><clipPath id="aC"><path data-name="Rectangle 729" fill="none" d="M0 0h11.206v12.528H0z"/></clipPath><clipPath id="aD"><path data-name="Rectangle 730" fill="none" d="M0 0h11.074v12.381H0z"/></clipPath><clipPath id="aE"><path data-name="Rectangle 731" fill="none" d="M0 0h10.942v12.233H0z"/></clipPath><clipPath id="aF"><path data-name="Rectangle 732" fill="none" d="M0 0h10.81v12.086H0z"/></clipPath><clipPath id="aG"><path data-name="Rectangle 733" fill="none" d="M0 0h10.678v11.939H0z"/></clipPath><clipPath id="aH"><path data-name="Rectangle 734" fill="none" d="M0 0h10.546v11.791H0z"/></clipPath><clipPath id="aI"><path data-name="Rectangle 817" fill="none" d="M0 0h22.975v23.584H0z"/></clipPath><clipPath id="aJ"><path data-name="Rectangle 737" fill="none" d="M0 0h22.832v23.435H0z"/></clipPath><clipPath id="aK"><path data-name="Rectangle 738" fill="none" d="M0 0h22.688v23.288H0z"/></clipPath><clipPath id="aL"><path data-name="Rectangle 739" fill="none" d="M0 0h22.544v23.141H0z"/></clipPath><clipPath id="aM"><path data-name="Rectangle 740" fill="none" d="M0 0h22.401v22.993H0z"/></clipPath><clipPath id="aN"><path data-name="Rectangle 741" fill="none" d="M0 0h22.257v22.847H0z"/></clipPath><clipPath id="aO"><path data-name="Rectangle 742" fill="none" d="M0 0h22.114v22.699H0z"/></clipPath><clipPath id="aP"><path data-name="Rectangle 743" fill="none" d="M0 0h21.97v22.551H0z"/></clipPath><clipPath id="aQ"><path data-name="Rectangle 744" fill="none" d="M0 0h21.826v22.405H0z"/></clipPath><clipPath id="aR"><path data-name="Rectangle 745" fill="none" d="M0 0h21.683v22.256H0z"/></clipPath><clipPath id="aS"><path data-name="Rectangle 746" fill="none" d="M0 0h21.539v22.11H0z"/></clipPath><clipPath id="aT"><path data-name="Rectangle 747" fill="none" d="M0 0h21.396v21.962H0z"/></clipPath><clipPath id="aU"><path data-name="Rectangle 748" fill="none" d="M0 0h21.252v21.814H0z"/></clipPath><clipPath id="aV"><path data-name="Rectangle 749" fill="none" d="M0 0h21.108v21.668H0z"/></clipPath><clipPath id="aW"><path data-name="Rectangle 750" fill="none" d="M0 0h20.965v21.519H0z"/></clipPath><clipPath id="aX"><path data-name="Rectangle 751" fill="none" d="M0 0h20.821v21.372H0z"/></clipPath><clipPath id="aY"><path data-name="Rectangle 752" fill="none" d="M0 0h20.678v21.225H0z"/></clipPath><clipPath id="aZ"><path data-name="Rectangle 753" fill="none" d="M0 0h20.534v21.077H0z"/></clipPath><clipPath id="ba"><path data-name="Rectangle 754" fill="none" d="M0 0h20.39v20.931H0z"/></clipPath><clipPath id="bb"><path data-name="Rectangle 755" fill="none" d="M0 0h20.247v20.782H0z"/></clipPath><clipPath id="bc"><path data-name="Rectangle 756" fill="none" d="M0 0h20.103v20.635H0z"/></clipPath><clipPath id="bd"><path data-name="Rectangle 757" fill="none" d="M0 0h19.96v20.488H0z"/></clipPath><clipPath id="be"><path data-name="Rectangle 758" fill="none" d="M0 0h19.817v20.34H0z"/></clipPath><clipPath id="bf"><path data-name="Rectangle 759" fill="none" d="M0 0h19.672v20.194H0z"/></clipPath><clipPath id="bg"><path data-name="Rectangle 760" fill="none" d="M0 0h19.529v20.045H0z"/></clipPath><clipPath id="bh"><path data-name="Rectangle 761" fill="none" d="M0 0h19.385v19.898H0z"/></clipPath><clipPath id="bi"><path data-name="Rectangle 762" fill="none" d="M0 0h19.241v19.751H0z"/></clipPath><clipPath id="bj"><path data-name="Rectangle 763" fill="none" d="M0 0h19.099v19.603H0z"/></clipPath><clipPath id="bk"><path data-name="Rectangle 764" fill="none" d="M0 0h18.954v19.457H0z"/></clipPath><clipPath id="bl"><path data-name="Rectangle 765" fill="none" d="M0 0h18.811v19.308H0z"/></clipPath><clipPath id="bm"><path data-name="Rectangle 766" fill="none" d="M0 0h18.667v19.161H0z"/></clipPath><clipPath id="bn"><path data-name="Rectangle 767" fill="none" d="M0 0h18.523v19.015H0z"/></clipPath><clipPath id="bo"><path data-name="Rectangle 768" fill="none" d="M0 0h18.38v18.866H0z"/></clipPath><clipPath id="bp"><path data-name="Rectangle 769" fill="none" d="M0 0h18.236v18.719H0z"/></clipPath><clipPath id="bq"><path data-name="Rectangle 770" fill="none" d="M0 0h18.093v18.572H0z"/></clipPath><clipPath id="br"><path data-name="Rectangle 771" fill="none" d="M0 0h17.949v18.424H0z"/></clipPath><clipPath id="bs"><path data-name="Rectangle 772" fill="none" d="M0 0h17.805v18.278H0z"/></clipPath><clipPath id="bt"><path data-name="Rectangle 773" fill="none" d="M0 0h17.662v18.129H0z"/></clipPath><clipPath id="bu"><path data-name="Rectangle 774" fill="none" d="M0 0h17.518v17.982H0z"/></clipPath><clipPath id="bv"><path data-name="Rectangle 775" fill="none" d="M0 0h17.375v17.835H0z"/></clipPath><clipPath id="bw"><path data-name="Rectangle 776" fill="none" d="M0 0h17.231v17.687H0z"/></clipPath><clipPath id="bx"><path data-name="Rectangle 777" fill="none" d="M0 0h17.087v17.541H0z"/></clipPath><clipPath id="by"><path data-name="Rectangle 778" fill="none" d="M0 0h16.944v17.392H0z"/></clipPath><clipPath id="bz"><path data-name="Rectangle 779" fill="none" d="M0 0h16.801v17.245H0z"/></clipPath><clipPath id="bA"><path data-name="Rectangle 780" fill="none" d="M0 0h16.657v17.098H0z"/></clipPath><clipPath id="bB"><path data-name="Rectangle 781" fill="none" d="M0 0h16.514v16.95H0z"/></clipPath><clipPath id="bC"><path data-name="Rectangle 782" fill="none" d="M0 0h16.369v16.803H0z"/></clipPath><clipPath id="bD"><path data-name="Rectangle 783" fill="none" d="M0 0h16.226v16.655H0z"/></clipPath><clipPath id="bE"><path data-name="Rectangle 784" fill="none" d="M0 0h16.083v16.508H0z"/></clipPath><clipPath id="bF"><path data-name="Rectangle 785" fill="none" d="M0 0h15.939v16.361H0z"/></clipPath><clipPath id="bG"><path data-name="Rectangle 786" fill="none" d="M0 0h15.795v16.213H0z"/></clipPath><clipPath id="bH"><path data-name="Rectangle 787" fill="none" d="M0 0h15.651v16.066H0z"/></clipPath><clipPath id="bI"><path data-name="Rectangle 788" fill="none" d="M0 0h15.508v15.918H0z"/></clipPath><clipPath id="bJ"><path data-name="Rectangle 789" fill="none" d="M0 0h15.365v15.771H0z"/></clipPath><clipPath id="bK"><path data-name="Rectangle 790" fill="none" d="M0 0h15.221v15.625H0z"/></clipPath><clipPath id="bL"><path data-name="Rectangle 791" fill="none" d="M0 0h15.078v15.476H0z"/></clipPath><clipPath id="bM"><path data-name="Rectangle 792" fill="none" d="M0 0h14.933v15.329H0z"/></clipPath><clipPath id="bN"><path data-name="Rectangle 793" fill="none" d="M0 0h14.79v15.182H0z"/></clipPath><clipPath id="bO"><path data-name="Rectangle 794" fill="none" d="M0 0h14.647v15.034H0z"/></clipPath><clipPath id="bP"><path data-name="Rectangle 795" fill="none" d="M0 0h14.503v14.887H0z"/></clipPath><clipPath id="bQ"><path data-name="Rectangle 796" fill="none" d="M0 0h14.36v14.739H0z"/></clipPath><clipPath id="bR"><path data-name="Rectangle 797" fill="none" d="M0 0h14.215v14.592H0z"/></clipPath><clipPath id="bS"><path data-name="Rectangle 798" fill="none" d="M0 0h14.072v14.445H0z"/></clipPath><clipPath id="bT"><path data-name="Rectangle 799" fill="none" d="M0 0h13.929v14.297H0z"/></clipPath><clipPath id="bU"><path data-name="Rectangle 800" fill="none" d="M0 0h13.785v14.15H0z"/></clipPath><clipPath id="bV"><path data-name="Rectangle 801" fill="none" d="M0 0h13.642v14.002H0z"/></clipPath><clipPath id="bW"><path data-name="Rectangle 802" fill="none" d="M0 0h13.498v13.855H0z"/></clipPath><clipPath id="bX"><path data-name="Rectangle 803" fill="none" d="M0 0h13.354v13.708H0z"/></clipPath><clipPath id="bY"><path data-name="Rectangle 804" fill="none" d="M0 0h13.211v13.56H0z"/></clipPath><clipPath id="bZ"><path data-name="Rectangle 805" fill="none" d="M0 0h13.067v13.413H0z"/></clipPath><clipPath id="ca"><path data-name="Rectangle 806" fill="none" d="M0 0h12.924v13.265H0z"/></clipPath><clipPath id="cb"><path data-name="Rectangle 807" fill="none" d="M0 0h12.78v13.118H0z"/></clipPath><clipPath id="cc"><path data-name="Rectangle 808" fill="none" d="M0 0h12.636v12.971H0z"/></clipPath><clipPath id="cd"><path data-name="Rectangle 809" fill="none" d="M0 0h12.492v12.823H0z"/></clipPath><clipPath id="ce"><path data-name="Rectangle 810" fill="none" d="M0 0h12.349v12.676H0z"/></clipPath><clipPath id="cf"><path data-name="Rectangle 811" fill="none" d="M0 0h12.206v12.528H0z"/></clipPath><clipPath id="cg"><path data-name="Rectangle 812" fill="none" d="M0 0h12.062v12.381H0z"/></clipPath><clipPath id="ch"><path data-name="Rectangle 813" fill="none" d="M0 0h11.918v12.234H0z"/></clipPath><clipPath id="ci"><path data-name="Rectangle 814" fill="none" d="M0 0h11.775v12.086H0z"/></clipPath><clipPath id="cj"><path data-name="Rectangle 815" fill="none" d="M0 0h11.631v11.939H0z"/></clipPath><clipPath id="ck"><path data-name="Rectangle 816" fill="none" d="M0 0h11.488v11.792H0z"/></clipPath><clipPath id="cl"><path data-name="Path 2018" d="M193.144 66.639a6.606 6.606 0 00-.255 2.669 12.8 12.8 0 001.9.237 21.866 21.866 0 002.8-.015 6.836 6.836 0 00.465-1.125c.7-2.319.176-4.595-1.181-5.083a1.565 1.565 0 00-.535-.092c-1.234 0-2.582 1.388-3.2 3.41" transform="translate(-192.848 -63.229)" fill="none"/></clipPath><clipPath id="cm"><path data-name="Rectangle 820" fill="none" d="M0 0h3.724v2.812H0z"/></clipPath><clipPath id="cn"><path data-name="Path 2020" d="M225.766 67.228a6.29 6.29 0 00-.169 3.232 10.128 10.128 0 003.8.878 6.279 6.279 0 001.275-2.344c.7-2.32.176-4.6-1.181-5.083a1.569 1.569 0 00-.535-.093c-1.234 0-2.582 1.388-3.2 3.41" transform="translate(-225.459 -63.818)" fill="none"/></clipPath><clipPath id="cp"><path data-name="Rectangle 823" fill="none" d="M0 0h3.69v2.679H0z"/></clipPath><clipPath id="cq"><path data-name="Rectangle 824" fill="none" d="M0 0h18.673v3.84H0z"/></clipPath><clipPath id="cr"><path data-name="Rectangle 825" fill="none" d="M0 0h8.804v11.298H0z"/></clipPath><clipPath id="cs"><path data-name="Rectangle 826" fill="none" d="M0 0h.028v.004H0z"/></clipPath><clipPath id="ct"><path data-name="Path 2040" d="M233.96 15.987z" transform="translate(-233.96 -15.987)" fill="none"/></clipPath><clipPath id="cu"><path data-name="Rectangle 827" fill="none" d="M0 0h50.193v14.6H0z"/></clipPath><clipPath id="cv"><path data-name="Rectangle 828" fill="none" d="M0 0h.02v.002H0z"/></clipPath><clipPath id="cw"><path data-name="Rectangle 829" fill="none" d="M0 0h9.407v4.924H0z"/></clipPath><clipPath id="cx"><path data-name="Rectangle 830" fill="none" d="M0 0h15.074v16.627H0z"/></clipPath><clipPath id="cy"><path data-name="Rectangle 831" fill="none" d="M0 0h15.421v13.941H0z"/></clipPath><clipPath id="cz"><path data-name="Rectangle 832" fill="none" d="M0 0h33.236v101.405H0z"/></clipPath><clipPath id="cA"><path data-name="Rectangle 833" fill="none" d="M0 0h46.698v97.872H0z"/></clipPath><clipPath id="cB"><path data-name="Rectangle 834" fill="none" d="M0 0h12.878v20.574H0z"/></clipPath><clipPath id="cC"><path data-name="Rectangle 835" fill="none" d="M0 0h16.687v21.8H0z"/></clipPath><clipPath id="cD"><path data-name="Rectangle 836" fill="none" d="M0 0h8.914v20.779H0z"/></clipPath><clipPath id="cE"><path data-name="Rectangle 837" fill="none" d="M0 0h11.011v19.907H0z"/></clipPath><clipPath id="cF"><path data-name="Rectangle 838" fill="none" d="M0 0h18.197v32.598H0z"/></clipPath><clipPath id="cG"><path data-name="Rectangle 840" fill="none" d="M0 0h23.142v11.287H0z"/></clipPath><clipPath id="cH"><path data-name="Rectangle 841" fill="none" d="M0 0h28.694v12.755H0z"/></clipPath><clipPath id="cI"><path data-name="Rectangle 842" fill="none" d="M0 0h60.442v35.515H0z"/></clipPath><clipPath id="cJ"><path data-name="Path 2110" d="M37.741 52.942c-3.709 21.03 3.823 40.037 16.822 42.451s26.544-12.676 30.252-33.707-3.824-40.036-16.823-42.451a15.067 15.067 0 00-2.758-.254c-12.1 0-24.047 14.415-27.492 33.961" transform="translate(-36.796 -18.981)" fill="none"/></clipPath><clipPath id="cL"><path data-name="Rectangle 845" fill="none" d="M0 0h36.841v33.103H0z"/></clipPath><clipPath id="cM"><path data-name="Rectangle 846" fill="none" d="M0 0h43.686v15.473H0z"/></clipPath><clipPath id="cN"><path data-name="Rectangle 847" fill="none" d="M0 0h37.157v28.143H0z"/></clipPath><clipPath id="cO"><path data-name="Rectangle 848" fill="none" d="M0 0h11.923v18.492H0z"/></clipPath><linearGradient id="a" x1="-19.455" y1="51.883" x2="-19.353" y2="51.883" gradientUnits="objectBoundingBox"><stop offset="0" stop-color="#5c3333"/><stop offset="1" stop-color="#231f20"/></linearGradient><linearGradient id="co" x1="-20.319" y1="50.263" x2="-20.228" y2="50.263" xlink:href="#a"/><linearGradient id="cK" x1="-.133" y1="6.427" x2="-.124" y2="6.427" gradientUnits="objectBoundingBox"><stop offset="0" stop-color="#fff"/><stop offset="1" stop-color="#231f20"/></linearGradient></defs><g data-name="Mask Group 31" transform="translate(-772 -2687)" clip-path="url(#b)"><g data-name="Group 9314"><path data-name="Path 957" d="M775.54 2824.915c2.25-25.715 14.592-49.163 28.065-69.138 9.774-14.49 24.65-24.946 38.248-35.15 26.454-19.857 56.412-32.521 92.924-29.327 13.1 1.146 27.433 1.898 39.24 6.18 37.36 13.563 62.616 46.668 78.31 82.627 9.922 22.74 18.365 44.136 16.065 70.43-3.007 34.37-22.6 63.887-44.707 87.236-29.681 31.347-68.03 50.447-114.53 46.379-37.522-3.283-67.038-23.795-90.957-49.316-27.547-29.383-46.45-66.575-42.657-109.92z" fill="#deeeff"/><g data-name="Mask Group 7" transform="translate(602 1300)" clip-path="url(#c)"><g data-name="Group 2479"><g data-name="Group 2478" clip-path="url(#d)" transform="translate(181.673 1433.302)"><g data-name="Group 2390"><g data-name="Group 2389" clip-path="url(#d)"><g data-name="Group 1896"><g data-name="Group 1895" opacity=".07"><g data-name="Group 1894" clip-path="url(#e)" transform="translate(0 436.118)"><path data-name="Path 1845" d="M293.531 14.397s-65.71 14.4-146.765 14.4S0 14.397 0 14.397s65.71-14.4 146.766-14.4 146.765 14.4 146.765 14.4" fill="#1e0d03"/></g></g></g><path data-name="Path 1846" d="M158.036 104.709s-13.074-2.743-26.981 7.725-45.969 47.688-45.969 47.688l1.854 10.948s11.117 19.226 47.42-19.375c31.05-33.016 23.677-46.987 23.677-46.987" fill="#6d7db3"/><path data-name="Path 1847" d="M142.545 52.844c-3.027 1.022-4.388 5.561-3.038 10.136s4.9 7.454 7.922 6.432 4.388-5.561 3.038-10.136-4.9-7.455-7.922-6.432" fill="#d78c74"/><path data-name="Path 1848" d="M160.793 89.323l-1.958 17.127c-.074 4.813 6.735 5.241 13.294 5.356s11.926-.685 12-5.5V89.323z" fill="#d78c74"/><path data-name="Path 1849" d="M162.011 11.649s0-.052-.016-.139c.009.089.016.139.016.139" fill="#381911"/><path data-name="Path 1850" d="M195.382 25.684c-1.708-10.778-31.332-15.868-40.059-1.068-2.781 6.865-7.306 19.676-8.812 32.4v-.218s-8.066 33.844 21.271 35.948 32.6-13.777 31.357-33.564c.035-11.132-1.552-25.209-3.76-33.5" fill="#e5a185"/><g data-name="Group 2142"><g data-name="Group 2141" opacity=".38"><g data-name="Group 2140" clip-path="url(#f)" transform="translate(146.22 51.583)"><g data-name="Group 1899"><g data-name="Group 1898"><g data-name="Group 1897" clip-path="url(#f)"><path data-name="Path 1851" d="M10.705.001C4.88-.081.089 5.131.005 11.643S4.568 23.5 10.392 23.582s10.616-5.13 10.7-11.642S16.528.083 10.705.001" fill="#e5a185"/></g></g></g><g data-name="Group 1902"><g data-name="Group 1901"><g data-name="Group 1900" clip-path="url(#g)" transform="translate(.066 .073)"><path data-name="Path 1852" d="M10.638.001C4.85-.081.088 5.101.002 11.569s4.535 11.784 10.322 11.865 10.55-5.1 10.637-11.568S16.426.082 10.638.001" fill="#e5a084"/></g></g></g><g data-name="Group 1905"><g data-name="Group 1904"><g data-name="Group 1903" clip-path="url(#h)" transform="translate(.132 .147)"><path data-name="Path 1853" d="M10.571.001C4.82-.081.087 5.067.001 11.501s4.506 11.709 10.257 11.79 10.484-5.065 10.57-11.5S16.322.082 10.571.001" fill="#e59f83"/></g></g></g><g data-name="Group 1908"><g data-name="Group 1907"><g data-name="Group 1906" clip-path="url(#i)" transform="translate(.198 .221)"><path data-name="Path 1854" d="M10.5.001C4.785-.08.083 5.034 0 11.424s4.478 11.634 10.192 11.715 10.418-5.033 10.5-11.423S16.219.082 10.5.001" fill="#e49e83"/></g></g></g><g data-name="Group 1911"><g data-name="Group 1910"><g data-name="Group 1909" clip-path="url(#j)" transform="translate(.263 .294)"><path data-name="Path 1855" d="M10.438.001C4.76-.079.087 5.001.002 11.352s4.45 11.561 10.128 11.641 10.35-5 10.436-11.351S16.118.081 10.438.001" fill="#e49d82"/></g></g></g><g data-name="Group 1914"><g data-name="Group 1913"><g data-name="Group 1912" clip-path="url(#k)" transform="translate(.329 .368)"><path data-name="Path 1856" d="M10.371.002C4.73-.078.086 4.972.002 11.28s4.421 11.486 10.063 11.566 10.285-4.97 10.369-11.277S16.013.086 10.371.002" fill="#e49c81"/></g></g></g><g data-name="Group 1917"><g data-name="Group 1916"><g data-name="Group 1915" clip-path="url(#l)" transform="translate(.396 .442)"><path data-name="Path 1857" d="M10.303-.004C4.698-.083.085 4.934.003 11.196s4.393 11.413 10 11.492 10.219-4.937 10.3-11.2S15.91.075 10.303-.004" fill="#e49b80"/></g></g></g><g data-name="Group 1920"><g data-name="Group 1919"><g data-name="Group 1918" clip-path="url(#m)" transform="translate(.462 .515)"><path data-name="Path 1858" d="M10.236.001C4.666-.077.084 4.906 0 11.133s4.364 11.338 9.933 11.418 10.152-4.906 10.236-11.132S15.805.081 10.236.002" fill="#e49a80"/></g></g></g><g data-name="Group 1923"><g data-name="Group 1922"><g data-name="Group 1921" clip-path="url(#n)" transform="translate(.528 .589)"><path data-name="Path 1859" d="M10.17.001C4.636-.077.084 4.874.001 11.061S4.336 22.325 9.87 22.403s10.085-4.873 10.168-11.06S15.703.079 10.17.001" fill="#e3997f"/></g></g></g><g data-name="Group 1926"><g data-name="Group 1925"><g data-name="Group 1924" clip-path="url(#o)" transform="translate(.594 .663)"><path data-name="Path 1860" d="M10.107.001C4.607-.076.087 4.843.007 10.988s4.307 11.19 9.8 11.267 10.02-4.841 10.1-10.987S15.6.078 10.107.001" fill="#e3987e"/></g></g></g><g data-name="Group 1929"><g data-name="Group 1928"><g data-name="Group 1927" clip-path="url(#p)" transform="translate(.659 .736)"><path data-name="Path 1861" d="M10.036.001C4.576-.076.083 4.81.002 10.915S4.28 22.032 9.74 22.108s9.952-4.809 10.035-10.914S15.497.078 10.037.001" fill="#e3977d"/></g></g></g><g data-name="Group 1932"><g data-name="Group 1931"><g data-name="Group 1930" clip-path="url(#q)" transform="translate(.725 .81)"><path data-name="Path 1862" d="M9.969.001C4.545-.076.082 4.778.002 10.841S4.251 21.883 9.675 21.96s9.886-4.777 9.968-10.841S15.393.077 9.97.001" fill="#e3967c"/></g></g></g><g data-name="Group 1935"><g data-name="Group 1934"><g data-name="Group 1933" clip-path="url(#r)" transform="translate(.791 .884)"><path data-name="Path 1863" d="M9.902.002C4.515-.074.082 4.747.002 10.771S4.223 21.738 9.61 21.815s9.82-4.745 9.9-10.769S15.289.078 9.901.002" fill="#e2957c"/></g></g></g><g data-name="Group 1938"><g data-name="Group 1937"><g data-name="Group 1936" clip-path="url(#s)" transform="translate(.857 .958)"><path data-name="Path 1864" d="M9.835.001C4.484-.075.081 4.713.002 10.701S4.195 21.595 9.545 21.67s9.753-4.712 9.834-10.7S15.186.077 9.835.001" fill="#e2947b"/></g></g></g><g data-name="Group 1941"><g data-name="Group 1940"><g data-name="Group 1939" clip-path="url(#t)" transform="translate(.923 1.031)"><path data-name="Path 1865" d="M9.768.001C4.453-.074.08 4.682.001 10.624s4.163 10.82 9.478 10.895 9.687-4.681 9.767-10.623S15.082.076 9.767.001" fill="#e2937a"/></g></g></g><g data-name="Group 1944"><g data-name="Group 1943"><g data-name="Group 1942" clip-path="url(#u)" transform="translate(.989 1.105)"><path data-name="Path 1866" d="M9.702.001C4.424-.073.081 4.65.002 10.552s4.135 10.746 9.413 10.82 9.621-4.65 9.7-10.55S14.979.076 9.702.001" fill="#e29279"/></g></g></g><g data-name="Group 1947"><g data-name="Group 1946"><g data-name="Group 1945" clip-path="url(#v)" transform="translate(1.055 1.179)"><path data-name="Path 1867" d="M9.633.002C4.392-.072.079 4.619.001 10.479S4.108 21.15 9.349 21.225s9.554-4.616 9.634-10.477S14.876.075 9.633.002" fill="#e29179"/></g></g></g><g data-name="Group 1950"><g data-name="Group 1949"><g data-name="Group 1948" clip-path="url(#w)" transform="translate(1.12 1.252)"><path data-name="Path 1868" d="M9.567.001C4.367-.072.079 4.586.001 10.401s4.078 10.6 9.283 10.671 9.489-4.585 9.567-10.4S14.772.072 9.567.001" fill="#e19078"/></g></g></g><g data-name="Group 1953"><g data-name="Group 1952"><g data-name="Group 1951" clip-path="url(#x)" transform="translate(1.186 1.327)"><path data-name="Path 1869" d="M9.501.001C4.332-.072.08 4.553.001 10.333s4.05 10.523 9.218 10.6 9.423-4.552 9.5-10.332S14.669.077 9.5.001" fill="#e18f77"/></g></g></g><g data-name="Group 1956"><g data-name="Group 1955"><g data-name="Group 1954" clip-path="url(#y)" transform="translate(1.252 1.4)"><path data-name="Path 1870" d="M9.434.001C4.301-.072.079 4.521.002 10.26s4.021 10.449 9.153 10.521 9.356-4.52 9.432-10.259S14.566.073 9.434.001" fill="#e18e76"/></g></g></g><g data-name="Group 1959"><g data-name="Group 1958"><g data-name="Group 1957" clip-path="url(#z)" transform="translate(1.318 1.473)"><path data-name="Path 1871" d="M9.367.001C4.267-.071.078 4.489.002 10.187s3.993 10.375 9.089 10.447 9.289-4.489 9.364-10.189S14.463.07 9.366-.002" fill="#e18d75"/></g></g></g><g data-name="Group 1962"><g data-name="Group 1961"><g data-name="Group 1960" clip-path="url(#A)" transform="translate(1.385 1.547)"><path data-name="Path 1872" d="M9.299.001C4.239-.071.077 4.458-.001 10.114s3.964 10.3 9.024 10.373 9.224-4.457 9.3-10.113S14.359.074 9.299.001" fill="#e18c75"/></g></g></g><g data-name="Group 1965"><g data-name="Group 1964"><g data-name="Group 1963" clip-path="url(#B)" transform="translate(1.451 1.621)"><path data-name="Path 1873" d="M9.232.001C4.208-.07.076 4.426 0 10.042s3.936 10.227 8.959 10.3 9.157-4.425 9.232-10.041S14.255.074 9.232.001" fill="#e08b74"/></g></g></g><g data-name="Group 1968"><g data-name="Group 1967"><g data-name="Group 1966" clip-path="url(#C)" transform="translate(1.516 1.695)"><path data-name="Path 1874" d="M9.166 0C4.179-.07.076 4.393.001 9.968s3.907 10.153 8.893 10.223 9.09-4.392 9.165-9.968S14.152.07 9.166 0" fill="#e08a73"/></g></g></g><g data-name="Group 1971"><g data-name="Group 1970"><g data-name="Group 1969" clip-path="url(#D)" transform="translate(1.582 1.768)"><path data-name="Path 1875" d="M9.098.001c-4.95-.07-9.023 4.36-9.1 9.895s3.879 10.079 8.829 10.149 9.024-4.36 9.1-9.895S14.049.071 9.098.001" fill="#e08972"/></g></g></g><g data-name="Group 1974"><g data-name="Group 1973"><g data-name="Group 1972" clip-path="url(#E)" transform="translate(1.648 1.842)"><path data-name="Path 1876" d="M9.032-.002C4.118-.071.075 4.326.001 9.821s3.85 10 8.764 10.074 8.957-4.328 9.031-9.823-3.85-10-8.764-10.074" fill="#e08872"/></g></g></g><g data-name="Group 1977"><g data-name="Group 1976"><g data-name="Group 1975" clip-path="url(#F)" transform="translate(1.714 1.916)"><path data-name="Path 1877" d="M8.965 0C4.087-.068.074 4.3.001 9.751s3.821 9.93 8.7 10 8.891-4.3 8.964-9.75-3.821-9.93-8.7-10" fill="#df8771"/></g></g></g><g data-name="Group 1980"><g data-name="Group 1979"><g data-name="Group 1978" clip-path="url(#G)" transform="translate(1.78 1.989)"><path data-name="Path 1878" d="M8.898.001C4.057-.067.074 4.265-.002 9.678s3.793 9.856 8.634 9.924 8.825-4.264 8.9-9.676S13.739.069 8.898.001" fill="#df8670"/></g></g></g><g data-name="Group 1983"><g data-name="Group 1982"><g data-name="Group 1981" clip-path="url(#H)" transform="translate(1.846 2.063)"><path data-name="Path 1879" d="M8.831.001c-4.8-.068-8.758 4.232-8.83 9.6s3.764 9.782 8.57 9.85 8.758-4.233 8.83-9.6S13.636.069 8.831.001" fill="#df856f"/></g></g></g><g data-name="Group 1986"><g data-name="Group 1985"><g data-name="Group 1984" clip-path="url(#I)" transform="translate(1.912 2.137)"><path data-name="Path 1880" d="M8.766.001C3.998-.067.074 4.201.003 9.532s3.736 9.708 8.5 9.775 8.692-4.2 8.763-9.531S13.53.068 8.766.001" fill="#df846f"/></g></g></g><g data-name="Group 1989"><g data-name="Group 1988"><g data-name="Group 1987" clip-path="url(#J)" transform="translate(1.977 2.21)"><path data-name="Path 1881" d="M8.697.001C3.965-.066.072 4.168-.003 9.46s3.707 9.633 8.44 9.7 8.626-4.168 8.7-9.459S13.43.067 8.697.001" fill="#df836e"/></g></g></g><g data-name="Group 1992"><g data-name="Group 1991"><g data-name="Group 1990" clip-path="url(#K)" transform="translate(2.043 2.284)"><path data-name="Path 1882" d="M8.631.001C3.931-.066.072 4.137.001 9.387s3.679 9.559 8.375 9.626 8.559-4.136 8.629-9.386S13.326.068 8.63.001" fill="#de826d"/></g></g></g><g data-name="Group 1995"><g data-name="Group 1994"><g data-name="Group 1993" clip-path="url(#L)" transform="translate(2.109 2.358)"><path data-name="Path 1883" d="M8.563.001C3.904-.065.07 4.101 0 9.314s3.65 9.486 8.31 9.552 8.493-4.1 8.563-9.314S13.223.067 8.563.001" fill="#de816c"/></g></g></g><g data-name="Group 1998"><g data-name="Group 1997"><g data-name="Group 1996" clip-path="url(#M)" transform="translate(2.175 2.431)"><path data-name="Path 1884" d="M8.498.001C3.874-.064.071 4.073-.002 9.241s3.621 9.412 8.245 9.477 8.427-4.071 8.5-9.24S13.122.066 8.498.001" fill="#de806b"/></g></g></g><g data-name="Group 2001"><g data-name="Group 2000"><g data-name="Group 1999" clip-path="url(#N)" transform="translate(2.241 2.505)"><path data-name="Path 1885" d="M8.43.001C3.843-.064.07 4.041.001 9.169s3.593 9.337 8.179 9.4 8.361-4.039 8.43-9.167S13.016.065 8.43.002" fill="#de7f6b"/></g></g></g><g data-name="Group 2004"><g data-name="Group 2003"><g data-name="Group 2002" clip-path="url(#O)" transform="translate(2.308 2.579)"><path data-name="Path 1886" d="M8.363.004C3.812-.06.069 4.012 0 9.104s3.564 9.263 8.115 9.328 8.294-4.008 8.363-9.1S12.913.069 8.363.004" fill="#de7e6a"/></g></g></g><g data-name="Group 2007"><g data-name="Group 2006"><g data-name="Group 2005" clip-path="url(#P)" transform="translate(2.373 2.653)"><path data-name="Path 1887" d="M8.291 0C3.778-.063.064 3.976-.009 9.023s3.536 9.19 8.05 9.253 8.228-3.975 8.3-9.022S12.805.065 8.291 0" fill="#dd7d69"/></g></g></g><g data-name="Group 2010"><g data-name="Group 2009"><g data-name="Group 2008" clip-path="url(#Q)" transform="translate(2.439 2.726)"><path data-name="Path 1888" d="M8.229.001C3.752-.062.068 3.944.001 8.95s3.508 9.116 7.985 9.175 8.161-3.943 8.228-8.949S12.706.061 8.229-.002" fill="#dd7c68"/></g></g></g><g data-name="Group 2013"><g data-name="Group 2012"><g data-name="Group 2011" clip-path="url(#R)" transform="translate(2.505 2.8)"><path data-name="Path 1889" d="M8.163.001C3.722-.062.063 3.913.001 8.878s3.48 9.041 7.92 9.1 8.1-3.912 8.162-8.877S12.604.06 8.163.001" fill="#dd7b68"/></g></g></g><g data-name="Group 2016"><g data-name="Group 2015"><g data-name="Group 2014" clip-path="url(#S)" transform="translate(2.571 2.874)"><path data-name="Path 1890" d="M8.095.001c-4.4-.062-8.028 3.88-8.094 8.8s3.451 8.967 7.856 9.029 8.028-3.88 8.094-8.8S12.5.064 8.095.001" fill="#dd7a67"/></g></g></g><g data-name="Group 2019"><g data-name="Group 2018"><g data-name="Group 2017" clip-path="url(#T)" transform="translate(2.637 2.947)"><path data-name="Path 1891" d="M8.028.001C3.66-.061.066 3.849 0 8.732s3.423 8.893 7.791 8.955 7.962-3.847 8.028-8.731S12.396.063 8.028.001" fill="#dd7a66"/></g></g></g><g data-name="Group 2022"><g data-name="Group 2021"><g data-name="Group 2020" clip-path="url(#U)" transform="translate(2.703 3.022)"><path data-name="Path 1892" d="M7.962 0C3.63-.061.062 3.815.001 8.658s3.393 8.819 7.726 8.88 7.9-3.815 7.961-8.658S12.295.061 7.962 0" fill="#dc7965"/></g></g></g><g data-name="Group 2025"><g data-name="Group 2024"><g data-name="Group 2023" clip-path="url(#V)" transform="translate(2.769 3.095)"><path data-name="Path 1893" d="M7.899.001C3.599-.059.07 3.784.005 8.587s3.365 8.745 7.661 8.806 7.83-3.783 7.894-8.586S12.195.062 7.899.001" fill="#dc7864"/></g></g></g><g data-name="Group 2028"><g data-name="Group 2027"><g data-name="Group 2026" clip-path="url(#W)" transform="translate(2.834 3.168)"><path data-name="Path 1894" d="M7.828.001C3.57-.059.065 3.752.001 8.514s3.337 8.671 7.6 8.731 7.763-3.751 7.827-8.513S12.091.061 7.828.001" fill="#dc7764"/></g></g></g><g data-name="Group 2031"><g data-name="Group 2030"><g data-name="Group 2029" clip-path="url(#X)" transform="translate(2.9 3.242)"><path data-name="Path 1895" d="M7.761-.001C3.539-.061.061 3.718.002 8.439s3.308 8.6 7.531 8.656 7.7-3.719 7.76-8.44-3.308-8.6-7.531-8.656" fill="#dc7663"/></g></g></g><g data-name="Group 2034"><g data-name="Group 2033"><g data-name="Group 2032" clip-path="url(#Y)" transform="translate(2.966 3.316)"><path data-name="Path 1896" d="M7.695.001C3.509-.058.065 3.689.002 8.368s3.279 8.523 7.465 8.582 7.631-3.688 7.694-8.368S11.881.06 7.695.001" fill="#db7562"/></g></g></g><g data-name="Group 2037"><g data-name="Group 2036"><g data-name="Group 2035" clip-path="url(#Z)" transform="translate(3.032 3.389)"><path data-name="Path 1897" d="M7.628.001C3.478-.058.064 3.657.002 8.296s3.251 8.449 7.4 8.507 7.564-3.656 7.627-8.295S11.777.059 7.629.001" fill="#db7461"/></g></g></g><g data-name="Group 2040"><g data-name="Group 2039"><g data-name="Group 2038" clip-path="url(#aa)" transform="translate(3.098 3.463)"><path data-name="Path 1898" d="M7.56.001C3.447-.058.06 3.624.001 8.223s3.222 8.374 7.336 8.432 7.5-3.623 7.559-8.222S11.673.058 7.559.001" fill="#db7361"/></g></g></g><g data-name="Group 2043"><g data-name="Group 2042"><g data-name="Group 2041" clip-path="url(#ab)" transform="translate(3.164 3.537)"><path data-name="Path 1899" d="M7.494.001C3.417-.057.063 3.591.002 8.15s3.193 8.3 7.271 8.358 7.432-3.591 7.493-8.149S11.571.059 7.494.002" fill="#db7260"/></g></g></g><g data-name="Group 2046"><g data-name="Group 2045"><g data-name="Group 2044" clip-path="url(#ac)" transform="translate(3.23 3.611)"><path data-name="Path 1900" d="M7.424.001C3.384-.056.059 3.559-.001 8.077s3.165 8.226 7.206 8.283 7.364-3.559 7.425-8.076S11.464.058 7.424.001" fill="#db715f"/></g></g></g><g data-name="Group 2049"><g data-name="Group 2048"><g data-name="Group 2047" clip-path="url(#ad)" transform="translate(3.296 3.684)"><path data-name="Path 1901" d="M7.359.001c-4-.057-7.3 3.527-7.359 8s3.137 8.152 7.141 8.208 7.3-3.526 7.359-8S11.363.056 7.359 0" fill="#da705e"/></g></g></g><g data-name="Group 2052"><g data-name="Group 2051"><g data-name="Group 2050" clip-path="url(#ae)" transform="translate(3.362 3.758)"><path data-name="Path 1902" d="M7.292.001C3.325-.055.06 3.496.001 7.932s3.108 8.077 7.076 8.133 7.233-3.494 7.292-7.93S11.26.057 7.292.001" fill="#da6f5d"/></g></g></g><g data-name="Group 2055"><g data-name="Group 2054"><g data-name="Group 2053" clip-path="url(#af)" transform="translate(3.428 3.832)"><path data-name="Path 1903" d="M7.225.001C3.293-.054.059 3.464 0 7.859s3.08 8 7.011 8.06 7.166-3.463 7.224-7.858-3.079-8-7.011-8.059" fill="#da6e5d"/></g></g></g><g data-name="Group 2058"><g data-name="Group 2057"><g data-name="Group 2056" clip-path="url(#ag)" transform="translate(3.494 3.905)"><path data-name="Path 1904" d="M7.159.001c-3.9-.055-7.1 3.43-7.158 7.785s3.051 7.929 6.946 7.985 7.1-3.43 7.158-7.785S11.055.057 7.159.001" fill="#da6d5c"/></g></g></g><g data-name="Group 2061"><g data-name="Group 2060"><g data-name="Group 2059" clip-path="url(#ah)" transform="translate(3.56 3.98)"><path data-name="Path 1905" d="M7.092 0C3.233-.054.059 3.4.001 7.713s3.023 7.855 6.881 7.91 7.034-3.4 7.091-7.713S10.951.055 7.092 0" fill="#da6c5b"/></g></g></g><g data-name="Group 2064"><g data-name="Group 2063"><g data-name="Group 2062" clip-path="url(#ai)" transform="translate(3.625 4.053)"><path data-name="Path 1906" d="M7.024.001C3.202-.053.057 3.367 0 7.641s2.994 7.781 6.816 7.835 6.967-3.367 7.024-7.64S10.846.054 7.024.001" fill="#d96b5a"/></g></g></g><g data-name="Group 2067"><g data-name="Group 2066"><g data-name="Group 2065" clip-path="url(#aj)" transform="translate(3.691 4.126)"><path data-name="Path 1907" d="M6.958.001C3.173-.053.058 3.335.001 7.568s2.966 7.707 6.751 7.76 6.9-3.335 6.957-7.567S10.744.053 6.958 0" fill="#d96a5a"/></g></g></g><g data-name="Group 2070"><g data-name="Group 2069"><g data-name="Group 2068" clip-path="url(#ak)" transform="translate(3.757 4.2)"><path data-name="Path 1908" d="M6.891 0C3.142-.053.057 3.3.001 7.495s2.937 7.633 6.686 7.686 6.835-3.3 6.89-7.494S10.64.054 6.891 0" fill="#d96959"/></g></g></g><g data-name="Group 2073"><g data-name="Group 2072"><g data-name="Group 2071" clip-path="url(#al)" transform="translate(3.823 4.274)"><path data-name="Path 1909" d="M6.825.001C3.112-.051.057 3.272.001 7.423s2.909 7.559 6.622 7.611 6.768-3.27 6.823-7.422S10.537.054 6.825.001" fill="#d96858"/></g></g></g><g data-name="Group 2076"><g data-name="Group 2075"><g data-name="Group 2074" clip-path="url(#am)" transform="translate(3.889 4.348)"><path data-name="Path 1910" d="M6.757 0C3.081-.052.057 3.238.001 7.349s2.88 7.485 6.557 7.537 6.7-3.238 6.756-7.349S10.434.052 6.757 0" fill="#d86757"/></g></g></g><g data-name="Group 2079"><g data-name="Group 2078"><g data-name="Group 2077" clip-path="url(#an)" transform="translate(3.955 4.421)"><path data-name="Path 1911" d="M6.69 0C3.05-.05.055 3.206 0 7.277s2.852 7.41 6.492 7.462 6.636-3.207 6.69-7.276S10.33.051 6.69 0" fill="#d86657"/></g></g></g><g data-name="Group 2082"><g data-name="Group 2081"><g data-name="Group 2080" clip-path="url(#ao)" transform="translate(4.021 4.495)"><path data-name="Path 1912" d="M6.624.001C3.024-.05.055 3.175.001 7.201s2.824 7.337 6.427 7.388 6.569-3.174 6.623-7.2S10.227.052 6.624.001" fill="#d86556"/></g></g></g><g data-name="Group 2085"><g data-name="Group 2084"><g data-name="Group 2083" clip-path="url(#ap)" transform="translate(4.087 4.569)"><path data-name="Path 1913" d="M6.558.001C2.991-.05.058 3.143.002 7.131s2.8 7.263 6.363 7.313 6.5-3.142 6.555-7.13S10.12.052 6.558.001" fill="#d86455"/></g></g></g><g data-name="Group 2088"><g data-name="Group 2087"><g data-name="Group 2086" clip-path="url(#aq)" transform="translate(4.152 4.642)"><path data-name="Path 1914" d="M6.49.001C2.959-.048.054 3.111.001 7.059s2.766 7.188 6.3 7.238 6.436-3.111 6.489-7.058S10.023.051 6.49.001" fill="#d86354"/></g></g></g><g data-name="Group 2091"><g data-name="Group 2090"><g data-name="Group 2089" clip-path="url(#ar)" transform="translate(4.219 4.717)"><path data-name="Path 1915" d="M6.422 0C2.927-.049.052 3.078 0 6.985s2.738 7.115 6.233 7.164 6.369-3.078 6.422-6.985S9.917.05 6.422.001" fill="#d76253"/></g></g></g><g data-name="Group 2094"><g data-name="Group 2093"><g data-name="Group 2092" clip-path="url(#as)" transform="translate(4.285 4.79)"><path data-name="Path 1916" d="M6.356.001C2.897-.048.056 3.046 0 6.913s2.709 7.04 6.168 7.089 6.3-3.046 6.355-6.912S9.815.049 6.356.001" fill="#d76153"/></g></g></g><g data-name="Group 2097"><g data-name="Group 2096"><g data-name="Group 2095" clip-path="url(#at)" transform="translate(4.351 4.863)"><path data-name="Path 1917" d="M6.289.001C2.867-.048.052 3.014 0 6.84s2.681 6.966 6.1 7.014 6.237-3.014 6.289-6.839S9.707.049 6.289.001" fill="#d76052"/></g></g></g><g data-name="Group 2100"><g data-name="Group 2099"><g data-name="Group 2098" clip-path="url(#au)" transform="translate(4.417 4.938)"><path data-name="Path 1918" d="M6.221 0C2.836-.047.05 2.982 0 6.768s2.653 6.891 6.037 6.938 6.171-2.981 6.222-6.766S9.606.049 6.221 0" fill="#d75f51"/></g></g></g><g data-name="Group 2103"><g data-name="Group 2102"><g data-name="Group 2101" clip-path="url(#av)" transform="translate(4.482 5.011)"><path data-name="Path 1919" d="M6.156.001C2.807-.047.056 2.951.001 6.695s2.624 6.818 5.972 6.865 6.1-2.949 6.155-6.694S9.504.048 6.155.001" fill="#d75e50"/></g></g></g><g data-name="Group 2106"><g data-name="Group 2105"><g data-name="Group 2104" clip-path="url(#aw)" transform="translate(4.548 5.085)"><path data-name="Path 1920" d="M6.089 0C2.777-.047.051 2.918.001 6.621s2.6 6.744 5.907 6.791 6.039-2.918 6.088-6.621S9.396.047 6.089 0" fill="#d65d50"/></g></g></g><g data-name="Group 2109"><g data-name="Group 2108"><g data-name="Group 2107" clip-path="url(#ax)" transform="translate(4.614 5.158)"><path data-name="Path 1921" d="M6.021.001C2.746-.045.049 2.886 0 6.549s2.567 6.67 5.843 6.716 5.972-2.885 6.021-6.548S9.297.047 6.021.001" fill="#d65c4f"/></g></g></g><g data-name="Group 2112"><g data-name="Group 2111"><g data-name="Group 2110" clip-path="url(#ay)" transform="translate(4.68 5.232)"><path data-name="Path 1922" d="M5.955.001C2.716-.045.049 2.854.001 6.476s2.539 6.6 5.778 6.642 5.906-2.853 5.954-6.475S9.195.043 5.955.001" fill="#d65b4e"/></g></g></g><g data-name="Group 2115"><g data-name="Group 2114"><g data-name="Group 2113" clip-path="url(#az)" transform="translate(4.746 5.306)"><path data-name="Path 1923" d="M5.888-.004C2.688-.049.049 2.817.001 6.396s2.51 6.522 5.713 6.567 5.839-2.821 5.887-6.4S9.091.042 5.888-.004" fill="#d65a4d"/></g></g></g><g data-name="Group 2118"><g data-name="Group 2117"><g data-name="Group 2116" clip-path="url(#aA)" transform="translate(4.812 5.379)"><path data-name="Path 1924" d="M5.821.001C2.654-.044.049 2.79 0 6.331s2.482 6.448 5.648 6.492 5.773-2.79 5.821-6.33S8.987.045 5.821.001" fill="#d5594c"/></g></g></g><g data-name="Group 2121"><g data-name="Group 2120"><g data-name="Group 2119" clip-path="url(#aB)" transform="translate(4.878 5.453)"><path data-name="Path 1925" d="M5.754.001C2.624-.044.048 2.759.001 6.258s2.454 6.373 5.584 6.417 5.707-2.757 5.753-6.257S8.885.045 5.754.001" fill="#d5584c"/></g></g></g><g data-name="Group 2124"><g data-name="Group 2123"><g data-name="Group 2122" clip-path="url(#aC)" transform="translate(4.943 5.527)"><path data-name="Path 1926" d="M5.691 0C2.596-.044.052 2.726.005 6.184s2.423 6.3 5.518 6.343 5.64-2.725 5.686-6.184S8.785.043 5.69 0" fill="#d5574b"/></g></g></g><g data-name="Group 2127"><g data-name="Group 2126"><g data-name="Group 2125" clip-path="url(#aD)" transform="translate(5.009 5.6)"><path data-name="Path 1927" d="M5.621.001C2.563-.042.048 2.694.001 6.113s2.4 6.224 5.454 6.268 5.573-2.693 5.62-6.112S8.675.045 5.621.001" fill="#d5564a"/></g></g></g><g data-name="Group 2130"><g data-name="Group 2129"><g data-name="Group 2128" clip-path="url(#aE)" transform="translate(5.076 5.675)"><path data-name="Path 1928" d="M5.553 0C2.531-.043.046 2.661.001 6.039s2.367 6.151 5.388 6.194 5.507-2.661 5.553-6.039S8.575.043 5.554 0" fill="#d55549"/></g></g></g><g data-name="Group 2133"><g data-name="Group 2132"><g data-name="Group 2131" clip-path="url(#aF)" transform="translate(5.142 5.748)"><path data-name="Path 1929" d="M5.486 0C2.501-.042.046 2.629.001 5.966s2.338 6.077 5.323 6.119 5.441-2.629 5.486-5.966S8.471.042 5.486 0" fill="#d45449"/></g></g></g><g data-name="Group 2136"><g data-name="Group 2135"><g data-name="Group 2134" clip-path="url(#aG)" transform="translate(5.208 5.821)"><path data-name="Path 1930" d="M5.419.001C2.471-.04.045 2.601.001 5.895s2.31 6 5.258 6.044 5.374-2.6 5.419-5.893-2.311-6-5.259-6.045" fill="#d45348"/></g></g></g><g data-name="Group 2139"><g data-name="Group 2138"><g data-name="Group 2137" clip-path="url(#aH)" transform="translate(5.274 5.895)"><path data-name="Path 1931" d="M5.352.001C2.44-.04.044 2.566 0 5.821s2.282 5.928 5.193 5.97 5.308-2.565 5.352-5.82S8.264.043 5.352.001" fill="#d45247"/></g></g></g></g></g></g><g data-name="Group 2388"><g data-name="Group 2387" opacity=".38"><g data-name="Group 2386" clip-path="url(#aI)" transform="translate(173.814 51.985)"><g data-name="Group 2145"><g data-name="Group 2144"><g data-name="Group 2143" clip-path="url(#aI)"><path data-name="Path 1932" d="M11.646.001a11.8 11.8 0 1011.328 11.954A11.635 11.635 0 0011.646.001" fill="#e5a185"/></g></g></g><g data-name="Group 2148"><g data-name="Group 2147"><g data-name="Group 2146" clip-path="url(#aJ)" transform="translate(.071 .074)"><path data-name="Path 1933" d="M11.573.001a11.722 11.722 0 1011.258 11.878A11.559 11.559 0 0011.573.001" fill="#e5a084"/></g></g></g><g data-name="Group 2151"><g data-name="Group 2150"><g data-name="Group 2149" clip-path="url(#aK)" transform="translate(.144 .148)"><path data-name="Path 1934" d="M11.5.002a11.648 11.648 0 1011.187 11.8A11.487 11.487 0 0011.5.002" fill="#e59f83"/></g></g></g><g data-name="Group 2154"><g data-name="Group 2153"><g data-name="Group 2152" clip-path="url(#aL)" transform="translate(.215 .222)"><path data-name="Path 1935" d="M11.427.001a11.574 11.574 0 1011.116 11.728A11.414 11.414 0 0011.427.001" fill="#e49e83"/></g></g></g><g data-name="Group 2157"><g data-name="Group 2156"><g data-name="Group 2155" clip-path="url(#aM)" transform="translate(.287 .295)"><path data-name="Path 1936" d="M11.355.001A11.5 11.5 0 1022.4 11.655 11.342 11.342 0 0011.355.001" fill="#e49d82"/></g></g></g><g data-name="Group 2160"><g data-name="Group 2159"><g data-name="Group 2158" clip-path="url(#aN)" transform="translate(.359 .369)"><path data-name="Path 1937" d="M11.281-.003a11.427 11.427 0 1010.975 11.579A11.27 11.27 0 0011.281-.003" fill="#e49c81"/></g></g></g><g data-name="Group 2163"><g data-name="Group 2162"><g data-name="Group 2161" clip-path="url(#aO)" transform="translate(.43 .443)"><path data-name="Path 1938" d="M11.209.001a11.353 11.353 0 1010.9 11.5 11.2 11.2 0 00-10.9-11.5" fill="#e49b80"/></g></g></g><g data-name="Group 2166"><g data-name="Group 2165"><g data-name="Group 2164" clip-path="url(#aP)" transform="translate(.503 .516)"><path data-name="Path 1939" d="M11.136.002a11.28 11.28 0 1010.828 11.43A11.124 11.124 0 0011.132.002" fill="#e49a80"/></g></g></g><g data-name="Group 2169"><g data-name="Group 2168"><g data-name="Group 2167" clip-path="url(#aQ)" transform="translate(.574 .589)"><path data-name="Path 1940" d="M11.064.002a11.206 11.206 0 1010.761 11.355A11.049 11.049 0 0011.064.002" fill="#e3997f"/></g></g></g><g data-name="Group 2172"><g data-name="Group 2171"><g data-name="Group 2170" clip-path="url(#aR)" transform="translate(.646 .664)"><path data-name="Path 1941" d="M10.986.001a11.132 11.132 0 1010.7 11.28 10.978 10.978 0 00-10.7-11.28" fill="#e3987e"/></g></g></g><g data-name="Group 2175"><g data-name="Group 2174"><g data-name="Group 2173" clip-path="url(#aS)" transform="translate(.718 .737)"><path data-name="Path 1942" d="M10.917.002a11.058 11.058 0 1010.62 11.206A10.905 10.905 0 0010.917.002" fill="#e3977d"/></g></g></g><g data-name="Group 2178"><g data-name="Group 2177"><g data-name="Group 2176" clip-path="url(#aT)" transform="translate(.79 .811)"><path data-name="Path 1943" d="M10.845.001a10.984 10.984 0 1010.55 11.131A10.834 10.834 0 0010.845.001" fill="#e3967c"/></g></g></g><g data-name="Group 2181"><g data-name="Group 2180"><g data-name="Group 2179" clip-path="url(#aU)" transform="translate(.862 .885)"><path data-name="Path 1944" d="M10.772.001A10.911 10.911 0 1021.25 11.057 10.759 10.759 0 0010.772.001" fill="#e2957c"/></g></g></g><g data-name="Group 2184"><g data-name="Group 2183"><g data-name="Group 2182" clip-path="url(#aV)" transform="translate(.933 .958)"><path data-name="Path 1945" d="M10.699.002a10.837 10.837 0 1010.408 10.98A10.687 10.687 0 0010.699.002" fill="#e2947b"/></g></g></g><g data-name="Group 2187"><g data-name="Group 2186"><g data-name="Group 2185" clip-path="url(#aW)" transform="translate(1.005 1.032)"><path data-name="Path 1946" d="M10.627.001a10.763 10.763 0 1010.337 10.906A10.614 10.614 0 0010.627.001" fill="#e2937a"/></g></g></g><g data-name="Group 2190"><g data-name="Group 2189"><g data-name="Group 2188" clip-path="url(#aX)" transform="translate(1.077 1.106)"><path data-name="Path 1947" d="M10.549.003a10.69 10.69 0 1010.27 10.83A10.543 10.543 0 0010.549.003" fill="#e29279"/></g></g></g><g data-name="Group 2193"><g data-name="Group 2192"><g data-name="Group 2191" clip-path="url(#aY)" transform="translate(1.149 1.18)"><path data-name="Path 1948" d="M10.481.001a10.616 10.616 0 1010.2 10.758A10.469 10.469 0 0010.481.001" fill="#e29179"/></g></g></g><g data-name="Group 2196"><g data-name="Group 2195"><g data-name="Group 2194" clip-path="url(#aZ)" transform="translate(1.221 1.253)"><path data-name="Path 1949" d="M10.407.001a10.542 10.542 0 1010.125 10.683A10.4 10.4 0 0010.407.001" fill="#e19078"/></g></g></g><g data-name="Group 2199"><g data-name="Group 2198"><g data-name="Group 2197" clip-path="url(#ba)" transform="translate(1.292 1.327)"><path data-name="Path 1950" d="M10.335.001a10.469 10.469 0 1010.054 10.608A10.324 10.324 0 0010.335.001" fill="#e18f77"/></g></g></g><g data-name="Group 2202"><g data-name="Group 2201"><g data-name="Group 2200" clip-path="url(#bb)" transform="translate(1.364 1.401)"><path data-name="Path 1951" d="M10.263.001a10.395 10.395 0 109.983 10.533A10.251 10.251 0 0010.263.001" fill="#e18e76"/></g></g></g><g data-name="Group 2205"><g data-name="Group 2204"><g data-name="Group 2203" clip-path="url(#bc)" transform="translate(1.436 1.474)"><path data-name="Path 1952" d="M10.19.002a10.321 10.321 0 109.912 10.454A10.178 10.178 0 0010.189-.003" fill="#e18d75"/></g></g></g><g data-name="Group 2208"><g data-name="Group 2207"><g data-name="Group 2206" clip-path="url(#bd)" transform="translate(1.508 1.548)"><path data-name="Path 1953" d="M10.113.001a10.248 10.248 0 109.841 10.384A10.107 10.107 0 0010.113.001" fill="#e18c75"/></g></g></g><g data-name="Group 2211"><g data-name="Group 2210"><g data-name="Group 2209" clip-path="url(#be)" transform="translate(1.579 1.622)"><path data-name="Path 1954" d="M10.045.001a10.174 10.174 0 109.771 10.309A10.032 10.032 0 0010.045.001" fill="#e08b74"/></g></g></g><g data-name="Group 2214"><g data-name="Group 2213"><g data-name="Group 2212" clip-path="url(#bf)" transform="translate(1.651 1.695)"><path data-name="Path 1955" d="M9.972.002a10.1 10.1 0 109.7 10.234A9.96 9.96 0 009.972.002" fill="#e08a73"/></g></g></g><g data-name="Group 2217"><g data-name="Group 2216"><g data-name="Group 2215" clip-path="url(#bg)" transform="translate(1.723 1.769)"><path data-name="Path 1956" d="M9.899-.002a10.026 10.026 0 109.629 10.159A9.888 9.888 0 009.899-.002" fill="#e08972"/></g></g></g><g data-name="Group 2220"><g data-name="Group 2219"><g data-name="Group 2218" clip-path="url(#bh)" transform="translate(1.795 1.843)"><path data-name="Path 1957" d="M9.826.001a9.952 9.952 0 109.558 10.085A9.814 9.814 0 009.826.001" fill="#e08872"/></g></g></g><g data-name="Group 2223"><g data-name="Group 2222"><g data-name="Group 2221" clip-path="url(#bi)" transform="translate(1.867 1.917)"><path data-name="Path 1958" d="M9.754.001a9.879 9.879 0 109.488 10.01A9.743 9.743 0 009.754.001" fill="#df8771"/></g></g></g><g data-name="Group 2226"><g data-name="Group 2225"><g data-name="Group 2224" clip-path="url(#bj)" transform="translate(1.938 1.99)"><path data-name="Path 1959" d="M9.677.001a9.805 9.805 0 109.416 9.936A9.67 9.67 0 009.677.001" fill="#df8670"/></g></g></g><g data-name="Group 2229"><g data-name="Group 2228"><g data-name="Group 2227" clip-path="url(#bk)" transform="translate(2.01 2.064)"><path data-name="Path 1960" d="M9.607.001a9.731 9.731 0 109.346 9.861A9.6 9.6 0 009.607.001" fill="#df856f"/></g></g></g><g data-name="Group 2232"><g data-name="Group 2231"><g data-name="Group 2230" clip-path="url(#bl)" transform="translate(2.082 2.138)"><path data-name="Path 1961" d="M9.535.001a9.657 9.657 0 109.275 9.787A9.524 9.524 0 009.535.001" fill="#df846f"/></g></g></g><g data-name="Group 2235"><g data-name="Group 2234"><g data-name="Group 2233" clip-path="url(#bm)" transform="translate(2.154 2.211)"><path data-name="Path 1962" d="M9.462.001a9.584 9.584 0 109.2 9.712 9.451 9.451 0 00-9.2-9.712" fill="#df836e"/></g></g></g><g data-name="Group 2238"><g data-name="Group 2237"><g data-name="Group 2236" clip-path="url(#bn)" transform="translate(2.226 2.284)"><path data-name="Path 1963" d="M9.39.001a9.51 9.51 0 109.133 9.638A9.38 9.38 0 009.39.001" fill="#de826d"/></g></g></g><g data-name="Group 2241"><g data-name="Group 2240"><g data-name="Group 2239" clip-path="url(#bo)" transform="translate(2.297 2.359)"><path data-name="Path 1964" d="M9.317.001a9.436 9.436 0 109.063 9.563A9.307 9.307 0 009.317.001" fill="#de816c"/></g></g></g><g data-name="Group 2244"><g data-name="Group 2243"><g data-name="Group 2242" clip-path="url(#bp)" transform="translate(2.369 2.432)"><path data-name="Path 1965" d="M9.24.001a9.363 9.363 0 108.991 9.488A9.233 9.233 0 009.24.001" fill="#de806b"/></g></g></g><g data-name="Group 2247"><g data-name="Group 2246"><g data-name="Group 2245" clip-path="url(#bq)" transform="translate(2.441 2.506)"><path data-name="Path 1966" d="M9.171.004a9.289 9.289 0 108.921 9.412A9.161 9.161 0 009.171.004" fill="#de7f6b"/></g></g></g><g data-name="Group 2250"><g data-name="Group 2249"><g data-name="Group 2248" clip-path="url(#br)" transform="translate(2.513 2.58)"><path data-name="Path 1967" d="M9.098.001a9.215 9.215 0 108.85 9.338A9.088 9.088 0 009.098.001" fill="#de7e6a"/></g></g></g><g data-name="Group 2253"><g data-name="Group 2252"><g data-name="Group 2251" clip-path="url(#bs)" transform="translate(2.585 2.653)"><path data-name="Path 1968" d="M9.025.001a9.141 9.141 0 108.78 9.263A9.016 9.016 0 009.025.001" fill="#dd7d69"/></g></g></g><g data-name="Group 2256"><g data-name="Group 2255"><g data-name="Group 2254" clip-path="url(#bt)" transform="translate(2.656 2.727)"><path data-name="Path 1969" d="M8.953.001a9.068 9.068 0 108.709 9.189A8.943 8.943 0 008.953.001" fill="#dd7c68"/></g></g></g><g data-name="Group 2259"><g data-name="Group 2258"><g data-name="Group 2257" clip-path="url(#bu)" transform="translate(2.728 2.801)"><path data-name="Path 1970" d="M8.88.001a8.995 8.995 0 108.637 9.115A8.871 8.871 0 008.88.001" fill="#dd7b68"/></g></g></g><g data-name="Group 2262"><g data-name="Group 2261"><g data-name="Group 2260" clip-path="url(#bv)" transform="translate(2.8 2.875)"><path data-name="Path 1971" d="M8.804.001a8.92 8.92 0 108.567 9.039A8.8 8.8 0 008.804.001" fill="#dd7a67"/></g></g></g><g data-name="Group 2265"><g data-name="Group 2264"><g data-name="Group 2263" clip-path="url(#bw)" transform="translate(2.872 2.948)"><path data-name="Path 1972" d="M8.734.001a8.847 8.847 0 108.5 8.965 8.723 8.723 0 00-8.5-8.965" fill="#dd7a66"/></g></g></g><g data-name="Group 2268"><g data-name="Group 2267"><g data-name="Group 2266" clip-path="url(#bx)" transform="translate(2.944 3.022)"><path data-name="Path 1973" d="M8.661.002a8.773 8.773 0 108.425 8.89A8.651 8.651 0 008.661.002" fill="#dc7965"/></g></g></g><g data-name="Group 2271"><g data-name="Group 2270"><g data-name="Group 2269" clip-path="url(#by)" transform="translate(3.015 3.096)"><path data-name="Path 1974" d="M8.589.001a8.7 8.7 0 108.354 8.815A8.579 8.579 0 008.589.001" fill="#dc7864"/></g></g></g><g data-name="Group 2274"><g data-name="Group 2273"><g data-name="Group 2272" clip-path="url(#bz)" transform="translate(3.087 3.169)"><path data-name="Path 1975" d="M8.515 0a8.626 8.626 0 108.284 8.741A8.507 8.507 0 008.515 0" fill="#dc7764"/></g></g></g><g data-name="Group 2277"><g data-name="Group 2276"><g data-name="Group 2275" clip-path="url(#bA)" transform="translate(3.159 3.243)"><path data-name="Path 1976" d="M8.443.001a8.552 8.552 0 108.214 8.665A8.433 8.433 0 008.444 0" fill="#dc7663"/></g></g></g><g data-name="Group 2280"><g data-name="Group 2279"><g data-name="Group 2278" clip-path="url(#bB)" transform="translate(3.23 3.317)"><path data-name="Path 1977" d="M8.368.001a8.478 8.478 0 108.143 8.591A8.361 8.361 0 008.368.001" fill="#db7562"/></g></g></g><g data-name="Group 2283"><g data-name="Group 2282"><g data-name="Group 2281" clip-path="url(#bC)" transform="translate(3.303 3.39)"><path data-name="Path 1978" d="M8.298.001a8.4 8.4 0 108.071 8.516A8.287 8.287 0 008.298.001" fill="#db7461"/></g></g></g><g data-name="Group 2286"><g data-name="Group 2285"><g data-name="Group 2284" clip-path="url(#bD)" transform="translate(3.374 3.464)"><path data-name="Path 1979" d="M8.224.001a8.331 8.331 0 108 8.441 8.215 8.215 0 00-8-8.441" fill="#db7361"/></g></g></g><g data-name="Group 2289"><g data-name="Group 2288"><g data-name="Group 2287" clip-path="url(#bE)" transform="translate(3.446 3.538)"><path data-name="Path 1980" d="M8.151.001a8.257 8.257 0 107.93 8.367A8.142 8.142 0 008.151.001" fill="#db7260"/></g></g></g><g data-name="Group 2292"><g data-name="Group 2291"><g data-name="Group 2290" clip-path="url(#bF)" transform="translate(3.518 3.612)"><path data-name="Path 1981" d="M8.079 0a8.183 8.183 0 107.859 8.292A8.072 8.072 0 008.079 0" fill="#db715f"/></g></g></g><g data-name="Group 2295"><g data-name="Group 2294"><g data-name="Group 2293" clip-path="url(#bG)" transform="translate(3.59 3.685)"><path data-name="Path 1982" d="M8.006.001a8.11 8.11 0 107.788 8.218A8 8 0 008.006.001" fill="#da705e"/></g></g></g><g data-name="Group 2298"><g data-name="Group 2297"><g data-name="Group 2296" clip-path="url(#bH)" transform="translate(3.662 3.759)"><path data-name="Path 1983" d="M7.931.001a8.036 8.036 0 107.718 8.143A7.925 7.925 0 007.931.001" fill="#da6f5d"/></g></g></g><g data-name="Group 2301"><g data-name="Group 2300"><g data-name="Group 2299" clip-path="url(#bI)" transform="translate(3.733 3.833)"><path data-name="Path 1984" d="M7.861.001a7.962 7.962 0 107.647 8.068A7.851 7.851 0 007.861.001" fill="#da6e5d"/></g></g></g><g data-name="Group 2304"><g data-name="Group 2303"><g data-name="Group 2302" clip-path="url(#bJ)" transform="translate(3.805 3.906)"><path data-name="Path 1985" d="M7.787.001a7.888 7.888 0 107.576 7.993A7.779 7.779 0 007.787.001" fill="#da6d5c"/></g></g></g><g data-name="Group 2307"><g data-name="Group 2306"><g data-name="Group 2305" clip-path="url(#bK)" transform="translate(3.877 3.98)"><path data-name="Path 1986" d="M7.716.001a7.815 7.815 0 107.5 7.919 7.708 7.708 0 00-7.5-7.919" fill="#da6c5b"/></g></g></g><g data-name="Group 2310"><g data-name="Group 2309"><g data-name="Group 2308" clip-path="url(#bL)" transform="translate(3.948 4.054)"><path data-name="Path 1987" d="M7.643.001a7.741 7.741 0 107.434 7.844A7.635 7.635 0 007.643.001" fill="#d96b5a"/></g></g></g><g data-name="Group 2313"><g data-name="Group 2312"><g data-name="Group 2311" clip-path="url(#bM)" transform="translate(4.021 4.127)"><path data-name="Path 1988" d="M7.569.001a7.667 7.667 0 107.363 7.769A7.561 7.561 0 007.569.001" fill="#d96a5a"/></g></g></g><g data-name="Group 2316"><g data-name="Group 2315"><g data-name="Group 2314" clip-path="url(#bN)" transform="translate(4.092 4.201)"><path data-name="Path 1989" d="M7.495.001a7.593 7.593 0 107.292 7.694A7.487 7.487 0 007.495.001" fill="#d96959"/></g></g></g><g data-name="Group 2319"><g data-name="Group 2318"><g data-name="Group 2317" clip-path="url(#bO)" transform="translate(4.164 4.275)"><path data-name="Path 1990" d="M7.424.001a7.52 7.52 0 107.222 7.62A7.415 7.415 0 007.424.001" fill="#d96858"/></g></g></g><g data-name="Group 2322"><g data-name="Group 2321"><g data-name="Group 2320" clip-path="url(#bP)" transform="translate(4.236 4.349)"><path data-name="Path 1991" d="M7.352 0a7.446 7.446 0 107.151 7.545A7.342 7.342 0 007.352 0" fill="#d86757"/></g></g></g><g data-name="Group 2325"><g data-name="Group 2324"><g data-name="Group 2323" clip-path="url(#bQ)" transform="translate(4.307 4.422)"><path data-name="Path 1992" d="M7.279.001a7.372 7.372 0 107.08 7.471A7.271 7.271 0 007.279.001" fill="#d86657"/></g></g></g><g data-name="Group 2328"><g data-name="Group 2327"><g data-name="Group 2326" clip-path="url(#bR)" transform="translate(4.38 4.496)"><path data-name="Path 1993" d="M7.206.001a7.3 7.3 0 107.009 7.4 7.2 7.2 0 00-7.009-7.4" fill="#d86556"/></g></g></g><g data-name="Group 2331"><g data-name="Group 2330"><g data-name="Group 2329" clip-path="url(#bS)" transform="translate(4.451 4.57)"><path data-name="Path 1994" d="M7.133.001a7.225 7.225 0 106.939 7.321A7.127 7.127 0 007.133.001" fill="#d86455"/></g></g></g><g data-name="Group 2334"><g data-name="Group 2333"><g data-name="Group 2332" clip-path="url(#bT)" transform="translate(4.523 4.643)"><path data-name="Path 1995" d="M7.058.001a7.151 7.151 0 106.868 7.247A7.052 7.052 0 007.058.001" fill="#d86354"/></g></g></g><g data-name="Group 2337"><g data-name="Group 2336"><g data-name="Group 2335" clip-path="url(#bU)" transform="translate(4.595 4.717)"><path data-name="Path 1996" d="M6.988.001a7.077 7.077 0 106.8 7.172 6.98 6.98 0 00-6.8-7.172" fill="#d76253"/></g></g></g><g data-name="Group 2340"><g data-name="Group 2339"><g data-name="Group 2338" clip-path="url(#bV)" transform="translate(4.666 4.791)"><path data-name="Path 1997" d="M6.916.001a7 7 0 106.726 7.1 6.907 6.907 0 00-6.726-7.1" fill="#d76153"/></g></g></g><g data-name="Group 2343"><g data-name="Group 2342"><g data-name="Group 2341" clip-path="url(#bW)" transform="translate(4.739 4.864)"><path data-name="Path 1998" d="M6.841.001a6.93 6.93 0 106.656 7.022A6.836 6.836 0 006.841.001" fill="#d76052"/></g></g></g><g data-name="Group 2346"><g data-name="Group 2345"><g data-name="Group 2344" clip-path="url(#bX)" transform="translate(4.81 4.938)"><path data-name="Path 1999" d="M6.769 0a6.856 6.856 0 106.584 6.947A6.762 6.762 0 006.769 0" fill="#d75f51"/></g></g></g><g data-name="Group 2349"><g data-name="Group 2348"><g data-name="Group 2347" clip-path="url(#bY)" transform="translate(4.882 5.012)"><path data-name="Path 2000" d="M6.696.001a6.783 6.783 0 106.514 6.873A6.69 6.69 0 006.696.001" fill="#d75e50"/></g></g></g><g data-name="Group 2352"><g data-name="Group 2351"><g data-name="Group 2350" clip-path="url(#bZ)" transform="translate(4.954 5.085)"><path data-name="Path 2001" d="M6.622.001a6.709 6.709 0 106.442 6.8 6.616 6.616 0 00-6.442-6.8" fill="#d65d50"/></g></g></g><g data-name="Group 2355"><g data-name="Group 2354"><g data-name="Group 2353" clip-path="url(#ca)" transform="translate(5.025 5.159)"><path data-name="Path 2002" d="M6.551.001a6.635 6.635 0 106.373 6.723A6.543 6.543 0 006.551.001" fill="#d65c4f"/></g></g></g><g data-name="Group 2358"><g data-name="Group 2357"><g data-name="Group 2356" clip-path="url(#cb)" transform="translate(5.098 5.233)"><path data-name="Path 2003" d="M6.478-.003a6.561 6.561 0 106.3 6.648 6.469 6.469 0 00-6.3-6.648" fill="#d65b4e"/></g></g></g><g data-name="Group 2361"><g data-name="Group 2360"><g data-name="Group 2359" clip-path="url(#cc)" transform="translate(5.169 5.307)"><path data-name="Path 2004" d="M6.405 0a6.488 6.488 0 106.231 6.575A6.4 6.4 0 006.405 0" fill="#d65a4d"/></g></g></g><g data-name="Group 2364"><g data-name="Group 2363"><g data-name="Group 2362" clip-path="url(#cd)" transform="translate(5.241 5.38)"><path data-name="Path 2005" d="M6.332.001a6.414 6.414 0 106.16 6.5 6.326 6.326 0 00-6.16-6.5" fill="#d5594c"/></g></g></g><g data-name="Group 2367"><g data-name="Group 2366"><g data-name="Group 2365" clip-path="url(#ce)" transform="translate(5.313 5.454)"><path data-name="Path 2006" d="M6.259.001a6.34 6.34 0 106.089 6.424A6.251 6.251 0 006.259.001" fill="#d5584c"/></g></g></g><g data-name="Group 2370"><g data-name="Group 2369"><g data-name="Group 2368" clip-path="url(#cf)" transform="translate(5.384 5.528)"><path data-name="Path 2007" d="M6.186.001a6.266 6.266 0 106.018 6.35A6.179 6.179 0 006.186.001" fill="#d5574b"/></g></g></g><g data-name="Group 2373"><g data-name="Group 2372"><g data-name="Group 2371" clip-path="url(#cg)" transform="translate(5.457 5.601)"><path data-name="Path 2008" d="M6.114.001a6.192 6.192 0 105.947 6.275A6.106 6.106 0 006.114.001" fill="#d5564a"/></g></g></g><g data-name="Group 2376"><g data-name="Group 2375"><g data-name="Group 2374" clip-path="url(#ch)" transform="translate(5.528 5.675)"><path data-name="Path 2009" d="M6.041 0a6.119 6.119 0 105.876 6.2A6.033 6.033 0 006.041 0" fill="#d55549"/></g></g></g><g data-name="Group 2379"><g data-name="Group 2378"><g data-name="Group 2377" clip-path="url(#ci)" transform="translate(5.6 5.749)"><path data-name="Path 2010" d="M5.968.001a6.045 6.045 0 105.806 6.125A5.962 5.962 0 005.968.001" fill="#d45449"/></g></g></g><g data-name="Group 2382"><g data-name="Group 2381"><g data-name="Group 2380" clip-path="url(#cj)" transform="translate(5.672 5.822)"><path data-name="Path 2011" d="M5.895.001a5.971 5.971 0 105.733 6.051A5.89 5.89 0 005.893.001" fill="#d45348"/></g></g></g><g data-name="Group 2385"><g data-name="Group 2384"><g data-name="Group 2383" clip-path="url(#ck)" transform="translate(5.743 5.896)"><path data-name="Path 2012" d="M5.823 0a5.9 5.9 0 105.664 5.976A5.816 5.816 0 005.823 0" fill="#d45247"/></g></g></g></g></g></g><path data-name="Path 2013" d="M205.447 53.733c-3-1.107-6.621 1.671-8.093 6.206s-.232 9.11 2.766 10.217 6.621-1.67 8.092-6.205.232-9.11-2.765-10.218" fill="#e5a185"/><path data-name="Path 2014" d="M205.766 64.44a6.673 6.673 0 01-8.249-.594 30.976 30.976 0 01-6.1 18.438c-4.292 5.924-13.553 7.869-20.429 7.6-16.4-.644-20.711-5.8-24.074-12.749 2.3 7.623 7.968 14.684 20.868 15.609 23.9 1.715 30.5-8.511 31.447-23.058a4.023 4.023 0 00.887.472c3 1.108 6.621-1.671 8.092-6.206a12.5 12.5 0 00.61-3.452 7.579 7.579 0 01-3.057 3.942" fill="#d78c74"/><path data-name="Path 2015" d="M200.477 61.961l2.744.407a6.313 6.313 0 013.194-5.918c-5.213-1.94-5.938 5.51-5.938 5.51" fill="#d78c74"/><path data-name="Path 2016" d="M186.548 50.707c-6.1-.491-8.316 5.431-8.316 5.431s.99 3.932 7.4 4.022c7.421.106 7.478-3.545 7.478-3.545a6.752 6.752 0 00-6.567-5.909" fill="#fff"/><path data-name="Path 2017" d="M151.295 54.419s-.965 3.678 5.539 4.024 7.087-1.744 7.087-1.744-6.2-12.2-12.626-2.28" fill="#fff"/></g></g><g data-name="Group 2392"><g data-name="Group 2391" clip-path="url(#cl)" transform="translate(154.889 52.128)"><path data-name="Path 2127" d="M0 0l8.092-.069-.067 7.792-8.092.069z" transform="rotate(-69.444 2.984 4.306)" fill="url(#a)"/></g></g><g data-name="Group 2397"><g data-name="Group 2396"><g data-name="Group 2395" clip-path="url(#d)"><g data-name="Group 2394" opacity=".75"><g data-name="Group 2393" clip-path="url(#cm)" transform="translate(154.357 54.334)"><path data-name="Path 2019" d="M-.001 1.815l.215 1s3.859-.31 3.483-2.2-3.7 1.2-3.7 1.2" fill="#fff"/></g></g></g></g></g><g data-name="Group 2399"><g data-name="Group 2398" clip-path="url(#cn)" transform="translate(181.081 52.613)"><path data-name="Path 2128" d="M0 0l9.049-.07-.063 8.019-9.049.07z" transform="rotate(-71.742 3.558 4.955)" fill="url(#co)"/></g></g><g data-name="Group 2461"><g data-name="Group 2460" clip-path="url(#d)"><g data-name="Group 2402"><g data-name="Group 2401" opacity=".75"><g data-name="Group 2400" clip-path="url(#cp)" transform="translate(180.441 55.646)"><path data-name="Path 2021" d="M.093 1.639L0 2.679S4.04 2.533 3.665.643s-3.572 1-3.572 1" fill="#fff"/></g></g></g><path data-name="Path 2022" d="M157.235 48.88c-4.844-.006-5.941 5.539-5.941 5.539a7.315 7.315 0 015.628-2.837c3.98 0 6.995 5.115 6.995 5.115s-.345-7.81-6.684-7.817" fill="#381911"/><path data-name="Path 2023" d="M153.35 41.659l.4 2.324c4.5-2.728 14.219-3.606 14.219-3.606l.342-5.725c-10.845.927-14.959 7.007-14.959 7.007" fill="#422e26"/><path data-name="Path 2024" d="M178.954 35.532l-1.23 5.083s11.412 2.377 15.048 5.25l.881-2.208s-4.164-6.48-14.7-8.125" fill="#422e26"/><path data-name="Path 2025" d="M185.987 49.905c-6.838-.287-7.755 6.238-7.755 6.238s1.858-4.01 7.906-3.428 6.973 4.12 6.973 4.12-.286-6.642-7.125-6.929" fill="#381911"/><path data-name="Path 2026" d="M171.869 72.524c-11.506.18-12.855-2.4-12.855-2.4s-2.273 13.343 11.709 13.443c13.358.1 11.892-12.765 11.8-13.269.027.232-.1 2.059-10.659 2.223" fill="#6c332e"/><path data-name="Path 2027" d="M162.451 80.994c1.772 1.5 4.4 2.547 8.272 2.576 7.681.058 10.456-4.171 11.415-7.872-7.291-.646-15.273-.453-19.687 5.3" fill="#753632"/><path data-name="Path 2028" d="M182.524 70.276v.025a.205.205 0 000-.025" fill="#6c332e"/><path data-name="Path 2029" d="M179.92 71.802a40.5 40.5 0 01-8.051.722c-5.366.084-8.522-.434-10.362-1.01-1.037 2.913 3.323 5.783 8.826 5.824 5.8.044 10.474-2.7 9.587-5.536" fill="#fff"/><g data-name="Group 2405"><g data-name="Group 2404" opacity=".28"><g data-name="Group 2403" clip-path="url(#cq)" transform="translate(161.356 71.514)"><path data-name="Path 2030" d="M16.101 3.556c.222.081.431.18.639.279 1.478-1 2.231-2.264 1.828-3.552a40.365 40.365 0 01-8.051.722C5.151 1.089 1.995.571.155-.005a2.806 2.806 0 00.6 2.777c4.761-2.335 10.5-.968 15.345.784" fill="#d6c0ba"/></g></g></g><path data-name="Path 2031" d="M167.66 59.858s-4.307-3.239-5.853 2.4 9.411 9.033 12.44 3.142-4.793-16.924-4.793-16.924 1.53 6.784-1.794 11.38" fill="#e5a185"/><g data-name="Group 2408"><g data-name="Group 2407" opacity=".2"><g data-name="Group 2406" clip-path="url(#cr)" transform="translate(161.919 51.673)"><path data-name="Path 2032" d="M5.741 8.186S1.558 5.137.001 10.207a38.085 38.085 0 006.844 1.09A31.483 31.483 0 008.805.271C8.494.181 8.181.094 7.87 0a13.062 13.062 0 01-2.128 8.186" fill="#fff"/></g></g></g><path data-name="Path 2033" d="M174.724 10.543c-30.392 2.069-25.973 36.645-25.973 36.645 1.809-10.282 8.069-23.035 12.854-23.287a17.987 17.987 0 0010.379 3.619c5.567.115 13.285-4.044 13.285-4.044 5.554-.133 11.905 17.514 12.647 31.736.17 3.253 2.924-.5 2.924-.5s3.663-46.194-26.117-44.167" fill="#4f372d"/><path data-name="Path 2034" d="M190.609 13.236c-8.987-14.076-38.269-9.99-38.269-9.99-2.842 15.973 8.038 19.574 8.038 19.574s25.353-4.638 29.189-1.858 11.327 25.113 11.327 25.113 6.482-23.311 1.7-31.886c-3.507-6.294-11.988-.953-11.988-.953" fill="#4f372d"/><path data-name="Path 2035" d="M163.667 0a8.769 8.769 0 001.882 4.265s30.707 21.413 25.06 8.971S163.667 0 163.667 0" fill="#4f372d"/><path data-name="Path 2036" d="M195.584 8.954c-1.728.275-2.134 1.113-2.134 1.113 1.244-2.332.386-5.509.386-5.509-3.374 1.984-3.039 4.75-3.039 4.75-1.654-3.556-6.745-4.66-6.745-4.66.164 2.938 3.217 5.936 3.383 6.027l2.642 4.134 5.477-.884-.541-2.51a3.148 3.148 0 00.57-2.462" fill="#4f372d"/><path data-name="Path 2037" d="M153.16 15.403c-8.93 2.788-6.343 39.3-6.343 39.3 1.809-10.282 10-30.553 14.788-30.806a31.885 31.885 0 01-8.445-8.5" fill="#422e26"/><g data-name="Group 2411"><g data-name="Group 2410" opacity=".12"><g data-name="Group 2409" clip-path="url(#cs)" transform="translate(187.909 12.967)"><path data-name="Path 2038" d="M.006.004c.014 0 .047-.007-.006 0z" fill="#fff"/></g></g></g><g data-name="Group 2414"><g data-name="Group 2413" opacity=".12"><g data-name="Group 2412" clip-path="url(#ct)" transform="translate(187.909 13.18)"><path data-name="Path 2039" d="M.006 0z" fill="#fff"/></g></g></g><g data-name="Group 2417"><g data-name="Group 2416" opacity=".11"><g data-name="Group 2415" clip-path="url(#cu)" transform="translate(151.904 4.148)"><path data-name="Path 2041" d="M47.234 7.21c-1.094.179-2.249.458-3.439.736a24.239 24.239 0 01-8.745.709c-3.385-.466-6.354-2.019-9.359-3.578-1.517-.787-3.03-1.587-4.593-2.275C17.75 1.33 13.798-.116 10.109.009a15.159 15.159 0 00-5.3 1.341 11.4 11.4 0 00-3.784 2.6A10.939 10.939 0 00-.003 5.184a19.957 19.957 0 00.441 3.435c.116-.1.235-.2.363-.3a11.207 11.207 0 012.261-1.322 9.834 9.834 0 013.025-.788c4.392-.345 8.469 1.464 12.436 3.145 1.623.688 3.274 1.49 5.021 2.233a53.587 53.587 0 005.457 2.08 18.914 18.914 0 0010.362.378c.44-.125.876-.231 1.3-.364a29.132 29.132 0 004.417-1.918c1.27-.671 2.357-1.284 3.315-1.744a11.823 11.823 0 011.8-.739 5.419 5.419 0 00-2.959-2.068" fill="#e5912f"/></g></g></g><g data-name="Group 2420"><g data-name="Group 2419" opacity=".12"><g data-name="Group 2418" clip-path="url(#cv)" transform="translate(187.844 12.971)"><path data-name="Path 2042" d="M0 .001z" fill="#fff"/></g></g></g><path data-name="Path 2043" d="M146.815 54.707s-.246 14.474 9.076 15.593c0 0-2.392 15.335 14.831 15.493 16.648.153 14.128-15.394 14.128-15.394s11.589 0 13.036-15.692h2.953s-2.769 9.128-1.263 14.559c0 0 4.25 24.22-27.146 24.735s-29.287-23.978-25.615-39.3" fill="#4f372d"/><path data-name="Path 2044" d="M168.706 65.408a25.062 25.062 0 00-10.1 1.288c-5.773 1.791-8.039.722-8.039.722s1.451 4.689 19.351 5.11c15.216.361 20.183-2.855 20.183-2.855s-7.12-4.541-21.4-4.265" fill="#4f372d"/><path data-name="Path 2045" d="M168.706 65.408a25.062 25.062 0 00-10.1 1.288c-5.773 1.791-8.039.722-8.039.722s1.451 4.689 19.351 5.11c15.216.361 20.183-2.855 20.183-2.855s-7.12-4.541-21.4-4.265" fill="#4f372d"/><path data-name="Path 2046" d="M161.695 63.839c.626 4.637 9.817 6.883 12.552 1.566a5.885 5.885 0 00.4-1.017 26.626 26.626 0 01-12.951-.548" fill="#d78c74"/><g data-name="Group 2423"><g data-name="Group 2422" opacity=".16"><g data-name="Group 2421" clip-path="url(#cw)" transform="translate(165.753 87.418)"><path data-name="Path 2047" d="M.568-.001a32.814 32.814 0 008.434.42s2.387 4.609-4.421 4.5S.568-.004.568-.004"/></g></g></g><path data-name="Path 2048" d="M163.859 450.613a2.329 2.329 0 01-2.21 2.118l-7.364.285a210.948 210.948 0 00-18.845-20.029c2.63-2.056 6.055-5.484 8.032-7.248 2.517-2.246 2.373-18.639 2.373-18.639l14-1.481s-.259 15.317.363 16.9c1.226 3.11 2.241 4.6 3.391 7.71a18.311 18.311 0 01.806 4.993 70.341 70.341 0 01-.173 11.473c-.109 1.309-.243 2.614-.375 3.921" fill="#959caf"/><g data-name="Group 2426"><g data-name="Group 2425" opacity=".11"><g data-name="Group 2424" clip-path="url(#cx)" transform="translate(144.918 405.619)"><path data-name="Path 2049" d="M15.074 15.41c-.333-4.242-.145-15.409-.145-15.409l-14 1.48S1.009 10.624 0 16.19a37.173 37.173 0 0015.075-.78"/></g></g></g><path data-name="Path 2050" d="M163.387 429.067c-2.846 3.055-13.7 12.8-22.661-.242a1.372 1.372 0 00-2.056-.289c-6.614 5.85-15.29 13.919-20.008 12.225-6.978-2.507-10.547.913-10.606 5.964l-.057 5.052s14.258 6.517 26.9 2.494l12.641-4.024.051 1.359a1.643 1.643 0 001.684 1.6l12.373-.478a2.331 2.331 0 002.21-2.118c.4-3.964 1.914-14.478.255-21.185-.079-.325-.5-.605-.727-.363" fill="#404751"/><path data-name="Path 2051" d="M164.322 447.246c-17.185-.557-27.009 6.607-38.336 6.306a64 64 0 01-18.115-3.648 1.3 1.3 0 00-1.712 1.133l-.052.532a1.078 1.078 0 00.65 1.1c15.226 6.2 30.45 2.44 34.507 1.353 3.334-.893 17.266-.062 22.472.288a1.984 1.984 0 002.091-1.9l.19-3.286a1.766 1.766 0 00-1.695-1.882" fill="#6b737c"/><path data-name="Path 2052" d="M225.973 450.613a2.329 2.329 0 01-2.21 2.118l-7.364.285a210.745 210.745 0 00-18.845-20.029c2.63-2.056 6.056-5.484 8.032-7.248 2.517-2.246.253-18.639.253-18.639l12.474-1.482s3.389 15.317 4.012 16.9c1.226 3.11 2.242 4.6 3.392 7.71a18.341 18.341 0 01.8 4.993 70.245 70.245 0 01-.173 11.473c-.108 1.309-.243 2.614-.375 3.921" fill="#959caf"/><g data-name="Group 2429"><g data-name="Group 2428" opacity=".11"><g data-name="Group 2427" clip-path="url(#cy)" transform="translate(205.839 405.619)"><path data-name="Path 2053" d="M15.416 12.869C14.201 7.828 12.469.001 12.469.001L-.004 1.481a110.676 110.676 0 01.929 11.538 26.848 26.848 0 0014.491-.15"/></g></g></g><path data-name="Path 2054" d="M225.5 429.067c-2.846 3.055-13.7 12.8-22.661-.242a1.372 1.372 0 00-2.056-.289c-6.614 5.85-15.289 13.919-20.007 12.225-6.979-2.507-10.546.913-10.606 5.964l-.058 5.052s14.259 6.517 26.9 2.494l12.643-4.024.05 1.359a1.643 1.643 0 001.685 1.6l12.372-.478a2.33 2.33 0 002.21-2.118c.4-3.964 1.916-14.478.255-21.185-.08-.325-.5-.605-.728-.363" fill="#404751"/><path data-name="Path 2055" d="M226.436 447.246c-17.185-.557-27.01 6.607-38.336 6.306a64.01 64.01 0 01-18.116-3.648 1.3 1.3 0 00-1.712 1.133l-.051.532a1.077 1.077 0 00.649 1.1c15.226 6.2 30.45 2.44 34.507 1.353 3.334-.893 17.266-.062 22.473.288a1.984 1.984 0 002.091-1.9l.19-3.286a1.767 1.767 0 00-1.695-1.882" fill="#6b737c"/><path data-name="Path 2056" d="M187.6 238.611l-10.3 17.376 7.3.813 9.971-18.189z" fill="#3d4041"/><path data-name="Path 2057" d="M203.52 236.26l-.619 27.068s-68.211 2.644-71.74-5.936c-2.705-6.576-.656-19.16-.656-19.16z" fill="#363c42"/><path data-name="Path 2058" d="M163.675 413.19c-9.71-99.43-3.936-143.176-3.683-152.236l-31.321-10.968c-.342 6.478-2.654 70.837 12.8 163.391A3.1 3.1 0 00144.5 416h16.7a2.528 2.528 0 002.467-2.81" fill="#363c42"/><path data-name="Path 2059" d="M220.507 413.18a2.734 2.734 0 002.467-3.44c-8.251-32.109-16.706-59.556-19.453-84.3-5.136-46.24 4.374-78.439-.482-78.164l-30.042 4.486c-1.169 4.061-8.116 67.427 29.324 159.752a3.664 3.664 0 003.537 2.308z" fill="#363c42"/><g data-name="Group 2432"><g data-name="Group 2431" opacity=".14"><g data-name="Group 2430" clip-path="url(#cz)" transform="translate(130.451 314.594)"><path data-name="Path 2060" d="M27.619 0l-.138.075c.017.492.023.984 0 1.477a16.218 16.218 0 01-3.01 9.383A13.575 13.575 0 017.02 14.276 20.291 20.291 0 010 6.876C1.822 32.32 5.131 63.5 11.024 98.784a3.1 3.1 0 003.028 2.625h16.7a2.529 2.529 0 002.468-2.81c-4.149-42.489-5.471-74.805-5.6-98.6"/></g></g></g><g data-name="Group 2435"><g data-name="Group 2434" opacity=".14"><g data-name="Group 2433" clip-path="url(#cA)" transform="translate(176.365 315.952)"><path data-name="Path 2061" d="M46.613 93.788c-8.251-32.109-16.706-59.556-19.454-84.3q-.539-4.851-.871-9.487c-1.824 7.093-7.1 13.093-14.876 12.853C6.673 12.708 2.861 9.887.005 6.005a431.841 431.841 0 0025.95 89.557 3.663 3.663 0 003.536 2.308l14.65-.641a2.734 2.734 0 002.467-3.44"/></g></g></g><path data-name="Path 2062" d="M195.2 121.96v-18.064c-14.26-4.327-33.748-4.288-47.554 1.637v16.427z" fill="#d78c74"/><path data-name="Path 2063" d="M189.614 108.678c-4.165 3.652-11.731 4.679-19.817 4.814-10.2.17-14.83-2.089-16.63-10.124-3.381.6-12 3.417-16.779 6.558v141.44a136.6 136.6 0 0032.216 3.313 131.531 131.531 0 0032.054-4.059v-137.1c-3.617-1.771-7.322-3.323-11.044-4.845" fill="#dfe5ea"/><path data-name="Path 2064" d="M164.594 117.327c-.433-2.193-6.87-8.531-8.232-14.613-6.121 0-18.323 5.11-22.057 8.855-7.99 8.015-8.085 27.683-8.845 56.266-.815 30.671-.824 27.683-4.686 86.86a232.543 232.543 0 0037.437 5.222c-2.846-42.452 5.729-135.7 6.382-142.591" fill="#6d7db3"/><path data-name="Path 2065" d="M196.627 103.727c-1.238-.364-6.923-1.894-8.241-2.249-1.182 7.23-4.044 5.779-12.455 15.343-.817 8.406-7.327 77.315-5.876 144.324a138.3 138.3 0 0045.785-9.35c-.71-8.423-2.361-19.413-3.042-39.577-1.008-29.845 1.238-63.647 1.287-82.912 0-2.765.49-21.758-17.458-25.58" fill="#6d7db3"/><g data-name="Group 2438"><g data-name="Group 2437" opacity=".08"><g data-name="Group 2436" clip-path="url(#cB)" transform="translate(151.717 103.048)"><path data-name="Path 2066" d="M1.381.013s-3.1 14.328-.009 20.56c0 0 .8-8.96 4.636-7.4 2.552 1.035 5.054 4.762 6.465 7.091.19-3.119.331-5.21.4-5.987-.419-2.125-6.464-8.145-8.077-14.05A17.624 17.624 0 001.377.014" fill="#002a3d"/></g></g></g><path data-name="Path 2067" d="M151.379 199.874c1.751-38.558 7.532-83.773 8.333-89.914-.171-.26-.338-.522-.505-.788l-2.41-.339c-.066.491-6.572 49.5-8.45 90.9-1.248 27.486-.847 48.354-.431 59.365q1.5.155 3.05.294c-.419-10.813-.846-31.762.414-59.515" fill="#7588bc"/><path data-name="Path 2068" d="M179.946 200.108c.1-43.244 5.079-89.422 5.131-89.884l-1.838-.211c-.406.345-.845.72-1.313 1.13-.8 7.732-4.928 49.548-5.016 88.958-.063 28.545 1.037 49.34 1.821 60.53q1.529-.145 3.022-.323c-.779-11.145-1.869-31.816-1.806-60.2" fill="#7588bc"/><g data-name="Group 2441"><g data-name="Group 2440" opacity=".08"><g data-name="Group 2439" clip-path="url(#cC)" transform="translate(175.222 103.049)"><path data-name="Path 2069" d="M10.681 13.17c3.84-1.558 4.635 7.4 4.635 7.4 3.091-6.234-.009-20.56-.009-20.561a16.826 16.826 0 00-2.4.087c-1.331 5.739-4.347 5.078-12.192 14-.093.962-.518 4.028-.71 7.7 2.58-2.768 8.53-7.757 10.681-8.629" fill="#002a3d"/></g></g></g><path data-name="Path 2070" d="M129.69 134.77l1.538-3.283 24.436-4.362.49 3.076z" fill="#7588bc"/><path data-name="Path 2071" d="M164.594 117.323s-8.187-10.456-10.237-3.422c-1.4 4.786-2.028 7.643-2.028 7.643s-3.795-12.1.38-17.948 7.333-7.051 7.333-7.051a32.511 32.511 0 002.156 12.8 40.919 40.919 0 012.4 7.978" fill="#7588bc"/><path data-name="Path 2072" d="M158.944 173.471a2.043 2.043 0 11-2.034-1.851 1.949 1.949 0 012.034 1.851" fill="#b0b5c1"/><path data-name="Path 2073" d="M160.984 148.369a2.043 2.043 0 11-2.034-1.851 1.949 1.949 0 012.034 1.851" fill="#b0b5c1"/><path data-name="Path 2074" d="M156.668 199.43a2.043 2.043 0 11-2.034-1.851 1.949 1.949 0 012.034 1.851" fill="#b0b5c1"/><path data-name="Path 2075" d="M155.909 221.247a2.042 2.042 0 11-2.033-1.851 1.949 1.949 0 012.033 1.851" fill="#b0b5c1"/><path data-name="Path 2076" d="M155.909 243.844a2.042 2.042 0 11-2.033-1.851 1.948 1.948 0 012.033 1.851" fill="#b0b5c1"/><path data-name="Path 2077" d="M162.742 126.187a2.043 2.043 0 11-2.034-1.851 1.949 1.949 0 012.034 1.851" fill="#b0b5c1"/><path data-name="Path 2078" d="M175.904 117.445s11.314-10.579 13.365-3.545c1.394 4.786 2.026 7.643 2.026 7.643s3.8-12.1-.38-17.948-6.8-6.058-6.8-6.058.218 2.5-2.312 8.356c-1.667 3.856-5.315 6.623-5.9 11.551" fill="#7588bc"/><path data-name="Path 2079" d="M87.122 141.768q.143-.239.288-.472a19.455 19.455 0 0120.441-8.916c12.159 2.39 9.666 24.007 2.855 36.694-4.207 7.835-16.281 10.741-23.159 5.183-9.151-7.4-5.707-23.636-.426-32.49" fill="#b6bdce"/><g data-name="Group 2444"><g data-name="Group 2443" opacity=".12"><g data-name="Group 2442" clip-path="url(#cD)" transform="translate(155.68 96.545)"><path data-name="Path 2080" d="M6.517 12.8A32.528 32.528 0 014.361 0a9.527 9.527 0 00-2.113 1.347c-3.026 2.961-2.542 8.938-1.192 13.6 3.169-.141 7.857 5.83 7.857 5.83a40.919 40.919 0 00-2.4-7.978" fill="#fff"/></g></g></g><g data-name="Group 2447"><g data-name="Group 2446" opacity=".12"><g data-name="Group 2445" clip-path="url(#cE)" transform="translate(175.904 97.538)"><path data-name="Path 2081" d="M10.587 13.96c.751-4.886.79-9.813-2.307-13.95L8.216 0s.217 2.5-2.313 8.357C4.236 12.212.589 14.98.003 19.907c0 0 6.552-6.121 10.587-5.947" fill="#fff"/></g></g></g><path data-name="Path 2082" d="M122.637 101.478c-4.207-.861-10 1.923-14.214 1.444-.592-.067.141-2.832-1.246-1.444-.159 12.471-11.977 26.865-16.926 40.453-2.842 7.8-8.756 23.26.438 29.036a12.163 12.163 0 0013.15-.526c3.883-2.6 5.744-7.132 7.086-11.5a182.139 182.139 0 004.482-20.3c1.521-8.173 5.621-26.82 7.229-37.159" fill="#d78c74"/><g data-name="Group 2450"><g data-name="Group 2449" opacity=".06"><g data-name="Group 2448" clip-path="url(#cF)" transform="translate(104.44 101.089)"><path data-name="Path 2083" d="M8.572 18.983c2.351 4.057 3.178 8.918 3.364 13.614C13.804 23.309 16.86 8.981 18.197.388c-4.207-.861-10 1.923-14.213 1.444C3.391 1.765 4.125-1 2.738.388A32.231 32.231 0 01.001 11.916a16.149 16.149 0 018.571 7.067"/></g></g></g><path data-name="Path 2084" d="M135.421 109.541c-2.58 5.155-6.23 15.242-8.881 29.325-.589 8.222-.785 17.926-1.078 28.965-.054 2.027-.1 3.9-.153 5.665 3.651-48.077 12.5-62.96 15.512-66.563-2.98.823-4.028 1.42-5.4 2.607" fill="#7588bc"/><path data-name="Path 2085" d="M130.836 152.078l-1.317 18.393a4.884 4.884 0 002.248 4.491l4.353 2.73a3.639 3.639 0 003.932-.034l5.658-3.684a4.718 4.718 0 002.111-3.61l1.357-18.287z" fill="#7588bc"/><path data-name="Path 2086" d="M184.97 154.168v18.149a5.388 5.388 0 002.206 4.366l3.7 2.679a5.292 5.292 0 006.529-.235l5.436-4.554a6.784 6.784 0 002.4-5.423l-.49-14.982z" fill="#7588bc"/><path data-name="Path 2087" d="M217.878 253.74s-6.927 7.115-8.115 13.39.424 13.249-1.529 16.648 2.173 3.4 3.634 1.308 4.433-12.639 4.433-12.639z" fill="#d58a73"/><path data-name="Path 2088" d="M223.226 298.847a15.769 15.769 0 01-1.411-3.042c-1.309.29-1.891-.956-2.91-2.738s-7.307-19.257-7.029-24.518 7.736-17.891 7.736-17.891 13.715-.856 16.532 3.635 1.312 11.577 1.17 14.878c-.118 2.779-.881 8.6-1.138 10.893a32.132 32.132 0 01-1.68 7.487c-.565 1.366-2.554 1.844-2.935-.337-.008.282-.018.587-.034.928-.138 3.195-.266 5.832-.341 6.6-.226 2.334-2.99 2.918-3.6.277-.467-2.014-.874-5.708-.874-5.708.236 2.753-.133 7.115-.127 8.709a1.781 1.781 0 01-3.357.828" fill="#e19d81"/><path data-name="Path 2089" d="M235.434 267.437a13.13 13.13 0 01-15.76 3.9 13.361 13.361 0 01-6.68-7.24 16.7 16.7 0 00-1.116 4.451c-.278 5.261 6.011 22.737 7.029 24.518s1.6 3.028 2.91 2.737a15.758 15.758 0 001.411 3.043 1.78 1.78 0 003.356-.828c0-1.6.364-5.957.128-8.71 0 0 .406 3.694.874 5.708.612 2.641 3.376 2.056 3.6-.278.075-.767.2-3.406.341-6.6.014-.341.026-.646.034-.928.38 2.182 2.37 1.7 2.935.338a32.143 32.143 0 001.68-7.487c.257-2.289 1.019-8.113 1.138-10.892.062-1.444.384-3.611.492-5.969a17.711 17.711 0 01-2.373 4.236" fill="#d58a73"/><path data-name="Path 2090" d="M240.941 189.263c-3.258-57.551-21.394-75.673-33.482-81.843-.78 8.542-3.944 17.166-5.812 25.218l-1.081 4.656c5.346 11.669 14.713 36.933 14.951 53.886.35 25 9.19 24.7 1.225 68.734l18.833-6.4c2.356-15.859 6.7-40.767 5.367-64.253" fill="#e19d81"/><path data-name="Path 2091" d="M240.942 189.263c-2.418-42.71-13.03-63.692-23.282-74.2-1.069 4.666-2.814 9.309-4.242 13.745-2.357 7.326-4.868 14.6-7.391 21.865 4.629 12.532 9.323 28.574 9.49 40.509.018 1.261.058 2.456.115 3.6a16.632 16.632 0 0114.319-4.215 15.58 15.58 0 0111.221 9.162c.026-3.5-.034-6.993-.231-10.46" fill="#d58a73"/><path data-name="Path 2092" d="M214.715 182.237a108.472 108.472 0 0113-1.981c4.16-.367 8.335-.509 12.517-.514-7.1-77.072-42.97-74.466-43.769-76.074l.532 31.1c4.215 8.513 15.071 29.932 17.72 47.466" fill="#6d7db3"/><path data-name="Path 2093" d="M204.524 123.33c1.765 10.018 3.719 30.344 4.77 41.5 1.237 3.344 2.22 3.907 3.179 7.305l.422-.037q.025-.962.052-1.918c-.635-7.3-3.043-33.946-5.416-47.4-1.625-9.224-5.25-14.949-8.412-18.351a15.969 15.969 0 00-4.519-1.261 43.628 43.628 0 019.924 20.171" fill="#7588bc"/><path data-name="Path 2094" d="M240.756 158.18s2.717 20.308 2.377 25.276a4.086 4.086 0 01-2.377 2.8s-17.311-.74-25.189 6.96c0 0-3.127-2.749-4.369-9.819-1.449-8.238-2.442-14.9-1.9-18.573.808-5.516 27.557-12.837 31.462-6.649" fill="#b6bdce"/><path data-name="Path 2095" d="M206.028 135.344l-24.393-5.786.614-3.052 24.859 5.665z" fill="#7588bc"/><path data-name="Path 2096" d="M109.783 107.454l-.418-.078 5.1-28.73a2.16 2.16 0 00-1.691-2.509l-7.466-1.394a1.773 1.773 0 00-2.058 1.463l-5.1 28.77a.293.293 0 01-.34.241 1.959 1.959 0 10-.684 3.857l2.029.379 7.919 1.48 2.028.379a1.935 1.935 0 002.321-1.537 2.026 2.026 0 00-1.637-2.32" fill="#e2dedc"/><path data-name="Path 2097" d="M117.924 108.976a.435.435 0 01-.342-.507l5.02-28.3a2.159 2.159 0 00-1.691-2.509l-7.462-1.395a1.774 1.774 0 00-2.059 1.462l-5.1 28.771a.293.293 0 01-.34.241h-.008a1.959 1.959 0 10-.675 3.858l2.028.379 7.919 1.48 2.028.379a1.936 1.936 0 002.321-1.537 2.025 2.025 0 00-1.636-2.32" fill="#ede8e6"/><path data-name="Path 2098" d="M138.57 70.994c-1.2 6.769-5.412 11.652-9.406 10.906s-6.258-6.839-5.058-13.609 5.412-11.652 9.406-10.906 6.258 6.839 5.058 13.609" fill="#b2423f"/><path data-name="Path 2129" d="M113.056 78.67l4.31-24.299 16.188 3.027-4.31 24.299z" fill="#b2423f"/><g data-name="Group 2453"><g data-name="Group 2452" opacity=".09"><g data-name="Group 2451" clip-path="url(#cG)" transform="translate(115.829 56.686)"><path data-name="Path 2099" d="M23.137 11.287a15.073 15.073 0 00-1.6-7.493L1.237 0 .002 6.963z" fill="#fff"/></g></g></g><path data-name="Path 2100" d="M133.242 70.003c-1.49 8.4-6.717 14.462-11.674 13.535s-7.767-8.488-6.277-16.889 6.717-14.461 11.674-13.535 7.767 8.488 6.277 16.888" fill="#bf534b"/><path data-name="Path 2101" d="M121.574 83.538l-20.038-3.745 5.4-30.425 20.09 3.754z" fill="#bf534b"/><g data-name="Group 2456"><g data-name="Group 2455" opacity=".09"><g data-name="Group 2454" clip-path="url(#cH)" transform="translate(104.785 52.865)"><path data-name="Path 2102" d="M28.694 12.755a18.849 18.849 0 00-1.592-7.934L1.311.001 0 7.393z" fill="#fff"/></g></g></g><path data-name="Path 2103" d="M113.209 66.258c-1.49 8.4-6.717 14.461-11.674 13.535s-7.768-8.487-6.277-16.887 6.717-14.461 11.674-13.535 7.767 8.487 6.277 16.889" fill="#ce524e"/><path data-name="Path 2104" d="M110.704 65.79c1.214-6.844-.719-12.97-4.405-14.066 0 0-30.609-10.758-41.362-36.1l-9.18 39.9-5.137 40.649c18.768-19.827 51.131-18.817 51.131-18.817 3.827.309 7.739-4.724 8.953-11.568" fill="#ede8e6"/><g data-name="Group 2459"><g data-name="Group 2458" opacity=".07"><g data-name="Group 2457" clip-path="url(#cI)" transform="translate(50.621 60.661)"><path data-name="Path 2105" d="M44.045 6.991C30.552 9.546 16.751 6.035 4.445.307L-.003 35.515c18.768-19.828 51.131-18.818 51.131-18.818 3.827.309 7.739-4.724 8.953-11.568A22.555 22.555 0 0060.409 0c-4.629 4.01-10.4 5.861-16.367 6.991"/></g></g></g><path data-name="Path 2106" d="M81.279 59.045c-4 22.664-18.592 38.928-32.6 36.325s-22.126-23.085-18.13-45.75 18.593-38.927 32.6-36.325 22.126 23.086 18.13 45.75" fill="#ce524e"/><path data-name="Path 2107" d="M81.279 59.045c-4 22.664-18.592 38.928-32.6 36.325s-22.126-23.085-18.13-45.75 18.593-38.927 32.6-36.325 22.126 23.086 18.13 45.75" fill="#ce524e"/><path data-name="Path 2108" d="M79.401 58.694c-4 22.664-18.593 38.928-32.6 36.325s-22.127-23.085-18.132-45.75 18.593-38.927 32.6-36.325 22.126 23.086 18.13 45.75" fill="#bf534b"/><path data-name="Path 2109" d="M77.572 58.353C73.864 79.383 60.32 94.474 47.321 92.06S26.79 70.639 30.498 49.609 47.75 13.487 60.75 15.902s20.53 21.421 16.822 42.451" fill="#d8d4d2"/></g></g><g data-name="Group 2463"><g data-name="Group 2462" clip-path="url(#cJ)" transform="translate(29.553 15.648)"><path data-name="Path 2130" d="M0 0l87.5-.4-.314 67.42-87.5.4z" transform="rotate(-79.69 37.569 47.905)" fill="url(#cK)"/></g></g><g data-name="Group 2477"><g data-name="Group 2476" clip-path="url(#d)"><g data-name="Group 2466"><g data-name="Group 2465" opacity=".27"><g data-name="Group 2464" clip-path="url(#cL)" transform="translate(35.195 22.954)"><path data-name="Path 2111" d="M0 11.435c9.016 6.517 25.8 17.564 36.461 21.668l.381-2.142S18.856 18.745 7.693 0A43.12 43.12 0 000 11.435" fill="#fff"/></g></g></g><g data-name="Group 2469"><g data-name="Group 2468" opacity=".16"><g data-name="Group 2467" clip-path="url(#cM)" transform="translate(29.56 50.518)"><path data-name="Path 2112" d="M.796 0a59.084 59.084 0 00-.5 15.473c12.689-2.158 30.06-4.609 43.393-4.58l-6.735-3A334.045 334.045 0 00.795-.007" fill="#fff"/></g></g></g><g data-name="Group 2472"><g data-name="Group 2471" opacity=".16"><g data-name="Group 2470" clip-path="url(#cN)" transform="translate(37.607 64.164)"><path data-name="Path 2113" d="M14.143 28.048C18.931 19.086 27.677 4.862 37.157 0l-4.365.6S13.42 7.7 0 22.041a17.04 17.04 0 009.714 5.855 15.185 15.185 0 004.429.152" fill="#fff"/></g></g></g><path data-name="Path 2114" d="M79.695 50.802l-31.62-4.372-2.629 14.819 31.093 7.348z" fill="#ede8e6"/><path data-name="Path 2115" d="M50.473 54.532c-.726 4.092-2.977 7.1-5.027 6.716s-3.124-4.012-2.4-8.1 2.977-7.1 5.027-6.716 3.124 4.012 2.4 8.1" fill="#f4f3f2"/><path data-name="Path 2116" d="M48.735 54.209c-.386 2.177-1.584 3.778-2.675 3.573s-1.662-2.134-1.275-4.312 1.583-3.778 2.675-3.573 1.663 2.134 1.276 4.312" fill="#ede8e6"/><path data-name="Path 2117" d="M60.73 48.162c1.645 1.234 2.585 4.764 1.9 8.642s-2.868 6.825-4.833 7.384l18.389 4.408 3.213-17.8z" fill="#ce524e"/><g data-name="Group 2475"><g data-name="Group 2474" opacity=".14"><g data-name="Group 2473" clip-path="url(#cO)" transform="translate(67.772 50.105)"><path data-name="Path 2118" d="M6.873-.001a15.532 15.532 0 01-.679 9.91 13.983 13.983 0 01-6.2 6.511l8.767 2.072L11.919.697z"/></g></g></g><path data-name="Path 2119" d="M61.271 12.945c-14.009-2.6-28.6 13.66-32.6 36.325s4.12 43.147 18.13 45.749 28.6-13.66 32.6-36.325-4.12-43.147-18.13-45.749M47.324 92.061c-13-2.415-20.531-21.421-16.822-42.451S47.75 13.488 60.75 15.902s20.53 21.422 16.823 42.452-17.249 36.122-30.249 33.707" fill="#bf534b"/><path data-name="Path 2120" d="M102.433 80.302a41.59 41.59 0 0119.141 3.236 8.113 8.113 0 013.185 7.932l-2.128 12.437a5.44 5.44 0 01-5.048 4.569s-3.151-3.46-10.36-4.637-9.075 1.139-9.075 1.139a5.5 5.5 0 01-3.231-6.147l2.941-15.076a4.229 4.229 0 014.576-3.452" fill="#e5a185"/><path data-name="Path 2121" d="M121.573 83.539c-.117-.05-.234-.092-.351-.139.4 6.507-5.1 13.453-11.7 15.441-4.436 1.336-10.187 1.632-14.472-.71l-.137.7a5.5 5.5 0 003.232 6.148s1.866-2.315 9.075-1.139 10.36 4.637 10.36 4.637a5.443 5.443 0 005.047-4.569l2.128-12.437a8.113 8.113 0 00-3.185-7.932" fill="#d78c74"/><path data-name="Path 2122" d="M122.812 94.332c0-.564-5.987-3.727 2.152-9.682 3.111-2.275 5.821-.426 5.339.49a40.007 40.007 0 00-7.665 17.57c-.137.727.175-8.378.175-8.378" fill="#d78c74"/><path data-name="Path 2123" d="M134.895 67.973c-.24 1.067 2.263 1.684 3.83 1.964a20.268 20.268 0 00.154-2.216c-1.4-.373-3.744-.819-3.985.252" fill="#664d4d"/><path data-name="Path 2124" d="M132.778 77.339c-.436 1.023 1.263 1.211 2.722 1.2a14.856 14.856 0 001.21-1.952c-1.365-.233-3.447-.383-3.932.756" fill="#664d4d"/><path data-name="Path 2125" d="M137.532 74.745c.225-.585.422-1.2.6-1.829-1.227-.3-3.387-.647-3.813.519-.393 1.073 1.705 1.289 3.217 1.311" fill="#664d4d"/><path data-name="Path 2126" d="M134.95 62.329c-.469 1.378 2.169 2.292 3.789 2.716a14.713 14.713 0 00-.553-2.51c-1.22-.716-2.811-1.451-3.235-.206" fill="#664d4d"/></g></g></g></g></g></g></g></svg>