<svg width="512" height="512" fill="none" xmlns="http://www.w3.org/2000/svg"><path d="M422.917 296.542l-71.964-9.042a7.933 7.933 0 01-6.953-7.9v-17.241a94.502 94.502 0 0031.77-64.506l1.7-5.89a31.991 31.991 0 0028.525-43.104 31.986 31.986 0 00-12.247-15.471 100.899 100.899 0 00-1.519-46.336A92.835 92.835 0 00364.775 42.2c-1.973-1.766-3.714-3.221-5.322-4.448a103.344 103.344 0 00-101.015-14.639L230.423 34.1c-29.418.937-43.947 28.1-45.291 54.985-.974 18.1 2.357 35.557 6.107 50.665a31.965 31.965 0 00-6.027 28.978 31.976 31.976 0 0020.337 21.505c3.533 9.961 7.951 18.295 15.1 30.487A94.531 94.531 0 00248 262.358V279.6a7.874 7.874 0 01-6.177 7.762c-.3.04-.557.089-.766.134h-.049c-2.075.26-22.06 2.777-32.35 4.081-9.051-18.33-18.567-36.014-28.342-52.641l-12.247-29.168a7.997 7.997 0 00-10.348-4.33l-5.766 2.307-13.063-87.916a7.99 7.99 0 00-3.885-5.735L64.654 73.088A8 8 0 0052.9 77.941l-20.63 77.424a8 8 0 001.339 6.872l53.75 71.368-5.453 2.183a8.003 8.003 0 00-5.024 7.433c0 1.061.213 2.112.624 3.091l12.157 28.954C98.977 310.1 108.91 341.5 120 371.2V464a32.038 32.038 0 0032 32h120a7.993 7.993 0 006.033-2.747 8.004 8.004 0 001.89-6.353 119.024 119.024 0 00-3.285-14.909l19.337-6.146 90.047 28.651a31.957 31.957 0 009.7 1.507H440a32.038 32.038 0 0032-32V352.08a56.006 56.006 0 00-49.083-55.538zM456 407.16l-83.693-8.369 44.944-22.472L456 382.777v24.383zm0-55.08v14.476l-38.685-6.447a8 8 0 00-4.893.736l-46.683 23.341L296 391.16l-46.984-4.7c-1.33-3.647-2.682-7.259-4-10.781a909.616 909.616 0 00-29.021-68.9c7.624-.964 17.271-2.18 22.831-2.879a69.459 69.459 0 0058.363 32.098 69.446 69.446 0 0058.537-31.778l65.221 8.2A39.99 39.99 0 01456 352.08zM264 279.6v-6.483A68.377 68.377 0 00293.827 280h4.346A68.377 68.377 0 00328 273.117v6.483a23.988 23.988 0 0011.159 20.261 53.438 53.438 0 01-42.589 20.133A53.437 53.437 0 01254.6 298.6a23.97 23.97 0 009.4-19zM306.868 136h-21.736a17.588 17.588 0 00-14.732-8h-32.651A102.877 102.877 0 00248 83.158V72h8.676c13.1 0 23.6 9.578 34.718 19.719C302.323 101.69 313.624 112 328 112h32v16.081a17.65 17.65 0 00-1.6-.081h-36.8a17.584 17.584 0 00-14.732 8zM232 145.6a1.6 1.6 0 011.6-1.6h36.8a1.6 1.6 0 011.6 1.6v12.8a1.6 1.6 0 01-1.6 1.6h-36.8a1.6 1.6 0 01-1.6-1.6v-12.8zm88 0a1.6 1.6 0 011.6-1.6h36.8a1.6 1.6 0 011.6 1.6v12.8a1.6 1.6 0 01-1.6 1.6h-36.8a1.6 1.6 0 01-1.6-1.6v-12.8zm56 30.4v-32c4.243 0 8.313 1.686 11.314 4.686a16.004 16.004 0 010 22.628A16.004 16.004 0 01376 176zM201.11 89.919c.919-18.377 9.56-39.839 30.89-39.839 1 0 1.991-.187 2.922-.553l29.353-11.517a87.28 87.28 0 0185.349 12.365l.088.069c1.282.976 2.718 2.179 4.387 3.672 19.98 17.918 29.128 46.3 24.348 73.987-.808-.062-1.622-.1-2.446-.1v-24a8 8 0 00-8-8H328c-8.174 0-16.747-7.821-25.822-16.1C289.9 68.7 275.982 56 256.676 56H240a8 8 0 00-8 8v19.158A86.932 86.932 0 01219.582 128H216a31.832 31.832 0 00-10.672 1.836c-2.808-12.416-4.96-26.126-4.218-39.917zM216 144v32a16.004 16.004 0 01-11.314-4.686 16.004 16.004 0 010-22.628c3.001-3 7.071-4.686 11.314-4.686zm16 47.344v-15.425c.528.048 38.4.081 38.4.081a17.626 17.626 0 0012.439-5.161A17.626 17.626 0 00288 158.4V152h16v6.4a17.626 17.626 0 005.161 12.439A17.626 17.626 0 00321.6 176s37.872-.033 38.4-.081c0 0-.04 18.332-.119 19.776 0 .032 0 .065-.006.1a78.564 78.564 0 01-28.229 56.089A52.388 52.388 0 01298.173 264h-4.346a52.385 52.385 0 01-33.473-12.119 78.574 78.574 0 01-20.934-27.104 78.58 78.58 0 01-7.42-33.433zm-1.971 189.945l1.274 3.4-5.042-.5-46.683-23.341a8.008 8.008 0 00-4.893-.736l-5.012.835a788.855 788.855 0 01-12.854-33.781l-15.078 5.354a813.167 813.167 0 0011.76 31.122l-18.119 3.02c-10.377-27.677-19.729-56.872-28.515-89.043l62.817-25.142c9.366 16.246 18.473 33.459 27.121 51.262a893.166 893.166 0 0133.224 77.55zM162.6 238.071l-60.969 24.375L95.4 247.62l60.959-24.4 6.241 14.851zm-113.868-82.35l13.59-51.015 22.809 54.321a16.048 16.048 0 00-2.175 3.685 15.725 15.725 0 00.008 12.246 16.312 16.312 0 0021.037 8.7 15.972 15.972 0 008.886-8.717 15.718 15.718 0 00-.008-12.243 16.199 16.199 0 00-12.937-9.722L77.261 98.957l46.369 27.03 13.058 87.874-33.938 13.584-54.018-71.724zM251.47 480l9.914-3.158c.287 1.055.567 2.11.83 3.158H251.47zm12.9-20.9l-63.222 20.14a16.807 16.807 0 01-4.908.76H152a16.016 16.016 0 01-16-16v-18.584l32.809-13.123 53.231 10.024 47.539 15.126-5.209 1.657zM456 464a16.016 16.016 0 01-16 16h-44.274a15.943 15.943 0 01-4.851-.753l-164.449-52.325a7.886 7.886 0 00-.946-.238l-56-10.546a8.002 8.002 0 00-4.451.434L136 428.184v-45.407l38.749-6.458 45.673 22.836a7.99 7.99 0 002.782.805L456 423.24V464z" fill="#F5CD71"/><path d="M287.745 223.821c2.068-.1 14.442-.1 16.511 0 2.374.12 4.811.179 7.229.179 5.518.042 11.032-.31 16.5-1.052l1.222-.186-2.4-15.818-1.22.185a113.77 113.77 0 01-20.512.713c-2.337-.119-15.795-.119-18.131 0-6.845.38-13.71.141-20.512-.713l-1.221-.185-2.4 15.818 1.223.186a129.159 129.159 0 0023.711.873zM131.464 301.727a868.823 868.823 0 005.012 15.447l15.172-5.079a853.166 853.166 0 01-4.919-15.163l-15.265 4.795z" fill="#F5CD71"/></svg>