<svg xmlns="http://www.w3.org/2000/svg" xmlns:xlink="http://www.w3.org/1999/xlink" width="300" height="300"><defs><clipPath id="b"><path data-name="Rectangle 3197" transform="translate(389 2687)" fill="none" stroke="#707070" d="M0 0h300v300H0z"/></clipPath><clipPath id="c"><path data-name="Path 959" d="M146.985 0c25.814 0 50.248 10.251 71.321 21.932 15.287 8.474 27 22.382 38.35 35.039 22.087 24.622 37.314 53.363 37.314 90.014 0 13.151.5 27.494-2.737 39.629-10.255 38.4-41.032 66.446-75.487 85.213-21.788 11.867-42.367 22.143-68.762 22.143-34.5 0-65.613-16.945-90.8-36.934C22.369 230.2 0 193.662 0 146.985c0-37.666 17.861-68.857 41.2-94.91C68.071 22.072 103.474 0 146.985 0z" transform="rotate(-85 992.34 747.967)" fill="#deeeff"/></clipPath><clipPath id="d"><path data-name="Rectangle 3186" fill="none" d="M0 0h122.475v268.674H0z"/></clipPath><clipPath id="e"><path data-name="Path 6587" d="M458.071 404.735s1.4 15.6 3.985 16.428 17.251-.38 14.107-9.483c-2.133-6.175-9.7-7.168-14.344-7.168a29.019 29.019 0 00-3.748.223" transform="translate(-458.071 -404.512)" fill="none"/></clipPath><clipPath id="f"><path data-name="Path 6588" d="M462.251 236.264s1.619 14.725 4.319 15.052 20.7-3.042 21.206-12.557c.005-.1.008-.2.008-.291v-.023c-.008-3.78-3.946-4.929-8.726-4.929-7.4 0-16.807 2.748-16.807 2.748" transform="translate(-462.251 -233.516)" fill="none"/></clipPath><clipPath id="h"><path data-name="Path 6589" d="M474.155 352.058c2.108 1.717 18.432 8.619 18.82-1s-16.546-15.747-16.546-15.747-4.382 15.034-2.273 16.751" transform="translate(-473.581 -335.307)" fill="none"/></clipPath><clipPath id="j"><path data-name="Path 6590" d="M455.3 102.027s-2.59 22.472 11.449 12.121c10.364-7.641 6.973-16.571 1.429-17.366a7.36 7.36 0 00-1.045-.072c-5.377 0-11.833 5.317-11.833 5.317" transform="translate(-455.111 -96.71)" fill="none"/></clipPath><clipPath id="l"><path data-name="Path 6591" d="M55.12 150.5c-29.859 11.631-40.243 58.6-40.064 77.585.142 14.978 5.886 111.228 8.307 151.227h75.4L77.037 247.235s8.455-8.445 19.384-21.734l5.234-68.65 5.9-.712-1.948-16.144c-13.677.275-32.943 3.67-50.486 10.5" transform="translate(-15.054 -139.994)" fill="none"/></clipPath><clipPath id="n"><path data-name="Rectangle 3162" fill="none" d="M0 0h122.475v268.673H0z"/></clipPath><clipPath id="o"><path data-name="Path 6594" d="M221.323 42.532l-60.847 2.361a1.242 1.242 0 00-1.2 1.276l3.374 93.346a1.235 1.235 0 001.292 1.179l60.847-2.362a1.242 1.242 0 001.2-1.276l-3.375-93.346a1.233 1.233 0 00-1.241-1.18h-.05" transform="translate(-159.273 -42.531)" fill="none"/></clipPath><clipPath id="q"><path data-name="Rectangle 3164" fill="none" d="M0 0h24.803v25.204H0z"/></clipPath><clipPath id="r"><path data-name="Rectangle 3165" fill="none" d="M0 0h12.72v10.464H0z"/></clipPath><clipPath id="s"><path data-name="Path 6597" d="M52.43 271.348a17.316 17.316 0 00-6.681 1.336c-2.03 1.033-3.674 2.716-5.484 4.068a72.21 72.21 0 00-10.718 9.431c-8.75 9.766-12.7 38.11-12.7 38.11l23.577 14.82 26.544-1.761a15.874 15.874 0 01-13.572-11.114 29.643 29.643 0 01-1.74-13.846c1.3-8.86 8.013-20.129 8.013-20.129 4.3 1.805 10 2.027 14.263.031a7.451 7.451 0 004.166-8.627c-1.069-3.915-4.446-7.193-7.989-8.979a34.713 34.713 0 00-15.352-3.412q-1.172 0-2.321.072" transform="translate(-16.842 -271.276)" fill="none"/></clipPath><clipPath id="u"><path data-name="Path 6603" d="M0 780.8l5.09 99.979h87.626l-18.68-106.24z" transform="translate(0 -774.541)" fill="none"/></clipPath><clipPath id="w"><path data-name="Rectangle 3175" fill="none" d="M0 0h91.34v104.552H0z"/></clipPath><clipPath id="x"><path data-name="Rectangle 3170" fill="none" d="M0 0h35.815v28.629H0z"/></clipPath><clipPath id="y"><path data-name="Rectangle 3171" fill="none" d="M0 0h54.986v51.914H0z"/></clipPath><clipPath id="z"><path data-name="Rectangle 3172" fill="none" d="M0 0h76.821v68.478H0z"/></clipPath><clipPath id="A"><path data-name="Rectangle 3173" fill="none" d="M0 0h19.373v18.058H0z"/></clipPath><clipPath id="B"><path data-name="Rectangle 3174" fill="none" d="M0 0h74.021v85.669H0z"/></clipPath><clipPath id="C"><path data-name="Rectangle 3181" fill="none" d="M0 0h89.67v106.047H0z"/></clipPath><clipPath id="D"><path data-name="Rectangle 3176" fill="none" d="M0 0h64.13v47.506H0z"/></clipPath><clipPath id="E"><path data-name="Rectangle 3177" fill="none" d="M0 0h21.858v17.472H0z"/></clipPath><clipPath id="F"><path data-name="Rectangle 3178" fill="none" d="M0 0h87.377v61.544H0z"/></clipPath><clipPath id="G"><path data-name="Rectangle 3179" fill="none" d="M0 0h89.67v81.366H0z"/></clipPath><clipPath id="H"><path data-name="Rectangle 3180" fill="none" d="M0 0h27.728v18.688H0z"/></clipPath><clipPath id="I"><path data-name="Rectangle 3182" fill="none" d="M0 0h49.765v28.228H0z"/></clipPath><linearGradient id="a" x1="-4.524" y1="10.516" x2="-4.514" y2="10.516" gradientUnits="objectBoundingBox"><stop offset="0" stop-color="#fd724a"/><stop offset="1" stop-color="#fc4725"/></linearGradient><linearGradient id="g" x1="-3.797" y1="12.12" x2="-3.788" y2="12.12" xlink:href="#a"/><linearGradient id="i" x1="-4.587" y1="7.818" x2="-4.578" y2="7.818" xlink:href="#a"/><linearGradient id="k" x1="-3.813" y1="8.937" x2="-3.804" y2="8.937" xlink:href="#a"/><linearGradient id="m" x1=".299" y1="1.578" x2=".3" y2="1.578" xlink:href="#a"/><linearGradient id="p" x1="-.5" y1="2.645" x2="-.497" y2="2.645" gradientUnits="objectBoundingBox"><stop offset="0" stop-color="#57cccc"/><stop offset="1" stop-color="#4badfe"/></linearGradient><linearGradient id="t" x1=".058" y1="2.904" x2=".061" y2="2.904" xlink:href="#a"/><linearGradient id="v" y1="1" x2=".002" y2="1" gradientUnits="objectBoundingBox"><stop offset="0" stop-color="#d6700b"/><stop offset="1" stop-color="#ff931e"/></linearGradient></defs><g data-name="Mask Group 30" transform="translate(-389 -2687)" clip-path="url(#b)"><g data-name="Group 9313"><path data-name="Path 957" d="M392.54 2824.915c2.25-25.715 14.592-49.163 28.065-69.138 9.774-14.49 24.65-24.946 38.248-35.15 26.454-19.857 56.412-32.521 92.924-29.327 13.1 1.146 27.433 1.898 39.24 6.18 37.36 13.563 62.616 46.668 78.31 82.627 9.922 22.74 18.365 44.136 16.065 70.43-3.007 34.37-22.6 63.887-44.707 87.236-29.681 31.347-68.03 50.447-114.53 46.379-37.522-3.283-67.038-23.795-90.957-49.316-27.547-29.383-46.45-66.575-42.657-109.92z" fill="#deeeff"/><g data-name="Mask Group 7" transform="translate(219 1300)" clip-path="url(#c)"><g data-name="Group 9208"><g data-name="Group 9207" clip-path="url(#d)" transform="translate(255.878 1441.542)"><g data-name="Group 9133"><g data-name="Group 9132" clip-path="url(#e)" transform="translate(96.065 84.833)"><path data-name="Rectangle 3157" fill="url(#a)" d="M0 0h21.236v17.482H0z"/></g></g><g data-name="Group 9135"><g data-name="Group 9134" clip-path="url(#f)" transform="translate(96.941 48.972)"><path data-name="Rectangle 3158" fill="url(#g)" d="M0 0h25.533v18.127H0z"/></g></g><g data-name="Group 9137"><g data-name="Group 9136" clip-path="url(#h)" transform="translate(99.318 70.319)"><path data-name="Rectangle 3159" transform="translate(-1.535)" fill="url(#i)" d="M0 0h21.316v25.37H0z"/></g></g><g data-name="Group 9139"><g data-name="Group 9138" clip-path="url(#j)" transform="translate(95.444 20.282)"><path data-name="Rectangle 3160" transform="translate(-2.402)" fill="url(#k)" d="M0 0h24.403v27.789H0z"/></g></g><g data-name="Group 9141"><g data-name="Group 9140" clip-path="url(#l)" transform="translate(3.157 29.359)"><path data-name="Rectangle 3161" transform="rotate(-85.533 119.205 129.073)" fill="url(#m)" d="M0 0h245.806v111.036H0z"/></g></g><g data-name="Group 9143"><g data-name="Group 9142" clip-path="url(#n)" transform="translate(0 .001)"><path data-name="Path 6592" d="M17.867 68.493l1.126.942c4.32-5.167 12.111-10.741 12.19-10.8l-.852-1.2c-.325.232-8.024 5.741-12.464 11.051" fill="#fc4725"/><path data-name="Path 6593" d="M100.992 5.613A5.831 5.831 0 0094.946.004L34.177 2.283a5.831 5.831 0 00-5.608 6.045l4.107 109.54a5.831 5.831 0 006.045 5.608l60.769-2.278a5.831 5.831 0 005.608-6.045z" fill="#24252c"/></g></g><g data-name="Group 9145"><g data-name="Group 9144" clip-path="url(#o)" transform="translate(33.402 8.919)"><path data-name="Rectangle 3163" transform="translate(-.024)" fill="url(#p)" d="M0 0h66.765v98.19H0z"/></g></g><g data-name="Group 9153"><g data-name="Group 9152" clip-path="url(#n)" transform="translate(0 .001)"><g data-name="Group 9148"><g data-name="Group 9147" opacity=".43"><g data-name="Group 9146" clip-path="url(#q)" transform="translate(54.837 68.112)"><path data-name="Path 6595" d="M20.665 3.012a11.963 11.963 0 00-8.83-2.978h-.061A12.838 12.838 0 00.014 13.465a12.266 12.266 0 004.121 8.678 12.015 12.015 0 008.834 3.034h.06a12.863 12.863 0 0011.759-13.465 12.33 12.33 0 00-4.123-8.706m-7.772 20.282h-.051a10.134 10.134 0 01-7.454-2.552 10.458 10.458 0 01-3.49-7.383A10.928 10.928 0 0111.912 1.912h.051a10.106 10.106 0 017.451 2.524 10.393 10.393 0 013.488 7.356 10.977 10.977 0 01-10.009 11.5" fill="#fff"/></g></g></g><g data-name="Group 9151"><g data-name="Group 9150" opacity=".43"><g data-name="Group 9149" clip-path="url(#r)" transform="translate(61.037 75.892)"><path data-name="Path 6596" d="M12.353.274l-.194-.132a.823.823 0 00-1.143.219l-5.474 8.06-3.706-5.017a1.081 1.081 0 00-1.512-.227.807.807 0 00-.169 1.128l4.048 5.48a1.676 1.676 0 001.379.679h.08a1.676 1.676 0 001.271-.729l5.64-8.3a.83.83 0 00-.22-1.152" fill="#fff"/></g></g></g></g></g><g data-name="Group 9155"><g data-name="Group 9154" clip-path="url(#s)" transform="translate(3.532 56.891)"><path data-name="Rectangle 3167" transform="rotate(-79.018 33.297 40.38)" fill="url(#t)" d="M0 0h78.444v73.993H0z"/></g></g><g data-name="Group 9157"><g data-name="Group 9156" clip-path="url(#n)" transform="translate(0 .001)"><path data-name="Path 6598" d="M72.487 4.534c-2.907.105-12.048.373-15.03.46a.87.87 0 00.052 1.74L72.542 6.3a.87.87 0 00.845-.88v-.026a.869.869 0 00-.9-.859" fill="#74747c"/><path data-name="Path 6599" d="M48.625 138.881l.039 1.467a94.2 94.2 0 008.8-.632 69.08 69.08 0 007.955-1.4l-.24-1.46a80.138 80.138 0 01-16.558 2.024" fill="#e2331b"/><path data-name="Path 6600" d="M73.461 108.602l-11.284.369a2.92 2.92 0 00-2.816 3.007l.1 3.046a2.917 2.917 0 003.007 2.816l11.284-.369h.1a2.92 2.92 0 002.717-3l-.1-3.046a2.917 2.917 0 00-3.007-2.816m1.095 6.8a1.216 1.216 0 01-.859.392l-11.284.369a1.237 1.237 0 01-1.275-1.195l-.1-3.046a1.242 1.242 0 011.153-1.273h.042l11.284-.369a1.237 1.237 0 011.275 1.195l.1 3.046a1.224 1.224 0 01-.335.883" fill="#74747c"/><path data-name="Path 6601" d="M62.596 66.251l-.129-.142c-.19-.21-4.71-5.136-9.147-4.569-2 .255-3.629 1.565-4.849 3.892-1.126 2.146-1.229 4.014-.307 5.553 2.349 3.923 10.627 4.04 10.978 4.043h.227l.176-.144a9.49 9.49 0 003.08-8.446zm-3.682 7.513c-1.333-.048-7.882-.434-9.673-3.425-.681-1.137-.565-2.591.342-4.322 1.019-1.942 2.329-3.028 3.895-3.228 3.415-.434 7.183 3.26 7.926 4.028a8.235 8.235 0 01-2.49 6.947" fill="#ffaf9c"/><path data-name="Path 6602" d="M41.615 76.739a15.87 15.87 0 003.983 2.467c.39-.705.655-1.158.732-1.288a14.451 14.451 0 01-3.764-2.3z" fill="#fc4725"/></g></g><g data-name="Group 9159"><g data-name="Group 9158" clip-path="url(#u)" transform="translate(0 162.434)"><path data-name="Rectangle 3169" fill="url(#v)" d="M0 0h92.716v106.24H0z"/></g></g><g data-name="Group 9206"><g data-name="Group 9205" clip-path="url(#n)" transform="translate(0 .001)"><g data-name="Group 9177"><g data-name="Group 9176" opacity=".58"><g data-name="Group 9175" clip-path="url(#w)" transform="translate(.087 164.12)"><g data-name="Group 9162"><g data-name="Group 9161" opacity=".35"><g data-name="Group 9160" clip-path="url(#x)" transform="translate(55.525 75.923)"><path data-name="Path 6604" d="M32.07 0L-.001 28.629h27.67l8.146-7.332z" fill="#fff"/></g></g></g><g data-name="Group 9165"><g data-name="Group 9164" opacity=".35"><g data-name="Group 9163" clip-path="url(#y)" transform="translate(1.456)"><path data-name="Path 6605" d="M39.13 1.134L0 34.873l.868 17.038L54.987.541l-2.454-.54z" fill="#fff"/></g></g></g><g data-name="Group 9168"><g data-name="Group 9167" opacity=".35"><g data-name="Group 9166" clip-path="url(#z)" transform="translate(6.997 36.074)"><path data-name="Path 6606" d="M73.592-.003L0 68.475h23.068l53.753-50.108z" fill="#fff"/></g></g></g><g data-name="Group 9171"><g data-name="Group 9170" opacity=".35"><g data-name="Group 9169" clip-path="url(#A)" transform="translate(0 2.927)"><path data-name="Path 6607" d="M0 3.354l.748 14.7L19.372-.005 2.206 1.454z" fill="#fff"/></g></g></g><g data-name="Group 9174"><g data-name="Group 9173" opacity=".35"><g data-name="Group 9172" clip-path="url(#B)" transform="translate(3.291 2.184)"><path data-name="Path 6608" d="M0 68.741l.862 16.928 73.159-70.413-2.683-15.26z" fill="#fff"/></g></g></g></g></g></g><g data-name="Group 9195"><g data-name="Group 9194" opacity=".58"><g data-name="Group 9193" clip-path="url(#C)" transform="translate(.092 162.626)"><g data-name="Group 9180"><g data-name="Group 9179" opacity=".35"><g data-name="Group 9178" clip-path="url(#D)" transform="translate(18.747 3.106)"><path data-name="Path 6609" d="M16.181.001L0 1.369l64.13 46.138-3.251-18.488z" fill="#fff"/></g></g></g><g data-name="Group 9183"><g data-name="Group 9182" opacity=".35"><g data-name="Group 9181" clip-path="url(#E)" transform="translate(55.192)"><path data-name="Path 6610" d="M16.464 0L0 1.392l21.858 16.079-2.774-15.767z" fill="#fff"/></g></g></g><g data-name="Group 9186"><g data-name="Group 9185" opacity=".35"><g data-name="Group 9184" clip-path="url(#F)" transform="translate(1.864 44.502)"><path data-name="Path 6611" d="M1.01 19.847l58.194 41.7h28.173L0 0z" fill="#fff"/></g></g></g><g data-name="Group 9189"><g data-name="Group 9188" opacity=".35"><g data-name="Group 9187" clip-path="url(#G)" transform="translate(0 7.881)"><path data-name="Path 6612" d="M0 0l.841 16.526 88.829 64.84L86.476 63.2z" fill="#fff"/></g></g></g><g data-name="Group 9192"><g data-name="Group 9191" opacity=".35"><g data-name="Group 9190" clip-path="url(#H)" transform="translate(4.047 87.359)"><path data-name="Path 6613" d="M.951 18.688h26.777L0 0z" fill="#fff"/></g></g></g></g></g></g><g data-name="Group 9198"><g data-name="Group 9197" opacity=".43"><g data-name="Group 9196" clip-path="url(#I)" transform="translate(40.188 18.095)"><path data-name="Path 6614" d="M46.576.001L3.006 1.279a3.1 3.1 0 00-3 3.21l.765 20.756a3.1 3.1 0 003.2 2.981l42.8-1.452a3.1 3.1 0 002.992-3.1V3.092a3.1 3.1 0 00-3.188-3.1" fill="#fff"/></g></g></g><g data-name="Group 9201"><g data-name="Group 9200" opacity=".43"><g data-name="Group 9199" clip-path="url(#I)" transform="translate(40.508 22.803)"><path data-name="Path 6615" d="M46.576.001L3.006 1.279a3.1 3.1 0 00-3 3.21l.765 20.756a3.1 3.1 0 003.2 2.981l42.8-1.452a3.1 3.1 0 002.992-3.1V3.092a3.1 3.1 0 00-3.188-3.1" fill="#fff"/></g></g></g><g data-name="Group 9204"><g data-name="Group 9203" opacity=".43"><g data-name="Group 9202" clip-path="url(#I)" transform="translate(40.786 26.891)"><path data-name="Path 6616" d="M46.576.001L3.006 1.279a3.1 3.1 0 00-3 3.21l.765 20.756a3.1 3.1 0 003.2 2.981l42.8-1.452a3.1 3.1 0 002.992-3.1V3.092a3.1 3.1 0 00-3.188-3.1" fill="#fff"/></g></g></g></g></g></g></g></g></g></g></svg>