<svg xmlns="http://www.w3.org/2000/svg" width="305" height="227"><defs><clipPath id="a"><path transform="translate(925 125)" fill="#fff" d="M0 0h305v227H0z"/></clipPath><clipPath id="b"><path fill="none" d="M0 0h170.286v314H0z"/></clipPath><clipPath id="c"><path d="M126.229 89.438a.8.8 0 00-.427.7q.03.376.529.605a1.912 1.912 0 00.472.145c.074.013.149.022.228.028a4.906 4.906 0 01.17-1.66c.017-.064.036-.128.054-.19a2.234 2.234 0 00-1.026.375" transform="translate(-125.8 -89.063)" fill="none"/></clipPath></defs><g transform="translate(-925 -125)" clip-path="url(#a)"><g clip-path="url(#b)" transform="translate(992 134)"><path d="M3.353 180.22s6-61.6 54.212-75.013c34.891-8.327 34.227-7.245 50.385-2.152 33.043 5.3 57.342 27.337 61.007 78.948l-24.47 11.751-26.893-36.954-73.312 1.914-22.78 31.968L3.353 180.22" fill="#155185"/><path d="M40.236 164.859l-4.44 5.751c2.006-4.391 8.865-35.245 8.865-35.245z" fill="#144573"/><path d="M104.386 98.179c-2.038-3.739-5.567-5.264-13.27-6.467-6.767-3.874-14.871 6.284-17.6 6.467 1.019 6.724 2.673 11.935 6.625 15.746.244.142 10.9 2.888 15.565.056a27.949 27.949 0 008.68-15.8" fill="#ffaf92"/><path d="M77.917 253.237h-.031q-1.772-.092-3.546-.214l-27.722-3.149c-.817 18.421 5.1 49.206 6.785 64.126h34.172l-1.559-27.081c1.121.1 5.3.122 6.419.061L97.142 314h32.093s1.89-47.706 3-64.4l-36.006 3.392a152.625 152.625 0 01-18.309.244" fill="#292a41"/><path d="M75.298 285.269s15.69 4.687 26.9 0a90.66 90.66 0 01-26.9 0" fill="#1e1f31"/><path d="M86.016 286.919L88.162 314h-2.727l-1.794-27.081z" fill="#1e1f31"/><path d="M79.601 116.76a3.679 3.679 0 01.11.811c-1.425 19.7-4.505 85.776-3.219 138.512 6.276.068 22.609-.13 22.943-.154 0 0-3.647-142.233-3.729-143.171-4.173 1.935-11 3.218-16.277.134.645 1.273-.075 2.246.173 3.867" fill="#ff9"/><path d="M99.434 252.992c-.333.024-.666.036-1 .058.363-.018.7-.037 1-.058" fill="#191927"/><path d="M79.505 253.141l.513.031v-.026l-.512-.005"/><path d="M77.553 253.117c-3.582-.046-6.116-.095-6.116-.095s6.287-139.035 6.6-141.058a43.757 43.757 0 00-5.163 1.406l-2.271 146.8-24.29 1.582 1.039 5.508c5.737 2.122 18.226 4.563 31.563 5.868-.09-2.976-.177-6.019-.262-9.111-.8-.065.036-.125-.768-.209l-.333-10.695" fill="#1e1f31"/><path d="M71.437 253.022s6.763.122 6.935.123c-1.287-52.736-.086-115.876 1.338-135.574.019-.275.942-2.726.556-4.2-.475-.277-1.781-1.054-2.228-1.406-2.854-.164-6.6 141.058-6.6 141.058" fill="#d7d766"/><path d="M94.143 252.806q-9.843.579-19.655.186h-.035c-.408-.018-.815-.045-1.223-.065q.153 5.509.319 10.848c.429.031.857.072 1.286.1h.347a132.084 132.084 0 0019.954-.4l.139-10.729c-.334.022-.72.041-1.133.058" fill="#191927"/><path d="M72.89 97.237a19.833 19.833 0 00-3.116 3.877 11.729 11.729 0 00.047 1.23c1.514-.339 2.93-.65 4.264-.932a63.413 63.413 0 01-.57-3.236 1.949 1.949 0 00.583-.149q-.608-.383-1.208-.789" fill="#ccc"/><path d="M74.087 101.416c-1.334.283-2.751.593-4.264.932a15.818 15.818 0 00.945 4.248 22.615 22.615 0 012.075-.111 2.324 2.324 0 01.69.047c.875 5.952 1.137 3.783 4.441 5.451h.008a.11.11 0 01.053-.016c.073.057.168.125.279.2q.113.063.231.132v.021c.083.055.171.111.261.169-2.439-2.958-3.813-6.635-4.723-11.071" fill="#11416a"/><path d="M74.093 98.031a1.967 1.967 0 01-.583.149c.17 1.12.357 2.2.57 3.236.91 4.435 2.284 8.112 4.723 11.071.376.237.8.491 1.116.682.1.054.208.106.312.158-1.7-2.467-3.723-8.863-2.933-13.45a47.72 47.72 0 01-3.205-1.846" fill="#cc8c75"/><path d="M79.924 113.168l.343.2-.031-.045c-.1-.051-.209-.1-.312-.158" fill="#cccc7a"/><path d="M77.981 111.98h-.009.006" fill="#181927"/><path d="M78.547 112.318q-.04.4-.08.84a13.691 13.691 0 001.8.213l-.343-.2c-.32-.19-.74-.445-1.116-.682l-.261-.169m-.512-.354a.106.106 0 00-.053.016h-.006c.111.056.225.116.343.181a5.729 5.729 0 01-.278-.2" fill="#acac52"/><path d="M92.761 267.242v5.889s20.044.154 35.313-5.013c.341 10.6-.841 45.883-.841 45.883h2l2.3-54.406z" fill="#1e1f31"/><path d="M75.602 115.174s11.62 7.849 20.072 1.681c0 0-3.086 8.315-20.656 1.681z" fill="#d7d766"/><path d="M73.531 106.532c-.033-.227-22.243-.408-26.468 19.38-10.7 50.105-13.976 101.676-15.294 130.793a4.039 4.039 0 001.8 3.6 37.031 37.031 0 007.857 3.632q1.04.367 2.171.733 1.192.367 2.506.734 1.437.4 2.935.795a142.338 142.338 0 0023.413 3.576l2.567-.1c-2.706-57.75 1.542-136.974 3.533-157.378-3.853-2.246-4.093.516-5.017-5.764M103.655 101.489c-1.019 6.724-4.526 8.861-8.165 13.056-3.12 21.236-10.495 65.058-5.421 155.47 19.225.1 38.741-5.9 46.152-9.537a7.345 7.345 0 004.1-6.915c-2.073-48-3.952-70.809-10.321-114.6-.932-6.411 3.066-17.3-26.342-37.476" fill="#155185"/><path d="M111.86 118.639c-6.662-6.31-16.018-1.206-16.378-1.553-1.058-1.02 2.8-10.435 8.636-10.263 5.984.176 8.653 9.927 7.742 11.816M62.263 119.107c6.154-6.586 15.582-1.912 15.915-2.275.976-1.064-3.329-10.28-9.017-9.85-5.836.441-7.895 10.281-6.9 12.125" fill="#144573"/><path d="M74.532 93.771l-3.782 3.125a22.419 22.419 0 00-8.517 21.478c.8-3.288 5.717-7.44 7.576-8.338 3.042.961 5.932 3.681 8.495 6.444a9.219 9.219 0 00.009-5.751c-1.307-3.6-3.864-7.684-1.726-12.528l1.855-2.778s-2.954-2.456-3.911-1.653M106.933 96.681c-1.651-2.445-4.161-2.211-5.2-2.291-.321 5.617.757 10.462-4.25 16.461a8.328 8.328 0 00-2.331 6.134c3.575-3.788 6.159-4.461 9.15-4.984a26.429 26.429 0 017.751 6.627c2.516-12.12-5.125-21.947-5.125-21.947" fill="#2874b6"/><path d="M58.228 51.041a9.831 9.831 0 00-.463 5.207 11 11 0 002.778 6.028 6.215 6.215 0 004.948 2.342 4.688 4.688 0 003.527-1.814 6.106 6.106 0 00.63-.974 6.794 6.794 0 00.337-.655 8.688 8.688 0 00.525-1.528 9.522 9.522 0 00.257-2.66 11.6 11.6 0 00-.138-1.362 11.03 11.03 0 00-2.807-6.054 6.158 6.158 0 00-4.918-2.316 4.782 4.782 0 00-2.424.794 5.632 5.632 0 00-1.763 1.967 5.941 5.941 0 00-.412.854.692.692 0 00-.077.17" fill="#ffaf92"/><path d="M69.768 57.192c-3.4-6.108-5.086-8.748-9.3-7.239 3.724.784 4.6 3.827 5.836 9 .229-.506 3.064 1.516 3.2.975a9.774 9.774 0 00.264-2.74" fill="#f0a589"/><path d="M125.284 53.23a6.308 6.308 0 00-.394-.915 5.925 5.925 0 00-1.761-2.146 5.022 5.022 0 00-2.508-.944 6.47 6.47 0 00-5.27 2.206 11.6 11.6 0 00-3.225 6.228 11.946 11.946 0 00-.206 1.424 9.946 9.946 0 00.148 2.8 9.057 9.057 0 00.481 1.628 7.669 7.669 0 00.323.7 6.422 6.422 0 00.619 1.051 4.926 4.926 0 003.619 2.066 6.527 6.527 0 005.3-2.233 11.553 11.553 0 003.193-6.2 10.335 10.335 0 00-.248-5.489.709.709 0 00-.072-.182" fill="#ffaf92"/><path d="M113.099 62.035c.11.558 1.958-1.958 2.168-1.431 1.173-5.43 3.653-7.709 7.485-8.343-4.4-1.117-7.929.657-9.8 6.969a9.968 9.968 0 00.147 2.8" fill="#f0a589"/><path d="M76.892 22.802c-6.68 3.366-9.155 14.172-10.7 26.709-.058 1.308-.244 8.133-1.585 20.324a48.6 48.6 0 00.314 14.854q23.485 29.1 46.811 3.906a23.365 23.365 0 002.648-11.121 94.636 94.636 0 011.365-18.029q.21-1.183.4-2.509a3 3 0 01.061-.395 4.687 4.687 0 01.07-.509c1.993-24.983-5.665-27.653-5.686-27.616-3.557-6.372-27.015-9.414-33.7-5.615" fill="#ffaf92"/><path d="M66.041 52.61c1.561-12.536 4.852-24.7 11.722-28.052 5.206-4.1 24.98-2.586 33.04 4.115.022-.036-.507-.076-.447-.109 4.623 4.862 5.986 14.1 5.23 27.735.673-4.877 4.538-11.234 4.76-19.14.126-4.256.086-8.015-1.26-11.29-1.382-3.982-5.643-7.3-9.368-9.913-3.491-2.444-7.6-3.465-12.321-4.2-4.663-.713-9.269.082-13.8 1.246-4.768 1.222-5.625 2.048-8.981 5.063-8.875 7.173-8.355 29.84-8.575 34.545" fill="#630"/><path d="M116.745 67.367c-.019-2.8-.533-9.272-.108-15.494-.559.278-.884.074-.713-.146-.38 10.368-3.078 15.515-7.189 17.659-12.326-7.733-25.155-6.421-38.456-.655-2.882-3.134-4.075-6.566-4.233-16.293a92.172 92.172 0 01-2.883 16.454c-9.742 23.583 18.654 33.869 26.02 35.531 29.1-6.818 29.828-25.312 27.561-37.058" fill="#630"/><path d="M92.051 60.41a8.9 8.9 0 00-.239-.22 4.165 4.165 0 01.044 5.632 6.1 6.1 0 01-4.6 2.416l.227.019a5.788 5.788 0 004.062-1.089 4.174 4.174 0 001.927-3.239 4.234 4.234 0 00-1.421-3.518" fill="#d98465"/><path d="M91.808 60.19a6.146 6.146 0 00-3.62-1.474 6.208 6.208 0 00-4.119 1.085 4.392 4.392 0 00-1.9 3.27 4.288 4.288 0 001.394 3.488 5.949 5.949 0 003.041 1.568 3.632 3.632 0 00.647.111 6.1 6.1 0 004.6-2.417 4.164 4.164 0 00-.044-5.632" fill="#ffaf92"/><path d="M84.537 53.721c-2.613-6.488-11.058-5.555-12.85-1.439a2.7 2.7 0 00.015 2.045c1.706 4.954 13.509 3.954 12.836-.605" fill="#fff"/><path d="M80.997 54.005a4.558 4.558 0 00-.114-2.925 2.532 2.532 0 00-1.711-1.62 2.561 2.561 0 00-2.3.572 4.6 4.6 0 00-1.561 2.486 4.41 4.41 0 00.124 2.89 2.509 2.509 0 001.7 1.655 2.542 2.542 0 002.306-.606 4.447 4.447 0 001.552-2.452" fill="#502800"/></g><g clip-path="url(#c)" transform="translate(1065.914 186.329)"><path fill="#fff" d="M-.017 0h1.472v1.85H-.017z"/></g><g clip-path="url(#b)" transform="translate(992 134)"><path d="M75.753 52.305h-.036c-.085 0-.172.005-.261.014l-.088.01a4.74 4.74 0 00-.054.19 4.92 4.92 0 00-.171 1.66c.059 0 .118.006.179.006h.016q.127 0 .261-.014a2.282 2.282 0 001.113-.384.8.8 0 00.427-.7q-.029-.378-.528-.605a2.072 2.072 0 00-.86-.179" fill="#dcd4cc"/><path d="M84.569 53.722l.014-.03c.049-5.094-12.918-10.36-13.016-.3 2.992-6.029 10.831-2.754 13 .332" fill="#2b0e00"/><path d="M95.904 53.832c2.739-6.437 11.164-5.338 12.876-1.189a2.835 2.835 0 01-.023 1.982c-1.173 4.311-12.388 3.336-12.853-.793" fill="#fff"/><path d="M92.627 86.276q.011-1.2-1.188-.809a8.636 8.636 0 01-2.938.4 9.92 9.92 0 01-3.069-.458q-1.279-.411-1.289.785a3.154 3.154 0 001.2 2.318 4.332 4.332 0 003.008 1.169 4.223 4.223 0 003-1.109 3.137 3.137 0 001.277-2.294" fill="#502800"/><path d="M117.378 6.709a29.5 29.5 0 00-4.022-2.974c-8.178-5.014-16.378-4.12-22.108-2.264a27.4 27.4 0 00-7.716 3.751c-15.915.651-14.424 18.857-4.611 20.621a85.955 85.955 0 0014.467 3.895c1.026.156 2.071.273 3.134.359a48.714 48.714 0 0012.907-.759c9.579-1.757 10.44-6.313 12.85-.962q4.935-12.588-4.906-21.666" fill="#630"/><path d="M113.352 3.735c-8.173-5.015-16.375-4.12-22.1-2.264q-10.843 5.851 2.136 28.267c1.027.156 2.071.273 3.134.359q-10.9-35.776 16.83-26.361" fill="#783c00"/><path d="M85.987 41.726a48.8 48.8 0 00-13.82 2.867c.452-2 .345-2.4 1.543-3.86a23.483 23.483 0 0112.321-4.62zM97.431 36.458s8.187 3.234 11.4 6.569a3.35 3.35 0 01.713 1.118c.62 1.61.331 1.682.427 3.058-4.2-2.483-8.769-3.548-13.6-4.487z" fill="#630"/><path d="M105.587 54.147a4.365 4.365 0 00-.117-2.9 2.57 2.57 0 00-1.761-1.608 2.71 2.71 0 00-2.365.568 4.544 4.544 0 00-1.609 2.468 4.225 4.225 0 00.127 2.869 2.545 2.545 0 001.751 1.642 2.691 2.691 0 002.375-.6 4.394 4.394 0 001.6-2.434" fill="#502800"/><path d="M99.706 52.778a2.1 2.1 0 00-.749.324.8.8 0 00-.424.693q.029.375.525.6a1.921 1.921 0 00.468.144l.058.009a4.536 4.536 0 01.122-1.771" fill="#fff"/><path d="M100.356 52.707h-.036c-.084 0-.171.005-.26.014a2.656 2.656 0 00-.355.057 4.522 4.522 0 00-.122 1.771 2.356 2.356 0 00.341.024h.021c.084 0 .17-.005.259-.014a2.269 2.269 0 001.105-.382.793.793 0 00.424-.693q-.028-.375-.525-.6a2.058 2.058 0 00-.853-.177" fill="#dcd4cc"/><path d="M95.917 53.832l-.012-.03c.049-5.095 13.117-10.106 13.019-.049-2.874-6.086-10.776-2.964-13.007.079" fill="#2b0e00"/><path d="M88.461 79.954c-2.988.031-6.8-.95-8.827-2.676h-.011v-.009a6.083 6.083 0 01-1.955-4.525c-.878-.081-1.7-.173-2.469-.276.361 5.66 3.555 10.011 13.316 9.863 12.345-.187 11.584-4.708 13.081-10.234-.757.129-2.687.355-3.572.464-.5 1.636-6.424 7.361-9.564 7.394" fill="#ffaf92"/><path d="M79.623 77.27l-.328-1.874-.238-1.36-.183-1.043-1.206-.248s0 2.993 1.955 4.525M96.51 75.584l-.008 1.962a12.029 12.029 0 002.082-5.057c-.77.095-1.038.145-1.891.222l-.1 1.088z" fill="#741919"/><path d="M79.623 77.279h.011l-.011-.009z" fill="#fff"/><path d="M79.295 75.396c1.609-1.215 5.613-2.118 8.913-2.152 3.676-.038 6.847.922 8.333 2.338l.185-2.874c-2.582.232-5.513.379-8.624.411-2.9.029-6.742.026-9.2-.129z" fill="#dbdbdb"/><path d="M88.176 73.247c-3.3.033-7.273.934-8.881 2.149l.327 1.874.011.009c2.025 1.726 5.839 2.706 8.827 2.676 3.14-.032 6.028-.482 8.041-2.408l.035-1.965c-1.485-1.415-4.689-2.373-8.364-2.336" fill="#fff9f1"/><path d="M.139 185.13a19.256 19.256 0 0023.334 16.715 23.684 23.684 0 0017.861-25.319c-1.348-11.435-11.529-19.2-22.742-16.651S-1.209 173.694.139 185.13" fill="#2874b6"/><path d="M36.513 193.334l-.035.045-.546 5.14.034-.012q.263-2.564.546-5.173" fill="#ccc"/><path d="M131.042 132.545a3.091 3.091 0 00-1.138.243q-.149.059-.314.132c.257 2.38.163 4.367.407 6.046q.5 3.424.96 6.686.121-.137.232-.273c1.532-1.884 1.887-6.252-.127-6.252a1.721 1.721 0 00-.474.071c.673-.529 1.237-1 1.682-1.389 1.508-1.323 1.219-5.263-1.229-5.263" fill="#11416a"/><path d="M89.863 126.564a4.664 4.664 0 00-.6.039c-.438.056-.724 1.661-.618 2.09.612 2.484-.724 9.638-3.374 13.682-3.749 5.722-2.588 11.816-5.044 12.894-.392.172-1.051.486-1.929.895-.135 6.6-.247 13.7-.328 21.111 5.377-3.206 7.54-4.836 7.54-4.836a24.94 24.94 0 003.326.184h.5c1.011-18.777 2.629-33.041 4.1-43.869a4.129 4.129 0 00-3.573-2.185" fill="#cccc7a"/><path d="M78.302 156.164c-.708.33-1.559.72-2.526 1.146-.3 6.847-.582 14.143-.823 21.732q1.654-.952 3.019-1.767c.082-7.415.194-14.509.329-21.111" fill="#acac52"/><path d="M75.776 157.31c-5.345 2.358-14.25 5.82-22.379 6.154l-12.205 19.164a23.971 23.971 0 01-4.679 10.706q-.284 2.606-.546 5.172c8.179-2.9 17.907-8.185 26.3-12.549 5.2-2.706 9.385-5.013 12.691-6.915.241-7.589.521-14.885.823-21.732M113.106 150.619s2.967-1.86 6.186-3.891c-2.866 2.011-5.346 3.682-6.186 3.891m-19.671-21.871c-1.469 10.829-3.087 25.092-4.1 43.869a42.3 42.3 0 0021.276-6.207c1.423-.87 5.984-3.451 7.9-4.586a46.814 46.814 0 008.945-7.25c2.143-2.534 3.34-6.316 1.549-7.053a20.558 20.558 0 001.949-1.872q-.463-3.262-.96-6.686c-.244-1.679-.15-3.666-.407-6.046-3.708 1.632-12.9 8.037-13.732 8.6-.861.58-4.572 2.345-6.448 3.362a.792.792 0 01-.259.108c-.152 0 .553-.593 1.232-.905a92.3 92.3 0 008.24-4.812c2.9-1.9 4.716-2.969 7.04-4.469 2.9-1.871 2.347-5.989-.252-5.989a3.4 3.4 0 00-1.448.365c-2.634 1.248-9.22 5.174-12.167 6.67s-11.276 5.688-15.313 6.4a1.7 1.7 0 01-.29.026c-1.562 0-1.8-2.487-1.452-4.162a13.983 13.983 0 00-1.3-9.366" fill="#11416a"/><path d="M41.192 182.628l-4.286 6.73-.427 4.02.035-.045a23.971 23.971 0 004.678-10.705" fill="#205d92"/><path d="M128.827 139.568l2.857-2.349c1.717-1.505 1.106-5.813-2.367-4.432l-7.819 3.663c7.861-3.538 5.649-9.058 1.878-7.272-2.635 1.247-11.368 4.7-14.517 6.082-3.295 1.451-7.947 3.912-12.811 6.181-3.293 1.536-3.662-.5-2.482-5.088.794-1.925.41-10.462-4.886-9.75a.742.742 0 00-.619.915c.612 2.484-.724 9.638-3.373 13.682-3.749 5.723-2.588 11.816-5.044 12.895s-15.411 7.726-26.833 8.195-30.867-5.846-43.5 11.31c-10.8 14.666-.811 25.047 6.7 25.491 10.765.637 29.275-6.957 45.662-15.482 17.16-8.927 22.978-14.349 22.978-14.349s11.934 3.241 24.785-4.609c1.424-.87 5.985-3.451 7.9-4.586s7.19-4.313 9.533-6.663c2.729-2.739 1.79-5.868-.16-5.481 0 0 1.779-1.6 2.714-2.542 3.156-3.177 2.6-7.555-.6-5.809" fill="#ffaf92"/><path d="M126.872 153.4a6.575 6.575 0 001.434-2.227 110.349 110.349 0 01-17.3 11.5 45.775 45.775 0 01-26.783 5.246c-19.414 14.368-43.868 21.477-61.358 23.859-10.094 1.374-16.823-5.469-17.887-9.276-2.236 9.808 5.157 16.24 11.035 16.588 10.765.637 29.276-6.957 45.663-15.482 17.16-8.927 22.978-14.349 22.978-14.349s11.933 3.241 24.785-4.609c1.423-.87 5.984-3.451 7.9-4.586s7.391-4.13 9.534-6.663M116.157 147.69s-3.254 2.1-4.128 2.773-2.142.413.414-1.3c2.88-1.931 2.561-1.712 16.614-9.854l-.184.29z" fill="#f0a589"/><path d="M117.246 153.978s-2.445 1.57-3.078 2.087-1.81.224.1-1.066c2.148-1.452 1.911-1.287 12.66-7.3l-.1.232zM112.411 141.899s-3.311 2.006-4.2 2.658-2.152.355.449-1.288c2.555-1.613 16.473-9.173 16.473-9.173l-2.7 1.922z" fill="#f0a589"/><path d="M168.037 183.447c-10.636-2.913-27.9-2.552-28.079 2.534a89.586 89.586 0 00-.144 7.638c.469 21.494 7.731 34.388 3.623 58.362l15.88 6.922c.048-10.368 8.649-27.57 9.487-54.951a152.45 152.45 0 00-.766-20.506" fill="#ffaf92"/><path d="M132.938 170.531l2.677-.092c-1.839-3.907-3.335-10.544-4.723-18.035z" fill="#144573"/><path d="M159.316 258.904l-15.88-6.921a28.165 28.165 0 00-14.592 15.134 14.317 14.317 0 01-5.291 7.33.768.768 0 00-.055 1.212c3.894 3.371 7.694-1.279 7.694-1.279-.26 10.236-.86 14.316-1.5 21.735-.354 4.119 3.788 2.764 5.309.127a26.952 26.952 0 001.946-4.8c1.363 1.818 4.975 2.189 6.3.877a19.855 19.855 0 002.212-2.616 6.292 6.292 0 005.494-3.031s1.008.8 3.447-1.991a19.185 19.185 0 001.484-1.977 22.324 22.324 0 002.785-8.254 68.245 68.245 0 00.644-15.542" fill="#ffaf92"/><path d="M144.043 182.66c-2.457.716-4.031 1.807-4.084 3.321a89.585 89.585 0 00-.145 7.638c0 .12.008.238.011.358 7.5-1.279 25.305-3.136 29.038 6.728a153.044 153.044 0 00-.824-17.246c-7.855-1.546-17.508-1.881-24-.8" fill="#f0a589"/><path d="M168.511 166.841c-.94 9.881 10.764 19.862-15.789 23.277-23.993 3.085-19.031-5.771-20.077-15.147-1.163-10.428-1.706-3.994 16.907-6.2 14.136-1.676 19.859-11.387 18.96-1.93" fill="#2874b6"/><path d="M131.194 274.378s-3.8 4.65-7.694 1.279a.768.768 0 01.055-1.211 14.311 14.311 0 005.291-7.33 16.6 16.6 0 014.129-6.616c-2.157 3.771-1.78 13.878-1.78 13.878M143.251 292.315a19.852 19.852 0 002.212-2.616 6.292 6.292 0 005.494-3.031s1.008.8 3.447-1.991a19.162 19.162 0 001.484-1.977 22.339 22.339 0 002.785-8.254c-4.283 11.837-16.516 15.319-20.081 12.242l-1.641 4.751c1.364 1.818 4.976 2.188 6.3.877" fill="#f0a589"/></g></g></svg>