<svg xmlns="http://www.w3.org/2000/svg" width="300" height="300"><defs><clipPath id="a"><path data-name="Rectangle 3199" transform="translate(172 3590)" fill="none" stroke="#707070" d="M0 0h300v300H0z"/></clipPath><clipPath id="b"><path data-name="Path 960" d="M146.985 0c25.814 0 50.248 10.251 71.321 21.932 15.287 8.474 27 22.382 38.35 35.039 22.087 24.622 37.314 53.363 37.314 90.014 0 13.151.5 27.494-2.737 39.629-10.255 38.4-41.032 66.446-75.487 85.213-21.788 11.867-42.367 22.143-68.762 22.143-34.5 0-65.613-16.945-90.8-36.934C22.369 230.2 0 193.662 0 146.985c0-37.666 17.861-68.857 41.2-94.91C68.071 22.072 103.474 0 146.985 0z" transform="rotate(-14.98 5511.776 183.264)" fill="#deeeff"/></clipPath><clipPath id="c"><path data-name="Rectangle 1045" fill="none" d="M0 0h254.998v261.87H0z"/></clipPath><clipPath id="d"><path data-name="Rectangle 851" fill="none" d="M0 0h73.801v31.883H0z"/></clipPath><clipPath id="e"><path data-name="Rectangle 852" fill="none" d="M0 0h56.445v19.831H0z"/></clipPath><clipPath id="f"><path data-name="Rectangle 853" fill="none" d="M0 0h19.695v22.49H0z"/></clipPath><clipPath id="g"><path data-name="Rectangle 854" fill="none" d="M0 0h51.515v24.106H0z"/></clipPath><clipPath id="h"><path data-name="Rectangle 855" fill="none" d="M0 0h32.216v43.1H0z"/></clipPath><clipPath id="i"><path data-name="Rectangle 856" fill="none" d="M0 0h32.216v29.682H0z"/></clipPath><clipPath id="j"><path data-name="Rectangle 857" fill="none" d="M0 0h1.76v6.378H0z"/></clipPath><clipPath id="k"><path data-name="Rectangle 858" fill="none" d="M0 0h51.514v24.106H0z"/></clipPath><clipPath id="l"><path data-name="Rectangle 860" fill="none" d="M0 0h32.216v29.683H0z"/></clipPath><clipPath id="m"><path data-name="Rectangle 862" fill="none" d="M0 0h2.912v3.074H0z"/></clipPath><clipPath id="n"><path data-name="Rectangle 863" fill="none" d="M0 0h7.145v14.105H0z"/></clipPath><clipPath id="o"><path data-name="Rectangle 864" fill="none" d="M0 0h4.108v12.627H0z"/></clipPath><clipPath id="p"><path data-name="Rectangle 865" fill="none" d="M0 0h2.044v9.928H0z"/></clipPath><clipPath id="q"><path data-name="Rectangle 866" fill="none" d="M0 0h7.283v14.069H0z"/></clipPath><clipPath id="r"><path data-name="Rectangle 867" fill="none" d="M0 0h3.906v12.771H0z"/></clipPath><clipPath id="s"><path data-name="Rectangle 868" fill="none" d="M0 0h1.852v9.818H0z"/></clipPath><clipPath id="t"><path data-name="Rectangle 869" fill="none" d="M0 0h17.295v16.585H0z"/></clipPath><clipPath id="u"><path data-name="Rectangle 870" fill="none" d="M0 0h79.804v47.818H0z"/></clipPath><clipPath id="v"><path data-name="Rectangle 871" fill="none" d="M0 0h89.097v58.906H0z"/></clipPath><clipPath id="w"><path data-name="Rectangle 953" fill="none" d="M0 0h20.393v22.212H0z"/></clipPath><clipPath id="x"><path data-name="Rectangle 873" fill="none" d="M0 0h20.266v22.074H0z"/></clipPath><clipPath id="y"><path data-name="Rectangle 874" fill="none" d="M0 0h20.139v21.935H0z"/></clipPath><clipPath id="z"><path data-name="Rectangle 875" fill="none" d="M0 0h20.011v21.796H0z"/></clipPath><clipPath id="A"><path data-name="Rectangle 876" fill="none" d="M0 0h19.883v21.657H0z"/></clipPath><clipPath id="B"><path data-name="Rectangle 877" fill="none" d="M0 0h19.756v21.518H0z"/></clipPath><clipPath id="C"><path data-name="Rectangle 878" fill="none" d="M0 0h19.629v21.379H0z"/></clipPath><clipPath id="D"><path data-name="Rectangle 879" fill="none" d="M0 0h19.501v21.24H0z"/></clipPath><clipPath id="E"><path data-name="Rectangle 880" fill="none" d="M0 0h19.374v21.102H0z"/></clipPath><clipPath id="F"><path data-name="Rectangle 881" fill="none" d="M0 0h19.247v20.963H0z"/></clipPath><clipPath id="G"><path data-name="Rectangle 882" fill="none" d="M0 0h19.119v20.824H0z"/></clipPath><clipPath id="H"><path data-name="Rectangle 883" fill="none" d="M0 0h18.991v20.685H0z"/></clipPath><clipPath id="I"><path data-name="Rectangle 884" fill="none" d="M0 0h18.864v20.546H0z"/></clipPath><clipPath id="J"><path data-name="Rectangle 885" fill="none" d="M0 0h18.737v20.407H0z"/></clipPath><clipPath id="K"><path data-name="Rectangle 886" fill="none" d="M0 0h18.609v20.269H0z"/></clipPath><clipPath id="L"><path data-name="Rectangle 887" fill="none" d="M0 0h18.482v20.13H0z"/></clipPath><clipPath id="M"><path data-name="Rectangle 888" fill="none" d="M0 0h18.354v19.991H0z"/></clipPath><clipPath id="N"><path data-name="Rectangle 889" fill="none" d="M0 0h18.227v19.852H0z"/></clipPath><clipPath id="O"><path data-name="Rectangle 890" fill="none" d="M0 0h18.1v19.713H0z"/></clipPath><clipPath id="P"><path data-name="Rectangle 891" fill="none" d="M0 0h17.972v19.574H0z"/></clipPath><clipPath id="Q"><path data-name="Rectangle 892" fill="none" d="M0 0h17.844v19.436H0z"/></clipPath><clipPath id="R"><path data-name="Rectangle 893" fill="none" d="M0 0h17.717v19.297H0z"/></clipPath><clipPath id="S"><path data-name="Rectangle 894" fill="none" d="M0 0h17.59v19.158H0z"/></clipPath><clipPath id="T"><path data-name="Rectangle 895" fill="none" d="M0 0h17.462v19.019H0z"/></clipPath><clipPath id="U"><path data-name="Rectangle 896" fill="none" d="M0 0h17.334v18.88H0z"/></clipPath><clipPath id="V"><path data-name="Rectangle 897" fill="none" d="M0 0h17.207v18.742H0z"/></clipPath><clipPath id="W"><path data-name="Rectangle 898" fill="none" d="M0 0h17.08v18.603H0z"/></clipPath><clipPath id="X"><path data-name="Rectangle 899" fill="none" d="M0 0h16.952v18.464H0z"/></clipPath><clipPath id="Y"><path data-name="Rectangle 900" fill="none" d="M0 0h16.824v18.325H0z"/></clipPath><clipPath id="Z"><path data-name="Rectangle 901" fill="none" d="M0 0h16.697v18.186H0z"/></clipPath><clipPath id="aa"><path data-name="Rectangle 902" fill="none" d="M0 0h16.57v18.047H0z"/></clipPath><clipPath id="ab"><path data-name="Rectangle 903" fill="none" d="M0 0h16.442v17.908H0z"/></clipPath><clipPath id="ac"><path data-name="Rectangle 904" fill="none" d="M0 0h16.315v17.77H0z"/></clipPath><clipPath id="ad"><path data-name="Rectangle 905" fill="none" d="M0 0h16.187v17.631H0z"/></clipPath><clipPath id="ae"><path data-name="Rectangle 906" fill="none" d="M0 0h16.06v17.492H0z"/></clipPath><clipPath id="af"><path data-name="Rectangle 907" fill="none" d="M0 0h15.932v17.353H0z"/></clipPath><clipPath id="ag"><path data-name="Rectangle 908" fill="none" d="M0 0h15.805v17.214H0z"/></clipPath><clipPath id="ah"><path data-name="Rectangle 909" fill="none" d="M0 0h15.678v17.076H0z"/></clipPath><clipPath id="ai"><path data-name="Rectangle 910" fill="none" d="M0 0h15.55v16.937H0z"/></clipPath><clipPath id="aj"><path data-name="Rectangle 911" fill="none" d="M0 0h15.422v16.798H0z"/></clipPath><clipPath id="ak"><path data-name="Rectangle 912" fill="none" d="M0 0h15.295v16.659H0z"/></clipPath><clipPath id="al"><path data-name="Rectangle 913" fill="none" d="M0 0h15.168v16.52H0z"/></clipPath><clipPath id="am"><path data-name="Rectangle 914" fill="none" d="M0 0h15.04v16.382H0z"/></clipPath><clipPath id="an"><path data-name="Rectangle 915" fill="none" d="M0 0h14.913v16.242H0z"/></clipPath><clipPath id="ao"><path data-name="Rectangle 916" fill="none" d="M0 0h14.785v16.104H0z"/></clipPath><clipPath id="ap"><path data-name="Rectangle 917" fill="none" d="M0 0h14.658v15.965H0z"/></clipPath><clipPath id="aq"><path data-name="Rectangle 918" fill="none" d="M0 0h14.531v15.826H0z"/></clipPath><clipPath id="ar"><path data-name="Rectangle 919" fill="none" d="M0 0h14.403v15.687H0z"/></clipPath><clipPath id="as"><path data-name="Rectangle 920" fill="none" d="M0 0h14.275v15.548H0z"/></clipPath><clipPath id="at"><path data-name="Rectangle 921" fill="none" d="M0 0h14.148v15.41H0z"/></clipPath><clipPath id="au"><path data-name="Rectangle 922" fill="none" d="M0 0h14.021v15.271H0z"/></clipPath><clipPath id="av"><path data-name="Rectangle 923" fill="none" d="M0 0h13.893v15.132H0z"/></clipPath><clipPath id="aw"><path data-name="Rectangle 924" fill="none" d="M0 0h13.765v14.993H0z"/></clipPath><clipPath id="ax"><path data-name="Rectangle 925" fill="none" d="M0 0h13.638v14.854H0z"/></clipPath><clipPath id="ay"><path data-name="Rectangle 926" fill="none" d="M0 0h13.511v14.716H0z"/></clipPath><clipPath id="az"><path data-name="Rectangle 927" fill="none" d="M0 0h13.383v14.577H0z"/></clipPath><clipPath id="aA"><path data-name="Rectangle 928" fill="none" d="M0 0h13.255v14.438H0z"/></clipPath><clipPath id="aB"><path data-name="Rectangle 929" fill="none" d="M0 0h13.128v14.299H0z"/></clipPath><clipPath id="aC"><path data-name="Rectangle 930" fill="none" d="M0 0h13.001v14.16H0z"/></clipPath><clipPath id="aD"><path data-name="Rectangle 931" fill="none" d="M0 0h12.873v14.021H0z"/></clipPath><clipPath id="aE"><path data-name="Rectangle 932" fill="none" d="M0 0h12.746v13.882H0z"/></clipPath><clipPath id="aF"><path data-name="Rectangle 933" fill="none" d="M0 0h12.618v13.744H0z"/></clipPath><clipPath id="aG"><path data-name="Rectangle 934" fill="none" d="M0 0h12.491v13.605H0z"/></clipPath><clipPath id="aH"><path data-name="Rectangle 935" fill="none" d="M0 0h12.364v13.466H0z"/></clipPath><clipPath id="aI"><path data-name="Rectangle 936" fill="none" d="M0 0h12.236v13.327H0z"/></clipPath><clipPath id="aJ"><path data-name="Rectangle 937" fill="none" d="M0 0h12.108v13.188H0z"/></clipPath><clipPath id="aK"><path data-name="Rectangle 938" fill="none" d="M0 0h11.982v13.05H0z"/></clipPath><clipPath id="aL"><path data-name="Rectangle 939" fill="none" d="M0 0h11.854v12.911H0z"/></clipPath><clipPath id="aM"><path data-name="Rectangle 940" fill="none" d="M0 0h11.726v12.772H0z"/></clipPath><clipPath id="aN"><path data-name="Rectangle 941" fill="none" d="M0 0h11.599v12.633H0z"/></clipPath><clipPath id="aO"><path data-name="Rectangle 942" fill="none" d="M0 0h11.472v12.494H0z"/></clipPath><clipPath id="aP"><path data-name="Rectangle 943" fill="none" d="M0 0h11.344v12.356H0z"/></clipPath><clipPath id="aQ"><path data-name="Rectangle 944" fill="none" d="M0 0h11.216v12.217H0z"/></clipPath><clipPath id="aR"><path data-name="Rectangle 945" fill="none" d="M0 0h11.089v12.078H0z"/></clipPath><clipPath id="aS"><path data-name="Rectangle 946" fill="none" d="M0 0h10.962v11.939H0z"/></clipPath><clipPath id="aT"><path data-name="Rectangle 947" fill="none" d="M0 0h10.834v11.8H0z"/></clipPath><clipPath id="aU"><path data-name="Rectangle 948" fill="none" d="M0 0h10.706v11.661H0z"/></clipPath><clipPath id="aV"><path data-name="Rectangle 949" fill="none" d="M0 0h10.579v11.522H0z"/></clipPath><clipPath id="aW"><path data-name="Rectangle 950" fill="none" d="M0 0h10.452v11.384H0z"/></clipPath><clipPath id="aX"><path data-name="Rectangle 951" fill="none" d="M0 0h10.324v11.245H0z"/></clipPath><clipPath id="aY"><path data-name="Rectangle 952" fill="none" d="M0 0h10.197v11.106H0z"/></clipPath><clipPath id="aZ"><path data-name="Rectangle 1035" fill="none" d="M0 0h22.213v22.212H0z"/></clipPath><clipPath id="ba"><path data-name="Rectangle 955" fill="none" d="M0 0h22.073v22.074H0z"/></clipPath><clipPath id="bb"><path data-name="Rectangle 956" fill="none" d="M0 0h21.935v21.935H0z"/></clipPath><clipPath id="bc"><path data-name="Rectangle 957" fill="none" d="M0 0h21.797v21.796H0z"/></clipPath><clipPath id="bd"><path data-name="Rectangle 958" fill="none" d="M0 0h21.657v21.658H0z"/></clipPath><clipPath id="be"><path data-name="Rectangle 959" fill="none" d="M0 0h21.519v21.518H0z"/></clipPath><clipPath id="bf"><path data-name="Rectangle 960" fill="none" d="M0 0h21.379v21.38H0z"/></clipPath><clipPath id="bg"><path data-name="Rectangle 961" fill="none" d="M0 0h21.241v21.24H0z"/></clipPath><clipPath id="bh"><path data-name="Rectangle 962" fill="none" d="M0 0h21.102v21.102H0z"/></clipPath><clipPath id="bi"><path data-name="Rectangle 963" fill="none" d="M0 0h20.963v20.963H0z"/></clipPath><clipPath id="bj"><path data-name="Rectangle 964" fill="none" d="M0 0h20.825v20.824H0z"/></clipPath><clipPath id="bk"><path data-name="Rectangle 965" fill="none" d="M0 0h20.685v20.686H0z"/></clipPath><clipPath id="bl"><path data-name="Rectangle 966" fill="none" d="M0 0h20.547v20.546H0z"/></clipPath><clipPath id="bm"><path data-name="Rectangle 967" fill="none" d="M0 0h20.407v20.408H0z"/></clipPath><clipPath id="bn"><path data-name="Rectangle 968" fill="none" d="M0 0h20.269v20.269H0z"/></clipPath><clipPath id="bo"><path data-name="Rectangle 969" fill="none" d="M0 0h20.131v20.13H0z"/></clipPath><clipPath id="bp"><path data-name="Rectangle 970" fill="none" d="M0 0h19.991v19.992H0z"/></clipPath><clipPath id="bq"><path data-name="Rectangle 971" fill="none" d="M0 0h19.853v19.852H0z"/></clipPath><clipPath id="br"><path data-name="Rectangle 972" fill="none" d="M0 0h19.713v19.714H0z"/></clipPath><clipPath id="bs"><path data-name="Rectangle 973" fill="none" d="M0 0h19.575v19.574H0z"/></clipPath><clipPath id="bt"><path data-name="Rectangle 974" fill="none" d="M0 0h19.436v19.436H0z"/></clipPath><clipPath id="bu"><path data-name="Rectangle 975" fill="none" d="M0 0h19.297v19.297H0z"/></clipPath><clipPath id="bv"><path data-name="Rectangle 976" fill="none" d="M0 0h19.159v19.158H0z"/></clipPath><clipPath id="bw"><path data-name="Rectangle 977" fill="none" d="M0 0h19.019v19.02H0z"/></clipPath><clipPath id="bx"><path data-name="Rectangle 978" fill="none" d="M0 0h18.881v18.88H0z"/></clipPath><clipPath id="by"><path data-name="Rectangle 979" fill="none" d="M0 0h18.741v18.742H0z"/></clipPath><clipPath id="bz"><path data-name="Rectangle 980" fill="none" d="M0 0h18.603v18.603H0z"/></clipPath><clipPath id="bA"><path data-name="Rectangle 981" fill="none" d="M0 0h18.465v18.464H0z"/></clipPath><clipPath id="bB"><path data-name="Rectangle 982" fill="none" d="M0 0h18.325v18.326H0z"/></clipPath><clipPath id="bC"><path data-name="Rectangle 983" fill="none" d="M0 0h18.187v18.186H0z"/></clipPath><clipPath id="bD"><path data-name="Rectangle 984" fill="none" d="M0 0h18.047v18.048H0z"/></clipPath><clipPath id="bE"><path data-name="Rectangle 985" fill="none" d="M0 0h17.909v17.908H0z"/></clipPath><clipPath id="bF"><path data-name="Rectangle 986" fill="none" d="M0 0h17.77v17.77H0z"/></clipPath><clipPath id="bG"><path data-name="Rectangle 987" fill="none" d="M0 0h17.631v17.632H0z"/></clipPath><clipPath id="bH"><path data-name="Rectangle 988" fill="none" d="M0 0h17.493v17.492H0z"/></clipPath><clipPath id="bI"><path data-name="Rectangle 989" fill="none" d="M0 0h17.353v17.354H0z"/></clipPath><clipPath id="bJ"><path data-name="Rectangle 990" fill="none" d="M0 0h17.215v17.214H0z"/></clipPath><clipPath id="bK"><path data-name="Rectangle 991" fill="none" d="M0 0h17.075v17.076H0z"/></clipPath><clipPath id="bL"><path data-name="Rectangle 992" fill="none" d="M0 0h16.937v16.937H0z"/></clipPath><clipPath id="bM"><path data-name="Rectangle 993" fill="none" d="M0 0h16.799v16.798H0z"/></clipPath><clipPath id="bN"><path data-name="Rectangle 994" fill="none" d="M0 0h16.659v16.66H0z"/></clipPath><clipPath id="bO"><path data-name="Rectangle 995" fill="none" d="M0 0h16.521v16.52H0z"/></clipPath><clipPath id="bP"><path data-name="Rectangle 996" fill="none" d="M0 0h16.381v16.382H0z"/></clipPath><clipPath id="bQ"><path data-name="Rectangle 997" fill="none" d="M0 0h16.243v16.243H0z"/></clipPath><clipPath id="bR"><path data-name="Rectangle 998" fill="none" d="M0 0h16.104v16.104H0z"/></clipPath><clipPath id="bS"><path data-name="Rectangle 999" fill="none" d="M0 0h15.965v15.966H0z"/></clipPath><clipPath id="bT"><path data-name="Rectangle 1000" fill="none" d="M0 0h15.827v15.826H0z"/></clipPath><clipPath id="bU"><path data-name="Rectangle 1001" fill="none" d="M0 0h15.687v15.688H0z"/></clipPath><clipPath id="bV"><path data-name="Rectangle 1002" fill="none" d="M0 0h15.549v15.548H0z"/></clipPath><clipPath id="bW"><path data-name="Rectangle 1003" fill="none" d="M0 0h15.409v15.41H0z"/></clipPath><clipPath id="bX"><path data-name="Rectangle 1004" fill="none" d="M0 0h15.271v15.271H0z"/></clipPath><clipPath id="bY"><path data-name="Rectangle 1005" fill="none" d="M0 0h15.133v15.132H0z"/></clipPath><clipPath id="bZ"><path data-name="Rectangle 1006" fill="none" d="M0 0h14.993v14.994H0z"/></clipPath><clipPath id="ca"><path data-name="Rectangle 1007" fill="none" d="M0 0h14.855v14.854H0z"/></clipPath><clipPath id="cb"><path data-name="Rectangle 1008" fill="none" d="M0 0h14.715v14.716H0z"/></clipPath><clipPath id="cc"><path data-name="Rectangle 1009" fill="none" d="M0 0h14.577v14.577H0z"/></clipPath><clipPath id="cd"><path data-name="Rectangle 1010" fill="none" d="M0 0h14.439v14.438H0z"/></clipPath><clipPath id="ce"><path data-name="Rectangle 1011" fill="none" d="M0 0h14.299v14.3H0z"/></clipPath><clipPath id="cf"><path data-name="Rectangle 1012" fill="none" d="M0 0h14.161v14.16H0z"/></clipPath><clipPath id="cg"><path data-name="Rectangle 1013" fill="none" d="M0 0h14.021v14.022H0z"/></clipPath><clipPath id="ch"><path data-name="Rectangle 1014" fill="none" d="M0 0h13.883v13.883H0z"/></clipPath><clipPath id="ci"><path data-name="Rectangle 1015" fill="none" d="M0 0h13.744v13.744H0z"/></clipPath><clipPath id="cj"><path data-name="Rectangle 1016" fill="none" d="M0 0h13.605v13.605H0z"/></clipPath><clipPath id="ck"><path data-name="Rectangle 1017" fill="none" d="M0 0h13.467v13.466H0z"/></clipPath><clipPath id="cl"><path data-name="Rectangle 1018" fill="none" d="M0 0h13.327v13.328H0z"/></clipPath><clipPath id="cm"><path data-name="Rectangle 1019" fill="none" d="M0 0h13.189v13.188H0z"/></clipPath><clipPath id="cn"><path data-name="Rectangle 1020" fill="none" d="M0 0h13.049v13.05H0z"/></clipPath><clipPath id="co"><path data-name="Rectangle 1021" fill="none" d="M0 0h12.911v12.911H0z"/></clipPath><clipPath id="cp"><path data-name="Rectangle 1022" fill="none" d="M0 0h12.773v12.772H0z"/></clipPath><clipPath id="cq"><path data-name="Rectangle 1023" fill="none" d="M0 0h12.633v12.634H0z"/></clipPath><clipPath id="cr"><path data-name="Rectangle 1024" fill="none" d="M0 0h12.495v12.494H0z"/></clipPath><clipPath id="cs"><path data-name="Rectangle 1025" fill="none" d="M0 0h12.355v12.356H0z"/></clipPath><clipPath id="ct"><path data-name="Rectangle 1026" fill="none" d="M0 0h12.217v12.216H0z"/></clipPath><clipPath id="cu"><path data-name="Rectangle 1027" fill="none" d="M0 0h12.079v12.078H0z"/></clipPath><clipPath id="cv"><path data-name="Rectangle 1028" fill="none" d="M0 0h11.939v11.94H0z"/></clipPath><clipPath id="cw"><path data-name="Rectangle 1029" fill="none" d="M0 0h11.801v11.8H0z"/></clipPath><clipPath id="cx"><path data-name="Rectangle 1030" fill="none" d="M0 0h11.661v11.662H0z"/></clipPath><clipPath id="cy"><path data-name="Rectangle 1031" fill="none" d="M0 0h11.523v11.522H0z"/></clipPath><clipPath id="cz"><path data-name="Rectangle 1032" fill="none" d="M0 0h11.384v11.384H0z"/></clipPath><clipPath id="cA"><path data-name="Rectangle 1033" fill="none" d="M0 0h11.245v11.245H0z"/></clipPath><clipPath id="cB"><path data-name="Rectangle 1034" fill="none" d="M0 0h11.107v11.106H0z"/></clipPath><clipPath id="cC"><path data-name="Rectangle 1036" fill="none" d="M0 0h15.514v17.77H0z"/></clipPath><clipPath id="cD"><path data-name="Rectangle 1037" fill="none" d="M0 0h14.957v16.307H0z"/></clipPath><clipPath id="cE"><path data-name="Rectangle 1038" fill="none" d="M0 0h8.453v9.29H0z"/></clipPath><clipPath id="cF"><path data-name="Rectangle 1039" fill="none" d="M0 0h.028v.004H0z"/></clipPath><clipPath id="cG"><path data-name="Path 2376" d="M201.382 17.159z" transform="translate(-201.382 -17.159)" fill="none"/></clipPath><clipPath id="cH"><path data-name="Rectangle 1040" fill="none" d="M0 0h48.528v13.751H0z"/></clipPath><clipPath id="cI"><path data-name="Rectangle 1041" fill="none" d="M0 0h.02v.001H0z"/></clipPath><clipPath id="cJ"><path data-name="Rectangle 1042" fill="none" d="M0 0h9.04v4.484H0z"/></clipPath><clipPath id="cK"><path data-name="Path 2401" d="M109.415 205.659a2.291 2.291 0 00-2.276 2.456l3.78 54.509a4.384 4.384 0 004.36 4.1h79.627a4.134 4.134 0 004.1-3.712l5.779-54.806a2.292 2.292 0 00-2.27-2.542z" transform="translate(-107.133 -205.659)" fill="none"/></clipPath><linearGradient id="cL" x1="-.767" y1="1.9" x2="-.759" y2="1.9" gradientUnits="objectBoundingBox"><stop offset="0" stop-color="#dddee0"/><stop offset="1" stop-color="#86878b"/></linearGradient></defs><g data-name="Mask Group 32" transform="translate(-172 -3590)" clip-path="url(#a)"><g data-name="Group 9315"><path data-name="Path 957" d="M281.923 3598.712c24.936-6.686 51.194-3.112 74.576 2.714 16.962 4.227 31.879 14.628 46.121 23.915 27.713 18.064 49.867 41.884 59.36 77.29 3.405 12.703 7.603 26.429 7.62 38.99.038 39.75-22.428 74.814-50.851 101.867-17.974 17.106-35.192 32.363-60.69 39.2-33.326 8.935-67.77.624-97.278-12.162-39.616-17.165-70.688-46.668-82.777-91.757-9.755-36.386-.58-71.142 15.218-102.354 18.186-35.943 46.669-66.434 88.7-77.703z" fill="#deeeff"/><g data-name="Group 8" transform="translate(0 2203)" clip-path="url(#b)"><g data-name="Group 3064"><g data-name="Group 3063" clip-path="url(#c)" transform="translate(196.653 1418.661)"><g data-name="Group 3060"><g data-name="Group 3059" clip-path="url(#c)"><path data-name="Path 2131" d="M219.31 166.72l1.944 14.442 2.17.757 3-2.038-3.123-14.821c-.187 0-3.989 1.66-3.989 1.66" fill="#cecedd"/><path data-name="Path 2132" d="M222.276 164.456h-.045a4.335 4.335 0 00-3.206 1.558c-1.522 1.674-2.316 4.678-2.126 7.674.316 4.947 3.1 9.106 6.346 9.106h.047a4.718 4.718 0 003.206-1.848c1.521-1.674 2.316-4.645 2.125-7.642-.316-4.948-3.1-8.848-6.347-8.848m3.186 15.508a3.474 3.474 0 01-2.187 1.419h-.029c-2.422 0-4.68-3.712-4.939-7.764-.166-2.611.489-5.2 1.753-6.592a3.071 3.071 0 012.187-1.16h.029c2.423 0 4.681 3.421 4.94 7.473.166 2.612-.488 5.234-1.753 6.625" fill="#e7e6f1"/><path data-name="Path 2133" d="M27.048 181.501l3 2.057 2.171-.764 1.943-14.577s-3.262-1.675-3.45-1.675z" fill="#cecedd"/><path data-name="Path 2134" d="M176.448 108.202a48.243 48.243 0 00-19.822-13.554l7.95 55.757s12.815 25.808 20.71 29.479c12.386 1.148 13.394-19.66 12.336-22.306-.649-2.006-13.9-40.812-21.173-49.376" fill="#fefefe"/><path data-name="Path 2135" d="M31.24 165.866h-.046c-3.247 0-6.031 3.97-6.346 8.964-.191 3.026.6 5.922 2.125 7.611a4.562 4.562 0 003.206 1.763h.047c3.247 0 6.03-4.078 6.346-9.073.191-3.025-.6-6.031-2.125-7.719a4.288 4.288 0 00-3.206-1.547m3.924 9.183c-.259 4.091-2.517 7.745-4.939 7.745h-.029a3.281 3.281 0 01-2.187-1.32c-1.264-1.4-1.919-4.033-1.752-6.67.258-4.09 2.517-7.527 4.939-7.527h.029a3.119 3.119 0 012.187 1.212c1.264 1.4 1.919 3.925 1.752 6.561" fill="#e7e6f1"/><path data-name="Path 2136" d="M77.513 109.16c-7.415 8.437-19.79 47.675-20.439 49.682-17.095 8.523-.989 25.567 11.207 22.713 9.434-4.507 20.684-33.087 20.684-33.087l8.987-52.706a49.187 49.187 0 00-20.439 13.4" fill="#fefefe"/><path data-name="Path 2137" d="M128.342 66.231c-6.29-.108-10.866 3.043-10.936 7.539l-2.256 20.417c-.071 4.5 6.285 5.187 12.575 5.295s11.436-.64 11.506-5.136V75.023c.071-4.5-4.6-8.681-10.889-8.788" fill="#d78c74"/><path data-name="Path 2138" d="M132.665 234.826l7.008.76 9.567-17h-6.7z" fill="#3d4041"/><path data-name="Path 2139" d="M104.209 94.195v15.355h45.626V92.664c-13.682-4.045-32.379-4.008-45.626 1.531" fill="#d78c74"/><path data-name="Path 2140" d="M153.585 93.44c-.172-.055-.344-.109-.521-.162s-.366-.1-.553-.153c-.424-.113-.856-.22-1.3-.313-.1-.03-.251-.071-.415-.116-1.059-.3-2.143-.593-3.263-.887v.013c-1.748-.463-6.313-1.836-6.976-2.01-7.343 3.149-17.089 2.641-25.921.7-5.873 0-19.634 5.819-23.217 9.32-7.666 7.492-6 29.785-6.766 58.471-.762 28.67 2.567 45.115 4.884 60.279a8.844 8.844 0 001.289 4.768h66.028a54.74 54.74 0 006.038-8.563c7.053-21.237 3.2-69.584 5.071-98.066.161-2.454.428-18.636-14.373-23.282" fill="#fefefe"/><path data-name="Path 2141" d="M206.49 177.107c-12.922-1.576-55.595 28.477-76.312 37.518-15.819 6.9-41.575-16.819-55.075-23.438s-43.187-22.065-49.172 5.042c-4.882 22.1 41.167 39.545 77.33 51.483 12.975 4.283 16.441.165 22.905.157 7.734-.008 7.355 4.9 27.107-1 0 0 64.741-33.585 69.452-42.063 6.3-11.347-3.312-26.126-16.235-27.7" fill="#787b9b"/><path data-name="Path 2142" d="M156.726 229.379c-11.986 6.355-27.641 3.2-31.979 5.6-4.477 2.477-13.629 14.306-2.137 20.355 2.285 1.2 35.252 3.077 40.831 1.411 6.331-1.891 11.529-8.306 9.663-17.7s-7.259-14.5-16.379-9.667" fill="#d6d6d6"/><path data-name="Path 2143" d="M132.973 235.835c-7.919-.772-19.543-7.565-19.543-7.565l-8.668 15.971s18.315 8.815 24.429 8.405c10.191-.684 9.31-16.272 3.782-16.811" fill="#a8a8a8"/><path data-name="Path 2144" d="M136.283 235.498c-5.473-1.182-6.225 4.728-7.172 9.772s1.536 7.181 6.147 7.8c5.279.709 9.473-.009 14.678-.406.893-5.858-.068-11.659-1.409-17.171-4.232.377-9.37.626-12.245 0" fill="#d6d6d6"/><path data-name="Path 2145" d="M151.675 234.684c-2.365-1.626-13.908-.743-13.188.448 3.064 5.069-.458 13.054-.26 16.836s13.054 3.826 15.156 1.4c2.573-2.967 1.655-16.376-1.708-18.687" fill="#e8e8e8"/><path data-name="Path 2146" d="M123.78 237.505c-4.338-2.4-19.993.752-31.979-5.6-9.119-4.835-14.512.27-16.379 9.666s3.332 15.812 9.662 17.7c5.58 1.667 38.547-.207 40.832-1.411 11.492-6.049 2.34-17.877-2.137-20.355" fill="#e3e4e5"/><path data-name="Path 2147" d="M115.554 238.361c-5.527.539-6.409 16.128 3.782 16.81 6.113.41 24.429-8.4 24.429-8.4l-8.668-15.971s-11.624 6.793-19.543 7.565" fill="#bcbcbc"/><path data-name="Path 2148" d="M112.245 238.02c-2.876.621-8.013.372-12.245 0-1.341 5.512-2.3 11.314-1.409 17.171 5.2.4 9.4 1.115 14.677.406 4.611-.62 7.092-2.758 6.147-7.8s-1.7-10.954-7.171-9.772" fill="#d6d6d6"/><path data-name="Path 2149" d="M110.04 237.653c.719-1.19-10.823-2.073-13.188-.447-3.362 2.312-4.281 15.721-1.708 18.686 2.1 2.424 14.959 2.379 15.156-1.4s-3.325-11.767-.261-16.836" fill="#f4f4f4"/><path data-name="Path 2150" d="M208.33 178.157c-11.972-1.459-67.139 45.39-82.373 50.123-3.7 8.863.533 23.447 12.609 26.21 7.119 1.629 78.639-38.334 84.944-49.681s-2.256-25.075-15.179-26.651" fill="#8185a5"/><path data-name="Path 2151" d="M204.074 175.069c-12.923-1.576-51.488 28.284-72.206 37.324-15.819 6.9-43.263-14.588-56.764-21.207s-43.188-22.064-49.172 5.044c-4.882 22.1 41.167 39.545 77.33 51.482 12.974 4.283 16.44.166 22.9.158 7.735-.009 7.355 4.9 27.108-1 0 0 65.4-34.15 70.112-42.629 6.3-11.347-6.39-27.6-19.313-29.174" fill="#2c282d"/><path data-name="Path 2152" d="M157.26 228.061c-23.236 10.091-28.347.634-35.064 6.143-4.339 3.558-12.422 14.982-2.218 21.256 2.412 1.483 35.753 3.612 42.051 2.558 8.262-1.383 17.975-6.687 16.5-18.8-1.313-10.822-9.865-16.115-21.274-11.161" fill="#2b1a19"/><path data-name="Path 2153" d="M153.627 228.14c-21.243 10.048-25.937.582-32.074 6.078-3.963 3.549-10.812 15.383-1.464 21.675 2.21 1.487 36.965 3.917 42.494 1.966 7.578-2.673 13.5-6.7 12.131-18.814-1.222-10.824-10.658-15.838-21.087-10.905" fill="#382222"/><path data-name="Path 2154" d="M156.726 229.379c-11.986 6.355-27.641 3.2-31.979 5.6-4.477 2.477-13.629 14.306-2.137 20.355 2.285 1.2 35.252 3.077 40.831 1.411 6.331-1.891 11.529-8.306 9.663-17.7s-7.259-14.5-16.379-9.667" fill="#3f1e1c"/><path data-name="Path 2155" d="M132.973 235.835c-7.919-.772-19.543-7.565-19.543-7.565l-8.668 15.971s18.315 8.815 24.429 8.405c10.191-.684 9.31-16.272 3.782-16.811" fill="#504a51"/><path data-name="Path 2156" d="M136.283 235.498c-5.473-1.182-6.225 4.728-7.172 9.772s1.536 7.181 6.147 7.8c5.279.709 9.473-.009 14.678-.406.893-5.858-.068-11.659-1.409-17.171-4.232.377-9.37.626-12.245 0" fill="#3f1e1c"/><g data-name="Group 2482"><g data-name="Group 2481" opacity=".19"><g data-name="Group 2480" clip-path="url(#d)" transform="translate(104.762 226.258)"><path data-name="Path 2157" d="M58.45.148a17.526 17.526 0 00-9.586 1.765c-7.45 3.524-12.859 4.628-17.015 4.839-4.306-.032-7.258-.809-9.823-.638a7.128 7.128 0 00-3.581.7A87.719 87.719 0 018.672 2.02L.004 17.99s4.846 2.331 10.384 4.54a8.441 8.441 0 002.08 4.4 11.614 11.614 0 002.863 2.832c1.029.693 9.108 1.562 18.01 2.124a71.17 71.17 0 0015.987-4.065 100.651 100.651 0 0024.477-14.407c-.011-.109-.018-.214-.03-.323C72.701 4.251 66.798-.959 58.454.152"/></g></g></g><path data-name="Path 2158" d="M25.931 196.23c-6.689 28.536 78.833 56.526 78.833 56.526l.164.016c5.666-9.291 9.055-15.481 12.294-25.652-15.7-10.447-37.476-29.351-44.064-34.567-11.347-8.983-40.892-23.351-47.228 3.678" fill="#373138"/><path data-name="Path 2159" d="M125.872 238.283c-6.717-5.509-11.367 2.39-34.6-7.7-11.408-4.954-19.7.286-21.018 11.108-1.469 12.11 6.213 18.39 12.454 19.737s41.5-1.657 43.9-3.16c9.768-6.119 3.608-16.426-.73-19.984" fill="#2b1a19"/><path data-name="Path 2160" d="M126.152 237.867c-6.162-5.5-11.517 3.1-33.007-6.6-11.283-5.1-18.079-.286-19.722 10.482-2.052 13.452 7.659 18.433 13.392 19.768s37.9-1.444 40.123-2.931c9.387-6.292 3.194-17.169-.786-20.719" fill="#3d2523"/><path data-name="Path 2161" d="M123.78 237.504c-4.338-2.4-13.57 2.137-31.979-5.6-9.515-4-14.512.27-16.379 9.666s3.332 15.812 9.662 17.7c5.58 1.667 38.547-.207 40.832-1.411 11.492-6.049 2.34-17.877-2.137-20.355" fill="#512a25"/><g data-name="Group 2485"><g data-name="Group 2484" opacity=".11"><g data-name="Group 2483" clip-path="url(#e)" transform="translate(75.039 240.098)"><path data-name="Path 2162" d="M45.913 5.866a14.544 14.544 0 01-7.2 1.99c.185 3.062-2.309 6.829-5.66 6.75-.727-.018-1.6-.193-2.379-.171-5.53 4.852-14.924 5.4-21.408 2.659C1.58 13.845-.341 7.022.697.076.586.528.48.99.385 1.468c-1.866 9.4 3.332 15.812 9.662 17.7 5.579 1.667 38.547-.207 40.832-1.411 9.124-4.8 5.234-13.244 1-17.76a17.644 17.644 0 01-5.971 5.866"/></g></g></g><path data-name="Path 2163" d="M115.554 238.361c-5.527.539-6.409 16.128 3.782 16.81 6.113.41 24.429-8.4 24.429-8.4l-8.668-15.971s-11.624 6.793-19.543 7.565" fill="#585359"/><g data-name="Group 2488"><g data-name="Group 2487" opacity=".08"><g data-name="Group 2486" clip-path="url(#f)" transform="translate(124.07 230.797)"><path data-name="Path 2164" d="M.051 5.265c-.052 3.853-.287 7.867.988 11.546a22 22 0 002.945 5.68 166.78 166.78 0 0015.711-6.52L11.027 0A87.02 87.02 0 01.051 5.265"/></g></g></g><path data-name="Path 2165" d="M204.074 175.069c-11.972-1.46-62.882 48.478-78.117 53.211-3.7 8.863.533 23.447 12.608 26.21 7.119 1.629 79.336-37.974 84.944-49.681 7.435-15.522-6.512-28.164-19.435-29.74" fill="#373138"/><path data-name="Path 2166" d="M112.245 238.02c-2.876.621-8.013.372-12.245 0-1.341 5.512-2.3 11.314-1.409 17.171 5.2.4 9.4 1.115 14.677.406 4.611-.62 7.092-2.758 6.147-7.8s-1.7-10.954-7.171-9.772" fill="#512a25"/><path data-name="Path 2167" d="M67.645 162.585c-11.307-8.091-22.8-.662-27.271 2.257s-11.257 3.651-11.257 3.651-9.833 11.047-6.648 12.221c6.964 2.567 33.93 2.8 41.321 1.678s15.163-11.716 3.855-19.807" fill="#e5a185"/><g data-name="Group 2491"><g data-name="Group 2490" opacity=".44"><g data-name="Group 2489" clip-path="url(#g)" transform="translate(21.833 158.926)"><path data-name="Path 2168" d="M45.812 3.659c-11.307-8.091-22.8-.662-27.271 2.257S7.284 9.567 7.284 9.567-2.549 20.614.636 21.788c6.964 2.567 33.93 2.8 41.321 1.678S57.12 11.75 45.812 3.659m-4.636 4.82c-5.267 2.026-18.9 4.5-24.208 3.722-4.507-.658-3.927-2.738-2.646-3.161a60.625 60.625 0 008.647-3.638c5.521-2.819 9.854-5.769 16.889-3.507 4.255 1.367 6.584 4.558 1.317 6.584" fill="#d78c74"/></g></g></g><path data-name="Path 2169" d="M23.909 156.76c-.679-2.153-2.206-8.43-2.524-9.752s.024-3.461-1.01-5.339a2.017 2.017 0 00-2.6-1.167c-1.2-2.4-3-1.506-3-1.506-.437-1.231-2.276-1.987-4.132-.669-3.053 2.167-5.518 10.306-5.518 10.306-1.119-.894-4.784.906-5.114 3.111-.122.815.59 15.995 2.154 17.841 3.583 4.23 20.3 11.131 20.3 11.131 8.243.513 10.814-8.863 9.365-13.289s-7.246-8.513-7.924-10.666" fill="#e5a185"/><g data-name="Group 2494"><g data-name="Group 2493" opacity=".44"><g data-name="Group 2492" clip-path="url(#h)" transform="translate(0 137.634)"><path data-name="Path 2170" d="M23.909 19.126c-.679-2.153-2.206-8.43-2.524-9.752s.024-3.461-1.011-5.339a2.016 2.016 0 00-2.6-1.167c-1.2-2.4-3-1.506-3-1.506-.437-1.231-2.277-1.987-4.132-.669C7.589 2.86 5.124 10.999 5.124 10.999 4.004 10.105.34 11.905.01 14.11c-.121.815.59 15.995 2.154 17.841 3.584 4.23 20.3 11.131 20.3 11.131 8.244.513 10.814-8.863 9.366-13.289s-7.246-8.513-7.924-10.666m.373 10.344c-1.882 2.015-13.99 5-16.111 5.03s-4.725-2.01-5.785-3.307-2-16.786-2-16.786c.943-2.668 4-2.785 4-2.785a14.351 14.351 0 00-.292 3 97.607 97.607 0 001.726 10.318c.485 1.844 1.475 1.334 1.05-.429S4.943 14.098 5.322 12.505a52.853 52.853 0 013.244-8.448C9.823 1.608 11.799-.149 13.414.974s.358 5-.036 6.5-1.812 7.155-1.823 8.77a58.821 58.821 0 001.338 8.279c.373 1.5 1.35 1.634 1.195.1s-.984-5.289-1.077-8.174a33.276 33.276 0 011.141-8.474 47.956 47.956 0 00.8-6.05c1.2-.6 1.909.514 2.466 1.785s.355 9.9.367 10.915 1.3 7.484 1.686 9.025 1.5 1.973 1.341.391-1.328-7.4-1.584-9.467-1.291-12.1.122-11.177c.947.62 1.251 3.265 1.252 4.463a23.233 23.233 0 00.867 4.583c.365 1.452 1.865 9.14 3.145 10.88a4.6 4.6 0 01-.331 6.145" fill="#d78c74"/></g></g></g><g data-name="Group 2497"><g data-name="Group 2496" opacity=".17"><g data-name="Group 2495" clip-path="url(#i)" transform="translate(0 151.052)"><path data-name="Path 2171" d="M23.909 5.707c-.369-1.17-.988-3.558-1.528-5.708-.5.906-1.33 1.083-3.3.994a6.783 6.783 0 01-6.406 1.306 12.8 12.8 0 01-8.106-.482A3.9 3.9 0 010 .994c-.019 2.312.7 15.8 2.167 17.537 3.583 4.23 20.3 11.131 20.3 11.131 8.243.513 10.814-8.863 9.365-13.289S24.586 7.86 23.908 5.707" fill="#d78c74"/></g></g></g><g data-name="Group 2500"><g data-name="Group 2499" opacity=".77"><g data-name="Group 2498" clip-path="url(#j)" transform="translate(31.612 167.752)"><path data-name="Path 2172" d="M.362.257a8.985 8.985 0 01-.327 5.2.714.714 0 00.426.885.506.506 0 00.659-.3A10.876 10.876 0 001.497.001c-.4.1-.777.183-1.135.257" fill="#d78c74"/></g></g></g><path data-name="Path 2173" d="M214.625 163.495c-4.471-2.92-15.964-10.348-27.27-2.257s-3.536 18.685 3.855 19.807 34.358.889 41.321-1.678c3.185-1.174-6.648-12.221-6.648-12.221s-6.786-.731-11.258-3.652" fill="#e5a185"/><g data-name="Group 2503"><g data-name="Group 2502" opacity=".44"><g data-name="Group 2501" clip-path="url(#k)" transform="translate(181.652 157.578)"><path data-name="Path 2174" d="M32.973 5.916c-4.471-2.92-15.964-10.348-27.27-2.257S2.167 22.344 9.558 23.466s34.358.889 41.321-1.678c3.185-1.174-6.648-12.221-6.648-12.221s-6.786-.731-11.258-3.652m.388 6.229c-5.307.775-17.755-1.641-23.023-3.666s-2.937-5.217 1.318-6.584c7.036-2.262 11.369.687 16.889 3.506a60.5 60.5 0 008.648 3.639c1.28.422.676 2.446-3.832 3.1" fill="#d78c74"/></g></g></g><path data-name="Path 2175" d="M249.871 147.284s-2.466-8.139-5.518-10.306c-1.855-1.318-3.7-.561-4.132.67 0 0-1.8-.894-3 1.506a2.015 2.015 0 00-2.6 1.167c-1.033 1.878-.693 4.016-1.011 5.339s-1.845 7.6-2.524 9.752-6.476 6.24-7.924 10.667 1.121 13.8 9.365 13.288c0 0 16.717-6.9 20.3-11.131 1.564-1.845 2.276-17.025 2.154-17.841-.329-2.2-3.994-4-5.114-3.111" fill="#e5a185"/><g data-name="Group 2506"><g data-name="Group 2505" opacity=".44"><g data-name="Group 2504" clip-path="url(#h)" transform="translate(222.783 136.286)"><path data-name="Path 2176" d="M27.088 10.997S24.623 2.858 21.571.691c-1.856-1.318-3.7-.561-4.132.67 0 0-1.8-.894-3 1.506a2.017 2.017 0 00-2.6 1.167c-1.034 1.878-.692 4.016-1.011 5.339s-1.845 7.6-2.524 9.753S1.828 25.365.38 29.792s1.122 13.8 9.365 13.289c0 0 16.716-6.9 20.3-11.132 1.563-1.845 2.275-17.025 2.153-17.841-.329-2.2-3.994-4-5.114-3.111m2.742 20.2c-1.06 1.3-3.664 3.338-5.785 3.306S9.812 31.488 7.93 29.473a4.6 4.6 0 01-.331-6.145c1.279-1.74 2.78-9.428 3.144-10.88a23.2 23.2 0 00.868-4.582c0-1.2.3-3.843 1.252-4.464 1.414-.925.378 9.107.122 11.178s-1.421 7.884-1.584 9.466.959 1.149 1.341-.391 1.676-8.013 1.686-9.025-.19-9.645.367-10.915 1.265-2.381 2.465-1.786a48 48 0 00.8 6.05 33.306 33.306 0 011.141 8.474c-.093 2.885-.922 6.637-1.078 8.173s.822 1.4 1.195-.1a58.723 58.723 0 001.339-8.28c-.011-1.616-1.428-7.267-1.823-8.77s-1.652-5.382-.037-6.5 3.592.633 4.848 3.083a52.8 52.8 0 013.245 8.448c.377 1.593-1.125 10.248-1.548 12.01s.565 2.273 1.05.43a97.622 97.622 0 001.727-10.318 14.345 14.345 0 00-.292-3s3.056.117 4 2.784c0 0-.94 15.49-2 16.787" fill="#d78c74"/></g></g></g><g data-name="Group 2509"><g data-name="Group 2508" opacity=".17"><g data-name="Group 2507" clip-path="url(#l)" transform="translate(222.783 149.704)"><path data-name="Path 2177" d="M27.647 1.818a12.8 12.8 0 01-8.106.482A6.785 6.785 0 0113.135.994c-1.973.09-2.809-.087-3.3-.994-.54 2.15-1.159 4.537-1.528 5.708C7.628 7.86 1.831 11.947.383 16.374s1.122 13.8 9.365 13.289c0 0 16.716-6.9 20.3-11.132 1.469-1.733 2.186-15.225 2.167-17.536a3.9 3.9 0 01-4.566.822" fill="#d78c74"/></g></g></g><g data-name="Group 2512"><g data-name="Group 2511" opacity=".77"><g data-name="Group 2510" clip-path="url(#j)" transform="translate(221.626 166.405)"><path data-name="Path 2178" d="M1.397.257A37.97 37.97 0 01.263 0 10.868 10.868 0 00.64 6.04a.505.505 0 00.659.3.713.713 0 00.426-.885 8.985 8.985 0 01-.327-5.2" fill="#d78c74"/></g></g></g><path data-name="Path 2179" d="M127.433 93.1c-5.137-.059-6.292 3.527-6.292 3.527s-.6 8.3 5.693 8.358 5.664-8.478 5.664-8.478.071-3.35-5.066-3.409" fill="#b1b741"/><g data-name="Group 2515"><g data-name="Group 2514" opacity=".11"><g data-name="Group 2513" clip-path="url(#m)" transform="translate(.93 149.778)"><path data-name="Path 2180" d="M2.694.037C1.794-.336 0 2.268 0 2.268c.257.638 3.068 1.157 2.9.506-.21-.842.116-2.6-.21-2.737" fill="#fff"/></g></g></g><g data-name="Group 2518"><g data-name="Group 2517" opacity=".11"><g data-name="Group 2516" clip-path="url(#n)" transform="translate(6.121 138.829)"><path data-name="Path 2181" d="M3.987 1.344C2.724 2.734.487 8.5.187 10.099a11.387 11.387 0 00-.16 2.908c.294 1.179 4.377 1.852 4.756-.337s2.4-8.463 2.358-11.031-1.895-1.683-3.158-.294" fill="#fff"/></g></g></g><g data-name="Group 2521"><g data-name="Group 2520" opacity=".11"><g data-name="Group 2519" clip-path="url(#o)" transform="translate(13.431 140.103)"><path data-name="Path 2182" d="M1.828.028c-.075.038-.14 2.527-.59 4.743s-1.291 5.5-1.235 6.9 3.733 1.123 3.958 0a51.822 51.822 0 00-.2-9.88C3.343.052 2.048-.089 1.824.023" fill="#fff"/></g></g></g><g data-name="Group 2524"><g data-name="Group 2523" opacity=".07"><g data-name="Group 2522" clip-path="url(#p)" transform="translate(18.988 141.788)"><path data-name="Path 2183" d="M.564.112C.115-.253.087.393.087.393a53.245 53.245 0 000 5.95c.2 2.666.589 3.845 1.488 3.537s.281-2.7 0-4.267S1.014.477.564.113" fill="#fff"/></g></g></g><g data-name="Group 2527"><g data-name="Group 2526" opacity=".11"><g data-name="Group 2525" clip-path="url(#q)" transform="translate(241.789 137.518)"><path data-name="Path 2184" d="M3.074 1.287C1.811-.102.042-.881.001 1.687s2.147 8.757 2.526 10.947 4.462 1.516 4.757.337a27.594 27.594 0 00-.378-2.864c-.295-1.6-2.568-7.431-3.831-8.82" fill="#fff"/></g></g></g><g data-name="Group 2530"><g data-name="Group 2529" opacity=".11"><g data-name="Group 2528" clip-path="url(#r)" transform="translate(237.633 138.642)"><path data-name="Path 2185" d="M2.107.031C1.883-.081.7.046.283 1.785a52.424 52.424 0 00-.084 10.006c.224 1.123 3.649 1.459 3.7.056s-.729-4.6-1.179-6.821-.542-4.959-.618-5" fill="#fff"/></g></g></g><g data-name="Group 2533"><g data-name="Group 2532" opacity=".07"><g data-name="Group 2531" clip-path="url(#s)" transform="translate(234.191 140.55)"><path data-name="Path 2186" d="M1.199.108C.75.473.75 3.932.469 5.508s-.9 3.958 0 4.267.975-.849 1.172-3.515.211-5.832.211-5.832-.2-.681-.652-.315" fill="#fff"/></g></g></g><g data-name="Group 2536"><g data-name="Group 2535" opacity=".06"><g data-name="Group 2534" clip-path="url(#t)" transform="translate(77.197 232.786)"><path data-name="Path 2187" d="M9.773.165C.798-1.556.006 10.831.006 10.831c-.336 6.848 14.034 7.522 14.289 2.359.351-7.1 3-9.658 3-9.658S16.211 1.4 9.773.165" fill="#fff"/></g></g></g><g data-name="Group 2539"><g data-name="Group 2538" opacity=".04"><g data-name="Group 2537" clip-path="url(#u)" transform="translate(35.234 185.989)"><path data-name="Path 2188" d="M0 5.311c6.532 10.553 33.211 30.425 41.963 31.834s32.115 11.053 33.822 10.663 4.02-6.271 4.02-6.271C65.098 34.204 32.875 4.525 21.84.937S0 5.311 0 5.311" fill="#fff"/></g></g></g><g data-name="Group 2542"><g data-name="Group 2541" opacity=".04"><g data-name="Group 2540" clip-path="url(#v)" transform="translate(127.178 184.085)"><path data-name="Path 2189" d="M22.061 32.246C5.622 45.766.455 45.14.455 45.14a18.212 18.212 0 002.362 13.767s79.376-42.571 86.28-56.549c0 0-15.569-.832-24.755-2.357 0 0-25.6 18.524-42.281 32.246" fill="#fff"/></g></g></g><path data-name="Path 2190" d="M138.717 86.105s-3.254 4.585-11.9 4.7-10.548-4.7-10.548-4.7c-5.407 2-6.289 7.817-6.289 7.817 1.88 5.015 10.462 9.875 10.462 9.875s2.813-9.319 6.375-9.4c3.681-.088 6.162 9.906 6.162 9.906 7.112-3.174 12.051-10.288 12.051-10.288-2.41-7.917-6.317-7.905-6.317-7.905" fill="#fefefe"/><path data-name="Path 2191" d="M143.766 90.749a5.07 5.07 0 01.489 3.133c-.5 1.083-5.037 6.484-10.626 9.327a.179.179 0 01-.152.006.151.151 0 01-.089-.1c-1.035-3.531-3.253-9.428-6.519-9.428h-.065c-3.178.075-5.586 5.676-6.79 9.029-1.8-1.112-7.829-4.912-9.414-8.779a3.239 3.239 0 01.383-2.946l-.4.079a11.173 11.173 0 00-.605 1.4 6.331 6.331 0 00-.281 1.635 3.435 3.435 0 00.029.6 5.788 5.788 0 001.468 2.551 21.564 21.564 0 001.985 2.093 36.619 36.619 0 004.264 3.375q.9.618 1.828 1.193a1.434 1.434 0 001.243.133 1.276 1.276 0 00.884-.775c1.679-4.856 3.814-7.941 5.438-7.941h.029c1.642 0 3.666 3.175 5.167 8.3a1.471 1.471 0 00.883.941 1.555 1.555 0 00.628.1 1.614 1.614 0 00.723-.189 27.834 27.834 0 005.178-3.467 37.21 37.21 0 003.781-3.652 7.045 7.045 0 001.581-3 5.194 5.194 0 00-.573-3.479l-.47-.138" fill="#e7e6f1"/><path data-name="Path 2192" d="M99.162 49.774c-2.926.964-4.242 5.237-2.938 9.547s4.733 7.022 7.66 6.059 4.242-5.238 2.938-9.547-4.734-7.022-7.66-6.058" fill="#d78c74"/><path data-name="Path 2193" d="M117.003 10.972s0-.049-.016-.131c.008.085.016.131.016.131" fill="#381911"/><path data-name="Path 2194" d="M152.9 55.743c.033-10.485-1.5-23.744-3.635-31.551-1.65-10.152-30.292-14.95-38.73-1.009-2.689 6.466-7.063 18.532-8.519 30.517v-.205s-7.8 31.877 20.565 33.859 31.523-12.977 30.317-31.614z" fill="#e5a185"/><g data-name="Group 2788"><g data-name="Group 2787" opacity=".38"><g data-name="Group 2786" clip-path="url(#w)" transform="translate(101.736 48.095)"><g data-name="Group 2545"><g data-name="Group 2544"><g data-name="Group 2543" clip-path="url(#w)"><path data-name="Path 2195" d="M10.349.001C4.718-.077.085 4.833.001 10.966s4.412 11.167 10.042 11.246 10.265-4.832 10.349-10.965S15.98.079 10.349.001" fill="#e5a185"/></g></g></g><g data-name="Group 2548"><g data-name="Group 2547"><g data-name="Group 2546" clip-path="url(#x)" transform="translate(.063 .069)"><path data-name="Path 2196" d="M10.285.001c-5.6-.077-10.2 4.8-10.284 10.9s4.384 11.1 9.98 11.175 10.2-4.8 10.284-10.9S15.881.076 10.285.001" fill="#e5a084"/></g></g></g><g data-name="Group 2551"><g data-name="Group 2550"><g data-name="Group 2549" clip-path="url(#y)" transform="translate(.128 .139)"><path data-name="Path 2197" d="M10.22.001C4.66-.075.084 4.773.001 10.829s4.356 11.028 9.917 11.1 10.136-4.771 10.219-10.828S15.78.072 10.22-.005" fill="#e59f83"/></g></g></g><g data-name="Group 2554"><g data-name="Group 2553"><g data-name="Group 2552" clip-path="url(#z)" transform="translate(.191 .208)"><path data-name="Path 2198" d="M10.156.001C4.631-.074.084 4.742.002 10.76s4.329 10.96 9.854 11.035 10.071-4.741 10.154-10.759S15.681.077 10.156.001" fill="#e49e83"/></g></g></g><g data-name="Group 2557"><g data-name="Group 2556"><g data-name="Group 2555" clip-path="url(#A)" transform="translate(.255 .277)"><path data-name="Path 2199" d="M10.09.002C4.6-.073.083 4.713 0 10.693s4.3 10.889 9.791 10.964 10.008-4.711 10.09-10.691S15.581.077 10.09.002" fill="#e49d82"/></g></g></g><g data-name="Group 2560"><g data-name="Group 2559"><g data-name="Group 2558" clip-path="url(#B)" transform="translate(.319 .347)"><path data-name="Path 2200" d="M10.026.001C4.572-.074.083 4.682 0 10.623s4.275 10.819 9.729 10.894 9.943-4.681 10.026-10.622S15.481.076 10.026.001" fill="#e49c81"/></g></g></g><g data-name="Group 2563"><g data-name="Group 2562"><g data-name="Group 2561" clip-path="url(#C)" transform="translate(.382 .416)"><path data-name="Path 2201" d="M9.961.001C4.541-.074.082 4.651 0 10.555s4.247 10.749 9.667 10.824 9.879-4.651 9.96-10.554S15.381.076 9.961.001" fill="#e49b80"/></g></g></g><g data-name="Group 2566"><g data-name="Group 2565"><g data-name="Group 2564" clip-path="url(#D)" transform="translate(.446 .486)"><path data-name="Path 2202" d="M9.896.001C4.511-.073.081 4.621-.004 10.487s4.219 10.679 9.6 10.754 9.815-4.621 9.9-10.486S15.277.076 9.896.001" fill="#e49a80"/></g></g></g><g data-name="Group 2569"><g data-name="Group 2568"><g data-name="Group 2567" clip-path="url(#E)" transform="translate(.51 .555)"><path data-name="Path 2203" d="M9.833.001C4.484-.072.082 4.591.002 10.418S4.193 21.025 9.54 21.101s9.751-4.59 9.831-10.417S15.18.074 9.831.001" fill="#e3997f"/></g></g></g><g data-name="Group 2572"><g data-name="Group 2571"><g data-name="Group 2570" clip-path="url(#F)" transform="translate(.573 .624)"><path data-name="Path 2204" d="M9.768.002C4.454-.071.082 4.562.002 10.35S4.166 20.89 9.48 20.963s9.686-4.56 9.767-10.348S15.083.075 9.769.002" fill="#e3987e"/></g></g></g><g data-name="Group 2575"><g data-name="Group 2574"><g data-name="Group 2573" clip-path="url(#G)" transform="translate(.638 .694)"><path data-name="Path 2205" d="M9.702.001C4.423-.072.079 4.531.002 10.281s4.136 10.47 9.415 10.543 9.623-4.529 9.7-10.28S14.981.074 9.702.001" fill="#e3977d"/></g></g></g><g data-name="Group 2578"><g data-name="Group 2577"><g data-name="Group 2576" clip-path="url(#H)" transform="translate(.701 .763)"><path data-name="Path 2206" d="M9.639.002C4.395-.071.08 4.502.002 10.213s4.109 10.4 9.352 10.473 9.558-4.5 9.637-10.211S14.882.075 9.639.002" fill="#e3967c"/></g></g></g><g data-name="Group 2581"><g data-name="Group 2580"><g data-name="Group 2579" clip-path="url(#I)" transform="translate(.765 .833)"><path data-name="Path 2207" d="M9.574.001C4.366-.071.08 4.47.002 10.144s4.08 10.33 9.289 10.4 9.495-4.469 9.572-10.143S14.782.071 9.574.001" fill="#e2957c"/></g></g></g><g data-name="Group 2584"><g data-name="Group 2583"><g data-name="Group 2582" clip-path="url(#J)" transform="translate(.829 .902)"><path data-name="Path 2208" d="M9.509.001C4.336-.07.079 4.44.002 10.075s4.053 10.261 9.227 10.332 9.43-4.439 9.508-10.074S14.683.072 9.51.001" fill="#e2947b"/></g></g></g><g data-name="Group 2587"><g data-name="Group 2586"><g data-name="Group 2585" clip-path="url(#K)" transform="translate(.892 .972)"><path data-name="Path 2209" d="M9.444 0C4.306-.07.079 4.41.001 10.007s4.026 10.191 9.164 10.261 9.366-4.41 9.444-10.005S14.583.072 9.445 0" fill="#e2937a"/></g></g></g><g data-name="Group 2590"><g data-name="Group 2589"><g data-name="Group 2588" clip-path="url(#L)" transform="translate(.956 1.041)"><path data-name="Path 2210" d="M9.38.001C4.28-.07.08 4.38.002 9.938s4 10.121 9.1 10.191 9.3-4.379 9.378-9.937S14.48.071 9.38.001" fill="#e29279"/></g></g></g><g data-name="Group 2593"><g data-name="Group 2592"><g data-name="Group 2591" clip-path="url(#M)" transform="translate(1.02 1.11)"><path data-name="Path 2211" d="M9.317.001C4.249-.069.079 4.35.003 9.869s3.971 10.052 9.039 10.122 9.238-4.348 9.313-9.868S14.382.07 9.317.001" fill="#e29179"/></g></g></g><g data-name="Group 2596"><g data-name="Group 2595"><g data-name="Group 2594" clip-path="url(#N)" transform="translate(1.083 1.18)"><path data-name="Path 2212" d="M9.25.001C4.217-.068.076 4.32.001 9.801s3.944 9.981 8.976 10.051 9.174-4.319 9.249-9.8S14.282.07 9.25.001" fill="#e19078"/></g></g></g><g data-name="Group 2599"><g data-name="Group 2598"><g data-name="Group 2597" clip-path="url(#O)" transform="translate(1.147 1.249)"><path data-name="Path 2213" d="M9.186.001C4.186-.067.077 4.289.002 9.733s3.915 9.912 8.913 9.981 9.109-4.288 9.185-9.732S14.184.071 9.187.001" fill="#e18f77"/></g></g></g><g data-name="Group 2602"><g data-name="Group 2601"><g data-name="Group 2600" clip-path="url(#P)" transform="translate(1.211 1.319)"><path data-name="Path 2214" d="M9.121.001C4.159-.067.076 4.259.001 9.664s3.889 9.842 8.851 9.91 9.045-4.258 9.119-9.663S14.083.069 9.121.001" fill="#e18e76"/></g></g></g><g data-name="Group 2605"><g data-name="Group 2604"><g data-name="Group 2603" clip-path="url(#Q)" transform="translate(1.275 1.388)"><path data-name="Path 2215" d="M9.056.001C4.129-.067.075 4.229.001 9.596s3.86 9.772 8.788 9.84 8.981-4.228 9.054-9.595S13.983.069 9.056.001" fill="#e18d75"/></g></g></g><g data-name="Group 2608"><g data-name="Group 2607"><g data-name="Group 2606" clip-path="url(#R)" transform="translate(1.339 1.457)"><path data-name="Path 2216" d="M8.991.001C4.099-.066.074 4.201.001 9.527s3.833 9.7 8.725 9.77 8.917-4.2 8.99-9.526-3.833-9.7-8.725-9.77" fill="#e18c75"/></g></g></g><g data-name="Group 2611"><g data-name="Group 2610"><g data-name="Group 2609" clip-path="url(#S)" transform="translate(1.402 1.527)"><path data-name="Path 2217" d="M8.926.001C4.07-.066.073 4.168.001 9.458s3.805 9.633 8.662 9.7 8.853-4.168 8.926-9.458S13.784.068 8.927 0" fill="#e08b74"/></g></g></g><g data-name="Group 2614"><g data-name="Group 2613"><g data-name="Group 2612" clip-path="url(#T)" transform="translate(1.466 1.596)"><path data-name="Path 2218" d="M8.862.001C4.041-.065.074 4.139.001 9.39s3.778 9.563 8.6 9.629 8.788-4.137 8.861-9.389S13.684.067 8.862.001" fill="#e08a73"/></g></g></g><g data-name="Group 2617"><g data-name="Group 2616"><g data-name="Group 2615" clip-path="url(#U)" transform="translate(1.53 1.666)"><path data-name="Path 2219" d="M8.794.001C4.008-.065.07 4.107-.006 9.321s3.75 9.492 8.536 9.559 8.724-4.107 8.8-9.32S13.58.067 8.793.001" fill="#e08972"/></g></g></g><g data-name="Group 2620"><g data-name="Group 2619"><g data-name="Group 2618" clip-path="url(#V)" transform="translate(1.593 1.735)"><path data-name="Path 2220" d="M8.733.001C3.982-.065.073 4.078.002 9.253s3.722 9.423 8.473 9.488 8.661-4.076 8.731-9.251S13.484.067 8.733.001" fill="#e08872"/></g></g></g><g data-name="Group 2623"><g data-name="Group 2622"><g data-name="Group 2621" clip-path="url(#W)" transform="translate(1.657 1.805)"><path data-name="Path 2221" d="M8.668.001C3.952-.064.068 4.048.001 9.184s3.7 9.353 8.411 9.418 8.6-4.047 8.667-9.183S13.379.066 8.668.001" fill="#df8771"/></g></g></g><g data-name="Group 2626"><g data-name="Group 2625"><g data-name="Group 2624" clip-path="url(#X)" transform="translate(1.721 1.874)"><path data-name="Path 2222" d="M8.603.001C3.922-.063.071 4.017.003 9.115s3.668 9.284 8.348 9.349 8.532-4.017 8.6-9.115S13.284.065 8.603.001" fill="#df8670"/></g></g></g><g data-name="Group 2629"><g data-name="Group 2628"><g data-name="Group 2627" clip-path="url(#Y)" transform="translate(1.784 1.943)"><path data-name="Path 2223" d="M8.539.001C3.894-.063.071 3.987.002 9.047s3.64 9.214 8.285 9.278 8.468-3.987 8.537-9.047S13.184.065 8.539.001" fill="#df856f"/></g></g></g><g data-name="Group 2632"><g data-name="Group 2631"><g data-name="Group 2630" clip-path="url(#Z)" transform="translate(1.848 2.013)"><path data-name="Path 2224" d="M8.474.001C3.864-.062.074 3.957.001 8.979s3.613 9.143 8.223 9.207 8.4-3.956 8.473-8.978S13.084.064 8.474.001" fill="#df846f"/></g></g></g><g data-name="Group 2635"><g data-name="Group 2634"><g data-name="Group 2633" clip-path="url(#aa)" transform="translate(1.912 2.082)"><path data-name="Path 2225" d="M8.409.001C3.834-.062.07 3.927.001 8.91s3.585 9.074 8.16 9.137 8.339-3.925 8.408-8.909S12.984.064 8.41.001" fill="#df836e"/></g></g></g><g data-name="Group 2638"><g data-name="Group 2637"><g data-name="Group 2636" clip-path="url(#ab)" transform="translate(1.976 2.152)"><path data-name="Path 2226" d="M8.344 0C3.804-.062.069 3.9.001 8.841s3.557 9 8.1 9.067 8.276-3.9 8.343-8.841-3.556-9-8.1-9.067" fill="#de826d"/></g></g></g><g data-name="Group 2641"><g data-name="Group 2640"><g data-name="Group 2639" clip-path="url(#ac)" transform="translate(2.039 2.221)"><path data-name="Path 2227" d="M8.28.001C3.78-.061.069 3.866.001 8.773s3.53 8.934 8.034 9 8.212-3.865 8.279-8.772-3.53-8.934-8.034-9" fill="#de816c"/></g></g></g><g data-name="Group 2644"><g data-name="Group 2643"><g data-name="Group 2642" clip-path="url(#ad)" transform="translate(2.103 2.29)"><path data-name="Path 2228" d="M8.215.002C3.745-.059.068 3.837.001 8.702s3.5 8.865 7.972 8.927 8.147-3.836 8.214-8.7S12.687.064 8.216.003" fill="#de806b"/></g></g></g><g data-name="Group 2647"><g data-name="Group 2646"><g data-name="Group 2645" clip-path="url(#ae)" transform="translate(2.167 2.36)"><path data-name="Path 2229" d="M8.15.001C3.716-.06.068 3.806.001 8.636s3.474 8.795 7.909 8.856 8.082-3.805 8.149-8.635S12.585.057 8.151.001" fill="#de7f6b"/></g></g></g><g data-name="Group 2650"><g data-name="Group 2649"><g data-name="Group 2648" clip-path="url(#af)" transform="translate(2.231 2.429)"><path data-name="Path 2230" d="M8.085.001C3.685-.06.066 3.776 0 8.567s3.446 8.725 7.846 8.786 8.018-3.774 8.085-8.566S12.484.061 8.085.001" fill="#de7e6a"/></g></g></g><g data-name="Group 2653"><g data-name="Group 2652"><g data-name="Group 2651" clip-path="url(#ag)" transform="translate(2.294 2.499)"><path data-name="Path 2231" d="M8.02 0C3.656-.06.066 3.745 0 8.5s3.419 8.655 7.783 8.715 7.955-3.744 8.02-8.5S12.384.06 8.02 0" fill="#dd7d69"/></g></g></g><g data-name="Group 2656"><g data-name="Group 2655"><g data-name="Group 2654" clip-path="url(#ah)" transform="translate(2.358 2.568)"><path data-name="Path 2232" d="M7.957.001C3.628-.058.066 3.715.001 8.43s3.391 8.585 7.721 8.645 7.891-3.715 7.955-8.429S12.286.06 7.958.001" fill="#dd7c68"/></g></g></g><g data-name="Group 2659"><g data-name="Group 2658"><g data-name="Group 2657" clip-path="url(#ai)" transform="translate(2.422 2.637)"><path data-name="Path 2233" d="M7.891.001C3.598-.058.065 3.685 0 8.362s3.364 8.516 7.657 8.575 7.826-3.684 7.891-8.361S12.184.06 7.891.001" fill="#dd7b68"/></g></g></g><g data-name="Group 2662"><g data-name="Group 2661"><g data-name="Group 2660" clip-path="url(#aj)" transform="translate(2.486 2.707)"><path data-name="Path 2234" d="M7.827.001C3.569-.058.065 3.655.001 8.293s3.336 8.446 7.594 8.5 7.762-3.654 7.826-8.293S12.084.054 7.821 0" fill="#dd7a67"/></g></g></g><g data-name="Group 2665"><g data-name="Group 2664"><g data-name="Group 2663" clip-path="url(#ak)" transform="translate(2.549 2.776)"><path data-name="Path 2235" d="M7.762.001C3.539-.058.062 3.625.001 8.225s3.309 8.376 7.532 8.434 7.7-3.624 7.762-8.224S11.986.059 7.763.001" fill="#dd7a66"/></g></g></g><g data-name="Group 2668"><g data-name="Group 2667"><g data-name="Group 2666" clip-path="url(#al)" transform="translate(2.613 2.846)"><path data-name="Path 2236" d="M7.697.001C3.509-.057.063 3.595-.003 8.156s3.281 8.306 7.47 8.364 7.634-3.594 7.7-8.155S11.886.059 7.697.001" fill="#dc7965"/></g></g></g><g data-name="Group 2671"><g data-name="Group 2670"><g data-name="Group 2669" clip-path="url(#am)" transform="translate(2.677 2.915)"><path data-name="Path 2237" d="M7.633.001C3.48-.056.063 3.564.001 8.088s3.253 8.237 7.406 8.294 7.57-3.563 7.632-8.087S11.786.058 7.633.001" fill="#dc7864"/></g></g></g><g data-name="Group 2674"><g data-name="Group 2673"><g data-name="Group 2672" clip-path="url(#an)" transform="translate(2.74 2.985)"><path data-name="Path 2238" d="M7.568.001C3.45-.056.063 3.534 0 8.019s3.226 8.166 7.344 8.224 7.505-3.533 7.568-8.018S11.686.058 7.568.001" fill="#dc7764"/></g></g></g><g data-name="Group 2677"><g data-name="Group 2676"><g data-name="Group 2675" clip-path="url(#ao)" transform="translate(2.804 3.054)"><path data-name="Path 2239" d="M7.503.001c-4.082-.056-7.441 3.5-7.5 7.95s3.2 8.1 7.281 8.153 7.441-3.5 7.5-7.949-3.2-8.1-7.281-8.154" fill="#dc7663"/></g></g></g><g data-name="Group 2680"><g data-name="Group 2679"><g data-name="Group 2678" clip-path="url(#ap)" transform="translate(2.868 3.123)"><path data-name="Path 2240" d="M7.438.001C3.391-.055.061 3.474 0 7.882s3.171 8.027 7.218 8.083 7.378-3.473 7.438-7.881S11.485.057 7.438.002" fill="#db7562"/></g></g></g><g data-name="Group 2683"><g data-name="Group 2682"><g data-name="Group 2681" clip-path="url(#aq)" transform="translate(2.931 3.193)"><path data-name="Path 2241" d="M7.374.001C3.362-.055.06 3.443 0 7.813s3.144 7.958 7.156 8.013 7.313-3.443 7.374-7.812S11.386.056 7.374.001" fill="#db7461"/></g></g></g><g data-name="Group 2686"><g data-name="Group 2685"><g data-name="Group 2684" clip-path="url(#ar)" transform="translate(2.996 3.262)"><path data-name="Path 2242" d="M7.309.001C3.332-.054.06 3.413 0 7.745s3.116 7.888 7.093 7.943 7.249-3.413 7.309-7.745S11.286.056 7.309.001" fill="#db7361"/></g></g></g><g data-name="Group 2689"><g data-name="Group 2688"><g data-name="Group 2687" clip-path="url(#as)" transform="translate(3.059 3.332)"><path data-name="Path 2243" d="M7.244.001C3.303-.053.059 3.383 0 7.676s3.088 7.817 7.03 7.872 7.185-3.382 7.244-7.675S11.185.056 7.244.001" fill="#db7260"/></g></g></g><g data-name="Group 2692"><g data-name="Group 2691"><g data-name="Group 2690" clip-path="url(#at)" transform="translate(3.123 3.401)"><path data-name="Path 2244" d="M7.181.001C3.275-.053.061 3.353.002 7.608s3.06 7.748 6.967 7.8 7.121-3.352 7.18-7.607-3.06-7.748-6.967-7.8" fill="#db715f"/></g></g></g><g data-name="Group 2695"><g data-name="Group 2694"><g data-name="Group 2693" clip-path="url(#au)" transform="translate(3.187 3.47)"><path data-name="Path 2245" d="M7.115.001C3.243-.053.058 3.322 0 7.54s3.033 7.678 6.9 7.731 7.056-3.322 7.115-7.539S10.981.054 7.115.001" fill="#da705e"/></g></g></g><g data-name="Group 2698"><g data-name="Group 2697"><g data-name="Group 2696" clip-path="url(#av)" transform="translate(3.25 3.54)"><path data-name="Path 2246" d="M7.055.001C3.219-.052.062 3.293.004 7.471s3.005 7.608 6.842 7.661 6.993-3.291 7.051-7.47S10.89.054 7.055.001" fill="#da6f5d"/></g></g></g><g data-name="Group 2701"><g data-name="Group 2700"><g data-name="Group 2699" clip-path="url(#aw)" transform="translate(3.314 3.609)"><path data-name="Path 2247" d="M6.986.001C3.186-.051.057 3.262.001 7.401s2.978 7.539 6.779 7.591 6.928-3.261 6.985-7.4S10.787.053 6.986.001" fill="#da6e5d"/></g></g></g><g data-name="Group 2704"><g data-name="Group 2703"><g data-name="Group 2702" clip-path="url(#ax)" transform="translate(3.378 3.679)"><path data-name="Path 2248" d="M6.921-.004C3.154-.055.057 3.227 0 7.329s2.951 7.469 6.716 7.521 6.864-3.231 6.921-7.333S10.687.048 6.922-.004" fill="#da6d5c"/></g></g></g><g data-name="Group 2707"><g data-name="Group 2706"><g data-name="Group 2705" clip-path="url(#ay)" transform="translate(3.441 3.748)"><path data-name="Path 2249" d="M6.857-.002C3.126-.053.057 3.198.001 7.262s2.923 7.4 6.653 7.45 6.8-3.2 6.856-7.264-2.923-7.4-6.653-7.45" fill="#da6c5b"/></g></g></g><g data-name="Group 2710"><g data-name="Group 2709"><g data-name="Group 2708" clip-path="url(#az)" transform="translate(3.506 3.817)"><path data-name="Path 2250" d="M6.793 0C3.093-.051.057 3.171.002 7.2s2.9 7.329 6.59 7.38 6.736-3.17 6.792-7.2S10.484.051 6.793 0" fill="#d96b5a"/></g></g></g><g data-name="Group 2713"><g data-name="Group 2712"><g data-name="Group 2711" clip-path="url(#aA)" transform="translate(3.569 3.887)"><path data-name="Path 2251" d="M6.727.001C3.067-.049.055 3.142 0 7.128s2.868 7.259 6.528 7.31 6.672-3.14 6.727-7.127S10.387.052 6.727.002" fill="#d96a5a"/></g></g></g><g data-name="Group 2716"><g data-name="Group 2715"><g data-name="Group 2714" clip-path="url(#aB)" transform="translate(3.632 3.956)"><path data-name="Path 2252" d="M6.663.003C3.038-.047.055 3.114.001 7.062s2.84 7.189 6.465 7.239 6.608-3.11 6.662-7.058S10.288.054 6.663.003" fill="#d96959"/></g></g></g><g data-name="Group 2719"><g data-name="Group 2718"><g data-name="Group 2717" clip-path="url(#aC)" transform="translate(3.697 4.026)"><path data-name="Path 2253" d="M6.598.004c-3.589-.049-6.543 3.08-6.6 6.99s2.812 7.12 6.4 7.17 6.543-3.08 6.6-6.991-2.813-7.12-6.4-7.169" fill="#d96858"/></g></g></g><g data-name="Group 2722"><g data-name="Group 2721"><g data-name="Group 2720" clip-path="url(#aD)" transform="translate(3.76 4.095)"><path data-name="Path 2254" d="M6.532.001a7.037 7.037 0 106.34 7.1 6.742 6.742 0 00-6.34-7.1" fill="#d86757"/></g></g></g><g data-name="Group 2725"><g data-name="Group 2724"><g data-name="Group 2723" clip-path="url(#aE)" transform="translate(3.824 4.165)"><path data-name="Path 2255" d="M6.469 0a6.967 6.967 0 106.277 7.029A6.675 6.675 0 006.469 0" fill="#d86657"/></g></g></g><g data-name="Group 2728"><g data-name="Group 2727"><g data-name="Group 2726" clip-path="url(#aF)" transform="translate(3.888 4.234)"><path data-name="Path 2256" d="M6.404.001a6.9 6.9 0 106.214 6.958A6.609 6.609 0 006.404.001" fill="#d86556"/></g></g></g><g data-name="Group 2731"><g data-name="Group 2730"><g data-name="Group 2729" clip-path="url(#aG)" transform="translate(3.951 4.303)"><path data-name="Path 2257" d="M6.339.001a6.827 6.827 0 106.151 6.888A6.542 6.542 0 006.339.001" fill="#d86455"/></g></g></g><g data-name="Group 2734"><g data-name="Group 2733"><g data-name="Group 2732" clip-path="url(#aH)" transform="translate(4.015 4.373)"><path data-name="Path 2258" d="M6.271.001a6.758 6.758 0 106.088 6.818A6.475 6.475 0 006.271.001" fill="#d86354"/></g></g></g><g data-name="Group 2737"><g data-name="Group 2736"><g data-name="Group 2735" clip-path="url(#aI)" transform="translate(4.079 4.442)"><path data-name="Path 2259" d="M6.21.001a6.688 6.688 0 106.026 6.747A6.408 6.408 0 006.21.001" fill="#d76253"/></g></g></g><g data-name="Group 2740"><g data-name="Group 2739"><g data-name="Group 2738" clip-path="url(#aJ)" transform="translate(4.142 4.512)"><path data-name="Path 2260" d="M6.145 0a6.619 6.619 0 105.963 6.677A6.342 6.342 0 006.145 0" fill="#d76153"/></g></g></g><g data-name="Group 2743"><g data-name="Group 2742"><g data-name="Group 2741" clip-path="url(#aK)" transform="translate(4.206 4.581)"><path data-name="Path 2261" d="M6.081.001a6.549 6.549 0 105.9 6.607 6.276 6.276 0 00-5.9-6.607" fill="#d76052"/></g></g></g><g data-name="Group 2746"><g data-name="Group 2745"><g data-name="Group 2744" clip-path="url(#aL)" transform="translate(4.27 4.65)"><path data-name="Path 2262" d="M6.016.001a6.479 6.479 0 105.837 6.536A6.207 6.207 0 006.016.001" fill="#d75f51"/></g></g></g><g data-name="Group 2749"><g data-name="Group 2748"><g data-name="Group 2747" clip-path="url(#aM)" transform="translate(4.334 4.72)"><path data-name="Path 2263" d="M5.951 0a6.409 6.409 0 105.775 6.466A6.142 6.142 0 005.951 0" fill="#d75e50"/></g></g></g><g data-name="Group 2752"><g data-name="Group 2751"><g data-name="Group 2750" clip-path="url(#aN)" transform="translate(4.397 4.789)"><path data-name="Path 2264" d="M5.887.001a6.34 6.34 0 105.712 6.4 6.075 6.075 0 00-5.712-6.4" fill="#d65d50"/></g></g></g><g data-name="Group 2755"><g data-name="Group 2754"><g data-name="Group 2753" clip-path="url(#aO)" transform="translate(4.461 4.859)"><path data-name="Path 2265" d="M5.822 0a6.27 6.27 0 105.649 6.326A6.008 6.008 0 005.822 0" fill="#d65c4f"/></g></g></g><g data-name="Group 2758"><g data-name="Group 2757"><g data-name="Group 2756" clip-path="url(#aP)" transform="translate(4.525 4.928)"><path data-name="Path 2266" d="M5.757.001a6.2 6.2 0 105.591 6.255A5.941 5.941 0 005.762 0" fill="#d65b4e"/></g></g></g><g data-name="Group 2761"><g data-name="Group 2760"><g data-name="Group 2759" clip-path="url(#aQ)" transform="translate(4.589 4.997)"><path data-name="Path 2267" d="M5.692.001a6.131 6.131 0 105.523 6.185A5.874 5.874 0 005.692.001" fill="#d65a4d"/></g></g></g><g data-name="Group 2764"><g data-name="Group 2763"><g data-name="Group 2762" clip-path="url(#aR)" transform="translate(4.652 5.067)"><path data-name="Path 2268" d="M5.628.001a6.061 6.061 0 105.461 6.115A5.808 5.808 0 005.628.001" fill="#d5594c"/></g></g></g><g data-name="Group 2767"><g data-name="Group 2766"><g data-name="Group 2765" clip-path="url(#aS)" transform="translate(4.716 5.136)"><path data-name="Path 2269" d="M5.563.001a5.992 5.992 0 105.4 6.045 5.741 5.741 0 00-5.4-6.045" fill="#d5584c"/></g></g></g><g data-name="Group 2770"><g data-name="Group 2769"><g data-name="Group 2768" clip-path="url(#aT)" transform="translate(4.78 5.206)"><path data-name="Path 2270" d="M5.498 0a5.922 5.922 0 105.335 5.974A5.674 5.674 0 005.498 0" fill="#d5574b"/></g></g></g><g data-name="Group 2773"><g data-name="Group 2772"><g data-name="Group 2771" clip-path="url(#aU)" transform="translate(4.844 5.275)"><path data-name="Path 2271" d="M5.433.001a5.852 5.852 0 105.272 5.9 5.608 5.608 0 00-5.272-5.9" fill="#d5564a"/></g></g></g><g data-name="Group 2776"><g data-name="Group 2775"><g data-name="Group 2774" clip-path="url(#aV)" transform="translate(4.907 5.345)"><path data-name="Path 2272" d="M5.369 0a5.782 5.782 0 105.21 5.834A5.54 5.54 0 005.369 0" fill="#d55549"/></g></g></g><g data-name="Group 2779"><g data-name="Group 2778"><g data-name="Group 2777" clip-path="url(#aW)" transform="translate(4.971 5.414)"><path data-name="Path 2273" d="M5.304 0a5.713 5.713 0 105.147 5.763A5.475 5.475 0 005.304 0" fill="#d45449"/></g></g></g><g data-name="Group 2782"><g data-name="Group 2781"><g data-name="Group 2780" clip-path="url(#aX)" transform="translate(5.035 5.483)"><path data-name="Path 2274" d="M5.239.001a5.643 5.643 0 105.084 5.693A5.407 5.407 0 005.239.001" fill="#d45348"/></g></g></g><g data-name="Group 2785"><g data-name="Group 2784"><g data-name="Group 2783" clip-path="url(#aY)" transform="translate(5.098 5.553)"><path data-name="Path 2275" d="M5.175.001a5.574 5.574 0 105.021 5.623A5.339 5.339 0 005.175.001" fill="#d45247"/></g></g></g></g></g></g><g data-name="Group 3034"><g data-name="Group 3033" opacity=".38"><g data-name="Group 3032" clip-path="url(#aZ)" transform="translate(128.904 48.965)"><g data-name="Group 2791"><g data-name="Group 2790"><g data-name="Group 2789" clip-path="url(#aZ)"><path data-name="Path 2276" d="M11.259.001a11.106 11.106 0 1010.952 11.258A11.107 11.107 0 0011.259.001" fill="#e5a185"/></g></g></g><g data-name="Group 2794"><g data-name="Group 2793"><g data-name="Group 2792" clip-path="url(#ba)" transform="translate(.07 .069)"><path data-name="Path 2277" d="M11.189.002A11.037 11.037 0 1022.073 11.19 11.038 11.038 0 0011.189.002" fill="#e5a084"/></g></g></g><g data-name="Group 2797"><g data-name="Group 2796"><g data-name="Group 2795" clip-path="url(#bb)" transform="translate(.139 .139)"><path data-name="Path 2278" d="M11.118.001a10.968 10.968 0 1010.816 11.117A10.967 10.967 0 0011.118.001" fill="#e59f83"/></g></g></g><g data-name="Group 2800"><g data-name="Group 2799"><g data-name="Group 2798" clip-path="url(#bc)" transform="translate(.208 .208)"><path data-name="Path 2279" d="M11.05.001a10.9 10.9 0 1010.746 11.048A10.9 10.9 0 0011.05.001" fill="#e49e83"/></g></g></g><g data-name="Group 2803"><g data-name="Group 2802"><g data-name="Group 2801" clip-path="url(#bd)" transform="translate(.278 .277)"><path data-name="Path 2280" d="M10.978.002a10.829 10.829 0 1010.679 10.977A10.83 10.83 0 0010.978.002" fill="#e49d82"/></g></g></g><g data-name="Group 2806"><g data-name="Group 2805"><g data-name="Group 2804" clip-path="url(#be)" transform="translate(.347 .347)"><path data-name="Path 2281" d="M10.908.001a10.76 10.76 0 1010.61 10.907A10.76 10.76 0 0010.908.001" fill="#e49c81"/></g></g></g><g data-name="Group 2809"><g data-name="Group 2808"><g data-name="Group 2807" clip-path="url(#bf)" transform="translate(.417 .416)"><path data-name="Path 2282" d="M10.838.002a10.69 10.69 0 1010.541 10.836A10.69 10.69 0 0010.838.002" fill="#e49b80"/></g></g></g><g data-name="Group 2812"><g data-name="Group 2811"><g data-name="Group 2810" clip-path="url(#bg)" transform="translate(.486 .486)"><path data-name="Path 2283" d="M10.767.001a10.621 10.621 0 1010.474 10.766A10.621 10.621 0 0010.767.001" fill="#e49a80"/></g></g></g><g data-name="Group 2815"><g data-name="Group 2814"><g data-name="Group 2813" clip-path="url(#bh)" transform="translate(.556 .555)"><path data-name="Path 2284" d="M10.696.002a10.551 10.551 0 1010.4 10.7 10.551 10.551 0 00-10.4-10.7" fill="#e3997f"/></g></g></g><g data-name="Group 2818"><g data-name="Group 2817"><g data-name="Group 2816" clip-path="url(#bi)" transform="translate(.625 .625)"><path data-name="Path 2285" d="M10.626.001a10.482 10.482 0 1010.333 10.624A10.481 10.481 0 0010.622.001" fill="#e3987e"/></g></g></g><g data-name="Group 2821"><g data-name="Group 2820"><g data-name="Group 2819" clip-path="url(#bj)" transform="translate(.694 .694)"><path data-name="Path 2286" d="M10.561.001a10.412 10.412 0 1010.264 10.554A10.412 10.412 0 0010.561.001" fill="#e3977d"/></g></g></g><g data-name="Group 2824"><g data-name="Group 2823"><g data-name="Group 2822" clip-path="url(#bk)" transform="translate(.764 .763)"><path data-name="Path 2287" d="M10.486-.003a10.343 10.343 0 1010.2 10.484 10.342 10.342 0 00-10.2-10.484" fill="#e3967c"/></g></g></g><g data-name="Group 2827"><g data-name="Group 2826"><g data-name="Group 2825" clip-path="url(#bl)" transform="translate(.833 .833)"><path data-name="Path 2288" d="M10.415-.002a10.273 10.273 0 1010.131 10.414A10.274 10.274 0 0010.415-.002" fill="#e2957c"/></g></g></g><g data-name="Group 2830"><g data-name="Group 2829"><g data-name="Group 2828" clip-path="url(#bm)" transform="translate(.903 .902)"><path data-name="Path 2289" d="M10.344 0a10.2 10.2 0 1010.063 10.344A10.2 10.2 0 0010.344 0" fill="#e2947b"/></g></g></g><g data-name="Group 2833"><g data-name="Group 2832"><g data-name="Group 2831" clip-path="url(#bn)" transform="translate(.972 .972)"><path data-name="Path 2290" d="M10.274.001a10.135 10.135 0 109.993 10.273A10.134 10.134 0 0010.274.001" fill="#e2937a"/></g></g></g><g data-name="Group 2836"><g data-name="Group 2835"><g data-name="Group 2834" clip-path="url(#bo)" transform="translate(1.041 1.041)"><path data-name="Path 2291" d="M10.204.003a10.065 10.065 0 109.926 10.2 10.066 10.066 0 00-9.926-10.2" fill="#e29279"/></g></g></g><g data-name="Group 2839"><g data-name="Group 2838"><g data-name="Group 2837" clip-path="url(#bp)" transform="translate(1.111 1.11)"><path data-name="Path 2292" d="M10.134.005a10 10 0 109.857 10.133A10 10 0 0010.134.005" fill="#e29179"/></g></g></g><g data-name="Group 2842"><g data-name="Group 2841"><g data-name="Group 2840" clip-path="url(#bq)" transform="translate(1.18 1.18)"><path data-name="Path 2293" d="M10.063.001a9.926 9.926 0 109.789 10.062A9.927 9.927 0 0010.063.001" fill="#e19078"/></g></g></g><g data-name="Group 2845"><g data-name="Group 2844"><g data-name="Group 2843" clip-path="url(#br)" transform="translate(1.25 1.249)"><path data-name="Path 2294" d="M9.992.001a9.857 9.857 0 109.72 9.992A9.857 9.857 0 009.992.001" fill="#e18f77"/></g></g></g><g data-name="Group 2848"><g data-name="Group 2847"><g data-name="Group 2846" clip-path="url(#bs)" transform="translate(1.319 1.319)"><path data-name="Path 2295" d="M9.922.001a9.787 9.787 0 109.653 9.921A9.787 9.787 0 009.922.001" fill="#e18e76"/></g></g></g><g data-name="Group 2851"><g data-name="Group 2850"><g data-name="Group 2849" clip-path="url(#bt)" transform="translate(1.388 1.388)"><path data-name="Path 2296" d="M9.852.001a9.718 9.718 0 109.583 9.851A9.719 9.719 0 009.852.001" fill="#e18d75"/></g></g></g><g data-name="Group 2854"><g data-name="Group 2853"><g data-name="Group 2852" clip-path="url(#bu)" transform="translate(1.458 1.458)"><path data-name="Path 2297" d="M9.778.001a9.649 9.649 0 109.514 9.781A9.649 9.649 0 009.778.001" fill="#e18c75"/></g></g></g><g data-name="Group 2857"><g data-name="Group 2856"><g data-name="Group 2855" clip-path="url(#bv)" transform="translate(1.527 1.527)"><path data-name="Path 2298" d="M9.711.001a9.579 9.579 0 109.447 9.711A9.58 9.58 0 009.711.001" fill="#e08b74"/></g></g></g><g data-name="Group 2860"><g data-name="Group 2859"><g data-name="Group 2858" clip-path="url(#bw)" transform="translate(1.597 1.596)"><path data-name="Path 2299" d="M9.64.002a9.51 9.51 0 109.378 9.64A9.51 9.51 0 009.64.002" fill="#e08a73"/></g></g></g><g data-name="Group 2863"><g data-name="Group 2862"><g data-name="Group 2861" clip-path="url(#bx)" transform="translate(1.666 1.666)"><path data-name="Path 2300" d="M9.571.001a9.44 9.44 0 109.312 9.569A9.44 9.44 0 009.574.001" fill="#e08972"/></g></g></g><g data-name="Group 2866"><g data-name="Group 2865"><g data-name="Group 2864" clip-path="url(#by)" transform="translate(1.736 1.735)"><path data-name="Path 2301" d="M9.499.001a9.371 9.371 0 109.241 9.5 9.372 9.372 0 00-9.241-9.5" fill="#e08872"/></g></g></g><g data-name="Group 2869"><g data-name="Group 2868"><g data-name="Group 2867" clip-path="url(#bz)" transform="translate(1.805 1.805)"><path data-name="Path 2302" d="M9.43.001a9.3 9.3 0 109.173 9.429A9.3 9.3 0 009.43.001" fill="#df8771"/></g></g></g><g data-name="Group 2872"><g data-name="Group 2871"><g data-name="Group 2870" clip-path="url(#bA)" transform="translate(1.874 1.874)"><path data-name="Path 2303" d="M9.359.001a9.232 9.232 0 109.1 9.358 9.233 9.233 0 00-9.1-9.358" fill="#df8670"/></g></g></g><g data-name="Group 2875"><g data-name="Group 2874"><g data-name="Group 2873" clip-path="url(#bB)" transform="translate(1.944 1.943)"><path data-name="Path 2304" d="M9.289.002a9.163 9.163 0 109.036 9.288A9.163 9.163 0 009.289.002" fill="#df856f"/></g></g></g><g data-name="Group 2878"><g data-name="Group 2877"><g data-name="Group 2876" clip-path="url(#bC)" transform="translate(2.013 2.013)"><path data-name="Path 2305" d="M9.219.001a9.093 9.093 0 108.967 9.217A9.092 9.092 0 009.219.001" fill="#df846f"/></g></g></g><g data-name="Group 2881"><g data-name="Group 2880"><g data-name="Group 2879" clip-path="url(#bD)" transform="translate(2.083 2.082)"><path data-name="Path 2306" d="M9.147.002a9.024 9.024 0 108.9 9.148 9.024 9.024 0 00-8.9-9.148" fill="#df836e"/></g></g></g><g data-name="Group 2884"><g data-name="Group 2883"><g data-name="Group 2882" clip-path="url(#bE)" transform="translate(2.152 2.152)"><path data-name="Path 2307" d="M9.078.001a8.955 8.955 0 108.831 9.077A8.955 8.955 0 009.078.001" fill="#de826d"/></g></g></g><g data-name="Group 2887"><g data-name="Group 2886"><g data-name="Group 2885" clip-path="url(#bF)" transform="translate(2.222 2.221)"><path data-name="Path 2308" d="M9.006.001a8.885 8.885 0 108.762 9.006A8.885 8.885 0 009.006.001" fill="#de816c"/></g></g></g><g data-name="Group 2890"><g data-name="Group 2889"><g data-name="Group 2888" clip-path="url(#bG)" transform="translate(2.291 2.29)"><path data-name="Path 2309" d="M8.937.001a8.816 8.816 0 108.693 8.937A8.816 8.816 0 008.937.001" fill="#de806b"/></g></g></g><g data-name="Group 2893"><g data-name="Group 2892"><g data-name="Group 2891" clip-path="url(#bH)" transform="translate(2.36 2.36)"><path data-name="Path 2310" d="M8.867.001a8.746 8.746 0 108.624 8.866A8.746 8.746 0 008.867.001" fill="#de7f6b"/></g></g></g><g data-name="Group 2896"><g data-name="Group 2895"><g data-name="Group 2894" clip-path="url(#bI)" transform="translate(2.43 2.429)"><path data-name="Path 2311" d="M8.8.001a8.677 8.677 0 108.557 8.8A8.678 8.678 0 008.8.001" fill="#de7e6a"/></g></g></g><g data-name="Group 2899"><g data-name="Group 2898"><g data-name="Group 2897" clip-path="url(#bJ)" transform="translate(2.499 2.499)"><path data-name="Path 2312" d="M8.727.001a8.607 8.607 0 108.488 8.725A8.607 8.607 0 008.727.001" fill="#dd7d69"/></g></g></g><g data-name="Group 2902"><g data-name="Group 2901"><g data-name="Group 2900" clip-path="url(#bK)" transform="translate(2.569 2.568)"><path data-name="Path 2313" d="M8.656.001a8.538 8.538 0 108.42 8.655A8.538 8.538 0 008.656.001" fill="#dd7c68"/></g></g></g><g data-name="Group 2905"><g data-name="Group 2904"><g data-name="Group 2903" clip-path="url(#bL)" transform="translate(2.638 2.638)"><path data-name="Path 2314" d="M8.585.001a8.469 8.469 0 108.351 8.585A8.47 8.47 0 008.585.001" fill="#dd7b68"/></g></g></g><g data-name="Group 2908"><g data-name="Group 2907"><g data-name="Group 2906" clip-path="url(#bM)" transform="translate(2.707 2.707)"><path data-name="Path 2315" d="M8.516.001a8.4 8.4 0 108.283 8.514A8.4 8.4 0 008.516.001" fill="#dd7a67"/></g></g></g><g data-name="Group 2911"><g data-name="Group 2910"><g data-name="Group 2909" clip-path="url(#bN)" transform="translate(2.777 2.776)"><path data-name="Path 2316" d="M8.444.001a8.33 8.33 0 108.214 8.444A8.331 8.331 0 008.444.001" fill="#dd7a66"/></g></g></g><g data-name="Group 2914"><g data-name="Group 2913"><g data-name="Group 2912" clip-path="url(#bO)" transform="translate(2.846 2.846)"><path data-name="Path 2317" d="M8.375.001a8.26 8.26 0 108.146 8.373A8.26 8.26 0 008.375.001" fill="#dc7965"/></g></g></g><g data-name="Group 2917"><g data-name="Group 2916"><g data-name="Group 2915" clip-path="url(#bP)" transform="translate(2.916 2.915)"><path data-name="Path 2318" d="M8.304.001a8.191 8.191 0 108.077 8.3 8.191 8.191 0 00-8.077-8.3" fill="#dc7864"/></g></g></g><g data-name="Group 2920"><g data-name="Group 2919"><g data-name="Group 2918" clip-path="url(#bQ)" transform="translate(2.985 2.985)"><path data-name="Path 2319" d="M8.233.001a8.121 8.121 0 108.009 8.233A8.122 8.122 0 008.233.001" fill="#dc7764"/></g></g></g><g data-name="Group 2923"><g data-name="Group 2922"><g data-name="Group 2921" clip-path="url(#bR)" transform="translate(3.055 3.054)"><path data-name="Path 2320" d="M8.163.001a8.052 8.052 0 107.941 8.162A8.052 8.052 0 008.163.001" fill="#dc7663"/></g></g></g><g data-name="Group 2926"><g data-name="Group 2925"><g data-name="Group 2924" clip-path="url(#bS)" transform="translate(3.124 3.123)"><path data-name="Path 2321" d="M8.092.002a7.983 7.983 0 107.872 8.092A7.983 7.983 0 008.092.002" fill="#db7562"/></g></g></g><g data-name="Group 2929"><g data-name="Group 2928"><g data-name="Group 2927" clip-path="url(#bT)" transform="translate(3.193 3.193)"><path data-name="Path 2322" d="M8.018.001a7.914 7.914 0 107.8 8.022 7.913 7.913 0 00-7.8-8.022" fill="#db7461"/></g></g></g><g data-name="Group 2932"><g data-name="Group 2931"><g data-name="Group 2930" clip-path="url(#bU)" transform="translate(3.263 3.262)"><path data-name="Path 2323" d="M7.952.001a7.844 7.844 0 107.735 7.953A7.844 7.844 0 007.952.003" fill="#db7361"/></g></g></g><g data-name="Group 2935"><g data-name="Group 2934"><g data-name="Group 2933" clip-path="url(#bV)" transform="translate(3.332 3.332)"><path data-name="Path 2324" d="M7.881.001a7.775 7.775 0 107.667 7.881A7.775 7.775 0 007.881.001" fill="#db7260"/></g></g></g><g data-name="Group 2938"><g data-name="Group 2937"><g data-name="Group 2936" clip-path="url(#bW)" transform="translate(3.402 3.401)"><path data-name="Path 2325" d="M7.811.001a7.705 7.705 0 107.6 7.81 7.705 7.705 0 00-7.6-7.81" fill="#db715f"/></g></g></g><g data-name="Group 2941"><g data-name="Group 2940"><g data-name="Group 2939" clip-path="url(#bX)" transform="translate(3.471 3.471)"><path data-name="Path 2326" d="M7.74 0a7.636 7.636 0 107.53 7.74A7.635 7.635 0 007.74 0" fill="#da705e"/></g></g></g><g data-name="Group 2944"><g data-name="Group 2943"><g data-name="Group 2942" clip-path="url(#bY)" transform="translate(3.54 3.54)"><path data-name="Path 2327" d="M7.671.001a7.566 7.566 0 107.461 7.67A7.567 7.567 0 007.671.001" fill="#da6f5d"/></g></g></g><g data-name="Group 2947"><g data-name="Group 2946"><g data-name="Group 2945" clip-path="url(#bZ)" transform="translate(3.61 3.609)"><path data-name="Path 2328" d="M7.6.001a7.5 7.5 0 107.393 7.6A7.5 7.5 0 007.6.001" fill="#da6e5d"/></g></g></g><g data-name="Group 2950"><g data-name="Group 2949"><g data-name="Group 2948" clip-path="url(#ca)" transform="translate(3.679 3.679)"><path data-name="Path 2329" d="M7.529.001a7.428 7.428 0 107.325 7.529A7.428 7.428 0 007.529.001" fill="#da6d5c"/></g></g></g><g data-name="Group 2953"><g data-name="Group 2952"><g data-name="Group 2951" clip-path="url(#cb)" transform="translate(3.749 3.748)"><path data-name="Path 2330" d="M7.459.001a7.358 7.358 0 107.256 7.459A7.358 7.358 0 007.459.001" fill="#da6c5b"/></g></g></g><g data-name="Group 2956"><g data-name="Group 2955"><g data-name="Group 2954" clip-path="url(#cc)" transform="translate(3.818 3.818)"><path data-name="Path 2331" d="M7.389.001a7.289 7.289 0 107.187 7.388A7.29 7.29 0 007.389.001" fill="#d96b5a"/></g></g></g><g data-name="Group 2959"><g data-name="Group 2958"><g data-name="Group 2957" clip-path="url(#cd)" transform="translate(3.887 3.887)"><path data-name="Path 2332" d="M7.319.001a7.219 7.219 0 107.12 7.318A7.219 7.219 0 007.319.001" fill="#d96a5a"/></g></g></g><g data-name="Group 2962"><g data-name="Group 2961"><g data-name="Group 2960" clip-path="url(#ce)" transform="translate(3.957 3.956)"><path data-name="Path 2333" d="M7.248.001a7.15 7.15 0 107.051 7.247A7.149 7.149 0 007.248.001" fill="#d96959"/></g></g></g><g data-name="Group 2965"><g data-name="Group 2964"><g data-name="Group 2963" clip-path="url(#cf)" transform="translate(4.026 4.026)"><path data-name="Path 2334" d="M7.178.001a7.08 7.08 0 106.982 7.177A7.08 7.08 0 007.178.001" fill="#d96858"/></g></g></g><g data-name="Group 2968"><g data-name="Group 2967"><g data-name="Group 2966" clip-path="url(#cg)" transform="translate(4.096 4.095)"><path data-name="Path 2335" d="M7.107.001a7.011 7.011 0 106.914 7.107A7.011 7.011 0 007.107.001" fill="#d86757"/></g></g></g><g data-name="Group 2971"><g data-name="Group 2970"><g data-name="Group 2969" clip-path="url(#ch)" transform="translate(4.165 4.165)"><path data-name="Path 2336" d="M7.04.001a6.942 6.942 0 106.845 7.036A6.942 6.942 0 007.04.001" fill="#d86657"/></g></g></g><g data-name="Group 2974"><g data-name="Group 2973"><g data-name="Group 2972" clip-path="url(#ci)" transform="translate(4.234 4.234)"><path data-name="Path 2337" d="M6.967.001a6.872 6.872 0 106.777 6.966A6.872 6.872 0 006.967.001" fill="#d86556"/></g></g></g><g data-name="Group 2977"><g data-name="Group 2976"><g data-name="Group 2975" clip-path="url(#cj)" transform="translate(4.304 4.304)"><path data-name="Path 2338" d="M6.896 0a6.8 6.8 0 106.708 6.9A6.8 6.8 0 006.896 0" fill="#d86455"/></g></g></g><g data-name="Group 2980"><g data-name="Group 2979"><g data-name="Group 2978" clip-path="url(#ck)" transform="translate(4.373 4.373)"><path data-name="Path 2339" d="M6.826.001a6.733 6.733 0 106.639 6.826A6.734 6.734 0 006.826.001" fill="#d86354"/></g></g></g><g data-name="Group 2983"><g data-name="Group 2982"><g data-name="Group 2981" clip-path="url(#cl)" transform="translate(4.443 4.442)"><path data-name="Path 2340" d="M6.755.001a6.664 6.664 0 106.57 6.755A6.664 6.664 0 006.755.001" fill="#d76253"/></g></g></g><g data-name="Group 2986"><g data-name="Group 2985"><g data-name="Group 2984" clip-path="url(#cm)" transform="translate(4.512 4.512)"><path data-name="Path 2341" d="M6.685 0a6.594 6.594 0 106.5 6.685A6.6 6.6 0 006.685 0" fill="#d76153"/></g></g></g><g data-name="Group 2989"><g data-name="Group 2988"><g data-name="Group 2987" clip-path="url(#cn)" transform="translate(4.582 4.581)"><path data-name="Path 2342" d="M6.615.001a6.525 6.525 0 106.435 6.614A6.525 6.525 0 006.615.001" fill="#d76052"/></g></g></g><g data-name="Group 2992"><g data-name="Group 2991"><g data-name="Group 2990" clip-path="url(#co)" transform="translate(4.651 4.651)"><path data-name="Path 2343" d="M6.545 0a6.455 6.455 0 106.366 6.544A6.455 6.455 0 006.545 0" fill="#d75f51"/></g></g></g><g data-name="Group 2995"><g data-name="Group 2994"><g data-name="Group 2993" clip-path="url(#cp)" transform="translate(4.72 4.72)"><path data-name="Path 2344" d="M6.474.001a6.386 6.386 0 106.3 6.474 6.387 6.387 0 00-6.3-6.474" fill="#d75e50"/></g></g></g><g data-name="Group 2998"><g data-name="Group 2997"><g data-name="Group 2996" clip-path="url(#cq)" transform="translate(4.79 4.789)"><path data-name="Path 2345" d="M6.404.001a6.317 6.317 0 106.23 6.4 6.318 6.318 0 00-6.23-6.4" fill="#d65d50"/></g></g></g><g data-name="Group 3001"><g data-name="Group 3000"><g data-name="Group 2999" clip-path="url(#cr)" transform="translate(4.859 4.859)"><path data-name="Path 2346" d="M6.334.001a6.247 6.247 0 106.16 6.333A6.248 6.248 0 006.334.001" fill="#d65c4f"/></g></g></g><g data-name="Group 3004"><g data-name="Group 3003"><g data-name="Group 3002" clip-path="url(#cs)" transform="translate(4.929 4.928)"><path data-name="Path 2347" d="M6.263.001a6.178 6.178 0 106.093 6.262A6.177 6.177 0 006.263.001" fill="#d65b4e"/></g></g></g><g data-name="Group 3007"><g data-name="Group 3006"><g data-name="Group 3005" clip-path="url(#ct)" transform="translate(4.998 4.998)"><path data-name="Path 2348" d="M6.193 0a6.108 6.108 0 106.024 6.192A6.109 6.109 0 006.193 0" fill="#d65a4d"/></g></g></g><g data-name="Group 3010"><g data-name="Group 3009"><g data-name="Group 3008" clip-path="url(#cu)" transform="translate(5.067 5.067)"><path data-name="Path 2349" d="M6.123.001a6.039 6.039 0 105.955 6.122A6.04 6.04 0 006.123.001" fill="#d5594c"/></g></g></g><g data-name="Group 3013"><g data-name="Group 3012"><g data-name="Group 3011" clip-path="url(#cv)" transform="translate(5.137 5.136)"><path data-name="Path 2350" d="M6.052-.003a5.97 5.97 0 105.887 6.052A5.969 5.969 0 006.052-.003" fill="#d5584c"/></g></g></g><g data-name="Group 3016"><g data-name="Group 3015"><g data-name="Group 3014" clip-path="url(#cw)" transform="translate(5.206 5.206)"><path data-name="Path 2351" d="M5.982-.002A5.9 5.9 0 1011.8 5.979 5.9 5.9 0 005.982-.002" fill="#d5574b"/></g></g></g><g data-name="Group 3019"><g data-name="Group 3018"><g data-name="Group 3017" clip-path="url(#cx)" transform="translate(5.276 5.275)"><path data-name="Path 2352" d="M5.911 0a5.831 5.831 0 105.75 5.911A5.831 5.831 0 005.911 0" fill="#d5564a"/></g></g></g><g data-name="Group 3022"><g data-name="Group 3021"><g data-name="Group 3020" clip-path="url(#cy)" transform="translate(5.345 5.345)"><path data-name="Path 2353" d="M5.841.001a5.761 5.761 0 105.682 5.84A5.761 5.761 0 005.841.001" fill="#d55549"/></g></g></g><g data-name="Group 3025"><g data-name="Group 3024"><g data-name="Group 3023" clip-path="url(#cz)" transform="translate(5.415 5.414)"><path data-name="Path 2354" d="M5.768.003a5.692 5.692 0 105.613 5.77A5.693 5.693 0 005.768.003" fill="#d45449"/></g></g></g><g data-name="Group 3028"><g data-name="Group 3027"><g data-name="Group 3026" clip-path="url(#cA)" transform="translate(5.484 5.484)"><path data-name="Path 2355" d="M5.7.004a5.622 5.622 0 105.545 5.7A5.622 5.622 0 005.7.004" fill="#d45348"/></g></g></g><g data-name="Group 3031"><g data-name="Group 3030"><g data-name="Group 3029" clip-path="url(#cB)" transform="translate(5.553 5.553)"><path data-name="Path 2356" d="M5.63 0a5.554 5.554 0 105.476 5.63A5.553 5.553 0 005.63 0" fill="#d45247"/></g></g></g></g></g></g><path data-name="Path 2357" d="M158.995 50.61c-2.9-1.042-6.4 1.574-7.824 5.846s-.225 8.58 2.674 9.624 6.4-1.574 7.824-5.846.225-8.58-2.674-9.624" fill="#e5a185"/><path data-name="Path 2358" d="M159.307 60.695a6.585 6.585 0 01-7.976-.56 28.647 28.647 0 01-5.894 17.366c-4.149 5.579-13.1 7.412-19.75 7.158-15.86-.607-20.024-5.461-23.275-12.008 2.225 7.18 7.7 13.831 20.175 14.7 23.109 1.615 29.487-8.015 30.4-21.719a3.94 3.94 0 00.858.444c2.9 1.043 6.4-1.574 7.824-5.846a11.506 11.506 0 00.59-3.252 7.164 7.164 0 01-2.952 3.717" fill="#d78c74"/><path data-name="Path 2359" d="M154.193 58.361l2.653.383a5.937 5.937 0 013.088-5.573c-5.04-1.828-5.741 5.19-5.741 5.19" fill="#d78c74"/><g data-name="Group 3037"><g data-name="Group 3036" opacity=".72"><g data-name="Group 3035" clip-path="url(#cC)" transform="translate(130.804 36.601)"><path data-name="Path 2360" d="M2.09 0s-4.934 9.969.36 16.266c0 0 4.358 1.6 5.977 1.5 1.2-.073 5.311-2.185 5.311-2.185s2.1-4.494 1.732-7.319S2.09 0 2.09 0" fill="#d78c74"/></g></g></g><path data-name="Path 2361" d="M116.14 68.21s-.468 1.557.3 2.323 2.969 2.768 9.825 2.44c6.467-.308 9.4-2.7 9.972-3.8a3.821 3.821 0 00-.078-2.708z" fill="#ce826e"/><g data-name="Group 3040"><g data-name="Group 3039" opacity=".72"><g data-name="Group 3038" clip-path="url(#cD)" transform="translate(107.496 37.097)"><path data-name="Path 2362" d="M.537 7.766a9.078 9.078 0 00-.452 4.305s1.748 3.647 3.022 4.085c1.422.49 7.759-.373 7.759-.373C16.596 9.605 14.633.005 14.633.005S1.364 5.244.533 7.771" fill="#d78c74"/></g></g></g><path data-name="Path 2363" d="M108.033 44.831c5.878-3.665 11.077-1.688 13.7-4.069 1-.908.382-4.719.382-4.719-14.079 1.517-14.079 8.788-14.079 8.788" fill="#422e26"/><path data-name="Path 2364" d="M132.894 35.896s-1.889 3.771-1.189 4.787c2.18 3.163 10.058 1.218 14.549 4.944 0 0 1.1-6.37-13.36-9.732" fill="#422e26"/><path data-name="Path 2365" d="M136.835 66.193v.023a.2.2 0 000-.023" fill="#6c332e"/><path data-name="Path 2366" d="M122.463 56.38s-4.164-3.051-5.66 2.263 9.1 8.508 12.028 2.96-4.633-15.942-4.633-15.942 1.478 6.389-1.735 10.718" fill="#e5a185"/><path data-name="Path 2367" d="M151.689 51.528c-.518 5.477-2.383 8.923-4.525 11.092a6.216 6.216 0 01-6.519 1.439 34.864 34.864 0 00-17.169-2.452s-15.826 8.61-19.6-1.55a28.9 28.9 0 01-1.565-8.53c-3.55 14.43-5.125 37.037 24.764 37.03 30.359-.008 26.246-23.313 26.246-23.313-1.456-5.116 1.221-13.713 1.221-13.713zm-14.283 19.594c-1.859 2.179-5.316 4.145-10.344 4.444-.475.028-.94.042-1.39.042a17.911 17.911 0 01-10.391-3.035 2.511 2.511 0 01-.112-4.059 35.707 35.707 0 0011.545 1.181 27.526 27.526 0 0010.265-2.531 2.574 2.574 0 01.427 3.958" fill="#4f372d"/><g data-name="Group 3043"><g data-name="Group 3042" opacity=".2"><g data-name="Group 3041" clip-path="url(#cE)" transform="translate(116.914 50.022)"><path data-name="Path 2368" d="M5.55 6.359S1.506 3.488 0 8.259a37.8 37.8 0 006.617 1.027A27.208 27.208 0 008.453.067l-.852-.071A11.284 11.284 0 015.55 6.355" fill="#fff"/></g></g></g><path data-name="Path 2369" d="M129.293 9.931c-29.383 1.946-25.112 34.516-25.112 34.516 1.749-9.684 7.8-21.7 12.428-21.934a17.648 17.648 0 0010.035 3.409c5.382.109 12.844-3.808 12.844-3.808 5.37-.126 11.51 16.5 12.228 29.891.164 3.065 2.826-.473 2.826-.473s3.542-43.509-25.25-41.6" fill="#4f372d"/><path data-name="Path 2370" d="M144.652 12.466c-8.688-13.258-37-9.408-37-9.408-2.746 15.045 7.773 18.435 7.773 18.435s24.511-4.369 28.22-1.751 10.952 23.654 10.952 23.654 6.266-21.956 1.646-30.033c-3.391-5.928-11.591-.9-11.591-.9" fill="#4f372d"/><path data-name="Path 2371" d="M118.604 0a8.169 8.169 0 001.819 4.017s29.688 20.169 24.228 8.45S118.604 0 118.604 0" fill="#4f372d"/><path data-name="Path 2372" d="M149.463 8.434c-1.671.258-2.064 1.048-2.064 1.048 1.2-2.2.374-5.188.374-5.188-3.262 1.868-2.938 4.473-2.938 4.473-1.6-3.349-6.522-4.389-6.522-4.389.159 2.767 3.112 5.591 3.271 5.677l2.555 3.893 5.3-.832-.523-2.364a2.9 2.9 0 00.552-2.319" fill="#4f372d"/><path data-name="Path 2373" d="M108.446 14.508c-8.634 2.626-6.134 37.02-6.134 37.02 1.749-9.685 9.671-28.777 14.3-29.015a30.5 30.5 0 01-8.164-8" fill="#422e26"/><g data-name="Group 3046"><g data-name="Group 3045" opacity=".12"><g data-name="Group 3044" clip-path="url(#cF)" transform="translate(142.042 12.213)"><path data-name="Path 2374" d="M.004.004c.014 0 .046-.006 0 0z" fill="#fff"/></g></g></g><g data-name="Group 3049"><g data-name="Group 3048" opacity=".12"><g data-name="Group 3047" clip-path="url(#cG)" transform="translate(142.042 12.103)"><path data-name="Path 2375" d="M.005 0z" fill="#fff"/></g></g></g><g data-name="Group 3052"><g data-name="Group 3051" opacity=".11"><g data-name="Group 3050" clip-path="url(#cH)" transform="translate(107.231 3.908)"><path data-name="Path 2377" d="M45.672 6.79c-1.058.168-2.174.431-3.326.693a24.019 24.019 0 01-8.454.668c-3.272-.439-6.143-1.9-9.049-3.37-1.466-.741-2.93-1.5-4.441-2.143C17.165 1.251 13.347-.111 9.778.006a14.981 14.981 0 00-5.123 1.263A11.06 11.06 0 00.997 3.714a10.335 10.335 0 00-.993 1.162A18.274 18.274 0 00.43 8.111c.112-.092.227-.185.351-.281a10.978 10.978 0 012.186-1.245 9.7 9.7 0 012.924-.742c4.247-.325 8.189 1.379 12.023 2.962 1.571.648 3.166 1.4 4.856 2.1a52.5 52.5 0 005.276 1.96 18.762 18.762 0 0010.019.355c.425-.118.846-.218 1.255-.343a28.469 28.469 0 004.27-1.807c1.227-.631 2.278-1.208 3.205-1.643a11.652 11.652 0 011.739-.7 5.245 5.245 0 00-2.862-1.937" fill="#e5912f"/></g></g></g><g data-name="Group 3055"><g data-name="Group 3054" opacity=".12"><g data-name="Group 3053" clip-path="url(#cI)" transform="translate(141.979 12.217)"><path data-name="Path 2378" d="M.001.001z" fill="#fff"/></g></g></g><path data-name="Path 2379" d="M116.696 60.129c.607 4.367 9.492 6.483 12.136 1.475a5.382 5.382 0 00.386-.959 26.4 26.4 0 01-12.522-.516" fill="#d78c74"/><g data-name="Group 3058"><g data-name="Group 3057" opacity=".19"><g data-name="Group 3056" clip-path="url(#cJ)" transform="translate(123.459 77.121)"><path data-name="Path 2380" d="M6.981.052a16.008 16.008 0 01-5.173.514A1.653 1.653 0 00.041 2.558c.26 1.152 1.345 2.239 4.7 1.843 3.275-.387 4.191-1.583 4.29-2.68A1.633 1.633 0 006.978.052"/></g></g></g><path data-name="Path 2381" d="M113.069 52.281c-4.135-.339-5.488-3.113-5.488-3.113s-.376 5.337 4.913 5.634a7.8 7.8 0 008.167-5.38s-3.288 3.212-7.592 2.859" fill="#381911"/><path data-name="Path 2382" d="M131.428 49.582s-.149 6.04 6.154 5.957c6.558-.086 7.452-4.542 7.452-4.542s-2.031 1.746-6.353 1.664c-5.437-.1-7.253-3.078-7.253-3.078" fill="#381911"/><path data-name="Path 2383" d="M124.174 102.386s-11.374 44.358-11.374 83.6c0 11.051 11.266 18.3 11.266 18.3s13.739-7.111 14.148-18.3c1.191-32.643-8.8-83.6-8.8-83.6z" fill="#b1b741"/><path data-name="Path 2384" d="M58.259 158.401c-5.76-.765-12.931 3.115-18.574 5.878s-7.991 1.614-7.991 1.614 4.229 2.442 4.171 9.2a10.009 10.009 0 01-5.638 9.108s9.812-.529 19.416-.47 17.081-1.175 18.639-2.18 7.318-3.815 5.516-11.75-9.777-10.639-15.538-11.4" fill="#fefefe"/><path data-name="Path 2385" d="M32.193 165.989a4.355 4.355 0 00-.649-.1c0 .006.706.429.707.434a4.729 4.729 0 01.037 1.246 4.317 4.317 0 011.124.916c1.264 1.4 1.919 3.924 1.752 6.561-.259 4.091-2.517 7.745-4.939 7.745h-.03a1.566 1.566 0 01-.256-.024 6.555 6.555 0 01-.269 1.385 2.872 2.872 0 00.51.05h.047c3.247 0 6.03-4.078 6.346-9.073.191-3.025-.6-6.031-2.125-7.719a4.564 4.564 0 00-2.254-1.424" fill="#e7e6f1"/><path data-name="Path 2386" d="M217.605 172.98c-.059-6.762 4.056-8.472 4.056-8.472s-2.233.417-7.876-2.346-12.814-6.642-18.574-5.878-13.736 3.467-15.538 11.4 3.616 11.122 5.243 12.008c2.772 1.511 9.309 1.981 18.913 1.922a164.75 164.75 0 0119.206 1.176 11.773 11.773 0 01-5.43-9.813" fill="#fefefe"/><path data-name="Path 2387" d="M37.493 165.225a16.751 16.751 0 01-2.048.625c1.46.475 6.265 2.542 6.123 9.185-.129 6.068-4.019 8.26-5.715 8.93.906-.032 1.895-.063 2.945-.093a10.776 10.776 0 004.181-8.806 10.261 10.261 0 00-5.486-9.84" fill="#e7e6f1"/><path data-name="Path 2388" d="M89.324 134.722a.728.728 0 00-.889.537c-1.33 5.624-3.479 17.84-4.691 24.915q.466-.953.9-1.868a320.908 320.908 0 00-.1 5.564c.931-5.523 3.7-21.7 5.274-28.336a.676.676 0 00-.5-.81" fill="#e7e6f1"/><path data-name="Path 2389" d="M223.386 181.685l-.112-.3c-2.423 0-4.709-3.843-4.968-7.895-.166-2.611.488-5.11 1.752-6.5a4.214 4.214 0 011.149-.864 4.935 4.935 0 01.012-1.277c0-.006.705-.373.707-.379s-.187.022-.686.118a4.314 4.314 0 00-2.216 1.337c-1.522 1.673-2.316 4.651-2.125 7.648.315 4.948 3.1 9.224 6.346 9.224l.047-.235a2.941 2.941 0 00.51-.049 4.206 4.206 0 01-.126-1.126c-.085.014-.2.3-.288.3" fill="#e7e6f1"/><path data-name="Path 2390" d="M180.969 162.645a.648.648 0 00.345.875.755.755 0 00.963-.334c3.128-6.12 12.845-6.93 14.865-7.031-.135-.392-.3-.863-.48-1.39-2.9.178-12.42 1.267-15.693 7.879" fill="#e7e6f1"/><path data-name="Path 2391" d="M211.904 172.919c-.135-6.3 4.182-8.485 5.872-9.1a27.192 27.192 0 01-1.842-.687 10.26 10.26 0 00-5.44 9.815 11.239 11.239 0 004.275 9.061c1.174.083 2.264.173 3.246.26-1.265-.475-5.969-2.691-6.11-9.351" fill="#e7e6f1"/><path data-name="Path 2392" d="M164.313 135.191a.659.659 0 00-.8-.486.744.744 0 00-.549.894c1.238 5.237 3.2 16.264 4.434 23.436v-3.175c.4.731.83 1.517 1.291 2.338-1.249-7.227-3.156-17.9-4.368-23.006" fill="#e7e6f1"/><path data-name="Path 2393" d="M90.501 145.719l22.656.411v-6.346l-21.9-.5zm2-5l19.241.44v3.529l-19.663-.355z" fill="#e7e6f1"/><path data-name="Path 2394" d="M138.549 139.785v6.345l22.971-.41-.683-6.435zm1.411 4.909v-3.53l19.611-.44.384 3.612z" fill="#e7e6f1"/><path data-name="Path 2395" d="M57.683 156.948c-.186.575-.335 1.039-.44 1.37h-.186c3 .243 11.309 1.418 14.147 7a.725.725 0 00.925.328.686.686 0 00.341-.949c-3.021-6-11.2-7.414-14.788-7.749" fill="#e7e6f1"/><path data-name="Path 2396" d="M102.284 240.046a.708.708 0 00-.571.775 37.787 37.787 0 01-.844 11.624.706.706 0 101.379.3 38.758 38.758 0 00.87-12.089.7.7 0 00-.829-.608" fill="#3d2523"/><path data-name="Path 2397" d="M105.804 240.051a.7.7 0 00-.487.819 29.4 29.4 0 01-.348 11.575.708.708 0 00.529.839.71.71 0 00.849-.544 30.5 30.5 0 00.351-12.165.7.7 0 00-.892-.525" fill="#3d2523"/><path data-name="Path 2398" d="M109.334 240.052a.7.7 0 00-.452.839 28.463 28.463 0 01.164 11.573.706.706 0 101.389.249 29.569 29.569 0 00-.186-12.178.7.7 0 00-.913-.484" fill="#3d2523"/><path data-name="Path 2399" d="M163.178 204.66H83.357a.766.766 0 00-.764.764v1.058a.766.766 0 00.764.765h79.821a.766.766 0 00.764-.765v-1.058a.766.766 0 00-.764-.764" fill="#7c7c7c"/><path data-name="Path 2400" d="M170.946 144.001H78.507a2.977 2.977 0 00-2.943 3.056l3.786 53.536a4.372 4.372 0 004.36 4.067h79.624a4.123 4.123 0 004.1-3.688l5.793-53.591c.143-1.349-.09-3.38-2.284-3.38" fill="#f2f2f2"/></g></g><g data-name="Group 3062"><g data-name="Group 3061" clip-path="url(#cK)" transform="translate(75.565 145.059)"><path data-name="Rectangle 1044" transform="translate(-.431 .002)" fill="url(#cL)" d="M0 0h98.225v61.612H0z"/></g></g></g></g></g></g></g></svg>