<svg xmlns="http://www.w3.org/2000/svg" xmlns:xlink="http://www.w3.org/1999/xlink" width="300" height="300"><defs><clipPath id="b"><path data-name="Rectangle 3196" transform="translate(970 2051)" fill="none" stroke="#707070" d="M0 0h300v300H0z"/></clipPath><clipPath id="c"><path data-name="Path 1844" d="M146.985 0c25.814 0 50.248 10.251 71.321 21.932 15.287 8.474 27 22.382 38.35 35.039 22.087 24.622 37.314 53.363 37.314 90.014 0 13.151.5 27.494-2.737 39.629-10.255 38.4-41.032 66.446-75.487 85.213-21.788 11.867-42.367 22.143-68.762 22.143-34.5 0-65.613-16.945-90.8-36.934C22.369 230.2 0 193.662 0 146.985c0-37.666 17.861-68.857 41.2-94.91C68.071 22.072 103.474 0 146.985 0z" transform="rotate(74.99 -672.91 954.993)" fill="#deeeff"/></clipPath><clipPath id="d"><path data-name="Rectangle 652" fill="none" d="M0 0h192.323v261.263H0z"/></clipPath><clipPath id="e"><path data-name="Rectangle 466" fill="none" d="M0 0h32.42v49.39H0z"/></clipPath><clipPath id="f"><path data-name="Rectangle 548" fill="none" d="M0 0h23.032v25.087H0z"/></clipPath><clipPath id="g"><path data-name="Rectangle 468" fill="none" d="M0 0h22.888v24.93H0z"/></clipPath><clipPath id="h"><path data-name="Rectangle 469" fill="none" d="M0 0h22.744v24.773H0z"/></clipPath><clipPath id="i"><path data-name="Rectangle 470" fill="none" d="M0 0h22.6v24.617H0z"/></clipPath><clipPath id="j"><path data-name="Rectangle 471" fill="none" d="M0 0h22.456v24.46H0z"/></clipPath><clipPath id="k"><path data-name="Rectangle 472" fill="none" d="M0 0h22.312v24.303H0z"/></clipPath><clipPath id="l"><path data-name="Rectangle 473" fill="none" d="M0 0h22.168v24.146H0z"/></clipPath><clipPath id="m"><path data-name="Rectangle 474" fill="none" d="M0 0h22.024v23.99H0z"/></clipPath><clipPath id="n"><path data-name="Rectangle 475" fill="none" d="M0 0h21.88v23.833H0z"/></clipPath><clipPath id="o"><path data-name="Rectangle 476" fill="none" d="M0 0h21.736v23.676H0z"/></clipPath><clipPath id="p"><path data-name="Rectangle 477" fill="none" d="M0 0h21.592v23.519H0z"/></clipPath><clipPath id="q"><path data-name="Rectangle 478" fill="none" d="M0 0h21.449v23.362H0z"/></clipPath><clipPath id="r"><path data-name="Rectangle 479" fill="none" d="M0 0h21.304v23.205H0z"/></clipPath><clipPath id="s"><path data-name="Rectangle 480" fill="none" d="M0 0h21.16v23.048H0z"/></clipPath><clipPath id="t"><path data-name="Rectangle 481" fill="none" d="M0 0h21.017v22.892H0z"/></clipPath><clipPath id="u"><path data-name="Rectangle 482" fill="none" d="M0 0h20.873v22.735H0z"/></clipPath><clipPath id="v"><path data-name="Rectangle 483" fill="none" d="M0 0h20.729v22.578H0z"/></clipPath><clipPath id="w"><path data-name="Rectangle 484" fill="none" d="M0 0h20.585v22.422H0z"/></clipPath><clipPath id="x"><path data-name="Rectangle 485" fill="none" d="M0 0h20.441v22.265H0z"/></clipPath><clipPath id="y"><path data-name="Rectangle 486" fill="none" d="M0 0h20.297v22.108H0z"/></clipPath><clipPath id="z"><path data-name="Rectangle 487" fill="none" d="M0 0h20.153v21.951H0z"/></clipPath><clipPath id="A"><path data-name="Rectangle 488" fill="none" d="M0 0h20.009v21.795H0z"/></clipPath><clipPath id="B"><path data-name="Rectangle 489" fill="none" d="M0 0h19.865v21.638H0z"/></clipPath><clipPath id="C"><path data-name="Rectangle 490" fill="none" d="M0 0h19.721v21.481H0z"/></clipPath><clipPath id="D"><path data-name="Rectangle 491" fill="none" d="M0 0h19.577v21.324H0z"/></clipPath><clipPath id="E"><path data-name="Rectangle 492" fill="none" d="M0 0h19.433v21.167H0z"/></clipPath><clipPath id="F"><path data-name="Rectangle 493" fill="none" d="M0 0h19.289v21.01H0z"/></clipPath><clipPath id="G"><path data-name="Rectangle 494" fill="none" d="M0 0h19.145v20.853H0z"/></clipPath><clipPath id="H"><path data-name="Rectangle 495" fill="none" d="M0 0h19.001v20.697H0z"/></clipPath><clipPath id="I"><path data-name="Rectangle 496" fill="none" d="M0 0h18.857v20.54H0z"/></clipPath><clipPath id="J"><path data-name="Rectangle 497" fill="none" d="M0 0h18.714v20.383H0z"/></clipPath><clipPath id="K"><path data-name="Rectangle 498" fill="none" d="M0 0h18.569v20.227H0z"/></clipPath><clipPath id="L"><path data-name="Rectangle 499" fill="none" d="M0 0h18.425v20.07H0z"/></clipPath><clipPath id="M"><path data-name="Rectangle 500" fill="none" d="M0 0h18.282v19.913H0z"/></clipPath><clipPath id="N"><path data-name="Rectangle 501" fill="none" d="M0 0h18.138v19.756H0z"/></clipPath><clipPath id="O"><path data-name="Rectangle 502" fill="none" d="M0 0h17.994v19.6H0z"/></clipPath><clipPath id="P"><path data-name="Rectangle 503" fill="none" d="M0 0h17.85v19.442H0z"/></clipPath><clipPath id="Q"><path data-name="Rectangle 504" fill="none" d="M0 0h17.706v19.286H0z"/></clipPath><clipPath id="R"><path data-name="Rectangle 505" fill="none" d="M0 0h17.562v19.129H0z"/></clipPath><clipPath id="S"><path data-name="Rectangle 506" fill="none" d="M0 0h17.418v18.972H0z"/></clipPath><clipPath id="T"><path data-name="Rectangle 507" fill="none" d="M0 0h17.274v18.815H0z"/></clipPath><clipPath id="U"><path data-name="Rectangle 508" fill="none" d="M0 0h17.13v18.658H0z"/></clipPath><clipPath id="V"><path data-name="Rectangle 509" fill="none" d="M0 0h16.986v18.502H0z"/></clipPath><clipPath id="W"><path data-name="Rectangle 510" fill="none" d="M0 0h16.842v18.345H0z"/></clipPath><clipPath id="X"><path data-name="Rectangle 511" fill="none" d="M0 0h16.698v18.188H0z"/></clipPath><clipPath id="Y"><path data-name="Rectangle 512" fill="none" d="M0 0h16.554v18.031H0z"/></clipPath><clipPath id="Z"><path data-name="Rectangle 513" fill="none" d="M0 0h16.41v17.875H0z"/></clipPath><clipPath id="aa"><path data-name="Rectangle 514" fill="none" d="M0 0h16.266v17.718H0z"/></clipPath><clipPath id="ab"><path data-name="Rectangle 515" fill="none" d="M0 0h16.122v17.561H0z"/></clipPath><clipPath id="ac"><path data-name="Rectangle 516" fill="none" d="M0 0h15.979v17.404H0z"/></clipPath><clipPath id="ad"><path data-name="Rectangle 517" fill="none" d="M0 0h15.834v17.247H0z"/></clipPath><clipPath id="ae"><path data-name="Rectangle 518" fill="none" d="M0 0h15.69v17.09H0z"/></clipPath><clipPath id="af"><path data-name="Rectangle 519" fill="none" d="M0 0h15.547v16.934H0z"/></clipPath><clipPath id="ag"><path data-name="Rectangle 520" fill="none" d="M0 0h15.403v16.777H0z"/></clipPath><clipPath id="ah"><path data-name="Rectangle 521" fill="none" d="M0 0h15.258v16.62H0z"/></clipPath><clipPath id="ai"><path data-name="Rectangle 522" fill="none" d="M0 0h15.115v16.463H0z"/></clipPath><clipPath id="aj"><path data-name="Rectangle 523" fill="none" d="M0 0h14.971v16.306H0z"/></clipPath><clipPath id="ak"><path data-name="Rectangle 524" fill="none" d="M0 0h14.827v16.15H0z"/></clipPath><clipPath id="al"><path data-name="Rectangle 525" fill="none" d="M0 0h14.683v15.993H0z"/></clipPath><clipPath id="am"><path data-name="Rectangle 526" fill="none" d="M0 0h14.539v15.836H0z"/></clipPath><clipPath id="an"><path data-name="Rectangle 527" fill="none" d="M0 0h14.395v15.68H0z"/></clipPath><clipPath id="ao"><path data-name="Rectangle 528" fill="none" d="M0 0h14.251v15.523H0z"/></clipPath><clipPath id="ap"><path data-name="Rectangle 529" fill="none" d="M0 0h14.107v15.366H0z"/></clipPath><clipPath id="aq"><path data-name="Rectangle 530" fill="none" d="M0 0h13.963v15.209H0z"/></clipPath><clipPath id="ar"><path data-name="Rectangle 531" fill="none" d="M0 0h13.819v15.052H0z"/></clipPath><clipPath id="as"><path data-name="Rectangle 532" fill="none" d="M0 0h13.675v14.895H0z"/></clipPath><clipPath id="at"><path data-name="Rectangle 533" fill="none" d="M0 0h13.531v14.738H0z"/></clipPath><clipPath id="au"><path data-name="Rectangle 534" fill="none" d="M0 0h13.387v14.582H0z"/></clipPath><clipPath id="av"><path data-name="Rectangle 535" fill="none" d="M0 0h13.243v14.425H0z"/></clipPath><clipPath id="aw"><path data-name="Rectangle 536" fill="none" d="M0 0h13.099v14.268H0z"/></clipPath><clipPath id="ax"><path data-name="Rectangle 537" fill="none" d="M0 0h12.955v14.111H0z"/></clipPath><clipPath id="ay"><path data-name="Rectangle 538" fill="none" d="M0 0h12.812v13.955H0z"/></clipPath><clipPath id="az"><path data-name="Rectangle 539" fill="none" d="M0 0h12.667v13.798H0z"/></clipPath><clipPath id="aA"><path data-name="Rectangle 540" fill="none" d="M0 0h12.524v13.641H0z"/></clipPath><clipPath id="aB"><path data-name="Rectangle 541" fill="none" d="M0 0h12.38v13.485H0z"/></clipPath><clipPath id="aC"><path data-name="Rectangle 542" fill="none" d="M0 0h12.236v13.327H0z"/></clipPath><clipPath id="aD"><path data-name="Rectangle 543" fill="none" d="M0 0h12.092v13.171H0z"/></clipPath><clipPath id="aE"><path data-name="Rectangle 544" fill="none" d="M0 0h11.948v13.014H0z"/></clipPath><clipPath id="aF"><path data-name="Rectangle 545" fill="none" d="M0 0h11.804v12.857H0z"/></clipPath><clipPath id="aG"><path data-name="Rectangle 546" fill="none" d="M0 0h11.66v12.7H0z"/></clipPath><clipPath id="aH"><path data-name="Rectangle 547" fill="none" d="M0 0h11.516v12.543H0z"/></clipPath><clipPath id="aI"><path data-name="Rectangle 630" fill="none" d="M0 0h25.087v25.087H0z"/></clipPath><clipPath id="aJ"><path data-name="Rectangle 550" fill="none" d="M0 0h24.93v24.93H0z"/></clipPath><clipPath id="aK"><path data-name="Rectangle 551" fill="none" d="M0 0h24.773v24.773H0z"/></clipPath><clipPath id="aL"><path data-name="Rectangle 552" fill="none" d="M0 0h24.617v24.617H0z"/></clipPath><clipPath id="aM"><path data-name="Rectangle 553" fill="none" d="M0 0h24.46v24.46H0z"/></clipPath><clipPath id="aN"><path data-name="Rectangle 554" fill="none" d="M0 0h24.303v24.303H0z"/></clipPath><clipPath id="aO"><path data-name="Rectangle 555" fill="none" d="M0 0h24.146v24.147H0z"/></clipPath><clipPath id="aP"><path data-name="Rectangle 556" fill="none" d="M0 0h23.99v23.989H0z"/></clipPath><clipPath id="aQ"><path data-name="Rectangle 557" fill="none" d="M0 0h23.833v23.833H0z"/></clipPath><clipPath id="aR"><path data-name="Rectangle 558" fill="none" d="M0 0h23.676v23.676H0z"/></clipPath><clipPath id="aS"><path data-name="Rectangle 559" fill="none" d="M0 0h23.519v23.519H0z"/></clipPath><clipPath id="aT"><path data-name="Rectangle 560" fill="none" d="M0 0h23.362v23.362H0z"/></clipPath><clipPath id="aU"><path data-name="Rectangle 561" fill="none" d="M0 0h23.205v23.205H0z"/></clipPath><clipPath id="aV"><path data-name="Rectangle 562" fill="none" d="M0 0h23.048v23.049H0z"/></clipPath><clipPath id="aW"><path data-name="Rectangle 563" fill="none" d="M0 0h22.892v22.892H0z"/></clipPath><clipPath id="aX"><path data-name="Rectangle 564" fill="none" d="M0 0h22.735v22.735H0z"/></clipPath><clipPath id="aY"><path data-name="Rectangle 565" fill="none" d="M0 0h22.578v22.578H0z"/></clipPath><clipPath id="aZ"><path data-name="Rectangle 566" fill="none" d="M0 0h22.422v22.422H0z"/></clipPath><clipPath id="ba"><path data-name="Rectangle 567" fill="none" d="M0 0h22.265v22.265H0z"/></clipPath><clipPath id="bb"><path data-name="Rectangle 568" fill="none" d="M0 0h22.108v22.108H0z"/></clipPath><clipPath id="bc"><path data-name="Rectangle 569" fill="none" d="M0 0h21.951v21.952H0z"/></clipPath><clipPath id="bd"><path data-name="Rectangle 570" fill="none" d="M0 0h21.794v21.794H0z"/></clipPath><clipPath id="be"><path data-name="Rectangle 571" fill="none" d="M0 0h21.638v21.638H0z"/></clipPath><clipPath id="bf"><path data-name="Rectangle 572" fill="none" d="M0 0h21.481v21.481H0z"/></clipPath><clipPath id="bg"><path data-name="Rectangle 573" fill="none" d="M0 0h21.324v21.324H0z"/></clipPath><clipPath id="bh"><path data-name="Rectangle 574" fill="none" d="M0 0h21.167v21.167H0z"/></clipPath><clipPath id="bi"><path data-name="Rectangle 575" fill="none" d="M0 0h21.01v21.01H0z"/></clipPath><clipPath id="bj"><path data-name="Rectangle 576" fill="none" d="M0 0h20.853v20.854H0z"/></clipPath><clipPath id="bk"><path data-name="Rectangle 577" fill="none" d="M0 0h20.697v20.697H0z"/></clipPath><clipPath id="bl"><path data-name="Rectangle 578" fill="none" d="M0 0h20.54v20.54H0z"/></clipPath><clipPath id="bm"><path data-name="Rectangle 579" fill="none" d="M0 0h20.383v20.383H0z"/></clipPath><clipPath id="bn"><path data-name="Rectangle 580" fill="none" d="M0 0h20.227v20.227H0z"/></clipPath><clipPath id="bo"><path data-name="Rectangle 581" fill="none" d="M0 0h20.07v20.07H0z"/></clipPath><clipPath id="bp"><path data-name="Rectangle 582" fill="none" d="M0 0h19.913v19.913H0z"/></clipPath><clipPath id="bq"><path data-name="Rectangle 583" fill="none" d="M0 0h19.756v19.756H0z"/></clipPath><clipPath id="br"><path data-name="Rectangle 584" fill="none" d="M0 0h19.599v19.599H0z"/></clipPath><clipPath id="bs"><path data-name="Rectangle 585" fill="none" d="M0 0h19.442v19.443H0z"/></clipPath><clipPath id="bt"><path data-name="Rectangle 586" fill="none" d="M0 0h19.286v19.285H0z"/></clipPath><clipPath id="bu"><path data-name="Rectangle 587" fill="none" d="M0 0h19.129v19.129H0z"/></clipPath><clipPath id="bv"><path data-name="Rectangle 588" fill="none" d="M0 0h18.972v18.972H0z"/></clipPath><clipPath id="bw"><path data-name="Rectangle 589" fill="none" d="M0 0h18.815v18.815H0z"/></clipPath><clipPath id="bx"><path data-name="Rectangle 590" fill="none" d="M0 0h18.658v18.658H0z"/></clipPath><clipPath id="by"><path data-name="Rectangle 591" fill="none" d="M0 0h18.502v18.502H0z"/></clipPath><clipPath id="bz"><path data-name="Rectangle 592" fill="none" d="M0 0h18.345v18.345H0z"/></clipPath><clipPath id="bA"><path data-name="Rectangle 593" fill="none" d="M0 0h18.188v18.188H0z"/></clipPath><clipPath id="bB"><path data-name="Rectangle 594" fill="none" d="M0 0h18.031v18.031H0z"/></clipPath><clipPath id="bC"><path data-name="Rectangle 595" fill="none" d="M0 0h17.875v17.875H0z"/></clipPath><clipPath id="bD"><path data-name="Rectangle 596" fill="none" d="M0 0h17.718v17.718H0z"/></clipPath><clipPath id="bE"><path data-name="Rectangle 597" fill="none" d="M0 0h17.561v17.561H0z"/></clipPath><clipPath id="bF"><path data-name="Rectangle 598" fill="none" d="M0 0h17.404v17.404H0z"/></clipPath><clipPath id="bG"><path data-name="Rectangle 599" fill="none" d="M0 0h17.247v17.248H0z"/></clipPath><clipPath id="bH"><path data-name="Rectangle 600" fill="none" d="M0 0h17.091v17.09H0z"/></clipPath><clipPath id="bI"><path data-name="Rectangle 601" fill="none" d="M0 0h16.934v16.934H0z"/></clipPath><clipPath id="bJ"><path data-name="Rectangle 602" fill="none" d="M0 0h16.777v16.777H0z"/></clipPath><clipPath id="bK"><path data-name="Rectangle 603" fill="none" d="M0 0h16.62v16.62H0z"/></clipPath><clipPath id="bL"><path data-name="Rectangle 604" fill="none" d="M0 0h16.463v16.463H0z"/></clipPath><clipPath id="bM"><path data-name="Rectangle 605" fill="none" d="M0 0h16.306v16.306H0z"/></clipPath><clipPath id="bN"><path data-name="Rectangle 606" fill="none" d="M0 0h16.15v16.15H0z"/></clipPath><clipPath id="bO"><path data-name="Rectangle 607" fill="none" d="M0 0h15.993v15.993H0z"/></clipPath><clipPath id="bP"><path data-name="Rectangle 608" fill="none" d="M0 0h15.836v15.836H0z"/></clipPath><clipPath id="bQ"><path data-name="Rectangle 609" fill="none" d="M0 0h15.68v15.68H0z"/></clipPath><clipPath id="bR"><path data-name="Rectangle 610" fill="none" d="M0 0h15.523v15.523H0z"/></clipPath><clipPath id="bS"><path data-name="Rectangle 611" fill="none" d="M0 0h15.366v15.366H0z"/></clipPath><clipPath id="bT"><path data-name="Rectangle 612" fill="none" d="M0 0h15.209v15.209H0z"/></clipPath><clipPath id="bU"><path data-name="Rectangle 613" fill="none" d="M0 0h15.052v15.052H0z"/></clipPath><clipPath id="bV"><path data-name="Rectangle 614" fill="none" d="M0 0h14.895v14.895H0z"/></clipPath><clipPath id="bW"><path data-name="Rectangle 615" fill="none" d="M0 0h14.738v14.739H0z"/></clipPath><clipPath id="bX"><path data-name="Rectangle 616" fill="none" d="M0 0h14.582v14.582H0z"/></clipPath><clipPath id="bY"><path data-name="Rectangle 617" fill="none" d="M0 0h14.425v14.425H0z"/></clipPath><clipPath id="bZ"><path data-name="Rectangle 618" fill="none" d="M0 0h14.268v14.268H0z"/></clipPath><clipPath id="ca"><path data-name="Rectangle 619" fill="none" d="M0 0h14.111v14.111H0z"/></clipPath><clipPath id="cb"><path data-name="Rectangle 620" fill="none" d="M0 0h13.955v13.955H0z"/></clipPath><clipPath id="cc"><path data-name="Rectangle 621" fill="none" d="M0 0h13.798v13.798H0z"/></clipPath><clipPath id="cd"><path data-name="Rectangle 622" fill="none" d="M0 0h13.641v13.641H0z"/></clipPath><clipPath id="ce"><path data-name="Rectangle 623" fill="none" d="M0 0h13.485v13.484H0z"/></clipPath><clipPath id="cf"><path data-name="Rectangle 624" fill="none" d="M0 0h13.328v13.328H0z"/></clipPath><clipPath id="cg"><path data-name="Rectangle 625" fill="none" d="M0 0h13.171v13.171H0z"/></clipPath><clipPath id="ch"><path data-name="Rectangle 626" fill="none" d="M0 0h13.014v13.014H0z"/></clipPath><clipPath id="ci"><path data-name="Rectangle 627" fill="none" d="M0 0h12.857v12.857H0z"/></clipPath><clipPath id="cj"><path data-name="Rectangle 628" fill="none" d="M0 0h12.7v12.7H0z"/></clipPath><clipPath id="ck"><path data-name="Rectangle 629" fill="none" d="M0 0h12.543v12.544H0z"/></clipPath><clipPath id="cl"><path data-name="Rectangle 631" fill="none" d="M0 0h17.618v20.507H0z"/></clipPath><clipPath id="cm"><path data-name="Rectangle 632" fill="none" d="M0 0h18.976v20.424H0z"/></clipPath><clipPath id="cn"><path data-name="Path 1787" d="M111.983 105.315a6.323 6.323 0 00-.276 2.543c.315.028.643.052 1 .066a26.716 26.716 0 004.343-.128 6.213 6.213 0 00.313-.778c.748-2.362.151-4.657-1.334-5.128a1.837 1.837 0 00-.554-.085c-1.356 0-2.832 1.436-3.489 3.51" transform="translate(-111.677 -101.805)" fill="none"/></clipPath><clipPath id="co"><path data-name="Rectangle 635" fill="none" d="M0 0h4.057v2.898H0z"/></clipPath><clipPath id="cp"><path data-name="Path 1789" d="M164.312 105.378a5.858 5.858 0 00-.116 3.4 15.556 15.556 0 003.7.405c.239 0 .47 0 .694-.008a6.5 6.5 0 001.1-2.094c.748-2.361.151-4.657-1.334-5.127a1.837 1.837 0 00-.554-.085c-1.356 0-2.832 1.436-3.489 3.51" transform="translate(-163.996 -101.868)" fill="none"/></clipPath><clipPath id="cr"><path data-name="Rectangle 638" fill="none" d="M0 0h4.011v2.765H0z"/></clipPath><clipPath id="cs"><path data-name="Rectangle 639" fill="none" d="M0 0h21.62v5.077H0z"/></clipPath><clipPath id="ct"><path data-name="Rectangle 640" fill="none" d="M0 0h9.48v12.031H0z"/></clipPath><clipPath id="cu"><path data-name="Rectangle 641" fill="none" d="M0 0h.031v.005H0z"/></clipPath><clipPath id="cv"><path data-name="Path 1808" d="M174.56 23z" transform="translate(-174.56 -23)" fill="none"/></clipPath><clipPath id="cw"><path data-name="Rectangle 642" fill="none" d="M0 0h54.857v15.195H0z"/></clipPath><clipPath id="cx"><path data-name="Rectangle 643" fill="none" d="M0 0h.022v.002H0z"/></clipPath><clipPath id="cy"><path data-name="Rectangle 644" fill="none" d="M0 0h10.272v4.809H0z"/></clipPath><clipPath id="cz"><path data-name="Rectangle 645" fill="none" d="M0 0h14.268v21.892H0z"/></clipPath><clipPath id="cA"><path data-name="Rectangle 646" fill="none" d="M0 0h17.642v23.919H0z"/></clipPath><clipPath id="cB"><path data-name="Rectangle 647" fill="none" d="M0 0h10.634v21.826H0z"/></clipPath><clipPath id="cC"><path data-name="Rectangle 648" fill="none" d="M0 0h11.314v21.559H0z"/></clipPath><clipPath id="cD"><path data-name="Rectangle 649" fill="none" d="M0 0h88.526v73.99H0z"/></clipPath><clipPath id="cE"><path data-name="Rectangle 650" fill="none" d="M0 0h34.296v28.904H0z"/></clipPath><linearGradient id="a" x1="-7.456" y1="25.075" x2="-7.388" y2="25.075" gradientUnits="objectBoundingBox"><stop offset="0" stop-color="#5c3333"/><stop offset="1" stop-color="#231f20"/></linearGradient><linearGradient id="cq" x1="-9.822" y1="24.284" x2="-9.761" y2="24.284" xlink:href="#a"/></defs><g data-name="Mask Group 29" transform="translate(-970 -2051)" clip-path="url(#b)"><g data-name="Group 9312"><path data-name="Path 957" d="M1261.966 2164.668c6.686 24.936 3.112 51.194-2.714 74.576-4.227 16.962-14.628 31.879-23.915 46.121-18.064 27.713-41.884 49.867-77.29 59.36-12.703 3.405-26.429 7.603-38.99 7.62-39.75.038-74.814-22.428-101.867-50.851-17.106-17.974-32.363-35.192-39.2-60.69-8.935-33.326-.624-67.77 12.162-97.278 17.165-39.616 46.668-70.688 91.757-82.777 36.386-9.755 71.142-.58 102.354 15.218 35.943 18.186 66.434 46.669 77.703 88.7z" fill="#deeeff"/><g data-name="Group 13" transform="translate(800 665)" clip-path="url(#c)"><g data-name="Group 1893"><g data-name="Group 1892" clip-path="url(#d)" transform="translate(232.773 1428.369)"><g data-name="Group 1838"><g data-name="Group 1837" clip-path="url(#d)"><path data-name="Path 1607" d="M125.461 106.758a63.142 63.142 0 00-27.7-3.553l23.215 51.246 45.107 27.451 20.786-26.1s-28.7-36.518-61.407-49.04" fill="#6d7db3"/><path data-name="Path 1608" d="M151.42 149.461a19.492 19.492 0 005.438 29.292c11.861 6.81 24.453 6.973 31.708-1.541s3.229-17.035-5.478-26.423c-8.305-8.956-24.414-9.841-31.668-1.327" fill="#b6bdce"/><path data-name="Path 1609" d="M38.553 210.031c1.565-7.209 4.356-18.43 5.886-28.279a299.103 299.103 0 00-7.708-1.347 434.77 434.77 0 00-23.3-3.054A88.136 88.136 0 0013 188.24c-.082 11.86-5.7 31.954-8.2 50.72-.771 5.787-2.752 14.049-4.8 22.3h18.5c2.6-6.5 17.5-39.476 20.053-51.229" fill="#e5a185"/><g data-name="Group 1338"><g data-name="Group 1337" opacity=".64"><g data-name="Group 1336" clip-path="url(#e)" transform="translate(12.019 177.351)"><path data-name="Path 1610" d="M1.415 0A88.136 88.136 0 00.98 10.889 75.578 75.578 0 010 21.274a27.362 27.362 0 013.356.342c16.26 1.926 17.492 21.186 17.559 27.775a131.369 131.369 0 005.619-16.71c1.564-7.209 4.356-18.43 5.886-28.279a299.103 299.103 0 00-7.708-1.347A434.77 434.77 0 001.412.001" fill="#d58a73"/></g></g></g><path data-name="Path 1611" d="M12.063 188.146c4.6-.066 9.2.014 13.785.336a122.239 122.239 0 0114.343 1.9c2.624-18.849 11.645-42.058 16.143-51.259l3.115-32.933c-6.922 1.926-39.748 4.531-47.387 81.954" fill="#6d7db3"/><path data-name="Path 1612" d="M11.128 165.032s-2.653 21.824-2.2 27.146c0 0 .714 2.976 3.577 2.858 0 0 17.676-2.384 26.476 5.741 0 0 3.848-1.6 5.1-9.2 1.457-8.86 2.439-16.023 1.786-19.949-.982-5.9-30.546-13.295-34.742-6.592" fill="#b6bdce"/><path data-name="Path 1613" d="M40.811 249.432c-.173 4.177-.342 8.176-.5 11.83h90.965c.29-3.816.539-7.785.756-11.83z" fill="#363c42"/><path data-name="Path 1614" d="M46.398 56.499c-3.291 1.129-4.716 5.975-3.182 10.823s5.445 7.862 8.736 6.733 4.716-5.975 3.183-10.823-5.445-7.862-8.736-6.733" fill="#d78c74"/><path data-name="Path 1615" d="M81.791 76.175c-7.163-.033-13.9 2.85-13.921 7.971l-1.015 26.961c-.016 5.121 7.545 2.9 14.708 2.936s12.866.405 12.882-4.716l-1.75-24.02c.016-5.121-3.741-9.1-10.9-9.135" fill="#d78c74"/><path data-name="Path 1616" d="M67.101 12.412s0-.055-.019-.148c.01.1.019.148.019.148" fill="#381911"/><path data-name="Path 1617" d="M108.277 62.466c-.111-11.841-2.03-26.794-4.552-35.579-2.009-11.441-34.422-16.453-43.752-.59-2.945 7.34-7.714 21.026-9.19 34.584v-.232s-8.355 36.109 23.7 37.945 35.414-15.1 33.788-36.132z" fill="#e5a185"/><g data-name="Group 1584"><g data-name="Group 1583" opacity=".38"><g data-name="Group 1582" clip-path="url(#f)" transform="translate(50.551 54.961)"><g data-name="Group 1341"><g data-name="Group 1340"><g data-name="Group 1339" clip-path="url(#f)"><path data-name="Path 1618" d="M11.531 0C5.171-.008.008 5.6 0 12.53s5.141 12.549 11.5 12.557 11.522-5.6 11.531-12.529S17.89.008 11.531 0" fill="#e5a185"/></g></g></g><g data-name="Group 1344"><g data-name="Group 1343"><g data-name="Group 1342" clip-path="url(#g)" transform="translate(.072 .078)"><path data-name="Path 1619" d="M11.459.001C5.139-.007.008 5.568 0 12.453s5.109 12.471 11.429 12.479S22.88 19.365 22.888 12.48 17.782.008 11.459.001" fill="#e5a084"/></g></g></g><g data-name="Group 1347"><g data-name="Group 1346"><g data-name="Group 1345" clip-path="url(#h)" transform="translate(.144 .157)"><path data-name="Path 1620" d="M11.387 0C5.106-.008.008 5.532 0 12.373s5.077 12.392 11.357 12.4S22.736 19.241 22.744 12.4 17.667.008 11.387 0" fill="#e59f83"/></g></g></g><g data-name="Group 1350"><g data-name="Group 1349"><g data-name="Group 1348" clip-path="url(#i)" transform="translate(.216 .235)"><path data-name="Path 1621" d="M11.318 0C5.077-.008.012 5.5.003 12.295s5.044 12.314 11.285 12.322 11.306-5.5 11.315-12.295S17.559.008 11.318 0" fill="#e49e83"/></g></g></g><g data-name="Group 1353"><g data-name="Group 1352"><g data-name="Group 1351" clip-path="url(#j)" transform="translate(.288 .314)"><path data-name="Path 1622" d="M11.242 0C5.042-.008.007 5.462 0 12.216s5.012 12.236 11.213 12.243 11.235-5.462 11.243-12.216S17.443.007 11.242 0" fill="#e49d82"/></g></g></g><g data-name="Group 1356"><g data-name="Group 1355"><g data-name="Group 1354" clip-path="url(#k)" transform="translate(.36 .392)"><path data-name="Path 1623" d="M11.171 0C5.01-.007.008 5.427.001 12.138s4.98 12.157 11.141 12.165 11.163-5.427 11.171-12.138S17.333.008 11.172 0" fill="#e49c81"/></g></g></g><g data-name="Group 1359"><g data-name="Group 1358"><g data-name="Group 1357" clip-path="url(#l)" transform="translate(.432 .471)"><path data-name="Path 1624" d="M11.099 0C4.977-.007.008 5.392-.001 12.06s4.948 12.079 11.07 12.087 11.091-5.392 11.1-12.06S17.221.008 11.099.001" fill="#e49b80"/></g></g></g><g data-name="Group 1362"><g data-name="Group 1361"><g data-name="Group 1360" clip-path="url(#m)" transform="translate(.504 .549)"><path data-name="Path 1625" d="M11.027 0C4.945-.008.009 5.357 0 11.981s4.916 12 11 12.008 11.018-5.358 11.027-11.982-4.916-12-11-12.008" fill="#e49a80"/></g></g></g><g data-name="Group 1365"><g data-name="Group 1364"><g data-name="Group 1363" clip-path="url(#n)" transform="translate(.576 .627)"><path data-name="Path 1626" d="M10.954-.003C4.912-.01.008 5.319 0 11.897s4.884 11.922 10.926 11.93 10.946-5.322 10.954-11.9S16.996.005 10.954-.003" fill="#e3997f"/></g></g></g><g data-name="Group 1368"><g data-name="Group 1367"><g data-name="Group 1366" clip-path="url(#o)" transform="translate(.648 .706)"><path data-name="Path 1627" d="M10.882 0C4.882-.007.007 5.287 0 11.825s4.851 11.844 10.854 11.851 10.875-5.287 10.882-11.825S16.885.007 10.882 0" fill="#e3987e"/></g></g></g><g data-name="Group 1371"><g data-name="Group 1370"><g data-name="Group 1369" clip-path="url(#p)" transform="translate(.72 .784)"><path data-name="Path 1628" d="M10.81 0C4.847-.007.01 5.252 0 11.746s4.819 11.766 10.782 11.773 10.8-5.252 10.811-11.746S16.773.01 10.81 0" fill="#e3977d"/></g></g></g><g data-name="Group 1374"><g data-name="Group 1373"><g data-name="Group 1372" clip-path="url(#q)" transform="translate(.792 .862)"><path data-name="Path 1629" d="M10.738 0C4.815-.007.008 5.217 0 11.668s4.787 11.687 10.71 11.694 10.73-5.217 10.738-11.668S16.661.007 10.738 0" fill="#e3967c"/></g></g></g><g data-name="Group 1377"><g data-name="Group 1376"><g data-name="Group 1375" clip-path="url(#r)" transform="translate(.864 .941)"><path data-name="Path 1630" d="M10.666 0C4.783-.007.008 5.182 0 11.59s4.756 11.608 10.639 11.615 10.659-5.182 10.666-11.59S16.55.007 10.666 0" fill="#e2957c"/></g></g></g><g data-name="Group 1380"><g data-name="Group 1379"><g data-name="Group 1378" clip-path="url(#s)" transform="translate(.936 1.019)"><path data-name="Path 1631" d="M10.594-.001C4.751-.008.007 5.146 0 11.511s4.723 11.53 10.566 11.537 10.587-5.147 10.594-11.511S16.437.007 10.594 0" fill="#e2947b"/></g></g></g><g data-name="Group 1383"><g data-name="Group 1382"><g data-name="Group 1381" clip-path="url(#t)" transform="translate(1.008 1.098)"><path data-name="Path 1632" d="M10.522 0C4.722-.007.008 5.112 0 11.433s4.691 11.452 10.495 11.459 10.514-5.112 10.522-11.434S16.326.007 10.523 0" fill="#e2937a"/></g></g></g><g data-name="Group 1386"><g data-name="Group 1385"><g data-name="Group 1384" clip-path="url(#u)" transform="translate(1.08 1.176)"><path data-name="Path 1633" d="M10.45 0C4.686-.007.008 5.077 0 11.356s4.659 11.373 10.423 11.38 10.442-5.077 10.45-11.355S16.214.007 10.45 0" fill="#e29279"/></g></g></g><g data-name="Group 1389"><g data-name="Group 1388"><g data-name="Group 1387" clip-path="url(#v)" transform="translate(1.152 1.254)"><path data-name="Path 1634" d="M10.378 0C4.654-.007.007 5.042 0 11.276s4.627 11.295 10.35 11.3 10.371-5.042 10.378-11.277S16.102.004 10.378-.001" fill="#e29179"/></g></g></g><g data-name="Group 1392"><g data-name="Group 1391"><g data-name="Group 1390" clip-path="url(#w)" transform="translate(1.224 1.333)"><path data-name="Path 1635" d="M10.306 0C4.622-.007.006 5.007 0 11.2s4.595 11.215 10.274 11.222 10.3-5.007 10.306-11.2S15.99.006 10.306 0" fill="#e19078"/></g></g></g><g data-name="Group 1395"><g data-name="Group 1394"><g data-name="Group 1393" clip-path="url(#x)" transform="translate(1.296 1.411)"><path data-name="Path 1636" d="M10.234 0C4.59-.007.008 4.972 0 11.12s4.562 11.142 10.207 11.142 10.226-4.972 10.234-11.12S15.878.004 10.234-.003" fill="#e18f77"/></g></g></g><g data-name="Group 1398"><g data-name="Group 1397"><g data-name="Group 1396" clip-path="url(#y)" transform="translate(1.368 1.489)"><path data-name="Path 1637" d="M10.162 0C4.562-.007.008 4.937 0 11.042s4.531 11.059 10.135 11.066 10.154-4.937 10.162-11.041S15.766.007 10.162.001" fill="#e18e76"/></g></g></g><g data-name="Group 1401"><g data-name="Group 1400"><g data-name="Group 1399" clip-path="url(#z)" transform="translate(1.44 1.568)"><path data-name="Path 1638" d="M10.09 0C4.525-.007.007 4.9 0 10.963s4.5 10.981 10.064 10.988 10.082-4.9 10.089-10.963S15.653.007 10.09 0" fill="#e18d75"/></g></g></g><g data-name="Group 1404"><g data-name="Group 1403"><g data-name="Group 1402" clip-path="url(#A)" transform="translate(1.511 1.646)"><path data-name="Path 1639" d="M10.018 0C4.493-.007.008 4.867 0 10.886s4.466 10.9 9.991 10.909 10.011-4.867 10.018-10.886S15.543.009 10.018 0" fill="#e18c75"/></g></g></g><g data-name="Group 1407"><g data-name="Group 1406"><g data-name="Group 1405" clip-path="url(#B)" transform="translate(1.583 1.724)"><path data-name="Path 1640" d="M9.945 0C4.46-.007.007 4.832 0 10.807s4.434 10.824 9.919 10.831 9.938-4.832 9.945-10.807S15.43.007 9.945 0" fill="#e08b74"/></g></g></g><g data-name="Group 1410"><g data-name="Group 1409"><g data-name="Group 1408" clip-path="url(#C)" transform="translate(1.655 1.803)"><path data-name="Path 1641" d="M9.873 0C4.427-.007.007 4.8 0 10.728s4.4 10.746 9.848 10.753 9.866-4.8 9.873-10.729S15.321.006 9.873 0" fill="#e08a73"/></g></g></g><g data-name="Group 1413"><g data-name="Group 1412"><g data-name="Group 1411" clip-path="url(#D)" transform="translate(1.727 1.881)"><path data-name="Path 1642" d="M9.801.002C4.395-.005.007 4.764.001 10.652S4.37 21.319 9.776 21.326s9.795-4.762 9.8-10.651S15.207.008 9.801.001" fill="#e08972"/></g></g></g><g data-name="Group 1416"><g data-name="Group 1415"><g data-name="Group 1414" clip-path="url(#E)" transform="translate(1.799 1.96)"><path data-name="Path 1643" d="M9.73 0C4.364-.007.008 4.727 0 10.572s4.338 10.589 9.7 10.6 9.722-4.727 9.73-10.572S15.092.011 9.73 0" fill="#e08872"/></g></g></g><g data-name="Group 1419"><g data-name="Group 1418"><g data-name="Group 1417" clip-path="url(#F)" transform="translate(1.871 2.038)"><path data-name="Path 1644" d="M9.657 0C4.331-.007.007 4.692 0 10.494s4.3 10.51 9.632 10.517 9.65-4.692 9.657-10.494S14.984.007 9.657 0" fill="#df8771"/></g></g></g><g data-name="Group 1422"><g data-name="Group 1421"><g data-name="Group 1420" clip-path="url(#G)" transform="translate(1.943 2.117)"><path data-name="Path 1645" d="M9.585 0C4.299-.007.007 4.657 0 10.416s4.274 10.432 9.56 10.438 9.578-4.657 9.585-10.415S14.872.007 9.585.001" fill="#df8670"/></g></g></g><g data-name="Group 1425"><g data-name="Group 1424"><g data-name="Group 1423" clip-path="url(#H)" transform="translate(2.015 2.195)"><path data-name="Path 1646" d="M9.513 0C4.266-.007.006 4.622 0 10.337s4.241 10.353 9.488 10.36 9.507-4.621 9.513-10.337S14.76.006 9.513 0" fill="#df856f"/></g></g></g><g data-name="Group 1428"><g data-name="Group 1427"><g data-name="Group 1426" clip-path="url(#I)" transform="translate(2.087 2.273)"><path data-name="Path 1647" d="M9.441 0C4.234-.006.007 4.587 0 10.259s4.209 10.275 9.416 10.282 9.434-4.587 9.441-10.259S14.648.007 9.441 0" fill="#df846f"/></g></g></g><g data-name="Group 1431"><g data-name="Group 1430"><g data-name="Group 1429" clip-path="url(#J)" transform="translate(2.159 2.352)"><path data-name="Path 1648" d="M9.369 0C4.201-.006.007 4.552 0 10.18s4.176 10.2 9.344 10.2 9.362-4.551 9.369-10.18S14.537 0 9.369 0" fill="#df836e"/></g></g></g><g data-name="Group 1434"><g data-name="Group 1433"><g data-name="Group 1432" clip-path="url(#K)" transform="translate(2.231 2.43)"><path data-name="Path 1649" d="M9.297-.002c-5.128-.006-9.29 4.517-9.3 10.1s4.145 10.119 9.272 10.125 9.291-4.517 9.3-10.1S14.424.005 9.296-.001" fill="#de826d"/></g></g></g><g data-name="Group 1437"><g data-name="Group 1436"><g data-name="Group 1435" clip-path="url(#L)" transform="translate(2.303 2.509)"><path data-name="Path 1650" d="M9.225 0C4.137-.006.007 4.481 0 10.024s4.112 10.04 9.2 10.046 9.218-4.482 9.225-10.024S14.313.007 9.225.001" fill="#de816c"/></g></g></g><g data-name="Group 1440"><g data-name="Group 1439"><g data-name="Group 1438" clip-path="url(#M)" transform="translate(2.375 2.587)"><path data-name="Path 1651" d="M9.153 0C4.105-.006.007 4.447 0 9.945s4.081 9.961 9.129 9.967 9.146-4.446 9.153-9.945S14.201.006 9.153 0" fill="#de806b"/></g></g></g><g data-name="Group 1443"><g data-name="Group 1442"><g data-name="Group 1441" clip-path="url(#N)" transform="translate(2.447 2.666)"><path data-name="Path 1652" d="M9.081 0C4.072-.006.007 4.412 0 9.867s4.048 9.883 9.057 9.889 9.074-4.412 9.08-9.867S14.089.006 9.08 0" fill="#de7f6b"/></g></g></g><g data-name="Group 1446"><g data-name="Group 1445"><g data-name="Group 1444" clip-path="url(#O)" transform="translate(2.519 2.744)"><path data-name="Path 1653" d="M9.005 0c-4.969-.006-9 4.376-9.009 9.789s4.016 9.8 8.985 9.81 9-4.376 9.009-9.789S13.974.01 9.005 0" fill="#de7e6a"/></g></g></g><g data-name="Group 1449"><g data-name="Group 1448"><g data-name="Group 1447" clip-path="url(#P)" transform="translate(2.591 2.823)"><path data-name="Path 1654" d="M8.936 0C4.007-.006.006 4.341-.001 9.71s3.984 9.726 8.913 9.732 8.93-4.341 8.937-9.71S13.865.006 8.936 0" fill="#dd7d69"/></g></g></g><g data-name="Group 1452"><g data-name="Group 1451"><g data-name="Group 1450" clip-path="url(#Q)" transform="translate(2.663 2.901)"><path data-name="Path 1655" d="M8.864 0C3.974-.005.006 4.306 0 9.632s3.952 9.648 8.841 9.654 8.858-4.306 8.864-9.632S13.753.006 8.864 0" fill="#dd7c68"/></g></g></g><g data-name="Group 1455"><g data-name="Group 1454"><g data-name="Group 1453" clip-path="url(#R)" transform="translate(2.735 2.979)"><path data-name="Path 1656" d="M8.792 0C3.942-.006.006 4.271 0 9.554s3.919 9.569 8.769 9.575 8.786-4.271 8.792-9.554S13.642.006 8.792 0" fill="#dd7b68"/></g></g></g><g data-name="Group 1458"><g data-name="Group 1457"><g data-name="Group 1456" clip-path="url(#S)" transform="translate(2.807 3.058)"><path data-name="Path 1657" d="M8.721 0C3.911-.006.007 4.237 0 9.475s3.888 9.491 8.7 9.5 8.714-4.237 8.721-9.475S13.533.009 8.721 0" fill="#dd7a67"/></g></g></g><g data-name="Group 1461"><g data-name="Group 1460"><g data-name="Group 1459" clip-path="url(#T)" transform="translate(2.879 3.136)"><path data-name="Path 1658" d="M8.646 0C3.875-.005.004 4.2-.002 9.4s3.856 9.412 8.625 9.417 8.642-4.2 8.648-9.4S13.415.004 8.646-.002" fill="#dd7a66"/></g></g></g><g data-name="Group 1464"><g data-name="Group 1463"><g data-name="Group 1462" clip-path="url(#U)" transform="translate(2.951 3.214)"><path data-name="Path 1659" d="M8.576-.001C3.846-.001.006 4.166 0 9.319s3.824 9.334 8.554 9.339 8.57-4.167 8.576-9.319S13.306.005 8.576-.001" fill="#dc7965"/></g></g></g><g data-name="Group 1467"><g data-name="Group 1466"><g data-name="Group 1465" clip-path="url(#V)" transform="translate(3.023 3.293)"><path data-name="Path 1660" d="M8.504 0C3.813-.005.004 4.132.004 9.241s3.791 9.255 8.482 9.261 8.5-4.131 8.5-9.24S13.195.006 8.504.001" fill="#dc7864"/></g></g></g><g data-name="Group 1470"><g data-name="Group 1469"><g data-name="Group 1468" clip-path="url(#W)" transform="translate(3.095 3.371)"><path data-name="Path 1661" d="M8.432 0C3.781-.005.006 4.1 0 9.162s3.759 9.177 8.41 9.182 8.426-4.1 8.432-9.162S13.083.005 8.432 0" fill="#dc7764"/></g></g></g><g data-name="Group 1473"><g data-name="Group 1472"><g data-name="Group 1471" clip-path="url(#X)" transform="translate(3.167 3.449)"><path data-name="Path 1662" d="M8.36 0C3.749-.005.006 4.062 0 9.084s3.727 9.1 8.338 9.1 8.354-4.061 8.36-9.084S12.971 0 8.36 0" fill="#dc7663"/></g></g></g><g data-name="Group 1476"><g data-name="Group 1475"><g data-name="Group 1474" clip-path="url(#Y)" transform="translate(3.239 3.528)"><path data-name="Path 1663" d="M8.288.001C3.716-.004.006 4.028 0 9.007s3.7 9.02 8.266 9.025 8.282-4.026 8.288-9.005-3.7-9.02-8.266-9.026" fill="#db7562"/></g></g></g><g data-name="Group 1479"><g data-name="Group 1478"><g data-name="Group 1477" clip-path="url(#Z)" transform="translate(3.311 3.606)"><path data-name="Path 1664" d="M8.216 0C3.684-.005.006 3.992 0 8.927s3.663 8.942 8.194 8.947 8.21-3.992 8.216-8.927S12.747.005 8.216 0" fill="#db7461"/></g></g></g><g data-name="Group 1482"><g data-name="Group 1481"><g data-name="Group 1480" clip-path="url(#aa)" transform="translate(3.383 3.684)"><path data-name="Path 1665" d="M8.143.003C3.651-.002.005 3.96 0 8.852s3.63 8.863 8.122 8.869 8.138-3.957 8.144-8.849S12.635.009 8.143.003" fill="#db7361"/></g></g></g><g data-name="Group 1485"><g data-name="Group 1484"><g data-name="Group 1483" clip-path="url(#ab)" transform="translate(3.455 3.763)"><path data-name="Path 1666" d="M8.072 0C3.62-.005.006 3.921 0 8.771s3.6 8.785 8.05 8.79 8.066-3.921 8.072-8.771S12.522.005 8.072 0" fill="#db7260"/></g></g></g><g data-name="Group 1488"><g data-name="Group 1487"><g data-name="Group 1486" clip-path="url(#ac)" transform="translate(3.527 3.841)"><path data-name="Path 1667" d="M8 0C3.588 0 .006 3.887 0 8.693s3.566 8.706 7.979 8.711 7.994-3.886 8-8.692S12.413.006 8 0" fill="#db715f"/></g></g></g><g data-name="Group 1491"><g data-name="Group 1490"><g data-name="Group 1489" clip-path="url(#ad)" transform="translate(3.599 3.92)"><path data-name="Path 1668" d="M7.929 0C3.556-.005.007 3.852.001 8.614s3.534 8.628 7.907 8.633 7.922-3.851 7.928-8.614S12.302.005 7.929 0" fill="#da705e"/></g></g></g><g data-name="Group 1494"><g data-name="Group 1493"><g data-name="Group 1492" clip-path="url(#ae)" transform="translate(3.671 3.998)"><path data-name="Path 1669" d="M7.856 0C3.523 0 .006 3.816 0 8.536s3.5 8.55 7.835 8.555 7.85-3.817 7.855-8.536S12.19.005 7.855.001" fill="#da6f5d"/></g></g></g><g data-name="Group 1497"><g data-name="Group 1496"><g data-name="Group 1495" clip-path="url(#af)" transform="translate(3.743 4.076)"><path data-name="Path 1670" d="M7.783.001C3.49-.004.005 3.782 0 8.459s3.47 8.471 7.763 8.476 7.778-3.781 7.783-8.457S12.076.007 7.783.002" fill="#da6e5d"/></g></g></g><g data-name="Group 1500"><g data-name="Group 1499"><g data-name="Group 1498" clip-path="url(#ag)" transform="translate(3.815 4.155)"><path data-name="Path 1671" d="M7.711 0C3.458 0 .005 3.746 0 8.38s3.437 8.393 7.691 8.4 7.706-3.746 7.711-8.379S11.965.008 7.711.001" fill="#da6d5c"/></g></g></g><g data-name="Group 1503"><g data-name="Group 1502"><g data-name="Group 1501" clip-path="url(#ah)" transform="translate(3.887 4.233)"><path data-name="Path 1672" d="M7.639-.001C3.425-.001.005 3.711 0 8.299s3.406 8.314 7.619 8.319 7.634-3.711 7.639-8.3S11.852.004 7.639-.001" fill="#da6c5b"/></g></g></g><g data-name="Group 1506"><g data-name="Group 1505"><g data-name="Group 1504" clip-path="url(#ai)" transform="translate(3.959 4.312)"><path data-name="Path 1673" d="M7.571 0C3.397 0 .01 3.676.004 8.223s3.374 8.236 7.548 8.241 7.562-3.676 7.567-8.223S11.745.005 7.571 0" fill="#d96b5a"/></g></g></g><g data-name="Group 1509"><g data-name="Group 1508"><g data-name="Group 1507" clip-path="url(#aj)" transform="translate(4.031 4.39)"><path data-name="Path 1674" d="M7.495 0c-4.134 0-7.49 3.641-7.5 8.144s3.341 8.158 7.475 8.163 7.49-3.641 7.5-8.144S11.628.005 7.494 0" fill="#d96a5a"/></g></g></g><g data-name="Group 1512"><g data-name="Group 1511"><g data-name="Group 1510" clip-path="url(#ak)" transform="translate(4.103 4.469)"><path data-name="Path 1675" d="M7.423 0C3.329 0 .005 3.606 0 8.066s3.31 8.079 7.4 8.084 7.418-3.606 7.423-8.066S11.513.005 7.423 0" fill="#d96959"/></g></g></g><g data-name="Group 1515"><g data-name="Group 1514"><g data-name="Group 1513" clip-path="url(#al)" transform="translate(4.174 4.547)"><path data-name="Path 1676" d="M7.351 0C3.297 0 .006 3.571 0 7.988s3.277 8 7.332 8.006 7.345-3.571 7.351-7.988-3.277-8-7.332-8.005" fill="#d96858"/></g></g></g><g data-name="Group 1518"><g data-name="Group 1517"><g data-name="Group 1516" clip-path="url(#am)" transform="translate(4.247 4.625)"><path data-name="Path 1677" d="M7.279.001C3.264.001.005 3.537 0 7.91s3.245 7.922 7.26 7.927 7.274-3.537 7.279-7.909S11.294.006 7.279.001" fill="#d86757"/></g></g></g><g data-name="Group 1521"><g data-name="Group 1520"><g data-name="Group 1519" clip-path="url(#an)" transform="translate(4.319 4.704)"><path data-name="Path 1678" d="M7.206 0C3.231 0 .006 3.5-.001 7.831s3.213 7.844 7.189 7.849 7.2-3.5 7.207-7.831S11.182.006 7.207.001" fill="#d86657"/></g></g></g><g data-name="Group 1524"><g data-name="Group 1523"><g data-name="Group 1522" clip-path="url(#ao)" transform="translate(4.39 4.782)"><path data-name="Path 1679" d="M7.135-.005C3.2-.005.005 3.461 0 7.748s3.181 7.765 7.116 7.77 7.13-3.466 7.135-7.753S11.07 0 7.135-.005" fill="#d86556"/></g></g></g><g data-name="Group 1527"><g data-name="Group 1526"><g data-name="Group 1525" clip-path="url(#ap)" transform="translate(4.462 4.861)"><path data-name="Path 1680" d="M7.063 0C3.163 0 .005 3.431 0 7.674s3.149 7.686 7.044 7.691 7.057-3.431 7.063-7.674S10.958.005 7.063 0" fill="#d86455"/></g></g></g><g data-name="Group 1530"><g data-name="Group 1529"><g data-name="Group 1528" clip-path="url(#aq)" transform="translate(4.535 4.939)"><path data-name="Path 1681" d="M6.99 0C3.134 0 .004 3.4-.001 7.6s3.117 7.608 6.973 7.613 6.986-3.4 6.991-7.6S10.846.005 6.99 0" fill="#d86354"/></g></g></g><g data-name="Group 1533"><g data-name="Group 1532"><g data-name="Group 1531" clip-path="url(#ar)" transform="translate(4.606 5.018)"><path data-name="Path 1682" d="M6.919 0C3.103 0 .005 3.361 0 7.518s3.084 7.53 6.9 7.535 6.914-3.361 6.919-7.518S10.735.005 6.919 0" fill="#d76253"/></g></g></g><g data-name="Group 1536"><g data-name="Group 1535"><g data-name="Group 1534" clip-path="url(#as)" transform="translate(4.678 5.096)"><path data-name="Path 1683" d="M6.846 0C3.07 0 .005 3.326 0 7.439s3.052 7.451 6.828 7.456 6.841-3.326 6.846-7.439S10.622.005 6.846 0" fill="#d76153"/></g></g></g><g data-name="Group 1539"><g data-name="Group 1538"><g data-name="Group 1537" clip-path="url(#at)" transform="translate(4.75 5.174)"><path data-name="Path 1684" d="M6.774-.001C3.038-.001.005 3.29 0 7.361s3.02 7.373 6.757 7.377 6.769-3.291 6.774-7.361S10.511.004 6.774-.001" fill="#d76052"/></g></g></g><g data-name="Group 1542"><g data-name="Group 1541"><g data-name="Group 1540" clip-path="url(#au)" transform="translate(4.822 5.253)"><path data-name="Path 1685" d="M6.703 0c-3.7 0-6.7 3.256-6.7 7.283s2.988 7.294 6.685 7.3 6.7-3.256 6.7-7.283S10.4.005 6.703 0" fill="#d75f51"/></g></g></g><g data-name="Group 1545"><g data-name="Group 1544"><g data-name="Group 1543" clip-path="url(#av)" transform="translate(4.894 5.331)"><path data-name="Path 1686" d="M6.63.001C2.973.001.004 3.223 0 7.201s2.956 7.216 6.613 7.221 6.626-3.222 6.63-7.2S10.287.006 6.63.002" fill="#d75e50"/></g></g></g><g data-name="Group 1548"><g data-name="Group 1547"><g data-name="Group 1546" clip-path="url(#aw)" transform="translate(4.966 5.409)"><path data-name="Path 1687" d="M6.557 0C2.94 0 .004 3.186-.001 7.126s2.924 7.138 6.541 7.142 6.553-3.186 6.558-7.126S10.174.005 6.557 0" fill="#d65d50"/></g></g></g><g data-name="Group 1551"><g data-name="Group 1550"><g data-name="Group 1549" clip-path="url(#ax)" transform="translate(5.038 5.488)"><path data-name="Path 1688" d="M6.486.004C2.909.004.005 3.156 0 7.052s2.891 7.059 6.469 7.063 6.481-3.151 6.486-7.048A6.785 6.785 0 006.486.004" fill="#d65c4f"/></g></g></g><g data-name="Group 1554"><g data-name="Group 1553"><g data-name="Group 1552" clip-path="url(#ay)" transform="translate(5.11 5.566)"><path data-name="Path 1689" d="M6.414 0a7 7 0 106.4 6.985A6.71 6.71 0 006.414 0" fill="#d65b4e"/></g></g></g><g data-name="Group 1557"><g data-name="Group 1556"><g data-name="Group 1555" clip-path="url(#az)" transform="translate(5.182 5.644)"><path data-name="Path 1690" d="M6.342 0a6.924 6.924 0 106.326 6.907A6.634 6.634 0 006.342 0" fill="#d65a4d"/></g></g></g><g data-name="Group 1560"><g data-name="Group 1559"><g data-name="Group 1558" clip-path="url(#aA)" transform="translate(5.254 5.723)"><path data-name="Path 1691" d="M6.27-.001a6.846 6.846 0 106.253 6.828A6.56 6.56 0 006.27-.001" fill="#d5594c"/></g></g></g><g data-name="Group 1563"><g data-name="Group 1562"><g data-name="Group 1561" clip-path="url(#aB)" transform="translate(5.326 5.801)"><path data-name="Path 1692" d="M6.198 0a6.767 6.767 0 106.182 6.75A6.484 6.484 0 006.198 0" fill="#d5584c"/></g></g></g><g data-name="Group 1566"><g data-name="Group 1565"><g data-name="Group 1564" clip-path="url(#aC)" transform="translate(5.398 5.88)"><path data-name="Path 1693" d="M6.126 0a6.688 6.688 0 106.109 6.671A6.408 6.408 0 006.126 0" fill="#d5574b"/></g></g></g><g data-name="Group 1569"><g data-name="Group 1568"><g data-name="Group 1567" clip-path="url(#aD)" transform="translate(5.47 5.958)"><path data-name="Path 1694" d="M6.054 0a6.609 6.609 0 106.038 6.593A6.334 6.334 0 006.054 0" fill="#d5564a"/></g></g></g><g data-name="Group 1572"><g data-name="Group 1571"><g data-name="Group 1570" clip-path="url(#aE)" transform="translate(5.542 6.036)"><path data-name="Path 1695" d="M5.982 0a6.531 6.531 0 105.966 6.514A6.258 6.258 0 005.982 0" fill="#d55549"/></g></g></g><g data-name="Group 1575"><g data-name="Group 1574"><g data-name="Group 1573" clip-path="url(#aF)" transform="translate(5.614 6.115)"><path data-name="Path 1696" d="M5.91 0a6.452 6.452 0 105.894 6.435A6.183 6.183 0 005.91 0" fill="#d45449"/></g></g></g><g data-name="Group 1578"><g data-name="Group 1577"><g data-name="Group 1576" clip-path="url(#aG)" transform="translate(5.686 6.193)"><path data-name="Path 1697" d="M5.838 0a6.373 6.373 0 105.822 6.357A6.107 6.107 0 005.838 0" fill="#d45348"/></g></g></g><g data-name="Group 1581"><g data-name="Group 1580"><g data-name="Group 1579" clip-path="url(#aH)" transform="translate(5.758 6.272)"><path data-name="Path 1698" d="M5.766 0a6.295 6.295 0 105.75 6.278A6.032 6.032 0 005.766 0" fill="#d45247"/></g></g></g></g></g></g><g data-name="Group 1830"><g data-name="Group 1829" opacity=".38"><g data-name="Group 1828" clip-path="url(#aI)" transform="translate(80.684 54.999)"><g data-name="Group 1587"><g data-name="Group 1586"><g data-name="Group 1585" clip-path="url(#aI)"><path data-name="Path 1699" d="M12.559 0a12.543 12.543 0 1012.524 12.559A12.544 12.544 0 0012.554 0" fill="#e5a185"/></g></g></g><g data-name="Group 1590"><g data-name="Group 1589"><g data-name="Group 1588" clip-path="url(#aJ)" transform="translate(.078 .078)"><path data-name="Path 1700" d="M12.481 0a12.465 12.465 0 1012.45 12.48A12.465 12.465 0 0012.481 0" fill="#e5a084"/></g></g></g><g data-name="Group 1593"><g data-name="Group 1592"><g data-name="Group 1591" clip-path="url(#aK)" transform="translate(.157 .156)"><path data-name="Path 1701" d="M12.402.001a12.387 12.387 0 1012.372 12.4A12.386 12.386 0 0012.402.001" fill="#e59f83"/></g></g></g><g data-name="Group 1596"><g data-name="Group 1595"><g data-name="Group 1594" clip-path="url(#aL)" transform="translate(.235 .235)"><path data-name="Path 1702" d="M12.324 0a12.308 12.308 0 1012.294 12.323A12.307 12.307 0 0012.324 0" fill="#e49e83"/></g></g></g><g data-name="Group 1599"><g data-name="Group 1598"><g data-name="Group 1597" clip-path="url(#aM)" transform="translate(.314 .313)"><path data-name="Path 1703" d="M12.244.002a12.23 12.23 0 1012.215 12.244A12.23 12.23 0 0012.244.002" fill="#e49d82"/></g></g></g><g data-name="Group 1602"><g data-name="Group 1601"><g data-name="Group 1600" clip-path="url(#aN)" transform="translate(.392 .392)"><path data-name="Path 1704" d="M12.166 0a12.151 12.151 0 1012.137 12.166A12.152 12.152 0 0012.166 0" fill="#e49c81"/></g></g></g><g data-name="Group 1605"><g data-name="Group 1604"><g data-name="Group 1603" clip-path="url(#aO)" transform="translate(.471 .47)"><path data-name="Path 1705" d="M12.087 0a12.073 12.073 0 1012.059 12.087A12.073 12.073 0 0012.087 0" fill="#e49b80"/></g></g></g><g data-name="Group 1608"><g data-name="Group 1607"><g data-name="Group 1606" clip-path="url(#aP)" transform="translate(.549 .549)"><path data-name="Path 1706" d="M12.009-.001a11.995 11.995 0 1011.98 12.009A11.995 11.995 0 0012.009-.001" fill="#e49a80"/></g></g></g><g data-name="Group 1611"><g data-name="Group 1610"><g data-name="Group 1609" clip-path="url(#aQ)" transform="translate(.627 .627)"><path data-name="Path 1707" d="M11.936 0a11.916 11.916 0 1011.9 11.928 11.917 11.917 0 00-11.9-11.931" fill="#e3997f"/></g></g></g><g data-name="Group 1614"><g data-name="Group 1613"><g data-name="Group 1612" clip-path="url(#aR)" transform="translate(.706 .705)"><path data-name="Path 1708" d="M11.852 0a11.838 11.838 0 1011.824 11.853A11.839 11.839 0 0011.852 0" fill="#e3987e"/></g></g></g><g data-name="Group 1617"><g data-name="Group 1616"><g data-name="Group 1615" clip-path="url(#aS)" transform="translate(.784 .784)"><path data-name="Path 1709" d="M11.774 0a11.76 11.76 0 1011.745 11.774A11.76 11.76 0 0011.774 0" fill="#e3977d"/></g></g></g><g data-name="Group 1620"><g data-name="Group 1619"><g data-name="Group 1618" clip-path="url(#aT)" transform="translate(.862 .862)"><path data-name="Path 1710" d="M11.695-.002a11.681 11.681 0 1011.667 11.7 11.681 11.681 0 00-11.667-11.7" fill="#e3967c"/></g></g></g><g data-name="Group 1623"><g data-name="Group 1622"><g data-name="Group 1621" clip-path="url(#aU)" transform="translate(.941 .941)"><path data-name="Path 1711" d="M11.617 0a11.6 11.6 0 1011.588 11.617A11.6 11.6 0 0011.617 0" fill="#e2957c"/></g></g></g><g data-name="Group 1626"><g data-name="Group 1625"><g data-name="Group 1624" clip-path="url(#aV)" transform="translate(1.019 1.019)"><path data-name="Path 1712" d="M11.538 0a11.524 11.524 0 1011.51 11.538A11.524 11.524 0 0011.538 0" fill="#e2947b"/></g></g></g><g data-name="Group 1629"><g data-name="Group 1628"><g data-name="Group 1627" clip-path="url(#aW)" transform="translate(1.098 1.098)"><path data-name="Path 1713" d="M11.46 0a11.446 11.446 0 1011.432 11.459A11.446 11.446 0 0011.46 0" fill="#e2937a"/></g></g></g><g data-name="Group 1632"><g data-name="Group 1631"><g data-name="Group 1630" clip-path="url(#aX)" transform="translate(1.176 1.176)"><path data-name="Path 1714" d="M11.382 0a11.368 11.368 0 1011.35 11.381A11.367 11.367 0 0011.378 0" fill="#e29279"/></g></g></g><g data-name="Group 1635"><g data-name="Group 1634"><g data-name="Group 1633" clip-path="url(#aY)" transform="translate(1.254 1.254)"><path data-name="Path 1715" d="M11.303 0a11.289 11.289 0 1011.276 11.3A11.289 11.289 0 0011.303 0" fill="#e29179"/></g></g></g><g data-name="Group 1638"><g data-name="Group 1637"><g data-name="Group 1636" clip-path="url(#aZ)" transform="translate(1.333 1.333)"><path data-name="Path 1716" d="M11.224 0a11.211 11.211 0 1011.2 11.224A11.211 11.211 0 0011.224 0" fill="#e19078"/></g></g></g><g data-name="Group 1641"><g data-name="Group 1640"><g data-name="Group 1639" clip-path="url(#ba)" transform="translate(1.411 1.411)"><path data-name="Path 1717" d="M11.146.001a11.132 11.132 0 1011.119 11.146A11.132 11.132 0 0011.146.001" fill="#e18f77"/></g></g></g><g data-name="Group 1644"><g data-name="Group 1643"><g data-name="Group 1642" clip-path="url(#bb)" transform="translate(1.489 1.489)"><path data-name="Path 1718" d="M11.068 0a11.054 11.054 0 1011.04 11.068A11.054 11.054 0 0011.068 0" fill="#e18e76"/></g></g></g><g data-name="Group 1647"><g data-name="Group 1646"><g data-name="Group 1645" clip-path="url(#bc)" transform="translate(1.568 1.568)"><path data-name="Path 1719" d="M10.988 0a10.975 10.975 0 1010.963 10.989A10.975 10.975 0 0010.988 0" fill="#e18d75"/></g></g></g><g data-name="Group 1650"><g data-name="Group 1649"><g data-name="Group 1648" clip-path="url(#bd)" transform="translate(1.646 1.646)"><path data-name="Path 1720" d="M10.91 0a10.9 10.9 0 1010.884 10.91A10.9 10.9 0 0010.91 0" fill="#e18c75"/></g></g></g><g data-name="Group 1653"><g data-name="Group 1652"><g data-name="Group 1651" clip-path="url(#be)" transform="translate(1.724 1.724)"><path data-name="Path 1721" d="M10.828 0a10.819 10.819 0 1010.806 10.831A10.818 10.818 0 0010.828 0" fill="#e08b74"/></g></g></g><g data-name="Group 1656"><g data-name="Group 1655"><g data-name="Group 1654" clip-path="url(#bf)" transform="translate(1.803 1.803)"><path data-name="Path 1722" d="M10.753 0a10.74 10.74 0 1010.731 10.753A10.74 10.74 0 0010.756 0" fill="#e08a73"/></g></g></g><g data-name="Group 1659"><g data-name="Group 1658"><g data-name="Group 1657" clip-path="url(#bg)" transform="translate(1.881 1.881)"><path data-name="Path 1723" d="M10.675 0a10.662 10.662 0 1010.649 10.675A10.662 10.662 0 0010.675 0" fill="#e08972"/></g></g></g><g data-name="Group 1662"><g data-name="Group 1661"><g data-name="Group 1660" clip-path="url(#bh)" transform="translate(1.96 1.959)"><path data-name="Path 1724" d="M10.597 0a10.584 10.584 0 1010.571 10.6A10.583 10.583 0 0010.597 0" fill="#e08872"/></g></g></g><g data-name="Group 1665"><g data-name="Group 1664"><g data-name="Group 1663" clip-path="url(#bi)" transform="translate(2.038 2.038)"><path data-name="Path 1725" d="M10.518 0a10.505 10.505 0 1010.493 10.518A10.505 10.505 0 0010.518 0" fill="#df8771"/></g></g></g><g data-name="Group 1668"><g data-name="Group 1667"><g data-name="Group 1666" clip-path="url(#bj)" transform="translate(2.117 2.116)"><path data-name="Path 1726" d="M10.439.003a10.427 10.427 0 1010.414 10.44A10.427 10.427 0 0010.439.003" fill="#df8670"/></g></g></g><g data-name="Group 1671"><g data-name="Group 1670"><g data-name="Group 1669" clip-path="url(#bk)" transform="translate(2.195 2.195)"><path data-name="Path 1727" d="M10.361 0a10.348 10.348 0 1010.336 10.359A10.349 10.349 0 0010.361-.002" fill="#df856f"/></g></g></g><g data-name="Group 1674"><g data-name="Group 1673"><g data-name="Group 1672" clip-path="url(#bl)" transform="translate(2.273 2.273)"><path data-name="Path 1728" d="M10.283 0a10.27 10.27 0 1010.258 10.282A10.27 10.27 0 0010.283 0" fill="#df846f"/></g></g></g><g data-name="Group 1677"><g data-name="Group 1676"><g data-name="Group 1675" clip-path="url(#bm)" transform="translate(2.352 2.352)"><path data-name="Path 1729" d="M10.204 0a10.191 10.191 0 1010.179 10.2A10.191 10.191 0 0010.204 0" fill="#df836e"/></g></g></g><g data-name="Group 1680"><g data-name="Group 1679"><g data-name="Group 1678" clip-path="url(#bn)" transform="translate(2.43 2.43)"><path data-name="Path 1730" d="M10.126 0a10.113 10.113 0 1010.1 10.125A10.113 10.113 0 0010.126 0" fill="#de826d"/></g></g></g><g data-name="Group 1683"><g data-name="Group 1682"><g data-name="Group 1681" clip-path="url(#bo)" transform="translate(2.509 2.508)"><path data-name="Path 1731" d="M10.047 0A10.035 10.035 0 1020.07 10.047 10.035 10.035 0 0010.047 0" fill="#de816c"/></g></g></g><g data-name="Group 1686"><g data-name="Group 1685"><g data-name="Group 1684" clip-path="url(#bp)" transform="translate(2.587 2.587)"><path data-name="Path 1732" d="M9.968 0a9.956 9.956 0 109.944 9.968A9.956 9.956 0 009.968 0" fill="#de806b"/></g></g></g><g data-name="Group 1689"><g data-name="Group 1688"><g data-name="Group 1687" clip-path="url(#bq)" transform="translate(2.666 2.665)"><path data-name="Path 1733" d="M9.89-.001a9.878 9.878 0 109.866 9.89A9.878 9.878 0 009.89-.001" fill="#de7f6b"/></g></g></g><g data-name="Group 1692"><g data-name="Group 1691"><g data-name="Group 1690" clip-path="url(#br)" transform="translate(2.744 2.744)"><path data-name="Path 1734" d="M9.812 0a9.8 9.8 0 109.787 9.812A9.8 9.8 0 009.812 0" fill="#de7e6a"/></g></g></g><g data-name="Group 1695"><g data-name="Group 1694"><g data-name="Group 1693" clip-path="url(#bs)" transform="translate(2.823 2.822)"><path data-name="Path 1735" d="M9.732 0a9.721 9.721 0 109.709 9.733A9.722 9.722 0 009.732 0" fill="#dd7d69"/></g></g></g><g data-name="Group 1698"><g data-name="Group 1697"><g data-name="Group 1696" clip-path="url(#bt)" transform="translate(2.901 2.901)"><path data-name="Path 1736" d="M9.654 0a9.643 9.643 0 109.631 9.655A9.643 9.643 0 009.654 0" fill="#dd7c68"/></g></g></g><g data-name="Group 1701"><g data-name="Group 1700"><g data-name="Group 1699" clip-path="url(#bu)" transform="translate(2.979 2.979)"><path data-name="Path 1737" d="M9.576 0a9.565 9.565 0 109.554 9.576A9.564 9.564 0 009.576 0" fill="#dd7b68"/></g></g></g><g data-name="Group 1704"><g data-name="Group 1703"><g data-name="Group 1702" clip-path="url(#bv)" transform="translate(3.058 3.057)"><path data-name="Path 1738" d="M9.497 0a9.486 9.486 0 109.475 9.5A9.486 9.486 0 009.497 0" fill="#dd7a67"/></g></g></g><g data-name="Group 1707"><g data-name="Group 1706"><g data-name="Group 1705" clip-path="url(#bw)" transform="translate(3.136 3.136)"><path data-name="Path 1739" d="M9.419 0a9.408 9.408 0 109.4 9.419A9.408 9.408 0 009.419 0" fill="#dd7a66"/></g></g></g><g data-name="Group 1710"><g data-name="Group 1709"><g data-name="Group 1708" clip-path="url(#bx)" transform="translate(3.214 3.214)"><path data-name="Path 1740" d="M9.34-.005a9.329 9.329 0 109.318 9.34A9.329 9.329 0 009.34-.005" fill="#dc7965"/></g></g></g><g data-name="Group 1713"><g data-name="Group 1712"><g data-name="Group 1711" clip-path="url(#by)" transform="translate(3.293 3.293)"><path data-name="Path 1741" d="M9.259 0a9.251 9.251 0 109.239 9.262A9.251 9.251 0 009.259 0" fill="#dc7864"/></g></g></g><g data-name="Group 1716"><g data-name="Group 1715"><g data-name="Group 1714" clip-path="url(#bz)" transform="translate(3.371 3.371)"><path data-name="Path 1742" d="M9.183 0a9.172 9.172 0 109.162 9.184A9.172 9.172 0 009.183 0" fill="#dc7764"/></g></g></g><g data-name="Group 1719"><g data-name="Group 1718"><g data-name="Group 1717" clip-path="url(#bA)" transform="translate(3.449 3.449)"><path data-name="Path 1743" d="M9.105-.001a9.094 9.094 0 109.083 9.105A9.095 9.095 0 009.105-.001" fill="#dc7663"/></g></g></g><g data-name="Group 1722"><g data-name="Group 1721"><g data-name="Group 1720" clip-path="url(#bB)" transform="translate(3.528 3.528)"><path data-name="Path 1744" d="M9.029 0a9.016 9.016 0 109 9.027 9.016 9.016 0 00-9-9.027" fill="#db7562"/></g></g></g><g data-name="Group 1725"><g data-name="Group 1724"><g data-name="Group 1723" clip-path="url(#bC)" transform="translate(3.606 3.606)"><path data-name="Path 1745" d="M8.948.001a8.937 8.937 0 108.926 8.948A8.937 8.937 0 008.948.001" fill="#db7461"/></g></g></g><g data-name="Group 1728"><g data-name="Group 1727"><g data-name="Group 1726" clip-path="url(#bD)" transform="translate(3.684 3.684)"><path data-name="Path 1746" d="M8.87 0a8.859 8.859 0 108.848 8.87A8.859 8.859 0 008.87 0" fill="#db7361"/></g></g></g><g data-name="Group 1731"><g data-name="Group 1730"><g data-name="Group 1729" clip-path="url(#bE)" transform="translate(3.763 3.763)"><path data-name="Path 1747" d="M8.791 0a8.78 8.78 0 108.77 8.791A8.78 8.78 0 008.791 0" fill="#db7260"/></g></g></g><g data-name="Group 1734"><g data-name="Group 1733"><g data-name="Group 1732" clip-path="url(#bF)" transform="translate(3.841 3.841)"><path data-name="Path 1748" d="M8.712 0a8.7 8.7 0 108.692 8.712A8.7 8.7 0 008.712 0" fill="#db715f"/></g></g></g><g data-name="Group 1737"><g data-name="Group 1736"><g data-name="Group 1735" clip-path="url(#bG)" transform="translate(3.92 3.919)"><path data-name="Path 1749" d="M8.634.004a8.624 8.624 0 108.613 8.634A8.623 8.623 0 008.634.004" fill="#da705e"/></g></g></g><g data-name="Group 1740"><g data-name="Group 1739"><g data-name="Group 1738" clip-path="url(#bH)" transform="translate(3.998 3.998)"><path data-name="Path 1750" d="M8.556 0a8.545 8.545 0 108.535 8.556A8.545 8.545 0 008.556 0" fill="#da6f5d"/></g></g></g><g data-name="Group 1743"><g data-name="Group 1742"><g data-name="Group 1741" clip-path="url(#bI)" transform="translate(4.076 4.076)"><path data-name="Path 1751" d="M8.477 0a8.467 8.467 0 108.457 8.477A8.467 8.467 0 008.477 0" fill="#da6e5d"/></g></g></g><g data-name="Group 1746"><g data-name="Group 1745"><g data-name="Group 1744" clip-path="url(#bJ)" transform="translate(4.155 4.155)"><path data-name="Path 1752" d="M8.399 0a8.389 8.389 0 108.378 8.4A8.388 8.388 0 008.399 0" fill="#da6d5c"/></g></g></g><g data-name="Group 1749"><g data-name="Group 1748"><g data-name="Group 1747" clip-path="url(#bK)" transform="translate(4.233 4.233)"><path data-name="Path 1753" d="M8.32 0a8.31 8.31 0 108.3 8.32A8.311 8.311 0 008.32 0" fill="#da6c5b"/></g></g></g><g data-name="Group 1752"><g data-name="Group 1751"><g data-name="Group 1750" clip-path="url(#bL)" transform="translate(4.312 4.311)"><path data-name="Path 1754" d="M8.241 0a8.232 8.232 0 108.222 8.242A8.232 8.232 0 008.241 0" fill="#d96b5a"/></g></g></g><g data-name="Group 1755"><g data-name="Group 1754"><g data-name="Group 1753" clip-path="url(#bM)" transform="translate(4.39 4.39)"><path data-name="Path 1755" d="M8.163 0a8.153 8.153 0 108.143 8.163A8.154 8.154 0 008.163 0" fill="#d96a5a"/></g></g></g><g data-name="Group 1758"><g data-name="Group 1757"><g data-name="Group 1756" clip-path="url(#bN)" transform="translate(4.469 4.468)"><path data-name="Path 1756" d="M8.084 0a8.075 8.075 0 108.065 8.085A8.075 8.075 0 008.084 0" fill="#d96959"/></g></g></g><g data-name="Group 1761"><g data-name="Group 1760"><g data-name="Group 1759" clip-path="url(#bO)" transform="translate(4.547 4.547)"><path data-name="Path 1757" d="M8.006 0a8 8 0 107.987 8.006A8 8 0 008.006 0" fill="#d96858"/></g></g></g><g data-name="Group 1764"><g data-name="Group 1763"><g data-name="Group 1762" clip-path="url(#bP)" transform="translate(4.625 4.625)"><path data-name="Path 1758" d="M7.928 0a7.918 7.918 0 107.908 7.928A7.919 7.919 0 007.928 0" fill="#d86757"/></g></g></g><g data-name="Group 1767"><g data-name="Group 1766"><g data-name="Group 1765" clip-path="url(#bQ)" transform="translate(4.704 4.703)"><path data-name="Path 1759" d="M7.849 0a7.84 7.84 0 107.83 7.85A7.84 7.84 0 007.849 0" fill="#d86657"/></g></g></g><g data-name="Group 1770"><g data-name="Group 1769"><g data-name="Group 1768" clip-path="url(#bR)" transform="translate(4.782 4.782)"><path data-name="Path 1760" d="M7.771 0a7.761 7.761 0 107.752 7.771A7.762 7.762 0 007.771 0" fill="#d86556"/></g></g></g><g data-name="Group 1773"><g data-name="Group 1772"><g data-name="Group 1771" clip-path="url(#bS)" transform="translate(4.861 4.86)"><path data-name="Path 1761" d="M7.69.001a7.683 7.683 0 107.673 7.692A7.683 7.683 0 007.69.001" fill="#d86455"/></g></g></g><g data-name="Group 1776"><g data-name="Group 1775"><g data-name="Group 1774" clip-path="url(#bT)" transform="translate(4.939 4.939)"><path data-name="Path 1762" d="M7.614 0a7.6 7.6 0 107.6 7.614A7.6 7.6 0 007.614 0" fill="#d86354"/></g></g></g><g data-name="Group 1779"><g data-name="Group 1778"><g data-name="Group 1777" clip-path="url(#bU)" transform="translate(5.018 5.017)"><path data-name="Path 1763" d="M7.535-.004a7.526 7.526 0 107.517 7.535A7.527 7.527 0 007.535-.004" fill="#d76253"/></g></g></g><g data-name="Group 1782"><g data-name="Group 1781"><g data-name="Group 1780" clip-path="url(#bV)" transform="translate(5.096 5.096)"><path data-name="Path 1764" d="M7.46 0a7.448 7.448 0 107.439 7.457A7.448 7.448 0 007.46 0" fill="#d76153"/></g></g></g><g data-name="Group 1785"><g data-name="Group 1784"><g data-name="Group 1783" clip-path="url(#bW)" transform="translate(5.174 5.174)"><path data-name="Path 1765" d="M7.377 0a7.369 7.369 0 107.361 7.378A7.37 7.37 0 007.377 0" fill="#d76052"/></g></g></g><g data-name="Group 1788"><g data-name="Group 1787"><g data-name="Group 1786" clip-path="url(#bX)" transform="translate(5.253 5.253)"><path data-name="Path 1766" d="M7.299-.001a7.291 7.291 0 107.282 7.3 7.291 7.291 0 00-7.282-7.3" fill="#d75f51"/></g></g></g><g data-name="Group 1791"><g data-name="Group 1790"><g data-name="Group 1789" clip-path="url(#bY)" transform="translate(5.331 5.331)"><path data-name="Path 1767" d="M7.221 0a7.213 7.213 0 107.2 7.221A7.213 7.213 0 007.221 0" fill="#d75e50"/></g></g></g><g data-name="Group 1794"><g data-name="Group 1793"><g data-name="Group 1792" clip-path="url(#bZ)" transform="translate(5.409 5.409)"><path data-name="Path 1768" d="M7.143.001a7.134 7.134 0 107.125 7.143A7.134 7.134 0 007.143.001" fill="#d65d50"/></g></g></g><g data-name="Group 1797"><g data-name="Group 1796"><g data-name="Group 1795" clip-path="url(#ca)" transform="translate(5.488 5.488)"><path data-name="Path 1769" d="M7.064 0a7.056 7.056 0 107.047 7.064A7.056 7.056 0 007.064 0" fill="#d65c4f"/></g></g></g><g data-name="Group 1800"><g data-name="Group 1799"><g data-name="Group 1798" clip-path="url(#cb)" transform="translate(5.566 5.566)"><path data-name="Path 1770" d="M6.985 0a6.977 6.977 0 106.969 6.986A6.977 6.977 0 006.985 0" fill="#d65b4e"/></g></g></g><g data-name="Group 1803"><g data-name="Group 1802"><g data-name="Group 1801" clip-path="url(#cc)" transform="translate(5.644 5.644)"><path data-name="Path 1771" d="M6.907 0a6.9 6.9 0 106.891 6.907A6.9 6.9 0 006.907 0" fill="#d65a4d"/></g></g></g><g data-name="Group 1806"><g data-name="Group 1805"><g data-name="Group 1804" clip-path="url(#cd)" transform="translate(5.723 5.723)"><path data-name="Path 1772" d="M6.828.005a6.821 6.821 0 106.813 6.829A6.82 6.82 0 006.828.005" fill="#d5594c"/></g></g></g><g data-name="Group 1809"><g data-name="Group 1808"><g data-name="Group 1807" clip-path="url(#ce)" transform="translate(5.801 5.801)"><path data-name="Path 1773" d="M6.75 0a6.742 6.742 0 106.734 6.75A6.743 6.743 0 006.75 0" fill="#d5584c"/></g></g></g><g data-name="Group 1812"><g data-name="Group 1811"><g data-name="Group 1810" clip-path="url(#cf)" transform="translate(5.879 5.879)"><path data-name="Path 1774" d="M6.672 0a6.664 6.664 0 106.656 6.672A6.664 6.664 0 006.672 0" fill="#d5574b"/></g></g></g><g data-name="Group 1815"><g data-name="Group 1814"><g data-name="Group 1813" clip-path="url(#cg)" transform="translate(5.958 5.958)"><path data-name="Path 1775" d="M6.592 0a6.585 6.585 0 106.577 6.593A6.586 6.586 0 006.592 0" fill="#d5564a"/></g></g></g><g data-name="Group 1818"><g data-name="Group 1817"><g data-name="Group 1816" clip-path="url(#ch)" transform="translate(6.036 6.036)"><path data-name="Path 1776" d="M6.515 0a6.507 6.507 0 106.5 6.515A6.507 6.507 0 006.515 0" fill="#d55549"/></g></g></g><g data-name="Group 1821"><g data-name="Group 1820"><g data-name="Group 1819" clip-path="url(#ci)" transform="translate(6.115 6.115)"><path data-name="Path 1777" d="M6.436.001a6.429 6.429 0 106.421 6.436A6.428 6.428 0 006.436.001" fill="#d45449"/></g></g></g><g data-name="Group 1824"><g data-name="Group 1823"><g data-name="Group 1822" clip-path="url(#cj)" transform="translate(6.193 6.193)"><path data-name="Path 1778" d="M6.358 0A6.35 6.35 0 1012.7 6.358 6.351 6.351 0 006.358 0" fill="#d45348"/></g></g></g><g data-name="Group 1827"><g data-name="Group 1826"><g data-name="Group 1825" clip-path="url(#ck)" transform="translate(6.272 6.271)"><path data-name="Path 1779" d="M6.279.001a6.272 6.272 0 106.264 6.279A6.272 6.272 0 006.279.001" fill="#d45247"/></g></g></g></g></g></g><path data-name="Path 1780" d="M115.088 56.582c-3.289-1.137-7.208 1.868-8.753 6.712s-.132 9.694 3.157 10.83 7.207-1.868 8.752-6.712.133-9.693-3.156-10.83" fill="#e5a185"/><path data-name="Path 1781" d="M115.579 67.968a7.435 7.435 0 01-9.015-.52 32.364 32.364 0 01-6.411 19.7c-4.606 6.36-14.691 8.557-22.2 8.364-17.919-.46-22.691-5.882-26.456-13.23 2.616 8.076 8.9 15.51 22.993 16.317 26.12 1.5 33.185-9.47 34.028-24.959a4.473 4.473 0 00.975.49c3.289 1.137 7.207-1.868 8.752-6.712a13 13 0 00.621-3.681 8.1 8.1 0 01-3.285 4.236" fill="#d78c74"/><g data-name="Group 1833"><g data-name="Group 1832" opacity=".52"><g data-name="Group 1831" clip-path="url(#cl)" transform="translate(55.972 39.799)"><path data-name="Path 1782" d="M1.454 9.361a52.005 52.005 0 00-1.455 8.9l13.816 2.251s5.178-8.2 3.448-20.507z" fill="#d78c74"/></g></g></g><path data-name="Path 1783" d="M109.773 65.403l3 .4a6.707 6.707 0 013.408-6.338c-5.716-1.992-6.409 5.943-6.409 5.943" fill="#d78c74"/><g data-name="Group 1836"><g data-name="Group 1835" opacity=".52"><g data-name="Group 1834" clip-path="url(#cm)" transform="translate(83.631 39.626)"><path data-name="Path 1784" d="M3.362.001s-6.36 11.132-1.587 19.893l16.256.531s1.615-6.094.621-10.785S3.362.001 3.362.001" fill="#d78c74"/></g></g></g><path data-name="Path 1785" d="M94.415 53.63c-6.67-.438-9.008 5.892-9.008 5.892s1.123 3.465 8.129 3.473c8.1.01 7.6-3.306 7.6-3.306s-.05-5.622-6.719-6.06" fill="#fff"/><path data-name="Path 1786" d="M55.972 58.055s-1.011 3.429 6.095 3.708 7.721-1.457 7.721-1.457-6.928-12.9-13.816-2.251" fill="#fff"/></g></g><g data-name="Group 1840"><g data-name="Group 1839" clip-path="url(#cn)" transform="translate(61.04 55.644)"><path data-name="Rectangle 634" transform="rotate(-69.444 2.875 4.219)" fill="url(#a)" d="M0 0h8.073v8.242H0z"/></g></g><g data-name="Group 1845"><g data-name="Group 1844"><g data-name="Group 1843" clip-path="url(#d)"><g data-name="Group 1842" opacity=".89"><g data-name="Group 1841" clip-path="url(#co)" transform="translate(60.447 57.896)"><path data-name="Path 1788" d="M0 1.892l.244 1.006s4.21-.382 3.783-2.29S0 1.892 0 1.892" fill="#fff"/></g></g></g></g></g><g data-name="Group 1847"><g data-name="Group 1846" clip-path="url(#cp)" transform="translate(89.636 55.678)"><path data-name="Rectangle 637" transform="rotate(-71.742 3.43 4.864)" fill="url(#cq)" d="M0 0h8.991v8.49H0z"/></g></g><g data-name="Group 1891"><g data-name="Group 1890" clip-path="url(#d)"><g data-name="Group 1850"><g data-name="Group 1849" opacity=".89"><g data-name="Group 1848" clip-path="url(#cr)" transform="translate(88.939 58.771)"><path data-name="Path 1790" d="M.092 1.71L0 2.764S4.409 2.546 3.982.637.092 1.709.092 1.709" fill="#fff"/></g></g></g><path data-name="Path 1791" d="M62.522 52.77c-5.535-.048-6.551 5.285-6.551 5.285s1.1-2.225 5.954-2.414 7.861 4.666 7.861 4.666.078-7.474-7.265-7.537" fill="#381911"/><path data-name="Path 1792" d="M57.426 49.16c4.883-2.964 12.724-1.131 15.477-4.031 1.051-1.106.332-5.33.332-5.33-14.931 2.228-15.809 9.361-15.809 9.361" fill="#422e26"/><path data-name="Path 1793" d="M86.989 39.627s-1.98 3.318-1.222 4.486c2.363 3.639 12.492 2.372 16.5 5.378 0 0 .967-7.066-15.279-9.864" fill="#422e26"/><path data-name="Path 1794" d="M94.149 53.291c-7.459-.08-8.745 6.227-8.745 6.227s2.215-3.314 8.812-2.948 6.914 3.115 6.914 3.115.477-6.315-6.982-6.395" fill="#381911"/><path data-name="Path 1795" d="M78.679 77.031c-12.56.349-14.067-2.382-14.067-2.382s-2.443 10.215 12.824 10.135c14.586-.078 12.952-9.73 12.851-10.264.032.246-.079 2.191-11.609 2.512" fill="#6c332e"/><path data-name="Path 1796" d="M90.282 74.493l.005.026a.237.237 0 00-.005-.026" fill="#6c332e"/><path data-name="Path 1797" d="M87.46 76.152a45.288 45.288 0 01-8.781.878c-5.857.163-9.309-.344-11.327-.932a46.217 46.217 0 01-.934 5.244c1.751 1.908 5.009 3.472 11.018 3.441 6.332-.034 9.6-1.871 11.276-3.985a33.75 33.75 0 01-.637-1.75 16.645 16.645 0 01-.615-2.9" fill="#fff"/><g data-name="Group 1853"><g data-name="Group 1852" opacity=".35"><g data-name="Group 1851" clip-path="url(#cs)" transform="translate(67.091 76.099)"><path data-name="Path 1798" d="M20.369.053a45.288 45.288 0 01-8.781.878C5.731 1.094 2.279.587.261-.001.194.584.094 1.169.001 1.753c6.623-1.857 14.524.191 21.3 3.323q.168-.186.319-.377a33.75 33.75 0 01-.637-1.75 16.643 16.643 0 01-.615-2.9" fill="#c3bba5"/></g></g></g><path data-name="Path 1799" d="M73.913 63.616s-4.746-3.387-6.359 2.636 10.395 9.48 13.625 3.172-5.459-17.937-5.459-17.937 1.761 7.195-1.808 12.129" fill="#e5a185"/><g data-name="Group 1856"><g data-name="Group 1855" opacity=".2"><g data-name="Group 1854" clip-path="url(#ct)" transform="translate(67.672 54.88)"><path data-name="Path 1800" d="M6.241 8.736S1.633 5.551 0 10.965a42.628 42.628 0 007.487 1.066A32.709 32.709 0 009.48.276C9.139.184 8.796.096 8.456 0a13.622 13.622 0 01-2.215 8.736" fill="#fff"/></g></g></g><path data-name="Path 1801" d="M80.966 11.064c-33.158 2.617-27.868 39.338-27.868 39.338 1.838-10.962 8.5-24.612 13.724-24.946a19.933 19.933 0 0011.38 3.707c6.079.046 14.451-4.483 14.451-4.483 6.063-.218 13.233 18.465 14.233 33.583.229 3.458 3.185-.574 3.185-.574s3.383-49.186-29.106-46.622" fill="#4f372d"/><path data-name="Path 1802" d="M98.348 13.705C88.347-1.14 56.43 3.605 56.43 3.605c-2.888 17.029 9.039 20.71 9.039 20.71s27.618-5.282 31.844-2.378 12.7 26.558 12.7 26.558 6.766-24.884 1.434-33.94c-3.914-6.646-13.1-.849-13.1-.849" fill="#4f372d"/><path data-name="Path 1803" d="M68.755 0a9.222 9.222 0 002.108 4.51s33.813 22.356 27.481 9.2S68.755 0 68.755 0" fill="#4f372d"/><path data-name="Path 1804" d="M103.723 9.087c-1.883.315-2.315 1.213-2.315 1.213 1.327-2.5.348-5.865.348-5.865-3.658 2.157-3.255 5.094-3.255 5.094-1.852-3.759-7.427-4.863-7.427-4.863.219 3.123 3.594 6.269 3.775 6.364l2.94 4.361 5.969-1.015-.624-2.662a3.279 3.279 0 00.59-2.627" fill="#4f372d"/><path data-name="Path 1805" d="M57.488 16.528c-9.713 3.088-6.4 41.894-6.4 41.894 1.838-10.962 10.513-32.636 15.735-32.97a34.461 34.461 0 01-9.333-8.924" fill="#422e26"/><g data-name="Group 1859"><g data-name="Group 1858" opacity=".12"><g data-name="Group 1857" clip-path="url(#cu)" transform="translate(95.396 13.459)"><path data-name="Path 1806" d="M-.001.002h.005c.015 0 .051-.007-.005 0" fill="#fff"/></g></g></g><g data-name="Group 1862"><g data-name="Group 1861" opacity=".12"><g data-name="Group 1860" clip-path="url(#cv)" transform="translate(95.41 12.571)"><path data-name="Path 1807" d="M.007 0z" fill="#fff"/></g></g></g><g data-name="Group 1865"><g data-name="Group 1864" opacity=".11"><g data-name="Group 1863" clip-path="url(#cw)" transform="translate(56.035 4.428)"><path data-name="Path 1809" d="M51.6 7.166c-1.193.2-2.449.518-3.746.831a27.145 27.145 0 01-9.538.874c-3.7-.449-6.965-2.061-10.267-3.677-1.667-.817-3.329-1.647-5.045-2.357-3.675-1.521-8.006-3-12.035-2.821a16.914 16.914 0 00-5.767 1.5 12.478 12.478 0 00-4.1 2.813 11.576 11.576 0 00-1.1 1.327 20.6 20.6 0 00.527 3.648c.125-.1.253-.212.392-.322a12.365 12.365 0 012.45-1.437 10.953 10.953 0 013.292-.879c4.791-.429 9.267 1.44 13.62 3.175 1.782.709 3.595 1.54 5.513 2.307a59.47 59.47 0 005.986 2.138 21.19 21.19 0 0011.319.259c.479-.139.953-.257 1.412-.405a32.176 32.176 0 004.8-2.1c1.377-.731 2.555-1.4 3.6-1.9a13.128 13.128 0 011.953-.81 5.914 5.914 0 00-3.258-2.159" fill="#e5912f"/></g></g></g><g data-name="Group 1868"><g data-name="Group 1867" opacity=".12"><g data-name="Group 1866" clip-path="url(#cx)" transform="translate(95.325 13.465)"><path data-name="Path 1810" d="M-.004.003h.022z" fill="#fff"/></g></g></g><path data-name="Path 1811" d="M106.849 57.722c-1.371 16.712-14.024 16.871-14.024 16.871s3.007 13.359-15.173 13.425c-18.807.068-16.448-13.134-16.448-13.134-10.191-1.062-10.116-16.462-10.116-16.462-3.8 16.345-5.78 42.428 28.493 41.449s29.307-26.683 29.307-26.683c-1.716-5.756 1.184-15.5 1.184-15.5z" fill="#4f372d"/><path data-name="Path 1812" d="M75.13 69.501s-4.406-.578-11.013 1.509c-6.279 1.984-8.768.878-8.768.878s1.646 4.967 21.2 5.169c16.621.172 22-3.314 22-3.314S90.716 69.011 75.13 69.5" fill="#4f372d"/><path data-name="Path 1813" d="M67.453 67.931c.747 4.924 10.811 7.187 13.726 1.493a6.115 6.115 0 00.422-1.088 29.81 29.81 0 01-14.148-.406" fill="#d78c74"/><g data-name="Group 1871"><g data-name="Group 1870" opacity=".16"><g data-name="Group 1869" clip-path="url(#cy)" transform="translate(72.185 89.983)"><path data-name="Path 1814" d="M8.51.184A17.915 17.915 0 011.935.041a1.55 1.55 0 00-1.9 1.277c-.2 1.507.418 3.479 5.008 3.49 4.564.011 5.321-1.82 5.225-3.235A1.533 1.533 0 008.515.183"/></g></g></g><path data-name="Path 1815" d="M107.193 248.147l-6.932 13.116h8.005l6.539-13.475z" fill="#3d4041"/><path data-name="Path 1816" d="M54.417 108.914l1.14 17.445 51.868-2.446-1.248-19.178c-15.853-3.861-37.106-2.817-51.755 4.184" fill="#d78c74"/><path data-name="Path 1817" d="M112.719 113.571a58.258 58.258 0 00-3.9-.74 67.513 67.513 0 00-3.418-.415c-.389-.03-.777-.066-1.166-.1-.129.026-.283.055-.494.09a8.465 8.465 0 01-5.449-.673c-4.58 2.867-11.644 4.013-19.163 4.49-11.113.705-16.32-1.456-18.838-9.894-3.646.811-12.853 4.245-17.848 7.825l9.576 147.107h66.706c1.276-.352 2.465-.7 3.542-1.037z" fill="#dfe5ea"/><path data-name="Path 1818" d="M73.719 120.56c-.624-2.306-8.083-8.7-9.989-15.091-6.677.314-19.632 6.367-23.446 10.537-8.161 8.921-6.9 29.806-5.759 60.192 1.182 31.323 2.24 35.235-.483 85.066h41.353c-4.4-48.364-1.9-133.9-1.677-140.7" fill="#6d7db3"/><path data-name="Path 1819" d="M128.55 131.084c-.076-2.941-.97-23.126-20.811-26.26-1.375-.322-7.681-1.655-9.144-1.964-.79 7.737-4.012 6.344-12.525 16.93-.292 8.46-2.389 74.363 2.594 141.473h49.776c.319-.144.488-.224.488-.224 1.182-31.56-8.574-60.262-10.379-129.955" fill="#6d7db3"/><g data-name="Group 1874"><g data-name="Group 1873" opacity=".08"><g data-name="Group 1872" clip-path="url(#cz)" transform="translate(59.45 105.946)"><path data-name="Path 1820" d="M.742.064s-2.391 15.371 1.411 21.83c0 0 .248-9.554 4.545-8.1 2.854.967 5.687 4.836 7.389 7.237-.008-3.322.155-5.589.181-6.418-.605-2.234-7.615-8.314-9.782-14.5A19.786 19.786 0 00.743.063" fill="#002a3d"/></g></g></g><path data-name="Path 1821" d="M67.883 112.993c-.2-.267-.405-.537-.605-.811l-2.653-.237c-.038.524-3.746 52.894-2.935 96.938.405 21.972 1.492 39.88 2.524 52.378h3.55c-1.106-12.448-2.35-30.372-2.755-52.38-.756-41.026 2.425-89.328 2.874-95.889" fill="#7588bc"/><path data-name="Path 1822" d="M95.564 111.969l-2.019-.13c-.42.388-.872.808-1.354 1.268-.337 8.251-1.951 52.859.677 94.7 1.419 22.588 3.271 40.756 4.8 53.451h3.335c-1.526-12.648-3.391-30.875-4.819-53.6-2.884-45.916-.641-95.2-.617-95.693" fill="#7588bc"/><g data-name="Group 1877"><g data-name="Group 1876" opacity=".08"><g data-name="Group 1875" clip-path="url(#cA)" transform="translate(85.824 104.084)"><path data-name="Path 1823" d="M15.194 0a18.784 18.784 0 00-2.616.215C11.524 6.377 8.188 5.831.247 15.706c-.035 1.026-.286 4.3-.242 8.213 2.623-3.071 8.768-8.675 11.053-9.712 4.081-1.852 5.567 7.621 5.567 7.621C19.565 15.052 15.194.001 15.194 0z" fill="#002a3d"/></g></g></g><path data-name="Path 1824" d="M38.304 137.314l-1.451 3.565 28.549-6.212-.747-3.24z" fill="#7588bc"/><path data-name="Path 1825" d="M67.316 98.734s-3.361 1.437-7.511 7.863.827 19.075.827 19.075.492-3.066 1.683-8.219c1.75-7.573 11.4 3.107 11.4 3.107a43.317 43.317 0 00-3.166-8.347 34.05 34.05 0 01-3.236-13.479" fill="#7588bc"/><path data-name="Path 1826" d="M68.948 176.381a2.061 2.061 0 00-2.091 2.069 2.153 2.153 0 002.346 1.86 2.061 2.061 0 002.09-2.069 2.152 2.152 0 00-2.346-1.86" fill="#b0b5c1"/><path data-name="Path 1827" d="M68.402 206.278a2.061 2.061 0 00-2.09 2.069 2.152 2.152 0 002.346 1.86 2.061 2.061 0 002.09-2.069 2.152 2.152 0 00-2.346-1.86" fill="#b0b5c1"/><path data-name="Path 1828" d="M69.082 229.482a2.061 2.061 0 00-2.09 2.069 2.152 2.152 0 002.346 1.86 2.061 2.061 0 002.09-2.069 2.151 2.151 0 00-2.346-1.86" fill="#b0b5c1"/><path data-name="Path 1829" d="M70.643 253.472a2.061 2.061 0 00-2.09 2.069 2.152 2.152 0 002.346 1.86 2.061 2.061 0 002.09-2.069 2.152 2.152 0 00-2.346-1.86" fill="#b0b5c1"/><path data-name="Path 1830" d="M69.963 128.205a2.061 2.061 0 00-2.09 2.069 2.152 2.152 0 002.346 1.86 2.061 2.061 0 002.09-2.069 2.152 2.152 0 00-2.346-1.86" fill="#b0b5c1"/><path data-name="Path 1831" d="M69.186 150.519a2.061 2.061 0 00-2.09 2.069 2.152 2.152 0 002.346 1.86 2.061 2.061 0 002.09-2.069 2.151 2.151 0 00-2.346-1.86" fill="#b0b5c1"/><path data-name="Path 1832" d="M93.151 132.678l27.154 4.269.459-3.272-27.154-4.264z" fill="#7588bc"/><path data-name="Path 1833" d="M93.648 98.546s.41 2.648-1.946 8.992c-1.551 4.179-5.337 7.3-5.64 12.567 0 0 11.609-11.814 14.332-4.451 1.851 5.009 2.739 8.011 2.739 8.011s3.3-13.04-1.654-19.036-7.831-6.082-7.831-6.082" fill="#7588bc"/><g data-name="Group 1880"><g data-name="Group 1879" opacity=".12"><g data-name="Group 1878" clip-path="url(#cB)" transform="translate(63.084 98.734)"><path data-name="Path 1834" d="M4.232 0a10.2 10.2 0 00-2.213 1.539c-3.095 3.3-2.155 9.62-.359 14.5 3.447-.314 8.974 5.785 8.974 5.785a43.317 43.317 0 00-3.166-8.347A34.05 34.05 0 014.232-.002" fill="#fff"/></g></g></g><g data-name="Group 1883"><g data-name="Group 1882" opacity=".12"><g data-name="Group 1881" clip-path="url(#cC)" transform="translate(86.063 98.55)"><path data-name="Path 1835" d="M7.585-.004s.41 2.648-1.946 8.992c-1.551 4.179-5.337 7.3-5.64 12.567 0 0 6.723-6.836 11.136-6.859.481-5.226.184-10.46-3.481-14.692l-.071-.007" fill="#fff"/></g></g></g><path data-name="Path 1836" d="M33.7 145.388c-.073 8.759.383 19.072.826 30.808l.225 6.023c.66-51.231 9.92-67.518 12.954-71.5a14.827 14.827 0 00-6.334 3.4c-2.457 5.606-5.753 16.178-7.672 31.266" fill="#7588bc"/><path data-name="Path 1837" d="M106.957 102.999c-.13.142.177.166 0 0" fill="#7588bc"/><path data-name="Path 1838" d="M112.506 103.513a15.151 15.151 0 00-5.549-.514c3 2.363 22.113 45.614 24.575 78.013l-1.254-20.944c-2.05-14.447-12.7-48.543-17.771-56.554" fill="#7588bc"/><path data-name="Path 1839" d="M39.136 178.79a5.261 5.261 0 002.762 4.654l4.938 2.674a4.06 4.06 0 004.286-.238l5.916-4.2a4.889 4.889 0 002.054-3.941l.216-19.484-20 .943z" fill="#7588bc"/><path data-name="Path 1840" d="M120.064 157.615l-21.578 1.017L99.74 177.9a5.8 5.8 0 002.708 4.522l4.221 2.654a5.889 5.889 0 007.105-.585l5.614-5.114a7.005 7.005 0 002.243-5.881z" fill="#7588bc"/><g data-name="Group 1886"><g data-name="Group 1885" opacity=".08"><g data-name="Group 1884" clip-path="url(#cD)" transform="translate(98.405 106.904)"><path data-name="Path 1841" d="M78.399 41.969c-5.879-5.154-23.3-6.6-32.9-9.99s-13.378-7.7-13.378-7.7-7.4-8.366-8.692-12.077-2.689-6.612-1.41-10.067c.3-.819-.565-2.684-2.14-1.981-4.514 2.012-4.121 7.967-3.365 11.94a15.287 15.287 0 01-.686 7.327c-.714 2.286-11.1 5.2-12.9 6.8S.066 30.181.485 31.987a2.861 2.861 0 001.744 2.2s-2.535 2.8-2.193 4.783a2.771 2.771 0 002.715 2.426s-2.018 2.976-1.223 5.092 4.123 1.483 4.123 1.483-1.09 2.026-.146 3.563c1.43 2.329 14.647.72 19.272-1 2.358-.877 7.334-3.85 9.063-3.045s16.92 14.543 20.852 20.345 15.733 7.557 23.316 5.051 7.107-.849 9.214-3.347c1.49-1.768 1.9-11.865.219-13.676-3.215-3.474-3.816-9.309-9.039-13.887"/></g></g></g><path data-name="Path 1842" d="M177.291 148.811c-5.954-5.963-23.615-10-33.346-14.785s-13.582-9.9-13.582-9.9-7.491-9.36-8.8-13.212-1.968-7.531-.667-10.746c.309-.761-1.318-2.123-2.917-1.667-4.58 1.307-5.518 6.931-4.755 10.962.441 2.332 1.421 5.074.623 7.428-.728 2.147-11.261 3.466-13.093 4.764s-2.908 3.476-2.485 5.32a3.485 3.485 0 001.765 2.43s-2.574 2.381-2.23 4.387a3.36 3.36 0 002.75 2.8s-2.051 2.632-1.247 4.837 4.179 2.081 4.179 2.081a3.732 3.732 0 00-.153 3.491c1.447 2.512 14.85 2.907 19.542 1.9 2.392-.512 7.442-2.7 9.194-1.644s17.166 17.18 21.145 23.491 15.387 10.1 23.08 8.765 7.763-.057 9.9-2.2c1.513-1.519 1.938-11.415.24-13.452-3.255-3.908-3.858-9.752-9.147-15.049" fill="#e5a185"/><g data-name="Group 1889"><g data-name="Group 1888" opacity=".56"><g data-name="Group 1887" clip-path="url(#cE)" transform="translate(97.772 120.512)"><path data-name="Path 1843" d="M24.234 27.077a36.455 36.455 0 01-12.832.413c-2.4-.328-4.373-1.045-4.711-2.824-.232-1.225 4.437-2.251 5.106-2.391-.159-.538-.32-1.076-.459-1.616-1.416.267-6.113 1.11-7 .712a2.64 2.64 0 01-1.1-3.293c.473-1.022 5.646-2.2 7-2.494q-.134-.717-.263-1.435c-1.159.3-5.161 1.248-6.849.741a2.214 2.214 0 01-1.433-3.459c.918-1.686 6.045-2.612 7.221-2.9-.1-.462-.206-.925-.312-1.388-.7.139-4.611.863-5.9-.068-.781-.563-1.539-1.749-.571-3.918.56-1.256 2.867-2.485 4.2-3.155-.076.02-.15.032-.226.049a12.075 12.075 0 00-3.12 1.1C1.153 2.451.078 4.626.5 6.471a3.486 3.486 0 001.766 2.43s-2.574 2.382-2.23 4.387a3.36 3.36 0 002.75 2.8s-1.758 2.26-1.376 4.346a4.379 4.379 0 00.129.49 2.6 2.6 0 00.992 1.255 3.772 3.772 0 00.683.372 5.144 5.144 0 00.715.24 6.421 6.421 0 00.678.137 6.683 6.683 0 001.11.077 3.734 3.734 0 00-.152 3.492c1.447 2.512 14.85 2.907 19.542 1.9 2.3-.492 7.278-2.7 9.193-1.644-1.166-2.109-6.856-.259-10.062.328" fill="#d78c74"/></g></g></g></g></g></g></g></g></g></g></svg>