<svg xmlns="http://www.w3.org/2000/svg" width="300" height="300"><defs><clipPath id="a"><path data-name="Rectangle 3201" transform="translate(970 3590)" fill="none" stroke="#707070" d="M0 0h300v300H0z"/></clipPath><clipPath id="b"><path data-name="Path 958" d="M146.985 0c25.814 0 50.248 10.251 71.321 21.932 15.287 8.474 27 22.382 38.35 35.039 22.087 24.622 37.314 53.363 37.314 90.014 0 13.151.5 27.494-2.737 39.629-10.255 38.4-41.032 66.446-75.487 85.213-21.788 11.867-42.367 22.143-68.762 22.143-34.5 0-65.613-16.945-90.8-36.934C22.369 230.2 0 193.662 0 146.985c0-37.666 17.861-68.857 41.2-94.91C68.071 22.072 103.474 0 146.985 0z" transform="rotate(45 -1445.272 1051.139)" fill="#deeeff"/></clipPath><clipPath id="c"><path data-name="Rectangle 1165" fill="none" d="M0 0h191.035v249.692H0z"/></clipPath><clipPath id="d"><path data-name="Rectangle 1154" fill="none" d="M0 0h113.373v15.224H0z"/></clipPath><clipPath id="e"><path data-name="Rectangle 1155" fill="none" d="M0 0h113.121v13.622H0z"/></clipPath><clipPath id="f"><path data-name="Rectangle 1156" fill="none" d="M0 0h75.614v139.268H0z"/></clipPath><clipPath id="g"><path data-name="Rectangle 1157" fill="none" d="M0 0h51.885v33.28H0z"/></clipPath><clipPath id="h"><path data-name="Rectangle 1158" fill="none" d="M0 0h74.771v85.185H0z"/></clipPath><clipPath id="i"><path data-name="Rectangle 1159" fill="none" d="M0 0h43.911v69.183H0z"/></clipPath><clipPath id="j"><path data-name="Rectangle 1160" fill="none" d="M0 0h47.292v50.4H0z"/></clipPath><clipPath id="k"><path data-name="Rectangle 1161" fill="none" d="M0 0h28.553v10.438H0z"/></clipPath><clipPath id="l"><path data-name="Rectangle 1162" fill="none" d="M0 0h4.372v5.024H0z"/></clipPath><clipPath id="m"><path data-name="Rectangle 1163" fill="none" d="M0 0h61.227v46.444H0z"/></clipPath><clipPath id="n"><path data-name="Rectangle 1164" fill="none" d="M0 0h10.675v7.778H0z"/></clipPath><clipPath id="o"><path data-name="Rectangle 1181" fill="none" d="M0 0h211.752v231.049H0z"/></clipPath><clipPath id="p"><path data-name="Rectangle 1167" fill="none" d="M0 0h103.036v13.836H0z"/></clipPath><clipPath id="q"><path data-name="Rectangle 1168" fill="none" d="M0 0h102.807v12.38H0z"/></clipPath><clipPath id="r"><path data-name="Rectangle 1169" fill="none" d="M0 0h74.361v126.792H0z"/></clipPath><clipPath id="s"><path data-name="Rectangle 1170" fill="none" d="M0 0h47.154v30.246H0z"/></clipPath><clipPath id="t"><path data-name="Rectangle 1171" fill="none" d="M0 0h67.954v77.418H0z"/></clipPath><clipPath id="u"><path data-name="Rectangle 1173" fill="none" d="M0 0h7.017v11.551H0z"/></clipPath><clipPath id="v"><path data-name="Rectangle 1177" fill="none" d="M0 0h25.201v24.635H0z"/></clipPath><clipPath id="w"><path data-name="Rectangle 1178" fill="none" d="M0 0h14.23v5.302H0z"/></clipPath><clipPath id="x"/><clipPath id="y"><path data-name="Rectangle 1179" fill="none" d="M0 0h30.351v11.25H0z"/></clipPath></defs><g data-name="Mask Group 34" transform="translate(-970 -3590)" clip-path="url(#a)"><g data-name="Group 9317"><path data-name="Path 957" d="M1223.891 3636.768c18.253 18.253 28.282 42.78 34.923 65.94 4.818 16.801 3.266 34.918 2.342 51.894-1.793 33.028-11.349 64.118-37.265 90.034-9.3 9.3-19.088 19.795-29.957 26.087-34.404 19.901-75.999 17.97-113.632 6.877-23.798-7.015-45.616-14.3-64.28-32.964-24.395-24.396-34.413-58.378-38.089-90.322-4.935-42.887 5.084-84.54 38.09-117.546 26.634-26.634 61.319-36.06 96.244-37.979 40.216-2.214 80.857 7.212 111.624 37.98z" fill="#deeeff"/><g data-name="Group 6" transform="translate(800 2203)" clip-path="url(#b)"><g data-name="Group 3362"><g data-name="Group 3399"><g data-name="Group 3360"><g data-name="Group 3359" clip-path="url(#c)" transform="translate(310 1422)"><path data-name="Path 3424" d="M176.285 5.975H92.391c-7.82 0-14.281 6.473-14.726 14.753L67.512 233.159c-.482 8.974 6.249 16.533 14.724 16.533h83.9c7.82 0 14.281-6.474 14.726-14.754l9.926-207.682.227-4.749c.481-8.974-6.251-16.532-14.726-16.532" fill="#aaa"/><g data-name="Group 3328"><g data-name="Group 3327" opacity=".22"><g data-name="Group 3326" clip-path="url(#d)" transform="translate(77.643 5.975)"><path data-name="Path 3425" d="M98.643 0H14.748C6.928 0 .467 6.474.022 14.754l-.023.47h113.375C113.174 6.837 106.702 0 98.643 0" fill="#fff"/></g></g></g><g data-name="Group 3331"><g data-name="Group 3330" opacity=".08"><g data-name="Group 3329" clip-path="url(#e)" transform="translate(67.623 236.07)"><path data-name="Path 3426" d="M.003 0c.93 7.638 7.075 13.622 14.614 13.622h83.9c7.458 0 13.667-5.893 14.612-13.622H.003z"/></g></g></g><path data-name="Path 3427" d="M164.216 5.975H80.322c-7.82 0-14.281 6.473-14.726 14.753L55.443 233.159c-.482 8.974 6.249 16.533 14.725 16.533h83.894c7.82 0 14.281-6.474 14.726-14.754l9.961-208.413.192-4.018c.481-8.974-6.25-16.532-14.726-16.532" fill="#2c2e33"/><path data-name="Path 3428" d="M64.006 213.084l96.68.024 8.654-186.556-96.676-.027z" fill="#4e4a7f"/><path data-name="Path 3429" d="M127.764 15.839h-20.566a1.411 1.411 0 00-1.407 1.407v.335a1.411 1.411 0 001.407 1.407h20.566a1.411 1.411 0 001.407-1.407v-.335a1.411 1.411 0 00-1.407-1.407" fill="#1e2023"/><path data-name="Path 3430" d="M91.28 133.366z"/><g data-name="Group 3334"><g data-name="Group 3333" opacity=".11"><g data-name="Group 3332" clip-path="url(#f)" transform="translate(61.884 5.956)"><path data-name="Path 3431" d="M73.191 86.719q-.264-.535-.558-1.038l-.068-.118c-.065-.109-.126-.222-.192-.329a29.749 29.749 0 001.546-1.534l.055-.059c.056-.06.106-.115.153-.169.027-.028.051-.056.075-.083q.057-.063.1-.119l.073-.084.066-.077.059-.074.032-.041a.6.6 0 00.045-.062 36.822 36.822 0 00-7.851-7.5 68.322 68.322 0 01-3.7-2.733 130.925 130.925 0 00-2.268-16.135c.781-.292 1.34-.5 1.533-.58A61.991 61.991 0 0059 44.019a7.5 7.5 0 00-.969-2.263 5.8 5.8 0 00-4.223-2.312 4.79 4.79 0 00-.205-3.984c-.749-1.489-2.017-2.6-2.7-4.131a6.825 6.825 0 01.272-5.679 5.81 5.81 0 00.7-3.989c-.318-1.138-1.066-2.069-1.063-3.346.006-1.925 1.3-3.818 1.862-5.719a15.738 15.738 0 00.527-6.017 15.137 15.137 0 00-2.085-6.586H22.645c-3.98 3.247-7.31 6.787-9.185 11.262a16.605 16.605 0 00-1.187 4.34c-.412 3.265-.122 6.442-.515 9.7-.278 2.3-2.039 4.107-4.167 5.276a27.651 27.651 0 01-4.729 1.946L.722 77.299c2.367-.693 4.713-1.806 7.084-2.134.089-.013.179-.021.268-.031-1.577 3.859-2.956 7.043-3.9 8.933q-.1.206-.2.394a25.83 25.83 0 01-.188.357c-.221.037-.47.075-.731.112-.751.106-1.668.212-2.708.315l-.343 7.176c5.761-.5 6.689-1.2 7.591-1.887.766-.583 2.07-1.584 6.04-10.827a7.323 7.323 0 004.652-.51 21.112 21.112 0 006.481-5.131c.211-.224.419-.451.628-.677a14.394 14.394 0 002.738-.2s0 .012.015.045.012.043.021.072l.009.032.043.162c.018.069.034.143.054.229l.011.05a9.61 9.61 0 01.066.32c.019.1.04.209.06.329 0 .013 0 .024.007.037q.034.207.071.449a26.134 26.134 0 01.066.505c0 .039.009.078.013.118q.029.239.054.5c0 .03.006.058.008.088.021.214.04.44.058.7.015.222.028.459.041.7l.007.172c.011.216.018.441.024.673v.157c.013.575.015 1.2 0 1.878v.214c-.007.274-.016.556-.028.846 0 .085-.006.169-.01.256a56.08 56.08 0 01-.062 1.126 85.4 85.4 0 01-1.576 10.667c-.106.53-.326 1.072-.444 1.624l-.022.106c-.022.1.063.2.043.3a179.323 179.323 0 01-5.809 2.118c-.012-.011 0-.023-.008-.034a9.331 9.331 0 00-2.528-1.931 2.408 2.408 0 00-1.336-.258.422.422 0 00-.224.085c-.272-2.828-.388-5.03-.388-5.03l-.591.206.012-.46-.537.192-.021-.37-10.632 3.917 2.27 6.075a2.785 2.785 0 00-.467 1.81c.063.343.66.508.625.876-.041.431-.473.826-.548 1.259-.1.566.427.9.746 1.292a.514.514 0 01.131.269.75.75 0 01-.033.261 3.914 3.914 0 00-.174.938.723.723 0 00.4.71c.14.053.322.058.4.184a.655.655 0 01.05.246.8.8 0 00.336.523 1.51 1.51 0 00.456.214l-.127 2.893.435-.11v.339l.575-.2.037.514s9.878-3.57 9.787-3.773c-.022-.05-.377-1.268-.843-2.952 1.016-.977 1.953-2.246 2.239-2.246 2.107-.812 4.855-1.3 7.923-2.241-.083.774-.158 1.554-.225 2.326-.009.1-.016.212-.025.317-.2 2.386-.127 4.75-.193 7.038 0 .011.209.024.21.035a46.244 46.244 0 00.843 15.969c.045.2-.028.4.021.6.023.084-.051.182-.052.264 1.624 7.156 6.671 11.655 13.533 11.852 12.564.361 22.229-11.444 27.433-21.564 4.67-9.079 7.542-21.268 2.871-30.892l-.042-.084"/></g></g></g><g data-name="Group 3337"><g data-name="Group 3336" opacity=".11"><g data-name="Group 3335" clip-path="url(#g)" transform="translate(86.644 128.339)"><path data-name="Path 3432" d="M48.764.614l-.036.042a1.725 1.725 0 00-.356.656c-4.813 16.547-15.415 28.332-26.866 28.33-.158 0-.316 0-.473-.006-4.895-.14-9.515-2.494-13.36-6.812a32.035 32.035 0 01-4.286-6.228 1.776 1.776 0 00-2.858-.407c-.012.013-.024.027-.037.039a1.755 1.755 0 00-.291 2.026 35.5 35.5 0 004.8 7c4.519 5.074 10.028 7.845 15.932 8.013q.28.007.559.007c13.018 0 25.012-12.918 30.316-31A1.775 1.775 0 0048.766.611" fill="#617cf2"/></g></g></g><g data-name="Group 3340"><g data-name="Group 3339" opacity=".11"><g data-name="Group 3338" clip-path="url(#h)" transform="translate(77.71 91.537)"><path data-name="Path 3433" d="M69.786 1.511l-.022.136a1.694 1.694 0 000 .6 86.45 86.45 0 011.06 22.219c-2.468 31.693-20.633 57.091-40.668 57.088-.218 0-.442 0-.66-.009-6.845-.19-13.292-3.41-18.648-9.312a45.488 45.488 0 01-7.362-11.3 1.818 1.818 0 00-1.146-.971c-.017 0-.032-.01-.049-.013a1.8 1.8 0 00-2.123 2.5 48.9 48.9 0 007.956 12.22c6.043 6.659 13.4 10.294 21.269 10.514.25.007.5.01.747.01 21.92 0 41.724-26.88 44.338-60.441A89.721 89.721 0 0073.34 1.5a1.8 1.8 0 00-3.558.02" fill="#617cf2"/></g></g></g><path data-name="Path 3434" d="M110.472 85.064c-12.035-.342-23.447 12.508-24.84 29.309s7.235 30.7 19.272 31.039 22.921-13 24.313-29.8-6.71-30.2-18.745-30.547" fill="#3d3942"/><path data-name="Path 3435" d="M183.57 53.279a2.711 2.711 0 00-2.687 2.578l-1.045 21.133a2.712 2.712 0 005.418.268l1.044-21.133a2.711 2.711 0 00-2.73-2.845" fill="#bcbcbc"/><path data-name="Path 3436" d="M120.099 219.943H98.283a7.61 7.61 0 00-7.575 7.1l-.281 4.307a7.59 7.59 0 007.574 8.087h21.815a7.61 7.61 0 007.576-7.1l.281-4.307a7.59 7.59 0 00-7.575-8.087m3.667 12.157a3.966 3.966 0 01-3.949 3.7H98.002a3.958 3.958 0 01-3.95-4.215l.283-4.307a3.966 3.966 0 013.949-3.7h21.815a3.956 3.956 0 013.945 4.215z" fill="#1e2023"/><path data-name="Path 3437" d="M125.744 229.142a2.271 2.271 0 00-1.845.908l-.134 2.05a3.966 3.966 0 01-3.95 3.7H98.001a3.958 3.958 0 01-3.949-4.214l.1-1.534a2.013 2.013 0 00-1.854-.908 2.291 2.291 0 00-1.788.908l-.084 1.3A7.592 7.592 0 0098 239.439h21.815a7.609 7.609 0 007.576-7.1l.15-2.287a2.022 2.022 0 00-1.8-.908" fill="#44484f"/><path data-name="Path 3438" d="M89.826 37.567a7.028 7.028 0 01-.942-5.667 5.538 5.538 0 00-.144-3.978c-.561-1.136-1.51-2.064-1.779-3.338-.405-1.919.485-3.808.646-5.7a15.779 15.779 0 00-.753-5.991 21.172 21.172 0 00-6.335-9.549C76.604-.025 71.374-.569 66.491.48 57.935 2.32 49.84 8.7 48.002 17.556a14.9 14.9 0 00-.265 4.325c.283 3.256 1.252 6.422 1.553 9.676.213 2.294-1.168 4.095-3.052 5.261a36.6 36.6 0 01-7.565 3.016c-2.947.988-5.887 2.439-7.52 5.209a9.482 9.482 0 00-.629 8.343c1.708 4.1 8.389 7.031 7 12.227-.487 1.823-1.657 3.391-2.28 5.171a9.967 9.967 0 002.561 10.189 11.49 11.49 0 0010.289 2.771c2.689-.589 5.142-2.071 7.867-2.46a3.521 3.521 0 011.525.046c1.372.423 1.924 2.025 2.885 3.091 1.678 1.862 4.694 1.969 6.954.885a15.477 15.477 0 005.4-5.119 27.661 27.661 0 002.885-4.62c1.952-4.174 2.095-8.962 3.586-13.321a5.648 5.648 0 011.391-2.437 8.211 8.211 0 013.1-1.377 15.921 15.921 0 005.817-3.3c1.464-1.428 1.19-3.765 2.625-5.293 2.2-2.346 3.444-5.146 1.284-8.151-1.068-1.485-2.577-2.591-3.587-4.12" fill="#634221"/><g data-name="Group 3343"><g data-name="Group 3342" opacity=".11"><g data-name="Group 3341" clip-path="url(#i)" transform="translate(41.48 13.163)"><path data-name="Path 3439" d="M41.392 23.262c-1.043-1.452-2.457-2.672-3.373-4.212s.509-2.454.341-4.074c-.3-2.862-2.288-5.737-3.907-8.009a3.755 3.755 0 01-.135-4.407c-1.554-.83-3.071-1.771-4.526-2.561-3.589.119-7.193.451-10.759.74a4.461 4.461 0 01-.238 1.233c-1.2 3.5-3.242 5.979-2.774 9.89.3 2.474 1.072 5.116.454 7.6a12.833 12.833 0 01-4.563 6.506c-2.894 2.095-6.763 2.2-9.589 4.416-1.6 1.257-2.73 3.37-2.181 5.331a5.832 5.832 0 001.738 2.579c2.2 2.059 5.25 3.4 6.5 6.141a5.981 5.981 0 01-.292 5.424c-1.016 1.715-2.851 2.839-3.811 4.587-2.139 3.9 1.887 9.318 5.962 9.782a22.88 22.88 0 004.219-.239 5.8 5.8 0 014.037.9c1.41 1.111 1.9 3.223 3.519 4 1.5.722 3.275-.034 4.686-.916a25.8 25.8 0 004.429-3.5 12.894 12.894 0 002.222-2.766 17.1 17.1 0 001.349-3.486l1.517-4.968a44.8 44.8 0 001.311-4.964c.179-.976.295-1.965.542-2.926.895-3.462 3.613-5.677 4.869-8.85a14.361 14.361 0 00.176-9.939 13.166 13.166 0 00-1.719-3.319"/></g></g></g><path data-name="Path 3440" d="M85.644 45.679c-3.307.131-5.9.33-5.9.33A31.793 31.793 0 0067.9 48.655c.735 1.7 1.307 3.494 2.025 5.251 1.141 2.793 2.411 5.537 3.739 8.253q2.074-.6 4.166-1.152a172.59 172.59 0 017.042-2.4 16.98 16.98 0 01-.176-3.62 82.813 82.813 0 01.943-9.312" fill="#ef9d3a"/><path data-name="Path 3441" d="M95.382 101.969a45.1 45.1 0 01-13.3.023c.778 11.936 3.566 25.027 6.7 31.4 0 0 38.367-31.138 33.174-43.607-5.64 6.64-18.564 11.035-26.57 12.181" fill="#3d3942"/><g data-name="Group 3346"><g data-name="Group 3345" opacity=".11"><g data-name="Group 3344" clip-path="url(#j)" transform="translate(82.08 85.058)"><path data-name="Path 3442" d="M39.872 4.726c-.084.1-.183.19-.269.287A16.287 16.287 0 0028.395.006c-8.972-.255-17.6 6.825-21.983 17.406a41.1 41.1 0 01-6.409-.481 126.981 126.981 0 001.84 14.615 41.674 41.674 0 01.46-8.428 77.382 77.382 0 0012.245.406 38.17 38.17 0 009.394-2.362c3.16-1.329 6.092-4.054 9.779-3.236 8.075 1.791 8.828 15.981 8.651 22.28a28.2 28.2 0 01-2.268 10.192 39.748 39.748 0 007.036-19.845c.861-10.387-1.909-19.472-6.993-24.978a6 6 0 00-.271-.846"/></g></g></g><path data-name="Path 3443" d="M69.755 40.893l3.984 10.676 10.356-4.389s-5.263-13.985-6.348-16.9z" fill="#ef9d3a"/><path data-name="Path 3444" d="M69.755 40.893l1.692 4.536c4.882-.4 7.9-3.149 9.072-7.762-1.192-3.169-2.328-6.2-2.772-7.383z" fill="#f28338"/><path data-name="Path 3445" d="M72.013 4.365l-7.014.108c-5.341.082-9.869 4.252-9.814 9.3 0 0-.565 15.728-.33 21.328.263 6.288 5.132 8.87 10.473 8.788l2.481-.086c5.341-.082 12.363-4.274 12.849-11.842.3-4.652.716-18.633.716-18.633.193-5.014-4.019-9.049-9.36-8.967" fill="#ef9d3a"/><path data-name="Path 3446" d="M59.968 26.303c-.585.018-1.189.934-1.351 2.046s.183 2 .766 1.979 1.189-.934 1.351-2.046-.182-2-.766-1.979" fill="#1e1d21"/><path data-name="Path 3447" d="M72.887 25.735c-.585.018-1.189.934-1.35 2.045s.183 2 .766 1.98 1.189-.934 1.35-2.046-.181-2-.766-1.979" fill="#1e1d21"/><path data-name="Path 3448" d="M66.389 27.597s2 6.67-2.394 6.84c0 0-.229 1.187 2.437 1.069 3.489-.155 1.188-7.963 1.188-7.963z" fill="#f28338"/><path data-name="Path 3449" d="M81.899 25.414a6.088 6.088 0 00-1.957 6.126c.608 2.124 2.47 2.824 4.157 1.564a6.086 6.086 0 001.956-6.127c-.607-2.123-2.469-2.824-4.157-1.564" fill="#ef9d3a"/><path data-name="Path 3450" d="M83.306 26.9c-.75.451-.914 3-1.963 3.375.013.064.019.131.037.193a1.334 1.334 0 002.2.828 3.225 3.225 0 001.037-3.246 1.391 1.391 0 00-1.314-1.15" fill="#f28338"/><path data-name="Path 3451" d="M1.353 90.8c2.553.833 10.062-3.618 10.062-3.618l-3.562-1.253s-7.678 4.485-6.5 4.871" fill="#f28338"/><path data-name="Path 3452" d="M4.87 92.218c2.108.3 6.07-5.015 6.07-5.015l-2.526-.209s-4.5 5.089-3.544 5.225" fill="#f28338"/><path data-name="Path 3453" d="M9.818 85.388s-4.556.5-7.46 1.005c2.9.292 7.46-1.005 7.46-1.005" fill="#ef9d3a"/><path data-name="Path 3454" d="M12.346 82.895L0 84.708c.036 1.084 1.023 1.552 2.357 1.686 2.9-.5 7.461-1.006 7.461-1.006s-4.556 1.3-7.461 1.006C1 86.629 0 86.863 0 87.047c-.023 1.915 8.894 1.129 8.894 1.129l2.323 2.594a8.948 8.948 0 012.017 2.746c.093.419-.429.684-.843.795-2.181.579-4.5 1.4-5.739 3.289a2.037 2.037 0 00-.371.934.946.946 0 00.4.881c.546.332 1.2-.138 1.745-.477 1.8-1.124 4.093-.856 6.2-.6a16.6 16.6 0 002.936.163 28.528 28.528 0 002.826-.622 41.241 41.241 0 014.268-.08s1.845-2.346 1.371-3.028c-3.129-4.5-13.676-11.882-13.676-11.882" fill="#ef9d3a"/><path data-name="Path 3455" d="M60.72 4.082c-11.331 4.045-6.1 25.619-6.1 25.619.179-4.861 1.979-12.57 9.767-13.762s11.056-8.27 11.056-8.27c-1.206 4.059.331 9.231 1.608 12.643a12.524 12.524 0 004.087 5.37s1.839-11.331 1.006-15.762S72.048.038 60.72 4.082m-4.6 16.23c.637-6.5 8.3-5.8 12.747-9.693-3.447 5.7-11.188 3.152-12.747 9.693" fill="#634221"/><g data-name="Group 3349"><g data-name="Group 3348" opacity=".14"><g data-name="Group 3347" clip-path="url(#k)" transform="translate(56.641 .309)"><path data-name="Path 3456" d="M18.786 4.865a12.539 12.539 0 01-5.434-1.622A7.2 7.2 0 0110.74 0c-.3.051-.594.108-.889.171A26.519 26.519 0 000 4.571C3.067 8.3 8.763 9.313 13.509 10.065c1.055.167 2.2.312 3.227.375a18.575 18.575 0 002.048-3.029 13.12 13.12 0 00-.421 3.031 38.216 38.216 0 0010.19-1.659 21.689 21.689 0 00-3.2-4.327 20.451 20.451 0 01-6.571.412" fill="#fff"/></g></g></g><path data-name="Path 3457" d="M53.986 90.914c-5.311.932-24.075 1.824-31.441 1.637 0 .945-1.4 4.241-1.369 5.3 3.741.386 13.834 1.292 16.241 1.249 19.226-.34 20.436-1.432 21.606-2.489.994-.9 3.062-2.767 7.926-34.5l-7.223-1.107c-1.829 11.932-4.406 25.895-5.74 29.9" fill="#ef9d3a"/><path data-name="Path 3458" d="M56.575 64.914c3.1 3.146 7.117 4.584 9.6 5.683 2.094-5.337 2.386-11.626 2.987-13.551l-8.044-3.127c-1.443 2.573-3.038 7.177-4.545 11" fill="#99c43b"/><path data-name="Path 3459" d="M72.082 34.822l-.019-.009a.646.646 0 00-.827.214c-1.4 2.119-4.063 2.39-5.295 2.384a.654.654 0 100 1.307h.378a7.019 7.019 0 006.016-2.947.661.661 0 00-.255-.948" fill="#f28338"/><path data-name="Path 3460" d="M70.674 38.499a4.5 4.5 0 01-1.2.567.576.576 0 00-.179 1.023 1.422 1.422 0 002.163-.817 1.477 1.477 0 00.046-.344.527.527 0 00-.832-.432" fill="#f28338"/><path data-name="Path 3461" d="M100.82 61.57c-.336-4.674 2.435-8.829-1.624-13.6-2.885-3.389-9.14-2.5-14.831-2.233-1 9.336-13.65 12.346-13.363 1.742-6.731 2.111-10.624 5.942-10.227 8.018.132.695 2.337 3.8 5.45 8.356-1.906 2.886-4.9 9.745-.937 13a13.72 13.72 0 0010.632 2.46s3.695 6.688 3.39 23.757c2.745 1.589 8.22 2.841 17.311 1.466 20.124-3.044 27.821-15.147 27.949-15.5a50.482 50.482 0 00-9.47-7.475c-10.318-6.21-13.534-9.679-14.276-19.991" fill="#abdc52"/><g data-name="Group 3352"><g data-name="Group 3351" opacity=".07"><g data-name="Group 3350" clip-path="url(#l)" transform="translate(79.306 99.586)"><path data-name="Path 3462" d="M1.912 2.668A3.737 3.737 0 01.212.602C.14.408.071.202.005.002a118.95 118.95 0 010 3.484 14.5 14.5 0 004.372 1.541 14.419 14.419 0 01-1.92-1.667 4.518 4.518 0 01-.541-.69"/></g></g></g><g data-name="Group 3355"><g data-name="Group 3354" opacity=".07"><g data-name="Group 3353" clip-path="url(#m)" transform="translate(63.338 56.265)"><path data-name="Path 3463" d="M37.481 5.3a26.122 26.122 0 01.434-5.3l-.788.219c-.954.375-1.9.77-2.862 1.075a142.15 142.15 0 01-5.122 1.51 19.8 19.8 0 01-2.155 6.647c-2.188 3.677-6.707 4.808-10.684 5.29-2.128.258-4.286.219-6.411.487-1.556.2-3.052.765-4.635.369-3.79-.947-4.106-4.422-2.7-7.187-.05-.013-.1-.024-.152-.039-1.864 3.2-4.091 9.225-.454 12.218a13.72 13.72 0 0010.629 2.459s1.582 2.867 2.591 9.633c-.486-4.485.057-9.1 4.018-10.136 5.234-1.366 9.094.678 12.544 6.249 3.807 6.15 5.683 10.4 9.5 17.651 14.234-4.472 19.891-13.371 20-13.677a50.482 50.482 0 00-9.47-7.475c-10.318-6.21-13.534-9.679-14.276-19.991"/></g></g></g><path data-name="Path 3464" d="M97.505 59.258c-.825.193-1.671.358-2.525.514 5.39 12.439 9.787 24.888 9.4 28.439-2.931 3-19.349 11.94-34.516 16.916l1.145 5.132a166.355 166.355 0 0018.959-6c19.024-7.495 21.376-10.757 22.155-13.456 1.706-5.914-4-21.159-9.085-32.92-1.84.523-3.712.95-5.536 1.378" fill="#ef9d3a"/><path data-name="Path 3465" d="M90.898 50.768c0 5.115 1.662 11.238 3.639 16.075 1.681-.523 11.075-4.3 11.965-4.683a71.5 71.5 0 00-7.306-14.192z" fill="#abdc52"/><path data-name="Path 3466" d="M76.499 53.648a3.969 3.969 0 01-3.232-.992c-1.671-1.587-1.831-4.574-1.843-5.391-.2.074-.391.149-.591.218-.334.114-.673.22-1.012.322.077 1.39.464 4.253 2.322 6.023A5.386 5.386 0 0076 55.293q.309 0 .632-.027c6.572-.538 8.5-8.169 8.828-9.748a52.63 52.63 0 01-1.684.063c-.477 1.918-2.311 7.661-7.277 8.068" fill="#c7f464"/><path data-name="Path 3467" d="M56.758 100.052l4.3 7.285s3.008 6.668 2.959 6.769.619 3.45.619 3.45l2.292-.533V97.415l-.342-1.268z" fill="#94c4b0"/><path data-name="Path 3468" d="M67.179 96.322l-9.869 3.805 3.958 7.21s3.12 6.617 3.12 6.693.787 3.755.787 3.755l7.915-3.3-5.758-17.351z" fill="#a7d6c4"/><path data-name="Path 3469" d="M69.868 103.451c-1.193-3.653-2.053-6.875-2.053-6.875l-9.82 3.687 3.577 6.663 2.578 4.161 1.621 7.011s9.129-3.561 8.993-3.764c-.057-.086-1.939-3.753-3.577-7.324a26.283 26.283 0 01-1.319-3.56" fill="#b5e2d2"/><path data-name="Path 3470" d="M67.889 99.586a1.119 1.119 0 01-1.141.237c-.584-.279-.533-1.522-.533-1.522l-4.934 1.928s.647.152.419 1.091-1.8.431-1.8.431l2.766 5.3 3.171 7.408a1.253 1.253 0 011.653-.659c1.3.355.452 2.131.452 2.131l3.45-1.075s-1.344-.778-.634-1.716 2.03-.355 2.03-.355l-2.612-6.292z" fill="#a5d3c1"/><path data-name="Path 3471" d="M73.986 107.753a5.64 5.64 0 00-.2-1.258 1.867 1.867 0 01.029-1.2 5.255 5.255 0 00.3-1.193.383.383 0 00-.026-.192.429.429 0 00-.127-.136l-.109-.087a12.71 12.71 0 00-2.959-1.926 2.735 2.735 0 00-1.4-.257.414.414 0 00-.2.07.424.424 0 00-.095.413c.1.572.459 1.153.239 1.689a1.531 1.531 0 01-.41.52 8.522 8.522 0 01-2.665 1.745 5.957 5.957 0 01-1.591.274 25.733 25.733 0 01-4.384-.231 2.541 2.541 0 00-.128 1.928c.137.343.77.507.813.873.051.43-.3.824-.28 1.257.024.565.619.894 1.024 1.289a.67.67 0 01.188.268.733.733 0 01.023.26 3.75 3.75 0 00.026.935.941.941 0 00.553.709c.152.053.335.059.437.184a.8.8 0 01.1.245 1.067 1.067 0 00.448.522 3 3 0 001.44.356 21.4 21.4 0 004.608-.205 2.817 2.817 0 001.078-.328 54.233 54.233 0 004.339-5.1 4.149 4.149 0 01-.938-.244z" fill="#ef9d3a"/><path data-name="Path 3472" d="M54.216 90.165c-.08.276-.157.53-.23.749a26.91 26.91 0 01-.71.112c.735.006 4 0 3.868-.541-.1-.439-1.727-.385-2.928-.32" fill="#f28338"/><path data-name="Path 3473" d="M104.403 87.616a4.885 4.885 0 01-.019.594c-.033.035-.078.074-.115.11 0 0 3.105-1.562 2.8-2.319-.262-.653-2.15 1.114-2.667 1.615" fill="#f28338"/><g data-name="Group 3358"><g data-name="Group 3357" opacity=".51"><g data-name="Group 3356" clip-path="url(#n)" transform="translate(60.128 107.079)"><path data-name="Path 3474" d="M7.359.659c-.1-.494-3.708.2-5.534 0C.247.484.031.101.001 0a2.181 2.181 0 00.123.837c.137.343.77.507.813.873.05.43-.3.824-.28 1.257.024.565.619.894 1.024 1.289a.67.67 0 01.188.268.733.733 0 01.023.26 3.75 3.75 0 00.026.935.939.939 0 00.553.709c.152.053.335.059.437.184a.8.8 0 01.1.245 1.067 1.067 0 00.448.522 3 3 0 001.44.356 21.4 21.4 0 004.608-.205 2.817 2.817 0 001.078-.328.909.909 0 00.092-.074C9.74 6.579 7.71 2.317 7.358.659" fill="#f28338"/></g></g></g></g></g></g></g><g data-name="Group 3363"><g data-name="Group 3398" clip-path="url(#o)" transform="translate(142.25 1441.107)"><g data-name="Group 3397"><g data-name="Group 3396" clip-path="url(#o)"><path data-name="Path 3475" d="M103.032 22.963c-.4-7.526-6.276-13.408-13.383-13.408H13.4C5.7 9.555-.416 16.423.022 24.58l.207 4.316L9.25 217.641c.4 7.526 6.276 13.409 13.383 13.409h76.245c7.7 0 13.821-6.87 13.382-15.026z" fill="#aaa"/><g data-name="Group 3365"><g data-name="Group 3364" opacity=".22"><g data-name="Group 3363" clip-path="url(#p)" transform="translate(.017 9.554)"><path data-name="Path 3476" d="M89.632 0H13.388C6.064 0 .188 6.214 0 13.836h103.036l-.021-.427C102.615 5.883 96.739 0 89.632 0" fill="#fff"/></g></g></g><g data-name="Group 3368"><g data-name="Group 3367" opacity=".08"><g data-name="Group 3366" clip-path="url(#q)" transform="translate(9.353 218.669)"><path data-name="Path 3477" d="M.001 0c.858 7.025 6.5 12.38 13.281 12.38h76.242c6.853 0 12.437-5.439 13.283-12.38H.001z"/></g></g></g><path data-name="Path 3478" d="M114.002 22.963c-.4-7.526-6.276-13.408-13.383-13.408H24.373c-7.7 0-13.821 6.868-13.382 15.025l.174 3.651 9.054 189.41c.4 7.526 6.276 13.409 13.382 13.409h76.245c7.7 0 13.821-6.87 13.383-15.026z" fill="#2c2e33"/><path data-name="Path 3479" d="M19.716 28.253l7.865 169.549 87.865-.023-7.865-169.549z" fill="#4e4a7f"/><path data-name="Path 3480" d="M76.192 18.519h-18.69a1.283 1.283 0 00-1.282 1.278v.3a1.282 1.282 0 001.279 1.279h18.693a1.282 1.282 0 001.279-1.279v-.3a1.282 1.282 0 00-1.279-1.278" fill="#1e2023"/><g data-name="Group 3371"><g data-name="Group 3370" opacity=".11"><g data-name="Group 3369" clip-path="url(#r)" transform="translate(44.359 9.536)"><path data-name="Path 3481" d="M64.97 106.498a1.216 1.216 0 01-.254-.2l-.017-.019a2.62 2.62 0 01-.2-.248 6.766 6.766 0 01-.089-.125l-.014-.021c-.12-.175-.252-.372-.418-.581a5.349 5.349 0 00-1.993-1.53c-3.337-1.611-9.6 2.036-10.666 2.687l-.184-.1q-.637-.354-1.285-.726a104.25 104.25 0 01-4.476-2.768c2.067-13.257 7.23-23.984 14.392-34.1.046-.065.09-.131.136-.2.4.277.823.571 1.237.856 3.452 2.4 7.3 5.163 11.567 8.049L71.5 52.246c-5.136-3.473-10.109-6.4-14.426-8 0-.128 0-.256-.005-.376-.768-.3-1.532-.625-2.285-.973.013.091.023.2.032.311a69.39 69.39 0 00-.774-.36l1.043-7.017 3.541.111c4.827.151 8.26-3.837 7.629-8.861l-.311-2.481c2.478-.163 4.388-3.133 3.665-6.749l-.01-.054a9.924 9.924 0 00-2.52-5.452 4.067 4.067 0 00-2.511-1.15l-.254-2.683a3.7 3.7 0 00.471-.01c1.531-.184 2.168-1.793 1.434-3.326a13.35 13.35 0 00-.749-1.285 12.979 12.979 0 00-9.207-3.893H39.295a8.8 8.8 0 00-.345 3.864l1.428 10.893h-1.1c-.026 0-.035.157-.063.147-2.135-.775-3.62.333-3.329 2.361a7.27 7.27 0 004.4 5.122 4.755 4.755 0 00.725.218l-2.333 15.656q-1.292-.169-2.6-.26c-.051-.161-.093-.3-.126-.417-.7.077-1.434.107-2.168.113.018.07.041.145.061.216-.45-1.591-12.657 1.986-14.216 2.668-11.649 5.1-15.6 18.536-18.9 29.683-.068.227-.156.517-.26.851-.963 3.11-.195 4.681.075 7.527.276 2.915-.475 6 .623 8.8.027.071.058.142.091.216 1.065 2.479 2.789 3.814 3.456 6.668 2.849 12.2 12.588 32.911 27.815 32.458 4.4-.131 7.77-2.65 9.809-6.738a19.34 19.34 0 001.408-3.842c.584.235 2.238.893 4.361 1.68l.243.089.717.263.232.085.958.344.153.054.846.3.282.1.829.283.21.07q.5.169 1.01.333l.255.081q.393.126.784.248l.3.094.981.3.025.008c.329.1.652.187.972.275l.274.075q.367.1.722.187c.082.021.165.043.246.062.3.075.6.145.884.207l.15.032c.236.05.464.1.686.136l.235.043c.215.037.422.069.62.1l.14.019c.235.029.455.049.663.061.052 0 .1 0 .151.005q.235.009.441 0c.052 0 .1 0 .151-.007a2.846 2.846 0 00.461-.067c4.965-1.265 7.951-7.761 8.474-8.356a.467.467 0 01.119-.086l.023-.013a1.688 1.688 0 01.181-.079l.048-.018q.105-.039.232-.077l.074-.022c.067-.021.162-.041.235-.061a11.393 11.393 0 002.242-.806l-.184-3.85c-2.773-1.449-8.59-1.421-9.207-1.781m2.188-90.267h.562a9.257 9.257 0 01.231 1.386c.259 2.586-.708 5.069-2.21 5.368l-.134-1.08zm-2.431-3.52l-.013.045v-.047h.017"/></g></g></g><g data-name="Group 3374"><g data-name="Group 3373" opacity=".11"><g data-name="Group 3372" clip-path="url(#s)" transform="translate(47.719 120.76)"><path data-name="Path 3482" d="M46.674 14.716a1.614 1.614 0 00-2.6.37 29.142 29.142 0 01-3.9 5.661c-3.495 3.924-7.694 6.064-12.142 6.19-.143 0-.288.005-.431.005-10.407 0-20.041-10.709-24.416-25.746a1.571 1.571 0 00-.324-.6L2.829.558A1.613 1.613 0 00.064 2.07c4.821 16.433 15.721 28.173 27.552 28.173q.255 0 .508-.007c5.365-.152 10.372-2.67 14.48-7.282a32.29 32.29 0 004.363-6.363 1.6 1.6 0 00-.266-1.841l-.034-.036" fill="#617cf2"/></g></g></g><g data-name="Group 3377"><g data-name="Group 3376" opacity=".11"><g data-name="Group 3375" clip-path="url(#t)" transform="translate(35.039 87.314)"><path data-name="Path 3483" d="M65.866 54.478l-.044.013a1.646 1.646 0 00-1.042.882 41.343 41.343 0 01-6.691 10.271c-4.867 5.363-10.728 8.29-16.947 8.463-.2.006-.4.008-.6.008-18.207 0-34.716-23.079-36.96-51.882a78.573 78.573 0 01.964-20.194 1.553 1.553 0 000-.542l-.021-.124a1.64 1.64 0 00-3.234-.018A81.566 81.566 0 00.257 22.487c2.376 30.5 20.374 54.93 40.3 54.93.226 0 .452 0 .679-.01 7.153-.2 13.838-3.5 19.329-9.555a44.433 44.433 0 007.231-11.106 1.638 1.638 0 00-1.93-2.269" fill="#617cf2"/></g></g></g><path data-name="Path 3484" d="M96.931 64.379h21.023v-9.787a46.94 46.94 0 00-21.027-6.094z" fill="#ef9d3a"/><path data-name="Path 3485" d="M104.312 59.018a12.792 12.792 0 01-6.091-10.459 40.758 40.758 0 00-17.134 2.614c-18.126 6.829-31.591 40.425-23.576 65.753 2.736 8.643 31.815 14.827 34.689 3.832 6.271-23.99 20.472-39.719 39.073-56.414a68.593 68.593 0 00-14.8-10.545c.4 5.5-7.016 8.362-12.166 5.216" fill="#ef2e65"/><path data-name="Path 3486" d="M100.272 50.86l14.8 4.01 8.5-23.833-14.8-4.01z" fill="#ef9d3a"/><path data-name="Path 3487" d="M104.277 39.628c-.907 2.543 2.09 9.31 6.287 10.884l5.374 1.933 7.633-21.408-14.8-4.01z" fill="#f28338"/><path data-name="Path 3488" d="M72.5 81.021c-10.228.288-17.536 12.9-16.322 28.173s10.49 27.415 20.718 27.127 17.536-12.9 16.322-28.173-10.491-27.416-20.719-27.127" fill="#ef2e65"/><path data-name="Path 3489" d="M73.3 106.658c-3.343-2.116-6.325-4.756-9.711-6.8a28.53 28.53 0 01-8.139-5.279 61.758 61.758 0 00-.074 11.387c2.2 6.251 27.184 22.5 32.8 23.7 0 0 3.927-8.569 4-8.866 0-.015.011-.027.015-.042q.371-1.419.781-2.8c-3.057-1.721-6.118-3.435-9.169-5.166-3.524-2-7.081-3.972-10.506-6.139" fill="#bf2155"/><path data-name="Path 3490" d="M6.784 52.545a2.464 2.464 0 00-2.481 2.582l.95 19.207a2.465 2.465 0 004.923-.243l-.949-19.206a2.465 2.465 0 00-2.443-2.343" fill="#bcbcbc"/><path data-name="Path 3491" d="M91.179 210.461a6.915 6.915 0 00-6.884-6.448H64.469a6.9 6.9 0 00-6.884 7.35l.256 3.913a6.915 6.915 0 006.884 6.449h19.827a6.9 6.9 0 006.884-7.349zm-4 6.823a3.562 3.562 0 01-2.625 1.138H64.725a3.6 3.6 0 01-3.588-3.361l-.257-3.914a3.6 3.6 0 013.589-3.831h19.826a3.6 3.6 0 013.589 3.362l.257 3.915a3.562 3.562 0 01-.964 2.692" fill="#1e2023"/><path data-name="Path 3492" d="M91.358 213.199a2.082 2.082 0 00-1.625-.826 1.83 1.83 0 00-1.685.826l.091 1.394a3.6 3.6 0 01-3.589 3.83H64.724a3.6 3.6 0 01-3.588-3.361l-.122-1.862a2.064 2.064 0 00-1.677-.826 1.836 1.836 0 00-1.634.826l.136 2.078a6.915 6.915 0 006.885 6.451h19.827a6.9 6.9 0 006.884-7.349z" fill="#44484f"/><path data-name="Path 3493" d="M133.38 3.005a1.991 1.991 0 00-1.39-2.7 8.426 8.426 0 00-3.9-.153 13.537 13.537 0 00-4.441 1.916 8.189 8.189 0 01-4.206.533c-1.946-.04-4.056.063-5.711 1.209-1.517 1.049-2.748 2.89-2.298 4.79.251 1.073 2.945 2.314 3.544 3.237a1.417 1.417 0 00.426.478 1.532 1.532 0 00.789.133c4.488.008 8.333 2.807 12.017 5.013 1.525.913 3.328 2.181 5.2 1.967a2.561 2.561 0 002.122-3.286c-.415-1.455-1.579-2.56-.169-3.882.881-.826 2.3-1.5 2.333-2.877a2.342 2.342 0 00-.226-1.093c-1-2.092-4.921-2.471-4.09-5.288" fill="#4f371c"/><path data-name="Path 3494" d="M127 5.76l-8.983.052a9.9 9.9 0 00-9.822 9.206l-.837 11.862 24.753.2 1.5-14a6.615 6.615 0 00-6.616-7.322" fill="#4f371c"/><path data-name="Rectangle 1172" fill="#27252b" d="M130.201 25.958h5.401v1.534h-5.401z"/><path data-name="Path 3495" d="M124.603 7.414l-6.372-.2a9.463 9.463 0 00-9.507 8.753l-1.6 21.073a8.506 8.506 0 008.139 9.309l6.372.2a9.462 9.462 0 009.507-8.753l1.6-21.073a8.5 8.5 0 00-8.139-9.309" fill="#f28338"/><path data-name="Path 3496" d="M124.603 7.414l-6.372-.2a9.463 9.463 0 00-9.507 8.753l-1.6 21.073a8.506 8.506 0 008.139 9.309l6.372.2a9.462 9.462 0 009.507-8.753l1.6-21.073a8.5 8.5 0 00-8.139-9.309" fill="#ef9d3a"/><path data-name="Path 3497" d="M120.049 27.426c-.408-.005-.857.615-1 1.383s.065 1.4.473 1.4.857-.614 1-1.383-.065-1.4-.473-1.4" fill="#1e1d21"/><path data-name="Path 3498" d="M130.335 27.426c-.408-.005-.857.615-1 1.383s.065 1.4.473 1.4.857-.614 1-1.383-.065-1.4-.473-1.4" fill="#1e1d21"/><g data-name="Group 3380"><g data-name="Group 3379" opacity=".32"><g data-name="Group 3378" clip-path="url(#u)" transform="translate(115.605 22.73)"><path data-name="Path 3499" d="M4.666 0L0 9.409a3.313 3.313 0 002.586 2.142l4.43-8.936A3.766 3.766 0 004.666 0" fill="#fff"/></g></g></g><path data-name="Path 3500" d="M125.418 35.455c-1.191-1.488-1.887-5.412-1.08-8.228.358-1.251-1.256.294-1.105-.346-.94 2.688-2.981 9.638 1.766 9.638a4.539 4.539 0 001.968-.267 2.514 2.514 0 01-1.548-.8" fill="#f28338"/><path data-name="Path 3501" d="M73.204 95.66l1.645 1.437s11.113-24.942 10.03-24.563S73.203 95.66 73.203 95.66" fill="#bf2155"/><g data-name="Group 3383"><g data-name="Group 3382" opacity=".32"><g data-name="Group 3381" clip-path="url(#u)" transform="translate(128.265 22.73)"><path data-name="Path 3502" d="M4.665 0L-.001 9.409a3.317 3.317 0 002.586 2.142l4.431-8.936A3.766 3.766 0 004.665 0" fill="#fff"/></g></g></g><path data-name="Path 3503" d="M125.273 6.669l-7.382.07c-4.853-.153-9.069 4.115-9.445 9.082l-.116 3.655-.675 8.238c-.025.426.668.72 1.235.727l2 .027a.852.852 0 00.948-.669l.355-5.012.618-6.83a7.625 7.625 0 012.522-4.92 6.05 6.05 0 014.183-1.536c1.71.06 3.17 1.035 4.788 1.465 1.287.342 2.6-.074 3.9-.144a4.406 4.406 0 014.522 4.194 7.542 7.542 0 00-7.456-8.345" fill="#4f371c"/><path data-name="Path 3504" d="M133.38 3.005a1.991 1.991 0 00-1.39-2.7 8.436 8.436 0 00-3.9-.153 13.539 13.539 0 00-4.441 1.917 8.2 8.2 0 01-4.206.533 12.573 12.573 0 00-4.121.438 3.222 3.222 0 00-1.579.893 4.354 4.354 0 00-1 1.815 2.584 2.584 0 00.434 2.138 1.9 1.9 0 001.8.7 3.262 3.262 0 001.707-1.167 4.824 4.824 0 01.973-.851 6.518 6.518 0 013.317-.828 4.384 4.384 0 012.843.8 11.35 11.35 0 011.006 1.08 5.458 5.458 0 004.435 1.68c1.141-.11 2.219-.58 3.355-.736a1.969 1.969 0 011 .063.851.851 0 01.567.765c-.008.227-.134.435-.162.661-.187 1.519 2.66.835 3.285.442a1.987 1.987 0 00.39-1.109 2.343 2.343 0 00-.226-1.093c-1-2.092-4.921-2.47-4.09-5.288" fill="#634221"/><path data-name="Path 3505" d="M119.618 21.814c-2.627-.042-4.991 2.853-5.368 6.557a7.447 7.447 0 001.459 5.58 3.7 3.7 0 002.694 1.408h.058c2.61 0 4.937-2.955 5.31-6.631a7.568 7.568 0 00-1.459-5.628 3.619 3.619 0 00-2.694-1.286m2.771 6.687c0 2.733-2.229 5.383-3.928 5.383h-.03a2.211 2.211 0 01-1.467-.924 6.13 6.13 0 01-1.044-4.429c.278-2.733 1.94-4.977 3.64-4.977h.03a2.2 2.2 0 011.611.706 6.444 6.444 0 011.188 4.211z" fill="#3d3942"/><path data-name="Path 3506" d="M132.272 22.079h-.053c-2.61 0-4.936 2.762-5.31 6.437a7.089 7.089 0 001.459 5.435 3.7 3.7 0 002.694 1.408h.058c2.61 0 5.287-3.008 5.287-6.685v-.053c0-2.182-.312-4.113-1.448-5.39a3.406 3.406 0 00-2.683-1.152m2.484 6.574c-.278 2.732-1.941 5.231-3.64 5.231h-.03a2.212 2.212 0 01-1.467-.924 6.13 6.13 0 01-1.043-4.429c.277-2.733 1.94-4.976 3.64-4.976h.03a2.026 2.026 0 011.466.8 5.8 5.8 0 011.045 4.3" fill="#3d3942"/><path data-name="Rectangle 1175" fill="#3d3942" d="M106.023 25.958h9.363v1.534h-9.363z"/><path data-name="Rectangle 1176" fill="#3d3942" d="M122.572 25.958h5.401v1.534h-5.401z"/><path data-name="Path 3507" d="M106.23 25.921c-2-.767-3.721.236-3.835 2.241a5.482 5.482 0 003.42 5.02c2 .767 3.72-.236 3.835-2.241a5.481 5.481 0 00-3.42-5.02" fill="#ef9d3a"/><path data-name="Path 3508" d="M105.158 27.527a1.3 1.3 0 00-1.057 1.289 2.906 2.906 0 001.812 2.66 1.374 1.374 0 002.033-1.188c0-.059-.006-.119-.007-.179-1.149-.112-1.915-2.337-2.78-2.582" fill="#f28338"/><path data-name="Path 3509" d="M123.157 39.798c-1.372 0-4.342-.3-5.9-2.658a.718.718 0 00-.921-.238l-.021.01a.735.735 0 00-.286 1.055 7.819 7.819 0 006.7 3.284h.423a.727.727 0 100-1.454" fill="#f28338"/><path data-name="Path 3510" d="M119.223 41.636a5.059 5.059 0 01-1.337-.631.586.586 0 00-.927.48 1.634 1.634 0 00.052.383 1.583 1.583 0 002.41.91.642.642 0 00-.2-1.143" fill="#f28338"/><path data-name="Path 3511" d="M116.487 74.96c4.706 5.84 8.188 13.225 15.465 20.07 5.066 4.765 22.168 13.252 49.33 13.735l3.079-10.785c-22.55-1.236-37.726-15.41-40.856-17.724-9.107-6.732-12.42-16.373-20.884-20.684z" fill="#ef9d3a"/><path data-name="Path 3512" d="M131.952 95.03c.194.182.412.372.642.564a34.412 34.412 0 0012.29-14.245c-.587-.474-1.052-.851-1.38-1.093-9.106-6.732-12.419-16.373-20.883-20.684l-6.134 15.388c4.706 5.84 8.188 13.225 15.465 20.07" fill="#f28338"/><path data-name="Path 3513" d="M112.282 75.755c5.847 4.119 7.573 11.477 17 17.954 6.319-5.165 12.225-10.165 14.963-15.35-6.614-8.814-17.622-20.6-26.34-23.8z" fill="#ef2e65"/><path data-name="Path 3514" d="M141.694 75.085a29.656 29.656 0 01-4.7 5.81 62.308 62.308 0 01-11.829 9.523 36.18 36.18 0 004.121 3.29c6.319-5.165 12.225-10.165 14.963-15.35a115.115 115.115 0 00-2.554-3.273" fill="#ff4a86"/><path data-name="Path 3515" d="M84.748 55.922a6.978 6.978 0 00-4.687-2.946 8.029 8.029 0 00-5.77 1.887c-5.811 4.563-9.865 10.388-13.489 16.8-1.631 2.883-3.16 5.821-4.659 8.775-.6 1.186-2.174 4.135-2.174 4.135.114 2.9 4.71 5.169 6.811 6.364 4.006 2.28 13.918 2.89 13.918 2.89l7.262-16.474a66.331 66.331 0 003.916-10.433 15.581 15.581 0 00.161-8.457 8.825 8.825 0 00-1.289-2.537" fill="#ef2e65"/><path data-name="Path 3516" d="M55.714 81.265c-.711 1.366-1.745 3.3-1.745 3.3.114 2.9 4.71 5.169 6.81 6.364a72.235 72.235 0 004.85 2.533 3.828 3.828 0 014.176-2.661c1.926.188 3.409 1.782 4.893 3.018l2.8-6.353c-2.88-1.3-5.775-2.561-8.74-3.653a51.234 51.234 0 00-13.044-2.553" fill="#ff4a86"/><path data-name="Path 3517" d="M53.973 84.569c-.4 8.291 14.644 10.645 14.644 10.645l6.08-1.391a24.035 24.035 0 00-20.724-9.254" fill="#d8235f"/><path data-name="Path 3518" d="M55.303 85.721s-4.194 10.368-1.339 13.582 23.945.182 23.945.182-7.083-13.764-22.606-13.764" fill="#ef9d3a"/><path data-name="Path 3519" d="M114.629 57.407c-1.423 1.434-3.661 2.106-6.645 1.993-8.184-.3-9.439-9.265-9.617-11.241-.727.075-1.472.1-2.215.108.333 4.689 3.145 13.026 11.75 13.345q.359.013.7.013c3.3 0 5.866-.9 7.619-2.685a8.366 8.366 0 002.234-4.555 31.5 31.5 0 01-2.115-.964 6.385 6.385 0 01-1.717 3.986" fill="#ff4a86"/><path data-name="Path 3520" d="M119.585 75.446c-.7-.112-4.173 4.26-4.173 4.26l.013.021c.06-.065.117-.13.177-.194l.035.027.3-.336c.28.335.554.681.828 1.031 1.082-1.494 3.352-4.723 2.815-4.81" fill="#bf2155"/><path data-name="Path 3521" d="M199.117 97.197l.553 11.328a6.378 6.378 0 002.982-3.228c.1-.274-.728-7.132-1.558-8.1a1.344 1.344 0 00-1.978 0" fill="#f28338"/><path data-name="Path 3522" d="M195.674 96.351l2.4 13.957s3.911-3.851 4.128-4.667-2.406-8.86-2.9-9.77-3.628.48-3.628.48" fill="#f28338"/><path data-name="Path 3523" d="M189.987 98.442s-1.845 5.949-1.937 6.087 2.148 4 2.148 4 .895-7.178 2.785-6.81-3-3.274-3-3.274" fill="#e27933"/><path data-name="Path 3524" d="M194.46 109.33c-3.435 0-7.854 17.285-8.7 20.749l.716.176c1.917-7.805 5.78-20.187 7.988-20.187 1.456 0 2.45 10.436 2.537 20.1l.737-.007c-.044-4.887-.409-20.833-3.274-20.833" fill="#edefee"/><path data-name="Path 3525" d="M187.572 128.323l-5.143 33.57 5.626 4.058 23.7-1.968-2.8-35.66z" fill="#6cdcb8"/><g data-name="Group 3386"><g data-name="Group 3385" opacity=".2"><g data-name="Group 3384" clip-path="url(#v)" transform="translate(185.868 130.649)"><path data-name="Path 3526" d="M1.343-.001L.001 8.76l25.2 15.875-.959-12.224z" fill="#fff"/></g></g></g><path data-name="Path 3527" d="M179.657 128.323l-2.859 36.89 11.252.738-.483-37.628z" fill="#67cea9"/><path data-name="Path 3528" d="M194.153 129.502a.715.715 0 00-.55.888.836.836 0 00.794.781.716.716 0 00.55-.888.835.835 0 00-.794-.781" fill="#63c6a2"/><path data-name="Path 3529" d="M202.824 129.502c-.345.03-.573.427-.511.888s.392.81.737.781.573-.428.511-.888-.392-.811-.737-.781" fill="#63c6a2"/><path data-name="Path 3530" d="M182.9 162.666l-6.1 2.5v.052l11.252.738-1.8-1.85z" fill="#6ed6ae"/><path data-name="Path 3531" d="M184.186 128.323c-.173 5.77-1.286 34.262-1.286 34.262l4.96 3.353.19.013-.482-37.628z" fill="#61c69f"/><path data-name="Path 3532" d="M194.398 109.336a1.755 1.755 0 00-1.157.792c-2.525 3.641.584 19.925.717 20.617l.725-.14c-.032-.166-3.186-16.668-.836-20.057a1.035 1.035 0 01.673-.485c3.077-.513 6.591 12.41 8.106 20.679l.727-.133c-.416-2.263-4.2-22.075-8.956-21.273" fill="#fff"/><path data-name="Path 3533" d="M194.22 93.738c-2.775-.553-14.839 6.681-14.839 6.681a56.515 56.515 0 001.2 6.784c1.338 5.506 12.635 6.825 13.641 7.1 1.114.306 1.039-1.732 1.285-2.277a1.946 1.946 0 001.891.817c.759-.086.9-1.486.887-1.982a25.464 25.464 0 01.954-5.531 10.167 10.167 0 00-.963-6.653c-.747-1.4-2.271-4.584-4.053-4.94m.593 17.431a2.3 2.3 0 00-1.875-1.138 2.588 2.588 0 01-2.828-2.4c-.193-1.848.266-6.794 1.408-6.425s4.893 5.841 3.3 9.96" fill="#ef9d3a"/><path data-name="Path 3534" d="M190.198 115.534h.8c1.268-3.2 2.514-5.466 3.458-5.466a.326.326 0 01.108.022v-.742a.743.743 0 00-.108-.015c-1.36 0-2.875 2.714-4.261 6.2" fill="#edefee"/><path data-name="Path 3535" d="M193.241 110.127c-.706 1.018-.971 3.027-.984 5.407h.723c.006-2.225.238-4.079.868-4.986a1.037 1.037 0 01.673-.485h.046v-.736a1.654 1.654 0 00-.169.011 1.755 1.755 0 00-1.157.792" fill="#fff"/><path data-name="Path 3536" d="M179.857 105.818c-.108-.367-.48-.367-.854-.367a.582.582 0 00-.561.783 12.483 12.483 0 001.067 2.511c.588.032 1.176.029 1.775.056v-.022c.093.137.193.263.3.393a.76.76 0 00-.108-.2 9.167 9.167 0 01-1.617-3.151" fill="#f28338"/><path data-name="Path 3537" d="M72.209 92.405s-24.036-1.619-18.245 6.9c15.051 22.133 48.742 30.84 48.742 30.84l6.021-10c-13.518-3.068-36.518-27.74-36.518-27.74" fill="#ef9d3a"/><path data-name="Path 3538" d="M113.809 116.292c-.65-.42-.432-1.633-2.469-2.7-3.342-1.747-11.515 2.746-11.515 2.746l-9.666 9.438s14.637 6.357 18.323 5.486c5.278-1.247 9.611-7.666 10.26-8.252s6.606-.867 4.991-4.034c-1.211-2.375-9.279-2.266-9.929-2.686" fill="#ef9d3a"/><path data-name="Path 3539" d="M96.469 118.593c.466.308 3.516-2.59 3.373-2.455q-.572-.352-1.15-.722c-.8.841-2.653 2.891-2.223 3.176" fill="#f28338"/><g data-name="Group 3389"><g data-name="Group 3388" opacity=".52"><g data-name="Group 3387" clip-path="url(#w)" transform="translate(109.78 114.794)"><path data-name="Path 3540" d="M4.028 1.498c-.342-.221-.446-.662-.761-1.185C.88-.746.057 1.136 0 2.222c-.061 1.175 9.377.547 11.867.916a2.418 2.418 0 012.36 2.163 2.134 2.134 0 00-.269-1.119c-1.211-2.375-9.279-2.266-9.929-2.686" fill="#f28338"/></g></g></g><g data-name="Group 3395"><g data-name="Group 3394" opacity=".52"><g data-name="Group 3393" clip-path="url(#y)" transform="translate(93.656 120.096)"><path data-name="Path 3543" d="M18.954 2.663c-1.45 1.925-5.52 6.333-8.024 6.3A50.628 50.628 0 010 7.122c4.569 1.819 12.294 4.644 14.831 4.044 5.278-1.247 9.61-7.666 10.259-8.252.564-.509 5.109-.789 5.261-2.916-.755 2.786-10.525 1.505-11.4 2.663" fill="#f28338"/></g></g></g></g></g></g></g></g></g></g></svg>