<svg xmlns="http://www.w3.org/2000/svg" width="300" height="300"><defs><clipPath id="a"><path data-name="Rectangle 3202" transform="translate(371 4225)" fill="none" stroke="#707070" d="M0 0h300v300H0z"/></clipPath><clipPath id="b"><path data-name="Path 962" d="M146.985 0c25.814 0 50.248 10.251 71.321 21.932 15.287 8.474 27 22.382 38.35 35.039 22.087 24.622 37.314 53.363 37.314 90.014 0 13.151.5 27.494-2.737 39.629-10.255 38.4-41.032 66.446-75.487 85.213-21.788 11.867-42.367 22.143-68.762 22.143-34.5 0-65.613-16.945-90.8-36.934C22.369 230.2 0 193.662 0 146.985c0-37.666 17.861-68.857 41.2-94.91C68.071 22.072 103.474 0 146.985 0z" transform="rotate(25.97 -2781.305 1217.33)" fill="#deeeff"/></clipPath><clipPath id="c"><path data-name="Rectangle 1225" fill="none" d="M0 0h293.703v343.899H0z"/></clipPath><clipPath id="d"><path data-name="Rectangle 1182" transform="translate(0 317.407)" fill="none" d="M0 0h293.703v26.492H0z"/></clipPath><clipPath id="e"><path data-name="Rectangle 1184" transform="translate(199.708 302.933)" fill="none" d="M0 0h11.375v7.468H0z"/></clipPath><clipPath id="f"><path data-name="Rectangle 1185" transform="translate(172.641 314.034)" fill="none" d="M0 0h30.085v16.606H0z"/></clipPath><clipPath id="g"><path data-name="Rectangle 1186" transform="translate(214.011 64.796)" fill="none" d="M0 0h12.538v16.949H0z"/></clipPath><clipPath id="h"><path data-name="Rectangle 1187" transform="translate(196.048 21.085)" fill="none" d="M0 0h57.402v29.159H0z"/></clipPath><clipPath id="i"><path data-name="Rectangle 1188" transform="translate(204.712 48.085)" fill="none" d="M0 0h5.275v7.039H0z"/></clipPath><clipPath id="j"><path data-name="Rectangle 1189" transform="translate(229.477 50.768)" fill="none" d="M0 0h5.232v6.997H0z"/></clipPath><clipPath id="k"><path data-name="Rectangle 1190" transform="translate(244.393 303.52)" fill="none" d="M0 0h10.906v4.639H0z"/></clipPath><clipPath id="l"><path data-name="Rectangle 1191" transform="translate(187.252 232.602)" fill="none" d="M0 0h27.65v73.761H0z"/></clipPath><clipPath id="m"><path data-name="Rectangle 1192" transform="translate(222.249 234.944)" fill="none" d="M0 0h37.123v71.549H0z"/></clipPath><clipPath id="n"><path data-name="Rectangle 1193" transform="translate(187.083 178.396)" fill="none" d="M0 0h53.52v20.554H0z"/></clipPath><clipPath id="o"><path data-name="Rectangle 1194" transform="translate(227.081 314.376)" fill="none" d="M0 0h21.807v14.113H0z"/></clipPath><clipPath id="p"><path data-name="Rectangle 1195" transform="translate(216.581 97.096)" fill="none" d="M0 0h6.928v69.314H0z"/></clipPath><clipPath id="q"><path data-name="Rectangle 1196" transform="translate(209.767 86.823)" fill="none" d="M0 0h23.471v15.227H0z"/></clipPath><clipPath id="r"><path data-name="Rectangle 1197" transform="translate(213.753 89.643)" fill="none" d="M0 0h10.465v8.329H0z"/></clipPath><clipPath id="s"><path data-name="Rectangle 1201" transform="translate(83.911 299.846)" fill="none" d="M0 0h11.684v7.67H0z"/></clipPath><clipPath id="t"><path data-name="Rectangle 1202" transform="translate(92.495 311.247)" fill="none" d="M0 0h30.899v17.055H0z"/></clipPath><clipPath id="u"><path data-name="Rectangle 1203" transform="translate(68.027 55.266)" fill="none" d="M0 0h12.877v17.409H0z"/></clipPath><clipPath id="v"><path data-name="Rectangle 1204" transform="translate(38.499 300.449)" fill="none" d="M0 0h11.201v4.764H0z"/></clipPath><clipPath id="w"><path data-name="Rectangle 1205" transform="translate(79.99 227.613)" fill="none" d="M0 0h28.398v75.756H0z"/></clipPath><clipPath id="x"><path data-name="Rectangle 1206" transform="translate(34.316 230.018)" fill="none" d="M0 0h38.127v73.484H0z"/></clipPath><clipPath id="y"><path data-name="Rectangle 1207" transform="translate(53.593 171.94)" fill="none" d="M0 0h54.968v21.11H0z"/></clipPath><clipPath id="z"><path data-name="Rectangle 1208" transform="translate(45.083 311.598)" fill="none" d="M0 0h22.398v14.494H0z"/></clipPath><clipPath id="A"><path data-name="Rectangle 1209" transform="translate(71.149 88.44)" fill="none" d="M0 0h7.116v71.189H0z"/></clipPath><clipPath id="B"><path data-name="Rectangle 1210" transform="translate(61.158 77.89)" fill="none" d="M0 0h24.105v15.638H0z"/></clipPath><clipPath id="C"><path data-name="Rectangle 1211" transform="translate(70.421 80.786)" fill="none" d="M0 0h10.748v8.554H0z"/></clipPath><clipPath id="D"><path data-name="Rectangle 1212" transform="translate(200.539 134.291)" fill="none" d="M0 0h.066v.297H0z"/></clipPath><clipPath id="E"><path data-name="Rectangle 1215" transform="translate(86.806 39.429)" fill="none" d="M0 0h2.722v2.298H0z"/></clipPath><clipPath id="F"><path data-name="Rectangle 1216" transform="translate(65.043 38.948)" fill="none" d="M0 0h2.722v2.298H0z"/></clipPath><clipPath id="G"><path data-name="Rectangle 1217" transform="translate(48.653 34.088)" fill="none" d="M0 0h50.291v17.236H0z"/></clipPath><clipPath id="H"><path data-name="Rectangle 1218" transform="translate(55.419 32.948)" fill="none" d="M0 0h44.816v17.232H0z"/></clipPath><clipPath id="I"><path data-name="Rectangle 1219" transform="translate(87.552 38.2)" fill="none" d="M0 0h5.276v4.821H0z"/></clipPath><clipPath id="J"><path data-name="Rectangle 1220" transform="translate(65.169 37.67)" fill="none" d="M0 0h5.276v4.821H0z"/></clipPath><clipPath id="K"><path data-name="Rectangle 1221" transform="translate(182.261 101.631)" fill="none" d="M0 0h70.551v74.387H0z"/></clipPath><clipPath id="L"><path data-name="Rectangle 1223" transform="translate(75.316 19.286)" fill="none" d="M0 0h15.115v9.325H0z"/></clipPath></defs><g data-name="Mask Group 35" transform="translate(-371 -4225)" clip-path="url(#a)"><g data-name="Group 9318"><path data-name="Path 957" d="M586.008 4243.541c23.206 11.307 40.683 31.225 54.51 50.956 10.032 14.314 14.47 31.947 19.13 48.297 9.072 31.81 10.173 64.317-5.88 97.266-5.76 11.823-11.593 24.936-19.818 34.428-26.039 30.03-65.992 41.763-105.187 43.543-24.785 1.126-47.786 1.35-71.515-10.211-31.016-15.111-51.564-43.972-65.452-72.974-18.646-38.937-22.752-81.582-2.307-123.544 16.497-33.862 46.216-54.08 78.609-67.279 37.298-15.203 78.793-19.54 117.91-.482z" fill="#deeeff"/><g data-name="Mask Group 10" transform="translate(201.589 2838)" clip-path="url(#b)"><g data-name="Group 3513"><g data-name="Group 3512" clip-path="url(#c)" transform="translate(176.411 1436)"><g data-name="Group 3404"><g data-name="Group 3403"><g data-name="Group 3402" clip-path="url(#c)"><g data-name="Group 3401" opacity=".1"><g data-name="Group 3400" clip-path="url(#d)"><path data-name="Path 3544" d="M293.7 332.046S220.5 343.9 149.016 343.9 0 332.046 0 332.046s87.5-14.639 144.412-14.639S293.7 332.046 293.7 332.046"/></g></g></g></g></g><path data-name="Path 3545" d="M212.009 317.576l-10.424-.4-1.877-12.694 10.5-1.553z" fill="#44484f"/><g data-name="Group 3511"><g data-name="Group 3510" clip-path="url(#c)"><path data-name="Path 3546" d="M180.686 324.454c5.462 1.711 17.79-10.114 20.144-12.323 0 0 3.04 2.959 10.5-.061 5.209 2.555 4.867 14.379 4.563 18.651a1.783 1.783 0 01-1.656 1.653l-9.56.678a1.259 1.259 0 01-1.343-1.165l-.072-1.024-9.68 3.357c-9.679 3.356-20.873-1.191-20.873-1.191l-.08-3.808c-.082-3.809 2.594-6.478 8.055-4.767" fill="#231919"/><g data-name="Group 3407"><g data-name="Group 3406" opacity=".1"><g data-name="Group 3405" clip-path="url(#e)"><path data-name="Path 3547" d="M211.084 310.055c-1.185.021-2.368.043-3.554.053-2.166.019-4.608.279-6.948.293l-.874-5.914 10.5-1.553z"/></g></g></g><g data-name="Group 3410"><g data-name="Group 3409" opacity=".05"><g data-name="Group 3408" clip-path="url(#f)"><path data-name="Path 3548" d="M180.686 324.454c4.514 1.413 13.71-6.411 18.1-10.42 9.178 6.286.591 15.127-8.123 16.208-5.728.71-12.321.6-18.022-1.4.1-3.6 2.77-6.041 8.046-4.388" fill="#fff"/></g></g></g><path data-name="Path 3549" d="M219.889 64.8h1.466c3.168.008 5.2 3.43 5.194 6.6l-.208 17.61c-.006 3.168-1.885 3.871-5.052 3.863h-1.465c-3.168-.008-5.9-2.006-5.9-5.174l.19-17.151a5.774 5.774 0 015.772-5.746" fill="#ff9f85"/><g data-name="Group 3413"><g data-name="Group 3412" opacity=".07"><g data-name="Group 3411" clip-path="url(#g)"><path data-name="Path 3550" d="M219.889 64.8h1.466c3.168.008 5.2 3.43 5.194 6.6l-.109 9.232c-4.023 1.893-8.269 1.155-12.429-.545l.106-9.542a5.774 5.774 0 015.772-5.746"/></g></g></g><path data-name="Path 3551" d="M197.559 44.162c2.577-.114 4.791 2.6 4.944 6.073s-1.812 6.37-4.39 6.484-4.791-2.605-4.945-6.072 1.813-6.371 4.391-6.485" fill="#ed957f"/><path data-name="Path 3552" d="M221.247 21.516l8.552.983a20.675 20.675 0 0118.124 22.832l-1.777 15.446A20.672 20.672 0 01223.314 78.9l-8.551-.983a20.673 20.673 0 01-18.123-22.832l1.775-15.444a20.674 20.674 0 0122.832-18.125" fill="#fba386"/><path data-name="Path 3553" d="M250.479 49.279c2.368 1 3.2 4.386 1.863 7.572s-4.345 4.962-6.714 3.966-3.2-4.386-1.863-7.572 4.346-4.962 6.714-3.966" fill="#fba386"/><path data-name="Path 3554" d="M209.467 61.28l19.549 1.82a1.608 1.608 0 011.223 2.41c-2.691 4.787-7.344 7.816-12.227 7.362s-8.748-4.275-10.292-9.455a1.678 1.678 0 011.747-2.134" fill="#fff"/><path data-name="Path 3555" d="M248.078 23.592l.024-.094c.168.175.175.221-.024.094" fill="#784c4a"/><path data-name="Path 3556" d="M199.853 20.761a16.123 16.123 0 01-1.035-9.412 1.022 1.022 0 01.252-.579 1.02 1.02 0 01.73-.174c5.211.162 9.7 2.921 13.843 6.082a5.274 5.274 0 01-2.071-3.5 16.123 16.123 0 01-.192-4.4 22.131 22.131 0 0115.354 7.971 17.307 17.307 0 01-1.227-5.039c-.025-.288 7.867.559 14.488 4.555a53.689 53.689 0 018.016 6.025 6.033 6.033 0 01-.025.094c.2.127.192.081.025-.094a9.957 9.957 0 011.243-3.051c.217-.221.527-.448.809-.321a.742.742 0 01.32.368 5.07 5.07 0 01.241 4.025 3.362 3.362 0 013.68-2.487 10.614 10.614 0 01-1.981 5.773 3.607 3.607 0 012.733-.008c.257.7-1.587 1.978-1.587 1.978l.035.273c.655 5.239-1.713 15.161-6.043 20.5-3.967 4.658-6.175-10-9.294-13.6s-9.812-1.55-16.779-2.043-8.206-4.92-12.558-2.9-10.946 13.511-10.954 13.525a56.076 56.076 0 01-1.758-17.678 13.777 13.777 0 012.033-7.279 3.887 3.887 0 011.7 1.4" fill="#3d1208"/><g data-name="Group 3416"><g data-name="Group 3415" opacity=".1"><g data-name="Group 3414" clip-path="url(#h)"><path data-name="Path 3557" d="M253.45 33.341c-.562 5.276-2.7 11.948-5.988 16-3.968 4.658-6.176-10-9.294-13.6s-9.813-1.55-16.78-2.043-8.206-4.92-12.558-2.9-10.945 13.511-10.953 13.525a56.059 56.059 0 01-1.759-17.678 21.246 21.246 0 01.243-2.444c20.451-6.254 37.829-3.023 57.089 9.144"/></g></g></g><path data-name="Path 3558" d="M208.218 47.528c1.618.226 2.693 2.1 2.4 4.2s-1.84 3.6-3.458 3.378-2.692-2.1-2.4-4.2 1.84-3.6 3.457-3.378" fill="#562010"/><path data-name="Path 3559" d="M232.982 50.169c1.618.226 2.692 2.1 2.4 4.2s-1.839 3.6-3.458 3.378-2.692-2.1-2.4-4.2 1.841-3.6 3.458-3.378" fill="#562010"/><g data-name="Group 3419"><g data-name="Group 3418" opacity=".1"><g data-name="Group 3417" clip-path="url(#i)"><path data-name="Path 3560" d="M209.987 53.495a2.937 2.937 0 01-2.826 1.606c-1.618-.225-2.693-2.1-2.4-4.2a4.27 4.27 0 011.557-2.821 197.492 197.492 0 013.67 5.41" fill="#fff"/></g></g></g><g data-name="Group 3422"><g data-name="Group 3421" opacity=".1"><g data-name="Group 3420" clip-path="url(#j)"><path data-name="Path 3561" d="M234.71 56.212a2.912 2.912 0 01-2.785 1.531c-1.617-.226-2.693-2.1-2.4-4.2a4.274 4.274 0 011.519-2.78 127.29 127.29 0 003.667 5.445" fill="#fff"/></g></g></g><path data-name="Path 3562" d="M240.6 178.4l-.219 19.277s-49.488 5.309-52.141-.768c-2.034-4.658-.985-16.457-.985-16.457z" fill="#2b2727"/><path data-name="Path 3563" d="M205.855 197.728c-.062.258-1.585 33.116 9.016 104.755a2.019 2.019 0 01-1.568 2.471l-15.24 1.4a2.705 2.705 0 01-3-2.018c-11.189-71.391-8.1-108.12-7.9-112.82z" fill="#2b2727"/><path data-name="Path 3564" d="M256.694 318.163l-10.424-.4-1.877-12.694 10.5-1.553z" fill="#44484f"/><g data-name="Group 3425"><g data-name="Group 3424" opacity=".1"><g data-name="Group 3423" clip-path="url(#k)"><path data-name="Path 3565" d="M255.3 306.819a73.991 73.991 0 01-10.449 1.34l-.456-3.086 10.5-1.553z"/></g></g></g><path data-name="Path 3566" d="M240.346 186.244c-.063.257-2.362 53.332 18.913 115.941a2 2 0 01-1.656 2.668l-15.829 1.627a2.452 2.452 0 01-2.561-1.63c-26.5-75.85-16.705-112.95-15.868-115.914z" fill="#2b2727"/><g data-name="Group 3428"><g data-name="Group 3427" opacity=".17"><g data-name="Group 3426" clip-path="url(#l)"><path data-name="Path 3567" d="M195.233 240.835a12.372 12.372 0 0012.378.377c1.321 15.844 3.546 36.175 7.26 61.271a2.018 2.018 0 01-1.568 2.471l-15.24 1.4a2.7 2.7 0 01-3-2.019 701.043 701.043 0 01-7.807-71.729 24.847 24.847 0 007.981 8.232"/></g></g></g><g data-name="Group 3431"><g data-name="Group 3430" opacity=".17"><g data-name="Group 3429" clip-path="url(#m)"><path data-name="Path 3568" d="M230.7 240.979c4.438 1.238 9.743 1.2 13.4-1.682a363.9 363.9 0 0015.164 62.888 2 2 0 01-1.656 2.668l-15.829 1.627a2.453 2.453 0 01-2.56-1.63c-10.066-28.81-14.892-52.024-16.965-69.906a15.749 15.749 0 008.446 6.035"/></g></g></g><g data-name="Group 3434"><g data-name="Group 3433" opacity=".17"><g data-name="Group 3432" clip-path="url(#n)"><path data-name="Path 3569" d="M240.6 178.4l-.342 16.533c-7.942 4.892-42.9 7.24-53.179-4.43.012-3.5.176-10.051.176-10.051z"/></g></g></g><path data-name="Path 3570" d="M225.372 325.041c5.462 1.711 17.79-10.114 20.145-12.323 0 0 3.039 2.959 10.5-.061 5.09 2.5 4.879 13.84 4.584 18.345a2.119 2.119 0 01-1.965 1.979l-8.728.62a1.8 1.8 0 01-1.925-1.67l-.034-.481-9.68 3.357c-9.678 3.356-20.872-1.191-20.872-1.191l-.081-3.808c-.081-3.809 2.594-6.478 8.055-4.767" fill="#231919"/><g data-name="Group 3437"><g data-name="Group 3436" opacity=".05"><g data-name="Group 3435" clip-path="url(#o)"><path data-name="Path 3571" d="M248.321 323.048c-1.52 2.938-4.893 4.544-7.992 5.136a16.712 16.712 0 01-13.248-3c4.948-.472 12.862-7.321 16.658-10.808 3.155 1.9 6.511 4.943 4.582 8.672" fill="#fff"/></g></g></g><path data-name="Path 3572" d="M193.3 91.392c2.007-7 29.646-4.2 36.149-3.785.484.03.985.064 1.5.1 9.221.706 19.495 3.345 18.789 15.064 0 .051-13.836 81.72-19.038 81.558-18.052-.563-24.85 1.411-43.049.461-3.132-.163 4.922-27.972 5.679-42.126 1.791-33.524-.032-51.268-.03-51.276" fill="#fff"/><path data-name="Path 3573" d="M218.743 97.1a1.552 1.552 0 011.513 1.439c.629 8.716 3.931 55.231 3.129 60.086-.888 5.36-7.5 9.35-7.5 9.35s-6.774-3.895-7.17-8.6c-.357-4.232 6.7-51.27 8.122-60.683a1.872 1.872 0 011.9-1.592" fill="#fe3d2c"/><g data-name="Group 3440"><g data-name="Group 3439" opacity=".07"><g data-name="Group 3438" clip-path="url(#p)"><path data-name="Path 3574" d="M218.743 97.1a1.552 1.552 0 011.513 1.439c.629 8.716 3.931 55.231 3.129 60.086-.553 3.34-3.328 6.147-5.341 7.789.84-5.339 1.715-62.692.01-64.971a2.779 2.779 0 00-1.473-1.035l.259-1.716a1.872 1.872 0 011.9-1.592"/></g></g></g><path data-name="Path 3575" d="M189.775 138.2s3.519-46.794 3.521-46.8c.791-2.76 5.58-3.992 11.481-4.451 3.985 17.221 7.165 34.585 10.34 52.364 6.375-17.526 14.4-34.211 21.1-51.012 8.451 1.267 17.753 4.58 17.174 14.209 0 .022-5.9 32.178-5.9 32.178s2.628 52.462 0 53.993c-20.331 11.847-42.372-.447-42.372-.447-1.3 1.289-16.292 4.44-22.864-3.893-2.677-3.394 7.519-46.138 7.519-46.138" fill="#2b2727"/><path data-name="Path 3576" d="M189.775 138.2s3.519-46.794 3.521-46.8c.791-2.76 5.58-3.992 11.481-4.451 3.985 17.221 7.165 34.585 10.34 52.364.043-.118.089-.235.132-.353-.552 2.239-9.355 41.837-10 47.937-.048.445-.085.89-.126 1.337-2.663 2.037-17.425 3.633-22.864-3.893-2.533-3.5 7.519-46.138 7.519-46.138" fill="#232121"/><g data-name="Group 3443"><g data-name="Group 3442" opacity=".07"><g data-name="Group 3441" clip-path="url(#q)"><path data-name="Path 3577" d="M233.162 88.252c1 7.778-8.294 13.8-8.294 13.8a7.932 7.932 0 00-5.8-4.945c-4.341-.73-6.183 4.112-6.183 4.112-3.8-4.371-3.061-14.393-3.061-14.393z"/></g></g></g><path data-name="Path 3578" d="M215.814 89.914s6.313-1.445 8.043 2.338-3.315 7.082-3.315 7.082a5.3 5.3 0 01-6.46-4.247c-1.314-5.478 1.732-5.173 1.732-5.173" fill="#fe3d2c"/><g data-name="Group 3446"><g data-name="Group 3445" opacity=".07"><g data-name="Group 3444" clip-path="url(#r)"><path data-name="Path 3579" d="M215.814 89.914s6.313-1.445 8.043 2.338c1.05 2.3-.4 4.411-1.695 5.72a3.931 3.931 0 00-1.2-2.812 3.4 3.4 0 00-3.325-.891 3.221 3.221 0 00-2.165 3.415c.01.081.034.154.047.233a6.091 6.091 0 01-1.436-2.83c-1.314-5.478 1.732-5.173 1.732-5.173"/></g></g></g><path data-name="Path 3580" d="M214 83.477s.052 3.565 5.395 3.586a7.471 7.471 0 007.022-4.668 28.84 28.84 0 015.492 3.049c2.746 1.964 1.352 9.556-8.22 13.4 0 0-2.027-8.02-4.5-8.314s-5.276 8.069-5.276 8.069-4.134-5.409-4.092-11.781A12.855 12.855 0 01214 83.477" fill="#fff"/><path data-name="Path 3581" d="M210.094 148.471c.059.1.119.2 0 0" fill="#564f4f"/><path data-name="Path 3582" d="M210.1 148.463v.008c-.113-.2-.057-.106 0-.008" fill="#564f4f"/><path data-name="Path 3583" d="M210.1 148.467v-.008" fill="#564f4f"/><path data-name="Path 3584" d="M232.725 119.831l11.359 2.759-1.38 4.219-11.277-3.489z" fill="#302c2c"/><path data-name="Rectangle 1198" fill="#2d2929" d="M192.851 115.905h13v3h-13z"/><path data-name="Path 3585" d="M236.221 88.292l5.98 1.3s-1.43 16.855-5.98 27.809l-8.324-2.434 7.152 4.625s-12.351 17.058-20.739 23.5c0 0 3.345-11.6 11.031-30.74s10.88-24.054 10.88-24.054" fill="#302c2c"/><path data-name="Path 3586" d="M204.777 86.941l10.705 53.359s-9.188-14.63-12.475-24.606l3.956-1.4-4.625.061s-4.5-16.8-4.686-26.35a36.48 36.48 0 017.125-1.064" fill="#302c2c"/><path data-name="Path 3587" d="M214.793 149.731a1.952 1.952 0 101.947-1.825 1.89 1.89 0 00-1.947 1.825" fill="#302c2c"/><path data-name="Path 3588" d="M213.008 159.346a2.038 2.038 0 102.036-2.11 2.074 2.074 0 00-2.036 2.11" fill="#302c2c"/><path data-name="Path 3589" d="M210.411 169.287a2.182 2.182 0 102.18-2.291 2.237 2.237 0 00-2.18 2.291" fill="#302c2c"/><path data-name="Path 3590" d="M153.86 76.166c1.266-5.688 3.729-12.685 1.68-18.273-1.215-3.313-2.717-6.652-6.62-6.871-3.57-.2-9.949-1.86-11.747 1.611a17.881 17.881 0 00-.887 5.314c-.014 3.3.786 6.545 4.107 11.381a29.129 29.129 0 013.833 8.711z" fill="#fba386"/><path data-name="Rectangle 1199" fill="#3d1208" d="M117.213 50.676L136.52.021l41.483 15.812-19.307 50.654z"/><path data-name="Rectangle 1200" fill="#fffeea" d="M120.254 48.934L137.64 3.325l37.351 14.239-17.386 45.608z"/><path data-name="Path 3591" d="M135.942 156.973a97.826 97.826 0 0012.407 1.513l-.7 7.407a83.048 83.048 0 01-14.623-1.16c.851-1.922 2.225-5.782 2.912-7.76" fill="#ea8e75"/><path data-name="Path 3592" d="M134.538 154.753c2.8.473 5.54 1.419 7.75 1.653 0 1.59.11 7.792-.086 10.43a94.459 94.459 0 01-10.172-.9c.926-2.092 1.775-9.024 2.508-11.183" fill="#f2f2f2"/><path data-name="Path 3593" d="M100.795 93.956l1.384-11.375c10.194 23.731 8.979 58.25 35.763 70.408a2.263 2.263 0 011.328 2.451c-.562 3.136-1.413 7.511-1.859 10.834a2.193 2.193 0 01-2.757 1.808c-46.616-12.259-33.782-73.661-33.859-74.126" fill="#211e1e"/><path data-name="Path 3594" d="M82.961 314.885l10.706-.406 1.927-13.038-10.783-1.595z" fill="#44484f"/><path data-name="Path 3595" d="M115.13 321.949c-5.609 1.757-18.271-10.388-20.688-12.657 0 0-3.123 3.04-10.786-.062-5.351 2.624-5 14.768-4.688 19.156a1.834 1.834 0 001.7 1.7l9.817.695a1.291 1.291 0 001.38-1.2l.075-1.051 9.941 3.447c9.941 3.447 21.437-1.222 21.437-1.222l.083-3.912c.083-3.912-2.664-6.654-8.273-4.9" fill="#231919"/><g data-name="Group 3449"><g data-name="Group 3448" opacity=".1"><g data-name="Group 3447" clip-path="url(#s)"><path data-name="Path 3596" d="M83.911 307.16c1.216.021 2.432.044 3.649.055 2.225.018 4.734.286 7.137.3l.9-6.075-10.787-1.594z"/></g></g></g><g data-name="Group 3452"><g data-name="Group 3451" opacity=".05"><g data-name="Group 3450" clip-path="url(#t)"><path data-name="Path 3597" d="M115.13 321.949c-4.635 1.451-14.081-6.585-18.587-10.7-9.428 6.456-.609 15.536 8.341 16.646 5.883.73 12.655.618 18.51-1.437-.1-3.7-2.845-6.2-8.264-4.507" fill="#fff"/></g></g></g><path data-name="Path 3598" d="M74.868 55.266h-1.507c-3.254.007-5.342 3.522-5.335 6.776l.213 18.087c.008 3.252 1.936 3.974 5.19 3.966h1.506c3.253-.007 6.062-2.06 6.055-5.312l-.19-17.616a5.932 5.932 0 00-5.928-5.9" fill="#ff9f85"/><g data-name="Group 3455"><g data-name="Group 3454" opacity=".07"><g data-name="Group 3453" clip-path="url(#u)"><path data-name="Path 3599" d="M74.868 55.266h-1.507c-3.254.007-5.342 3.522-5.335 6.776l.112 9.481c4.133 1.946 8.492 1.188 12.766-.56l-.108-9.8a5.932 5.932 0 00-5.928-5.9"/></g></g></g><path data-name="Path 3600" d="M53.593 171.94l.224 19.8s50.827 5.452 53.552-.79c2.089-4.783 1.011-16.9 1.011-16.9z" fill="#2b2727"/><path data-name="Path 3601" d="M89.281 191.8c.064.265 1.628 34.012-9.26 107.588a2.074 2.074 0 001.61 2.538l15.653 1.434a2.775 2.775 0 003.084-2.073c11.493-73.322 8.324-111.045 8.12-115.871z" fill="#2b2727"/><path data-name="Path 3602" d="M37.067 315.488l10.706-.407 1.927-13.037-10.784-1.6z" fill="#44484f"/><g data-name="Group 3458"><g data-name="Group 3457" opacity=".1"><g data-name="Group 3456" clip-path="url(#v)"><path data-name="Path 3603" d="M38.5 303.837a75.935 75.935 0 0010.732 1.376l.469-3.17-10.784-1.594z"/></g></g></g><path data-name="Path 3604" d="M53.857 180c.064.264 2.425 54.775-19.425 119.078a2.054 2.054 0 001.7 2.74l16.257 1.671a2.518 2.518 0 002.63-1.674c27.217-77.9 17.157-116 16.3-119.049z" fill="#2b2727"/><g data-name="Group 3461"><g data-name="Group 3460" opacity=".17"><g data-name="Group 3459" clip-path="url(#w)"><path data-name="Path 3605" d="M100.19 236.068a12.705 12.705 0 01-12.712.387c-1.358 16.272-3.642 37.153-7.457 62.928a2.075 2.075 0 001.61 2.539l15.653 1.433a2.776 2.776 0 003.084-2.073 719.951 719.951 0 008.02-73.67 25.531 25.531 0 01-8.2 8.456"/></g></g></g><g data-name="Group 3464"><g data-name="Group 3463" opacity=".17"><g data-name="Group 3462" clip-path="url(#x)"><path data-name="Path 3606" d="M63.769 236.217c-4.558 1.271-10.007 1.232-13.763-1.728a373.654 373.654 0 01-15.574 64.589 2.055 2.055 0 001.7 2.741l16.258 1.67a2.515 2.515 0 002.629-1.673c10.339-29.59 15.3-53.432 17.424-71.8a16.176 16.176 0 01-8.674 6.2"/></g></g></g><g data-name="Group 3467"><g data-name="Group 3466" opacity=".17"><g data-name="Group 3465" clip-path="url(#y)"><path data-name="Path 3607" d="M53.593 171.939l.351 16.981c8.157 5.024 44.061 7.436 54.616-4.55-.011-3.6-.18-10.323-.18-10.323z"/></g></g></g><path data-name="Path 3608" d="M69.236 322.552c-5.609 1.757-18.271-10.388-20.689-12.656 0 0-3.122 3.039-10.785-.063-5.228 2.564-5.012 14.214-4.709 18.841a2.177 2.177 0 002.019 2.033l8.964.636a1.85 1.85 0 001.976-1.715l.036-.493 9.941 3.447c9.941 3.448 21.437-1.222 21.437-1.222l.083-3.912c.083-3.912-2.664-6.653-8.273-4.9" fill="#231919"/><g data-name="Group 3470"><g data-name="Group 3469" opacity=".05"><g data-name="Group 3468" clip-path="url(#z)"><path data-name="Path 3609" d="M45.666 320.505c1.561 3.018 5.025 4.667 8.208 5.275a17.161 17.161 0 0013.607-3.08c-5.082-.484-13.21-7.518-17.109-11.1-3.24 1.956-6.687 5.076-4.706 8.907" fill="#fff"/></g></g></g><path data-name="Path 3610" d="M102.179 82.582c-2.061-7.185-30.447-4.309-37.127-3.888-.5.032-1.011.067-1.54.107-9.471.726-20.021 3.436-19.3 15.472 0 .053 14.211 83.931 19.552 83.765 18.541-.578 25.523 1.449 44.215.473 3.216-.168-5.057-28.729-5.833-43.265-1.84-34.432.032-52.655.03-52.664" fill="#fff"/><path data-name="Path 3611" d="M76.044 88.44a1.6 1.6 0 00-1.554 1.478c-.646 8.952-4.038 56.725-3.213 61.711.911 5.506 7.7 9.6 7.7 9.6s6.957-4 7.364-8.832C86.707 148.05 79.46 99.74 78 90.073a1.926 1.926 0 00-1.956-1.636" fill="#3fa9f5"/><g data-name="Group 3473"><g data-name="Group 3472" opacity=".07"><g data-name="Group 3471" clip-path="url(#A)"><path data-name="Path 3612" d="M76.044 88.44a1.6 1.6 0 00-1.554 1.478c-.646 8.952-4.038 56.725-3.213 61.711.568 3.431 3.417 6.314 5.485 8-.862-5.483-1.762-64.388-.01-66.729a2.863 2.863 0 011.513-1.063c-.1-.678-.192-1.272-.265-1.761a1.926 1.926 0 00-1.956-1.636"/></g></g></g><path data-name="Path 3613" d="M105.8 130.651s-3.614-48.06-3.616-48.069c-.813-2.835-5.731-4.1-11.792-4.572-4.092 17.69-7.363 35.521-10.624 53.781-6.546-18-14.79-35.136-21.673-52.392-8.68 1.3-18.234 4.7-17.639 14.594 0 .022 6.062 33.048 6.062 33.048s-2.7 53.881 0 55.454C67.4 194.661 89.59 181.3 89.59 181.3c-.36 2.338 17.18 5.3 23.928-3.262 2.75-3.487-7.722-47.387-7.722-47.387" fill="#2b2727"/><path data-name="Path 3614" d="M105.8 130.651s-3.614-48.06-3.616-48.069c-.813-2.835-5.731-4.1-11.792-4.572-4.092 17.69-7.363 35.521-10.624 53.781-.044-.121-.091-.241-.135-.363.567 2.3 9.608 42.97 10.274 49.234.049.457.087.915.129 1.373 2.735 2.093 17.435 3.671 23.482-4 2.75-3.487-7.722-47.387-7.722-47.387" fill="#232121"/><g data-name="Group 3476"><g data-name="Group 3475" opacity=".07"><g data-name="Group 3474" clip-path="url(#B)"><path data-name="Path 3615" d="M61.235 79.357c-1.03 7.989 8.518 14.171 8.518 14.171a8.15 8.15 0 015.956-5.08c4.457-.75 6.35 4.223 6.35 4.223 3.907-4.488 3.141-14.782 3.141-14.782z"/></g></g></g><path data-name="Path 3616" d="M79.052 81.064s-6.484-1.485-8.26 2.4 3.4 7.273 3.4 7.273a5.441 5.441 0 006.634-4.362c1.349-5.626-1.779-5.313-1.779-5.313" fill="#3fa9f5"/><g data-name="Group 3479"><g data-name="Group 3478" opacity=".07"><g data-name="Group 3477" clip-path="url(#C)"><path data-name="Path 3617" d="M79.052 81.064s-6.484-1.485-8.26 2.4c-1.078 2.36.407 4.53 1.741 5.875a4.031 4.031 0 011.232-2.888 3.491 3.491 0 013.415-.915 3.3 3.3 0 012.22 3.507c-.01.084-.035.159-.048.24a6.256 6.256 0 001.475-2.906c1.349-5.626-1.779-5.313-1.779-5.313"/></g></g></g><path data-name="Path 3618" d="M80.913 74.453s-.053 3.662-5.541 3.682a7.672 7.672 0 01-7.212-4.794 29.708 29.708 0 00-5.641 3.133c-2.82 2.016-1.388 9.815 8.442 13.768 0 0 2.082-8.237 4.62-8.539S81 89.99 81 89.99s4.245-5.556 4.2-12.1c0 0-2.167-2.639-4.29-3.436" fill="#fff"/><path data-name="Path 3619" d="M158.112 167.3c1.247-1.6 2.348-3.318 3.5-4.995a2.954 2.954 0 011.941-2.02 3.788 3.788 0 00-1.115-.781c1.007-.427 1.665-1.124 1.661-1.936-.006-1.374-4.6-2.608-6.9-2.669l-2.1-.055c-.328-1.19-2.036-2.14-4.106-2.2-2.3-.061-6.788 4.516-7.253 7.109-.406 2.268.424 3.428.327 6.569.73 2.971 2.666 5.323 4.85 5.38l5.852.155c1-1.6 2.183-3.068 3.346-4.562" fill="#ea8e75"/><path data-name="Path 3620" d="M84.928 141.205c-.061.1-.122.209 0 0" fill="#564f4f"/><path data-name="Path 3621" d="M84.927 141.2v.008c.116-.2.059-.108 0-.008" fill="#564f4f"/><path data-name="Path 3622" d="M84.925 141.2" fill="#564f4f"/><path data-name="Path 3623" d="M37.169 164.964a154.2 154.2 0 00-4.369 21.412l-5.45-.425c.009-8.682.086-15.478.289-21.138a44.941 44.941 0 019.533.151" fill="#fda688"/><path data-name="Path 3624" d="M26.062 175c.125-3.756.31-7.071.543-10.063a71.2 71.2 0 0010.56 2.995 244.645 244.645 0 00-1.518 7.62 1.431 1.431 0 01-1.716 1.152 30.532 30.532 0 00-7.058-.877.8.8 0 01-.811-.827" fill="#fff"/><path data-name="Path 3625" d="M41.027 184.98c.032-2.2-3.826-6.782-5.14-6.76-.017 0-.027.01-.044.012a4.357 4.357 0 00-1.093-.194 62.365 62.365 0 01-8.6.505 5.6 5.6 0 00-3.386 4.669l-.114 8.016c-.031 2.2 1.134 6.58 2.448 6.558a2.4 2.4 0 001.919-1.634c.42.959 1.095 1.582 1.872 1.568a2.39 2.39 0 001.919-1.634c.42.96 1.095 1.582 1.873 1.57a2.4 2.4 0 001.918-1.634c.421.959 1.1 1.582 1.873 1.568 1.314-.022 2.442-4.438 2.474-6.641l.028-2.011c1.136-.327 2.025-1.975 2.053-3.958" fill="#fda688"/><path data-name="Path 3626" d="M36.938 173.5l-10.912-1a1.85 1.85 0 01-1.67-2c4.834-54.966 16.178-79.656 16.672-81.16l10.924-1.54c-.117.354-8.476 30.771-13.081 84.028a1.836 1.836 0 01-1.933 1.677" fill="#2b2727"/><g data-name="Group 3482"><g data-name="Group 3481" opacity=".1"><g data-name="Group 3480" clip-path="url(#D)"><path data-name="Path 3627" d="M200.6 134.29c-.021.1-.043.2-.062.3a.609.609 0 01.062-.3"/></g></g></g><g data-name="Group 3485"><g data-name="Group 3484" opacity=".1"><g data-name="Group 3483" clip-path="url(#D)"><path data-name="Path 3628" d="M200.6 134.29c-.021.1-.043.2-.062.3a.609.609 0 01.062-.3"/></g></g></g><path data-name="Path 3629" d="M179.716 155.444c-6.752 2.562-7.5 1.282-15.62 3.1l-5.908 8.831c10.636-1.057 20-1.046 25.5-1.786-.091-3.5-3.183-6.918-3.976-10.144" fill="#fda688"/><path data-name="Path 3630" d="M157.995 153.061c.022 0 .045.009.067.015 3.419.754 5.517 3.746 7.954 5.974a2.076 2.076 0 01.625.8 2.2 2.2 0 01.067.774 18.513 18.513 0 00.144 2.814 4.379 4.379 0 01.058 1.13c-.192 1.437-2.112 2.761-3.188 3.59-1.59 1.225-3.252 2.35-4.918 3.466-2.017 1.351-7.589 3.459-8.455 2.542-.678-.72-.67-.971-.353-1.554-.592.657-1.932 1.029-2.559.407a1.375 1.375 0 01-.194-1.747c.044-.083-1.553.511-2.153-.212-.666-.8.259-1.866.171-1.867a2.138 2.138 0 01-1.806-.763c-.392-.6.141-1.484.5-2.1.337-.568 3.6-1.839 5.684-4.575.9-1.186 3.1-5.412 3.542-5.8.32-.279.789-.222 1.1-.5.261-.231.652-.675.574-1.053a1.078 1.078 0 00-.537-.6q-.431-.282-.859-.566a9.243 9.243 0 014.533-.171" fill="#fda688"/><path data-name="Path 3631" d="M61.685 111.791l-11.667 2.833 1.417 4.334 11.583-3.584z" fill="#302c2c"/><path data-name="Path 3632" d="M153.462 153.232s5.219 3.368 7.071 3.9-.052 2.331-2.753 1.589-5.718-2.827-7.254-2.658 1.655-3.387 2.936-2.828" fill="#ea8e75"/><path data-name="Path 3633" d="M156.358 173.544s-2.448-1.617-1.954-3.1 4.785 1.28 4.912 2.03a1.661 1.661 0 01-2.958 1.074" fill="#ea8e75"/><path data-name="Path 3634" d="M159.774 172.927s-3.776-1.8-3.776-3.989 2.912-.637 4.377.387 1.871 2.048 1.128 2.79a2.175 2.175 0 01-1.729.812" fill="#ea8e75"/><path data-name="Path 3635" d="M161.469 170.773s-3.618-1.695-4.218-3.813 2.234-1.429 3.706-.3 2.837 2.119 2.807 2.647a1.717 1.717 0 01-2.3 1.466" fill="#ea8e75"/><path data-name="Rectangle 1214" fill="#2d2929" d="M89.851 109.905h11v3h-11z"/><path data-name="Path 3636" d="M164.4 168.937a4.909 4.909 0 01-2.684-1.548c-1.447-1.435-.44-3.235 1.1-2.406s2.612 1.394 2.947 2.153-.764 1.956-1.358 1.8" fill="#ea8e75"/><path data-name="Path 3637" d="M58.1 79.4l-6.143 1.332s1.469 17.31 6.143 28.56l8.548-2.5-7.345 4.75s12.686 17.519 21.3 24.134c0 0-3.435-11.918-11.33-31.571S58.1 79.4 58.1 79.4" fill="#302c2c"/><path data-name="Path 3638" d="M90.388 78.01l-11 54.8s9.437-15.026 12.812-25.272l-4.057-1.438 4.75.063s4.625-17.25 4.812-27.063a37.5 37.5 0 00-7.317-1.093" fill="#302c2c"/><path data-name="Path 3639" d="M80.1 142.5a2 2 0 11-2-1.875 1.941 1.941 0 012 1.875" fill="#302c2c"/><path data-name="Path 3640" d="M81.935 152.374a2.093 2.093 0 11-2.092-2.167 2.131 2.131 0 012.092 2.167" fill="#302c2c"/><path data-name="Path 3641" d="M84.6 162.584a2.241 2.241 0 11-2.238-2.353 2.3 2.3 0 012.238 2.353" fill="#302c2c"/><path data-name="Path 3642" d="M156.02 66.5s1.336-6.378.194-8.53.3-5.9-.969-5.918c-.692-.006-3.106 2.857-2.291 6.044 1.336 5.232-9.33 5.879-9.33 5.879z" fill="#fba386"/><path data-name="Path 3643" d="M96.374 41.277s7.254-3.5 5.19-14.1c-1.541-7.916-5.751-11.134-5.751-11.134s3.084-3.864-.271-7.567-7.233 1.409-7.233 1.409-4.943-7.713-21.995-2.1c-13.462 4.432-12.738 8.865-12.738 8.865s-5.509-4.769-8.6 1.39c-3.23 6.444 1.536 7.883 1.536 7.883a11.986 11.986 0 00-1.6 14.795c3.851 6.5 51.464.559 51.464.559" fill="#3d1208"/><path data-name="Path 3644" d="M96.978 39.176c-.106-.021-.212-.008-.319-.019l.162-4.379a19.769 19.769 0 00-18.969-20.427l-8.226-.3A19.769 19.769 0 0049.2 33.016l-.143 3.868a3.74 3.74 0 00-2.844-.5c-2.382.6-3.66 3.684-2.853 6.889.752 2.99 3.053 5 5.293 4.771A19.766 19.766 0 0067.619 68.3l8.226.3c10.407.384 24.065-6.078 20.316-17.707 1.865-.469 3.523-2.389 4.032-4.958.645-3.256-.795-6.285-3.215-6.764" fill="#ff9f85"/><path data-name="Path 3645" d="M52.188 12.442s0-.035-.009-.092c-.184.14-.2.183.009.092" fill="#784c4a"/><path data-name="Path 3646" d="M101.565 27.175c-1.541-7.916-5.751-11.134-5.751-11.134s3.084-3.864-.272-7.567-7.233 1.409-7.233 1.409-3.793-7.536-20.846-1.921C54 12.4 53.576 16.65 53.576 16.65s-5.509-4.768-8.6 1.39c-3.231 6.444 1.536 7.883 1.536 7.883a12.783 12.783 0 00-3.09 5.442c4.8 2.283 6.2 6.88 7.2 11.747 1.083.173 2.293.3 3.585.4.324-9.453 2.349-21.823 4.495-22.242 28.1-10.3 39.109-1 37.953 17.884 2.2-1.338 6.607-3.242 4.9-11.982" fill="#3d1208"/><path data-name="Path 3647" d="M57.808 14.16a4.668 4.668 0 01-9.124 1.777 4.668 4.668 0 019.124-1.777" fill="#3d1208"/><path data-name="Path 3648" d="M91.536 8.1a4.447 4.447 0 01-8.723 1.7 4.447 4.447 0 018.723-1.7" fill="#3d1208"/><path data-name="Path 3649" d="M101.8 16.221c.453 2.322-.772 4.514-2.736 4.9s-3.922-1.189-4.375-3.511.773-4.514 2.737-4.9 3.922 1.189 4.374 3.511" fill="#3d1208"/><path data-name="Path 3650" d="M70.915 8.527c.492 2.524-2.278 5.188-6.187 5.95s-7.476-.668-7.967-3.193 2.278-5.184 6.187-5.949 7.475.665 7.967 3.192" fill="#3d1208"/><path data-name="Path 3651" d="M69.242 9.519c-.477-2.445 2.363-5.056 6.343-5.832s7.591.579 8.067 3.024-2.363 5.057-6.343 5.832-7.591-.579-8.067-3.024" fill="#3d1208"/><path data-name="Path 3652" d="M103.311 23.987c.555 2.849-.278 5.409-1.861 5.717s-3.317-1.751-3.872-4.6.279-5.409 1.862-5.717 3.316 1.751 3.871 4.6" fill="#3d1208"/><path data-name="Path 3653" d="M103.059 34.217c-.591 1.958-2.146 3.22-3.473 2.82s-1.924-2.313-1.333-4.271 2.146-3.22 3.473-2.819 1.924 2.312 1.333 4.27" fill="#3d1208"/><path data-name="Path 3654" d="M49.564 26.882a3.094 3.094 0 01-6.038 1.176 3.094 3.094 0 016.038-1.176" fill="#3d1208"/><path data-name="Path 3655" d="M67.12 51.808l19.045.23a1.66 1.66 0 011.441 2.312 11.325 11.325 0 01-11.02 7.358 11.514 11.514 0 01-10.919-7.624 1.628 1.628 0 011.453-2.276" fill="#fff"/><path data-name="Path 3656" d="M87.984 39.429a2.108 2.108 0 01-.066 4.079 2.108 2.108 0 01.066-4.079" fill="#2d0d0d"/><g data-name="Group 3488"><g data-name="Group 3487" opacity=".05"><g data-name="Group 3486" clip-path="url(#E)"><path data-name="Path 3657" d="M87.984 39.429a1.853 1.853 0 011.544 2.065c0 .08-.014.155-.022.232a100.461 100.461 0 01-2.7-1.638 1.441 1.441 0 011.177-.659" fill="#fff"/></g></g></g><path data-name="Path 3658" d="M66.22 38.948a2.108 2.108 0 01-.066 4.079 1.854 1.854 0 01-1.544-2.065 1.853 1.853 0 011.61-2.014" fill="#2d0d0d"/><g data-name="Group 3491"><g data-name="Group 3490" opacity=".05"><g data-name="Group 3489" clip-path="url(#F)"><path data-name="Path 3659" d="M66.22 38.948a1.854 1.854 0 011.544 2.065c0 .08-.014.155-.022.233a103.16 103.16 0 01-2.7-1.639 1.444 1.444 0 011.177-.659" fill="#fff"/></g></g></g><path data-name="Path 3660" d="M96.651 37.976l.109-1.258 1.122-.063 1.8 1.117z" fill="#353131"/><g data-name="Group 3494"><g data-name="Group 3493" opacity=".08"><g data-name="Group 3492" clip-path="url(#G)"><path data-name="Path 3661" d="M49.242 36.421l-.589.249 5.547 5.951-.111-.045a.672.672 0 00.5.34l1.2.146a8.262 8.262 0 0011.235 7.315 8.284 8.284 0 006.125-7.346 8.372 8.372 0 000-1.142l.055.039c.061-.162.733-1.778 3.232-1.806 1.274-.012 2.653.2 3.206.822a10.5 10.5 0 00-.01 1.11c-.362 4.563 2.433 8.882 7 9.244a9.468 9.468 0 009.665-7.23l2.017-.213a.712.712 0 00.636-.758l-.263-3.84a1.928 1.928 0 00-.046-.352h.013l-.868-2.219-.832.028-.812 2.2-.642.074a9.044 9.044 0 00-15.243-.337 5.417 5.417 0 00-3.857-1.428 5.067 5.067 0 00-4.073 1.529 8.235 8.235 0 00-10.4-4.1 8.263 8.263 0 00-4.761 3.443l-.128-.014-7.4-3.039zM85.158 37.116q-.224.117-.436.251.213-.134.436-.251m4.89 11.725a6.375 6.375 0 01-5.97-11.014 6.427 6.427 0 00-.483.435 6.373 6.373 0 019 8.752 7.124 7.124 0 01-2.552 1.827M61.929 36.726q-.224.118-.436.252.213-.134.436-.252m4.89 11.726a6.375 6.375 0 01-5.969-11.015c-.168.138-.33.282-.484.436a6.373 6.373 0 019.005 8.752 7.124 7.124 0 01-2.552 1.827"/></g></g></g><path data-name="Path 3662" d="M80.354 41.24a8.288 8.288 0 108.918-7.607 8.29 8.29 0 00-8.918 7.607m1.9.151a6.615 6.615 0 0113.18 1.046c-.279 3.512-3.813 6.1-7.325 5.818a6.379 6.379 0 01-5.855-6.864" fill="#232020"/><path data-name="Path 3663" d="M81.185 40.97a8.288 8.288 0 108.915-7.608 8.288 8.288 0 00-8.918 7.608m1.9.15a6.379 6.379 0 115.855 6.864 6.379 6.379 0 01-5.855-6.864" fill="#2b2727"/><path data-name="Path 3664" d="M95.028 42.795a6.375 6.375 0 00-10.094-5.672 6.376 6.376 0 118.249 9.67 6.353 6.353 0 001.845-4" fill="#232020"/><path data-name="Path 3665" d="M96.493 37.9l2.8-.217a.672.672 0 01.723.623l.262 3.652a.712.712 0 01-.636.759L96.964 43z" fill="#2b2727"/><path data-name="Path 3666" d="M57.122 40.851a8.288 8.288 0 108.918-7.607 8.288 8.288 0 00-8.918 7.607m1.9.151a6.615 6.615 0 0113.18 1.046c-.278 3.512-3.812 6.1-7.325 5.818A6.379 6.379 0 0159.025 41" fill="#232020"/><path data-name="Path 3667" d="M57.953 40.58a8.289 8.289 0 108.918-7.607 8.288 8.288 0 00-8.918 7.607m1.9.151a6.379 6.379 0 115.858 6.869 6.38 6.38 0 01-5.855-6.864" fill="#2b2727"/><path data-name="Path 3668" d="M71.8 42.406a6.375 6.375 0 00-10.1-5.672 6.376 6.376 0 118.249 9.67 6.353 6.353 0 001.845-4" fill="#232020"/><path data-name="Path 3669" d="M74.219 40.988a3.932 3.932 0 013.551-2 3.805 3.805 0 013.4 2.332l1.914-1.388a5.371 5.371 0 00-5.344-3.842c-4.661-.015-4.988 3.452-4.988 3.452z" fill="#2b2727"/><path data-name="Path 3670" d="M59.137 37.01l-2.8-.263a.673.673 0 00-.733.611l-.321 3.648a.712.712 0 00.622.769l2.674.327z" fill="#2b2727"/><g data-name="Group 3497"><g data-name="Group 3496" opacity=".1"><g data-name="Group 3495" clip-path="url(#H)"><path data-name="Path 3671" d="M85.895 36.227a6.589 6.589 0 00-3.054 3.042q-1.257 1.293-2.5 2.6c0-.207 0-.414.013-.624a8.286 8.286 0 018.223-7.627c-.88.883-1.783 1.749-2.681 2.613" fill="#fff"/><path data-name="Path 3672" d="M86.855 48.024a6.315 6.315 0 001.257.231c3.512.279 7.046-2.306 7.325-5.818.01-.121 0-.238 0-.356.473-.326.949-.648 1.423-.972a8.1 8.1 0 01-.321 3.2q-3.729 2.961-7.508 5.86a8.011 8.011 0 01-4.079-.841l1.9-1.3" fill="#fff"/><path data-name="Path 3673" d="M87.388 47.655a6.262 6.262 0 001.555.33 6.38 6.38 0 006.864-5.855c.008-.1 0-.2 0-.306q.921-.63 1.845-1.255a8.113 8.113 0 01.053 1.711 8.24 8.24 0 01-.208 1.26q-4.033 3.222-8.129 6.365c-.193 0-.386 0-.581-.017a8.214 8.214 0 01-3.254-.962l1.85-1.271" fill="#fff"/><path data-name="Path 3674" d="M85.386 36.719a6.316 6.316 0 00-.75.731c-.39.383-.777.768-1.155 1.155-.771.79-1.531 1.589-2.3 2.383v-.018a8.284 8.284 0 017.632-7.6c-1.122 1.137-2.286 2.241-3.432 3.349" fill="#fff"/><path data-name="Path 3675" d="M95.033 42.362l.78-.538c0 .1 0 .2-.006.306a6.36 6.36 0 01-2.625 4.663 6.349 6.349 0 001.846-4c.011-.146 0-.289 0-.433" fill="#fff"/><path data-name="Path 3676" d="M100.063 38.953l.172 2.405c-.618.5-1.246.993-1.868 1.492l-1.4.148-.171-1.841q1.629-1.112 3.269-2.2" fill="#fff"/><path data-name="Path 3677" d="M65.559 35.149a6.643 6.643 0 00-6.32 4.692q-1.071.837-2.131 1.685c0-.224 0-.447.014-.675a7.926 7.926 0 01.119-.88c2.647-2.187 5.266-4.407 7.79-6.739a7.632 7.632 0 012.8.371q-1.146.76-2.271 1.546" fill="#fff"/><path data-name="Path 3678" d="M72.125 40.514a6.179 6.179 0 00-.476-1.5c.415-.331.836-.654 1.26-.975a8.383 8.383 0 01.542 1.579c-.442.3-.886.6-1.326.9" fill="#fff"/><path data-name="Path 3679" d="M65.151 47.875a6.876 6.876 0 006.939-5.084q.788-.54 1.578-1.075c0 .148-.009.3-.021.446a8.255 8.255 0 01-.468 2.141c-2.383 1.933-4.942 3.692-7.449 5.48a8.383 8.383 0 01-1-.014 8.2 8.2 0 01-1.761-.338c.749-.49 1.484-1 2.183-1.556" fill="#fff"/><path data-name="Path 3680" d="M65.959 34.866a6.379 6.379 0 00-5.743 4.219q-1.14.879-2.27 1.774c0-.094 0-.185.008-.278a8.333 8.333 0 01.24-1.4c2.41-2 4.79-4.044 7.087-6.18a8.345 8.345 0 011.591-.029 8.1 8.1 0 011.5.267q-1.217.8-2.412 1.625" fill="#fff"/><path data-name="Path 3681" d="M65.511 47.567c.067.009.132.023.2.028a6.376 6.376 0 006.744-5.054c.68-.466 1.364-.926 2.045-1.39 0 .245 0 .492-.021.74a8.38 8.38 0 01-.28 1.567c-2.545 2.176-5.345 4.1-8.094 6.056-.181 0-.362 0-.545-.016a8.048 8.048 0 01-2.038-.438 25.097 25.097 0 001.989-1.493" fill="#fff"/><path data-name="Path 3682" d="M65 35.542a6.365 6.365 0 00-3.3 1.191 6.37 6.37 0 014.26-1.87c-.322.223-.639.452-.958.679" fill="#fff"/><path data-name="Path 3683" d="M71.719 40.79a6.346 6.346 0 00-.448-1.471c.263-.212.529-.42.794-.628a6.336 6.336 0 01.449 1.559c-.264.181-.53.359-.795.54" fill="#fff"/><path data-name="Path 3684" d="M72.457 42.54a6.37 6.37 0 01-2.506 3.86 6.358 6.358 0 001.758-3.352l.748-.512" fill="#fff"/><path data-name="Path 3685" d="M73.153 39.818l-.4-.282s.327-3.467 4.987-3.452a6.579 6.579 0 01.9.067q-2.76 1.811-5.488 3.667" fill="#2b2727"/><path data-name="Path 3686" d="M80.841 36.933a5.447 5.447 0 012 2.338c-.588.606-1.172 1.216-1.758 1.825a3.81 3.81 0 00-3.31-2.114h-.071c1.04-.695 2.092-1.371 3.142-2.053" fill="#fff"/><path data-name="Path 3687" d="M56.679 41.869l-.77-.094a.7.7 0 01-.49-.3q1.784-1.462 3.552-2.94l-.18 1.655q-1.061.834-2.112 1.682" fill="#fff"/><path data-name="Path 3688" d="M72.515 40.25a6.382 6.382 0 00-.45-1.559c.511-.4 1.026-.79 1.551-1.172a8.24 8.24 0 01.6 1.577c-.568.385-1.138.767-1.7 1.154" fill="#fff"/></g></g></g><g data-name="Group 3500"><g data-name="Group 3499" opacity=".4"><g data-name="Group 3498" clip-path="url(#I)"><path data-name="Path 3689" d="M87.559 40.4a2.65 2.65 0 102.821-2.192 2.531 2.531 0 00-2.821 2.192" fill="#fff"/></g></g></g><g data-name="Group 3503"><g data-name="Group 3502" opacity=".4"><g data-name="Group 3501" clip-path="url(#J)"><path data-name="Path 3690" d="M65.176 39.871A2.65 2.65 0 1068 37.68a2.532 2.532 0 00-2.821 2.191" fill="#fff"/></g></g></g><path data-name="Path 3691" d="M144.226 81.745l-1.83-6.307a.716.716 0 01.578-.909l11.809-1.752a.578.578 0 01.66.6l-.321 6.655z" fill="#fff"/><path data-name="Path 3692" d="M56.167 36.842l-7.441-1.593-.073 1.421 6.939 4.918z" fill="#232020"/><path data-name="Path 3693" d="M58.243 36.929l-8.777-1.892-.74.212 7.388 1.589z" fill="#353131"/><path data-name="Path 3694" d="M178.934 154.753l-7.332 1.115a1.058 1.058 0 00-.881 1.242l1.81 9.6a1.36 1.36 0 001.506 1.1l7.771-.975z" fill="#fff"/><g data-name="Group 3506"><g data-name="Group 3505" opacity=".16"><g data-name="Group 3504" clip-path="url(#K)"><path data-name="Path 3695" d="M247.492 134.68s3.833-20.887 5.32-29l-7.542-4.048s-6.49 32.592-19.865 42.608c-9.4 7.042-29.249 12.3-40.2 14.8-1.208 5.993-2.34 12.193-2.943 16.982 7.35-1.39 33.7-7.114 50.352-20.349 6.893-5.479 11.628-13.223 14.881-20.946v-.042"/></g></g></g><path data-name="Path 3696" d="M194.536 89.643s-11.425 15.012-23.435 15.012c-7.2 0-11.434-19.755-12.64-26.3a1.952 1.952 0 00-2.416-1.536L142.82 80.3a2.023 2.023 0 00-1.467 2.379c1.72 8.067 9.521 39.027 27.5 36.225 20.653-3.219 29.678-17.625 29.678-17.625z" fill="#232121"/><path data-name="Path 3697" d="M176.644 155.244a1.725 1.725 0 011.355-2c7.021-1.415 34.6-7.39 46.219-16.094 13.375-10.015 19.865-42.607 19.865-42.607l9.139 4.9s-2.3 33.632-21.8 49.132c-16.987 13.5-44.086 19.191-50.788 20.432a1.545 1.545 0 01-1.805-1.255z" fill="#2b2727"/><path data-name="Path 3698" d="M135.88 43a4.113 4.113 0 11-4.112-4.112A4.112 4.112 0 01135.88 43" fill="#fe3d2c"/><path data-name="Path 3699" d="M128.935 44.308l-5.75 4.836 4.471 1.719 4.321-4.917z" fill="#fe3d2c"/><path data-name="Path 3700" d="M133.185 46.072l.625 7.083-4.474-1.831.557-6.086z" fill="#fe3d2c"/><path data-name="Path 3701" d="M135.469 43a3.7 3.7 0 11-3.7-3.7 3.7 3.7 0 013.7 3.7" fill="#fec20f"/><path data-name="Path 3702" d="M135.1 43a3.331 3.331 0 11-3.331-3.331A3.33 3.33 0 01135.1 43" fill="#fe3d2c"/><path data-name="Rectangle 1222" fill="#4d4d4d" d="M140.002 13.841l.949-2.448 25.874 10.03-.949 2.447z"/><path data-name="Path 3703" d="M164.384 26.821l-25.474-9.874.3-.747 25.466 9.871z" fill="#4d4d4d"/><path data-name="Path 3704" d="M163.727 28.446l-25.474-9.874.3-.747 25.465 9.875z" fill="#4d4d4d"/><path data-name="Path 3705" d="M163.071 30.071L137.6 20.2l.3-.747 25.466 9.871z" fill="#4d4d4d"/><path data-name="Path 3706" d="M162.415 31.7l-25.474-9.874.3-.747 25.466 9.871z" fill="#4d4d4d"/><path data-name="Path 3707" d="M161.759 33.321l-25.474-9.874.3-.747 25.466 9.871z" fill="#4d4d4d"/><path data-name="Path 3708" d="M161.1 34.946l-25.474-9.874.3-.747 25.467 9.875z" fill="#4d4d4d"/><path data-name="Path 3709" d="M160.446 36.571L134.972 26.7l.3-.747 25.466 9.871z" fill="#4d4d4d"/><path data-name="Path 3710" d="M159.79 38.2l-25.474-9.874.3-.747 25.466 9.871z" fill="#4d4d4d"/><path data-name="Path 3711" d="M159.134 39.821l-25.474-9.874.3-.747 25.466 9.871z" fill="#4d4d4d"/><path data-name="Path 3712" d="M158.477 41.446L133 31.572l.3-.747 25.468 9.875z" fill="#4d4d4d"/><path data-name="Path 3713" d="M157.821 43.071L132.347 33.2l.3-.747 25.466 9.871z" fill="#4d4d4d"/><path data-name="Path 3714" d="M156.386 50.547l-11.474-4.517.318-.793 11.447 4.56z" fill="#4d4d4d"/><path data-name="Path 3715" d="M153.758 51.779l-9.458-3.737.316-.794 9.436 3.781z" fill="#4d4d4d"/><g data-name="Group 3509"><g data-name="Group 3508" opacity=".34"><g data-name="Group 3507" clip-path="url(#L)"><path data-name="Path 3716" d="M90.378 25.46c-.491 2.436-4.248 3.733-8.393 2.9s-7.106-3.486-6.616-5.921 4.248-3.733 8.393-2.9 7.106 3.486 6.616 5.921" fill="#fff"/></g></g></g></g></g></g></g></g></g></g></svg>