<svg xmlns="http://www.w3.org/2000/svg" xmlns:xlink="http://www.w3.org/1999/xlink" width="305" height="227"><defs><clipPath id="d"><path transform="translate(925 125)" fill="#fff" d="M0 0h305v227H0z"/></clipPath><clipPath id="e"><path d="M11.625 138.617c0 2.458 23.906 4.449 53.4 4.449s53.4-1.992 53.4-4.449-23.905-4.451-53.4-4.451-53.4 1.993-53.4 4.451" transform="translate(-11.625 -134.166)" fill="none"/></clipPath><clipPath id="g"><path d="M123.7 87.359L8.049 118.347h-.1a783.888 783.888 0 00-.414 6.287l-3.129 10.881a4.667 4.667 0 005.617 5.819l10.81-2.7 31.92 3.19a148.154 148.154 0 0029.5 0l31.92-3.19 10.811 2.7a4.666 4.666 0 005.615-5.819l-3.13-10.881c-.677-10.9-1.658-23.995-3.751-37.275z" transform="translate(-4.218 -87.359)" fill="none"/></clipPath><clipPath id="h"><path d="M125.116 87.359L9.462 118.347H0v35.945h135.714V87.359z" transform="translate(0 -87.359)" fill="none"/></clipPath><clipPath id="i"><path d="M70.308 37.217h-28a4.667 4.667 0 110-9.334h28a4.667 4.667 0 110 9.334" transform="translate(-37.641 -27.883)" fill="none"/></clipPath><clipPath id="j"><path d="M77.028 14.01a82.622 82.622 0 00-16.045 2.562L44.633 32.53h23.334l11.08-14.773a2.347 2.347 0 00-2.018-3.747" transform="translate(-44.633 -14.006)" fill="none"/></clipPath><clipPath id="k"><path d="M77 11.966a2.326 2.326 0 00-2.2-3.253 85.2 85.2 0 00-18.02 2.716l-5.709 1.5a82.618 82.618 0 01-16.569 2.59 2.32 2.32 0 00-1.718 3.715L44.091 34.3h23.333l8-18.668z" transform="translate(-32.318 -8.71)" fill="none"/></clipPath><clipPath id="m"><path d="M62.482 94.348C30.544 102.906 5.75 113.931 7.1 118.973s28.337 2.195 60.273-6.363 56.731-19.583 55.382-24.625c-.454-1.69-3.786-2.494-9.212-2.494-10.777 0-29.823 3.166-51.062 8.857" transform="translate(-7.049 -85.491)" fill="none"/></clipPath><clipPath id="o"><path d="M55.186 94.331c-9.663 2.588-18.523 5.4-26.353 8.21a39.912 39.912 0 0010.642 14.912 353.742 353.742 0 0020.6-4.86c18.7-5.01 34.764-10.843 44.753-15.848a39.882 39.882 0 001.147-9.145c0-.7-.172-1.362-.208-2.058-10.826.057-29.542 3.152-50.584 8.79" transform="translate(-28.833 -85.541)" fill="none"/></clipPath><clipPath id="q"><path d="M61.672 54.583A40.05 40.05 0 0039.9 128.245c7.007-1.383 14.641-3.154 22.594-5.285a305.42 305.42 0 0035.628-11.719 40.065 40.065 0 00-36.45-56.658z" transform="translate(-21.625 -54.583)" fill="none"/></clipPath><clipPath id="s"><path d="M29.125 92.118A30.041 30.041 0 0054.7 121.823q2.615-.661 5.285-1.375a356.424 356.424 0 0018.785-5.576 30.035 30.035 0 10-49.64-22.754" transform="translate(-29.125 -62.083)" fill="none"/></clipPath><clipPath id="u"><path d="M49.684 80.838L37.2 83.434l8.575 9.438-1.39 12.675 11.627-5.238 11.626 5.238-1.39-12.675 8.574-9.438-12.484-2.6-6.326-11.069z" transform="translate(-37.199 -69.765)" fill="none"/></clipPath><clipPath id="w"><path d="M117.717 92.668a66.151 66.151 0 01-6.876 3.416c-4.617 2.232-9.4 4.151-14.213 5.954-9.635 3.61-19.505 6.6-29.44 9.3-9.954 2.626-20 4.974-30.147 6.665-5.071.846-10.168 1.574-15.283 1.949a69.815 69.815 0 01-7.664.475c-2.409-.139-5.492.135-7.007-2.081 1.348 2.395 4.557 2.407 6.969 2.758a64.437 64.437 0 007.8.182c5.179-.382 10.307-1.115 15.409-1.966 10.205-1.7 20.281-4.057 30.271-6.692 9.97-2.714 19.872-5.711 29.562-9.342 4.843-1.811 9.65-3.742 14.326-6a67.741 67.741 0 006.66-4.061c1.914-1.507 4.685-3.12 4.66-5.867-.2 2.675-3.01 3.981-5.026 5.309" transform="translate(-7.088 -87.359)" fill="none"/></clipPath><clipPath id="y"><path d="M26.091 73.855c8.236-.222 21.82-2.55 36.914-6.6a252.907 252.907 0 0019.286-5.986 39.819 39.819 0 00-56.2 12.581" transform="translate(-26.091 -54.583)" fill="none"/></clipPath><clipPath id="A"><path d="M36.751 69.739c6.724-1.125 14.446-2.783 22.684-4.991 1.765-.471 3.431-.972 5.131-1.463a28.844 28.844 0 00-27.815 6.454" transform="translate(-36.751 -62.083)" fill="none"/></clipPath><clipPath id="C"><path d="M14.77 75.926l.258-.051c1.011 3.772 21.2 1.641 45.092-4.762s42.44-14.65 41.431-18.423l.049-.007c-8.609-11.814-20.655-19.56-37.633-19.56-26.568 0-41.06 18.967-49.2 42.8" transform="translate(-14.77 -33.124)" fill="none"/></clipPath><clipPath id="E"><path d="M0 0v90.87l19.974-3.9c1.011 3.772 21.2 1.641 45.092-4.762s42.44-14.65 41.431-18.423l29.217-3.9V0z" fill="none"/></clipPath><clipPath id="F"><path d="M42.306 27.883a4.666 4.666 0 000 9.332h28a4.666 4.666 0 100-9.332z" transform="translate(-37.641 -27.883)" fill="none"/></clipPath><clipPath id="H"><path d="M77.028 14.01a82.722 82.722 0 00-16.045 2.56L44.634 32.531h23.332l11.08-14.773A2.349 2.349 0 0077.177 14c-.049 0-.1 0-.15.005" transform="translate(-44.634 -14.005)" fill="none"/></clipPath><clipPath id="J"><path d="M74.8 8.712a85.349 85.349 0 00-18.018 2.716l-5.711 1.5a82.525 82.525 0 01-16.569 2.591 2.319 2.319 0 00-1.718 3.714L44.089 34.3h23.335l8-18.667L77 11.965a2.327 2.327 0 00-2.1-3.254h-.1" transform="translate(-32.318 -8.711)" fill="none"/></clipPath><linearGradient id="f" x1="-.342" y1=".554" x2="-.326" y2=".554" gradientUnits="objectBoundingBox"><stop offset="0" stop-color="#e5e8ea"/><stop offset=".35" stop-color="#e1e5e7"/><stop offset=".631" stop-color="#d7dcdf"/><stop offset=".888" stop-color="#c6cdd1"/><stop offset="1" stop-color="#bdc5c9"/></linearGradient><linearGradient id="c" x1="-.031" y1=".835" x2="-.02" y2=".835" gradientUnits="objectBoundingBox"><stop offset="0" stop-color="#c1d5f4"/><stop offset="1" stop-color="#3f81d9"/></linearGradient><linearGradient id="b" x1="-1.346" y1="16.154" x2="-1.31" y2="16.154" gradientUnits="objectBoundingBox"><stop offset="0" stop-color="#fadbac"/><stop offset=".226" stop-color="#f9d9a8"/><stop offset=".407" stop-color="#f9d59e"/><stop offset=".573" stop-color="#f8cf8d"/><stop offset=".73" stop-color="#f7c576"/><stop offset=".879" stop-color="#f5ba57"/><stop offset="1" stop-color="#f4ae39"/></linearGradient><linearGradient id="a" x1="-1.517" y1="4.675" x2="-1.483" y2="4.675" gradientUnits="objectBoundingBox"><stop offset="0" stop-color="#c1d5f4"/><stop offset=".214" stop-color="#bdd2f3"/><stop offset=".387" stop-color="#b3ccf1"/><stop offset=".545" stop-color="#a2c1ed"/><stop offset=".694" stop-color="#8ab2e8"/><stop offset=".837" stop-color="#6c9ee2"/><stop offset=".974" stop-color="#4686da"/><stop offset="1" stop-color="#3f81d9"/></linearGradient><linearGradient id="l" x1="-.793" y1="3.726" x2="-.766" y2="3.726" xlink:href="#a"/><linearGradient id="n" x1="-.069" y1="1.917" x2="-.057" y2="1.917" gradientUnits="objectBoundingBox"><stop offset="0" stop-color="#3f81d9"/><stop offset="1" stop-color="#c1d5f4"/></linearGradient><linearGradient id="p" x1="-1.017" y1="1.199" x2="-.991" y2="1.199" gradientUnits="objectBoundingBox"><stop offset="0" stop-color="#3f81d9"/><stop offset="1" stop-color="#a2c0ef"/></linearGradient><linearGradient id="r" x1="-.134" y1="1.221" x2="-.122" y2="1.221" xlink:href="#b"/><linearGradient id="t" x1="-.313" y1="1.388" x2="-.298" y2="1.388" gradientUnits="objectBoundingBox"><stop offset="0" stop-color="#f4ae39"/><stop offset=".121" stop-color="#f5ba57"/><stop offset=".27" stop-color="#f7c576"/><stop offset=".427" stop-color="#f8cf8d"/><stop offset=".593" stop-color="#f9d59e"/><stop offset=".774" stop-color="#f9d9a8"/><stop offset="1" stop-color="#fadbac"/></linearGradient><linearGradient id="v" x1="-.819" y1="1.985" x2="-.793" y2="1.985" gradientUnits="objectBoundingBox"><stop offset="0" stop-color="#f9d69c"/><stop offset=".08" stop-color="#f9dba8"/><stop offset=".352" stop-color="#fceacd"/><stop offset=".605" stop-color="#fdf5e8"/><stop offset=".829" stop-color="#fefcf9"/><stop offset="1" stop-color="#fff"/></linearGradient><linearGradient id="x" x1="-.082" y1="2.099" x2="-.07" y2="2.099" gradientUnits="objectBoundingBox"><stop offset="0" stop-color="#81ace7"/><stop offset=".316" stop-color="#d5e3f7"/><stop offset=".442" stop-color="#d0e0f6"/><stop offset=".573" stop-color="#c4d7f3"/><stop offset=".707" stop-color="#afc9f0"/><stop offset=".841" stop-color="#92b5eb"/><stop offset=".976" stop-color="#6d9ce4"/><stop offset="1" stop-color="#6697e3"/></linearGradient><linearGradient id="z" x1="-.679" y1="2.479" x2="-.654" y2="2.479" gradientUnits="objectBoundingBox"><stop offset="0" stop-color="#f8ca85"/><stop offset=".314" stop-color="#f7c881"/><stop offset=".566" stop-color="#f7c577"/><stop offset=".796" stop-color="#f6bf66"/><stop offset="1" stop-color="#f5b751"/></linearGradient><linearGradient id="B" x1="-1.764" y1="13.731" x2="-1.716" y2="13.731" gradientUnits="objectBoundingBox"><stop offset="0" stop-color="#f2a21c"/><stop offset=".105" stop-color="#f2a72c"/><stop offset=".296" stop-color="#f3b043"/><stop offset=".499" stop-color="#f4b654"/><stop offset=".722" stop-color="#f4b95e"/><stop offset="1" stop-color="#f5bb62"/></linearGradient><linearGradient id="D" x1="-.17" y1="1.773" x2="-.156" y2="1.773" xlink:href="#c"/><linearGradient id="G" x1="-1.346" y1="16.156" x2="-1.31" y2="16.156" xlink:href="#b"/><linearGradient id="I" x1="-1.522" y1="4.685" x2="-1.488" y2="4.685" xlink:href="#a"/><linearGradient id="K" x1="-.794" y1="3.729" x2="-.768" y2="3.729" xlink:href="#a"/></defs><g transform="translate(-925 -125)" clip-path="url(#d)"><g clip-path="url(#e)" transform="translate(1025.518 327.096)"><path transform="rotate(-45 3.147 7.597)" fill="url(#f)" d="M0 0h81.806v81.806H0z"/></g><g clip-path="url(#g)" transform="translate(1015.631 264.614)"><path transform="rotate(-45 19.198 48.3)" fill="url(#c)" d="M0 0h129.841v129.841H0z"/></g><g clip-path="url(#h)" fill="none" stroke="#fff" stroke-width="1.699" stroke-dasharray="5.149 5.149" transform="translate(1010 264.614)"><path d="M113.169 51.513a6.331 6.331 0 00.228-3.357l-.021-.1M111.97 41.122l-.781-3.847C109.556-.04 105.417-63.002 75.855-71.45"/></g><g clip-path="url(#h)" transform="translate(1010 264.614)"><g clip-path="url(#i)" transform="translate(50.246 -79.394)"><path fill="url(#b)" d="M0 0h37.334v9.334H0z"/></g></g><g clip-path="url(#h)" transform="translate(1010 264.614)"><g transform="translate(59.58 -97.918)" clip-path="url(#j)"><path transform="rotate(-45 6.451 15.853)" fill="url(#a)" d="M0 0h38.359v38.359H0z"/></g></g><g clip-path="url(#h)" transform="translate(1010 264.614)"><g transform="translate(43.14 -104.987)" clip-path="url(#k)"><path transform="rotate(-45 8.668 22.646)" fill="url(#l)" d="M0 0h50.667v50.667H0z"/></g></g><g clip-path="url(#m)" transform="translate(1019.409 262.121)"><path transform="translate(-1.298)" fill="url(#n)" d="M0 0h118.355v38.525H0z"/></g><g clip-path="url(#o)" transform="translate(1048.489 262.188)"><path transform="rotate(-75 15.412 20.086)" fill="url(#p)" d="M0 0h50.791v82.776H0z"/></g><g clip-path="url(#q)" transform="translate(1038.867 220.862)"><path transform="rotate(-45 26.043 62.874)" fill="url(#r)" d="M0 0h108.721v108.721H0z"/></g><g clip-path="url(#s)" transform="translate(1048.879 230.874)"><path transform="rotate(-45 21.121 50.991)" fill="url(#t)" d="M0 0h84.719v84.719H0z"/></g><g clip-path="url(#u)" transform="translate(1059.656 241.128)"><path transform="rotate(-45 12.65 30.542)" fill="url(#v)" d="M0 0h51.905v51.905H0z"/></g><g clip-path="url(#w)" transform="translate(1019.462 264.614)"><path fill="url(#x)" d="M0 0h115.68v34.004H0z"/></g><g clip-path="url(#y)" transform="translate(1044.829 220.862)"><path transform="rotate(-45 6.814 16.45)" fill="url(#z)" d="M0 0h53.367v53.367H0z"/></g><g clip-path="url(#A)" transform="translate(1059.058 230.874)"><path fill="url(#B)" d="M0 0h27.815v7.656H0z"/></g><g clip-path="url(#C)" transform="translate(1029.716 192.217)"><path transform="rotate(-45 16.449 39.71)" fill="url(#D)" d="M0 0h94.974v94.974H0z"/></g><g clip-path="url(#E)" fill="none" stroke="#fff" stroke-width="1.699" stroke-dasharray="5.149 5.149" transform="translate(1010 148)"><path d="M113.169 168.128a6.331 6.331 0 00.228-3.357l-.021-.1M111.97 157.737l-.781-3.847c-1.633-37.315-5.772-100.277-35.334-108.725"/></g><g clip-path="url(#F)" transform="translate(1060.246 185.221)"><path fill="url(#G)" d="M0 0h37.334v9.332H0z"/></g><g clip-path="url(#H)" transform="translate(1069.581 166.695)"><path transform="rotate(-45 6.55 15.813)" fill="url(#I)" d="M0 0h38.257v38.257H0z"/></g><g clip-path="url(#J)" transform="translate(1053.14 159.628)"><path transform="rotate(-45 8.727 22.62)" fill="url(#K)" d="M0 0h50.609v50.609H0z"/></g></g></svg>