<svg xmlns="http://www.w3.org/2000/svg" width="37.377" height="41.566"><g fill="#f15a24"><path d="M8.856 18.638a15.293 15.293 0 00-2.056 7.64v1.7l.009 10.191H3.398a3.4 3.4 0 00-3.4 3.4H8.53a8.481 8.481 0 004.21-1.141 8.534 8.534 0 003.1-3.1 8.481 8.481 0 001.143-4.246v-8.493a3.4 3.4 0 00-3.4 3.4v5.1a5.117 5.117 0 01-.686 2.544 5.144 5.144 0 01-1.867 1.866 5.138 5.138 0 01-.836.377l-.009-11.581a11.878 11.878 0 011.6-5.938 11.955 11.955 0 014.35-4.35h.01a1.632 1.632 0 00.833-1.406v-2.7a15.3 15.3 0 00-2.543 1.171 15.354 15.354 0 00-5.579 5.566zM28.522 18.638a15.27 15.27 0 012.058 7.64v1.7l-.007 10.191h3.411a3.4 3.4 0 013.4 3.4H28.853a8.483 8.483 0 01-4.21-1.141 8.519 8.519 0 01-3.1-3.1 8.481 8.481 0 01-1.144-4.246v-8.493a3.4 3.4 0 013.4 3.4v5.1a5.074 5.074 0 00.688 2.544 5.105 5.105 0 001.865 1.866 5.091 5.091 0 00.835.377l.009-11.581a11.882 11.882 0 00-1.6-5.938 11.956 11.956 0 00-4.35-4.35h-.008a1.632 1.632 0 01-.835-1.406v-2.7a15.34 15.34 0 012.545 1.171 15.335 15.335 0 015.574 5.566z"/></g><path d="M14.448 1.291a29.006 29.006 0 00-10.56 10.56A28.856 28.856 0 000 26.28v8.49a3.4 3.4 0 003.4-3.4v-5.1a25.445 25.445 0 013.431-12.727 25.585 25.585 0 019.32-9.32h.009a1.632 1.632 0 00.833-1.407v-2.82c-.866.396-1.719.817-2.545 1.295zM22.929 1.291a29.021 29.021 0 0110.562 10.56 28.874 28.874 0 013.886 14.429v8.49a3.4 3.4 0 01-3.4-3.4v-5.1a25.446 25.446 0 00-3.432-12.727 25.6 25.6 0 00-9.319-9.32h-.009a1.632 1.632 0 01-.833-1.407v-2.82c.868.396 1.724.817 2.545 1.295z" fill="#ed1c24"/></svg>