<svg width="512" height="512" viewBox="0 0 512 512" fill="none" xmlns="http://www.w3.org/2000/svg">
<g clip-path="url(#clip0)">
<path d="M234.471 259.437C241.346 263.12 250.166 264.962 258.989 264.962C267.809 264.962 276.633 263.12 283.507 259.437C287.158 257.481 288.532 252.936 286.576 249.285C284.62 245.634 280.075 244.26 276.424 246.216C266.972 251.279 251.004 251.278 241.555 246.216C237.905 244.261 233.359 245.634 231.403 249.285C229.446 252.935 230.819 257.481 234.471 259.437V259.437Z" fill="#F5CD71"/>
<path d="M432.318 341.015C414.454 324.938 391.052 312.76 367.498 307.178C364.18 304.77 347.07 292.337 332.741 281.634C350.989 264.238 365.125 242.314 371.465 220.012C378.644 218.613 385.938 214.684 391.83 208.875C399.012 201.794 403.131 192.905 403.131 184.485V173.317C403.131 162.961 394.696 154.536 384.328 154.536H375V137.63V100.866C375 54.356 337.338 23.228 302.092 9.605C258.739 -7.15 214.352 -1.619 191.657 23.352C191.206 23.845 190.832 24.268 190.514 24.634C190.028 24.703 189.463 24.787 188.803 24.898C166.289 28.614 150.26 44.022 142.448 69.458C136.524 88.745 136.835 108.517 136.951 115.96C136.962 116.676 136.972 117.262 136.972 117.703V135.986V154.536H127.645C117.292 154.536 108.87 162.961 108.87 173.317V184.485C108.87 192.912 112.99 201.808 120.174 208.891C126.055 214.69 133.336 218.613 140.505 220.011C146.852 242.331 161.014 264.274 179.29 281.677C176.082 284.159 172.108 287.242 168.017 290.417C159.783 296.806 150.59 303.939 147.065 306.609C122.654 311.891 98.194 324.35 79.679 341.015C57.318 361.141 45.5 385.193 45.5 410.569V434.946C45.5 439.088 48.858 442.446 53 442.446C57.142 442.446 60.5 439.088 60.5 434.946V410.569C60.5 367.001 104.802 331.65 148.72 321.59L195.857 356.664C196.023 356.787 196.192 356.903 196.367 357.012C198.148 358.122 199.312 359.03 200.247 359.761C203.017 361.924 205.369 362.784 207.453 362.784C210.885 362.784 213.586 360.451 216.22 357.764C217.69 356.265 219.816 354.096 223.16 351.125L227.879 369.646L200.573 460.656C200.557 460.71 200.526 460.804 200.511 460.859C200.208 461.752 199.285 464.47 201.067 467.899L216.396 496.952H131.207V444.558C131.207 440.416 127.849 437.058 123.707 437.058C119.565 437.058 116.207 440.416 116.207 444.558V496.952H65.748C64.869 496.952 64.026 496.967 63.222 496.981C62.391 496.995 61.379 497.016 60.566 496.994C60.528 496.573 60.5 496.025 60.5 495.324V469.076C60.5 464.934 57.142 461.576 53 461.576C48.858 461.576 45.5 464.934 45.5 469.076V495.324C45.5 499.067 45.941 504.476 49.753 508.221C53.175 511.582 57.451 512.002 61.472 512.002C62.153 512.002 62.828 511.99 63.489 511.978C64.208 511.965 64.961 511.951 65.747 511.951H228.817C228.824 511.951 228.832 511.952 228.839 511.952C228.847 511.952 228.855 511.951 228.864 511.951H256H283.108C283.116 511.951 283.124 511.952 283.133 511.952C283.14 511.952 283.147 511.951 283.155 511.951H446.253C447.039 511.951 447.792 511.965 448.511 511.978C449.172 511.99 449.846 512.002 450.528 512.002C454.549 512.002 458.826 511.582 462.247 508.221C466.06 504.477 466.5 499.067 466.5 495.324V410.57C466.5 385.191 454.68 361.14 432.318 341.015V341.015ZM375 196.333V169.535H384.327C386.389 169.535 388.13 171.267 388.13 173.317V184.485C388.13 188.851 385.576 193.976 381.298 198.194C379.277 200.186 377.014 201.845 374.695 203.084C374.898 200.801 375 198.548 375 196.333ZM130.706 198.21C126.426 193.99 123.871 188.859 123.871 184.485V173.317C123.871 171.267 125.6 169.535 127.646 169.535H136.973V196.333C136.973 198.546 137.075 200.798 137.278 203.079C134.969 201.844 132.716 200.193 130.706 198.21V198.21ZM350.768 313.552L309.24 344.452C308.399 344.983 307.657 345.482 307.003 345.942C305.196 344.124 302.677 341.675 298.975 338.471L290.965 331.28C290.388 330.514 289.663 329.856 288.818 329.352L273.247 315.374C277.484 314.384 281.879 313.045 286.551 311.3C298.66 306.787 310.37 300.009 321.102 291.658C331.065 299.132 342.938 307.838 350.768 313.552V313.552ZM276.551 338.498L270.483 362.308H241.489L235.664 339.448L256.124 320.161L276.551 338.498ZM191.263 39.694C192.15 39.545 192.818 39.456 193.337 39.385C197.181 38.866 198.83 37.971 201.354 35.03C201.691 34.637 202.125 34.131 202.741 33.458C213.72 21.378 232.031 15.09 252.928 15.09C266.835 15.09 281.888 17.876 296.684 23.595C327.293 35.425 360 61.937 360 100.866V133.787C335.881 99.927 309.792 102.144 282.439 104.469C261.758 106.225 240.375 108.042 215.597 95.071C203.98 88.991 181.399 84.069 160.687 119.418L151.972 134.333V117.702C151.972 117.202 151.962 116.537 151.949 115.724C151.452 84.082 157.866 45.206 191.263 39.694V39.694ZM330.078 148.838H276.056C269.577 148.838 264.307 154.11 264.307 160.589V166.656C258.644 165.696 252.944 165.701 247.24 166.675V160.589C247.24 154.109 241.982 148.838 235.519 148.838H181.497C175.034 148.838 169.776 154.11 169.776 160.589V164.951L155.194 158.55L173.634 126.992C190.204 98.711 203.6 105.72 208.641 108.359C237.291 123.355 261.952 121.26 283.709 119.413C313.24 116.903 334.974 115.06 357.302 158.282L341.799 165.006V160.589C341.799 154.11 336.541 148.838 330.078 148.838ZM326.799 163.837V176.466V176.533V189.004H279.307V163.838H326.799V163.837ZM232.24 163.837V189.003H184.776V176.559C184.776 176.54 184.776 176.521 184.776 176.502V163.837H232.24ZM153.766 211.413C152.575 206.207 151.972 201.133 151.972 196.333V173.518L169.776 181.333V192.28C169.776 198.744 175.034 204.003 181.497 204.003H235.519C241.982 204.003 247.24 198.744 247.24 192.28V181.969C252.991 180.583 258.637 180.575 264.307 181.947V192.279C264.307 198.743 269.578 204.002 276.056 204.002H330.078C336.541 204.002 341.799 198.743 341.799 192.279V181.356L360 173.463V196.333C360 201.133 359.396 206.207 358.205 211.418C350.086 247.035 317.03 283.932 281.308 297.247C271.766 300.811 263.724 302.47 256 302.47C248.25 302.47 240.21 300.811 230.688 297.245C194.953 283.926 161.884 247.029 153.766 211.413V211.413ZM222.315 331.418C222.232 331.492 222.152 331.569 222.072 331.647L214.768 338.532C211.104 341.706 208.605 344.136 206.81 345.942C206.156 345.482 205.414 344.983 204.573 344.452L162.844 313.402C166.978 310.209 172.14 306.203 177.213 302.267C182.055 298.509 187.29 294.448 190.886 291.672C191.016 291.774 191.148 291.865 191.279 291.963C201.905 300.172 213.477 306.838 225.438 311.296C230.177 313.071 234.634 314.423 238.935 315.421C239.022 315.45 239.109 315.483 239.198 315.503L222.315 331.418ZM451.5 495.323C451.5 496.024 451.472 496.572 451.434 496.993C450.621 497.013 449.609 496.993 448.778 496.98C447.974 496.965 447.132 496.951 446.252 496.951H389.503V444.557C389.503 440.415 386.145 437.057 382.003 437.057C377.861 437.057 374.503 440.415 374.503 444.557V496.951H295.575L310.873 467.957C312.136 465.641 312.324 463.301 311.425 460.749C311.416 460.718 311.407 460.686 311.397 460.655L302.19 429.985C301 426.018 296.819 423.769 292.851 424.958C288.884 426.149 286.633 430.33 287.824 434.297L296.472 463.106L278.615 496.95H256H233.356L215.499 463.105L241.241 377.307H270.732L278.278 402.462C279.253 405.711 282.233 407.809 285.459 407.809C286.172 407.809 286.898 407.706 287.617 407.491C291.585 406.301 293.836 402.12 292.646 398.153L284.094 369.644L289.15 349.804C293.379 353.463 295.915 356.049 297.594 357.762C300.229 360.45 302.929 362.782 306.362 362.782C308.445 362.782 310.798 361.922 313.568 359.759C314.504 359.029 315.668 358.12 317.448 357.01C317.622 356.901 317.792 356.785 317.957 356.662L364.655 321.915C408.123 332.395 451.502 367.458 451.502 410.567V495.323H451.5Z" fill="#F5CD71"/>
</g>
<defs>
<clipPath id="clip0">
<rect width="512" height="512" fill="white"/>
</clipPath>
</defs>
</svg>
