<svg xmlns="http://www.w3.org/2000/svg" xmlns:xlink="http://www.w3.org/1999/xlink" width="300" height="300"><defs><clipPath id="b"><path data-name="Rectangle 3192" transform="translate(570 1417)" fill="none" stroke="#707070" d="M0 0h300v300H0z"/></clipPath><clipPath id="c"><path data-name="Path 5924" d="M146.985 0c25.814 0 50.248 10.251 71.321 21.932 15.287 8.474 27 22.382 38.35 35.039 22.087 24.622 37.314 53.363 37.314 90.014 0 13.151.5 27.494-2.737 39.629-10.255 38.4-41.032 66.446-75.487 85.213-21.788 11.867-42.367 22.143-68.762 22.143-34.5 0-65.613-16.945-90.8-36.934C22.369 230.2 0 193.662 0 146.985c0-37.666 17.861-68.857 41.2-94.91C68.071 22.072 103.474 0 146.985 0z" transform="rotate(-60 1437.887 692.553)" fill="#deeeff"/></clipPath><clipPath id="d"><path data-name="Rectangle 2934" fill="none" d="M0 0h183.238v258.706H0z"/></clipPath><clipPath id="e"><path data-name="Rectangle 2827" fill="none" d="M0 0h22.496v24.502H0z"/></clipPath><clipPath id="f"><path data-name="Rectangle 2747" fill="none" d="M0 0h22.354v24.349H0z"/></clipPath><clipPath id="g"><path data-name="Rectangle 2748" fill="none" d="M0 0h22.214v24.196H0z"/></clipPath><clipPath id="h"><path data-name="Rectangle 2749" fill="none" d="M0 0h22.074v24.043H0z"/></clipPath><clipPath id="i"><path data-name="Rectangle 2750" fill="none" d="M0 0h21.933v23.89H0z"/></clipPath><clipPath id="j"><path data-name="Rectangle 2751" fill="none" d="M0 0h21.793v23.737H0z"/></clipPath><clipPath id="k"><path data-name="Rectangle 2752" fill="none" d="M0 0h21.652v23.583H0z"/></clipPath><clipPath id="l"><path data-name="Rectangle 2753" fill="none" d="M0 0h21.511v23.43H0z"/></clipPath><clipPath id="m"><path data-name="Rectangle 2754" fill="none" d="M0 0h21.37v23.277H0z"/></clipPath><clipPath id="n"><path data-name="Rectangle 2755" fill="none" d="M0 0h21.23v23.123H0z"/></clipPath><clipPath id="o"><path data-name="Rectangle 2756" fill="none" d="M0 0h21.089v22.97H0z"/></clipPath><clipPath id="p"><path data-name="Rectangle 2757" fill="none" d="M0 0h20.949v22.817H0z"/></clipPath><clipPath id="q"><path data-name="Rectangle 2758" fill="none" d="M0 0h20.809v22.664H0z"/></clipPath><clipPath id="r"><path data-name="Rectangle 2759" fill="none" d="M0 0h20.667v22.511H0z"/></clipPath><clipPath id="s"><path data-name="Rectangle 2760" fill="none" d="M0 0h20.527v22.358H0z"/></clipPath><clipPath id="t"><path data-name="Rectangle 2761" fill="none" d="M0 0h20.386v22.205H0z"/></clipPath><clipPath id="u"><path data-name="Rectangle 2762" fill="none" d="M0 0h20.246v22.052H0z"/></clipPath><clipPath id="v"><path data-name="Rectangle 2763" fill="none" d="M0 0h20.105v21.899H0z"/></clipPath><clipPath id="w"><path data-name="Rectangle 2764" fill="none" d="M0 0h19.965v21.746H0z"/></clipPath><clipPath id="x"><path data-name="Rectangle 2765" fill="none" d="M0 0h19.825v21.593H0z"/></clipPath><clipPath id="y"><path data-name="Rectangle 2766" fill="none" d="M0 0h19.683v21.439H0z"/></clipPath><clipPath id="z"><path data-name="Rectangle 2767" fill="none" d="M0 0h19.543v21.286H0z"/></clipPath><clipPath id="A"><path data-name="Rectangle 2768" fill="none" d="M0 0h19.402v21.133H0z"/></clipPath><clipPath id="B"><path data-name="Rectangle 2769" fill="none" d="M0 0h19.262v20.98H0z"/></clipPath><clipPath id="C"><path data-name="Rectangle 2770" fill="none" d="M0 0h19.121v20.826H0z"/></clipPath><clipPath id="D"><path data-name="Rectangle 2771" fill="none" d="M0 0h18.981v20.673H0z"/></clipPath><clipPath id="E"><path data-name="Rectangle 2772" fill="none" d="M0 0h18.84v20.52H0z"/></clipPath><clipPath id="F"><path data-name="Rectangle 2773" fill="none" d="M0 0h18.699v20.367H0z"/></clipPath><clipPath id="G"><path data-name="Rectangle 2774" fill="none" d="M0 0h18.559v20.214H0z"/></clipPath><clipPath id="H"><path data-name="Rectangle 2775" fill="none" d="M0 0h18.418v20.061H0z"/></clipPath><clipPath id="I"><path data-name="Rectangle 2776" fill="none" d="M0 0h18.278v19.908H0z"/></clipPath><clipPath id="J"><path data-name="Rectangle 2777" fill="none" d="M0 0h18.137v19.755H0z"/></clipPath><clipPath id="K"><path data-name="Rectangle 2778" fill="none" d="M0 0h17.996v19.602H0z"/></clipPath><clipPath id="L"><path data-name="Rectangle 2779" fill="none" d="M0 0h17.855v19.448H0z"/></clipPath><clipPath id="M"><path data-name="Rectangle 2780" fill="none" d="M0 0h17.715v19.295H0z"/></clipPath><clipPath id="N"><path data-name="Rectangle 2781" fill="none" d="M0 0h17.575v19.142H0z"/></clipPath><clipPath id="O"><path data-name="Rectangle 2782" fill="none" d="M0 0h17.434v18.989H0z"/></clipPath><clipPath id="P"><path data-name="Rectangle 2783" fill="none" d="M0 0h17.294v18.836H0z"/></clipPath><clipPath id="Q"><path data-name="Rectangle 2784" fill="none" d="M0 0h17.152v18.683H0z"/></clipPath><clipPath id="R"><path data-name="Rectangle 2785" fill="none" d="M0 0h17.012v18.529H0z"/></clipPath><clipPath id="S"><path data-name="Rectangle 2786" fill="none" d="M0 0h16.871v18.376H0z"/></clipPath><clipPath id="T"><path data-name="Rectangle 2787" fill="none" d="M0 0h16.731v18.223H0z"/></clipPath><clipPath id="U"><path data-name="Rectangle 2788" fill="none" d="M0 0h16.591v18.07H0z"/></clipPath><clipPath id="V"><path data-name="Rectangle 2789" fill="none" d="M0 0h16.45v17.917H0z"/></clipPath><clipPath id="W"><path data-name="Rectangle 2790" fill="none" d="M0 0h16.31v17.764H0z"/></clipPath><clipPath id="X"><path data-name="Rectangle 2791" fill="none" d="M0 0h16.168v17.611H0z"/></clipPath><clipPath id="Y"><path data-name="Rectangle 2792" fill="none" d="M0 0h16.028v17.458H0z"/></clipPath><clipPath id="Z"><path data-name="Rectangle 2793" fill="none" d="M0 0h15.887v17.305H0z"/></clipPath><clipPath id="aa"><path data-name="Rectangle 2794" fill="none" d="M0 0h15.747v17.151H0z"/></clipPath><clipPath id="ab"><path data-name="Rectangle 2795" fill="none" d="M0 0h15.607v16.998H0z"/></clipPath><clipPath id="ac"><path data-name="Rectangle 2796" fill="none" d="M0 0h15.466v16.845H0z"/></clipPath><clipPath id="ad"><path data-name="Rectangle 2797" fill="none" d="M0 0h15.325v16.692H0z"/></clipPath><clipPath id="ae"><path data-name="Rectangle 2798" fill="none" d="M0 0h15.184v16.539H0z"/></clipPath><clipPath id="af"><path data-name="Rectangle 2799" fill="none" d="M0 0h15.044v16.386H0z"/></clipPath><clipPath id="ag"><path data-name="Rectangle 2800" fill="none" d="M0 0h14.903v16.233H0z"/></clipPath><clipPath id="ah"><path data-name="Rectangle 2801" fill="none" d="M0 0h14.763v16.079H0z"/></clipPath><clipPath id="ai"><path data-name="Rectangle 2802" fill="none" d="M0 0h14.622v15.926H0z"/></clipPath><clipPath id="aj"><path data-name="Rectangle 2803" fill="none" d="M0 0h14.481v15.773H0z"/></clipPath><clipPath id="ak"><path data-name="Rectangle 2804" fill="none" d="M0 0h14.341v15.62H0z"/></clipPath><clipPath id="al"><path data-name="Rectangle 2805" fill="none" d="M0 0h14.2v15.467H0z"/></clipPath><clipPath id="am"><path data-name="Rectangle 2806" fill="none" d="M0 0h14.06v15.314H0z"/></clipPath><clipPath id="an"><path data-name="Rectangle 2807" fill="none" d="M0 0h13.919v15.161H0z"/></clipPath><clipPath id="ao"><path data-name="Rectangle 2808" fill="none" d="M0 0h13.779v15.007H0z"/></clipPath><clipPath id="ap"><path data-name="Rectangle 2809" fill="none" d="M0 0h13.637v14.854H0z"/></clipPath><clipPath id="aq"><path data-name="Rectangle 2810" fill="none" d="M0 0h13.497v14.701H0z"/></clipPath><clipPath id="ar"><path data-name="Rectangle 2811" fill="none" d="M0 0h13.357v14.548H0z"/></clipPath><clipPath id="as"><path data-name="Rectangle 2812" fill="none" d="M0 0h13.216v14.395H0z"/></clipPath><clipPath id="at"><path data-name="Rectangle 2813" fill="none" d="M0 0h13.076v14.242H0z"/></clipPath><clipPath id="au"><path data-name="Rectangle 2814" fill="none" d="M0 0h12.935v14.089H0z"/></clipPath><clipPath id="av"><path data-name="Rectangle 2815" fill="none" d="M0 0h12.795v13.936H0z"/></clipPath><clipPath id="aw"><path data-name="Rectangle 2816" fill="none" d="M0 0h12.653v13.782H0z"/></clipPath><clipPath id="ax"><path data-name="Rectangle 2817" fill="none" d="M0 0h12.513v13.629H0z"/></clipPath><clipPath id="ay"><path data-name="Rectangle 2818" fill="none" d="M0 0h12.372v13.476H0z"/></clipPath><clipPath id="az"><path data-name="Rectangle 2819" fill="none" d="M0 0h12.232v13.323H0z"/></clipPath><clipPath id="aA"><path data-name="Rectangle 2820" fill="none" d="M0 0h12.092v13.17H0z"/></clipPath><clipPath id="aB"><path data-name="Rectangle 2821" fill="none" d="M0 0h11.951v13.017H0z"/></clipPath><clipPath id="aC"><path data-name="Rectangle 2822" fill="none" d="M0 0h11.81v12.863H0z"/></clipPath><clipPath id="aD"><path data-name="Rectangle 2823" fill="none" d="M0 0h11.669v12.71H0z"/></clipPath><clipPath id="aE"><path data-name="Rectangle 2824" fill="none" d="M0 0h11.529v12.557H0z"/></clipPath><clipPath id="aF"><path data-name="Rectangle 2825" fill="none" d="M0 0h11.388v12.404H0z"/></clipPath><clipPath id="aG"><path data-name="Rectangle 2826" fill="none" d="M0 0h11.248v12.251H0z"/></clipPath><clipPath id="aH"><path data-name="Rectangle 2909" fill="none" d="M0 0h24.502v24.503H0z"/></clipPath><clipPath id="aI"><path data-name="Rectangle 2829" fill="none" d="M0 0h24.349v24.349H0z"/></clipPath><clipPath id="aJ"><path data-name="Rectangle 2830" fill="none" d="M0 0h24.196v24.196H0z"/></clipPath><clipPath id="aK"><path data-name="Rectangle 2831" fill="none" d="M0 0h24.043v24.043H0z"/></clipPath><clipPath id="aL"><path data-name="Rectangle 2832" fill="none" d="M0 0h23.89v23.89H0z"/></clipPath><clipPath id="aM"><path data-name="Rectangle 2833" fill="none" d="M0 0h23.737v23.737H0z"/></clipPath><clipPath id="aN"><path data-name="Rectangle 2834" fill="none" d="M0 0h23.584v23.584H0z"/></clipPath><clipPath id="aO"><path data-name="Rectangle 2835" fill="none" d="M0 0h23.431v23.431H0z"/></clipPath><clipPath id="aP"><path data-name="Rectangle 2836" fill="none" d="M0 0h23.278v23.277H0z"/></clipPath><clipPath id="aQ"><path data-name="Rectangle 2837" fill="none" d="M0 0h23.124v23.124H0z"/></clipPath><clipPath id="aR"><path data-name="Rectangle 2838" fill="none" d="M0 0h22.971v22.971H0z"/></clipPath><clipPath id="aS"><path data-name="Rectangle 2839" fill="none" d="M0 0h22.818v22.818H0z"/></clipPath><clipPath id="aT"><path data-name="Rectangle 2840" fill="none" d="M0 0h22.664v22.665H0z"/></clipPath><clipPath id="aU"><path data-name="Rectangle 2841" fill="none" d="M0 0h22.511v22.512H0z"/></clipPath><clipPath id="aV"><path data-name="Rectangle 2842" fill="none" d="M0 0h22.358v22.358H0z"/></clipPath><clipPath id="aW"><path data-name="Rectangle 2843" fill="none" d="M0 0h22.205v22.205H0z"/></clipPath><clipPath id="aX"><path data-name="Rectangle 2844" fill="none" d="M0 0h22.052v22.052H0z"/></clipPath><clipPath id="aY"><path data-name="Rectangle 2845" fill="none" d="M0 0h21.899v21.899H0z"/></clipPath><clipPath id="aZ"><path data-name="Rectangle 2846" fill="none" d="M0 0h21.746v21.746H0z"/></clipPath><clipPath id="ba"><path data-name="Rectangle 2847" fill="none" d="M0 0h21.593v21.593H0z"/></clipPath><clipPath id="bb"><path data-name="Rectangle 2848" fill="none" d="M0 0h21.44v21.44H0z"/></clipPath><clipPath id="bc"><path data-name="Rectangle 2849" fill="none" d="M0 0h21.287v21.286H0z"/></clipPath><clipPath id="bd"><path data-name="Rectangle 2850" fill="none" d="M0 0h21.134v21.133H0z"/></clipPath><clipPath id="be"><path data-name="Rectangle 2851" fill="none" d="M0 0h20.98v20.98H0z"/></clipPath><clipPath id="bf"><path data-name="Rectangle 2852" fill="none" d="M0 0h20.827v20.827H0z"/></clipPath><clipPath id="bg"><path data-name="Rectangle 2853" fill="none" d="M0 0h20.674v20.674H0z"/></clipPath><clipPath id="bh"><path data-name="Rectangle 2854" fill="none" d="M0 0h20.52v20.521H0z"/></clipPath><clipPath id="bi"><path data-name="Rectangle 2855" fill="none" d="M0 0h20.367v20.367H0z"/></clipPath><clipPath id="bj"><path data-name="Rectangle 2856" fill="none" d="M0 0h20.214v20.214H0z"/></clipPath><clipPath id="bk"><path data-name="Rectangle 2857" fill="none" d="M0 0h20.061v20.061H0z"/></clipPath><clipPath id="bl"><path data-name="Rectangle 2858" fill="none" d="M0 0h19.908v19.908H0z"/></clipPath><clipPath id="bm"><path data-name="Rectangle 2859" fill="none" d="M0 0h19.755v19.755H0z"/></clipPath><clipPath id="bn"><path data-name="Rectangle 2860" fill="none" d="M0 0h19.602v19.602H0z"/></clipPath><clipPath id="bo"><path data-name="Rectangle 2861" fill="none" d="M0 0h19.449v19.449H0z"/></clipPath><clipPath id="bp"><path data-name="Rectangle 2862" fill="none" d="M0 0h19.296v19.296H0z"/></clipPath><clipPath id="bq"><path data-name="Rectangle 2863" fill="none" d="M0 0h19.143v19.142H0z"/></clipPath><clipPath id="br"><path data-name="Rectangle 2864" fill="none" d="M0 0h18.989v18.989H0z"/></clipPath><clipPath id="bs"><path data-name="Rectangle 2865" fill="none" d="M0 0h18.836v18.836H0z"/></clipPath><clipPath id="bt"><path data-name="Rectangle 2866" fill="none" d="M0 0h18.683v18.683H0z"/></clipPath><clipPath id="bu"><path data-name="Rectangle 2867" fill="none" d="M0 0h18.529v18.53H0z"/></clipPath><clipPath id="bv"><path data-name="Rectangle 2868" fill="none" d="M0 0h18.376v18.377H0z"/></clipPath><clipPath id="bw"><path data-name="Rectangle 2869" fill="none" d="M0 0h18.223v18.223H0z"/></clipPath><clipPath id="bx"><path data-name="Rectangle 2870" fill="none" d="M0 0h18.07v18.07H0z"/></clipPath><clipPath id="by"><path data-name="Rectangle 2871" fill="none" d="M0 0h17.917v17.917H0z"/></clipPath><clipPath id="bz"><path data-name="Rectangle 2872" fill="none" d="M0 0h17.764v17.764H0z"/></clipPath><clipPath id="bA"><path data-name="Rectangle 2873" fill="none" d="M0 0h17.611v17.611H0z"/></clipPath><clipPath id="bB"><path data-name="Rectangle 2874" fill="none" d="M0 0h17.458v17.458H0z"/></clipPath><clipPath id="bC"><path data-name="Rectangle 2875" fill="none" d="M0 0h17.305v17.305H0z"/></clipPath><clipPath id="bD"><path data-name="Rectangle 2876" fill="none" d="M0 0h17.152v17.151H0z"/></clipPath><clipPath id="bE"><path data-name="Rectangle 2877" fill="none" d="M0 0h16.998v16.998H0z"/></clipPath><clipPath id="bF"><path data-name="Rectangle 2878" fill="none" d="M0 0h16.845v16.845H0z"/></clipPath><clipPath id="bG"><path data-name="Rectangle 2879" fill="none" d="M0 0h16.692v16.692H0z"/></clipPath><clipPath id="bH"><path data-name="Rectangle 2880" fill="none" d="M0 0h16.539v16.539H0z"/></clipPath><clipPath id="bI"><path data-name="Rectangle 2881" fill="none" d="M0 0h16.386v16.386H0z"/></clipPath><clipPath id="bJ"><path data-name="Rectangle 2882" fill="none" d="M0 0h16.233v16.232H0z"/></clipPath><clipPath id="bK"><path data-name="Rectangle 2883" fill="none" d="M0 0h16.079v16.079H0z"/></clipPath><clipPath id="bL"><path data-name="Rectangle 2884" fill="none" d="M0 0h15.926v15.926H0z"/></clipPath><clipPath id="bM"><path data-name="Rectangle 2885" fill="none" d="M0 0h15.773v15.773H0z"/></clipPath><clipPath id="bN"><path data-name="Rectangle 2886" fill="none" d="M0 0h15.62v15.62H0z"/></clipPath><clipPath id="bO"><path data-name="Rectangle 2887" fill="none" d="M0 0h15.467v15.467H0z"/></clipPath><clipPath id="bP"><path data-name="Rectangle 2888" fill="none" d="M0 0h15.314v15.314H0z"/></clipPath><clipPath id="bQ"><path data-name="Rectangle 2889" fill="none" d="M0 0h15.161v15.161H0z"/></clipPath><clipPath id="bR"><path data-name="Rectangle 2890" fill="none" d="M0 0h15.008v15.007H0z"/></clipPath><clipPath id="bS"><path data-name="Rectangle 2891" fill="none" d="M0 0h14.854v14.854H0z"/></clipPath><clipPath id="bT"><path data-name="Rectangle 2892" fill="none" d="M0 0h14.701v14.701H0z"/></clipPath><clipPath id="bU"><path data-name="Rectangle 2893" fill="none" d="M0 0h14.548v14.548H0z"/></clipPath><clipPath id="bV"><path data-name="Rectangle 2894" fill="none" d="M0 0h14.395v14.395H0z"/></clipPath><clipPath id="bW"><path data-name="Rectangle 2895" fill="none" d="M0 0h14.242v14.242H0z"/></clipPath><clipPath id="bX"><path data-name="Rectangle 2896" fill="none" d="M0 0h14.089v14.089H0z"/></clipPath><clipPath id="bY"><path data-name="Rectangle 2897" fill="none" d="M0 0h13.936v13.936H0z"/></clipPath><clipPath id="bZ"><path data-name="Rectangle 2898" fill="none" d="M0 0h13.782v13.782H0z"/></clipPath><clipPath id="ca"><path data-name="Rectangle 2899" fill="none" d="M0 0h13.629v13.629H0z"/></clipPath><clipPath id="cb"><path data-name="Rectangle 2900" fill="none" d="M0 0h13.476v13.476H0z"/></clipPath><clipPath id="cc"><path data-name="Rectangle 2901" fill="none" d="M0 0h13.323v13.323H0z"/></clipPath><clipPath id="cd"><path data-name="Rectangle 2902" fill="none" d="M0 0h13.17v13.17H0z"/></clipPath><clipPath id="ce"><path data-name="Rectangle 2903" fill="none" d="M0 0h13.017v13.017H0z"/></clipPath><clipPath id="cf"><path data-name="Rectangle 2904" fill="none" d="M0 0h12.864v12.864H0z"/></clipPath><clipPath id="cg"><path data-name="Rectangle 2905" fill="none" d="M0 0h12.71v12.71H0z"/></clipPath><clipPath id="ch"><path data-name="Rectangle 2906" fill="none" d="M0 0h12.557v12.557H0z"/></clipPath><clipPath id="ci"><path data-name="Rectangle 2907" fill="none" d="M0 0h12.404v12.404H0z"/></clipPath><clipPath id="cj"><path data-name="Rectangle 2908" fill="none" d="M0 0h12.251v12.251H0z"/></clipPath><clipPath id="ck"><path data-name="Path 5848" d="M167.633 104.127a6 6 0 00-.244 2.962c.293.031.587.063.916.08a21.085 21.085 0 004.019-.121 6.6 6.6 0 00.539-1.192c.759-2.3.2-4.547-1.24-5.024a1.777 1.777 0 00-.563-.09c-1.318 0-2.764 1.38-3.426 3.385" transform="translate(-167.301 -100.742)" fill="none"/></clipPath><clipPath id="cl"><path data-name="Rectangle 2912" fill="none" d="M0 0h3.975v2.793H0z"/></clipPath><clipPath id="cm"><path data-name="Path 5850" d="M219.463 104.841a5.219 5.219 0 00.117 4 13.123 13.123 0 003.333.442 5.859 5.859 0 001.781-2.717c.759-2.3.2-4.547-1.24-5.024a1.78 1.78 0 00-.564-.09c-1.317 0-2.763 1.379-3.427 3.385" transform="translate(-219.128 -101.456)" fill="none"/></clipPath><clipPath id="co"><path data-name="Rectangle 2915" fill="none" d="M0 0h3.94v2.66H0z"/></clipPath><clipPath id="cp"><path data-name="Rectangle 2916" fill="none" d="M0 0h19.913v3.99H0z"/></clipPath><clipPath id="cq"><path data-name="Rectangle 2917" fill="none" d="M0 0h9.39v11.738H0z"/></clipPath><clipPath id="cr"><path data-name="Rectangle 2918" fill="none" d="M0 0h.03v.004H0z"/></clipPath><clipPath id="cs"><path data-name="Path 5869" d="M230.658 25.023z" transform="translate(-230.658 -25.023)" fill="none"/></clipPath><clipPath id="ct"><path data-name="Rectangle 2919" fill="none" d="M0 0h53.53v15.169H0z"/></clipPath><clipPath id="cu"><path data-name="Rectangle 2920" fill="none" d="M0 0h.021v.002H0z"/></clipPath><clipPath id="cv"><path data-name="Rectangle 2921" fill="none" d="M0 0h9.973v4.663H0z"/></clipPath><clipPath id="cw"><path data-name="Rectangle 2922" fill="none" d="M0 0h13.733v21.376H0z"/></clipPath><clipPath id="cx"><path data-name="Rectangle 2923" fill="none" d="M0 0h17.797v22.649H0z"/></clipPath><clipPath id="cy"><path data-name="Rectangle 2924" fill="none" d="M0 0h9.506v21.589H0z"/></clipPath><clipPath id="cz"><path data-name="Rectangle 2925" fill="none" d="M0 0h11.743v20.684H0z"/></clipPath><clipPath id="cA"><path data-name="Rectangle 2926" fill="none" d="M0 0h17.803v18.68H0z"/></clipPath><clipPath id="cB"><path data-name="Rectangle 2927" fill="none" d="M0 0h38.294v42.188H0z"/></clipPath><clipPath id="cC"><path data-name="Rectangle 2931" fill="none" d="M0 0h22.251v26.896H0z"/></clipPath><clipPath id="cD"><path data-name="Rectangle 2932" fill="none" d="M0 0h22.251v27.138H0z"/></clipPath><linearGradient id="a" x1="-10.678" y1="24.802" x2="-10.613" y2="24.802" gradientUnits="objectBoundingBox"><stop offset="0" stop-color="#5c3333"/><stop offset="1" stop-color="#231f20"/></linearGradient><linearGradient id="cn" x1="-12.293" y1="23.711" x2="-12.236" y2="23.711" xlink:href="#a"/></defs><g data-name="Mask Group 25" transform="translate(-570 -1417)" clip-path="url(#b)"><g data-name="Group 9308"><path data-name="Path 957" d="M592.668 1494.23c12.907-22.355 34.001-38.39 54.654-50.8 14.982-9.001 32.883-12.191 49.52-15.692 32.366-6.817 64.87-5.633 96.61 12.692 11.39 6.576 24.061 13.314 32.952 22.185 28.128 28.08 37.028 68.758 36.053 107.98-.617 24.802-2.007 47.762-15.205 70.621-17.25 29.878-47.48 48.35-77.385 60.168-40.148 15.867-82.976 16.97-123.4-6.369-32.619-18.833-50.7-49.896-61.594-83.135-12.548-38.272-13.961-79.968 7.795-117.65z" fill="#deeeff"/><g data-name="Group 16" transform="translate(400 30)" clip-path="url(#c)"><g data-name="Group 8583"><g data-name="Group 8582" clip-path="url(#d)" transform="translate(218 1425)"><g data-name="Group 8522"><g data-name="Group 8521" clip-path="url(#d)"><path data-name="Path 5676" d="M63.678 113.587c-14.832 10.875-49.025 49.547-49.025 49.547l1.977 11.374s11.856 19.977 50.572-20.13c33.114-34.3 25.251-48.818 25.251-48.818s-13.943-2.853-28.775 8.027" fill="#6d7db3"/><path data-name="Path 5677" d="M77.01 54.904c-3.228 1.063-4.679 5.777-3.241 10.531s5.221 7.745 8.449 6.682 4.679-5.777 3.241-10.53-5.221-7.745-8.45-6.683" fill="#d78c74"/><path data-name="Path 5678" d="M108.169 79.184c-6.995-.12-12.419 1.25-12.5 6.251l-2.368 25.164c-.079 5 7.183 5.445 14.179 5.565s12.719-.712 12.8-5.712V88.958c.078-5-5.116-9.654-12.111-9.774" fill="#d78c74"/><path data-name="Path 5679" d="M96.692 12.102s0-.054-.017-.144c.009.093.017.144.017.144" fill="#381911"/><path data-name="Path 5680" d="M136.29 61.493c.036-11.565-1.654-26.192-4.009-34.8-1.821-11.2-33.415-16.49-42.723-1.112-2.965 7.132-7.79 20.443-9.4 33.663v-.226s-8.6 35.163 22.685 37.349 34.771-14.314 33.441-34.872z" fill="#e5a185"/><g data-name="Group 8274"><g data-name="Group 8273" opacity=".38"><g data-name="Group 8272" clip-path="url(#e)" transform="translate(79.851 53.593)"><g data-name="Group 8031"><g data-name="Group 8030"><g data-name="Group 8029" clip-path="url(#e)"><path data-name="Path 5681" d="M11.417.001C5.206-.085.095 5.331.002 12.101s4.867 12.319 11.077 12.4 11.322-5.33 11.415-12.1S17.628.082 11.417.001" fill="#e5a185"/></g></g></g><g data-name="Group 8034"><g data-name="Group 8033"><g data-name="Group 8032" clip-path="url(#f)" transform="translate(.071 .077)"><path data-name="Path 5682" d="M11.345.001C5.172-.084.094 5.301.001 12.021s4.836 12.242 11.008 12.327 11.251-5.3 11.344-12.02S17.517.086 11.345.001" fill="#e5a084"/></g></g></g><g data-name="Group 8037"><g data-name="Group 8036"><g data-name="Group 8035" clip-path="url(#g)" transform="translate(.141 .153)"><path data-name="Path 5683" d="M11.277.001C5.143-.084.097 5.264.004 11.945s4.806 12.165 10.94 12.25 11.18-5.263 11.272-11.944S17.407.086 11.277.001" fill="#e59f83"/></g></g></g><g data-name="Group 8040"><g data-name="Group 8039"><g data-name="Group 8038" clip-path="url(#h)" transform="translate(.211 .23)"><path data-name="Path 5684" d="M11.203.001C5.108-.083.093 5.231.003 11.869s4.775 12.089 10.87 12.172 11.11-5.229 11.2-11.868S17.298.085 11.203.001" fill="#e49e83"/></g></g></g><g data-name="Group 8043"><g data-name="Group 8042"><g data-name="Group 8041" clip-path="url(#i)" transform="translate(.281 .306)"><path data-name="Path 5685" d="M11.131.001C5.075-.083.092 5.201.001 11.794s4.745 12.011 10.8 12.1 11.039-5.2 11.13-11.793S17.186.09 11.131.007" fill="#e49d82"/></g></g></g><g data-name="Group 8046"><g data-name="Group 8045"><g data-name="Group 8044" clip-path="url(#j)" transform="translate(.351 .383)"><path data-name="Path 5686" d="M11.06.001C5.043-.082.092 5.164.001 11.718s4.715 11.934 10.732 12.017 10.968-5.163 11.059-11.717S17.077.084 11.06.001" fill="#e49c81"/></g></g></g><g data-name="Group 8049"><g data-name="Group 8048"><g data-name="Group 8047" clip-path="url(#k)" transform="translate(.422 .46)"><path data-name="Path 5687" d="M10.988.006C5.009-.076.088 5.136.001 11.648s4.684 11.857 10.662 11.939 10.9-5.13 10.988-11.642S16.966.088 10.988.006" fill="#e49b80"/></g></g></g><g data-name="Group 8052"><g data-name="Group 8051"><g data-name="Group 8050" clip-path="url(#l)" transform="translate(.492 .536)"><path data-name="Path 5688" d="M10.917 0C4.977-.081.091 5.1.001 11.566s4.654 11.78 10.593 11.862 10.827-5.1 10.916-11.566S16.856.082 10.916 0" fill="#e49a80"/></g></g></g><g data-name="Group 8055"><g data-name="Group 8054"><g data-name="Group 8053" clip-path="url(#m)" transform="translate(.563 .613)"><path data-name="Path 5689" d="M10.846.001C4.946-.08.09 5.064.001 11.491s4.624 11.7 10.524 11.785 10.756-5.063 10.845-11.49S16.747.086 10.846.001" fill="#e3997f"/></g></g></g><g data-name="Group 8058"><g data-name="Group 8057"><g data-name="Group 8056" clip-path="url(#n)" transform="translate(.633 .689)"><path data-name="Path 5690" d="M10.774.001C4.912-.08.089 5.031.001 11.416s4.593 11.626 10.454 11.707 10.685-5.03 10.773-11.415S16.635.081 10.774.001" fill="#e3987e"/></g></g></g><g data-name="Group 8061"><g data-name="Group 8060"><g data-name="Group 8059" clip-path="url(#o)" transform="translate(.703 .766)"><path data-name="Path 5691" d="M10.702 0C4.879-.08.087 5 .002 11.339s4.562 11.549 10.385 11.629 10.615-5 10.7-11.339S16.524.079 10.702-.001" fill="#e3977d"/></g></g></g><g data-name="Group 8064"><g data-name="Group 8063"><g data-name="Group 8062" clip-path="url(#p)" transform="translate(.773 .842)"><path data-name="Path 5692" d="M10.631-.004C4.847-.083.088 4.959.001 11.259s4.532 11.473 10.316 11.552 10.543-4.963 10.63-11.263S16.416.08 10.631-.004" fill="#e3967c"/></g></g></g><g data-name="Group 8067"><g data-name="Group 8066"><g data-name="Group 8065" clip-path="url(#q)" transform="translate(.843 .919)"><path data-name="Path 5693" d="M10.56.001C4.814-.078.087 4.931.001 11.189s4.5 11.4 10.247 11.475 10.473-4.93 10.559-11.188S16.307.076 10.56.001" fill="#e2957c"/></g></g></g><g data-name="Group 8070"><g data-name="Group 8069"><g data-name="Group 8068" clip-path="url(#r)" transform="translate(.914 .995)"><path data-name="Path 5694" d="M10.489.001C4.782-.078.089 4.901.002 11.114s4.471 11.318 10.177 11.4 10.4-4.9 10.487-11.113S16.195.083 10.489.001" fill="#e2947b"/></g></g></g><g data-name="Group 8073"><g data-name="Group 8072"><g data-name="Group 8071" clip-path="url(#s)" transform="translate(.984 1.072)"><path data-name="Path 5695" d="M10.418.001C4.749-.077.086 4.864.001 11.038s4.441 11.241 10.108 11.319S20.44 17.494 20.526 11.32 16.085.079 10.418.001" fill="#e2937a"/></g></g></g><g data-name="Group 8076"><g data-name="Group 8075"><g data-name="Group 8074" clip-path="url(#t)" transform="translate(1.055 1.148)"><path data-name="Path 5696" d="M10.346.001C4.717-.077.086 4.831.001 10.962s4.41 11.165 10.039 11.242 10.26-4.83 10.345-10.961S15.975.079 10.346.001" fill="#e29279"/></g></g></g><g data-name="Group 8079"><g data-name="Group 8078"><g data-name="Group 8077" clip-path="url(#u)" transform="translate(1.125 1.225)"><path data-name="Path 5697" d="M10.275.001C4.685-.076.085 4.801.002 10.887s4.379 11.088 9.97 11.164 10.189-4.8 10.274-10.886S15.866.078 10.276.001" fill="#e29179"/></g></g></g><g data-name="Group 8082"><g data-name="Group 8081"><g data-name="Group 8080" clip-path="url(#v)" transform="translate(1.195 1.302)"><path data-name="Path 5698" d="M10.203.001C4.652-.076.084 4.764.003 10.811s4.35 11.01 9.9 11.087 10.119-4.763 10.2-10.81-4.35-11.01-9.9-11.087" fill="#e19078"/></g></g></g><g data-name="Group 8085"><g data-name="Group 8084"><g data-name="Group 8083" clip-path="url(#w)" transform="translate(1.265 1.378)"><path data-name="Path 5699" d="M10.132.002C4.62-.074.084 4.732.001 10.736S4.32 21.67 9.832 21.746s10.048-4.73 10.131-10.735S15.644.078 10.132.002" fill="#e18f77"/></g></g></g><g data-name="Group 8088"><g data-name="Group 8087"><g data-name="Group 8086" clip-path="url(#x)" transform="translate(1.336 1.455)"><path data-name="Path 5700" d="M10.06.001C4.586-.074.082 4.701.001 10.66s4.288 10.857 9.762 10.932 9.977-4.7 10.059-10.659S15.533.076 10.06.001" fill="#e18e76"/></g></g></g><g data-name="Group 8091"><g data-name="Group 8090"><g data-name="Group 8089" clip-path="url(#y)" transform="translate(1.406 1.531)"><path data-name="Path 5701" d="M9.989.001C4.554-.074.082 4.665.001 10.584s4.258 10.779 9.693 10.854 9.907-4.663 9.988-10.583S15.424.076 9.989.001" fill="#e18d75"/></g></g></g><g data-name="Group 8094"><g data-name="Group 8093"><g data-name="Group 8092" clip-path="url(#z)" transform="translate(1.476 1.608)"><path data-name="Path 5702" d="M9.919 0C4.519-.074.083 4.63.002 10.508s4.227 10.7 9.623 10.777 9.836-4.631 9.917-10.508S15.314.077 9.918 0" fill="#e18c75"/></g></g></g><g data-name="Group 8097"><g data-name="Group 8096"><g data-name="Group 8095" clip-path="url(#A)" transform="translate(1.547 1.685)"><path data-name="Path 5703" d="M9.847 0C4.49-.074.082 4.6.002 10.432s4.2 10.625 9.554 10.7 9.766-4.6 9.845-10.432S15.201.075 9.847 0" fill="#e08b74"/></g></g></g><g data-name="Group 8100"><g data-name="Group 8099"><g data-name="Group 8098" clip-path="url(#B)" transform="translate(1.617 1.761)"><path data-name="Path 5704" d="M9.775.001C4.457-.072.08 4.564.001 10.357s4.167 10.548 9.485 10.622 9.695-4.563 9.774-10.356S15.093.075 9.775.001" fill="#e08a73"/></g></g></g><g data-name="Group 8103"><g data-name="Group 8102"><g data-name="Group 8101" clip-path="url(#C)" transform="translate(1.687 1.838)"><path data-name="Path 5705" d="M9.707.001C4.427-.072.084 4.531.007 10.282s4.136 10.471 9.416 10.544 9.624-4.53 9.7-10.281S14.987.074 9.707.001" fill="#e08972"/></g></g></g><g data-name="Group 8106"><g data-name="Group 8105"><g data-name="Group 8104" clip-path="url(#D)" transform="translate(1.758 1.914)"><path data-name="Path 5706" d="M9.633 0C4.392-.072.08 4.5.001 10.205s4.106 10.394 9.347 10.466 9.553-4.5 9.631-10.205S14.873.072 9.632 0" fill="#e08872"/></g></g></g><g data-name="Group 8109"><g data-name="Group 8108"><g data-name="Group 8107" clip-path="url(#E)" transform="translate(1.828 1.991)"><path data-name="Path 5707" d="M9.561 0C4.361-.072.079 4.464.001 10.129s4.076 10.318 9.278 10.389 9.482-4.464 9.56-10.129S14.763.071 9.562 0" fill="#df8771"/></g></g></g><g data-name="Group 8112"><g data-name="Group 8111"><g data-name="Group 8110" clip-path="url(#F)" transform="translate(1.898 2.067)"><path data-name="Path 5708" d="M9.49 0C4.327-.071.079 4.431.001 10.054s4.045 10.241 9.208 10.312 9.412-4.43 9.489-10.054S14.653.071 9.49 0" fill="#df8670"/></g></g></g><g data-name="Group 8115"><g data-name="Group 8114"><g data-name="Group 8113" clip-path="url(#G)" transform="translate(1.968 2.144)"><path data-name="Path 5709" d="M9.419.001C4.295-.07.078 4.401.001 9.98S4.016 20.143 9.14 20.214s9.34-4.4 9.418-9.979S14.543.072 9.419.001" fill="#df856f"/></g></g></g><g data-name="Group 8118"><g data-name="Group 8117"><g data-name="Group 8116" clip-path="url(#H)" transform="translate(2.039 2.22)"><path data-name="Path 5710" d="M9.347.001C4.261-.069.077 4.365.001 9.901S3.985 19.987 9.07 20.057s9.27-4.364 9.346-9.9S14.432.071 9.346.001" fill="#df846f"/></g></g></g><g data-name="Group 8121"><g data-name="Group 8120"><g data-name="Group 8119" clip-path="url(#I)" transform="translate(2.109 2.297)"><path data-name="Path 5711" d="M9.276-.003C4.229-.073.076 4.327.001 9.824s3.954 10.01 9 10.079 9.2-4.33 9.275-9.828-3.954-10.009-9-10.079" fill="#df836e"/></g></g></g><g data-name="Group 8124"><g data-name="Group 8123"><g data-name="Group 8122" clip-path="url(#J)" transform="translate(2.179 2.374)"><path data-name="Path 5712" d="M9.204.001C4.196-.068.076 4.301.004 9.753s3.924 9.932 8.931 10 9.129-4.3 9.2-9.752-3.924-9.932-8.931-10" fill="#de826d"/></g></g></g><g data-name="Group 8127"><g data-name="Group 8126"><g data-name="Group 8125" clip-path="url(#K)" transform="translate(2.25 2.45)"><path data-name="Path 5713" d="M9.133.001C4.164-.067.075 4.265.001 9.677s3.893 9.855 8.862 9.924 9.057-4.264 9.132-9.676S14.102.069 9.133.001" fill="#de816c"/></g></g></g><g data-name="Group 8130"><g data-name="Group 8129"><g data-name="Group 8128" clip-path="url(#L)" transform="translate(2.32 2.527)"><path data-name="Path 5714" d="M9.061.001C4.131-.067.074 4.232 0 9.601s3.863 9.779 8.793 9.847 8.987-4.23 9.061-9.6S13.991.069 9.061.001" fill="#de806b"/></g></g></g><g data-name="Group 8133"><g data-name="Group 8132"><g data-name="Group 8131" clip-path="url(#M)" transform="translate(2.39 2.604)"><path data-name="Path 5715" d="M8.99 0C4.098-.067.074 4.2 0 9.525s3.833 9.7 8.724 9.769 8.916-4.2 8.99-9.525S13.882.069 8.991.001" fill="#de7f6b"/></g></g></g><g data-name="Group 8136"><g data-name="Group 8135"><g data-name="Group 8134" clip-path="url(#N)" transform="translate(2.46 2.68)"><path data-name="Path 5716" d="M8.92 0C4.067-.067.075 4.164.002 9.449s3.8 9.624 8.654 9.691 8.845-4.164 8.918-9.449S13.774.067 8.92 0" fill="#de7e6a"/></g></g></g><g data-name="Group 8139"><g data-name="Group 8138"><g data-name="Group 8137" clip-path="url(#O)" transform="translate(2.531 2.757)"><path data-name="Path 5717" d="M8.848 0C4.034-.066.073 4.13.001 9.374s3.772 9.547 8.585 9.614 8.774-4.131 8.847-9.374S13.661.067 8.848 0" fill="#dd7d69"/></g></g></g><g data-name="Group 8142"><g data-name="Group 8141"><g data-name="Group 8140" clip-path="url(#P)" transform="translate(2.601 2.833)"><path data-name="Path 5718" d="M8.777.002c-4.775-.066-8.7 4.1-8.776 9.3s3.741 9.471 8.516 9.536 8.7-4.1 8.775-9.3S13.551.068 8.776.002" fill="#dd7c68"/></g></g></g><g data-name="Group 8145"><g data-name="Group 8144"><g data-name="Group 8143" clip-path="url(#Q)" transform="translate(2.672 2.91)"><path data-name="Path 5719" d="M8.705 0C3.969-.065.072 4.064.005 9.222s3.711 9.394 8.446 9.459 8.633-4.064 8.7-9.222S13.441.066 8.705.001" fill="#dd7b68"/></g></g></g><g data-name="Group 8148"><g data-name="Group 8147"><g data-name="Group 8146" clip-path="url(#R)" transform="translate(2.742 2.986)"><path data-name="Path 5720" d="M8.634 0C3.934-.065.072 4.031.001 9.147s3.68 9.316 8.378 9.381 8.562-4.031 8.632-9.147S13.331.065 8.634 0" fill="#dd7a67"/></g></g></g><g data-name="Group 8151"><g data-name="Group 8150"><g data-name="Group 8149" clip-path="url(#S)" transform="translate(2.812 3.063)"><path data-name="Path 5721" d="M8.562.001C3.903-.063.07 4.001.001 9.073s3.65 9.239 8.308 9.3 8.492-4 8.562-9.072-3.65-9.239-8.308-9.3" fill="#dd7a66"/></g></g></g><g data-name="Group 8154"><g data-name="Group 8153"><g data-name="Group 8152" clip-path="url(#T)" transform="translate(2.882 3.139)"><path data-name="Path 5722" d="M8.49.001C3.87-.063.069 3.965 0 9.001s3.62 9.163 8.239 9.226 8.42-3.964 8.49-9S13.109.064 8.49.001" fill="#dc7965"/></g></g></g><g data-name="Group 8157"><g data-name="Group 8156"><g data-name="Group 8155" clip-path="url(#U)" transform="translate(2.952 3.216)"><path data-name="Path 5723" d="M8.42 0C3.839-.063.07 3.931.001 8.92s3.589 9.086 8.17 9.149 8.35-3.931 8.419-8.92S13.001.063 8.42 0" fill="#dc7864"/></g></g></g><g data-name="Group 8160"><g data-name="Group 8159"><g data-name="Group 8158" clip-path="url(#V)" transform="translate(3.023 3.292)"><path data-name="Path 5724" d="M8.348 0C3.806-.063.069 3.9.001 8.845s3.559 9.008 8.1 9.071 8.279-3.9 8.348-8.845S12.89.063 8.349 0" fill="#dc7764"/></g></g></g><g data-name="Group 8163"><g data-name="Group 8162"><g data-name="Group 8161" clip-path="url(#W)" transform="translate(3.093 3.369)"><path data-name="Path 5725" d="M8.277 0C3.777-.062.069 3.864.001 8.769S3.53 17.7 8.032 17.762s8.209-3.864 8.276-8.769S12.779.062 8.277 0" fill="#dc7663"/></g></g></g><g data-name="Group 8166"><g data-name="Group 8165"><g data-name="Group 8164" clip-path="url(#X)" transform="translate(3.164 3.445)"><path data-name="Path 5726" d="M8.205.001C3.74-.06.067 3.832.005 8.694s3.5 8.855 7.962 8.916 8.138-3.831 8.2-8.694S12.667.062 8.205 0" fill="#db7562"/></g></g></g><g data-name="Group 8169"><g data-name="Group 8168"><g data-name="Group 8167" clip-path="url(#Y)" transform="translate(3.234 3.522)"><path data-name="Path 5727" d="M8.138.001C3.713-.06.071 3.801.005 8.619s3.468 8.777 7.893 8.839 8.067-3.8 8.133-8.618S12.563.063 8.138.002" fill="#db7461"/></g></g></g><g data-name="Group 8172"><g data-name="Group 8171"><g data-name="Group 8170" clip-path="url(#Z)" transform="translate(3.304 3.599)"><path data-name="Path 5728" d="M8.063.001c-4.387-.06-8 3.764-8.062 8.542s3.436 8.7 7.823 8.761 8-3.764 8.062-8.542S12.449.062 8.063.001" fill="#db7361"/></g></g></g><g data-name="Group 8175"><g data-name="Group 8174"><g data-name="Group 8173" clip-path="url(#aa)" transform="translate(3.374 3.676)"><path data-name="Path 5729" d="M7.992 0C3.644-.06.066 3.731.002 8.466s3.407 8.624 7.754 8.683 7.925-3.731 7.99-8.466S12.339.059 7.992 0" fill="#db7260"/></g></g></g><g data-name="Group 8178"><g data-name="Group 8177"><g data-name="Group 8176" clip-path="url(#ab)" transform="translate(3.444 3.752)"><path data-name="Path 5730" d="M7.92-.003C3.611-.062.065 3.697.001 8.388s3.376 8.547 7.685 8.606 7.855-3.7 7.919-8.391S12.23.056 7.92-.003" fill="#db715f"/></g></g></g><g data-name="Group 8181"><g data-name="Group 8180"><g data-name="Group 8179" clip-path="url(#ac)" transform="translate(3.515 3.829)"><path data-name="Path 5731" d="M7.848 0C3.578-.059.064 3.664 0 8.315s3.346 8.47 7.616 8.528 7.783-3.664 7.848-8.315S12.118.058 7.848 0" fill="#da705e"/></g></g></g><g data-name="Group 8184"><g data-name="Group 8183"><g data-name="Group 8182" clip-path="url(#ad)" transform="translate(3.585 3.905)"><path data-name="Path 5732" d="M7.778 0C3.546-.058.065 3.631.002 8.24s3.315 8.392 7.547 8.451 7.713-3.631 7.776-8.24S12.01.059 7.779 0" fill="#da6f5d"/></g></g></g><g data-name="Group 8187"><g data-name="Group 8186"><g data-name="Group 8185" clip-path="url(#ae)" transform="translate(3.656 3.982)"><path data-name="Path 5733" d="M7.706 0C3.514-.058.064 3.6.001 8.164s3.285 8.316 7.478 8.374 7.642-3.6 7.705-8.164S11.899.059 7.706.001" fill="#da6e5d"/></g></g></g><g data-name="Group 8190"><g data-name="Group 8189"><g data-name="Group 8188" clip-path="url(#af)" transform="translate(3.726 4.058)"><path data-name="Path 5734" d="M7.634 0C3.48-.057.062 3.564 0 8.088s3.255 8.238 7.409 8.3 7.571-3.564 7.634-8.088S11.789.061 7.635 0" fill="#da6d5c"/></g></g></g><g data-name="Group 8193"><g data-name="Group 8192"><g data-name="Group 8191" clip-path="url(#ag)" transform="translate(3.796 4.135)"><path data-name="Path 5735" d="M7.563 0C3.448-.057.063 3.531.001 8.013s3.224 8.161 7.339 8.218 7.5-3.531 7.563-8.013S11.678.056 7.564 0" fill="#da6c5b"/></g></g></g><g data-name="Group 8196"><g data-name="Group 8195"><g data-name="Group 8194" clip-path="url(#ah)" transform="translate(3.866 4.211)"><path data-name="Path 5736" d="M7.492 0C3.416-.056.062 3.5.001 7.938s3.194 8.084 7.27 8.141 7.43-3.5 7.491-7.938S11.568.057 7.492.001" fill="#d96b5a"/></g></g></g><g data-name="Group 8199"><g data-name="Group 8198"><g data-name="Group 8197" clip-path="url(#ai)" transform="translate(3.937 4.288)"><path data-name="Path 5737" d="M7.421.003C3.383-.053.061 3.468 0 7.865s3.164 8.008 7.2 8.063 7.36-3.464 7.42-7.862S11.457.058 7.42.002" fill="#d96a5a"/></g></g></g><g data-name="Group 8202"><g data-name="Group 8201"><g data-name="Group 8200" clip-path="url(#aj)" transform="translate(4.007 4.364)"><path data-name="Path 5738" d="M7.349 0C3.349-.055.06 3.431 0 7.786s3.133 7.931 7.131 7.986 7.289-3.431 7.349-7.787S11.347.055 7.349-.001" fill="#d96959"/></g></g></g><g data-name="Group 8205"><g data-name="Group 8204"><g data-name="Group 8203" clip-path="url(#ak)" transform="translate(4.077 4.441)"><path data-name="Path 5739" d="M7.278 0C3.318-.054.06 3.4.001 7.711s3.1 7.854 7.062 7.908 7.218-3.4 7.277-7.711S11.24.055 7.278 0" fill="#d96858"/></g></g></g><g data-name="Group 8208"><g data-name="Group 8207"><g data-name="Group 8206" clip-path="url(#al)" transform="translate(4.148 4.517)"><path data-name="Path 5740" d="M7.207 0C3.286-.054.06 3.365.001 7.635s3.072 7.776 6.993 7.83 7.147-3.364 7.206-7.635S11.128.054 7.207 0" fill="#d86757"/></g></g></g><g data-name="Group 8211"><g data-name="Group 8210"><g data-name="Group 8209" clip-path="url(#am)" transform="translate(4.218 4.594)"><path data-name="Path 5741" d="M7.136 0C3.254-.053.06 3.331.001 7.559s3.042 7.7 6.924 7.753 7.076-3.331 7.134-7.559S11.018.053 7.136 0" fill="#d86657"/></g></g></g><g data-name="Group 8214"><g data-name="Group 8213"><g data-name="Group 8212" clip-path="url(#an)" transform="translate(4.288 4.671)"><path data-name="Path 5742" d="M7.064 0C3.221-.053.058 3.3.001 7.484s3.011 7.623 6.854 7.676 7.005-3.3 7.063-7.484S10.906.053 7.064 0" fill="#d86556"/></g></g></g><g data-name="Group 8217"><g data-name="Group 8216"><g data-name="Group 8215" clip-path="url(#ao)" transform="translate(4.358 4.747)"><path data-name="Path 5743" d="M6.993.001C3.193-.051.058 3.265.001 7.409s2.981 7.546 6.785 7.6 6.935-3.264 6.991-7.408-2.98-7.546-6.785-7.6" fill="#d86455"/></g></g></g><g data-name="Group 8220"><g data-name="Group 8219"><g data-name="Group 8218" clip-path="url(#ap)" transform="translate(4.429 4.824)"><path data-name="Path 5744" d="M6.92 0C3.154-.052.056 3.232-.001 7.332s2.95 7.469 6.716 7.521 6.863-3.232 6.92-7.333S10.685.051 6.919 0" fill="#d86354"/></g></g></g><g data-name="Group 8223"><g data-name="Group 8222"><g data-name="Group 8221" clip-path="url(#aq)" transform="translate(4.499 4.901)"><path data-name="Path 5745" d="M6.85 0C3.123-.051.057 3.2.001 7.257S2.92 14.649 6.648 14.7s6.793-3.2 6.849-7.257S10.577.051 6.85 0" fill="#d76253"/></g></g></g><g data-name="Group 8226"><g data-name="Group 8225"><g data-name="Group 8224" clip-path="url(#ar)" transform="translate(4.569 4.977)"><path data-name="Path 5746" d="M6.779 0C3.091-.051.057 3.165.001 7.181s2.89 7.315 6.577 7.365 6.722-3.164 6.778-7.181S10.466.05 6.778 0" fill="#d76153"/></g></g></g><g data-name="Group 8229"><g data-name="Group 8228"><g data-name="Group 8227" clip-path="url(#as)" transform="translate(4.64 5.054)"><path data-name="Path 5747" d="M6.707 0C3.058-.05.055 3.131 0 7.106s2.859 7.237 6.508 7.288 6.652-3.131 6.707-7.106S10.356.05 6.707 0" fill="#d76052"/></g></g></g><g data-name="Group 8232"><g data-name="Group 8231"><g data-name="Group 8230" clip-path="url(#at)" transform="translate(4.71 5.13)"><path data-name="Path 5748" d="M6.636.001c-3.61-.05-6.581 3.1-6.635 7.03s2.829 7.161 6.439 7.211 6.581-3.1 6.635-7.031S10.247.051 6.636.001" fill="#d75f51"/></g></g></g><g data-name="Group 8235"><g data-name="Group 8234"><g data-name="Group 8233" clip-path="url(#au)" transform="translate(4.78 5.207)"><path data-name="Path 5749" d="M6.568-.002a7.07 7.07 0 106.37 7.132 6.774 6.774 0 00-6.37-7.132" fill="#d75e50"/></g></g></g><g data-name="Group 8238"><g data-name="Group 8237"><g data-name="Group 8236" clip-path="url(#av)" transform="translate(4.851 5.283)"><path data-name="Path 5750" d="M6.494.001a6.993 6.993 0 106.3 7.055 6.7 6.7 0 00-6.3-7.055" fill="#d65d50"/></g></g></g><g data-name="Group 8241"><g data-name="Group 8240"><g data-name="Group 8239" clip-path="url(#aw)" transform="translate(4.921 5.36)"><path data-name="Path 5751" d="M6.421.001a6.916 6.916 0 106.231 6.978A6.627 6.627 0 006.421.001" fill="#d65c4f"/></g></g></g><g data-name="Group 8244"><g data-name="Group 8243"><g data-name="Group 8242" clip-path="url(#ax)" transform="translate(4.991 5.436)"><path data-name="Path 5752" d="M6.35.001a6.84 6.84 0 106.162 6.9A6.553 6.553 0 006.35.001" fill="#d65b4e"/></g></g></g><g data-name="Group 8247"><g data-name="Group 8246"><g data-name="Group 8245" clip-path="url(#ay)" transform="translate(5.062 5.513)"><path data-name="Path 5753" d="M6.279.001a6.763 6.763 0 106.093 6.823A6.48 6.48 0 006.279.001" fill="#d65a4d"/></g></g></g><g data-name="Group 8250"><g data-name="Group 8249"><g data-name="Group 8248" clip-path="url(#az)" transform="translate(5.132 5.589)"><path data-name="Path 5754" d="M6.207.002a6.686 6.686 0 106.023 6.745A6.406 6.406 0 006.207.002" fill="#d5594c"/></g></g></g><g data-name="Group 8253"><g data-name="Group 8252"><g data-name="Group 8251" clip-path="url(#aA)" transform="translate(5.202 5.666)"><path data-name="Path 5755" d="M6.136.002a6.609 6.609 0 105.954 6.667A6.333 6.333 0 006.136.002" fill="#d5584c"/></g></g></g><g data-name="Group 8256"><g data-name="Group 8255"><g data-name="Group 8254" clip-path="url(#aB)" transform="translate(5.273 5.742)"><path data-name="Path 5756" d="M6.065.004a6.532 6.532 0 105.885 6.59A6.259 6.259 0 006.065.004" fill="#d5574b"/></g></g></g><g data-name="Group 8259"><g data-name="Group 8258"><g data-name="Group 8257" clip-path="url(#aC)" transform="translate(5.343 5.82)"><path data-name="Path 5757" d="M5.994 0a6.455 6.455 0 105.816 6.513A6.186 6.186 0 005.994 0" fill="#d5564a"/></g></g></g><g data-name="Group 8262"><g data-name="Group 8261"><g data-name="Group 8260" clip-path="url(#aD)" transform="translate(5.413 5.896)"><path data-name="Path 5758" d="M5.922 0a6.379 6.379 0 105.746 6.435A6.111 6.111 0 005.922 0" fill="#d55549"/></g></g></g><g data-name="Group 8265"><g data-name="Group 8264"><g data-name="Group 8263" clip-path="url(#aE)" transform="translate(5.483 5.973)"><path data-name="Path 5759" d="M5.851 0a6.3 6.3 0 105.677 6.358A6.039 6.039 0 005.851 0" fill="#d45449"/></g></g></g><g data-name="Group 8268"><g data-name="Group 8267"><g data-name="Group 8266" clip-path="url(#aF)" transform="translate(5.554 6.049)"><path data-name="Path 5760" d="M5.78.001a6.225 6.225 0 105.608 6.28A5.965 5.965 0 005.78.001" fill="#d45348"/></g></g></g><g data-name="Group 8271"><g data-name="Group 8270"><g data-name="Group 8269" clip-path="url(#aG)" transform="translate(5.624 6.126)"><path data-name="Path 5761" d="M5.709.001a6.148 6.148 0 105.539 6.2 5.891 5.891 0 00-5.539-6.2" fill="#d45247"/></g></g></g></g></g></g><g data-name="Group 8520"><g data-name="Group 8519" opacity=".38"><g data-name="Group 8518" clip-path="url(#aH)" transform="translate(109.279 54.012)"><g data-name="Group 8277"><g data-name="Group 8276"><g data-name="Group 8275" clip-path="url(#aH)"><path data-name="Path 5762" d="M12.419.001a12.251 12.251 0 1012.082 12.418A12.251 12.251 0 0012.419.001" fill="#e5a185"/></g></g></g><g data-name="Group 8280"><g data-name="Group 8279"><g data-name="Group 8278" clip-path="url(#aI)" transform="translate(.077 .077)"><path data-name="Path 5763" d="M12.342.001A12.175 12.175 0 1024.347 12.34 12.174 12.174 0 0012.341-.001" fill="#e5a084"/></g></g></g><g data-name="Group 8283"><g data-name="Group 8282"><g data-name="Group 8281" clip-path="url(#aJ)" transform="translate(.153 .153)"><path data-name="Path 5764" d="M12.264-.002a12.1 12.1 0 1011.931 12.263A12.1 12.1 0 0012.264-.002" fill="#e59f83"/></g></g></g><g data-name="Group 8286"><g data-name="Group 8285"><g data-name="Group 8284" clip-path="url(#aK)" transform="translate(.23 .23)"><path data-name="Path 5765" d="M12.187.002a12.021 12.021 0 1011.855 12.186A12.021 12.021 0 0012.187.002" fill="#e49e83"/></g></g></g><g data-name="Group 8289"><g data-name="Group 8288"><g data-name="Group 8287" clip-path="url(#aL)" transform="translate(.306 .306)"><path data-name="Path 5766" d="M12.109.002a11.945 11.945 0 1011.779 12.112A11.945 11.945 0 0012.109.006" fill="#e49d82"/></g></g></g><g data-name="Group 8292"><g data-name="Group 8291"><g data-name="Group 8290" clip-path="url(#aM)" transform="translate(.383 .383)"><path data-name="Path 5767" d="M12.031.002a11.868 11.868 0 1011.7 12.03 11.868 11.868 0 00-11.7-12.03" fill="#e49c81"/></g></g></g><g data-name="Group 8295"><g data-name="Group 8294"><g data-name="Group 8293" clip-path="url(#aN)" transform="translate(.459 .459)"><path data-name="Path 5768" d="M11.954.002a11.792 11.792 0 1011.629 11.953A11.792 11.792 0 0011.955.002" fill="#e49b80"/></g></g></g><g data-name="Group 8298"><g data-name="Group 8297"><g data-name="Group 8296" clip-path="url(#aO)" transform="translate(.536 .536)"><path data-name="Path 5769" d="M11.877.001a11.715 11.715 0 1011.552 11.876A11.715 11.715 0 0011.877.001" fill="#e49a80"/></g></g></g><g data-name="Group 8301"><g data-name="Group 8300"><g data-name="Group 8299" clip-path="url(#aP)" transform="translate(.612 .613)"><path data-name="Path 5770" d="M11.799.001a11.639 11.639 0 1011.477 11.8A11.639 11.639 0 0011.799.001" fill="#e3997f"/></g></g></g><g data-name="Group 8304"><g data-name="Group 8303"><g data-name="Group 8302" clip-path="url(#aQ)" transform="translate(.689 .689)"><path data-name="Path 5771" d="M11.722.003a11.562 11.562 0 1011.4 11.72 11.562 11.562 0 00-11.4-11.72" fill="#e3987e"/></g></g></g><g data-name="Group 8307"><g data-name="Group 8306"><g data-name="Group 8305" clip-path="url(#aR)" transform="translate(.765 .766)"><path data-name="Path 5772" d="M11.644.001A11.485 11.485 0 1022.97 11.644 11.486 11.486 0 0011.644.001" fill="#e3977d"/></g></g></g><g data-name="Group 8310"><g data-name="Group 8309"><g data-name="Group 8308" clip-path="url(#aS)" transform="translate(.842 .842)"><path data-name="Path 5773" d="M11.567.001a11.409 11.409 0 1011.251 11.565A11.409 11.409 0 0011.567.001" fill="#e3967c"/></g></g></g><g data-name="Group 8313"><g data-name="Group 8312"><g data-name="Group 8311" clip-path="url(#aT)" transform="translate(.919 .919)"><path data-name="Path 5774" d="M11.488.001a11.332 11.332 0 1011.175 11.487A11.333 11.333 0 0011.488.001" fill="#e2957c"/></g></g></g><g data-name="Group 8316"><g data-name="Group 8315"><g data-name="Group 8314" clip-path="url(#aU)" transform="translate(.995 .995)"><path data-name="Path 5775" d="M11.411.001a11.256 11.256 0 1011.1 11.409A11.255 11.255 0 0011.411.001" fill="#e2947b"/></g></g></g><g data-name="Group 8319"><g data-name="Group 8318"><g data-name="Group 8317" clip-path="url(#aV)" transform="translate(1.072 1.072)"><path data-name="Path 5776" d="M11.333.001a11.179 11.179 0 1011.024 11.332A11.179 11.179 0 0011.333.001" fill="#e2937a"/></g></g></g><g data-name="Group 8322"><g data-name="Group 8321"><g data-name="Group 8320" clip-path="url(#aW)" transform="translate(1.148 1.148)"><path data-name="Path 5777" d="M11.255.001a11.1 11.1 0 1010.949 11.25A11.1 11.1 0 0011.255-.003" fill="#e29279"/></g></g></g><g data-name="Group 8325"><g data-name="Group 8324"><g data-name="Group 8323" clip-path="url(#aX)" transform="translate(1.225 1.225)"><path data-name="Path 5778" d="M11.178.001a11.026 11.026 0 1010.873 11.177A11.026 11.026 0 0011.178.001" fill="#e29179"/></g></g></g><g data-name="Group 8328"><g data-name="Group 8327"><g data-name="Group 8326" clip-path="url(#aY)" transform="translate(1.302 1.302)"><path data-name="Path 5779" d="M11.1.001a10.949 10.949 0 1010.8 11.1A10.949 10.949 0 0011.1.001" fill="#e19078"/></g></g></g><g data-name="Group 8331"><g data-name="Group 8330"><g data-name="Group 8329" clip-path="url(#aZ)" transform="translate(1.378 1.378)"><path data-name="Path 5780" d="M11.023.001a10.873 10.873 0 1010.722 11.024A10.873 10.873 0 0011.023.004" fill="#e18f77"/></g></g></g><g data-name="Group 8334"><g data-name="Group 8333"><g data-name="Group 8332" clip-path="url(#ba)" transform="translate(1.455 1.455)"><path data-name="Path 5781" d="M10.945.001a10.8 10.8 0 1010.647 10.944A10.8 10.8 0 0010.945.001" fill="#e18e76"/></g></g></g><g data-name="Group 8337"><g data-name="Group 8336"><g data-name="Group 8335" clip-path="url(#bb)" transform="translate(1.531 1.531)"><path data-name="Path 5782" d="M10.867.001a10.72 10.72 0 1010.571 10.866A10.719 10.719 0 0010.867.001" fill="#e18d75"/></g></g></g><g data-name="Group 8340"><g data-name="Group 8339"><g data-name="Group 8338" clip-path="url(#bc)" transform="translate(1.608 1.608)"><path data-name="Path 5783" d="M10.79-.002a10.643 10.643 0 1010.5 10.789A10.643 10.643 0 0010.79-.002" fill="#e18c75"/></g></g></g><g data-name="Group 8343"><g data-name="Group 8342"><g data-name="Group 8341" clip-path="url(#bd)" transform="translate(1.684 1.685)"><path data-name="Path 5784" d="M10.71 0a10.566 10.566 0 1010.42 10.712A10.567 10.567 0 0010.71 0" fill="#e08b74"/></g></g></g><g data-name="Group 8346"><g data-name="Group 8345"><g data-name="Group 8344" clip-path="url(#be)" transform="translate(1.761 1.761)"><path data-name="Path 5785" d="M10.635.001A10.49 10.49 0 1020.98 10.634 10.49 10.49 0 0010.635.001" fill="#e08a73"/></g></g></g><g data-name="Group 8349"><g data-name="Group 8348"><g data-name="Group 8347" clip-path="url(#bf)" transform="translate(1.837 1.838)"><path data-name="Path 5786" d="M10.557 0a10.413 10.413 0 1010.269 10.556A10.414 10.414 0 0010.557 0" fill="#e08972"/></g></g></g><g data-name="Group 8352"><g data-name="Group 8351"><g data-name="Group 8350" clip-path="url(#bg)" transform="translate(1.914 1.914)"><path data-name="Path 5787" d="M10.484.001a10.337 10.337 0 1010.194 10.478A10.337 10.337 0 0010.484.001" fill="#e08872"/></g></g></g><g data-name="Group 8355"><g data-name="Group 8354"><g data-name="Group 8353" clip-path="url(#bh)" transform="translate(1.991 1.991)"><path data-name="Path 5788" d="M10.401.001a10.26 10.26 0 1010.118 10.4A10.26 10.26 0 0010.401.001" fill="#df8771"/></g></g></g><g data-name="Group 8358"><g data-name="Group 8357"><g data-name="Group 8356" clip-path="url(#bi)" transform="translate(2.067 2.067)"><path data-name="Path 5789" d="M10.324.001a10.184 10.184 0 1010.042 10.323A10.183 10.183 0 0010.324.001" fill="#df8670"/></g></g></g><g data-name="Group 8361"><g data-name="Group 8360"><g data-name="Group 8359" clip-path="url(#bj)" transform="translate(2.144 2.144)"><path data-name="Path 5790" d="M10.246.004a10.107 10.107 0 109.967 10.245A10.107 10.107 0 0010.246.004" fill="#df856f"/></g></g></g><g data-name="Group 8364"><g data-name="Group 8363"><g data-name="Group 8362" clip-path="url(#bk)" transform="translate(2.22 2.22)"><path data-name="Path 5791" d="M10.169.001a10.031 10.031 0 109.892 10.168A10.03 10.03 0 0010.169.001" fill="#df846f"/></g></g></g><g data-name="Group 8367"><g data-name="Group 8366"><g data-name="Group 8365" clip-path="url(#bl)" transform="translate(2.297 2.297)"><path data-name="Path 5792" d="M10.091.001a9.954 9.954 0 109.816 10.09A9.954 9.954 0 0010.091.001" fill="#df836e"/></g></g></g><g data-name="Group 8370"><g data-name="Group 8369"><g data-name="Group 8368" clip-path="url(#bm)" transform="translate(2.374 2.374)"><path data-name="Path 5793" d="M10.014.001a9.877 9.877 0 109.74 10.013A9.878 9.878 0 0010.014.001" fill="#de826d"/></g></g></g><g data-name="Group 8373"><g data-name="Group 8372"><g data-name="Group 8371" clip-path="url(#bn)" transform="translate(2.45 2.45)"><path data-name="Path 5794" d="M9.936.001a9.8 9.8 0 109.665 9.935A9.8 9.8 0 009.936.001" fill="#de816c"/></g></g></g><g data-name="Group 8376"><g data-name="Group 8375"><g data-name="Group 8374" clip-path="url(#bo)" transform="translate(2.527 2.527)"><path data-name="Path 5795" d="M9.859.001a9.724 9.724 0 109.589 9.857A9.725 9.725 0 009.859.001" fill="#de806b"/></g></g></g><g data-name="Group 8379"><g data-name="Group 8378"><g data-name="Group 8377" clip-path="url(#bp)" transform="translate(2.603 2.603)"><path data-name="Path 5796" d="M9.781.001a9.648 9.648 0 109.514 9.78A9.648 9.648 0 009.781.001" fill="#de7f6b"/></g></g></g><g data-name="Group 8382"><g data-name="Group 8381"><g data-name="Group 8380" clip-path="url(#bq)" transform="translate(2.68 2.68)"><path data-name="Path 5797" d="M9.703 0a9.571 9.571 0 109.439 9.7A9.571 9.571 0 009.703 0" fill="#de7e6a"/></g></g></g><g data-name="Group 8385"><g data-name="Group 8384"><g data-name="Group 8383" clip-path="url(#br)" transform="translate(2.756 2.757)"><path data-name="Path 5798" d="M9.625.001a9.494 9.494 0 109.363 9.624A9.494 9.494 0 009.625.001" fill="#dd7d69"/></g></g></g><g data-name="Group 8388"><g data-name="Group 8387"><g data-name="Group 8386" clip-path="url(#bs)" transform="translate(2.833 2.833)"><path data-name="Path 5799" d="M9.548.001a9.418 9.418 0 109.287 9.547A9.418 9.418 0 009.548.001" fill="#dd7c68"/></g></g></g><g data-name="Group 8391"><g data-name="Group 8390"><g data-name="Group 8389" clip-path="url(#bt)" transform="translate(2.909 2.91)"><path data-name="Path 5800" d="M9.471.001a9.341 9.341 0 109.212 9.469A9.342 9.342 0 009.471.001" fill="#dd7b68"/></g></g></g><g data-name="Group 8394"><g data-name="Group 8393"><g data-name="Group 8392" clip-path="url(#bu)" transform="translate(2.986 2.986)"><path data-name="Path 5801" d="M9.394 0a9.265 9.265 0 109.136 9.392A9.265 9.265 0 009.394 0" fill="#dd7a67"/></g></g></g><g data-name="Group 8397"><g data-name="Group 8396"><g data-name="Group 8395" clip-path="url(#bv)" transform="translate(3.063 3.063)"><path data-name="Path 5802" d="M9.314-.001a9.189 9.189 0 109.061 9.314A9.189 9.189 0 009.314-.001" fill="#dd7a66"/></g></g></g><g data-name="Group 8400"><g data-name="Group 8399"><g data-name="Group 8398" clip-path="url(#bw)" transform="translate(3.139 3.139)"><path data-name="Path 5803" d="M9.237.001a9.112 9.112 0 108.985 9.236A9.112 9.112 0 009.237.001" fill="#dc7965"/></g></g></g><g data-name="Group 8403"><g data-name="Group 8402"><g data-name="Group 8401" clip-path="url(#bx)" transform="translate(3.216 3.216)"><path data-name="Path 5804" d="M9.159.001a9.035 9.035 0 108.91 9.159A9.036 9.036 0 009.159.001" fill="#dc7864"/></g></g></g><g data-name="Group 8406"><g data-name="Group 8405"><g data-name="Group 8404" clip-path="url(#by)" transform="translate(3.292 3.292)"><path data-name="Path 5805" d="M9.081.001a8.959 8.959 0 108.835 9.081A8.959 8.959 0 009.081.001" fill="#dc7764"/></g></g></g><g data-name="Group 8409"><g data-name="Group 8408"><g data-name="Group 8407" clip-path="url(#bz)" transform="translate(3.369 3.369)"><path data-name="Path 5806" d="M9.004.001a8.882 8.882 0 108.759 9 8.883 8.883 0 00-8.759-9" fill="#dc7663"/></g></g></g><g data-name="Group 8412"><g data-name="Group 8411"><g data-name="Group 8410" clip-path="url(#bA)" transform="translate(3.445 3.445)"><path data-name="Path 5807" d="M8.926.001a8.806 8.806 0 108.684 8.926A8.806 8.806 0 008.926.001" fill="#db7562"/></g></g></g><g data-name="Group 8415"><g data-name="Group 8414"><g data-name="Group 8413" clip-path="url(#bB)" transform="translate(3.522 3.522)"><path data-name="Path 5808" d="M8.849.001a8.729 8.729 0 108.608 8.848A8.729 8.729 0 008.849.001" fill="#db7461"/></g></g></g><g data-name="Group 8418"><g data-name="Group 8417"><g data-name="Group 8416" clip-path="url(#bC)" transform="translate(3.599 3.599)"><path data-name="Path 5809" d="M8.772.005a8.652 8.652 0 108.533 8.77A8.652 8.652 0 008.772.005" fill="#db7361"/></g></g></g><g data-name="Group 8421"><g data-name="Group 8420"><g data-name="Group 8419" clip-path="url(#bD)" transform="translate(3.675 3.676)"><path data-name="Path 5810" d="M8.693 0a8.576 8.576 0 108.457 8.693A8.576 8.576 0 008.693 0" fill="#db7260"/></g></g></g><g data-name="Group 8424"><g data-name="Group 8423"><g data-name="Group 8422" clip-path="url(#bE)" transform="translate(3.752 3.752)"><path data-name="Path 5811" d="M8.616 0a8.5 8.5 0 108.381 8.616A8.5 8.5 0 008.616 0" fill="#db715f"/></g></g></g><g data-name="Group 8427"><g data-name="Group 8426"><g data-name="Group 8425" clip-path="url(#bF)" transform="translate(3.828 3.829)"><path data-name="Path 5812" d="M8.539 0a8.423 8.423 0 108.306 8.538A8.423 8.423 0 008.539 0" fill="#da705e"/></g></g></g><g data-name="Group 8430"><g data-name="Group 8429"><g data-name="Group 8428" clip-path="url(#bG)" transform="translate(3.905 3.905)"><path data-name="Path 5813" d="M8.461 0a8.346 8.346 0 108.23 8.46A8.345 8.345 0 008.461 0" fill="#da6f5d"/></g></g></g><g data-name="Group 8433"><g data-name="Group 8432"><g data-name="Group 8431" clip-path="url(#bH)" transform="translate(3.981 3.982)"><path data-name="Path 5814" d="M8.384.001a8.27 8.27 0 108.155 8.382A8.269 8.269 0 008.384.001" fill="#da6e5d"/></g></g></g><g data-name="Group 8436"><g data-name="Group 8435"><g data-name="Group 8434" clip-path="url(#bI)" transform="translate(4.058 4.058)"><path data-name="Path 5815" d="M8.305 0a8.193 8.193 0 108.079 8.305A8.193 8.193 0 008.305 0" fill="#da6d5c"/></g></g></g><g data-name="Group 8439"><g data-name="Group 8438"><g data-name="Group 8437" clip-path="url(#bJ)" transform="translate(4.135 4.135)"><path data-name="Path 5816" d="M8.228 0a8.116 8.116 0 108 8.228 8.117 8.117 0 00-8-8.228" fill="#da6c5b"/></g></g></g><g data-name="Group 8442"><g data-name="Group 8441"><g data-name="Group 8440" clip-path="url(#bK)" transform="translate(4.211 4.211)"><path data-name="Path 5817" d="M8.15.001a8.04 8.04 0 107.928 8.15A8.04 8.04 0 008.15.001" fill="#d96b5a"/></g></g></g><g data-name="Group 8445"><g data-name="Group 8444"><g data-name="Group 8443" clip-path="url(#bL)" transform="translate(4.288 4.288)"><path data-name="Path 5818" d="M8.073 0a7.963 7.963 0 107.852 8.072A7.964 7.964 0 008.073 0" fill="#d96a5a"/></g></g></g><g data-name="Group 8448"><g data-name="Group 8447"><g data-name="Group 8446" clip-path="url(#bM)" transform="translate(4.364 4.364)"><path data-name="Path 5819" d="M7.995 0a7.887 7.887 0 107.778 7.995A7.887 7.887 0 007.995 0" fill="#d96959"/></g></g></g><g data-name="Group 8451"><g data-name="Group 8450"><g data-name="Group 8449" clip-path="url(#bN)" transform="translate(4.441 4.441)"><path data-name="Path 5820" d="M7.918.001a7.81 7.81 0 107.7 7.917 7.81 7.81 0 00-7.7-7.917" fill="#d96858"/></g></g></g><g data-name="Group 8454"><g data-name="Group 8453"><g data-name="Group 8452" clip-path="url(#bO)" transform="translate(4.517 4.517)"><path data-name="Path 5821" d="M7.84 0a7.734 7.734 0 107.626 7.84A7.734 7.734 0 007.84 0" fill="#d86757"/></g></g></g><g data-name="Group 8457"><g data-name="Group 8456"><g data-name="Group 8455" clip-path="url(#bP)" transform="translate(4.594 4.594)"><path data-name="Path 5822" d="M7.763.001a7.657 7.657 0 107.548 7.757A7.656 7.656 0 007.76-.003" fill="#d86657"/></g></g></g><g data-name="Group 8460"><g data-name="Group 8459"><g data-name="Group 8458" clip-path="url(#bQ)" transform="translate(4.671 4.67)"><path data-name="Path 5823" d="M7.685.001a7.58 7.58 0 107.475 7.684A7.581 7.581 0 007.685.001" fill="#d86556"/></g></g></g><g data-name="Group 8463"><g data-name="Group 8462"><g data-name="Group 8461" clip-path="url(#bR)" transform="translate(4.747 4.748)"><path data-name="Path 5824" d="M7.607 0a7.5 7.5 0 107.4 7.606A7.5 7.5 0 007.607 0" fill="#d86455"/></g></g></g><g data-name="Group 8466"><g data-name="Group 8465"><g data-name="Group 8464" clip-path="url(#bS)" transform="translate(4.824 4.824)"><path data-name="Path 5825" d="M7.529 0a7.427 7.427 0 107.324 7.529A7.427 7.427 0 007.529 0" fill="#d86354"/></g></g></g><g data-name="Group 8469"><g data-name="Group 8468"><g data-name="Group 8467" clip-path="url(#bT)" transform="translate(4.9 4.901)"><path data-name="Path 5826" d="M7.452 0a7.351 7.351 0 107.249 7.451A7.35 7.35 0 007.452 0" fill="#d76253"/></g></g></g><g data-name="Group 8472"><g data-name="Group 8471"><g data-name="Group 8470" clip-path="url(#bU)" transform="translate(4.977 4.977)"><path data-name="Path 5827" d="M7.374 0a7.274 7.274 0 107.173 7.373A7.274 7.274 0 007.374 0" fill="#d76153"/></g></g></g><g data-name="Group 8475"><g data-name="Group 8474"><g data-name="Group 8473" clip-path="url(#bV)" transform="translate(5.054 5.054)"><path data-name="Path 5828" d="M7.296.005a7.2 7.2 0 107.1 7.3 7.2 7.2 0 00-7.1-7.3" fill="#d76052"/></g></g></g><g data-name="Group 8478"><g data-name="Group 8477"><g data-name="Group 8476" clip-path="url(#bW)" transform="translate(5.13 5.13)"><path data-name="Path 5829" d="M7.217 0a7.121 7.121 0 107.022 7.218A7.121 7.121 0 007.217 0" fill="#d75f51"/></g></g></g><g data-name="Group 8481"><g data-name="Group 8480"><g data-name="Group 8479" clip-path="url(#bX)" transform="translate(5.207 5.207)"><path data-name="Path 5830" d="M7.141 0a7.044 7.044 0 106.947 7.141A7.044 7.044 0 007.141 0" fill="#d75e50"/></g></g></g><g data-name="Group 8484"><g data-name="Group 8483"><g data-name="Group 8482" clip-path="url(#bY)" transform="translate(5.283 5.283)"><path data-name="Path 5831" d="M7.063.001a6.968 6.968 0 106.871 7.063A6.967 6.967 0 007.063.001" fill="#d65d50"/></g></g></g><g data-name="Group 8487"><g data-name="Group 8486"><g data-name="Group 8485" clip-path="url(#bZ)" transform="translate(5.36 5.36)"><path data-name="Path 5832" d="M6.991.001a6.891 6.891 0 106.8 6.985 6.892 6.892 0 00-6.8-6.985" fill="#d65c4f"/></g></g></g><g data-name="Group 8490"><g data-name="Group 8489"><g data-name="Group 8488" clip-path="url(#ca)" transform="translate(5.436 5.436)"><path data-name="Path 5833" d="M6.909 0a6.815 6.815 0 106.72 6.908A6.814 6.814 0 006.909 0" fill="#d65b4e"/></g></g></g><g data-name="Group 8493"><g data-name="Group 8492"><g data-name="Group 8491" clip-path="url(#cb)" transform="translate(5.513 5.513)"><path data-name="Path 5834" d="M6.831 0a6.738 6.738 0 106.645 6.83A6.739 6.739 0 006.831 0" fill="#d65a4d"/></g></g></g><g data-name="Group 8496"><g data-name="Group 8495"><g data-name="Group 8494" clip-path="url(#cc)" transform="translate(5.589 5.589)"><path data-name="Path 5835" d="M6.754 0a6.662 6.662 0 106.569 6.752A6.661 6.661 0 006.754 0" fill="#d5594c"/></g></g></g><g data-name="Group 8499"><g data-name="Group 8498"><g data-name="Group 8497" clip-path="url(#cd)" transform="translate(5.666 5.666)"><path data-name="Path 5836" d="M6.676.001a6.585 6.585 0 106.494 6.675A6.586 6.586 0 006.676.001" fill="#d5584c"/></g></g></g><g data-name="Group 8502"><g data-name="Group 8501"><g data-name="Group 8500" clip-path="url(#ce)" transform="translate(5.742 5.743)"><path data-name="Path 5837" d="M6.599 0a6.508 6.508 0 106.418 6.6A6.508 6.508 0 006.599 0" fill="#d5574b"/></g></g></g><g data-name="Group 8505"><g data-name="Group 8504"><g data-name="Group 8503" clip-path="url(#cf)" transform="translate(5.819 5.82)"><path data-name="Path 5838" d="M6.521 0a6.432 6.432 0 106.343 6.52A6.432 6.432 0 006.521 0" fill="#d5564a"/></g></g></g><g data-name="Group 8508"><g data-name="Group 8507"><g data-name="Group 8506" clip-path="url(#cg)" transform="translate(5.896 5.896)"><path data-name="Path 5839" d="M6.443 0a6.355 6.355 0 106.267 6.442A6.355 6.355 0 006.443 0" fill="#d55549"/></g></g></g><g data-name="Group 8511"><g data-name="Group 8510"><g data-name="Group 8509" clip-path="url(#ch)" transform="translate(5.972 5.973)"><path data-name="Path 5840" d="M6.365 0a6.279 6.279 0 106.191 6.364A6.279 6.279 0 006.365 0" fill="#d45449"/></g></g></g><g data-name="Group 8514"><g data-name="Group 8513"><g data-name="Group 8512" clip-path="url(#ci)" transform="translate(6.049 6.049)"><path data-name="Path 5841" d="M6.287 0a6.2 6.2 0 106.116 6.287A6.2 6.2 0 006.287 0" fill="#d45348"/></g></g></g><g data-name="Group 8517"><g data-name="Group 8516"><g data-name="Group 8515" clip-path="url(#cj)" transform="translate(6.126 6.126)"><path data-name="Path 5842" d="M6.21 0a6.125 6.125 0 106.04 6.209A6.126 6.126 0 006.21 0" fill="#d45247"/></g></g></g></g></g></g><path data-name="Path 5843" d="M143.015 55.828c-3.2-1.151-7.062 1.736-8.631 6.448s-.248 9.465 2.95 10.616 7.062-1.736 8.63-6.447.248-9.465-2.95-10.616" fill="#e5a185"/><path data-name="Path 5844" d="M143.353 66.953a7.262 7.262 0 01-8.8-.618 31.612 31.612 0 01-6.5 19.156c-4.577 6.154-14.453 8.177-21.786 7.9-17.495-.669-22.089-6.023-25.675-13.246 2.455 7.919 8.5 15.256 22.256 16.217 25.491 1.781 32.525-8.842 33.537-23.958a4.315 4.315 0 00.946.49c3.2 1.151 7.062-1.736 8.63-6.448a12.7 12.7 0 00.651-3.587 7.908 7.908 0 01-3.26 4.1" fill="#d78c74"/><path data-name="Path 5845" d="M137.715 64.377l2.926.423a6.549 6.549 0 013.406-6.148c-5.558-2.015-6.332 5.725-6.332 5.725" fill="#d78c74"/><path data-name="Path 5846" d="M122.86 52.688c-6.509-.51-8.869 5.643-8.869 5.643s1.056 4.085 7.9 4.18c7.915.109 7.975-3.683 7.975-3.683s-.495-5.63-7-6.14" fill="#fff"/><path data-name="Path 5847" d="M85.262 56.54s-1.029 3.821 5.907 4.181 7.558-1.812 7.558-1.812-6.608-12.68-13.465-2.368" fill="#fff"/></g></g><g data-name="Group 8524"><g data-name="Group 8523" clip-path="url(#ck)" transform="translate(90.166 54.294)"><path data-name="Rectangle 2911" transform="rotate(-69.444 3.011 4.457)" fill="url(#a)" d="M0 0h8.346v8.278H0z"/></g></g><g data-name="Group 8529"><g data-name="Group 8528"><g data-name="Group 8527" clip-path="url(#d)"><g data-name="Group 8526" opacity=".8"><g data-name="Group 8525" clip-path="url(#cl)" transform="translate(89.612 56.481)"><path data-name="Path 5849" d="M.001 1.808l.225.985s4.116-.321 3.723-2.19-3.948 1.2-3.948 1.2" fill="#fff"/></g></g></g></g></g><g data-name="Group 8531"><g data-name="Group 8530" clip-path="url(#cm)" transform="translate(118.098 54.679)"><path data-name="Rectangle 2914" transform="rotate(-71.742 3.634 5.26)" fill="url(#cn)" d="M0 0h9.472v8.621H0z"/></g></g><g data-name="Group 8581"><g data-name="Group 8580" clip-path="url(#d)"><g data-name="Group 8534"><g data-name="Group 8533" opacity=".8"><g data-name="Group 8532" clip-path="url(#co)" transform="translate(117.416 57.684)"><path data-name="Path 5851" d="M.102 1.632l-.1 1.028S4.31 2.501 3.916.632s-3.812 1-3.812 1" fill="#fff"/></g></g></g><path data-name="Path 5852" d="M91.599 50.786c-5.166-.006-6.337 5.754-6.337 5.754a7.848 7.848 0 016.005-2.946c4.245 0 7.46 5.315 7.46 5.315s-.369-8.115-7.128-8.122" fill="#381911"/><path data-name="Path 5853" d="M87.455 43.283l.429 2.418c4.805-2.834 15.165-3.746 15.165-3.746l.364-5.948c-11.566.963-15.953 7.28-15.953 7.28" fill="#422e26"/><path data-name="Path 5854" d="M114.762 36.923l-1.312 5.28s12.171 2.471 16.049 5.455l.939-2.293s-4.44-6.734-15.676-8.442" fill="#422e26"/><path data-name="Path 5855" d="M122.262 51.852a7.727 7.727 0 00-8.271 6.481s1.982-4.167 8.433-3.562 7.436 4.28 7.436 4.28-.306-6.9-7.6-7.2" fill="#381911"/><path data-name="Path 5856" d="M107.205 75.352c-12.271.186-13.709-2.5-13.709-2.5s-2.709 11.06 12.2 11.169c14.246.1 12.967-10.457 12.874-10.98.029.241-.1 2.139-11.368 2.31" fill="#6c332e"/><path data-name="Path 5857" d="M118.568 73.015v.025a.19.19 0 000-.025" fill="#6c332e"/><path data-name="Path 5858" d="M107.205 75.351c-5.723.087-9.087-.451-11.051-1.049-1.1 3.026 3.545 6.009 9.414 6.051 6.184.045 11.17-2.807 10.224-5.753a44.194 44.194 0 01-8.587.751" fill="#fff"/><g data-name="Group 8537"><g data-name="Group 8536" opacity=".28"><g data-name="Group 8535" clip-path="url(#cp)" transform="translate(95.993 74.302)"><path data-name="Path 5859" d="M11.212 1.049C5.489 1.136 2.125.598.161 0a2.856 2.856 0 00.642 2.884c5.077-2.425 11.2-1 16.364.815a7.144 7.144 0 01.682.291c1.576-1.037 2.38-2.353 1.95-3.692a44.194 44.194 0 01-8.587.751" fill="#d6c0ba"/></g></g></g><path data-name="Path 5860" d="M102.716 62.192s-4.593-3.366-6.242 2.5 10.035 9.386 13.267 3.265-5.11-17.585-5.11-17.585 1.63 7.048-1.915 11.823" fill="#e5a185"/><g data-name="Group 8540"><g data-name="Group 8539" opacity=".2"><g data-name="Group 8538" clip-path="url(#cq)" transform="translate(96.594 53.688)"><path data-name="Path 5861" d="M6.123 8.505s-4.46-3.167-6.122 2.1a41.711 41.711 0 007.3 1.133A31.945 31.945 0 009.391.282c-.332-.094-.665-.185-1-.282A13.305 13.305 0 016.12 8.5" fill="#fff"/></g></g></g><path data-name="Path 5862" d="M110.248 10.955c-32.412 2.149-27.7 38.074-27.7 38.074 1.929-10.684 8.6-23.932 13.709-24.2a19.471 19.471 0 0011.069 3.761c5.936.12 14.168-4.2 14.168-4.2 5.923-.138 12.7 18.2 13.489 32.972.181 3.38 3.118-.522 3.118-.522s3.907-47.995-27.854-45.889" fill="#4f372d"/><path data-name="Path 5863" d="M127.191 13.752C117.607-.873 86.378 3.374 86.378 3.374c-3.029 16.6 8.574 20.336 8.574 20.336s27.038-4.819 31.128-1.931 12.08 26.092 12.08 26.092 6.913-24.22 1.816-33.128c-3.741-6.539-12.785-.99-12.785-.99" fill="#4f372d"/><path data-name="Path 5864" d="M98.458 0a9.009 9.009 0 002.007 4.431s32.747 22.248 26.726 9.322S98.458 0 98.458 0" fill="#4f372d"/><path data-name="Path 5865" d="M132.497 9.304c-1.844.285-2.276 1.157-2.276 1.157 1.327-2.423.412-5.724.412-5.724-3.6 2.061-3.242 4.935-3.242 4.935-1.763-3.694-7.193-4.841-7.193-4.841.175 3.052 3.432 6.167 3.608 6.261l2.818 4.3 5.841-.919-.576-2.606a3.2 3.2 0 00.608-2.558" fill="#4f372d"/><path data-name="Path 5866" d="M87.254 16.003c-9.524 2.9-6.766 40.836-6.766 40.836 1.929-10.684 10.667-31.744 15.771-32.006a33.653 33.653 0 01-9.005-8.83" fill="#422e26"/><g data-name="Group 8543"><g data-name="Group 8542" opacity=".12"><g data-name="Group 8541" clip-path="url(#cr)" transform="translate(124.312 13.472)"><path data-name="Path 5867" d="M0 .003h.005c.015 0 .051-.006-.005 0" fill="#fff"/></g></g></g><g data-name="Group 8546"><g data-name="Group 8545" opacity=".12"><g data-name="Group 8544" clip-path="url(#cs)" transform="translate(124.312 13.486)"><path data-name="Path 5868" d="M.007 0z" fill="#fff"/></g></g></g><g data-name="Group 8549"><g data-name="Group 8548" opacity=".11"><g data-name="Group 8547" clip-path="url(#ct)" transform="translate(85.913 4.31)"><path data-name="Path 5870" d="M50.375 7.49c-1.167.185-2.4.475-3.669.765a26.5 26.5 0 01-9.325.737c-3.609-.485-6.777-2.1-9.982-3.718-1.618-.818-3.232-1.649-4.9-2.364C18.928 1.38 14.717-.122 10.78.01a16.519 16.519 0 00-5.65 1.393 12.19 12.19 0 00-4.035 2.7 11.343 11.343 0 00-1.1 1.282 20.155 20.155 0 00.47 3.569c.123-.1.25-.2.387-.31a12.084 12.084 0 012.411-1.373 10.7 10.7 0 013.226-.819c4.684-.359 9.033 1.521 13.262 3.268 1.732.715 3.492 1.548 5.355 2.32a57.909 57.909 0 005.82 2.162 20.692 20.692 0 0011.051.392c.469-.13.934-.239 1.385-.378a31.45 31.45 0 004.71-1.994c1.354-.7 2.513-1.333 3.535-1.812a12.823 12.823 0 011.918-.767 5.78 5.78 0 00-3.156-2.148" fill="#e5912f"/></g></g></g><g data-name="Group 8552"><g data-name="Group 8551" opacity=".12"><g data-name="Group 8550" clip-path="url(#cu)" transform="translate(124.243 13.476)"><path data-name="Path 5871" d="M0 .002h.021z" fill="#fff"/></g></g></g><path data-name="Path 5872" d="M134.954 56.84c-1.544 16.3-13.9 16.3-13.9 16.3s2.773 13.084-14.983 12.925c-18.368-.164-15.9-13.028-15.9-13.028-9.941-1.163-9.679-16.2-9.679-16.2-3.917 15.917-6.166 41.365 27.317 40.83s28.952-25.7 28.952-25.7c-1.606-5.643 1.347-15.127 1.347-15.127z" fill="#4f372d"/><path data-name="Path 5873" d="M103.833 67.959a27.394 27.394 0 00-10.774 1.338c-6.156 1.86-8.574.75-8.574.75s1.547 4.872 20.638 5.309c16.23.372 21.529-2.966 21.529-2.966s-7.592-4.718-22.819-4.431" fill="#4f372d"/><path data-name="Path 5874" d="M103.833 67.959a27.394 27.394 0 00-10.774 1.338c-6.156 1.86-8.574.75-8.574.75s1.547 4.872 20.638 5.309c16.23.372 21.529-2.966 21.529-2.966s-7.592-4.718-22.819-4.431" fill="#4f372d"/><path data-name="Path 5875" d="M96.354 66.327c.669 4.818 10.47 7.151 13.387 1.627a6 6 0 00.426-1.058 29.112 29.112 0 01-13.813-.569" fill="#d78c74"/><g data-name="Group 8555"><g data-name="Group 8554" opacity=".16"><g data-name="Group 8553" clip-path="url(#cv)" transform="translate(100.689 88.019)"><path data-name="Path 5876" d="M2.231.041a1.843 1.843 0 00-2.222 1.97c.14 1.282 1.188 2.6 4.868 2.65 3.221.048 4.512-.867 4.952-1.9A1.852 1.852 0 007.882.241a17.616 17.616 0 01-5.651-.2"/></g></g></g><path data-name="Path 5877" d="M123.982 244.678l-8.533 14.029h8.081l7.9-14.029z" fill="#3d4041"/><path data-name="Path 5878" d="M63.092 244.284a62.465 62.465 0 00-.573 14.423h78.055l.386-16.472z" fill="#363c42"/><path data-name="Path 5879" d="M61.038 258.707h6.577l-6.479-2.211c-.025.459-.06 1.205-.1 2.211" fill="#363c42"/><path data-name="Path 5880" d="M140.446 253.685l-32.04 4.661c-.026.09-.057.219-.088.365h33.644c.063-3.335-.313-5.092-1.516-5.026" fill="#363c42"/><path data-name="Path 5881" d="M81.372 106.413v17.067h50.716v-18.768c-15.208-4.5-35.991-4.455-50.715 1.7" fill="#d78c74"/><path data-name="Path 5882" d="M137.908 114.715c-3.857-1.841-7.809-3.453-11.778-5.035-4.443 3.795-12.512 4.862-21.134 5-10.878.177-15.817-2.171-17.736-10.519-3.606.623-12.8 3.551-17.894 6.813v146.955c1.166.261 2.42.522 3.738.777h57.93a112.55 112.55 0 006.874-1.551z" fill="#dfe5ea"/><path data-name="Path 5883" d="M99.45 118.663c-.462-2.279-7.327-8.864-8.779-15.183-6.527 0-19.541 5.309-23.523 9.2-8.521 8.328-8.622 28.762-9.433 58.459-.857 31.4-.88 28.85-4.818 87.567h39.34c-1.606-46.845 6.556-133.291 7.213-140.043" fill="#6d7db3"/><path data-name="Path 5884" d="M150.855 217.257c-1.075-31.008 1.321-66.128 1.373-86.143 0-2.873.522-22.606-18.62-26.577-1.319-.378-7.382-1.968-8.789-2.336-1.261 7.512-4.313 6-13.283 15.941-.832 8.341-7.2 74.025-6.424 140.565h48.152s-1.682-20.5-2.409-41.449" fill="#6d7db3"/><g data-name="Group 8558"><g data-name="Group 8557" opacity=".08"><g data-name="Group 8556" clip-path="url(#cw)" transform="translate(85.714 103.831)"><path data-name="Path 5885" d="M1.472.014s-3.305 14.886-.01 21.362c0 0 .848-9.31 4.944-7.691 2.721 1.075 5.389 4.947 6.9 7.368.2-3.241.354-5.414.432-6.221-.448-2.208-6.895-8.461-8.615-14.6A19.278 19.278 0 001.477.011" fill="#002a3d"/></g></g></g><path data-name="Path 5886" d="M85.353 204.434c1.866-40.06 8.032-87.038 8.887-93.418a42.83 42.83 0 01-.538-.819l-2.571-.352c-.07.51-7.008 51.432-9.012 94.438-1.088 23.358-1 42.11-.689 54.427h3.239c-.312-12.241-.4-30.943.685-54.276" fill="#7588bc"/><path data-name="Path 5887" d="M115.817 204.675c.1-44.929 5.417-92.908 5.47-93.387l-1.959-.22c-.434.359-.9.749-1.4 1.174-.853 8.035-5.256 51.48-5.35 92.425-.053 23.292.66 41.613 1.373 54.039h3.244c-.714-12.367-1.431-30.685-1.378-54.032" fill="#7588bc"/><g data-name="Group 8561"><g data-name="Group 8560" opacity=".08"><g data-name="Group 8559" clip-path="url(#cx)" transform="translate(110.78 103.833)"><path data-name="Path 5888" d="M16.324.012a18.382 18.382 0 00-2.565.09c-1.419 5.963-4.634 5.276-13 14.546-.1 1-.552 4.185-.757 8 2.751-2.875 9.1-8.059 11.39-8.965 4.1-1.619 4.944 7.691 4.944 7.691 3.3-6.476-.01-21.361-.01-21.362z" fill="#002a3d"/></g></g></g><path data-name="Path 5889" d="M63.862 133.375l-1.641 3.412 28.223-4.748-.522-3.2z" fill="#7588bc"/><path data-name="Path 5890" d="M94.592 97.075s-3.368 1.248-7.821 7.326-.4 18.647-.4 18.647.675-2.968 2.162-7.941c2.187-7.308 10.919 3.556 10.919 3.556a41.724 41.724 0 00-2.556-8.29c-2.7-6.08-2.3-13.3-2.3-13.3" fill="#7588bc"/><path data-name="Path 5891" d="M91.255 175.076a1.937 1.937 0 102.169 1.922 2.057 2.057 0 00-2.169-1.922" fill="#b0b5c1"/><path data-name="Path 5892" d="M93.43 148.996a1.937 1.937 0 102.169 1.922 2.057 2.057 0 00-2.169-1.922" fill="#b0b5c1"/><path data-name="Path 5893" d="M88.826 202.046a1.937 1.937 0 102.169 1.922 2.057 2.057 0 00-2.169-1.922" fill="#b0b5c1"/><path data-name="Path 5894" d="M88.017 224.714a1.937 1.937 0 102.169 1.922 2.057 2.057 0 00-2.169-1.922" fill="#b0b5c1"/><path data-name="Path 5895" d="M88.017 248.191a1.937 1.937 0 102.169 1.922 2.057 2.057 0 00-2.169-1.922" fill="#b0b5c1"/><path data-name="Path 5896" d="M95.303 125.954a1.937 1.937 0 102.169 1.922 2.057 2.057 0 00-2.169-1.922" fill="#b0b5c1"/><path data-name="Path 5897" d="M120.272 98.106s.232 2.6-2.467 8.683c-1.777 4.005-5.667 6.881-6.3 12 0 0 12.066-10.991 14.253-3.683 1.487 4.973 2.162 7.941 2.162 7.941s4.048-12.569-.4-18.647-7.247-6.294-7.247-6.294" fill="#7588bc"/><path data-name="Path 5898" d="M37.336 135.23c-17.323-9.891-17.839 3.83-17.839 3.83s-5.662 1.019-8.889 18.5c-4.709 25.519 23.271 28.546 30.545 15.343 7.264-13.183 3.25-33.637-3.817-37.672" fill="#b6bdce"/><g data-name="Group 8564"><g data-name="Group 8563" opacity=".12"><g data-name="Group 8562" clip-path="url(#cy)" transform="translate(89.941 97.074)"><path data-name="Path 5899" d="M4.651.001a10.2 10.2 0 00-2.254 1.4c-3.226 3.076-2.711 9.287-1.27 14.131 3.38-.147 8.38 6.058 8.38 6.058a41.723 41.723 0 00-2.556-8.29C4.251 7.22 4.651 0 4.651 0" fill="#fff"/></g></g></g><g data-name="Group 8567"><g data-name="Group 8566" opacity=".12"><g data-name="Group 8565" clip-path="url(#cz)" transform="translate(111.509 98.106)"><path data-name="Path 5900" d="M8.763 0s.232 2.6-2.467 8.683c-1.777 4.005-5.667 6.881-6.3 12 0 0 6.987-6.36 11.291-6.179.8-5.076.843-10.2-2.46-14.494l-.068-.011" fill="#fff"/></g></g></g><path data-name="Path 5901" d="M37.627 136.998c-1.263-8.552-6.174-24.9-5.654-38.892 0 0-11.419 7.136-17.32 7.526 4.988 12.98-.933 30.017-1.234 43.427-.194 8.651-.864 25.893 10.37 28.332a13.258 13.258 0 0013.064-5.131c3.02-3.917 3.346-9.013 3.2-13.771-.217-7.239-1.374-14.344-2.429-21.492" fill="#e5a185"/><g data-name="Group 8570"><g data-name="Group 8569" opacity=".65"><g data-name="Group 8568" clip-path="url(#cA)" transform="translate(14.654 98.106)"><path data-name="Path 5902" d="M17.32 0S5.901 7.136 0 7.526a33.04 33.04 0 011.974 11.153c.026-.073.048-.146.079-.219 1.918-4.6 5.4-8.509 10.664-8.872a8.6 8.6 0 015.088 1.161 73.186 73.186 0 01-.483-10.75" fill="#d58a73"/></g></g></g><path data-name="Path 5903" d="M58.862 141.045c-.628 8.543-.836 18.624-1.15 30.095l-.163 5.886c3.894-49.951 13.332-65.414 16.543-69.157-3.177.855-4.294 1.476-5.759 2.708-2.751 5.357-6.645 15.836-9.472 30.468" fill="#7588bc"/><path data-name="Path 5904" d="M62.038 173.881a5.036 5.036 0 002.4 4.667l4.642 2.836a3.967 3.967 0 004.193-.036l6.033-3.827a4.881 4.881 0 002.252-3.751l1.447-19h-19.56z" fill="#7588bc"/><path data-name="Path 5905" d="M121.175 156.946v18.856a5.55 5.55 0 002.351 4.536l3.947 2.784a5.761 5.761 0 006.963-.245l5.8-4.731a6.972 6.972 0 002.56-5.634l-.521-15.566z" fill="#7588bc"/><path data-name="Path 5906" d="M158.123 257.193s-.345.571-.89 1.514h15.324c-5.316-2.065-14.435-1.514-14.435-1.514" fill="#e19d81"/><path data-name="Path 5907" d="M180.87 193.406c-3.474-59.793-22.816-78.622-35.708-85.033-.833 8.875-4.206 17.835-6.2 26.2l-1.152 4.837c5.7 12.124 15.691 38.373 15.944 55.987.35 24.342 8.65 25.6 2.7 63.308h18.912c2.552-16.52 6.877-41.605 5.5-65.3" fill="#e19d81"/><path data-name="Path 5908" d="M156.039 116.313c-1.14 4.848-3 9.672-4.523 14.281-2.514 7.612-5.192 15.166-7.882 22.717 4.937 13.02 9.942 29.687 10.121 42.088.019 1.31.061 2.551.123 3.736a18.058 18.058 0 0115.271-4.38 16.526 16.526 0 0111.967 9.52c.028-3.632-.037-7.266-.246-10.869-2.578-44.374-13.9-66.174-24.83-77.093" fill="#d58a73"/><path data-name="Path 5909" d="M133.434 104.475L134 136.79c4.5 8.845 16.074 31.1 18.9 49.317a118.542 118.542 0 0113.865-2.059c4.437-.381 8.89-.528 13.348-.534-7.576-80.075-45.827-77.368-46.678-79.04" fill="#6d7db3"/><path data-name="Path 5910" d="M136.267 105.26a17.414 17.414 0 00-4.82-1.311c3.071 3.053 8.9 11.642 10.584 20.958 1.883 10.409 3.967 31.526 5.087 43.112 1.319 3.475 2.368 4.059 3.391 7.59l.449-.038.056-1.994c-.678-7.582-3.246-35.269-5.776-49.252-1.733-9.584-5.6-15.532-8.971-19.067" fill="#7588bc"/><path data-name="Path 5911" d="M147.118 168.02c-.573 3.812.486 10.737 2.031 19.3 1.326 7.345 4.659 10.2 4.659 10.2 8.4-8 26.864-7.24 26.864-7.24a4.261 4.261 0 002.535-2.905c.363-5.162-2.535-26.262-2.535-26.262-4.166-6.43-32.691 1.177-33.554 6.908" fill="#b6bdce"/><path data-name="Path 5912" d="M117.621 131.379l26.014 6.007 1.152-3.292-26.509-5.886z" fill="#7588bc"/><path data-name="Path 5913" d="M33.666 72.808c-1.922 1.42-3.12 4.7-3.12 4.7l-2.389.539s-15.048-8.009-17.794-9.988-4.8-3.014-6.611-.459 2.957 11.881 2.957 11.881a5.387 5.387 0 00-2.6 1.616 6.688 6.688 0 00-1.728 5.163c-2.507.258-2.608 2.788-.788 7.084s7.152 13.944 15.234 14.846 9.069-5.925 9.069-5.925a43.636 43.636 0 014-2.16c3.924-1.975 3.8-6.437 4.21-9.836.466-3.817 2.619-6.665 2.936-8.669s.274-5.337.926-6.372.981-1.507.275-2.632-2.631-1.224-4.583.216" fill="#e5a185"/><g data-name="Group 8573"><g data-name="Group 8572" opacity=".65"><g data-name="Group 8571" clip-path="url(#cB)" transform="translate(.351 66.08)"><path data-name="Path 5914" d="M33.315 6.728c-1.922 1.42-3.12 4.7-3.12 4.7l-2.389.539S12.758 3.958 10.012 1.979s-4.8-3.014-6.611-.459 2.957 11.881 2.957 11.881a5.387 5.387 0 00-2.6 1.616A6.688 6.688 0 002.03 20.18c-2.507.258-2.608 2.788-.788 7.084S8.394 41.208 16.476 42.11s9.069-5.925 9.069-5.925a43.636 43.636 0 014-2.16c3.924-1.975 3.8-6.437 4.21-9.836.466-3.817 2.619-6.665 2.936-8.669s.274-5.337.926-6.372.981-1.507.275-2.632-2.631-1.224-4.583.216" fill="#d58a73"/></g></g></g><path data-name="Path 5915" d="M12.315 51.347l.359-.979h-1.783a1.764 1.764 0 00-1.759 1.759v41.25a1.764 1.764 0 001.759 1.759H29.62a1.764 1.764 0 001.759-1.759v-41.25a1.732 1.732 0 00-.192-.78z" fill="#505356"/><path data-name="Rectangle 2928" fill="#696d70" d="M9.128 54.85h22.251v1.303H9.128z"/><path data-name="Rectangle 2929" fill="#696d70" d="M9.128 87.861h22.251v1.078H9.128z"/><path data-name="Path 5916" d="M31.237 95.136H12.508a1.764 1.764 0 01-1.759-1.759v-41.25a1.764 1.764 0 011.759-1.759h18.729a1.764 1.764 0 011.759 1.759v41.25a1.764 1.764 0 01-1.759 1.759" fill="#d3dce0"/><path data-name="Rectangle 2930" fill="#6db1b2" d="M12.045 53.593h19.65v35.076h-19.65z"/><g data-name="Group 8576"><g data-name="Group 8575" opacity=".15"><g data-name="Group 8574" clip-path="url(#cC)" transform="translate(10.745 50.368)"><path data-name="Path 5917" d="M22.251 9.349v-7.59A1.764 1.764 0 0020.492 0h-2.771L0 14.369v12.527S21.937 9.351 22.251 9.348" fill="#fff"/></g></g></g><g data-name="Group 8579"><g data-name="Group 8578" opacity=".15"><g data-name="Group 8577" clip-path="url(#cD)" transform="translate(10.745 67.998)"><path data-name="Path 5918" d="M1.763 27.138h.054l20.438-18.1V.001L0 17.431v7.945a1.764 1.764 0 001.759 1.759" fill="#fff"/></g></g></g><path data-name="Path 5919" d="M14.293 79.661c-.675-.5-1.23-.428-2.918-.5a37.578 37.578 0 00-4.666.311c-5.626 1.918-3.456 6.326.139 6.12a18.016 18.016 0 006.856-2.171 2.554 2.554 0 00.59-3.765" fill="#e5a185"/><path data-name="Path 5920" d="M10.621 88.56c-2.495-.013-8.025-2.281-8.025-2.281-4.927.3-1.326 6.255-1.326 6.255 1.513.2 8.631 1.482 10.826-.347 1.776-1.479 1.021-3.614-1.474-3.627" fill="#e5a185"/><path data-name="Path 5921" d="M9.257 64.553c-.953-.327-1.26.024-3.491.924a3.964 3.964 0 00-2.392 3.225c-.516 1.274.658 3.956 2.68 3.269a5.881 5.881 0 003.782-3.7c.687-1.749.375-3.39-.579-3.717" fill="#e5a185"/><path data-name="Path 5922" d="M23.989 91.93a1.87 1.87 0 11-1.8-2.01 1.906 1.906 0 011.8 2.01z" fill="none" stroke="#e4edef" stroke-miterlimit="10"/><path data-name="Path 5923" d="M24.419 52.829h-5.12a.337.337 0 010-.674h5.12a.337.337 0 010 .674" fill="#c0cbce"/></g></g></g></g></g></g></g></svg>