<svg xmlns="http://www.w3.org/2000/svg" xmlns:xlink="http://www.w3.org/1999/xlink" width="305" height="227" viewBox="0 0 305 227"><defs><clipPath id="a"><rect width="305" height="227" transform="translate(925 125)" fill="#fff"/></clipPath><clipPath id="b"><rect width="184.775" height="223.52" fill="none"/></clipPath><clipPath id="d"><rect width="153.427" height="40.868" fill="none"/></clipPath><clipPath id="e"><rect width="27.015" height="63.38" fill="none"/></clipPath><clipPath id="f"><rect width="21.222" height="53.194" fill="none"/></clipPath><clipPath id="g"><rect width="18.161" height="6.937" fill="none"/></clipPath><clipPath id="h"><rect width="13.207" height="3.71" fill="none"/></clipPath><clipPath id="i"><rect width="47.196" height="46.373" fill="none"/></clipPath><clipPath id="j"><rect width="110.263" height="72.522" fill="none"/></clipPath><clipPath id="k"><rect width="7.958" height="4.181" fill="none"/></clipPath><clipPath id="l"><rect width="44.142" height="24.167" fill="none"/></clipPath><clipPath id="m"><rect width="14.681" height="37.823" fill="none"/></clipPath><clipPath id="n"><rect width="15.912" height="8.541" fill="none"/></clipPath><clipPath id="o"><rect width="15.996" height="8.541" fill="none"/></clipPath><clipPath id="p"><rect width="92.782" height="61.271" fill="none"/></clipPath><clipPath id="q"><rect width="43.944" height="19.086" fill="none"/></clipPath><clipPath id="r"><rect width="13.255" height="9.06" fill="none"/></clipPath><clipPath id="s"><rect width="4.035" height="4.31" fill="none"/></clipPath><clipPath id="t"><rect width="14.966" height="11.102" fill="none"/></clipPath><clipPath id="u"><rect width="54.239" height="54.24" fill="none"/></clipPath><clipPath id="v"><rect width="10.95" height="13.67" fill="none"/></clipPath><clipPath id="x"><rect width="6.569" height="14.088" fill="none"/></clipPath><clipPath id="y"><rect width="14.276" height="4.902" fill="none"/></clipPath><clipPath id="z"><rect width="30.881" height="23.157" fill="none"/></clipPath><clipPath id="aa"><rect width="3.904" height="9.054" fill="none"/></clipPath><clipPath id="ab"><rect width="6.708" height="16.483" fill="none"/></clipPath><clipPath id="ac"><rect width="3.437" height="5.143" fill="none"/></clipPath><clipPath id="ad"><rect width="1.553" height="2.271" fill="none"/></clipPath><clipPath id="af"><rect width="1.345" height="1.966" fill="none"/></clipPath><clipPath id="ag"><rect width="1.177" height="1.721" fill="none"/></clipPath><clipPath id="ah"><rect width="3.905" height="9.054" fill="none"/></clipPath><clipPath id="aj"><rect width="4.779" height="8.705" fill="none"/></clipPath><clipPath id="al"><rect width="47.612" height="47.651" fill="none"/></clipPath><clipPath id="am"><rect width="16.388" height="32.221" fill="none"/></clipPath><clipPath id="an"><rect width="23.015" height="8.029" fill="none"/></clipPath><clipPath id="ao"><rect width="28.494" height="48.888" fill="none"/></clipPath><clipPath id="ap"><rect width="8.332" height="4.579" fill="none"/></clipPath><clipPath id="aq"><rect width="10.302" height="6.063" fill="none"/></clipPath><clipPath id="ar"><rect width="11.737" height="7.479" fill="none"/></clipPath><clipPath id="as"><rect width="11.419" height="6.895" fill="none"/></clipPath></defs><g transform="translate(-925 -125)" clip-path="url(#a)"><g transform="translate(971.999 124.584)"><g clip-path="url(#b)"><g transform="translate(0 0)"><g clip-path="url(#b)"><g transform="translate(31.348 182.652)" opacity="0.15"><g clip-path="url(#d)"><path d="M400.225,1458.428c0,11.285-34.346,20.434-76.713,20.434s-76.714-9.148-76.714-20.434,34.346-20.434,76.714-20.434,76.713,9.149,76.713,20.434" transform="translate(-246.798 -1437.994)"/></g></g><path d="M893.47,1150.211s2.827,17.992,0,42.593c0,0-.353,3.3,3.887,6.242s5.478,6.426,1.414,7.894-10.6.367-11.662-1.836.707-3.672-4.594-5.875c0,0-2.562-1.01-.177-6.242,0,0-2.518-28.823-7.421-42.593s18.553-.184,18.553-.184" transform="translate(-763.197 -998.889)" fill="#ce9065"/><path d="M625.134,1150.211s-2.827,17.992,0,42.593c0,0,.353,3.3-3.888,6.242s-5.478,6.426-1.413,7.894,10.6.367,11.662-1.836-.707-3.672,4.594-5.875c0,0,2.562-1.01.177-6.242,0,0,2.518-28.823,7.421-42.593s-18.553-.184-18.553-.184" transform="translate(-538.932 -998.889)" fill="#ce9065"/><g transform="translate(111.047 145.339)" opacity="0.37" style="mix-blend-mode:soft-light;isolation:isolate"><g clip-path="url(#e)"><path d="M874.929,1150.394c4.9,13.772,7.421,42.593,7.421,42.593-2.389,5.234.174,6.242.174,6.242,5.3,2.2,3.534,3.672,4.594,5.875s7.6,3.3,11.662,1.836c1.706-.617,2.483-1.586,2.488-2.727a17.865,17.865,0,0,1-6.639.436c-4.948-.646-10.074-7.07-7.421-8.078a38.06,38.06,0,0,1,6.714-1.518,5.067,5.067,0,0,1-.443-2.247q.417-3.635.679-7.069c-3.859,3.1-7.04,1.929-7.04,1.929l-2.648-27.906c5.231.994,8.251,1.16,9.994,1.008-.372-6.653-.985-10.555-.985-10.555s-23.456-13.586-18.551.181" transform="translate(-874.255 -1144.228)"/></g></g><g transform="translate(84.208 145.339)" opacity="0.37" style="mix-blend-mode:soft-light;isolation:isolate"><g clip-path="url(#f)"><path d="M668.56,1163.338c3.887-1.562,9.98-4.313,9.98-4.313l.989,7.8a109.382,109.382,0,0,1,3.977-16.435c4.9-13.767-18.556-.181-18.556-.181s-2.827,17.992,0,42.593a6.388,6.388,0,0,1-1.993,4.617c3.694-.162,10.159-.769,13.7-2.986a14.247,14.247,0,0,0-.575-1.449s.174-1.968.514-5.116c-13.585,1.983-8.039-24.533-8.039-24.533" transform="translate(-662.957 -1144.228)"/></g></g><g transform="translate(80.184 197.686)" opacity="0.37" style="mix-blend-mode:soft-light;isolation:isolate"><g clip-path="url(#g)"><path d="M639.135,1561.941c2.62.181,4.118.715,4.948,1.346.189-1.425.24-2.654,4.165-4.284,0,0,1.282-.5,1.183-2.654a40.745,40.745,0,0,1-9.942,3.941,22.839,22.839,0,0,1-7.666-.22c-.193.172-.377.348-.547.529a35.831,35.831,0,0,0,7.86,1.341" transform="translate(-631.276 -1556.35)"/></g></g><g transform="translate(78.418 205.01)" opacity="0.37" style="mix-blend-mode:soft-light;isolation:isolate"><g clip-path="url(#h)"><path d="M619.855,1617.051c3.4,1.229,8.515.661,10.724-.842-3.284-.636-9.815-1.855-13.189-2.2-.146,1.273.6,2.37,2.464,3.04" transform="translate(-617.373 -1614.011)"/></g></g><path d="M660.677,1473.577a9.88,9.88,0,0,0,12.192,1.01l.265-2.019s3.4,2.295,1.281,5.416-12.722,2.983-14.8.092.221-5.508,1.016-6.334Z" transform="translate(-575.094 -1284.802)" fill="#f9c023"/><path d="M666.7,957.888c16.082-1.1,22.443-11.383,22.443-11.383,12.9,11.75,25.53,7.069,25.53,7.069-.655-6.071-1.338-11.314-1.988-15.764a183.4,183.4,0,0,0-3.708-19.759,9.866,9.866,0,0,0-4.627-3.765c-6.635-3.143-18.287-4.156-25.61-.137a12.4,12.4,0,0,0-5.282,5.278c-2.36,4.7-3.906,11.481-4.914,18.041a181.207,181.207,0,0,0-1.842,20.42" transform="translate(-582.02 -795.736)" fill="#c43939"/><g transform="translate(84.684 115.78)" opacity="0.37" style="mix-blend-mode:soft-light;isolation:isolate"><g clip-path="url(#i)"><path d="M666.7,957.888c16.082-1.1,22.443-11.383,22.443-11.383,8.2,7.476,16.3,8.3,21.1,7.911-8.778-1.85-11.559-10.712-11.648-11.02,6.272,7.515,12.185,6.413,12.185,6.413-10.348-3.163-12.821-11.216-12.892-11.466a22.907,22.907,0,0,0,16,8.46c-.09-.69-.174-1.366-.255-2.022-14.833-2.188-16.37-10.761-16.37-10.761,5.216,5.145,12.586,6.526,15.856,6.893q-.226-1.616-.443-3.1a183.4,183.4,0,0,0-3.708-19.759,9.866,9.866,0,0,0-4.627-3.765c-6.635-3.143-18.287-4.156-25.61-.137a12.4,12.4,0,0,0-5.282,5.278c-2.36,4.7-3.906,11.481-4.914,18.041-.137.891-.264,1.777-.377,2.654,11.53.059,16.681-5.811,16.987-6.169-3.883,9.351-12.185,11.764-17.689,12.288-.08.8-.146,1.581-.212,2.33,10.517-.02,16.662-9.028,16.85-9.312-4.33,12.846-14.574,13.674-14.574,13.674,6.441.093,13.128-4,13.335-4.127-4.321,6.007-12.4,7.544-16.125,7.936-.028.739-.038,1.146-.038,1.146" transform="translate(-666.704 -911.516)"/></g></g><path d="M92.246,538.638s-12.59,9.225-23.192.138S57.127,520.738,56.2,503.251,43.079,468,25.189,474.474c0,0-6.229-.826-9.939,3.58s-9.144,11.429-15.24,9.5c0,0,2.65,4.682,9.807,4.682,0,0,14.445,4.268,19.879-13.218,0,0,15.9-3.718,19.349,13.218s1.59,68.158,42.805,52.736.4-6.334.4-6.334" transform="translate(-0.008 -413.018)" fill="#af7351"/><g transform="translate(0 62.291)" opacity="0.37" style="mix-blend-mode:soft-light;isolation:isolate"><g clip-path="url(#j)"><path d="M0,502.657s2.653,4.685,9.806,4.685c0,0,14.447,4.269,19.88-13.218,0,0,15.9-3.721,19.347,13.218s1.593,68.158,42.808,52.737.4-6.335.4-6.335a24.716,24.716,0,0,1-6.767,3.236c-2.158,2.237-6.559,4.871-14.216,1.9-11.837-4.592-15.724-20.929-16.61-29.193s-.353-25.517-7.421-31.391-14.843-8.631-17.491-7.711-5.48,12.117-17.5,12.851c0,0,8.661-3.124,10.781-8.631a26.147,26.147,0,0,1-10.427,6.8C6.583,503.44,5.612,505.736,0,502.657" transform="translate(0 -490.414)"/></g></g><path d="M681.209,952.109c13.825-.5,22.674-9.919,22.674-9.919,9.184,9.155,17.312,10.32,21.468,10.262a183.392,183.392,0,0,0-3.708-19.759,9.863,9.863,0,0,0-4.627-3.765l-2.926-.641-22.684.5a12.4,12.4,0,0,0-5.282,5.278c-2.361,4.7-3.906,11.481-4.914,18.041" transform="translate(-594.683 -810.376)" fill="#f77f26"/><g transform="translate(87.497 132.093)" opacity="0.37" style="mix-blend-mode:soft-light;isolation:isolate"><g clip-path="url(#k)"><path d="M696.81,1039.947c-.49.328-2.893,1.748-7.355,1.43-.217.9-.415,1.821-.6,2.751a24.354,24.354,0,0,0,7.958-4.181" transform="translate(-688.851 -1039.947)"/></g></g><g transform="translate(86.526 117.91)" opacity="0.37" style="mix-blend-mode:soft-light;isolation:isolate"><g clip-path="url(#l)"><path d="M681.209,952.109c13.825-.5,22.674-9.919,22.674-9.919,9.184,9.155,17.312,10.32,21.468,10.262-.066-.436-.127-.867-.188-1.288-7.808-.3-12.171-7.765-12.308-8a25.018,25.018,0,0,0,11.794,4.71q-.134-.8-.254-1.557c-9.156-.925-11.365-5.909-11.365-5.909a12.718,12.718,0,0,0,9.009-.367c-6.446.367-9.009-2.022-9.009-2.022a27.216,27.216,0,0,0,9.278-2.565c-.415-1.855-.664-2.756-.664-2.756a9.863,9.863,0,0,0-4.627-3.765l-2.926-.641-22.684.5a12.4,12.4,0,0,0-5.282,5.278c-.405.808-.792,1.679-1.15,2.6A28.942,28.942,0,0,0,695.2,938.2s-2.12,2-8.613,1.787a14.643,14.643,0,0,0,7.355.211s-2.172,8.308-12.35,9.547c-.137.788-.264,1.576-.386,2.365m2.728-1.518a18.192,18.192,0,0,0,10.668-7.3c.6,7.642-10.668,7.3-10.668,7.3" transform="translate(-681.209 -928.286)"/></g></g><path d="M809.776,1022.488l3.313,30.568-3.446.275s.8,4.406.53,4.819-9.674-.688-11.4-.688,3.181-37.039,3.181-37.039Z" transform="translate(-696.996 -890.81)" fill="#f77f26"/><g transform="translate(101.413 129.611)" opacity="0.37" style="mix-blend-mode:soft-light;isolation:isolate"><g clip-path="url(#m)"><path d="M798.776,1057.447c.113,0,.255,0,.429.015l2.884-26.084,2.035-.274s-1.338,19.1-1.889,26.6c.589.049,1.211.108,1.838.162l1.2-27.22,2.3-1.376,1.249,28.948a3.2,3.2,0,0,0,1.357-.078c.264-.416-.533-4.822-.533-4.822l-.485-25.424,3.426,25.188.509-.039-3.312-30.569-7.822-2.066s-4.9,37.041-3.181,37.041" transform="translate(-798.41 -1020.406)"/></g></g><path d="M792.951,985.014c0,3.194,3.679,5.783,8.217,5.783s8.217-2.589,8.217-5.783-3.679-5.783-8.217-5.783-8.217,2.589-8.217,5.783" transform="translate(-692.231 -854.85)" fill="#f9c023"/><path d="M820.036,1001.656c0,1.857,2.138,3.362,4.776,3.362s4.776-1.505,4.776-3.362-2.138-3.362-4.776-3.362-4.776,1.505-4.776,3.362" transform="translate(-715.876 -871.492)" fill="#f77f26"/><path d="M931.281,1473.577a9.88,9.88,0,0,1-12.192,1.01l-.265-2.019s-3.4,2.295-1.281,5.416,12.722,2.983,14.8.092-.221-5.508-1.016-6.334Z" transform="translate(-800.39 -1284.802)" fill="#f9c023"/><g transform="translate(83.676 186.94)" opacity="0.37" style="mix-blend-mode:soft-light;isolation:isolate"><g clip-path="url(#n)"><path d="M659.619,1478.083c2.073,2.888,12.675,3.026,14.8-.093a4.233,4.233,0,0,0,.268-.45c-1.9,1.434-5.758,2.135-8.411,1.689a3.988,3.988,0,0,1-3.27-3.491c7.53,2.84,10.494-.793,11.266-2.066a5.515,5.515,0,0,0-1.131-1.1l-.269,2.017a9.874,9.874,0,0,1-12.19-1.008l-.047-1.836c-.792.828-3.091,3.442-1.013,6.335" transform="translate(-658.772 -1471.748)"/></g></g><g transform="translate(116.458 186.94)" opacity="0.37" style="mix-blend-mode:soft-light;isolation:isolate"><g clip-path="url(#o)"><path d="M917.555,1477.989c2.12,3.119,12.722,2.981,14.8.093a4.946,4.946,0,0,0,.5-.871c-2.766,2.218-7.958,2.477-9.824,1.924a4.5,4.5,0,0,1-2.78-2.982c9.174,2.4,11.5-1.674,12.039-3.236a8.426,8.426,0,0,0-.952-1.17l-.047,1.836a9.874,9.874,0,0,1-12.19,1.008l-.264-2.017s-3.4,2.291-1.282,5.415" transform="translate(-916.859 -1471.747)"/></g></g><path d="M550.04,544.1a51.933,51.933,0,0,0-19.362-8.751,47.806,47.806,0,0,0-7.6-1.083,231.176,231.176,0,0,0-29.339.161s-2.906,1.92-7,5.122a124.626,124.626,0,0,0-13.065,11.69,78.215,78.215,0,0,0-5.6,6.488c-4.483,5.862-7.719,12.227-7.642,18.334,0,0,.537,7.9,11.149,11.242a40,40,0,0,0,14.3,1.366,2.169,2.169,0,0,0,1.9,2.538s-1.269.791-1.269,1.349a9.2,9.2,0,0,0,.634,2.06s5.156,1.666,6.424-.871a7.849,7.849,0,0,0,.871-4.6s11.66,7.93,35.29,1.112a173.466,173.466,0,0,0,4.284-30.612s8.882,4.6,16.017,2.7,0-18.241,0-18.241m-61.9,33.835-7.452-6.061-1.387-1.129a27.713,27.713,0,0,1,2.487-3.295,15.571,15.571,0,0,1,3.587-3.138c.038-.026.076-.047.114-.068,0,0,1.9,7.613,3.172,14.113Z" transform="translate(-401.947 -466.068)" fill="#ce9065"/><g transform="translate(58.483 67.813)" opacity="0.37" style="mix-blend-mode:soft-light;isolation:isolate"><g clip-path="url(#p)"><path d="M489.969,552.851c22.386,1.379,34.964-9.8,40.661-16.964.127-.157.245-.313.364-.465-.106-.025-.211-.047-.317-.072a47.8,47.8,0,0,0-7.6-1.083,231.209,231.209,0,0,0-29.339.161s-2.906,1.92-7,5.122a124.642,124.642,0,0,0-13.065,11.69,78.2,78.2,0,0,0-5.6,6.488c-4.483,5.862-7.719,12.227-7.643,18.334,0,0,.537,7.9,11.149,11.242a40.009,40.009,0,0,0,14.3,1.366,2.169,2.169,0,0,0,1.9,2.538s-1.269.791-1.269,1.349a9.2,9.2,0,0,0,.634,2.06s5.156,1.666,6.424-.871a7.848,7.848,0,0,0,.871-4.6s11.66,7.93,35.29,1.112c0,0,.224-.9.567-2.487-43.567,2.884-41.8-35.024-41.8-35.024.495.042.981.076,1.468.106m-8.641,2.986c1.328-.727,2.237-1.188,2.237-1.188s1.666,7.494,1.785,8.091c.013.068-.064.207-.216.4a45.9,45.9,0,0,1-3.794,3.768c-1.573,1.459-3.011,2.728-3.011,2.728l-1.844-1.607s-6.661-1.962-5.409-4.817a9.679,9.679,0,0,1,2.973-2.914,72.444,72.444,0,0,1,7.279-4.462m7.211,21.912v0l3.768,6.314s-2.516-.719-6.052-1.886c-3.489-1.155-7.968-2.741-12-4.513-6.247-2.732-11.415-5.892-10.176-8.51,2.855-6.027,11.58-1.108,11.58-1.108l3.68,2.639a28.613,28.613,0,0,1,2.453-3.24,15.573,15.573,0,0,1,3.587-3.138c.038-.025.076-.047.114-.068,0,0,1.789,7.148,3.049,13.5m62.32-31.572c-5.194.791-14.541-1.759-14.541-1.759l-2.3,15.226s8.882,4.6,16.017,2.7c5.553-1.48,2.466-11.7.82-16.165" transform="translate(-460.43 -533.882)"/></g></g><path d="M711.461,535.35c-.744,9.55-4.445,33.678-21.874,33.81-16.139.127-20.8-20.432-22.069-29.61,4.1-3.2,7-5.122,7-5.122a231.2,231.2,0,0,1,29.339-.161,47.8,47.8,0,0,1,7.6,1.083" transform="translate(-582.731 -466.069)" fill="#f9c023"/><path d="M537.911,683.608a15.573,15.573,0,0,0-3.587,3.138c-1.768-2.191-7.308-8.467-13.716-9.723a78.137,78.137,0,0,1,5.6-6.488c3.506,1.32,8.273,3.9,10.789,8.645Z" transform="translate(-454.482 -585.364)" fill="#f9c023"/><path d="M560.521,849.786a40,40,0,0,1-14.3-1.366c-1.975-7.494,6.682-13.826,9.11-15.429l7.452,6.061c-3.244,4.644-2.258,10.734-2.258,10.734" transform="translate(-476.583 -727.186)" fill="#f9c023"/><g transform="translate(84.787 67.813)" opacity="0.37" style="mix-blend-mode:soft-light;isolation:isolate"><g clip-path="url(#q)"><path d="M711.461,535.35c-.013.173-.03.351-.046.537-5.7,7.169-18.275,18.343-40.661,16.964a64.891,64.891,0,0,1-3.235-13.3c4.1-3.2,7-5.122,7-5.122a231.2,231.2,0,0,1,29.339-.161,47.8,47.8,0,0,1,7.6,1.083" transform="translate(-667.518 -533.882)"/></g></g><g transform="translate(66.127 85.17)" opacity="0.37" style="mix-blend-mode:soft-light;isolation:isolate"><g clip-path="url(#r)"><path d="M526.2,670.534a23.146,23.146,0,0,1,7.659,4.6,72.462,72.462,0,0,0-7.279,4.462,17.193,17.193,0,0,0-5.976-2.572,78.171,78.171,0,0,1,5.6-6.488" transform="translate(-520.609 -670.533)"/></g></g><g transform="translate(79.395 97.072)" opacity="0.37" style="mix-blend-mode:soft-light;isolation:isolate"><g clip-path="url(#s)"><path d="M629.1,765.4a15.576,15.576,0,0,0-3.587,3.138c-.127-.161-.279-.338-.448-.541a45.873,45.873,0,0,0,3.794-3.768Z" transform="translate(-625.063 -764.233)"/></g></g><g transform="translate(69.344 111.6)" opacity="0.37" style="mix-blend-mode:soft-light;isolation:isolate"><g clip-path="url(#t)"><path d="M560.526,889.61a40,40,0,0,1-14.3-1.366c-.952-3.616.571-6.962,2.673-9.634,4.035,1.772,8.514,3.358,12,4.513a17.825,17.825,0,0,0-.372,6.488" transform="translate(-545.932 -878.609)"/></g></g><path d="M643.685,702.065a14.324,14.324,0,0,1-.98-2.484,24.573,24.573,0,0,1-.634-2.551,24.207,24.207,0,0,1-.359-2.6,14.168,14.168,0,0,1-.01-2.671,14.154,14.154,0,0,1,.982,2.484,24.182,24.182,0,0,1,.633,2.551,24.606,24.606,0,0,1,.358,2.6,14.329,14.329,0,0,1,.012,2.671" transform="translate(-560.142 -603.889)" fill="#965e38"/><path d="M561.463,793.992a14.917,14.917,0,0,1-1.885-.923c-.591-.337-1.162-.689-1.722-1.055s-1.111-.737-1.658-1.132-1.1-.784-1.654-1.27a6,6,0,0,1,2.114.385,9.312,9.312,0,0,1,1.891.955,10.254,10.254,0,0,1,1.635,1.329,6.97,6.97,0,0,1,1.279,1.711" transform="translate(-484.107 -689.316)" fill="#965e38"/><path d="M682.7,884.037a15.142,15.142,0,0,1,2.077,2.323,23.069,23.069,0,0,1,1.682,2.6,20.654,20.654,0,0,1,1.3,2.82,11.826,11.826,0,0,1,.728,3.044c-.587-.878-1.11-1.744-1.622-2.619s-1.03-1.742-1.514-2.63-.962-1.782-1.413-2.7a26.587,26.587,0,0,1-1.237-2.838" transform="translate(-595.984 -771.748)" fill="#965e38"/><path d="M613.021,20.521a30.383,30.383,0,1,0,39,18.027,30.38,30.38,0,0,0-39-18.027m19.009,51.7a24.7,24.7,0,1,1,14.662-31.708A24.7,24.7,0,0,1,632.03,72.216" transform="translate(-517.78 -16.276)" fill="#ffce00"/><g transform="translate(78.608 5.64)" opacity="0.37" style="mix-blend-mode:soft-light;isolation:isolate"><g clip-path="url(#u)"><path d="M636.633,46.073A27.113,27.113,0,1,0,671.438,62.16a27.111,27.111,0,0,0-34.805-16.086M654.513,94.7a24.7,24.7,0,1,1,14.662-31.708A24.7,24.7,0,0,1,654.513,94.7" transform="translate(-618.871 -44.4)"/></g></g><path d="M989.666,372.548a10.143,10.143,0,0,1-8.463,6.216s-4.182-4.381-1.7-9.145a10.82,10.82,0,0,1,1.155-3.981,7.334,7.334,0,0,1,5.375-3.993c3.892-.7,5.831,5.7,3.633,10.9" transform="translate(-854.4 -315.665)" fill="#ce9065"/><path d="M996.4,400.976a7.93,7.93,0,0,1-.352-3.236,8.5,8.5,0,0,1,.906-3.206,6.629,6.629,0,0,1,2.244-2.516,6.249,6.249,0,0,1,3.1-1.06,13.919,13.919,0,0,0-2.5,1.82,8.6,8.6,0,0,0-1.747,2.335A13.593,13.593,0,0,0,997,397.9a29.238,29.238,0,0,0-.6,3.076" transform="translate(-869.505 -341.298)" fill="#a8704a"/><g transform="translate(124.315 49.431)" opacity="0.37" style="mix-blend-mode:soft-light;isolation:isolate"><g clip-path="url(#v)"><path d="M982.481,398.073s.87,2.62,4.069,1.179a7.652,7.652,0,0,0,3.116-2.638,10.143,10.143,0,0,1-8.463,6.216s-4.182-4.381-1.7-9.145a10.821,10.821,0,0,1,1.155-3.981,3.049,3.049,0,0,0,.269,2.146c.86.952,2.156-.091,2.156-.091s3.936-3.861,5.721-2.17-2.207,10.254-6.323,8.484" transform="translate(-978.716 -389.161)"/></g></g><path d="M594.1,372.548a10.143,10.143,0,0,0,8.463,6.216s4.182-4.381,1.7-9.145a10.818,10.818,0,0,0-1.155-3.981,7.334,7.334,0,0,0-5.375-3.993c-3.892-.7-5.831,5.7-3.633,10.9" transform="translate(-517.834 -315.665)" fill="#ce9065"/><path d="M625.772,400.976a29.176,29.176,0,0,0-.6-3.076,13.582,13.582,0,0,0-1.054-2.788,8.593,8.593,0,0,0-1.747-2.335,13.9,13.9,0,0,0-2.5-1.82,6.247,6.247,0,0,1,3.1,1.06,6.627,6.627,0,0,1,2.244,2.516,8.5,8.5,0,0,1,.906,3.206,7.928,7.928,0,0,1-.353,3.236" transform="translate(-541.137 -341.298)" fill="#a8704a"/><g transform="translate(76.267 49.431)" opacity="0.37" style="mix-blend-mode:soft-light;isolation:isolate"><g clip-path="url(#v)"><path d="M607.621,398.073s-.87,2.62-4.069,1.179a7.652,7.652,0,0,1-3.116-2.638,10.143,10.143,0,0,0,8.463,6.216s4.182-4.381,1.7-9.145a10.818,10.818,0,0,0-1.155-3.981,3.049,3.049,0,0,1-.269,2.146c-.86.952-2.156-.091-2.156-.091s-3.936-3.861-5.721-2.17,2.207,10.254,6.323,8.484" transform="translate(-600.436 -389.161)"/></g></g><path d="M657.044,319.182a28.732,28.732,0,0,1-1.219-4.943c-.08-.534-.136-1.05-.174-1.547-.037-.455-.056-.9-.061-1.327a16.154,16.154,0,0,1,.38-3.752,12.013,12.013,0,0,1,6.087-8.272c.957.324,1.472,2.42,1.632,5.243.019.309.033.628.042.952.281,9.4-2.879,24.976-6.687,13.646" transform="translate(-572.317 -261.319)" fill="#2d2828"/><path d="M945.274,311.046c0,.591-.019,1.205-.075,1.852a27.185,27.185,0,0,1-1.379,6.284c-5.144,15.3-9.1-18.449-5.013-19.841a11.829,11.829,0,0,1,5.745,7.025,14.877,14.877,0,0,1,.657,3.24c.037.46.061.942.066,1.44" transform="translate(-818.083 -261.319)" fill="#2d2828"/><path d="M660.832,386.02a7.45,7.45,0,0,1-4.582,1.257c-.08-.535-.136-1.05-.174-1.548a5.868,5.868,0,0,0,4.755-1.82c3.034-2.9,0,2.11,0,2.11" transform="translate(-572.743 -334.357)" fill="#423f3f"/><path d="M663.731,341.569a16.333,16.333,0,0,1-1.28,2.237s-2.987,4.286-6.861,3.592a16.16,16.16,0,0,1,.38-3.752,11.233,11.233,0,0,0,6.087-2.148,3.811,3.811,0,0,1,1.632-.882c.338,0,.272.417.042.952" transform="translate(-572.317 -297.352)" fill="#423f3f"/><path d="M952.274,342.162a6.51,6.51,0,0,0-.689-.516l-.038-2.912s1.519,2.326,5.6,2.021a14.874,14.874,0,0,1,.657,3.241,7.073,7.073,0,0,1-5.534-1.834" transform="translate(-830.683 -295.708)" fill="#423f3f"/><path d="M958.261,375.184c0,.591-.019,1.205-.075,1.852a5.731,5.731,0,0,1-6.181-3.147l-.014-1.079a7.764,7.764,0,0,0,6.27,2.373" transform="translate(-831.07 -325.457)" fill="#423f3f"/><path d="M807.313,14.091S809.859.206,810.814,0s3.068,13.145,3.068,13.145Z" transform="translate(-704.769 0)" fill="#f9c023"/><g transform="translate(102.542 0.005)" opacity="0.37" style="mix-blend-mode:soft-light;isolation:isolate"><g clip-path="url(#x)"><path d="M813.867,13.182l-6.569.945s.3-1.661.743-3.841a4.132,4.132,0,0,0,2.826-3.839c.044-2.1.065-4.56-.018-6.408.973.213,3.017,13.142,3.017,13.142" transform="translate(-807.298 -0.04)"/></g></g><path d="M775.079,96.069a8.156,8.156,0,0,1,7.117-5.854c5.921-.706,7.158,5.461,7.158,5.461Z" transform="translate(-676.629 -78.706)" fill="#ffce00"/><g transform="translate(98.449 12.459)" opacity="0.37" style="mix-blend-mode:soft-light;isolation:isolate"><g clip-path="url(#y)"><path d="M789.351,102.606l-14.276.389a7.74,7.74,0,0,1,1.1-2.33c3.189-1.727,9.228-1.965,10.292-2.571a7.974,7.974,0,0,1,2.883,4.512" transform="translate(-775.075 -98.093)"/></g></g><path d="M706.507,140.184s-.308-23.157,15.871-23.157,14.991,23.157,14.991,23.157Z" transform="translate(-616.767 -102.162)" fill="#f9c023"/><g transform="translate(89.74 14.865)" opacity="0.37" style="mix-blend-mode:soft-light;isolation:isolate"><g clip-path="url(#z)"><path d="M737.37,140.187H706.508a35.613,35.613,0,0,1,.225-3.813c21.839-1.219,28.039-8.868,20.878-14.331-4.038-3.086-9.093-3.269-12.784-2.818a13.089,13.089,0,0,1,7.55-2.195c16.179,0,14.992,23.157,14.992,23.157" transform="translate(-706.507 -117.03)"/></g></g><path d="M578.166,468.832s2.809,8.063-.8,12.893a4.756,4.756,0,0,1-6.961.791,7.333,7.333,0,0,1-2.3-5.358c-.3-6.506,5.635-9.954,5.635-9.954l1.243,1.389s-5.4,5.784-1.994,8.457,4.661-8.622,4.661-8.622a.322.322,0,0,1,.311-.181Z" transform="translate(-495.94 -407.859)" fill="#f9c023"/><g transform="translate(79.053 60.384)" opacity="0.37" style="mix-blend-mode:soft-light;isolation:isolate"><g clip-path="url(#aa)"><path d="M626.278,478.974a20.478,20.478,0,0,0-.731-2.994l-.2-.586a.326.326,0,0,0-.313.181s-.75,6.736-2.66,8.572c2.006,1.361,3.244-2.2,3.9-5.173" transform="translate(-622.374 -475.392)"/></g></g><g transform="translate(72.16 59.343)" opacity="0.37" style="mix-blend-mode:soft-light;isolation:isolate"><g clip-path="url(#ab)"><path d="M568.114,477.159a7.339,7.339,0,0,0,2.3,5.36,4.608,4.608,0,0,0,4.4.977,4.512,4.512,0,0,1-2.552-1.139,7.324,7.324,0,0,1-2.3-5.36,11.188,11.188,0,0,1,4.421-9.081l-.637-.711s-5.936,3.446-5.634,9.954" transform="translate(-568.103 -467.204)"/></g></g><path d="M786.784,182.838s-8.642-4.694,2.836-15.1c0,0,11.339,11.428,4.063,14.25s-6.9.845-6.9.845" transform="translate(-684.123 -146.436)" fill="#ffce00"/><path d="M795.762,198.334s-6.382-3.467,2.095-11.147c0,0,8.373,8.439,3,10.523s-5.095.624-5.095.624" transform="translate(-692.674 -163.411)" fill="#f9c023"/><path d="M817.1,211.261c-.055,1.42-.867,2.54-1.814,2.5s-1.669-1.217-1.613-2.637.867-2.54,1.814-2.5,1.669,1.217,1.613,2.637" transform="translate(-710.322 -182.124)" fill="#ef6b29"/><g transform="translate(103.35 26.497)" opacity="0.37" style="mix-blend-mode:soft-light;isolation:isolate"><g clip-path="url(#ac)"><path d="M815.477,208.608c-.948-.036-1.761,1.085-1.816,2.506s.666,2.6,1.614,2.636,1.761-1.085,1.817-2.5-.668-2.6-1.615-2.64m.758,2.1c-.039.939-.574,1.678-1.2,1.655s-1.1-.8-1.066-1.743.574-1.678,1.2-1.655,1.1.805,1.066,1.743" transform="translate(-813.658 -208.608)"/></g></g><path d="M875.9,241.9s-3.544-2.561,2.108-6.5c0,0,4.351,5.683.983,6.515s-3.091-.019-3.091-.019" transform="translate(-763.684 -205.5)" fill="#ffce00"/><path d="M880.015,248.632s-2.617-1.891,1.557-4.8c0,0,3.213,4.2.726,4.811s-2.282-.014-2.282-.014" transform="translate(-767.529 -212.863)" fill="#f9c023"/><path d="M890.493,254.489c-.1.623-.527,1.071-.942,1s-.667-.632-.562-1.255.527-1.071.942-1,.667.632.562,1.254" transform="translate(-776.05 -221.063)" fill="#ef6b29"/><g transform="translate(112.914 32.164)" opacity="0.37" style="mix-blend-mode:soft-light;isolation:isolate"><g clip-path="url(#ad)"><path d="M889.927,253.228c-.416-.07-.838.379-.943,1s.146,1.184.562,1.254.838-.378.943-1-.147-1.186-.562-1.256m.215.969c-.07.412-.348.707-.623.662s-.44-.418-.371-.829.348-.707.623-.662.44.418.371.829" transform="translate(-888.96 -253.22)"/></g></g><path d="M749.892,241.9s3.544-2.561-2.108-6.5c0,0-4.352,5.683-.983,6.515s3.09-.019,3.09-.019" transform="translate(-650.827 -205.5)" fill="#ffce00"/><path d="M755.6,248.632s2.618-1.891-1.556-4.8c0,0-3.213,4.2-.726,4.811s2.282-.014,2.282-.014" transform="translate(-656.807 -212.863)" fill="#f9c023"/><path d="M762.2,254.489c.105.623.527,1.071.942,1s.667-.632.562-1.255-.527-1.071-.942-1-.667.632-.562,1.254" transform="translate(-665.369 -221.063)" fill="#ef6b29"/><g transform="translate(96.81 32.164)" opacity="0.37" style="mix-blend-mode:soft-light;isolation:isolate"><g clip-path="url(#ad)"><path d="M762.2,254.485c.105.622.527,1.07.943,1s.667-.632.562-1.254-.527-1.072-.943-1-.667.632-.563,1.256m.719-1.116c.274-.045.554.25.623.662s-.1.781-.371.829-.552-.25-.623-.662.1-.784.371-.829" transform="translate(-762.174 -253.221)"/></g></g><path d="M712.216,257.119s3.069-2.217-1.825-5.624c0,0-3.767,4.921-.851,5.641s2.676-.017,2.676-.017" transform="translate(-618.449 -219.55)" fill="#ffce00"/><path d="M717.158,262.951s2.266-1.637-1.348-4.153c0,0-2.782,3.634-.628,4.165s1.976-.012,1.976-.012" transform="translate(-623.627 -225.926)" fill="#f9c023"/><path d="M722.877,268.022c.091.539.456.927.815.867s.577-.547.486-1.086-.456-.927-.815-.867-.577.547-.486,1.086" transform="translate(-631.04 -233.025)" fill="#ef6b29"/><g transform="translate(91.815 33.904)" opacity="0.37" style="mix-blend-mode:soft-light;isolation:isolate"><g clip-path="url(#af)"><path d="M722.87,268.018c.091.538.457.926.817.866s.578-.547.487-1.086-.456-.928-.816-.868-.578.547-.487,1.087m.622-.966c.238-.04.48.217.539.573s-.084.676-.321.718-.478-.217-.539-.573.084-.678.321-.718" transform="translate(-722.85 -266.924)"/></g></g><path d="M916.407,262.459s-2.686-1.94,1.6-4.922c0,0,3.3,4.306.745,4.937s-2.342-.014-2.342-.014" transform="translate(-799.281 -224.825)" fill="#ffce00"/><path d="M919.528,267.563s-1.983-1.433,1.18-3.635c0,0,2.435,3.18.55,3.645s-1.729-.011-1.729-.011" transform="translate(-802.195 -230.404)" fill="#f9c023"/><path d="M927.468,272c-.08.472-.4.812-.714.759s-.505-.478-.426-.951.4-.811.714-.758.505.478.426.95" transform="translate(-808.652 -236.618)" fill="#ef6b29"/><g transform="translate(117.658 34.427)" opacity="0.37" style="mix-blend-mode:soft-light;isolation:isolate"><g clip-path="url(#ag)"><path d="M927.038,271.046c-.315-.053-.635.287-.715.759s.111.9.426.95.635-.287.715-.758-.111-.9-.426-.952m.163.734c-.053.312-.264.536-.472.5s-.333-.316-.281-.628.264-.536.472-.5.333.316.281.628" transform="translate(-926.306 -271.04)"/></g></g><path d="M1010.848,468.832s-2.809,8.063.8,12.893a4.756,4.756,0,0,0,6.961.791,7.332,7.332,0,0,0,2.3-5.358c.3-6.506-5.635-9.954-5.635-9.954l-1.243,1.389s5.4,5.784,1.994,8.457-4.661-8.622-4.661-8.622a.322.322,0,0,0-.311-.181Z" transform="translate(-881.542 -407.859)" fill="#f9c023"/><g transform="translate(128.575 60.384)" opacity="0.37" style="mix-blend-mode:soft-light;isolation:isolate"><g clip-path="url(#ah)"><path d="M1012.252,478.974a20.468,20.468,0,0,1,.731-2.994l.2-.586a.327.327,0,0,1,.313.181s.75,6.736,2.659,8.572c-2.006,1.361-3.244-2.2-3.9-5.173" transform="translate(-1012.252 -475.392)"/></g></g><g transform="translate(132.665 59.343)" opacity="0.37" style="mix-blend-mode:soft-light;isolation:isolate"><g clip-path="url(#ab)"><path d="M1051.143,477.159a7.339,7.339,0,0,1-2.3,5.36,4.608,4.608,0,0,1-4.4.977,4.512,4.512,0,0,0,2.552-1.139,7.324,7.324,0,0,0,2.3-5.36,11.188,11.188,0,0,0-4.421-9.081l.636-.711s5.936,3.446,5.634,9.954" transform="translate(-1044.447 -467.204)"/></g></g><path d="M687.41,302.318a10.11,10.11,0,0,1-.174,1.852c-1.468,7.667-11.9,13.609-24.554,13.609-13.661,0-24.732-6.922-24.732-15.461A11.224,11.224,0,0,1,641,294.88l5.083-19.293.577-2.181c9.853-5.313,20.188-4.741,30.862,0l6,20.582a11.661,11.661,0,0,1,3.893,8.329" transform="translate(-556.918 -235.385)" fill="#ce9065"/><g transform="translate(111.63 47)" opacity="0.37" style="mix-blend-mode:soft-light;isolation:isolate"><g clip-path="url(#aj)"><path d="M883.621,374.326c.046,2.4-.987,4.372-2.305,4.4s-2.425-1.9-2.471-4.307.986-4.372,2.305-4.4,2.425,1.9,2.471,4.307" transform="translate(-878.844 -370.019)"/></g></g><path d="M889.825,393.18c-.044,1.461-.729,2.626-1.531,2.6s-1.416-1.228-1.372-2.689.729-2.626,1.531-2.6,1.416,1.228,1.372,2.689" transform="translate(-774.264 -340.89)" fill="#2d2828"/><path d="M900.222,396.841c-.011.353-.2.635-.416.628s-.388-.3-.377-.652.2-.635.416-.628.388.3.377.652" transform="translate(-785.185 -345.866)" fill="#fff"/><path d="M895.768,404.217c-.008.245-.136.439-.288.435s-.268-.207-.261-.451.136-.439.288-.435.268.207.261.451" transform="translate(-781.51 -352.479)" fill="#fff"/><path d="M887.713,322.366a9.484,9.484,0,0,0-1.987-1.718c-.417-.281-.848-.541-1.282-.784-.145-.083-.294-.159-.438-.237-.5-.261-.983-.5-1.433-.7-1.282-.585-2.264-.92-2.264-.92-.753-1.79,1.226-2.811,1.226-2.811a9.383,9.383,0,0,1,3.646,1.919,7.372,7.372,0,0,1,.955,1c.149.191.287.381.409.571a7.092,7.092,0,0,1,.559,1.05,6.922,6.922,0,0,1,.608,2.622" transform="translate(-768.344 -275.163)" fill="#2d2828"/><path d="M902.867,331.31a7.037,7.037,0,0,0-2.13,1.505c-.5-.261-.983-.5-1.434-.7a4.345,4.345,0,0,1,2.609-1.812,7.377,7.377,0,0,1,.955,1" transform="translate(-785.075 -288.351)" fill="#423f3f"/><path d="M916.695,343.758a6.21,6.21,0,0,0-1.378.9c-.417-.281-.848-.541-1.282-.784a4.052,4.052,0,0,1,2.1-1.17,7.073,7.073,0,0,1,.559,1.05" transform="translate(-797.935 -299.178)" fill="#423f3f"/><g transform="translate(94.562 47)" opacity="0.37" style="mix-blend-mode:soft-light;isolation:isolate"><g clip-path="url(#aj)"><path d="M749.25,374.326c.046,2.4-.987,4.372-2.305,4.4s-2.425-1.9-2.471-4.307.986-4.372,2.305-4.4,2.425,1.9,2.471,4.307" transform="translate(-744.473 -370.019)"/></g></g><path d="M755.453,393.18c-.044,1.461-.729,2.626-1.531,2.6s-1.416-1.228-1.372-2.689.73-2.626,1.531-2.6,1.416,1.228,1.372,2.689" transform="translate(-656.96 -340.89)" fill="#2d2828"/><path d="M765.852,396.841c-.011.353-.2.635-.416.628s-.388-.3-.377-.652.2-.635.416-.628.388.3.377.652" transform="translate(-667.882 -345.866)" fill="#fff"/><path d="M761.4,404.217c-.007.245-.136.439-.288.435s-.268-.207-.261-.451.136-.439.288-.435.269.207.261.451" transform="translate(-664.206 -352.479)" fill="#fff"/><path d="M732.614,322.366a9.485,9.485,0,0,1,1.987-1.718c.417-.281.848-.541,1.282-.784.146-.083.294-.159.438-.237.5-.261.983-.5,1.433-.7,1.282-.585,2.264-.92,2.264-.92.753-1.79-1.227-2.811-1.227-2.811a9.382,9.382,0,0,0-3.646,1.919,7.372,7.372,0,0,0-.955,1c-.149.191-.287.381-.409.571a7.08,7.08,0,0,0-.559,1.05,6.92,6.92,0,0,0-.608,2.622" transform="translate(-639.559 -275.163)" fill="#2d2828"/><path d="M745.026,331.31a7.038,7.038,0,0,1,2.13,1.505c.5-.261.983-.5,1.434-.7a4.345,4.345,0,0,0-2.609-1.812,7.366,7.366,0,0,0-.955,1" transform="translate(-650.394 -288.351)" fill="#423f3f"/><path d="M737.405,343.758a6.207,6.207,0,0,1,1.378.9c.417-.281.848-.541,1.282-.784a4.051,4.051,0,0,0-2.1-1.17,7.056,7.056,0,0,0-.559,1.05" transform="translate(-643.741 -299.178)" fill="#423f3f"/><path d="M810.52,287.023a17.051,17.051,0,0,1,.459,1.982c.1.66.205,1.32.266,1.98l0-.095a6.788,6.788,0,0,0,.617,1.588,1.256,1.256,0,0,0,.368.443.269.269,0,0,0,.2.055.8.8,0,0,0,.373-.18,1.951,1.951,0,0,0,.422-.519,6.721,6.721,0,0,0,.647-1.581l0,.059c.048-.3.095-.61.158-.915s.111-.61.184-.914.136-.609.227-.913.173-.608.284-.911c.093.309.164.618.23.926s.114.616.173.924.086.615.13.923.073.615.1.922l0,.059a5.889,5.889,0,0,1-.489,2.256,3.4,3.4,0,0,1-.753,1.1,2.631,2.631,0,0,1-1.4.7,2.219,2.219,0,0,1-1.678-.461,3.049,3.049,0,0,1-.846-1.136,6.044,6.044,0,0,1-.486-2.259l0-.095c.077-.658.2-1.315.314-1.973a17.019,17.019,0,0,1,.507-1.97" transform="translate(-706.852 -250.566)" fill="#ef6b29"/><path d="M687.41,455.53c0,8.54-11.072,15.461-24.728,15.461S637.95,464.07,637.95,455.53A11.224,11.224,0,0,1,641,448.092s5.773-2.64,18.059-2.954c-.127,2.368.432,4.652,3.034,4.746,3.015.108,3.527-2.42,3.381-4.7a132.026,132.026,0,0,1,18.045,2.016,11.661,11.661,0,0,1,3.893,8.329" transform="translate(-556.918 -388.597)" fill="#e89191"/><path d="M765.5,515.313s-1.322,6.4-12.8,6.4-11.935-6.922-11.935-6.922.816-.141,2.087-.328c3.442-.511,10.2-1.388,12.948-.858,2.1.4,4.886.891,6.931,1.243,1.613.277,2.767.469,2.767.469" transform="translate(-646.679 -448.221)" fill="#2d2828"/><path d="M777.08,514.844c-1.866,1.393-4.952,2.645-10.031,2.645-5.252,0-8.2-1.454-9.848-3.029,3.442-.511,10.2-1.388,12.948-.858,2.1.4,4.886.891,6.931,1.243" transform="translate(-661.022 -448.221)" fill="#fff"/><path d="M701.972,497.03a3.652,3.652,0,0,0,1.378,1.835,5.279,5.279,0,0,0,2.065.854,13.67,13.67,0,0,0,4.58-.06,88.894,88.894,0,0,1,9.62-1.283,21.259,21.259,0,0,1,5,.506,24.325,24.325,0,0,1,2.4.706c.406.143.767.254,1.12.368a6.724,6.724,0,0,0,1.082.313,8.392,8.392,0,0,0,4.419-.073,7.841,7.841,0,0,0,3.778-2.629,7.185,7.185,0,0,1-3.416,3.523,8.764,8.764,0,0,1-5.05.688,8.087,8.087,0,0,1-1.26-.237c-.421-.1-.831-.212-1.191-.313a22.549,22.549,0,0,0-2.257-.526,20.709,20.709,0,0,0-4.578-.364,41.836,41.836,0,0,0-4.683.391c-1.587.172-3.2.4-4.84.45a20.372,20.372,0,0,1-2.492-.016,11.487,11.487,0,0,1-1.258-.185l-.623-.137-.612-.2a5.7,5.7,0,0,1-2.158-1.372,3.549,3.549,0,0,1-1.017-2.238" transform="translate(-612.808 -433.898)" fill="#c46565"/><path d="M805.5,451.979s2.682-3.913,6.067.044a2.513,2.513,0,0,1-2.99,2.286c-2.858-.22-3.078-2.33-3.078-2.33" transform="translate(-703.186 -393.062)" fill="#e2a67d"/><path d="M806.853,405.417a12.938,12.938,0,0,1,.828,2.671,8.944,8.944,0,0,1,.137,2.857,4.452,4.452,0,0,1-.43,1.453,3.079,3.079,0,0,1-1.072,1.195,3.45,3.45,0,0,1-1.508.5,4.674,4.674,0,0,1-1.546-.081,3.171,3.171,0,0,1-1.43-.766,3.451,3.451,0,0,1-.858-1.343,7.113,7.113,0,0,1-.283-2.917,16.241,16.241,0,0,1,1.5-5.389,27.869,27.869,0,0,0-.7,5.422,7.009,7.009,0,0,0,.391,2.539,2.23,2.23,0,0,0,1.624,1.459,3.278,3.278,0,0,0,2.3-.251,2.827,2.827,0,0,0,1.227-1.965,10.016,10.016,0,0,0,.15-2.656,22.161,22.161,0,0,0-.332-2.733" transform="translate(-698.955 -352.337)" fill="#a8704a"/><g transform="translate(82.879 34.248)" opacity="0.37" style="mix-blend-mode:soft-light;isolation:isolate"><g clip-path="url(#al)"><path d="M700.109,302.318a10.11,10.11,0,0,1-.174,1.852c-2.1,4.9-7.456,12.151-20.924,13.013-20.578,1.322-26.515-10.814-26.515-10.814,27.368,18.664,42.637-2.771,43.594-4.849s-.131-5.9-2.077-3.4a6.269,6.269,0,0,1-4.586,2.509s4.488-1.454,3.165-8.179-3.029-19.522-15.428-21.1a25.744,25.744,0,0,0-18.383,4.235l.577-2.181c9.853-5.313,20.188-4.741,30.862,0l6,20.582a11.661,11.661,0,0,1,3.892,8.329" transform="translate(-652.496 -269.633)"/></g></g><path d="M1085.49,537.743a8.885,8.885,0,0,1-3.8,5.942c-.176.11-.353.216-.525.318-7.169,4.231-10.747.309-11.664-3.737a9.6,9.6,0,0,1-.238-2.365,16.08,16.08,0,0,1,2.113-6.331v0c.812-1.593,1.729-3.2,2.506-4.747l0,0a18.549,18.549,0,0,0,1.632-4.191c.679-3.2-.423-6.472.017-8.047a1.291,1.291,0,0,1,1.5-.971c3.106.084,5.431,4.032,5.431,4.032s4.813,11.964,3.031,20.1" transform="translate(-933.441 -448.368)" fill="#ce9065"/><path d="M1087.868,617.591s2.326,2.432,8.512,3.078c-.777,5.364-2.072,5.565-2.072,5.565s-5.472-.4-8.951-3.885c-.486-1.582,1.364-4.253,2.51-4.759" transform="translate(-947.428 -539.145)" fill="#ffbc00"/><g transform="translate(136.057 65.238)" opacity="0.5" style="mix-blend-mode:soft-light;isolation:isolate"><g clip-path="url(#am)"><path d="M1087.153,537.743a54.179,54.179,0,0,1-4.328,6.26c-7.169,4.231-10.747.309-11.664-3.737,2.991,0,5.709-1.659,7.306-5.554a20.168,20.168,0,0,0,1.315-5.678c.013-.093.022-.19.031-.282.732-7.95-1.809-12.847-2.616-14.175a1.291,1.291,0,0,1,1.5-.971c3.106.084,5.431,4.032,5.431,4.032s4.813,11.964,3.031,20.1" transform="translate(-1071.161 -513.606)"/></g></g><path d="M1151.618,801.844s2.7,8.574,9.552,9.149,13.465-8.459,13.465-8.459Z" transform="translate(-1005.341 -699.995)" fill="#ce9065"/><g transform="translate(146.28 101.851)" opacity="0.5" style="mix-blend-mode:soft-light;isolation:isolate"><g clip-path="url(#an)"><path d="M1174.651,802.548s-3.679,5.025-8.391,7.341c-3.975-5.086-10.707-5.422-13.429-5.325a17.283,17.283,0,0,1-1.2-2.7Z" transform="translate(-1151.636 -801.86)"/></g></g><path d="M1171.627,451.831l-4.713,42.11a2.137,2.137,0,0,1-2.358,1.889l-25.484-2.852a2.138,2.138,0,0,1-1.882-2.364l4.713-42.11a2.135,2.135,0,0,1,2.358-1.889l25.483,2.852a2.138,2.138,0,0,1,1.882,2.364" transform="translate(-992.735 -389.875)" fill="#444343"/><path d="M1180.569,512.846l4.105-36.683a1.861,1.861,0,0,0-1.642-2.058l-22.194-2.484a1.861,1.861,0,0,0-2.056,1.644l-4.105,36.683a1.861,1.861,0,0,0,1.642,2.058l22.194,2.484a1.861,1.861,0,0,0,2.056-1.644" transform="translate(-1008.002 -411.706)" fill="#a8d5dd"/><g transform="translate(144.443 57.08)" opacity="0.3" style="mix-blend-mode:soft-light;isolation:isolate"><g clip-path="url(#ao)"><path d="M1165.671,498.078a2.158,2.158,0,0,1-1.115.177l-25.483-2.852a2.138,2.138,0,0,1-1.882-2.364l4.713-42.11a2.152,2.152,0,0,1,.947-1.55c.44.963.921,2.02,1.446,3.155,5.132,11.144,13.948,29.828,19.892,42.409.521,1.094,1.02,2.145,1.483,3.134" transform="translate(-1137.177 -449.38)"/></g></g><rect width="1.938" height="21.983" transform="matrix(0.111, -0.994, 0.994, 0.111, 152.109, 64.61)" fill="#fff"/><rect width="1.938" height="21.983" transform="translate(151.741 67.895) rotate(-83.614)" fill="#fff"/><rect width="1.938" height="21.983" transform="translate(150.855 75.811) rotate(-83.614)" fill="#fff"/><path d="M1364.6,621.173a4.434,4.434,0,0,1-5.484,3.674c-3.281-.613-5.172-1.191-5.907-2.753a3.819,3.819,0,0,1,1.188-4.616.938.938,0,0,1,.14-.107,11.935,11.935,0,0,1,5.778-1.621,4.593,4.593,0,0,1,4.4,3.8,4.534,4.534,0,0,1-.112,1.623" transform="translate(-1181.024 -537.537)" fill="#ce9065"/><path d="M1360.084,686.529a3.873,3.873,0,0,1-4.725,2.669c-2.922-.542-4.609-1.062-5.273-2.45a3.366,3.366,0,0,1,.455-3.514,3.251,3.251,0,0,1,.735-.7,10.648,10.648,0,0,1,5.151-1.445,4.094,4.094,0,0,1,3.926,3.394,4.694,4.694,0,0,1-.27,2.049" transform="translate(-1178.334 -594.575)" fill="#ce9065"/><path d="M1359.9,740.039a3.11,3.11,0,0,1-3.845,2.3c-2.349-.435-3.713-.85-4.239-1.969a2.677,2.677,0,0,1,.153-2.527,2.877,2.877,0,0,1,.8-.866,8.531,8.531,0,0,1,4.142-1.163,3.29,3.29,0,0,1,3.159,2.728,3.54,3.54,0,0,1-.174,1.5" transform="translate(-1179.895 -642.351)" fill="#ce9065"/><path d="M1372.626,558.942a4.31,4.31,0,0,1-5.169,2.65c-3.281-.613-5.172-1.191-5.907-2.753a3.783,3.783,0,0,1,.578-4.031,3.7,3.7,0,0,1,.75-.693,11.933,11.933,0,0,1,5.778-1.621,4.6,4.6,0,0,1,4.4,3.8,5.476,5.476,0,0,1-.427,2.648" transform="translate(-1188.308 -482.317)" fill="#ce9065"/><g transform="translate(171.675 95.49)" opacity="0.5" style="mix-blend-mode:soft-light;isolation:isolate"><g clip-path="url(#ap)"><path d="M1359.9,753.982a3.11,3.11,0,0,1-3.845,2.3c-2.349-.435-3.713-.85-4.239-1.969a2.677,2.677,0,0,1,.153-2.527c.578,1.322,2.39,3.45,7.932,2.2" transform="translate(-1351.57 -751.784)"/></g></g><g transform="translate(171.447 88.658)" opacity="0.5" style="mix-blend-mode:soft-light;isolation:isolate"><g clip-path="url(#aq)"><path d="M1360.084,701.29a3.873,3.873,0,0,1-4.725,2.669c-2.922-.542-4.609-1.062-5.273-2.45a3.366,3.366,0,0,1,.455-3.514c.35,1.5,2.026,4.131,9.543,3.295" transform="translate(-1349.782 -697.994)"/></g></g><g transform="translate(171.839 79.941)" opacity="0.5" style="mix-blend-mode:soft-light;isolation:isolate"><g clip-path="url(#ar)"><path d="M1364.6,633.051a4.434,4.434,0,0,1-5.484,3.674c-3.281-.613-5.172-1.191-5.907-2.753a3.819,3.819,0,0,1,1.188-4.617c-.2,1.055-.1,3.451,4.55,3.891a18.141,18.141,0,0,0,5.653-.2" transform="translate(-1352.862 -629.356)"/></g></g><g transform="translate(172.899 72.491)" opacity="0.5" style="mix-blend-mode:soft-light;isolation:isolate"><g clip-path="url(#as)"><path d="M1372.626,574.844a4.31,4.31,0,0,1-5.169,2.65c-3.281-.613-5.172-1.191-5.907-2.753a3.783,3.783,0,0,1,.578-4.031c.6,1.874,2.766,4.761,10.5,4.134" transform="translate(-1361.208 -570.71)"/></g></g></g></g></g></g></g></svg>