<svg xmlns="http://www.w3.org/2000/svg" width="263.04" height="263.015" viewBox="0 0 263.04 263.015">
  <path id="Screenshot_2020-11-13_at_2.50.12_PM" data-name="Screenshot 2020-11-13 at 2.50.12 PM" d="M131.507,0c23.1,0,44.957,9.171,63.811,19.623C209,27.2,219.471,39.648,229.629,50.972,249.391,73,263.015,98.716,263.015,131.507c0,11.766.451,24.6-2.448,35.456-9.175,34.353-36.712,59.449-67.538,76.24-19.494,10.618-37.906,19.811-61.521,19.811-30.867,0-58.7-15.161-81.239-33.045C20.013,205.959,0,173.269,0,131.507,0,97.807,15.98,69.9,36.859,46.591,60.9,19.748,92.578,0,131.507,0Z" transform="translate(0)" fill="#ffd880"/>
</svg>