<svg xmlns="http://www.w3.org/2000/svg" width="324.915" height="324.897" viewBox="0 0 324.915 324.897"><path d="M132.636,0c23.294,0,45.343,9.25,64.358,19.791,13.795,7.647,24.36,20.2,34.606,31.619,19.931,22.218,33.672,48.154,33.672,81.226,0,11.867.455,24.81-2.469,35.76-9.254,34.648-37.027,59.96-68.117,76.894-19.661,10.709-38.231,19.981-62.049,19.981-31.132,0-59.208-15.291-81.936-33.328C20.185,207.726,0,174.756,0,132.636,0,98.647,16.117,70.5,37.176,46.991,61.426,19.918,93.372,0,132.636,0Z" transform="matrix(0.966, 0.259, -0.259, 0.966, 68.657, 0)" fill="#deeeff"/></svg>