<svg xmlns="http://www.w3.org/2000/svg" width="178" height="52"><defs><linearGradient id="a" x1=".915" y1=".049" x2="-.384" y2=".719" gradientUnits="objectBoundingBox"><stop offset="0" stop-color="#00a0ff"/><stop offset=".01" stop-color="#00a1ff"/><stop offset=".26" stop-color="#00beff"/><stop offset=".51" stop-color="#00d2ff"/><stop offset=".76" stop-color="#00dfff"/><stop offset="1" stop-color="#00e3ff"/></linearGradient><linearGradient id="b" x1="1.077" y1=".5" x2="-1.306" y2=".5" gradientUnits="objectBoundingBox"><stop offset="0" stop-color="#ffe000"/><stop offset=".41" stop-color="#ffbd00"/><stop offset=".78" stop-color="orange"/><stop offset="1" stop-color="#ff9c00"/></linearGradient><linearGradient id="c" x1=".862" y1=".179" x2="-.501" y2="1.947" gradientUnits="objectBoundingBox"><stop offset="0" stop-color="#ff3a44"/><stop offset="1" stop-color="#c31162"/></linearGradient><linearGradient id="d" x1="-.188" y1="-.541" x2=".421" y2=".249" gradientUnits="objectBoundingBox"><stop offset="0" stop-color="#32a071"/><stop offset=".07" stop-color="#2da771"/><stop offset=".48" stop-color="#15cf74"/><stop offset=".8" stop-color="#06e775"/><stop offset="1" stop-color="#00f076"/></linearGradient></defs><g transform="translate(0 -.406)"><rect width="178" height="52" rx="5" transform="translate(0 .406)"/><path d="M62.885 30.33v2.371h5.69a4.965 4.965 0 01-1.317 2.99 5.822 5.822 0 01-4.386 1.739 6.323 6.323 0 110-12.645 6.059 6.059 0 014.307 1.7l1.673-1.673a8.286 8.286 0 00-5.967-2.466 8.707 8.707 0 100 17.4 7.689 7.689 0 008.127-8 7.74 7.74 0 00-.132-1.488zm14.608-1.726a5.6 5.6 0 105.611 5.6 5.519 5.519 0 00-5.625-5.6zm6.692 5.616a5.6 5.6 0 015.572-5.616 5.519 5.519 0 015.625 5.6 5.6 5.6 0 01-11.2.018zm2.268 1.456a3.4 3.4 0 003.3 1.925 3.24 3.24 0 003.161-3.4 3.4 3.4 0 10-6.465 1.473zm-12.272.01a3.4 3.4 0 003.312 1.915h-.013a3.24 3.24 0 003.161-3.4 3.4 3.4 0 10-6.461 1.483zm43.593-7.082a5.269 5.269 0 014.795 3.57l.277.593-7.5 3.1a2.845 2.845 0 002.714 1.7 3.2 3.2 0 002.753-1.554l1.91 1.317a5.572 5.572 0 01-4.663 2.476 5.48 5.48 0 01-5.559-5.6 5.269 5.269 0 015.269-5.6zm-2.845 5.44a3.069 3.069 0 012.924-3.267 2.174 2.174 0 012.081 1.186zm-3.622 5.428h-2.463V23.006h2.463zm-6.494-9.616h-.092a3.952 3.952 0 00-2.954-1.317 5.611 5.611 0 000 11.21 3.82 3.82 0 002.951-1.317h.079v.8c0 2.147-1.146 3.293-2.99 3.293a3.1 3.1 0 01-2.819-1.989l-2.147.9a5.335 5.335 0 004.966 3.306c2.885 0 5.269-1.7 5.269-5.835v-9.973h-2.263zm-2.823 7.745zm2.22-1.056a3.135 3.135 0 01-2.22 1.056 3.412 3.412 0 010-6.8 3.161 3.161 0 012.99 3.4 3.135 3.135 0 01-.77 2.345zm29.9-13.538h-5.888v16.465h2.463v-6.244h3.438a5.124 5.124 0 100-10.222zm-3.438 7.9h3.438l.053.04a2.825 2.825 0 000-5.651h-3.496zm18.626-2.371a4.611 4.611 0 00-4.386 2.516l2.187.909a2.331 2.331 0 012.239-1.212 2.37 2.37 0 012.629 2.123v.174a5.44 5.44 0 00-2.569-.632c-2.358 0-4.742 1.317-4.742 3.7a3.807 3.807 0 004.083 3.622 3.464 3.464 0 003.161-1.581h.079v1.317h2.371v-6.336c0-2.885-2.187-4.558-4.992-4.558zm-2.231 7.629c0 .988 1.12 1.4 1.923 1.4l.066.04a2.976 2.976 0 002.885-2.634 4.373 4.373 0 00-2.239-.553c-1.235-.005-2.635.428-2.635 1.747zm15.925-7.232l-2.819 7.139h-.079l-2.924-7.139h-2.634l4.386 9.985-2.5 5.546h2.569l6.744-15.53zm-19.68 10.538h-2.463V23.006h2.463zM91.165 10.19a4.268 4.268 0 000 5.862 4.11 4.11 0 005.8 0 4.255 4.255 0 000-5.862 4.083 4.083 0 00-5.8 0zm-29.691 5.888a3.569 3.569 0 00.988-2.634 3.338 3.338 0 00-.053-.593h-3.832v.948h2.858a2.49 2.49 0 01-.659 1.607 3.109 3.109 0 01-5.269-2.277 3.056 3.056 0 013.069-3.161 2.634 2.634 0 012.16.935l.7-.7a3.253 3.253 0 00-1.238-.883 4.083 4.083 0 00-1.62-.329 3.952 3.952 0 00-2.913 1.185 4.149 4.149 0 002.911 7.074 3.833 3.833 0 002.898-1.172zm3.464-5.928h3.557v-.975h-4.61v7.9h4.61V16.1h-3.556v-2.5h3.24v-.948h-3.24zm7.877 6.929h-1.013V10.15h-2.213v-.975h5.493v.975h-2.267zm7.153-7.9h-1.014v7.9h1.014zm4.5 7.9h-1.009V10.15h-2.213v-.975h5.427v.975h-2.2zm16.321-7.9h-1.233v7.9h1.027v-6.442l4.018 6.441h1.054v-7.9h-1.015v6.151zm-8.874 6.214a3.043 3.043 0 004.294 0 3.372 3.372 0 000-4.531 3.043 3.043 0 00-4.294 0 3.372 3.372 0 000 4.531z" fill="#fff" fill-rule="evenodd"/><path d="M.625.094A2.7 2.7 0 000 1.982V31.8a2.7 2.7 0 00.62 1.887l.094.094L17.423 17.1v-.4L.719 0z" transform="translate(12.979 8.993)" fill="url(#a)"/><path d="M5.528 11.54L0 5.972v-.391L5.528 0l.121.067 6.62 3.761c1.887 1.065 1.887 2.818 0 3.9l-6.593 3.745z" transform="translate(30.402 20.115)" fill="url(#b)"/><path d="M22.488 5.689L16.8 0 0 16.8a2.2 2.2 0 002.8.081L22.5 5.689" transform="translate(13.604 25.886)" fill="url(#c)"/><path d="M22.5 11.656L2.8.466A2.2 2.2 0 000 .547l16.812 16.8z" transform="translate(13.59 8.54)" fill="url(#d)"/><path d="M35.93 31.454L16.395 42.577a2.251 2.251 0 01-2.7 0l-.091.094.094.094a2.238 2.238 0 002.7 0l19.694-11.19z" opacity=".2"/><path d="M12.979 40.871a2.7 2.7 0 00.625 1.625l.095.108-.095.095a2.7 2.7 0 01-.625-1.828zm0-.263v0zm22.951-9.154l6.741-3.816a2.506 2.506 0 001.348-1.752 2.361 2.361 0 01-1.348 1.941l-6.62 3.748z" opacity=".12"/><path d="M16.394 9.195L42.67 24.133a2.508 2.508 0 011.348 1.753 2.359 2.359 0 00-1.348-1.942L16.394 9.006c-1.887-1.065-3.424-.175-3.424 1.982v.2c.04-2.168 1.55-3.058 3.424-1.993z" fill="#fff" opacity=".25"/></g></svg>