<svg width="185" height="185" viewBox="0 0 185 185" fill="none" xmlns="http://www.w3.org/2000/svg">
<path d="M92.3458 107.855C100.894 107.855 107.824 100.925 107.824 92.3767C107.824 83.8282 100.894 76.8983 92.3458 76.8983C83.7974 76.8983 76.8675 83.8282 76.8675 92.3767C76.8675 100.925 83.7974 107.855 92.3458 107.855Z" fill="#F5CD71"/>
<path d="M92.3458 127.835C70.6083 127.835 51.615 125.276 37.4008 120.404C28.1817 117.259 20.35 113.066 14.7692 108.287C8.84917 103.23 5.70417 97.7109 5.70417 92.3767C5.70417 82.14 16.9275 72.1192 35.7667 65.5825C51.1833 60.2175 71.2867 57.2267 92.315 57.2267C112.973 57.2267 132.799 60.125 148.123 65.4283C157.096 68.5117 164.65 72.52 170.015 76.96C175.843 81.8317 178.926 87.1658 178.926 92.3767C178.926 103.014 166.377 113.775 146.15 120.466C131.843 125.214 112.727 127.835 92.3458 127.835ZM92.3458 64.6267C72.3967 64.6267 52.6633 67.525 38.2333 72.5508C20.905 78.5942 13.135 86.8575 13.135 92.3767C13.135 98.1117 21.4908 107.146 39.8058 113.405C53.2492 117.999 71.4408 120.435 92.3458 120.435C111.956 120.435 130.24 117.968 143.838 113.436C162.862 107.115 171.557 98.0809 171.557 92.3767C171.557 89.4475 169.337 85.9942 165.297 82.6333C160.642 78.7483 153.858 75.2025 145.749 72.3967C131.165 67.4017 112.203 64.6267 92.3458 64.6267Z" fill="#F5CD71"/>
<path d="M57.2267 169.522C54.0817 169.522 51.3067 168.843 48.9633 167.487C40.1142 162.368 37.0308 147.63 40.7617 128.051C43.8142 111.987 51.2758 93.1167 61.79 74.8942C72.1192 57.0108 84.5142 41.2858 96.755 30.6483C103.908 24.42 111.154 19.8567 117.691 17.4517C124.813 14.8308 130.98 14.8308 135.482 17.4208C144.701 22.7242 147.753 39.0042 143.437 59.8475C140.384 74.6475 133.108 92.5 122.933 110.168C112.079 128.976 100.363 144.146 89.0467 154.043C81.7083 160.457 74.1542 165.143 67.2475 167.579C63.64 168.874 60.2483 169.522 57.2267 169.522ZM64.9658 76.7442L68.1725 78.5942C58.2133 95.8608 50.8442 114.392 48.0075 129.438C44.585 147.476 47.8842 158.329 52.6325 161.073C53.8042 161.752 55.3458 162.122 57.2267 162.122C63.3625 162.122 73.0133 158.237 84.175 148.493C94.8742 139.151 106.067 124.598 116.519 106.498C126.324 89.5092 133.293 72.4275 136.191 58.3983C140.23 38.7575 136.746 26.7325 131.782 23.865C129.253 22.4158 125.153 22.6008 120.219 24.42C114.515 26.5167 108.071 30.6175 101.596 36.26C89.9717 46.3733 78.1008 61.42 68.1725 78.625L64.9658 76.7442Z" fill="#F5CD71"/>
<path d="M127.465 169.614C119.078 169.614 108.441 164.558 97.3408 154.999C84.9458 144.331 72.335 128.452 61.79 110.229C51.43 92.3458 44.03 73.7533 40.9158 57.8125C39.0967 48.5008 38.7575 39.96 39.9292 33.0842C41.2242 25.5917 44.2767 20.2575 48.8092 17.6367C57.9975 12.3025 73.63 17.7908 89.54 31.9433C100.825 41.9642 112.665 57.1958 122.871 74.8325C133.755 93.6408 141.062 111.37 143.961 126.108C145.842 135.667 146.15 144.547 144.824 151.762C143.406 159.439 140.199 164.897 135.574 167.579C133.262 168.936 130.517 169.614 127.465 169.614ZM68.2033 106.529C78.1933 123.796 90.5883 139.428 102.182 149.388C116.087 161.351 127.126 163.941 131.905 161.166C136.869 158.298 140.507 146.551 136.746 127.558C133.971 113.621 126.972 96.6625 116.488 78.5633C106.652 61.5742 95.3367 46.99 84.6375 37.4933C69.6525 24.1733 57.5042 21.1825 52.54 24.05C50.0117 25.4992 48.1308 29.1683 47.2367 34.3483C46.2192 40.33 46.5275 47.9767 48.1925 56.3942C51.1525 71.5333 58.2442 89.3242 68.2033 106.529Z" fill="#F5CD71"/>
</svg>
