<svg xmlns="http://www.w3.org/2000/svg" width="53.556" height="43.818"><rect data-name="Rectangle 46" width="43" height="16" rx="4" transform="translate(8 8)" fill="#ffd880"/><path data-name="Path 227" d="M7.3 0A7.3 7.3 0 000 7.3v9.74a7.3 7.3 0 007.3 7.3h38.95a7.3 7.3 0 007.3-7.3V7.3a7.3 7.3 0 00-7.3-7.3zm38.95 4.869H7.3A2.434 2.434 0 004.869 7.3v9.74A2.434 2.434 0 007.3 19.475h38.95a2.434 2.434 0 002.434-2.434V7.3a2.434 2.434 0 00-2.431-2.431z" fill-rule="evenodd"/><path data-name="Path 228" d="M14.606 41.384a2.434 2.434 0 012.434-2.434h19.475a2.434 2.434 0 010 4.869H17.04a2.434 2.434 0 01-2.434-2.435z"/><path data-name="Path 229" d="M9.737 29.212a2.434 2.434 0 000 4.869h34.081a2.434 2.434 0 100-4.869z"/></svg>