<svg xmlns="http://www.w3.org/2000/svg" width="39.739" height="53.012"><g data-name="Group 73" transform="translate(-700 -2645.645)"><rect data-name="Rectangle 45" width="24" height="32" rx="4" transform="translate(709 2660.645)" fill="#ffd880"/><path data-name="apple-watch" d="M731.785 2653.685q0 .191-.011.38a7.951 7.951 0 015.316 7.5v2.649h2.649v10.6h-2.649v7.948a7.951 7.951 0 01-5.311 7.5q.012.223.012.448a7.948 7.948 0 01-7.948 7.948h-10.6a7.948 7.948 0 01-7.943-7.949q0-.226.012-.448a7.951 7.951 0 01-5.311-7.5v-21.194a7.951 7.951 0 015.306-7.5q-.015-.256-.014-.515a7.948 7.948 0 017.987-7.902l10.6.053a7.948 7.948 0 017.905 7.982zm-21.194-.066h15.9a2.649 2.649 0 00-2.641-2.623l-10.6-.053a2.649 2.649 0 00-2.659 2.637zm19.094 5.354l-11.185-.055h-10.552a2.649 2.649 0 00-2.648 2.649v21.194a2.649 2.649 0 002.646 2.649h21.2a2.649 2.649 0 002.646-2.649v-21.194a2.65 2.65 0 00-2.107-2.594zm-19.085 31.736a2.649 2.649 0 002.649 2.649h10.6a2.649 2.649 0 002.649-2.649z" fill-rule="evenodd"/><path data-name="Path 758" d="M718.032 2664.081v8.866l6.925 5.094" fill="none" stroke="#000" stroke-linecap="round" stroke-width="2"/></g></svg>