<svg xmlns="http://www.w3.org/2000/svg" xmlns:xlink="http://www.w3.org/1999/xlink" width="300" height="300"><defs><clipPath id="c"><path transform="translate(570 2051)" fill="none" stroke="#707070" d="M0 0h300v300H0z"/></clipPath><clipPath id="d"><path d="M146.985 0c25.814 0 50.248 10.251 71.321 21.932 15.287 8.474 27 22.382 38.35 35.039 22.087 24.622 37.314 53.363 37.314 90.014 0 13.151.5 27.494-2.737 39.629-10.255 38.4-41.032 66.446-75.487 85.213-21.788 11.867-42.367 22.143-68.762 22.143-34.5 0-65.613-16.945-90.8-36.934C22.369 230.2 0 193.662 0 146.985c0-37.666 17.861-68.857 41.2-94.91C68.071 22.072 103.474 0 146.985 0z" transform="rotate(-85 992.339 747.967)" fill="#deeeff"/></clipPath><clipPath id="e"><path fill="none" d="M0 0h183.422v267.852H0z"/></clipPath><clipPath id="f"><path fill="none" d="M0 0h14.571v22.678H0z"/></clipPath><clipPath id="g"><path fill="none" d="M0 0h18.882v24.03H0z"/></clipPath><clipPath id="h"><path fill="none" d="M0 0h9.5v22.994H0z"/></clipPath><clipPath id="i"><path fill="none" d="M0 0h11.998v22.079H0z"/></clipPath><clipPath id="j"><path d="M70.809 239.246l-63.667.486a3.066 3.066 0 00-2.968 1.954L35.2 319.833a4.391 4.391 0 004.136 2.822l63.955.251a3.324 3.324 0 00.928-3.1l-28.982-77.38a4.654 4.654 0 00-4.4-3.18h-.028" transform="translate(-4.173 -239.246)" fill="none"/></clipPath><clipPath id="k"><path fill="none" d="M0 0h68.196v3.786H0z"/></clipPath><clipPath id="l"><path fill="none" d="M0 0h102.876v89.011H0z"/></clipPath><clipPath id="m"><path d="M69.578 241.541l-64.268.352a1.4 1.4 0 00-1.3 1.893l29.96 78.342a4.391 4.391 0 004.136 2.822l63.985-.5a1.4 1.4 0 001.3-1.885L74.2 244.726a4.91 4.91 0 00-4.6-3.186h-.026" transform="translate(-3.921 -241.54)" fill="none"/></clipPath><clipPath id="o"><path fill="none" d="M0 0h37.933v51.625H0z"/></clipPath><clipPath id="p"><path fill="none" d="M0 0h48.823v51.583H0z"/></clipPath><clipPath id="q"><path fill="none" d="M0 0h24.098v32.541H0z"/></clipPath><clipPath id="r"><path fill="none" d="M0 0h72.538v36.343H0z"/></clipPath><clipPath id="s"><path fill="none" d="M0 0h34.731v45.38H0z"/></clipPath><clipPath id="t"><path fill="none" d="M0 0h2.236v2.135H0z"/></clipPath><clipPath id="u"><path fill="none" d="M0 0h23.867v25.996H0z"/></clipPath><clipPath id="v"><path fill="none" d="M0 0h23.717v25.833H0z"/></clipPath><clipPath id="w"><path fill="none" d="M0 0h23.568v25.671H0z"/></clipPath><clipPath id="x"><path fill="none" d="M0 0h23.419v25.508H0z"/></clipPath><clipPath id="y"><path fill="none" d="M0 0h23.27v25.346H0z"/></clipPath><clipPath id="z"><path fill="none" d="M0 0h23.12v25.183H0z"/></clipPath><clipPath id="A"><path fill="none" d="M0 0h22.972v25.021H0z"/></clipPath><clipPath id="B"><path fill="none" d="M0 0h22.822v24.858H0z"/></clipPath><clipPath id="C"><path fill="none" d="M0 0h22.674v24.696H0z"/></clipPath><clipPath id="D"><path fill="none" d="M0 0h22.524v24.533H0z"/></clipPath><clipPath id="E"><path fill="none" d="M0 0h22.375v24.371H0z"/></clipPath><clipPath id="F"><path fill="none" d="M0 0h22.226v24.208H0z"/></clipPath><clipPath id="G"><path fill="none" d="M0 0h22.077v24.046H0z"/></clipPath><clipPath id="H"><path fill="none" d="M0 0h21.927v23.883H0z"/></clipPath><clipPath id="I"><path fill="none" d="M0 0h21.779v23.721H0z"/></clipPath><clipPath id="J"><path fill="none" d="M0 0h21.629v23.558H0z"/></clipPath><clipPath id="K"><path fill="none" d="M0 0h21.48v23.396H0z"/></clipPath><clipPath id="L"><path fill="none" d="M0 0h21.331v23.233H0z"/></clipPath><clipPath id="M"><path fill="none" d="M0 0h21.182v23.071H0z"/></clipPath><clipPath id="N"><path fill="none" d="M0 0h21.033v22.908H0z"/></clipPath><clipPath id="O"><path fill="none" d="M0 0h20.883v22.746H0z"/></clipPath><clipPath id="P"><path fill="none" d="M0 0h20.734v22.583H0z"/></clipPath><clipPath id="Q"><path fill="none" d="M0 0h20.585v22.421H0z"/></clipPath><clipPath id="R"><path fill="none" d="M0 0h20.436v22.259H0z"/></clipPath><clipPath id="S"><path fill="none" d="M0 0h20.287v22.096H0z"/></clipPath><clipPath id="T"><path fill="none" d="M0 0h20.138v21.934H0z"/></clipPath><clipPath id="U"><path fill="none" d="M0 0h19.989v21.771H0z"/></clipPath><clipPath id="V"><path fill="none" d="M0 0h19.839v21.609H0z"/></clipPath><clipPath id="W"><path fill="none" d="M0 0h19.69v21.446H0z"/></clipPath><clipPath id="X"><path fill="none" d="M0 0h19.541v21.284H0z"/></clipPath><clipPath id="Y"><path fill="none" d="M0 0h19.391v21.122H0z"/></clipPath><clipPath id="Z"><path fill="none" d="M0 0h19.243v20.959H0z"/></clipPath><clipPath id="aa"><path fill="none" d="M0 0h19.093v20.797H0z"/></clipPath><clipPath id="ab"><path fill="none" d="M0 0h18.945v20.634H0z"/></clipPath><clipPath id="ac"><path fill="none" d="M0 0h18.795v20.472H0z"/></clipPath><clipPath id="ad"><path fill="none" d="M0 0h18.646v20.309H0z"/></clipPath><clipPath id="ae"><path fill="none" d="M0 0h18.497v20.147H0z"/></clipPath><clipPath id="af"><path fill="none" d="M0 0h18.348v19.984H0z"/></clipPath><clipPath id="ag"><path fill="none" d="M0 0h18.198v19.822H0z"/></clipPath><clipPath id="ah"><path fill="none" d="M0 0h18.05v19.659H0z"/></clipPath><clipPath id="ai"><path fill="none" d="M0 0h17.9v19.497H0z"/></clipPath><clipPath id="aj"><path fill="none" d="M0 0h17.751v19.334H0z"/></clipPath><clipPath id="ak"><path fill="none" d="M0 0h17.602v19.172H0z"/></clipPath><clipPath id="al"><path fill="none" d="M0 0h17.453v19.009H0z"/></clipPath><clipPath id="am"><path fill="none" d="M0 0h17.303v18.846H0z"/></clipPath><clipPath id="an"><path fill="none" d="M0 0h17.154v18.684H0z"/></clipPath><clipPath id="ao"><path fill="none" d="M0 0h17.005v18.522H0z"/></clipPath><clipPath id="ap"><path fill="none" d="M0 0h16.856v18.359H0z"/></clipPath><clipPath id="aq"><path fill="none" d="M0 0h16.707v18.197H0z"/></clipPath><clipPath id="ar"><path fill="none" d="M0 0h16.557v18.034H0z"/></clipPath><clipPath id="as"><path fill="none" d="M0 0h16.409v17.872H0z"/></clipPath><clipPath id="at"><path fill="none" d="M0 0h16.259v17.709H0z"/></clipPath><clipPath id="au"><path fill="none" d="M0 0h16.11v17.547H0z"/></clipPath><clipPath id="av"><path fill="none" d="M0 0h15.961v17.384H0z"/></clipPath><clipPath id="aw"><path fill="none" d="M0 0h15.812v17.222H0z"/></clipPath><clipPath id="ax"><path fill="none" d="M0 0h15.662v17.06H0z"/></clipPath><clipPath id="ay"><path fill="none" d="M0 0h15.514v16.897H0z"/></clipPath><clipPath id="az"><path fill="none" d="M0 0h15.364v16.735H0z"/></clipPath><clipPath id="aA"><path fill="none" d="M0 0h15.215v16.572H0z"/></clipPath><clipPath id="aB"><path fill="none" d="M0 0h15.066v16.41H0z"/></clipPath><clipPath id="aC"><path fill="none" d="M0 0h14.917v16.247H0z"/></clipPath><clipPath id="aD"><path fill="none" d="M0 0h14.767v16.085H0z"/></clipPath><clipPath id="aE"><path fill="none" d="M0 0h14.618v15.923H0z"/></clipPath><clipPath id="aF"><path fill="none" d="M0 0h14.469v15.76H0z"/></clipPath><clipPath id="aG"><path fill="none" d="M0 0h14.32v15.597H0z"/></clipPath><clipPath id="aH"><path fill="none" d="M0 0h14.171v15.435H0z"/></clipPath><clipPath id="aI"><path fill="none" d="M0 0h14.022v15.272H0z"/></clipPath><clipPath id="aJ"><path fill="none" d="M0 0h13.873v15.11H0z"/></clipPath><clipPath id="aK"><path fill="none" d="M0 0h13.723v14.947H0z"/></clipPath><clipPath id="aL"><path fill="none" d="M0 0h13.574v14.785H0z"/></clipPath><clipPath id="aM"><path fill="none" d="M0 0h13.425v14.622H0z"/></clipPath><clipPath id="aN"><path fill="none" d="M0 0h13.276v14.46H0z"/></clipPath><clipPath id="aO"><path fill="none" d="M0 0h13.127v14.297H0z"/></clipPath><clipPath id="aP"><path fill="none" d="M0 0h12.978v14.135H0z"/></clipPath><clipPath id="aQ"><path fill="none" d="M0 0h12.828v13.972H0z"/></clipPath><clipPath id="aR"><path fill="none" d="M0 0h12.679v13.81H0z"/></clipPath><clipPath id="aS"><path fill="none" d="M0 0h12.53v13.647H0z"/></clipPath><clipPath id="aT"><path fill="none" d="M0 0h12.381v13.485H0z"/></clipPath><clipPath id="aU"><path fill="none" d="M0 0h12.231v13.322H0z"/></clipPath><clipPath id="aV"><path fill="none" d="M0 0h12.083v13.16H0z"/></clipPath><clipPath id="aW"><path fill="none" d="M0 0h11.933v12.998H0z"/></clipPath><clipPath id="aX"><path fill="none" d="M0 0h25.996v25.996H0z"/></clipPath><clipPath id="aY"><path fill="none" d="M0 0h25.833v25.833H0z"/></clipPath><clipPath id="aZ"><path fill="none" d="M0 0h25.671v25.671H0z"/></clipPath><clipPath id="ba"><path fill="none" d="M0 0h25.508v25.508H0z"/></clipPath><clipPath id="bb"><path fill="none" d="M0 0h25.346v25.346H0z"/></clipPath><clipPath id="bc"><path fill="none" d="M0 0h25.184v25.184H0z"/></clipPath><clipPath id="bd"><path fill="none" d="M0 0h25.021v25.021H0z"/></clipPath><clipPath id="be"><path fill="none" d="M0 0h24.859v24.859H0z"/></clipPath><clipPath id="bf"><path fill="none" d="M0 0h24.696v24.696H0z"/></clipPath><clipPath id="bg"><path fill="none" d="M0 0h24.534v24.534H0z"/></clipPath><clipPath id="bh"><path fill="none" d="M0 0h24.371v24.371H0z"/></clipPath><clipPath id="bi"><path fill="none" d="M0 0h24.209v24.208H0z"/></clipPath><clipPath id="bj"><path fill="none" d="M0 0h24.046v24.046H0z"/></clipPath><clipPath id="bk"><path fill="none" d="M0 0h23.884v23.884H0z"/></clipPath><clipPath id="bl"><path fill="none" d="M0 0h23.722v23.722H0z"/></clipPath><clipPath id="bm"><path fill="none" d="M0 0h23.559v23.558H0z"/></clipPath><clipPath id="bn"><path fill="none" d="M0 0h23.396v23.396H0z"/></clipPath><clipPath id="bo"><path fill="none" d="M0 0h23.234v23.234H0z"/></clipPath><clipPath id="bp"><path fill="none" d="M0 0h23.072v23.072H0z"/></clipPath><clipPath id="bq"><path fill="none" d="M0 0h22.909v22.908H0z"/></clipPath><clipPath id="br"><path fill="none" d="M0 0h22.746v22.746H0z"/></clipPath><clipPath id="bs"><path fill="none" d="M0 0h22.584v22.584H0z"/></clipPath><clipPath id="bt"><path fill="none" d="M0 0h22.422v22.422H0z"/></clipPath><clipPath id="bu"><path fill="none" d="M0 0h22.259v22.259H0z"/></clipPath><clipPath id="bv"><path fill="none" d="M0 0h22.096v22.096H0z"/></clipPath><clipPath id="bw"><path fill="none" d="M0 0h21.934v21.934H0z"/></clipPath><clipPath id="bx"><path fill="none" d="M0 0h21.771v21.772H0z"/></clipPath><clipPath id="by"><path fill="none" d="M0 0h21.609v21.609H0z"/></clipPath><clipPath id="bz"><path fill="none" d="M0 0h21.446v21.446H0z"/></clipPath><clipPath id="bA"><path fill="none" d="M0 0h21.284v21.284H0z"/></clipPath><clipPath id="bB"><path fill="none" d="M0 0h21.122v21.122H0z"/></clipPath><clipPath id="bC"><path fill="none" d="M0 0h20.959v20.959H0z"/></clipPath><clipPath id="bD"><path fill="none" d="M0 0h20.797v20.797H0z"/></clipPath><clipPath id="bE"><path fill="none" d="M0 0h20.634v20.634H0z"/></clipPath><clipPath id="bF"><path fill="none" d="M0 0h20.472v20.472H0z"/></clipPath><clipPath id="bG"><path fill="none" d="M0 0h20.309v20.309H0z"/></clipPath><clipPath id="bH"><path fill="none" d="M0 0h20.147v20.147H0z"/></clipPath><clipPath id="bI"><path fill="none" d="M0 0h19.985v19.985H0z"/></clipPath><clipPath id="bJ"><path fill="none" d="M0 0h19.822v19.822H0z"/></clipPath><clipPath id="bK"><path fill="none" d="M0 0h19.659v19.659H0z"/></clipPath><clipPath id="bL"><path fill="none" d="M0 0h19.497v19.497H0z"/></clipPath><clipPath id="bM"><path fill="none" d="M0 0h19.335v19.335H0z"/></clipPath><clipPath id="bN"><path fill="none" d="M0 0h19.172v19.172H0z"/></clipPath><clipPath id="bO"><path fill="none" d="M0 0h19.009v19.009H0z"/></clipPath><clipPath id="bP"><path fill="none" d="M0 0h18.847v18.847H0z"/></clipPath><clipPath id="bQ"><path fill="none" d="M0 0h18.685v18.685H0z"/></clipPath><clipPath id="bR"><path fill="none" d="M0 0h18.522v18.523H0z"/></clipPath><clipPath id="bS"><path fill="none" d="M0 0h18.359v18.359H0z"/></clipPath><clipPath id="bT"><path fill="none" d="M0 0h18.197v18.197H0z"/></clipPath><clipPath id="bU"><path fill="none" d="M0 0h18.035v18.035H0z"/></clipPath><clipPath id="bV"><path fill="none" d="M0 0h17.872v17.873H0z"/></clipPath><clipPath id="bW"><path fill="none" d="M0 0h17.709v17.709H0z"/></clipPath><clipPath id="bX"><path fill="none" d="M0 0h17.547v17.547H0z"/></clipPath><clipPath id="bY"><path fill="none" d="M0 0h17.385v17.385H0z"/></clipPath><clipPath id="bZ"><path fill="none" d="M0 0h17.222v17.223H0z"/></clipPath><clipPath id="ca"><path fill="none" d="M0 0h17.06v17.06H0z"/></clipPath><clipPath id="cb"><path fill="none" d="M0 0h16.897v16.897H0z"/></clipPath><clipPath id="cc"><path fill="none" d="M0 0h16.735v16.735H0z"/></clipPath><clipPath id="cd"><path fill="none" d="M0 0h16.572v16.573H0z"/></clipPath><clipPath id="ce"><path fill="none" d="M0 0h16.41v16.41H0z"/></clipPath><clipPath id="cf"><path fill="none" d="M0 0h16.247v16.247H0z"/></clipPath><clipPath id="cg"><path fill="none" d="M0 0h16.085v16.085H0z"/></clipPath><clipPath id="ch"><path fill="none" d="M0 0h15.923v15.923H0z"/></clipPath><clipPath id="ci"><path fill="none" d="M0 0h15.76v15.76H0z"/></clipPath><clipPath id="cj"><path fill="none" d="M0 0h15.598v15.598H0z"/></clipPath><clipPath id="ck"><path fill="none" d="M0 0h15.435v15.435H0z"/></clipPath><clipPath id="cl"><path fill="none" d="M0 0h15.273v15.273H0z"/></clipPath><clipPath id="cm"><path fill="none" d="M0 0h15.11v15.11H0z"/></clipPath><clipPath id="cn"><path fill="none" d="M0 0h14.948v14.948H0z"/></clipPath><clipPath id="co"><path fill="none" d="M0 0h14.786v14.786H0z"/></clipPath><clipPath id="cp"><path fill="none" d="M0 0h14.623v14.622H0z"/></clipPath><clipPath id="cq"><path fill="none" d="M0 0h14.46v14.46H0z"/></clipPath><clipPath id="cr"><path fill="none" d="M0 0h14.298v14.298H0z"/></clipPath><clipPath id="cs"><path fill="none" d="M0 0h14.136v14.136H0z"/></clipPath><clipPath id="ct"><path fill="none" d="M0 0h13.972v13.972H0z"/></clipPath><clipPath id="cu"><path fill="none" d="M0 0h13.81v13.81H0z"/></clipPath><clipPath id="cv"><path fill="none" d="M0 0h13.648v13.648H0z"/></clipPath><clipPath id="cw"><path fill="none" d="M0 0h13.486v13.486H0z"/></clipPath><clipPath id="cx"><path fill="none" d="M0 0h13.323v13.322H0z"/></clipPath><clipPath id="cy"><path fill="none" d="M0 0h13.16v13.16H0z"/></clipPath><clipPath id="cz"><path fill="none" d="M0 0h12.998v12.998H0z"/></clipPath><clipPath id="cA"><path fill="none" d="M0 0h18.43v21.204H0z"/></clipPath><clipPath id="cB"><path fill="none" d="M0 0h19.657v21.353H0z"/></clipPath><clipPath id="cC"><path d="M159.257 105.17a6.368 6.368 0 00-.259 3.142c.312.033.624.067.971.085a22.365 22.365 0 004.265-.129 7.163 7.163 0 00.572-1.264c.805-2.437.216-4.824-1.316-5.331a1.9 1.9 0 00-.6-.1c-1.4 0-2.932 1.464-3.636 3.591" transform="translate(-158.905 -101.579)" fill="none"/></clipPath><clipPath id="cD"><path fill="none" d="M0 0h4.217v2.963H0z"/></clipPath><clipPath id="cE"><path d="M211.519 105.89a5.538 5.538 0 00.124 4.248 13.872 13.872 0 003.536.469 6.211 6.211 0 001.889-2.883c.806-2.437.216-4.824-1.316-5.33a1.9 1.9 0 00-.6-.1c-1.4 0-2.932 1.463-3.635 3.591" transform="translate(-211.163 -102.299)" fill="none"/></clipPath><clipPath id="cG"><path fill="none" d="M0 0h4.18v2.823H0z"/></clipPath><clipPath id="cH"><path fill="none" d="M0 0h22.363v5.534H0z"/></clipPath><clipPath id="cI"><path fill="none" d="M0 0h9.961v12.454H0z"/></clipPath><clipPath id="cJ"><path fill="none" d="M0 0h.032v.005H0z"/></clipPath><clipPath id="cK"><path d="M222.789 26.333z" transform="translate(-222.789 -26.333)" fill="none"/></clipPath><clipPath id="cL"><path fill="none" d="M0 0h56.793v16.093H0z"/></clipPath><clipPath id="cM"><path fill="none" d="M0 0h.023v.001H0z"/></clipPath><clipPath id="cN"><path fill="none" d="M0 0h10.644v5.031H0z"/></clipPath><linearGradient id="a" x1=".064" y1="1.326" x2=".068" y2="1.326" gradientUnits="objectBoundingBox"><stop offset="0" stop-color="#d3d5dd"/><stop offset="1" stop-color="#b8bcc4"/></linearGradient><linearGradient id="n" x1=".073" y1="1.301" x2=".077" y2="1.301" xlink:href="#a"/><linearGradient id="b" x1="-10.051" y1="24.047" x2="-9.987" y2="24.047" gradientUnits="objectBoundingBox"><stop offset="0" stop-color="#5c3333"/><stop offset="1" stop-color="#231f20"/></linearGradient><linearGradient id="cF" x1="-11.741" y1="22.986" x2="-11.685" y2="22.986" xlink:href="#b"/></defs><g transform="translate(-570 -2051)" clip-path="url(#c)"><path d="M573.54 2189.914c2.25-25.715 14.592-49.163 28.065-69.138 9.774-14.49 24.65-24.946 38.248-35.15 26.454-19.857 56.412-32.521 92.924-29.327 13.1 1.146 27.433 1.898 39.24 6.18 37.36 13.563 62.616 46.668 78.31 82.627 9.922 22.74 18.365 44.136 16.065 70.43-3.007 34.37-22.6 63.887-44.707 87.236-29.681 31.347-68.03 50.447-114.53 46.379-37.522-3.283-67.038-23.795-90.957-49.316-27.547-29.383-46.45-66.575-42.657-109.92z" fill="#deeeff"/><g transform="translate(400 665)" clip-path="url(#d)"><g clip-path="url(#e)" transform="translate(216.533 1419.078)"><g clip-path="url(#e)"><path d="M58.655 260.724c-.145 2.446-.288 4.83-.426 7.128h94.4q.293-3.513.552-7.128z" fill="#363c42"/><path d="M33.644 194.62c4.729.006 9.454.162 14.162.566a125.843 125.843 0 0114.71 2.184c3-19.328 12.64-43.036 17.409-52.42l3.243-34.187c-.9 1.774-41.485-1.1-49.523 83.858" fill="#6d7db3"/><path d="M33.431 174c-2.822 7.757-3.489 20.662-3.1 26.138 0 0 .416 3.737 3.361 3.661 0 0 18.507-2.151 27.42 6.34 0 0 3.981-1.585 5.387-9.378 1.639-9.081 2.763-16.427 2.154-20.473-.915-6.08-32.44-13.926-35.219-6.288" fill="#b6bdce"/><path d="M110.546 78.979c-8.046-.1-13.915 3.642-14.026 8.949l-2.98 24.106c-.112 5.307 8.016 6.092 16.062 6.191s14.635-.808 14.746-6.115l.088-22.809c.111-5.307-5.844-10.223-13.89-10.321" fill="#d78c74"/><path d="M133.001 108.763l5.088 34.944c4.769 9.384 14.412 33.092 17.409 52.421a125.847 125.847 0 0114.71-2.184c4.707-.4 6.627 2.19 11.356 2.184 9.086-88.662-47.66-85.591-48.563-87.365" fill="#6d7db3"/><path d="M127.124 258.27l-5.828 9.582h8.332l5.393-9.582z" fill="#3d4041"/><path d="M81.916 111.577v18.107h53.807v-19.917c-16.136-4.77-38.185-4.727-53.807 1.805" fill="#d78c74"/><path d="M132.741 109.879c-2.288 8.33-13.512 10.272-25.761 10.471-11.541.187-16.781-2.3-18.816-11.161-3.825.661-13.578 3.767-18.985 7.229v151.433h72.719V112.612a84.523 84.523 0 00-9.157-2.733" fill="#dfe5ea"/><path d="M101.094 124.573c-.49-2.417-7.774-9.4-9.314-16.108-6.926 0-20.733 5.632-24.957 9.761-9.04 8.835-9.148 30.515-10.008 62.022-.882 32.333-.932 30.752-4.756 87.6h41.243c-.974-50.641 7.119-136.362 7.792-143.279M157.093 138.143c0-3.049.553-23.984-19.755-28.2-1.4-.4-7.833-2.087-9.324-2.479-1.339 7.97-4.576 6.37-14.093 16.913-.86 8.613-7.283 74.854-6.865 143.472h51.612c-2.6-37.237-1.655-99.334-1.576-129.709" fill="#6d7db3"/><g clip-path="url(#f)" transform="translate(86.523 108.837)" opacity=".08"><path d="M1.562.014s-3.507 15.793-.011 22.664c0 0 .9-9.877 5.245-8.159 2.887 1.141 5.718 5.248 7.315 7.817.216-3.438.375-5.743.459-6.6-.475-2.343-7.315-8.977-9.14-15.487A20.408 20.408 0 001.561.014" fill="#002a3d"/></g><path d="M86.14 215.568c1.98-42.5 8.522-92.343 9.428-99.112a50.18 50.18 0 01-.572-.869l-2.727-.374c-.074.54-7.436 54.567-9.562 100.195-1.008 21.645-1.064 39.446-.842 52.443h3.436c-.222-12.994-.168-30.676.839-52.283M118.461 215.827c.108-47.668 5.747-98.571 5.8-99.079l-2.079-.233c-.46.381-.956.794-1.486 1.246-.9 8.524-5.576 54.618-5.675 98.059-.049 21.442.526 39.041 1.178 52.031h3.439c-.652-12.99-1.23-30.544-1.181-52.024" fill="#7588bc"/><g clip-path="url(#g)" transform="translate(113.117 108.839)" opacity=".08"><path d="M17.319.013a19.5 19.5 0 00-2.721.1c-1.5 6.326-4.918 5.6-13.795 15.433-.106 1.059-.586 4.44-.8 8.489 2.919-3.051 9.652-8.55 12.085-9.512 4.346-1.718 5.245 8.159 5.245 8.159 3.5-6.871-.01-22.663-.011-22.664" fill="#002a3d"/></g><path d="M63.339 140.185l-1.74 3.62 29.944-5.037-.553-3.391zM94.832 101.579s-2.463 1.414-7.188 7.863-.429 19.783-.429 19.783.716-3.149 2.294-8.424c2.32-7.754 11.584 3.772 11.584 3.772a24.9 24.9 0 00-2.712-8.794c-4.574-8.113-3.549-14.2-3.549-14.2" fill="#7588bc"/><g clip-path="url(#h)" transform="translate(91.593 101.579)" opacity=".11"><path d="M3.239.001s-5.225 6.076-2.4 16.548c3.579.122 8.666 6.446 8.666 6.446A24.9 24.9 0 006.792 14.2C2.219 6.088 3.243 0 3.243 0" fill="#fff"/></g><path d="M92.401 182.119a2.055 2.055 0 102.3 2.04 2.182 2.182 0 00-2.3-2.04M89.824 213.04a2.055 2.055 0 102.3 2.04 2.182 2.182 0 00-2.3-2.04M88.965 237.088a2.055 2.055 0 102.3 2.04 2.183 2.183 0 00-2.3-2.04M88.965 261.997a2.055 2.055 0 102.3 2.04 2.182 2.182 0 00-2.3-2.04M96.695 132.298a2.055 2.055 0 102.3 2.04 2.182 2.182 0 00-2.3-2.04M94.389 155.362a2.055 2.055 0 102.3 2.04 2.182 2.182 0 00-2.3-2.04" fill="#b0b5c1"/><path fill="#7588bc" d="M120.374 138.064l.695-3.364 27.795 5.74-.695 3.364zM124.385 102.629s-.239 3.16-3.816 9.346c-2.327 4.025-6.012 7.3-6.679 12.733 0 0 12.8-11.661 15.122-3.908 1.578 5.276 2.294 8.425 2.294 8.425s4.294-13.336-.43-19.784-6.491-6.812-6.491-6.812"/><g clip-path="url(#i)" transform="translate(113.89 102.629)" opacity=".11"><path d="M6.679 9.346C4.352 13.371.666 16.646 0 22.079c0 0 5.991-5.455 10.519-6.421C13.861 6.606 10.495 0 10.495 0s-.239 3.16-3.816 9.346" fill="#fff"/></g><path d="M58.034 148.319c-.666 9.063-.887 19.76-1.22 31.929l-.172 6.245c4.131-52.995 14.8-69.4 18.21-73.372a15.686 15.686 0 00-6.779 3.211c-2.918 5.683-7.039 16.464-10.039 31.987M136.64 109.539c2.945 2.593 11.833 16.178 16.14 83.815l3.453-.219c-3.309-51.95-9.623-73.988-14.335-82.527a19.877 19.877 0 00-5.259-1.068M61.406 183.158a5.342 5.342 0 002.543 4.951l4.925 3.009a4.21 4.21 0 004.449-.037l6.4-4.06a5.18 5.18 0 002.389-3.98l1.536-20.157H62.896zM124.145 165.192v20a5.893 5.893 0 002.5 4.813l4.187 2.953a6.113 6.113 0 007.389-.259l6.15-5.02a7.394 7.394 0 002.716-5.978l-.561-16.509z" fill="#7588bc"/></g><g clip-path="url(#j)" transform="translate(2.366 135.672)"><path transform="rotate(-16.973 12.21 81.837)" fill="url(#a)" d="M0 0h120.437v109.321H0z"/></g><g clip-path="url(#e)"><g clip-path="url(#k)" transform="translate(2.367 135.672)" opacity=".5"><path d="M66.26 1.893c2.6-.217 2.432-1.9.375-1.893L2.967.487A3.063 3.063 0 00-.001 2.441l.535 1.346z" fill="#fff"/></g><g clip-path="url(#l)" transform="translate(54.315 145.346)" opacity=".11"><path d="M102.875 85.032c-.218-11.241-.306-22.961-.326-34.385a46.469 46.469 0 00-8.584 4.107s-3.014 2.411-12.314 3.358c-6.937.707-15.889-.278-19.992-.825-.572-.079-3.251-.492-4.284-1.432-1.772-1.612-4.082-10.028-5.517-10.775s-11.538-6.372-13.089-8.151-2.64-5.167-4.334-4.994a3.012 3.012 0 00-2.62 2.28L20.254 3.349A4.9 4.9 0 0015.593.001L3.95.09c-.852 9.648-1.084 21.327-1.452 34.813-.658 24.129-.853 29.375-2.5 54.109l48.641-.442c2.071-.159 2.485-2.878 2.127-3.833l-.76-1.99a9.908 9.908 0 003.4-3.3c2.116-2.292 5.311-.9 5.311-.9 8.121 4.454 29.66 7.243 44.153 6.49M36.644 47.126l-.219-.586c.375.392.618.613.618.613s-.145-.011-.4-.027" fill="#2a3456"/></g></g><g clip-path="url(#m)" transform="translate(2.224 136.973)"><path transform="rotate(-18.922 13.4 81.936)" fill="url(#n)" d="M0 0h121.705v111.364H0z"/></g><g clip-path="url(#e)"><g clip-path="url(#o)" transform="translate(64.564 166.357)" opacity=".33"><path d="M19.199 0c-.4 1.735-.9 5.046.307 7.264a22.4 22.4 0 003.324 4.743 18.852 18.852 0 00-6.538 0c-2.646.692-9.5 4.236-11.152 5.984a4.486 4.486 0 00.992 6.852s-5.01 1.512-5.907 3.875a3.338 3.338 0 001.181 3.828s-1.991 3.892 3.781 5.671c0 0-.331 1.843 4.631 4.3 4.8 2.378 18.561 11.391 28.066 8.565a2.734 2.734 0 00-.167-1.547z" fill="#949baf"/></g><path d="M89.663 179.45s-4.248-3.846-5.224-8.668.919-6.372 2.612-6.544 2.784 3.215 4.334 4.994 11.653 7.406 13.088 8.151 3.746 9.163 5.518 10.775c1.159 1.055 4.4 1.447 4.4 1.447l-2.829 21.243s-3.306-1.37-5.422.921c-.964 1.045-2.756 4.822-8.611 3.9s-22.044-8.152-24-9.53-1.722-2.7-1.722-2.7-4.478-.516-5.052-2.41.345-2.354.345-2.354-2.124-1.608-1.378-3.5 8.668-4.363 9.931-4.707 10.333-.688 10.333-.688-3.731-1.493-5.741-1.034-7.692 2.354-9.013.976-1.984-2.7-.848-4.765 9.468-5.356 10.665-5.511a57.076 57.076 0 018.611 0" fill="#e5a185"/><g clip-path="url(#p)" transform="translate(65.565 164.231)" opacity=".3"><path d="M44.425 23.927c-1.559-1.364-4.082-10.029-5.517-10.775S27.37 6.78 25.819 5.001 23.179-.166 21.485.006s-3.589 1.722-2.612 6.544 5.224 8.668 5.224 8.668a57.077 57.077 0 00-8.611 0c-1.2.155-9.529 3.445-10.665 5.511s-.472 3.387.848 4.765 7-.517 9.013-.975 5.741 1.033 5.741 1.033-9.07.344-10.333.688S.906 29.053.159 30.947s1.377 3.5 1.377 3.5-.918.459-.344 2.354 5.052 2.411 5.052 2.411-.23 1.321 1.722 2.7 18.14 8.611 24 9.529 7.6-2.907 8.611-3.9c2.258-2.221 5.422-.921 5.422-.921l2.829-21.242s-3.219-.416-4.4-1.447m-6.047-5.373a2.6 2.6 0 01-.064.405 12.282 12.282 0 01-1.249 2.373 4.624 4.624 0 00-.449 2.576c.17 1.465 1.035 2.792 1.129 4.264a4.2 4.2 0 01-.844 2.788c-.9 1.181-2.451 1.914-2.882 3.337a6.033 6.033 0 00.221 2.953 3.391 3.391 0 01-.356 2.871c-.285.344-.688.58-.947.944-.547.768-.3 1.815-.339 2.757a4.906 4.906 0 01-2.56 3.953c-2.233 1.239-4.295.573-6.5-.213a178.693 178.693 0 01-6.1-2.322c-2.768-1.105-5.6-2.171-8.275-3.5a3.172 3.172 0 01-1.78-1.8s17.8 3.179 17.91 2.949.287-1.148 0-1.263-19.272-3.2-20.9-3.272a2.469 2.469 0 01-2.3-2.583c.115-.919 19.862.286 24.454-1.78l-.574-1.148a44.181 44.181 0 01-12.095 1.316c-6.6-.23-11.654.517-12.343-1.148s.861-3.157 4.133-4.363 7.922-1.722 12.974-1.78a35.713 35.713 0 009.873-1.722l-.344-1.722s-5.282 1.206-8.3.4-4.678-1.378-8.525.057-5.179.172-5.855-1.492 7.463-5.569 10.735-6.085a60.911 60.911 0 018.011-.378c1.443-.034 2.888-.069 4.327-.173 1.675-.121 3.2-.743 4.877-.877a5.291 5.291 0 013.535.847 3.319 3.319 0 011.4 2.829" fill="#d78c74"/></g><path d="M183.383 198.657c-.672 11.334-9.914 20.511-20.644 20.5s-18.883-9.216-18.211-20.551 9.915-20.511 20.644-20.495 18.883 9.216 18.211 20.55" fill="#b6bdce"/><g clip-path="url(#q)" transform="translate(11.585 163.314)" opacity=".33"><path d="M23.958 20.095c-.5-1.952-2.819-2.531-2.819-2.531 3.5-2.02 1.7-5.4.2-6.408S6.671 8.53 6.671 8.53c10.7-1.211 9.365-6.733 7.278-7.81C12.137-.215 2.517-.034 0 .143l12.608 32.4c3.541-.618 7.29-1.281 8.966-3.213a3.107 3.107 0 00.2-4.122 4.659 4.659 0 002.18-5.111" fill="#949baf"/></g><path d="M5.669 170.968s-.838-7.373 4.272-8.215 14.241-.937 15.281.45c1.061 1.414 1.177 4.064-2.08 5.131s-7.221 1.726-7.557 2.288a3.077 3.077 0 00-.221 1.571c6.968.339 8.116.851 14.987 2.157a4.783 4.783 0 012.54 1.034 3.082 3.082 0 01.419 3.468 5.958 5.958 0 01-2.672 2.512c1.327.119 2.82.327 3.609 1.4a3.027 3.027 0 01.164 3.009 6.119 6.119 0 01-2.1 2.313c.769.472.543 2.578-.289 3.615-1.676 2.087-6.1 2.17-8.465 2.433 1.622 4.377 3.239 9.008 4.88 13.383-.139-.07-6.207-7.383-8.618-8.309-3.536-1.358-4.507-.851-9.163-2.932-5.683-2.541-6.853-5.155-7.13-7.436-.291-2.4-2.415-3.008-2.92-4.749s1.067-1.909 0-4.268-.668-4.339.864-7.023c.808-1.415 4.205-1.832 4.205-1.832M112.04 189.268s12.927 2.093 22.226 1.146 12.314-3.358 12.314-3.358 19.764-12.7 28.8-.97c8.691 11.284 1.318 25.128-8.535 29.31-10.616 4.506-47.224 1.115-56.438-5.257s1.638-20.871 1.638-20.871" fill="#e5a185"/><g clip-path="url(#r)" transform="translate(106.692 181.115)" opacity=".3"><path d="M68.682 4.972c-9.031-11.726-28.8.97-28.8.97S36.869 8.352 27.569 9.3 5.342 8.154 5.342 8.154s-10.851 14.5-1.637 20.871 45.821 9.763 56.438 5.257c9.853-4.182 17.225-18.026 8.535-29.31m-8.889 11.284c-11.436 8.481-35.274 4.944-43.928 2.857-8.622-2.079-7.536-9.026 2.484-7.75 9.043 1.152 19.048-1.126 28.685-6.332 9.31-5.03 20.484 5.5 12.759 11.225" fill="#d78c74"/></g><g clip-path="url(#s)" transform="translate(0 162.136)" opacity=".3"><path d="M34.247 20.628c-.789-1.073-2.282-1.282-3.609-1.4a5.961 5.961 0 002.673-2.511 3.082 3.082 0 00-.419-3.468 4.78 4.78 0 00-2.541-1.034c-6.871-1.306-8.019-1.819-14.987-2.157a3.079 3.079 0 01.221-1.572c.337-.561 4.3-1.221 7.558-2.288s3.14-3.717 2.08-5.132C24.183-.321 15.052-.226 9.942.616S5.67 8.831 5.67 8.831s-3.4.417-4.205 1.832C-.069 13.348-.467 15.328.6 17.687s-.505 2.527 0 4.267 2.629 2.352 2.92 4.749c.277 2.281 1.448 4.9 7.131 7.436 4.656 2.082 5.627 1.575 9.163 2.932 2.41.925 8.617 8.309 8.617 8.309-1.641-4.376-3.257-9.006-4.88-13.384 2.369-.263 6.79-.345 8.465-2.433.832-1.037 1.058-3.143.289-3.615a6.113 6.113 0 002.1-2.312 3.028 3.028 0 00-.164-3.01M7.422 3.299c.442-1.122.674-2.3 6.845-2.3s9.458-.312 10.057.983c.944 2.045-1.182 3.524-7.908 4.078S6.701 5.129 7.422 3.3m23.62 21.776c-1.715.238-15.062-1.429-20.7-1.71.051.507.107 1.012.172 1.513 4.832.318 19.62 1.329 20.047 1.825.971 1.127.277 3.305-6.033 3.5s-14.854 1.167-17.681-.2-1.317-3.823-2.565-5.217-2.5-2.78-2.149-5 .565-3.125-.629-4.858c0 0-.587-4.793 3.3-5.169s25.361 2.745 26.124 3.508 1.726 3.65-.979 4.564c-2.454.83-17.533-.692-20.3-.981.069.424.127.851.18 1.279 3.8.3 22.147 1.766 22.954 2.665.9 1 .133 4.019-1.739 4.279" fill="#d78c74"/></g><path d="M12.536 143.044c.3 1.109-.153 2.017-1.013 2.025a2.546 2.546 0 01-2.1-1.993c-.3-1.11.153-2.017 1.013-2.026a2.546 2.546 0 012.1 1.993" fill="#e6e8ed"/><path d="M12.037 143.05c.2.754-.1 1.371-.688 1.377a1.731 1.731 0 01-1.429-1.355c-.2-.754.1-1.371.688-1.377a1.731 1.731 0 011.43 1.355" fill="#3d3e3f"/><g clip-path="url(#t)" transform="translate(9.863 141.97)" opacity=".09"><path d="M2.173 1.08Q1.189.547.208 0a1.168 1.168 0 00-.182.95c.685.383 1.364.782 2.041 1.185a1.3 1.3 0 00.105-1.055" fill="#fff"/></g><path d="M76.069 58.159c-3.45 1.132-5.232 6.179-3.98 11.273s5.064 8.305 8.514 7.174 5.232-6.179 3.98-11.273-5.064-8.305-8.514-7.174" fill="#d78c74"/><path d="M97.035 12.84s0-.057-.018-.154c.01.1.018.154.018.154" fill="#381911"/><path d="M139.048 65.237c.038-12.27-1.755-27.788-4.254-36.925-1.932-11.88-35.451-17.5-45.326-1.18-3.146 7.567-8.265 21.688-9.969 35.714 0-.15.005-.24.005-.24s-9.127 37.306 24.066 39.625 36.892-15.186 35.479-37z" fill="#e5a185"/><g clip-path="url(#u)" transform="translate(79.169 56.86)" opacity=".38"><g clip-path="url(#u)"><path d="M12.112.001C5.522-.09.1 5.656.001 12.834s5.163 13.07 11.753 13.161 12.012-5.654 12.111-12.832S18.701.093 12.112.002" fill="#e5a185"/></g><g clip-path="url(#v)" transform="translate(.075 .082)"><path d="M12.036.001C5.487-.089.099 5.62.001 12.753s5.131 12.989 11.68 13.079 11.937-5.619 12.035-12.752S18.585.092 12.036.001" fill="#e5a084"/></g><g clip-path="url(#w)" transform="translate(.149 .163)"><path d="M11.961.001C5.454-.089.099 5.585.002 12.673s5.1 12.907 11.606 13 11.862-5.584 11.959-12.672-5.1-12.907-11.606-13" fill="#e59f83"/></g><g clip-path="url(#x)" transform="translate(.224 .244)"><path d="M11.885.003C5.419-.086.098 5.552.001 12.595S5.067 25.42 11.534 25.509s11.787-5.549 11.884-12.592S18.352.092 11.885.003" fill="#e49e83"/></g><g clip-path="url(#y)" transform="translate(.298 .325)"><path d="M11.81.001C5.385-.087.099 5.514.002 12.513s5.034 12.743 11.459 12.832 11.712-5.513 11.808-12.512S18.234.09 11.809.001" fill="#e49d82"/></g><g clip-path="url(#z)" transform="translate(.373 .407)"><path d="M11.735 0C5.351-.088.098 5.478.003 12.432s5 12.662 11.386 12.75 11.637-5.478 11.732-12.432S18.121.088 11.735 0" fill="#e49c81"/></g><g clip-path="url(#A)" transform="translate(.447 .488)"><path d="M11.658.001C5.315-.086.096 5.443.001 12.352s4.97 12.58 11.313 12.667 11.562-5.442 11.657-12.351S18.001.088 11.658.001" fill="#e49b80"/></g><g clip-path="url(#B)" transform="translate(.522 .569)"><path d="M11.582.001C5.282-.086.096 5.408.001 12.272s4.938 12.5 11.239 12.585 11.486-5.407 11.581-12.271S17.883.086 11.582.001" fill="#e49a80"/></g><g clip-path="url(#C)" transform="translate(.597 .65)"><path d="M11.507.001C5.246-.085.096 5.373.001 12.192s4.905 12.417 11.166 12.5 11.411-5.371 11.5-12.191S17.767.084 11.502.001" fill="#e3997f"/></g><g clip-path="url(#D)" transform="translate(.671 .732)"><path d="M11.431.001C5.212-.085.094 5.337.001 12.112s4.872 12.331 11.092 12.421 11.336-5.337 11.43-12.111S17.65.087 11.431.002" fill="#e3987e"/></g><g clip-path="url(#E)" transform="translate(.746 .813)"><path d="M11.356 0C5.178-.085.095 5.3.002 12.03s4.84 12.254 11.018 12.339 11.261-5.3 11.354-12.03S17.534.085 11.356 0" fill="#e3977d"/></g><g clip-path="url(#F)" transform="translate(.821 .894)"><path d="M11.279.001C5.142-.083.093 5.267.001 11.951s4.808 12.172 10.945 12.256 11.186-5.266 11.278-11.95S17.416.085 11.279.001" fill="#e3967c"/></g><g clip-path="url(#G)" transform="translate(.895 .975)"><path d="M11.204.001C5.104-.083.093 5.231.004 11.871s4.776 12.09 10.872 12.174 11.111-5.23 11.2-11.87S17.3.085 11.204.001" fill="#e2957c"/></g><g clip-path="url(#H)" transform="translate(.97 1.056)"><path d="M11.128 0C5.074-.083.092 5.2.001 11.79s4.744 12.008 10.8 12.091 11.036-5.2 11.127-11.79S17.184.082 11.128-.001" fill="#e2947b"/></g><g clip-path="url(#I)" transform="translate(1.044 1.138)"><path d="M11.052 0C5.039-.083.091 5.16.001 11.71s4.711 11.927 10.725 12.01 10.961-5.16 11.052-11.71S17.066.083 11.053 0" fill="#e2937a"/></g><g clip-path="url(#J)" transform="translate(1.119 1.219)"><path d="M10.976.001C5.004-.081.09 5.126.001 11.63S4.68 23.475 10.652 23.557s10.886-5.125 10.976-11.63S16.948.082 10.976 0" fill="#e29279"/></g><g clip-path="url(#K)" transform="translate(1.193 1.3)"><path d="M10.901.001C4.97-.081.09 5.09.001 11.55s4.647 11.763 10.578 11.845 10.811-5.089 10.9-11.549S16.832.082 10.901.001" fill="#e29179"/></g><g clip-path="url(#L)" transform="translate(1.268 1.381)"><path d="M10.825-.003C4.935-.084.089 5.051.001 11.466s4.614 11.681 10.5 11.762 10.736-5.054 10.824-11.469S16.711.077 10.825-.004" fill="#e19078"/></g><g clip-path="url(#M)" transform="translate(1.342 1.463)"><path d="M10.75.001C4.902-.08.089 5.02.002 11.39s4.582 11.6 10.431 11.68 10.661-5.018 10.748-11.389S16.598.081 10.75.001" fill="#e18f77"/></g><g clip-path="url(#N)" transform="translate(1.417 1.544)"><path d="M10.674.001C4.867-.079.088 4.985.002 11.31s4.55 11.518 10.357 11.6 10.586-4.983 10.672-11.309S16.481.083 10.674.001" fill="#e18e76"/></g><g clip-path="url(#O)" transform="translate(1.491 1.625)"><path d="M10.599.001C4.833-.078.088 4.949-.001 11.229s4.518 11.436 10.284 11.516 10.51-4.948 10.6-11.228S16.366.081 10.6.001" fill="#e18d75"/></g><g clip-path="url(#P)" transform="translate(1.566 1.706)"><path d="M10.523 0C4.798-.079.088 4.913.001 11.148s4.486 11.355 10.211 11.434 10.435-4.913 10.521-11.148S16.247.079 10.523 0" fill="#e18c75"/></g><g clip-path="url(#Q)" transform="translate(1.641 1.787)"><path d="M10.448 0C4.764-.078.087 4.877.002 11.068S4.455 22.34 10.139 22.419s10.36-4.877 10.445-11.068S16.131.078 10.447 0" fill="#e08b74"/></g><g clip-path="url(#R)" transform="translate(1.715 1.869)"><path d="M10.368.001C4.726-.077.082 4.843-.002 10.989S4.419 22.18 10.061 22.258s10.286-4.842 10.37-10.988S16.014.079 10.368.001" fill="#e08a73"/></g><g clip-path="url(#S)" transform="translate(1.79 1.95)"><path d="M10.296.001C4.696-.076.086 4.808.002 10.908s4.389 11.11 9.99 11.187 10.21-4.806 10.295-10.907S15.898.078 10.297.001" fill="#e08972"/></g><g clip-path="url(#T)" transform="translate(1.865 2.031)"><path d="M10.22 0C4.66-.077.085 4.771.001 10.827s4.357 11.028 9.917 11.1S20.053 17.156 20.137 11.1 15.781.072 10.22 0" fill="#e08872"/></g><g clip-path="url(#U)" transform="translate(1.939 2.112)"><path d="M10.144.001C4.625-.075.084 4.737.001 10.748S4.325 21.694 9.844 21.77s10.06-4.736 10.143-10.747S15.662.077 10.144.001" fill="#df8771"/></g><g clip-path="url(#V)" transform="translate(2.014 2.193)"><path d="M10.068.001C4.591-.074.083 4.701.001 10.668s4.292 10.865 9.77 10.94 9.985-4.7 10.067-10.667S15.546.076 10.068.001" fill="#df8670"/></g><g clip-path="url(#W)" transform="translate(2.089 2.275)"><path d="M9.992.001C4.555-.074.082 4.666 0 10.588s4.26 10.783 9.7 10.858 9.91-4.665 9.991-10.587S15.432.076 9.991.001" fill="#df856f"/></g><g clip-path="url(#X)" transform="translate(2.163 2.356)"><path d="M9.917 0C4.517-.074.082 4.63.002 10.506s4.227 10.7 9.622 10.776 9.835-4.63 9.916-10.507S15.313.075 9.917 0" fill="#df846f"/></g><g clip-path="url(#Y)" transform="translate(2.238 2.437)"><path d="M9.841 0C4.487-.074.082 4.595.001 10.426s4.195 10.62 9.55 10.693 9.759-4.594 9.84-10.426S15.191.073 9.841 0" fill="#df836e"/></g><g clip-path="url(#Z)" transform="translate(2.312 2.518)"><path d="M9.766.001C4.453-.072.081 4.56.002 10.347s4.162 10.538 9.475 10.611 9.685-4.559 9.765-10.346S15.079.074 9.766.001" fill="#de826d"/></g><g clip-path="url(#aa)" transform="translate(2.387 2.6)"><path d="M9.69.001C4.418-.072.08 4.525.001 10.267s4.131 10.456 9.4 10.528 9.61-4.524 9.689-10.266S14.96.073 9.69.001" fill="#de816c"/></g><g clip-path="url(#ab)" transform="translate(2.461 2.681)"><path d="M9.614.005C4.383-.067.08 4.493.001 10.191s4.1 10.374 9.33 10.446 9.534-4.488 9.613-10.186S14.844.077 9.615.005" fill="#de806b"/></g><g clip-path="url(#ac)" transform="translate(2.536 2.762)"><path d="M9.538.001C4.349-.07.078 4.454.001 10.106s4.066 10.293 9.255 10.365 9.46-4.453 9.537-10.106S14.727.072 9.538.001" fill="#de7f6b"/></g><g clip-path="url(#ad)" transform="translate(2.61 2.843)"><path d="M9.463.001C4.314-.07.079 4.419.001 10.026s4.034 10.211 9.182 10.282 9.385-4.418 9.462-10.025S14.611.072 9.463.001" fill="#de7e6a"/></g><g clip-path="url(#ae)" transform="translate(2.685 2.924)"><path d="M9.387.001C4.28-.069.078 4.383.001 9.946s4 10.129 9.108 10.2 9.31-4.382 9.386-9.945-4-10.129-9.108-10.2" fill="#dd7d69"/></g><g clip-path="url(#af)" transform="translate(2.759 3.006)"><path d="M9.312 0C4.246-.07.078 4.347.002 9.865s3.97 10.048 9.035 10.117 9.234-4.347 9.31-9.865S14.378.069 9.312 0" fill="#dd7c68"/></g><g clip-path="url(#ag)" transform="translate(2.834 3.087)"><path d="M9.236 0C4.211-.069.077 4.312.002 9.784S3.939 19.75 8.964 19.82s9.159-4.312 9.235-9.785S14.262.069 9.237 0" fill="#dd7b68"/></g><g clip-path="url(#ah)" transform="translate(2.909 3.168)"><path d="M9.164 0C4.18-.068.08 4.277.005 9.705s3.9 9.884 8.888 9.953 9.084-4.276 9.159-9.705S14.152.069 9.164 0" fill="#dd7a67"/></g><g clip-path="url(#ai)" transform="translate(2.983 3.249)"><path d="M9.084.003C4.142-.065.075 4.244 0 9.628s3.873 9.8 8.815 9.87 9.009-4.241 9.083-9.624S14.025.074 9.083.003" fill="#dd7a66"/></g><g clip-path="url(#aj)" transform="translate(3.058 3.331)"><path d="M9.009 0C4.109-.067.075 4.205.001 9.544s3.84 9.721 8.742 9.788 8.934-4.205 9.008-9.544S13.911.067 9.009 0" fill="#dc7965"/></g><g clip-path="url(#ak)" transform="translate(3.133 3.412)"><path d="M8.933.001C4.073-.066.074 4.171.001 9.464s3.807 9.64 8.668 9.707 8.858-4.17 8.932-9.464S13.793.068 8.933.001" fill="#dc7864"/></g><g clip-path="url(#al)" transform="translate(3.207 3.493)"><path d="M8.857.001C4.038-.065.073 4.136.001 9.385s3.776 9.558 8.595 9.624 8.784-4.135 8.856-9.384S13.677.067 8.858.001" fill="#dc7764"/></g><g clip-path="url(#am)" transform="translate(3.282 3.575)"><path d="M8.781 0C4.003-.066.072 4.1.001 9.3s3.743 9.476 8.52 9.542 8.709-4.1 8.781-9.3S13.559.066 8.781 0" fill="#dc7663"/></g><g clip-path="url(#an)" transform="translate(3.356 3.656)"><path d="M8.706 0C3.969-.065.072 4.064.006 9.223s3.711 9.394 8.447 9.46 8.634-4.064 8.7-9.223S13.442.066 8.706 0" fill="#db7562"/></g><g clip-path="url(#ao)" transform="translate(3.431 3.737)"><path d="M8.63 0C3.93-.065.072 4.029.001 9.143s3.679 9.313 8.374 9.377 8.559-4.029 8.629-9.143S13.325.064 8.63 0" fill="#db7461"/></g><g clip-path="url(#ap)" transform="translate(3.505 3.818)"><path d="M8.555 0C3.901-.064.071 3.994.002 9.064s3.646 9.231 8.3 9.3 8.484-3.993 8.554-9.063-3.647-9.231-8.3-9.3" fill="#db7361"/></g><g clip-path="url(#aq)" transform="translate(3.58 3.899)"><path d="M8.48.001C3.867-.063.071 3.959.002 8.984s3.615 9.149 8.227 9.213 8.409-3.958 8.478-8.983S13.092.065 8.48.001" fill="#db7260"/></g><g clip-path="url(#ar)" transform="translate(3.655 3.981)"><path d="M8.402 0C3.83-.063.069 3.923.002 8.9s3.582 9.067 8.154 9.13 8.333-3.923 8.4-8.9S12.974.062 8.402-.001" fill="#db715f"/></g><g clip-path="url(#as)" transform="translate(3.729 4.062)"><path d="M8.327 0C3.797-.062.069 3.887.001 8.823s3.55 8.985 8.08 9.048 8.258-3.887 8.326-8.822S12.857.063 8.327.001" fill="#da705e"/></g><g clip-path="url(#at)" transform="translate(3.804 4.143)"><path d="M8.251.001C3.761-.061.067 3.853.001 8.743s3.517 8.9 8.007 8.966 8.183-3.852 8.25-8.742S12.741.067 8.251.001" fill="#da6f5d"/></g><g clip-path="url(#au)" transform="translate(3.878 4.225)"><path d="M8.176 0C3.728-.061.068 3.817.001 8.662s3.485 8.823 7.933 8.884 8.108-3.817 8.174-8.662S12.623.061 8.175 0" fill="#da6e5d"/></g><g clip-path="url(#av)" transform="translate(3.953 4.306)"><path d="M8.1 0C3.693-.061.067 3.781 0 8.582s3.453 8.741 7.86 8.8 8.033-3.782 8.1-8.582S12.507.059 8.1 0" fill="#da6d5c"/></g><g clip-path="url(#aw)" transform="translate(4.027 4.387)"><path d="M8.024-.003C3.659-.063.066 3.743.001 8.497s3.42 8.659 7.786 8.719 7.958-3.746 8.024-8.5S12.39.057 8.024-.003" fill="#da6c5b"/></g><g clip-path="url(#ax)" transform="translate(4.102 4.468)"><path d="M7.948.001C3.623-.059.066 3.712 0 8.422S3.388 17 7.713 17.059s7.883-3.711 7.948-8.422S12.273.06 7.948 0" fill="#d96b5a"/></g><g clip-path="url(#ay)" transform="translate(4.177 4.55)"><path d="M7.873 0C3.59-.059.065 3.675.001 8.341s3.356 8.5 7.639 8.555 7.808-3.676 7.872-8.341-3.356-8.5-7.64-8.554" fill="#d96a5a"/></g><g clip-path="url(#az)" transform="translate(4.251 4.631)"><path d="M7.796 0C3.554-.058.063 3.64-.004 8.261s3.324 8.414 7.566 8.472 7.733-3.64 7.8-8.261S12.038.058 7.796 0" fill="#d96959"/></g><g clip-path="url(#aA)" transform="translate(4.326 4.712)"><path d="M7.721 0C3.521-.058.064 3.6 0 8.181s3.292 8.332 7.493 8.39 7.658-3.6 7.72-8.181S11.922.058 7.721 0" fill="#d96858"/></g><g clip-path="url(#aB)" transform="translate(4.401 4.793)"><path d="M7.645.001C3.485-.056.063 3.57 0 8.101s3.259 8.25 7.419 8.308 7.582-3.57 7.645-8.1S11.804.059 7.645.001" fill="#d86757"/></g><g clip-path="url(#aC)" transform="translate(4.475 4.875)"><path d="M7.57.001C3.451-.056.062 3.535 0 8.021s3.227 8.169 7.346 8.226 7.508-3.534 7.569-8.02S11.688.058 7.57.001" fill="#d86657"/></g><g clip-path="url(#aD)" transform="translate(4.55 4.956)"><path d="M7.495.001C3.418-.055.063 3.501.002 7.941s3.194 8.087 7.272 8.143 7.432-3.5 7.493-7.94S11.572.057 7.495.001" fill="#d86556"/></g><g clip-path="url(#aE)" transform="translate(4.624 5.037)"><path d="M7.419.001C3.383-.055.062 3.464.001 7.861s3.163 8.005 7.2 8.061 7.357-3.463 7.418-7.86S11.456.057 7.419.001" fill="#d86455"/></g><g clip-path="url(#aF)" transform="translate(4.699 5.118)"><path d="M7.343.001c-4-.055-7.282 3.428-7.342 7.78s3.13 7.924 7.125 7.979 7.282-3.428 7.342-7.78S11.338.056 7.343.001" fill="#d86354"/></g><g clip-path="url(#aG)" transform="translate(4.773 5.2)"><path d="M7.268 0C3.314-.054.061 3.393.001 7.7s3.1 7.842 7.052 7.9 7.207-3.392 7.266-7.7S11.219.058 7.267 0" fill="#d76253"/></g><g clip-path="url(#aH)" transform="translate(4.848 5.281)"><path d="M7.192.001C3.279-.053.06 3.358.001 7.62s3.066 7.761 6.978 7.814 7.133-3.358 7.191-7.619S11.104.054 7.191.001" fill="#d76153"/></g><g clip-path="url(#aI)" transform="translate(4.922 5.362)"><path d="M7.113.001C3.242-.052.056 3.323-.002 7.54s3.033 7.679 6.9 7.732 7.057-3.322 7.115-7.539S10.98.054 7.113.001" fill="#d76052"/></g><g clip-path="url(#aJ)" transform="translate(4.997 5.443)"><path d="M7.04.001C3.21-.052.058 3.288 0 7.46s3 7.6 6.832 7.65 6.982-3.287 7.039-7.459-3-7.6-6.831-7.65" fill="#d75f51"/></g><g clip-path="url(#aK)" transform="translate(5.071 5.525)"><path d="M6.965.001C3.176-.051.058 3.252.001 7.379s2.969 7.516 6.758 7.568 6.907-3.251 6.964-7.378S10.754.053 6.965.001" fill="#d75e50"/></g><g clip-path="url(#aL)" transform="translate(5.146 5.606)"><path d="M6.889.001C3.141-.051.057 3.217.001 7.301s2.936 7.434 6.684 7.485 6.832-3.217 6.888-7.3S10.636.052 6.888.001" fill="#d65d50"/></g><g clip-path="url(#aM)" transform="translate(5.221 5.687)"><path d="M6.814.005C3.107-.046.057 3.185.002 7.223s2.9 7.352 6.611 7.4 6.757-3.181 6.812-7.218-2.9-7.352-6.611-7.4" fill="#d65c4f"/></g><g clip-path="url(#aN)" transform="translate(5.295 5.768)"><path d="M6.737.001C3.071-.049.055 3.146 0 7.139s2.872 7.271 6.538 7.321 6.682-3.146 6.737-7.138S10.403.051 6.737.001" fill="#d65b4e"/></g><g clip-path="url(#aO)" transform="translate(5.37 5.849)"><path d="M6.662.001C3.037-.049.055 3.111.001 7.059s2.839 7.189 6.464 7.238 6.606-3.11 6.661-7.057S10.286.051 6.662.001" fill="#d65a4d"/></g><g clip-path="url(#aP)" transform="translate(5.445 5.931)"><path d="M6.586.001C3.003-.048.054 3.076 0 6.978s2.808 7.107 6.391 7.157 6.532-3.075 6.586-6.978S10.169.05 6.586.001" fill="#d5594c"/></g><g clip-path="url(#aQ)" transform="translate(5.519 6.012)"><path d="M6.51.001a7.012 7.012 0 106.317 7.074A6.718 6.718 0 006.51.001" fill="#d5584c"/></g><g clip-path="url(#aR)" transform="translate(5.594 6.093)"><path d="M6.435.001a6.93 6.93 0 106.243 6.988A6.64 6.64 0 006.434-.003" fill="#d5574b"/></g><g clip-path="url(#aS)" transform="translate(5.669 6.174)"><path d="M6.359.001a6.849 6.849 0 106.17 6.909A6.562 6.562 0 006.359.001" fill="#d5564a"/></g><g clip-path="url(#aT)" transform="translate(5.743 6.255)"><path d="M6.283.002a6.767 6.767 0 106.1 6.827 6.485 6.485 0 00-6.1-6.827" fill="#d55549"/></g><g clip-path="url(#aU)" transform="translate(5.818 6.337)"><path d="M6.207.001a6.686 6.686 0 106.024 6.745A6.406 6.406 0 006.207.001" fill="#d45449"/></g><g clip-path="url(#aV)" transform="translate(5.892 6.418)"><path d="M6.132.001a6.6 6.6 0 105.95 6.663A6.328 6.328 0 006.132.001" fill="#d45348"/></g><g clip-path="url(#aW)" transform="translate(5.967 6.499)"><path d="M6.056.001a6.523 6.523 0 105.876 6.58A6.25 6.25 0 006.056.001" fill="#d45247"/></g></g><g clip-path="url(#aX)" transform="translate(110.39 57.304)" opacity=".38"><g clip-path="url(#aX)"><path d="M13.177.001a13 13 0 1012.818 13.176A13 13 0 0013.177.001" fill="#e5a185"/></g><g clip-path="url(#aY)" transform="translate(.081 .081)"><path d="M13.093.006a12.917 12.917 0 1012.738 13.093A12.917 12.917 0 0013.093.006" fill="#e5a084"/></g><g clip-path="url(#aZ)" transform="translate(.162 .162)"><path d="M13.013.001A12.835 12.835 0 1025.67 13.012 12.835 12.835 0 0013.013.001" fill="#e59f83"/></g><g clip-path="url(#ba)" transform="translate(.243 .244)"><path d="M12.93.001a12.754 12.754 0 1012.577 12.928A12.755 12.755 0 0012.929.001" fill="#e49e83"/></g><g clip-path="url(#bb)" transform="translate(.325 .325)"><path d="M12.847.001a12.673 12.673 0 1012.5 12.846A12.673 12.673 0 0012.847.001" fill="#e49d82"/></g><g clip-path="url(#bc)" transform="translate(.406 .406)"><path d="M12.765.001a12.592 12.592 0 1012.417 12.764A12.592 12.592 0 0012.765.001" fill="#e49c81"/></g><g clip-path="url(#bd)" transform="translate(.487 .487)"><path d="M12.683.002A12.51 12.51 0 1025.02 12.684 12.509 12.509 0 0012.683.002" fill="#e49b80"/></g><g clip-path="url(#be)" transform="translate(.568 .569)"><path d="M12.601.001a12.429 12.429 0 1012.257 12.6A12.429 12.429 0 0012.601.001" fill="#e49a80"/></g><g clip-path="url(#bf)" transform="translate(.65 .65)"><path d="M12.518.003A12.348 12.348 0 1024.69 12.518 12.348 12.348 0 0012.518.003" fill="#e3997f"/></g><g clip-path="url(#bg)" transform="translate(.731 .731)"><path d="M12.436.001a12.267 12.267 0 1012.1 12.434A12.267 12.267 0 0012.436.001" fill="#e3987e"/></g><g clip-path="url(#bh)" transform="translate(.812 .812)"><path d="M12.353.001a12.185 12.185 0 1012.016 12.352A12.186 12.186 0 0012.353.001" fill="#e3977d"/></g><g clip-path="url(#bi)" transform="translate(.893 .894)"><path d="M12.271 0a12.1 12.1 0 1011.936 12.27A12.1 12.1 0 0012.271 0" fill="#e3967c"/></g><g clip-path="url(#bj)" transform="translate(.975 .975)"><path d="M12.188.001a12.023 12.023 0 1011.857 12.187A12.023 12.023 0 0012.188.001" fill="#e2957c"/></g><g clip-path="url(#bk)" transform="translate(1.056 1.056)"><path d="M12.106.001a11.942 11.942 0 1011.777 12.1A11.942 11.942 0 0012.106.001" fill="#e2947b"/></g><g clip-path="url(#bl)" transform="translate(1.137 1.137)"><path d="M12.024.001a11.861 11.861 0 1011.7 12.023A11.861 11.861 0 0012.024.001" fill="#e2937a"/></g><g clip-path="url(#bm)" transform="translate(1.218 1.219)"><path d="M11.942 0a11.779 11.779 0 1011.616 11.94A11.779 11.779 0 0011.942 0" fill="#e29279"/></g><g clip-path="url(#bn)" transform="translate(1.3 1.3)"><path d="M11.858.001a11.7 11.7 0 1011.537 11.856A11.7 11.7 0 0011.859-.001" fill="#e29179"/></g><g clip-path="url(#bo)" transform="translate(1.381 1.381)"><path d="M11.777.001a11.617 11.617 0 1011.455 11.775A11.618 11.618 0 0011.777.001" fill="#e19078"/></g><g clip-path="url(#bp)" transform="translate(1.462 1.462)"><path d="M11.695.001a11.536 11.536 0 1011.376 11.693A11.536 11.536 0 0011.695.001" fill="#e18f77"/></g><g clip-path="url(#bq)" transform="translate(1.543 1.544)"><path d="M11.615 0a11.454 11.454 0 1011.3 11.611A11.456 11.456 0 0011.615 0" fill="#e18e76"/></g><g clip-path="url(#br)" transform="translate(1.625 1.625)"><path d="M11.53.001A11.373 11.373 0 1022.745 11.53 11.373 11.373 0 0011.53.001" fill="#e18d75"/></g><g clip-path="url(#bs)" transform="translate(1.706 1.706)"><path d="M11.448.001a11.292 11.292 0 1011.135 11.447A11.293 11.293 0 0011.448.001" fill="#e18c75"/></g><g clip-path="url(#bt)" transform="translate(1.787 1.787)"><path d="M11.366-.002a11.211 11.211 0 1011.055 11.364A11.211 11.211 0 0011.366-.002" fill="#e08b74"/></g><g clip-path="url(#bu)" transform="translate(1.869 1.869)"><path d="M11.282.001a11.129 11.129 0 1010.975 11.282A11.13 11.13 0 0011.282.001" fill="#e08a73"/></g><g clip-path="url(#bv)" transform="translate(1.95 1.95)"><path d="M11.198.001a11.048 11.048 0 1010.895 11.2A11.048 11.048 0 0011.198.001" fill="#e08972"/></g><g clip-path="url(#bw)" transform="translate(2.031 2.031)"><path d="M11.118.001a10.967 10.967 0 1010.815 11.117A10.967 10.967 0 0011.118.001" fill="#e08872"/></g><g clip-path="url(#bx)" transform="translate(2.112 2.112)"><path d="M11.036.001a10.886 10.886 0 1010.735 11.034A10.886 10.886 0 0011.036.001" fill="#df8771"/></g><g clip-path="url(#by)" transform="translate(2.193 2.193)"><path d="M10.953 0a10.8 10.8 0 1010.654 10.952A10.8 10.8 0 0010.953 0" fill="#df8670"/></g><g clip-path="url(#bz)" transform="translate(2.275 2.275)"><path d="M10.871.001a10.723 10.723 0 1010.574 10.87A10.723 10.723 0 0010.871.001" fill="#df856f"/></g><g clip-path="url(#bA)" transform="translate(2.356 2.356)"><path d="M10.789.001a10.642 10.642 0 1010.493 10.788A10.642 10.642 0 0010.788.001" fill="#df846f"/></g><g clip-path="url(#bB)" transform="translate(2.437 2.437)"><path d="M10.707.001a10.561 10.561 0 1010.414 10.705A10.561 10.561 0 0010.707.001" fill="#df836e"/></g><g clip-path="url(#bC)" transform="translate(2.518 2.518)"><path d="M10.624 0a10.48 10.48 0 1010.335 10.623A10.479 10.479 0 0010.624 0" fill="#de826d"/></g><g clip-path="url(#bD)" transform="translate(2.6 2.6)"><path d="M10.541.001a10.4 10.4 0 1010.254 10.54A10.4 10.4 0 0010.541.001" fill="#de816c"/></g><g clip-path="url(#bE)" transform="translate(2.681 2.681)"><path d="M10.459.001a10.317 10.317 0 1010.173 10.458A10.317 10.317 0 0010.459.001" fill="#de806b"/></g><g clip-path="url(#bF)" transform="translate(2.762 2.762)"><path d="M10.377.001a10.236 10.236 0 1010.094 10.378A10.235 10.235 0 0010.376.003" fill="#de7f6b"/></g><g clip-path="url(#bG)" transform="translate(2.843 2.843)"><path d="M10.294 0a10.155 10.155 0 1010.014 10.293A10.154 10.154 0 0010.294 0" fill="#de7e6a"/></g><g clip-path="url(#bH)" transform="translate(2.924 2.924)"><path d="M10.211.001a10.073 10.073 0 109.934 10.211A10.073 10.073 0 0010.211.001" fill="#dd7d69"/></g><g clip-path="url(#bI)" transform="translate(3.006 3.006)"><path d="M10.129.001a9.992 9.992 0 109.854 10.129A9.991 9.991 0 0010.129.001" fill="#dd7c68"/></g><g clip-path="url(#bJ)" transform="translate(3.087 3.087)"><path d="M10.047.006a9.911 9.911 0 109.774 10.046A9.911 9.911 0 0010.047.006" fill="#dd7b68"/></g><g clip-path="url(#bK)" transform="translate(3.168 3.168)"><path d="M9.965 0a9.83 9.83 0 109.694 9.964A9.83 9.83 0 009.965 0" fill="#dd7a67"/></g><g clip-path="url(#bL)" transform="translate(3.249 3.249)"><path d="M9.883.001a9.748 9.748 0 109.614 9.881A9.748 9.748 0 009.883.001" fill="#dd7a66"/></g><g clip-path="url(#bM)" transform="translate(3.33 3.33)"><path d="M9.8.001a9.667 9.667 0 109.534 9.8A9.667 9.667 0 009.8.001" fill="#dc7965"/></g><g clip-path="url(#bN)" transform="translate(3.412 3.412)"><path d="M9.72.001a9.586 9.586 0 109.453 9.717A9.586 9.586 0 009.72.001" fill="#dc7864"/></g><g clip-path="url(#bO)" transform="translate(3.493 3.493)"><path d="M9.635 0a9.5 9.5 0 109.373 9.635A9.5 9.5 0 009.635 0" fill="#dc7764"/></g><g clip-path="url(#bP)" transform="translate(3.574 3.574)"><path d="M9.553 0a9.424 9.424 0 109.293 9.553A9.425 9.425 0 009.553 0" fill="#dc7663"/></g><g clip-path="url(#bQ)" transform="translate(3.655 3.655)"><path d="M9.471.003a9.342 9.342 0 109.213 9.47A9.342 9.342 0 009.471.003" fill="#db7562"/></g><g clip-path="url(#bR)" transform="translate(3.737 3.737)"><path d="M9.389.001a9.261 9.261 0 109.132 9.387A9.261 9.261 0 009.389.001" fill="#db7461"/></g><g clip-path="url(#bS)" transform="translate(3.818 3.818)"><path d="M9.303 0a9.18 9.18 0 109.053 9.305A9.18 9.18 0 009.303 0" fill="#db7361"/></g><g clip-path="url(#bT)" transform="translate(3.899 3.899)"><path d="M9.223.001a9.1 9.1 0 108.972 9.223A9.1 9.1 0 009.223.001" fill="#db7260"/></g><g clip-path="url(#bU)" transform="translate(3.98 3.98)"><path d="M9.142.001a9.017 9.017 0 108.892 9.141A9.017 9.017 0 009.142.001" fill="#db715f"/></g><g clip-path="url(#bV)" transform="translate(4.061 4.061)"><path d="M9.059.001a8.936 8.936 0 108.812 9.059A8.937 8.937 0 009.059.001" fill="#da705e"/></g><g clip-path="url(#bW)" transform="translate(4.143 4.143)"><path d="M8.976 0a8.855 8.855 0 108.732 8.976A8.855 8.855 0 008.976 0" fill="#da6f5d"/></g><g clip-path="url(#bX)" transform="translate(4.224 4.224)"><path d="M8.894 0a8.774 8.774 0 108.652 8.894A8.774 8.774 0 008.894 0" fill="#da6e5d"/></g><g clip-path="url(#bY)" transform="translate(4.305 4.305)"><path d="M8.812.001a8.692 8.692 0 108.572 8.811A8.693 8.693 0 008.812.001" fill="#da6d5c"/></g><g clip-path="url(#bZ)" transform="translate(4.386 4.386)"><path d="M8.729.001a8.611 8.611 0 108.492 8.729A8.612 8.612 0 008.729.001" fill="#da6c5b"/></g><g clip-path="url(#ca)" transform="translate(4.468 4.468)"><path d="M8.647 0a8.53 8.53 0 108.412 8.647A8.53 8.53 0 008.647 0" fill="#d96b5a"/></g><g clip-path="url(#cb)" transform="translate(4.549 4.549)"><path d="M8.565 0a8.449 8.449 0 108.332 8.565A8.45 8.45 0 008.565 0" fill="#d96a5a"/></g><g clip-path="url(#cc)" transform="translate(4.63 4.63)"><path d="M8.482.001a8.368 8.368 0 108.252 8.482A8.367 8.367 0 008.482.001" fill="#d96959"/></g><g clip-path="url(#cd)" transform="translate(4.711 4.711)"><path d="M8.401.001a8.286 8.286 0 108.171 8.4 8.287 8.287 0 00-8.171-8.4" fill="#d96858"/></g><g clip-path="url(#ce)" transform="translate(4.793 4.793)"><path d="M8.317-.003a8.205 8.205 0 108.092 8.317A8.2 8.2 0 008.317-.003" fill="#d86757"/></g><g clip-path="url(#cf)" transform="translate(4.874 4.874)"><path d="M8.236.001a8.124 8.124 0 108.011 8.235A8.124 8.124 0 008.236.001" fill="#d86657"/></g><g clip-path="url(#cg)" transform="translate(4.955 4.955)"><path d="M8.154 0a8.043 8.043 0 107.931 8.153A8.043 8.043 0 008.154 0" fill="#d86556"/></g><g clip-path="url(#ch)" transform="translate(5.036 5.037)"><path d="M8.071 0a7.961 7.961 0 107.851 8.07A7.96 7.96 0 008.071 0" fill="#d86455"/></g><g clip-path="url(#ci)" transform="translate(5.118 5.118)"><path d="M7.988 0a7.88 7.88 0 107.771 7.987A7.88 7.88 0 007.988 0" fill="#d86354"/></g><g clip-path="url(#cj)" transform="translate(5.199 5.199)"><path d="M7.907 0a7.8 7.8 0 107.691 7.905A7.8 7.8 0 007.907 0" fill="#d76253"/></g><g clip-path="url(#ck)" transform="translate(5.28 5.28)"><path d="M7.825.001a7.718 7.718 0 107.611 7.823A7.717 7.717 0 007.825.001" fill="#d76153"/></g><g clip-path="url(#cl)" transform="translate(5.361 5.361)"><path d="M7.742.001a7.636 7.636 0 107.53 7.741A7.636 7.636 0 007.742.001" fill="#d76052"/></g><g clip-path="url(#cm)" transform="translate(5.443 5.443)"><path d="M7.659 0a7.555 7.555 0 107.45 7.658A7.556 7.556 0 007.659 0" fill="#d75f51"/></g><g clip-path="url(#cn)" transform="translate(5.524 5.524)"><path d="M7.577 0a7.474 7.474 0 107.37 7.576A7.473 7.473 0 007.577 0" fill="#d75e50"/></g><g clip-path="url(#co)" transform="translate(5.605 5.605)"><path d="M7.494 0a7.393 7.393 0 107.29 7.494A7.394 7.394 0 007.494 0" fill="#d65d50"/></g><g clip-path="url(#cp)" transform="translate(5.686 5.687)"><path d="M7.409 0a7.312 7.312 0 107.21 7.411A7.311 7.311 0 007.409 0" fill="#d65c4f"/></g><g clip-path="url(#cq)" transform="translate(5.768 5.768)"><path d="M7.329 0a7.23 7.23 0 107.129 7.329A7.23 7.23 0 007.329 0" fill="#d65b4e"/></g><g clip-path="url(#cr)" transform="translate(5.849 5.849)"><path d="M7.247 0a7.149 7.149 0 107.05 7.247A7.149 7.149 0 007.247 0" fill="#d65a4d"/></g><g clip-path="url(#cs)" transform="translate(5.93 5.93)"><path d="M7.165 0a7.068 7.068 0 106.969 7.165A7.068 7.068 0 007.165 0" fill="#d5594c"/></g><g clip-path="url(#ct)" transform="translate(6.012 6.012)"><path d="M7.082 0a6.987 6.987 0 106.889 7.082A6.986 6.986 0 007.082 0" fill="#d5584c"/></g><g clip-path="url(#cu)" transform="translate(6.093 6.093)"><path d="M7 .005a6.905 6.905 0 106.809 7A6.906 6.906 0 007 .005" fill="#d5574b"/></g><g clip-path="url(#cv)" transform="translate(6.174 6.174)"><path d="M6.918 0a6.824 6.824 0 106.729 6.917A6.824 6.824 0 006.918 0" fill="#d5564a"/></g><g clip-path="url(#cw)" transform="translate(6.255 6.255)"><path d="M6.836.002a6.743 6.743 0 106.649 6.835A6.743 6.743 0 006.836.002" fill="#d55549"/></g><g clip-path="url(#cx)" transform="translate(6.336 6.337)"><path d="M6.753.001a6.662 6.662 0 106.569 6.753A6.662 6.662 0 006.753.001" fill="#d45449"/></g><g clip-path="url(#cy)" transform="translate(6.418 6.418)"><path d="M6.67.001a6.58 6.58 0 106.489 6.67A6.581 6.581 0 006.67.001" fill="#d45348"/></g><g clip-path="url(#cz)" transform="translate(6.499 6.499)"><path d="M6.588.001a6.5 6.5 0 106.409 6.588A6.5 6.5 0 006.588.001" fill="#d45247"/></g></g><path d="M146.183 59.23c-3.393-1.221-7.492 1.842-9.156 6.841s-.263 10.042 3.129 11.263 7.492-1.842 9.157-6.841.263-10.042-3.13-11.263" fill="#e5a185"/><path d="M146.545 71.034a7.7 7.7 0 01-9.334-.656 33.529 33.529 0 01-6.9 20.324c-4.857 6.529-15.334 8.675-23.114 8.377-18.561-.71-23.435-6.39-27.239-14.053 2.6 8.4 9.016 16.186 23.612 17.206 27.045 1.89 34.508-9.381 35.582-25.418a4.6 4.6 0 001 .52c3.393 1.221 7.492-1.842 9.157-6.841a13.51 13.51 0 00.691-3.806 8.391 8.391 0 01-3.459 4.346" fill="#d78c74"/><g clip-path="url(#cA)" transform="translate(84.91 41.295)" opacity=".52"><path d="M1.623 9.493A53.856 53.856 0 000 18.693l14.286 2.512s5.472-8.425 3.84-21.2z" fill="#d78c74"/></g><path d="M140.56 68.3l3.1.449a6.948 6.948 0 013.613-6.523c-5.9-2.138-6.718 6.074-6.718 6.074" fill="#d78c74"/><g clip-path="url(#cB)" transform="translate(113.644 41.295)" opacity=".52"><path d="M3.648 0s-6.735 11.452-1.9 20.591l16.836.762s1.753-6.293.784-11.166S3.648 0 3.648 0" fill="#d78c74"/></g><path d="M124.799 55.9c-6.9-.541-9.409 5.987-9.409 5.987s1.121 4.334 8.379 4.434c8.4.116 8.461-3.908 8.461-3.908s-.525-5.973-7.43-6.513M84.909 59.986s-1.092 4.054 6.267 4.436 8.019-1.924 8.019-1.924-7.011-13.453-14.286-2.512" fill="#fff"/></g><g clip-path="url(#cC)" transform="translate(90.112 57.604)"><path transform="rotate(-69.444 3.195 4.728)" fill="url(#b)" d="M0 0h8.855v8.783H0z"/></g><g clip-path="url(#e)"><g clip-path="url(#cD)" transform="translate(89.524 59.924)" opacity=".8"><path d="M0 1.917l.239 1.045s4.367-.34 3.95-2.323S0 1.917 0 1.917" fill="#fff"/></g></g><g clip-path="url(#cE)" transform="translate(119.747 58.012)"><path transform="rotate(-71.742 3.855 5.58)" fill="url(#cF)" d="M0 0h10.049v9.147H0z"/></g><g clip-path="url(#e)"><g clip-path="url(#cG)" transform="translate(119.024 61.199)" opacity=".8"><path d="M.112 1.732L.003 2.823S4.574 2.655 4.156.671.112 1.731.112 1.731" fill="#fff"/></g><path d="M91.766 54.596c-5.735-.121-6.856 5.391-6.856 5.391s1.164-2.292 6.2-2.424 8.085 4.936 8.085 4.936.177-7.742-7.43-7.9" fill="#381911"/><path d="M86.533 50.788c5.1-3.007 13.2-1.006 16.089-3.975 1.1-1.132.413-5.518.413-5.518-15.5 2.114-16.5 9.493-16.5 9.493M117.292 41.295s-2.095 3.413-1.324 4.632c2.4 3.8 12.912 2.621 17.027 5.787 0 0 1.094-7.309-15.7-10.42" fill="#422e26"/><path d="M124.531 55.548c-7.728-.18-9.141 6.338-9.141 6.338s2.337-3.405 9.169-2.939 7.666 3.7 7.666 3.7.033-6.92-7.694-7.1" fill="#381911"/><path d="M108.19 79.944c-13.019.2-14.544-2.651-14.544-2.651s-2.665 10.552 13.156 10.667c15.114.11 13.546-9.912 13.448-10.468.031.256-.111 2.269-12.061 2.451" fill="#6c332e"/><path d="M120.245 77.466l.005.027a.124.124 0 00-.005-.027" fill="#6c332e"/><path d="M117.3 79.148a46.932 46.932 0 01-9.11.8c-6.071.092-9.641-.478-11.725-1.113a47.9 47.9 0 01-1.035 5.421c1.789 2 5.145 3.663 11.372 3.709 6.561.048 9.976-1.815 11.735-3.982-.227-.6-.443-1.205-.637-1.822a17.14 17.14 0 01-.6-3.008" fill="#fff"/><g clip-path="url(#cH)" transform="translate(96.173 78.831)" opacity=".35"><path d="M21.127.317a46.932 46.932 0 01-9.11.8C5.946 1.209 2.375.639.292.004.215.609.104 1.213 0 1.818c6.887-1.838 15.045.387 22.028 3.721q.177-.191.336-.387c-.227-.6-.443-1.205-.637-1.822a17.138 17.138 0 01-.6-3.008" fill="#c3bba5"/></g><path d="M103.427 65.982s-4.874-3.57-6.624 2.649 10.648 9.957 14.077 3.464-5.422-18.658-5.422-18.658 1.731 7.478-2.031 12.544" fill="#e5a185"/><g clip-path="url(#cI)" transform="translate(96.932 56.959)" opacity=".2"><path d="M6.495 9.024s-4.733-3.361-6.5 2.229a44.149 44.149 0 007.744 1.2A33.9 33.9 0 009.957.299l-1.058-.3a14.118 14.118 0 01-2.408 9.023" fill="#fff"/></g><path d="M111.419 11.622c-34.387 2.28-29.388 40.394-29.388 40.394 2.047-11.334 9.129-25.391 14.544-25.67a20.659 20.659 0 0011.744 3.989c6.3.128 15.032-4.457 15.032-4.457 6.284-.147 13.471 19.305 14.311 34.982.192 3.586 3.308-.553 3.308-.553s4.146-50.92-29.551-48.686" fill="#4f372d"/><path d="M129.394 14.591C119.225-.925 86.094 3.58 86.094 3.58c-3.214 17.607 9.1 21.575 9.1 21.575s28.685-5.112 33.026-2.048 12.816 27.683 12.816 27.683 7.334-25.7 1.927-35.148c-3.969-6.938-13.564-1.051-13.564-1.051" fill="#4f372d"/><path d="M98.91 0a9.561 9.561 0 002.129 4.7s34.743 23.6 28.355 9.889S98.91 0 98.91 0" fill="#4f372d"/><path d="M135.024 9.871c-1.955.3-2.415 1.227-2.415 1.227 1.408-2.571.438-6.072.438-6.072-3.819 2.187-3.44 5.235-3.44 5.235-1.871-3.92-7.632-5.136-7.632-5.136.186 3.239 3.642 6.543 3.828 6.644l2.99 4.557 6.2-.974-.611-2.766a3.4 3.4 0 00.645-2.714" fill="#4f372d"/><path d="M87.022 16.979c-10.1 3.073-7.178 43.325-7.178 43.325 2.047-11.334 11.318-33.678 16.732-33.957a35.7 35.7 0 01-9.554-9.368" fill="#422e26"/><g clip-path="url(#cJ)" transform="translate(126.34 14.293)" opacity=".12"><path d="M0 .002h.005c.016 0 .054-.007-.005 0" fill="#fff"/></g><g clip-path="url(#cK)" transform="translate(126.34 14.933)" opacity=".12"><path d="M.007 0z" fill="#fff"/></g><g clip-path="url(#cL)" transform="translate(85.6 4.572)" opacity=".11"><path d="M53.446 7.947c-1.239.2-2.544.5-3.892.812a28.119 28.119 0 01-9.894.781c-3.829-.514-7.189-2.225-10.59-3.944-1.717-.868-3.429-1.75-5.2-2.508C20.082 1.464 15.614-.129 11.436.009a17.528 17.528 0 00-6 1.478 12.933 12.933 0 00-4.281 2.861 12.033 12.033 0 00-1.162 1.36 21.335 21.335 0 00.5 3.786c.13-.107.265-.216.41-.329a12.839 12.839 0 012.558-1.456 11.357 11.357 0 013.422-.869c4.969-.381 9.584 1.614 14.072 3.467 1.837.758 3.7 1.642 5.682 2.462a61.412 61.412 0 006.174 2.293 21.954 21.954 0 0011.725.416c.5-.138.991-.254 1.469-.4a33.41 33.41 0 005-2.115c1.436-.739 2.666-1.414 3.751-1.923a13.594 13.594 0 012.034-.814 6.135 6.135 0 00-3.347-2.28" fill="#e5912f"/></g><g clip-path="url(#cM)" transform="translate(126.265 14.298)" opacity=".12"><path d="M0 .001h.023z" fill="#fff"/></g><path d="M137.63 60.304c-1.638 17.3-14.75 17.3-14.75 17.3s2.942 13.881-15.9 13.713c-19.487-.175-16.871-13.823-16.871-13.823C79.562 76.26 79.84 60.305 79.84 60.305c-4.155 16.887-6.542 43.887 28.982 43.319s30.716-27.266 30.716-27.266c-1.7-5.987 1.429-16.049 1.429-16.049z" fill="#4f372d"/><path d="M104.609 72.101s-4.557-.657-11.43 1.42c-6.532 1.973-9.1.8-9.1.8s1.641 5.168 21.9 5.632c17.219.395 22.841-3.147 22.841-3.147s-8.055-5.006-24.21-4.7" fill="#4f372d"/><path d="M96.677 70.369c.71 5.112 11.107 7.588 14.2 1.726a6.316 6.316 0 00.451-1.122 30.885 30.885 0 01-14.654-.6" fill="#d78c74"/><g clip-path="url(#cN)" transform="translate(101.269 93.3)" opacity=".16"><path d="M8.839.282A18.588 18.588 0 012.028.049a1.606 1.606 0 00-1.99 1.3C-.188 2.908.426 4.96 5.182 5.032c4.729.071 5.536-1.816 5.456-3.284a1.59 1.59 0 00-1.8-1.464"/></g></g></g></g></g></svg>