<svg xmlns="http://www.w3.org/2000/svg" width="641.898" height="641.934" viewBox="0 0 641.898 641.934"><path d="M262.049,0C308.071,0,351.632,18.275,389.2,39.1,416.456,54.209,437.33,79,457.572,101.57c39.377,43.9,66.525,95.137,66.525,160.479,0,23.446.9,49.017-4.879,70.652-18.283,68.453-73.154,118.462-134.579,151.92C345.8,505.778,309.106,524.1,262.049,524.1c-61.508,0-116.977-30.21-161.881-65.847C39.879,410.4,0,345.266,0,262.049,0,194.9,31.843,139.288,73.448,92.84,121.359,39.351,184.475,0,262.049,0Z" transform="matrix(-0.259, -0.966, 0.966, -0.259, 135.659, 641.934)" fill="#71a3ff" opacity="0.1"/></svg>