<svg xmlns="http://www.w3.org/2000/svg" width="26.15" height="21.064" viewBox="0 0 26.15 21.064">
  <path id="Twitter" d="M32.147,11.491a10.879,10.879,0,0,1-3.085.844,5.36,5.36,0,0,0,2.361-2.947,10.771,10.771,0,0,1-3.409,1.29,5.351,5.351,0,0,0-9.137,4.853A15.289,15.289,0,0,1,7.821,9.97a5.252,5.252,0,0,0-.726,2.677,5.306,5.306,0,0,0,2.386,4.428,5.462,5.462,0,0,1-2.433-.664v.062a5.334,5.334,0,0,0,4.3,5.216,5.335,5.335,0,0,1-1.41.191,5.7,5.7,0,0,1-1.011-.1,5.375,5.375,0,0,0,5.01,3.694,10.841,10.841,0,0,1-6.663,2.276A10.613,10.613,0,0,1,6,27.678a15.332,15.332,0,0,0,8.225,2.386A15.091,15.091,0,0,0,29.488,14.931c0-.23-.007-.46-.018-.686a10.555,10.555,0,0,0,2.678-2.754" transform="translate(-5.997 -9)" fill="#1da1f2"/>
</svg>
