<svg xmlns="http://www.w3.org/2000/svg" width="300" height="300"><defs><clipPath id="a"><path data-name="Rectangle 3191" transform="translate(172 1417)" fill="none" stroke="#707070" d="M0 0h300v300H0z"/></clipPath><clipPath id="b"><path data-name="Path 1606" d="M146.985 0c25.814 0 50.248 10.251 71.321 21.932 15.287 8.474 27 22.382 38.35 35.039 22.087 24.622 37.314 53.363 37.314 90.014 0 13.151.5 27.494-2.737 39.629-10.255 38.4-41.032 66.446-75.487 85.213-21.788 11.867-42.367 22.143-68.762 22.143-34.5 0-65.613-16.945-90.8-36.934C22.369 230.2 0 193.662 0 146.985c0-37.666 17.861-68.857 41.2-94.91C68.071 22.072 103.474 0 146.985 0z" transform="rotate(-14.98 5511.776 183.264)" fill="#deeeff"/></clipPath><clipPath id="c"><path data-name="Rectangle 465" fill="none" d="M0 0h248.02v258.31H0z"/></clipPath><clipPath id="d"><path data-name="Rectangle 267" fill="none" d="M0 0h242.833v15.016H0z"/></clipPath><clipPath id="e"><path data-name="Rectangle 268" fill="none" d="M0 0h8.314v18.88H0z"/></clipPath><clipPath id="f"><path data-name="Rectangle 269" fill="none" d="M0 0h12.017v18.704H0z"/></clipPath><clipPath id="g"><path data-name="Rectangle 270" fill="none" d="M0 0h15.154v19.267H0z"/></clipPath><clipPath id="h"><path data-name="Rectangle 271" fill="none" d="M0 0h8.319v18.89H0z"/></clipPath><clipPath id="i"><path data-name="Rectangle 272" fill="none" d="M0 0h10.275v18.099H0z"/></clipPath><clipPath id="j"><path data-name="Rectangle 354" fill="none" d="M0 0h19.836v21.605H0z"/></clipPath><clipPath id="k"><path data-name="Rectangle 274" fill="none" d="M0 0h19.712v21.47H0z"/></clipPath><clipPath id="l"><path data-name="Rectangle 275" fill="none" d="M0 0h19.587v21.335H0z"/></clipPath><clipPath id="m"><path data-name="Rectangle 276" fill="none" d="M0 0h19.463v21.2H0z"/></clipPath><clipPath id="n"><path data-name="Rectangle 277" fill="none" d="M0 0h19.34v21.065H0z"/></clipPath><clipPath id="o"><path data-name="Rectangle 278" fill="none" d="M0 0h19.215v20.93H0z"/></clipPath><clipPath id="p"><path data-name="Rectangle 279" fill="none" d="M0 0h19.092v20.795H0z"/></clipPath><clipPath id="q"><path data-name="Rectangle 280" fill="none" d="M0 0h18.967v20.66H0z"/></clipPath><clipPath id="r"><path data-name="Rectangle 281" fill="none" d="M0 0h18.844v20.525H0z"/></clipPath><clipPath id="s"><path data-name="Rectangle 282" fill="none" d="M0 0h18.72v20.39H0z"/></clipPath><clipPath id="t"><path data-name="Rectangle 283" fill="none" d="M0 0h18.595v20.255H0z"/></clipPath><clipPath id="u"><path data-name="Rectangle 284" fill="none" d="M0 0h18.472v20.119H0z"/></clipPath><clipPath id="v"><path data-name="Rectangle 285" fill="none" d="M0 0h18.348v19.984H0z"/></clipPath><clipPath id="w"><path data-name="Rectangle 286" fill="none" d="M0 0h18.224v19.849H0z"/></clipPath><clipPath id="x"><path data-name="Rectangle 287" fill="none" d="M0 0h18.1v19.714H0z"/></clipPath><clipPath id="y"><path data-name="Rectangle 288" fill="none" d="M0 0h17.975v19.579H0z"/></clipPath><clipPath id="z"><path data-name="Rectangle 289" fill="none" d="M0 0h17.852v19.444H0z"/></clipPath><clipPath id="A"><path data-name="Rectangle 290" fill="none" d="M0 0h17.728v19.309H0z"/></clipPath><clipPath id="B"><path data-name="Rectangle 291" fill="none" d="M0 0h17.604v19.174H0z"/></clipPath><clipPath id="C"><path data-name="Rectangle 292" fill="none" d="M0 0h17.48v19.039H0z"/></clipPath><clipPath id="D"><path data-name="Rectangle 293" fill="none" d="M0 0h17.356v18.904H0z"/></clipPath><clipPath id="E"><path data-name="Rectangle 294" fill="none" d="M0 0h17.232v18.769H0z"/></clipPath><clipPath id="F"><path data-name="Rectangle 295" fill="none" d="M0 0h17.108v18.634H0z"/></clipPath><clipPath id="G"><path data-name="Rectangle 296" fill="none" d="M0 0h16.984v18.499H0z"/></clipPath><clipPath id="H"><path data-name="Rectangle 297" fill="none" d="M0 0h16.86v18.364H0z"/></clipPath><clipPath id="I"><path data-name="Rectangle 298" fill="none" d="M0 0h16.736v18.229H0z"/></clipPath><clipPath id="J"><path data-name="Rectangle 299" fill="none" d="M0 0h16.612v18.094H0z"/></clipPath><clipPath id="K"><path data-name="Rectangle 300" fill="none" d="M0 0h16.488v17.959H0z"/></clipPath><clipPath id="L"><path data-name="Rectangle 301" fill="none" d="M0 0h16.364v17.824H0z"/></clipPath><clipPath id="M"><path data-name="Rectangle 302" fill="none" d="M0 0h16.241v17.689H0z"/></clipPath><clipPath id="N"><path data-name="Rectangle 303" fill="none" d="M0 0h16.116v17.554H0z"/></clipPath><clipPath id="O"><path data-name="Rectangle 304" fill="none" d="M0 0h15.992v17.419H0z"/></clipPath><clipPath id="P"><path data-name="Rectangle 305" fill="none" d="M0 0h15.868v17.284H0z"/></clipPath><clipPath id="Q"><path data-name="Rectangle 306" fill="none" d="M0 0h15.744v17.149H0z"/></clipPath><clipPath id="R"><path data-name="Rectangle 307" fill="none" d="M0 0h15.621v17.014H0z"/></clipPath><clipPath id="S"><path data-name="Rectangle 308" fill="none" d="M0 0h15.496v16.878H0z"/></clipPath><clipPath id="T"><path data-name="Rectangle 309" fill="none" d="M0 0h15.372v16.743H0z"/></clipPath><clipPath id="U"><path data-name="Rectangle 310" fill="none" d="M0 0h15.249v16.608H0z"/></clipPath><clipPath id="V"><path data-name="Rectangle 311" fill="none" d="M0 0h15.124v16.473H0z"/></clipPath><clipPath id="W"><path data-name="Rectangle 312" fill="none" d="M0 0h15.001v16.338H0z"/></clipPath><clipPath id="X"><path data-name="Rectangle 313" fill="none" d="M0 0h14.877v16.203H0z"/></clipPath><clipPath id="Y"><path data-name="Rectangle 314" fill="none" d="M0 0h14.753v16.068H0z"/></clipPath><clipPath id="Z"><path data-name="Rectangle 315" fill="none" d="M0 0h14.629v15.933H0z"/></clipPath><clipPath id="aa"><path data-name="Rectangle 316" fill="none" d="M0 0h14.504v15.798H0z"/></clipPath><clipPath id="ab"><path data-name="Rectangle 317" fill="none" d="M0 0h14.381v15.663H0z"/></clipPath><clipPath id="ac"><path data-name="Rectangle 318" fill="none" d="M0 0h14.257v15.528H0z"/></clipPath><clipPath id="ad"><path data-name="Rectangle 319" fill="none" d="M0 0h14.133v15.393H0z"/></clipPath><clipPath id="ae"><path data-name="Rectangle 320" fill="none" d="M0 0h14.009v15.258H0z"/></clipPath><clipPath id="af"><path data-name="Rectangle 321" fill="none" d="M0 0h13.885v15.124H0z"/></clipPath><clipPath id="ag"><path data-name="Rectangle 322" fill="none" d="M0 0h13.761v14.989H0z"/></clipPath><clipPath id="ah"><path data-name="Rectangle 323" fill="none" d="M0 0h13.637v14.854H0z"/></clipPath><clipPath id="ai"><path data-name="Rectangle 324" fill="none" d="M0 0h13.512v14.719H0z"/></clipPath><clipPath id="aj"><path data-name="Rectangle 325" fill="none" d="M0 0h13.389v14.584H0z"/></clipPath><clipPath id="ak"><path data-name="Rectangle 326" fill="none" d="M0 0h13.265v14.449H0z"/></clipPath><clipPath id="al"><path data-name="Rectangle 327" fill="none" d="M0 0h13.141v14.313H0z"/></clipPath><clipPath id="am"><path data-name="Rectangle 328" fill="none" d="M0 0h13.017v14.178H0z"/></clipPath><clipPath id="an"><path data-name="Rectangle 329" fill="none" d="M0 0h12.893v14.042H0z"/></clipPath><clipPath id="ao"><path data-name="Rectangle 330" fill="none" d="M0 0h12.769v13.907H0z"/></clipPath><clipPath id="ap"><path data-name="Rectangle 331" fill="none" d="M0 0h12.645v13.773H0z"/></clipPath><clipPath id="aq"><path data-name="Rectangle 332" fill="none" d="M0 0h12.521v13.638H0z"/></clipPath><clipPath id="ar"><path data-name="Rectangle 333" fill="none" d="M0 0h12.397v13.503H0z"/></clipPath><clipPath id="as"><path data-name="Rectangle 334" fill="none" d="M0 0h12.273v13.368H0z"/></clipPath><clipPath id="at"><path data-name="Rectangle 335" fill="none" d="M0 0h12.15v13.233H0z"/></clipPath><clipPath id="au"><path data-name="Rectangle 336" fill="none" d="M0 0h12.025v13.098H0z"/></clipPath><clipPath id="av"><path data-name="Rectangle 337" fill="none" d="M0 0h11.901v12.963H0z"/></clipPath><clipPath id="aw"><path data-name="Rectangle 338" fill="none" d="M0 0h11.777v12.828H0z"/></clipPath><clipPath id="ax"><path data-name="Rectangle 339" fill="none" d="M0 0h11.653v12.693H0z"/></clipPath><clipPath id="ay"><path data-name="Rectangle 340" fill="none" d="M0 0h11.53v12.558H0z"/></clipPath><clipPath id="az"><path data-name="Rectangle 341" fill="none" d="M0 0h11.405v12.423H0z"/></clipPath><clipPath id="aA"><path data-name="Rectangle 342" fill="none" d="M0 0h11.282v12.288H0z"/></clipPath><clipPath id="aB"><path data-name="Rectangle 343" fill="none" d="M0 0h11.158v12.153H0z"/></clipPath><clipPath id="aC"><path data-name="Rectangle 344" fill="none" d="M0 0h11.033v12.018H0z"/></clipPath><clipPath id="aD"><path data-name="Rectangle 345" fill="none" d="M0 0h10.909v11.883H0z"/></clipPath><clipPath id="aE"><path data-name="Rectangle 346" fill="none" d="M0 0h10.786v11.748H0z"/></clipPath><clipPath id="aF"><path data-name="Rectangle 347" fill="none" d="M0 0h10.661v11.613H0z"/></clipPath><clipPath id="aG"><path data-name="Rectangle 348" fill="none" d="M0 0h10.538v11.477H0z"/></clipPath><clipPath id="aH"><path data-name="Rectangle 349" fill="none" d="M0 0h10.413v11.342H0z"/></clipPath><clipPath id="aI"><path data-name="Rectangle 350" fill="none" d="M0 0h10.29v11.207H0z"/></clipPath><clipPath id="aJ"><path data-name="Rectangle 351" fill="none" d="M0 0h10.166v11.072H0z"/></clipPath><clipPath id="aK"><path data-name="Rectangle 352" fill="none" d="M0 0h10.041v10.937H0z"/></clipPath><clipPath id="aL"><path data-name="Rectangle 353" fill="none" d="M0 0h9.918v10.802H0z"/></clipPath><clipPath id="aM"><path data-name="Rectangle 436" fill="none" d="M0 0h21.605v21.605H0z"/></clipPath><clipPath id="aN"><path data-name="Rectangle 356" fill="none" d="M0 0h21.47v21.47H0z"/></clipPath><clipPath id="aO"><path data-name="Rectangle 357" fill="none" d="M0 0h21.335v21.335H0z"/></clipPath><clipPath id="aP"><path data-name="Rectangle 358" fill="none" d="M0 0h21.2v21.2H0z"/></clipPath><clipPath id="aQ"><path data-name="Rectangle 359" fill="none" d="M0 0h21.065v21.065H0z"/></clipPath><clipPath id="aR"><path data-name="Rectangle 360" fill="none" d="M0 0h20.93v20.93H0z"/></clipPath><clipPath id="aS"><path data-name="Rectangle 361" fill="none" d="M0 0h20.795v20.795H0z"/></clipPath><clipPath id="aT"><path data-name="Rectangle 362" fill="none" d="M0 0h20.66v20.66H0z"/></clipPath><clipPath id="aU"><path data-name="Rectangle 363" fill="none" d="M0 0h20.525v20.525H0z"/></clipPath><clipPath id="aV"><path data-name="Rectangle 364" fill="none" d="M0 0h20.39v20.39H0z"/></clipPath><clipPath id="aW"><path data-name="Rectangle 365" fill="none" d="M0 0h20.255v20.254H0z"/></clipPath><clipPath id="aX"><path data-name="Rectangle 366" fill="none" d="M0 0h20.12v20.119H0z"/></clipPath><clipPath id="aY"><path data-name="Rectangle 367" fill="none" d="M0 0h19.985v19.984H0z"/></clipPath><clipPath id="aZ"><path data-name="Rectangle 368" fill="none" d="M0 0h19.85v19.849H0z"/></clipPath><clipPath id="ba"><path data-name="Rectangle 369" fill="none" d="M0 0h19.715v19.714H0z"/></clipPath><clipPath id="bb"><path data-name="Rectangle 370" fill="none" d="M0 0h19.579v19.579H0z"/></clipPath><clipPath id="bc"><path data-name="Rectangle 371" fill="none" d="M0 0h19.444v19.444H0z"/></clipPath><clipPath id="bd"><path data-name="Rectangle 372" fill="none" d="M0 0h19.309v19.309H0z"/></clipPath><clipPath id="be"><path data-name="Rectangle 373" fill="none" d="M0 0h19.174v19.174H0z"/></clipPath><clipPath id="bf"><path data-name="Rectangle 374" fill="none" d="M0 0h19.04v19.04H0z"/></clipPath><clipPath id="bg"><path data-name="Rectangle 375" fill="none" d="M0 0h18.905v18.905H0z"/></clipPath><clipPath id="bh"><path data-name="Rectangle 376" fill="none" d="M0 0h18.769v18.77H0z"/></clipPath><clipPath id="bi"><path data-name="Rectangle 377" fill="none" d="M0 0h18.634v18.635H0z"/></clipPath><clipPath id="bj"><path data-name="Rectangle 378" fill="none" d="M0 0h18.499v18.499H0z"/></clipPath><clipPath id="bk"><path data-name="Rectangle 379" fill="none" d="M0 0h18.364v18.364H0z"/></clipPath><clipPath id="bl"><path data-name="Rectangle 380" fill="none" d="M0 0h18.229v18.229H0z"/></clipPath><clipPath id="bm"><path data-name="Rectangle 381" fill="none" d="M0 0h18.094v18.094H0z"/></clipPath><clipPath id="bn"><path data-name="Rectangle 382" fill="none" d="M0 0h17.959v17.959H0z"/></clipPath><clipPath id="bo"><path data-name="Rectangle 383" fill="none" d="M0 0h17.824v17.824H0z"/></clipPath><clipPath id="bp"><path data-name="Rectangle 384" fill="none" d="M0 0h17.689v17.689H0z"/></clipPath><clipPath id="bq"><path data-name="Rectangle 385" fill="none" d="M0 0h17.554v17.554H0z"/></clipPath><clipPath id="br"><path data-name="Rectangle 386" fill="none" d="M0 0h17.419v17.419H0z"/></clipPath><clipPath id="bs"><path data-name="Rectangle 387" fill="none" d="M0 0h17.284v17.284H0z"/></clipPath><clipPath id="bt"><path data-name="Rectangle 388" fill="none" d="M0 0h17.149v17.149H0z"/></clipPath><clipPath id="bu"><path data-name="Rectangle 389" fill="none" d="M0 0h17.014v17.014H0z"/></clipPath><clipPath id="bv"><path data-name="Rectangle 390" fill="none" d="M0 0h16.879v16.879H0z"/></clipPath><clipPath id="bw"><path data-name="Rectangle 391" fill="none" d="M0 0h16.744v16.744H0z"/></clipPath><clipPath id="bx"><path data-name="Rectangle 392" fill="none" d="M0 0h16.609v16.609H0z"/></clipPath><clipPath id="by"><path data-name="Rectangle 393" fill="none" d="M0 0h16.474v16.474H0z"/></clipPath><clipPath id="bz"><path data-name="Rectangle 394" fill="none" d="M0 0h16.339v16.339H0z"/></clipPath><clipPath id="bA"><path data-name="Rectangle 395" fill="none" d="M0 0h16.203v16.204H0z"/></clipPath><clipPath id="bB"><path data-name="Rectangle 396" fill="none" d="M0 0h16.069v16.069H0z"/></clipPath><clipPath id="bC"><path data-name="Rectangle 397" fill="none" d="M0 0h15.933v15.934H0z"/></clipPath><clipPath id="bD"><path data-name="Rectangle 398" fill="none" d="M0 0h15.798v15.799H0z"/></clipPath><clipPath id="bE"><path data-name="Rectangle 399" fill="none" d="M0 0h15.663v15.663H0z"/></clipPath><clipPath id="bF"><path data-name="Rectangle 400" fill="none" d="M0 0h15.528v15.528H0z"/></clipPath><clipPath id="bG"><path data-name="Rectangle 401" fill="none" d="M0 0h15.393v15.393H0z"/></clipPath><clipPath id="bH"><path data-name="Rectangle 402" fill="none" d="M0 0h15.258v15.258H0z"/></clipPath><clipPath id="bI"><path data-name="Rectangle 403" fill="none" d="M0 0h15.124v15.123H0z"/></clipPath><clipPath id="bJ"><path data-name="Rectangle 404" fill="none" d="M0 0h14.989v14.989H0z"/></clipPath><clipPath id="bK"><path data-name="Rectangle 405" fill="none" d="M0 0h14.854v14.854H0z"/></clipPath><clipPath id="bL"><path data-name="Rectangle 406" fill="none" d="M0 0h14.719v14.718H0z"/></clipPath><clipPath id="bM"><path data-name="Rectangle 407" fill="none" d="M0 0h14.584v14.583H0z"/></clipPath><clipPath id="bN"><path data-name="Rectangle 408" fill="none" d="M0 0h14.449v14.448H0z"/></clipPath><clipPath id="bO"><path data-name="Rectangle 409" fill="none" d="M0 0h14.314v14.313H0z"/></clipPath><clipPath id="bP"><path data-name="Rectangle 410" fill="none" d="M0 0h14.178v14.178H0z"/></clipPath><clipPath id="bQ"><path data-name="Rectangle 411" fill="none" d="M0 0h14.043v14.043H0z"/></clipPath><clipPath id="bR"><path data-name="Rectangle 412" fill="none" d="M0 0h13.908v13.908H0z"/></clipPath><clipPath id="bS"><path data-name="Rectangle 413" fill="none" d="M0 0h13.773v13.773H0z"/></clipPath><clipPath id="bT"><path data-name="Rectangle 414" fill="none" d="M0 0h13.638v13.638H0z"/></clipPath><clipPath id="bU"><path data-name="Rectangle 415" fill="none" d="M0 0h13.503v13.503H0z"/></clipPath><clipPath id="bV"><path data-name="Rectangle 416" fill="none" d="M0 0h13.368v13.368H0z"/></clipPath><clipPath id="bW"><path data-name="Rectangle 417" fill="none" d="M0 0h13.233v13.233H0z"/></clipPath><clipPath id="bX"><path data-name="Rectangle 418" fill="none" d="M0 0h13.098v13.098H0z"/></clipPath><clipPath id="bY"><path data-name="Rectangle 419" fill="none" d="M0 0h12.963v12.963H0z"/></clipPath><clipPath id="bZ"><path data-name="Rectangle 420" fill="none" d="M0 0h12.828v12.828H0z"/></clipPath><clipPath id="ca"><path data-name="Rectangle 421" fill="none" d="M0 0h12.693v12.693H0z"/></clipPath><clipPath id="cb"><path data-name="Rectangle 422" fill="none" d="M0 0h12.558v12.558H0z"/></clipPath><clipPath id="cc"><path data-name="Rectangle 423" fill="none" d="M0 0h12.423v12.423H0z"/></clipPath><clipPath id="cd"><path data-name="Rectangle 424" fill="none" d="M0 0h12.288v12.288H0z"/></clipPath><clipPath id="ce"><path data-name="Rectangle 425" fill="none" d="M0 0h12.153v12.153H0z"/></clipPath><clipPath id="cf"><path data-name="Rectangle 426" fill="none" d="M0 0h12.018v12.018H0z"/></clipPath><clipPath id="cg"><path data-name="Rectangle 427" fill="none" d="M0 0h11.883v11.882H0z"/></clipPath><clipPath id="ch"><path data-name="Rectangle 428" fill="none" d="M0 0h11.748v11.747H0z"/></clipPath><clipPath id="ci"><path data-name="Rectangle 429" fill="none" d="M0 0h11.613v11.612H0z"/></clipPath><clipPath id="cj"><path data-name="Rectangle 430" fill="none" d="M0 0h11.478v11.477H0z"/></clipPath><clipPath id="ck"><path data-name="Rectangle 431" fill="none" d="M0 0h11.342v11.342H0z"/></clipPath><clipPath id="cl"><path data-name="Rectangle 432" fill="none" d="M0 0h11.207v11.207H0z"/></clipPath><clipPath id="cm"><path data-name="Rectangle 433" fill="none" d="M0 0h11.073v11.073H0z"/></clipPath><clipPath id="cn"><path data-name="Rectangle 434" fill="none" d="M0 0h10.938v10.938H0z"/></clipPath><clipPath id="co"><path data-name="Rectangle 435" fill="none" d="M0 0h10.803v10.803H0z"/></clipPath><clipPath id="cp"><path data-name="Rectangle 437" fill="none" d="M0 0h15.089v17.284H0z"/></clipPath><clipPath id="cq"><path data-name="Rectangle 438" fill="none" d="M0 0h14.548v15.861H0z"/></clipPath><clipPath id="cr"><path data-name="Rectangle 439" fill="none" d="M0 0h8.222v9.036H0z"/></clipPath><clipPath id="cs"><path data-name="Rectangle 440" fill="none" d="M0 0h.026v.004H0z"/></clipPath><clipPath id="ct"><path data-name="Path 1547" d="M210.866 17.655z" transform="translate(-210.866 -17.655)" fill="none"/></clipPath><clipPath id="cu"><path data-name="Rectangle 441" fill="none" d="M0 0h47.2v13.375H0z"/></clipPath><clipPath id="cv"><path data-name="Rectangle 442" fill="none" d="M0 0h.019v.001H0z"/></clipPath><clipPath id="cw"><path data-name="Rectangle 443" fill="none" d="M0 0h8.793v4.361H0z"/></clipPath><clipPath id="cx"><path data-name="Rectangle 444" fill="none" d="M0 0h19.156v21.875H0z"/></clipPath><clipPath id="cy"><path data-name="Rectangle 445" fill="none" d="M0 0h50.105v23.446H0z"/></clipPath><clipPath id="cz"><path data-name="Rectangle 446" fill="none" d="M0 0h31.334v41.921H0z"/></clipPath><clipPath id="cA"><path data-name="Rectangle 447" fill="none" d="M0 0h31.334v28.87H0z"/></clipPath><clipPath id="cB"><path data-name="Rectangle 448" fill="none" d="M0 0h1.711v6.203H0z"/></clipPath><clipPath id="cC"><path data-name="Rectangle 452" fill="none" d="M0 0h1.712v6.203H0z"/></clipPath><clipPath id="cD"><path data-name="Rectangle 453" fill="none" d="M0 0h2.832v2.989H0z"/></clipPath><clipPath id="cE"><path data-name="Rectangle 454" fill="none" d="M0 0h6.95v13.719H0z"/></clipPath><clipPath id="cF"><path data-name="Rectangle 455" fill="none" d="M0 0h3.996v12.281H0z"/></clipPath><clipPath id="cG"><path data-name="Rectangle 456" fill="none" d="M0 0h1.988v9.655H0z"/></clipPath><clipPath id="cH"><path data-name="Rectangle 457" fill="none" d="M0 0h2.937v2.929H0z"/></clipPath><clipPath id="cI"><path data-name="Rectangle 458" fill="none" d="M0 0h7.084v13.683H0z"/></clipPath><clipPath id="cJ"><path data-name="Rectangle 459" fill="none" d="M0 0h3.799v12.422H0z"/></clipPath><clipPath id="cK"><path data-name="Rectangle 460" fill="none" d="M0 0h1.801v9.55H0z"/></clipPath><clipPath id="cL"><path data-name="Rectangle 461" fill="none" d="M0 0h16.822v16.131H0z"/></clipPath><clipPath id="cM"><path data-name="Rectangle 462" fill="none" d="M0 0h77.62v46.509H0z"/></clipPath><clipPath id="cN"><path data-name="Rectangle 463" fill="none" d="M0 0h86.659v57.294H0z"/></clipPath></defs><g data-name="Mask Group 24" transform="translate(-172 -1417)" clip-path="url(#a)"><g data-name="Group 9307"><path data-name="Path 957" d="M281.923 1425.712c24.936-6.686 51.194-3.112 74.576 2.714 16.962 4.227 31.879 14.628 46.121 23.915 27.713 18.064 49.867 41.884 59.36 77.29 3.405 12.703 7.603 26.429 7.62 38.99.038 39.75-22.428 74.814-50.851 101.867-17.974 17.106-35.192 32.363-60.69 39.2-33.326 8.935-67.77.624-97.278-12.162-39.616-17.165-70.688-46.668-82.777-91.757-9.755-36.386-.58-71.142 15.218-102.354 18.186-35.943 46.669-66.434 88.7-77.703z" fill="#deeeff"/><g data-name="Mask Group 12" transform="translate(0 30)" clip-path="url(#b)"><g data-name="Group 1335"><g data-name="Group 1334" clip-path="url(#c)" transform="translate(199.267 1424.975)"><g data-name="Group 1333"><g data-name="Group 1332" clip-path="url(#c)"><g data-name="Group 740"><g data-name="Group 739" opacity=".15"><g data-name="Group 738" clip-path="url(#d)" transform="translate(1.72 243.295)"><path data-name="Path 1333" d="M242.832 7.508A985.452 985.452 0 000 7.508a990.073 990.073 0 00121.417 7.508 990.054 990.054 0 00121.416-7.508" fill="#222447"/></g></g></g><path data-name="Path 1334" d="M171.623 105.241c7.071 8.329 19.493 45.992 20.124 47.944a3.942 3.942 0 00-1.606-.314c-6.675.115-10.761 4.565-12.085 10.9a13.8 13.8 0 002.163 11.191c-7.679-3.571-20.143-28.673-20.143-28.673l-7.732-54.231a46.924 46.924 0 0119.279 13.183" fill="#6d7db3"/><path data-name="Path 1335" d="M75.391 106.173c-7.212 8.207-19.249 46.37-19.879 48.323a3.953 3.953 0 011.606-.314c6.675.115 10.762 4.565 12.085 10.9a13.8 13.8 0 01-2.163 11.19c7.679-3.571 19.49-31.866 19.49-31.866l8.742-51.263a47.845 47.845 0 00-19.88 13.031" fill="#6d7db3"/><path data-name="Path 1336" d="M124.829 64.423c-6.117-.105-10.567 2.96-10.636 7.333l-2.194 19.858c-.068 4.373 6.112 5.046 12.23 5.15s11.124-.622 11.192-5v-18.8c.069-4.373-4.473-8.442-10.591-8.547" fill="#d78c74"/><g data-name="Group 743"><g data-name="Group 742" opacity=".12"><g data-name="Group 741" clip-path="url(#e)" transform="translate(108.744 83.451)"><path data-name="Path 1337" d="M4.067 0a8.935 8.935 0 00-1.971 1.225C-.725 3.915-.275 9.346.985 13.582c2.957-.128 7.329 5.3 7.329 5.3a36.433 36.433 0 00-2.235-7.25A28.85 28.85 0 014.068.002" fill="#fff"/></g></g></g><path data-name="Path 1338" d="M138.642 212.602l-9.608 15.8 6.815.74 9.305-16.536z" fill="#3d4041"/><path data-name="Path 1339" d="M145.735 106.551V90.125c-13.308-3.934-31.493-3.9-44.377 1.489v14.934z" fill="#d78c74"/><path data-name="Path 1340" d="M150.828 91.393a22.835 22.835 0 00-3.761-1.121 166.85 166.85 0 00-3.577-.976c-1.286 7.656-10.918 9.385-21.461 9.556-9.517.154-13.839-1.9-15.519-9.205-3.155.546-11.2 3.107-15.657 5.962v128.588a130.707 130.707 0 0030.063 3.012 125.82 125.82 0 0029.913-3.689z" fill="#dfe5ea"/><path data-name="Path 1341" d="M117.173 102.333c-.4-1.994-6.411-7.756-7.682-13.285-5.712 0-17.1 4.645-20.583 8.05-7.456 7.287-6.961 33.257-7.7 61.158-.742 27.885.231 33.455-7.837 55.825 0 0 19.35 18.252 38.629 19.3 3.713-58 4.566-124.781 5.176-131.05" fill="#6d7db3"/><path data-name="Path 1342" d="M109.21 95.1l-1.725.018c0 .423.411 42.66-3.452 81.784-2.387 24.177-5.143 42.327-6.911 52.722.886.377 1.783.736 2.691 1.071 1.773-10.35 4.6-28.8 7.039-53.514 3.52-35.655 3.508-73.866 3.473-80.936-.4-.415-.77-.794-1.116-1.145" fill="#7588bc"/><path data-name="Path 1343" d="M147.067 90.272c-1.155-.331-6.46-1.722-7.69-2.045-1.1 6.573-3.774 5.254-11.624 13.949-.763 7.642 2.17 59.646-5.483 131.21 23.4-.505 47.38-12.52 47.38-12.52-7.056-26.339-8.114-79.64-6.3-107.343.165-2.509.456-19.781-16.292-23.256" fill="#6d7db3"/><g data-name="Group 746"><g data-name="Group 745" opacity=".08"><g data-name="Group 744" clip-path="url(#f)" transform="translate(105.157 89.357)"><path data-name="Path 1344" d="M1.288.014s-2.893 13.026-.009 18.692c0 0 .742-8.147 4.326-6.729 2.381.941 4.716 4.329 6.034 6.447.178-2.836.309-4.737.378-5.443-.392-1.932-6.033-7.4-7.538-12.773a16.866 16.866 0 00-3.19-.193" fill="#002a3d"/></g></g></g><path data-name="Path 1345" d="M127.508 233.083q1.456-.131 2.9-.309c1.4-10.042 3.627-28.669 4.959-53.252 2.038-37.618.478-82.56.462-83.01l-2.27.081c-.179.225-.358.446-.541.666.182 5.629 1.418 47.069-.481 82.111-1.36 25.089-3.655 43.927-5.034 53.714" fill="#7588bc"/><g data-name="Group 749"><g data-name="Group 748" opacity=".08"><g data-name="Group 747" clip-path="url(#g)" transform="translate(127.508 89.359)"><path data-name="Path 1346" d="M9.549 11.973c3.585-1.417 4.326 6.729 4.326 6.729C16.759 13.035 13.867.011 13.866.01a16.113 16.113 0 00-2.244.079C10.381 5.307 7.566 4.706.245 12.817c-.088.874-.066 3.111-.245 6.45 2.408-2.516 7.542-6.5 9.549-7.294" fill="#002a3d"/></g></g></g><path data-name="Path 1347" d="M83.946 115.576l1.436-2.985 22.8-3.965.457 2.8z" fill="#7588bc"/><path data-name="Path 1348" d="M117.173 102.336s-7.641-9.506-9.554-3.111c-1.3 4.351-1.892 6.948-1.892 6.948s-3.541-11 .354-16.317 6.843-6.41 6.843-6.41a28.861 28.861 0 002.012 11.637 36.473 36.473 0 012.237 7.254" fill="#7588bc"/><path data-name="Path 1349" d="M110.11 152.697a1.912 1.912 0 102.062-1.477 1.8 1.8 0 00-2.062 1.477" fill="#b0b5c1"/><path data-name="Path 1350" d="M108.923 175.66a1.912 1.912 0 102.063-1.476 1.8 1.8 0 00-2.062 1.476" fill="#b0b5c1"/><path data-name="Path 1351" d="M107.57 196.772a1.912 1.912 0 102.062-1.476 1.8 1.8 0 00-2.062 1.476" fill="#b0b5c1"/><path data-name="Path 1352" d="M106.093 218.514a1.912 1.912 0 102.062-1.476 1.8 1.8 0 00-2.062 1.476" fill="#b0b5c1"/><path data-name="Path 1353" d="M111.505 111.464a1.912 1.912 0 102.062-1.476 1.8 1.8 0 00-2.062 1.476" fill="#b0b5c1"/><path data-name="Path 1354" d="M111.423 130.577a1.912 1.912 0 102.062-1.476 1.8 1.8 0 00-2.062 1.476" fill="#b0b5c1"/><path data-name="Path 1355" d="M157.817 116.232l-24.09-4.734.573-2.774 22.925 4.734z" fill="#7588bc"/><path data-name="Path 1356" d="M127.728 102.447s10.558-9.617 12.471-3.223c1.3 4.351 1.892 6.949 1.892 6.949s3.541-11-.354-16.317-6.342-5.507-6.342-5.507.2 2.277-2.159 7.6c-1.555 3.5-4.958 6.021-5.508 10.5" fill="#7588bc"/><g data-name="Group 752"><g data-name="Group 751" opacity=".12"><g data-name="Group 750" clip-path="url(#h)" transform="translate(108.855 83.446)"><path data-name="Path 1357" d="M6.081 11.637A28.863 28.863 0 014.07 0a8.9 8.9 0 00-1.973 1.225C-.726 3.916-.275 9.351.985 13.59c2.958-.128 7.333 5.3 7.333 5.3a36.474 36.474 0 00-2.237-7.253" fill="#fff"/></g></g></g><g data-name="Group 755"><g data-name="Group 754" opacity=".12"><g data-name="Group 753" clip-path="url(#i)" transform="translate(127.728 84.348)"><path data-name="Path 1358" d="M9.879 12.691c.7-4.441.738-8.922-2.152-12.682L7.667 0s.2 2.277-2.159 7.6C3.953 11.105.55 13.622 0 18.1c0 0 6.114-5.565 9.879-5.407" fill="#fff"/></g></g></g><path data-name="Path 1359" d="M81.759 135.149c-.147 4.729-.246 9.691-.354 14.779C84.792 110.573 92.84 96.84 96 92.805a21.882 21.882 0 00-4.4 1.753l-.167.354a101.563 101.563 0 00-9.678 40.238" fill="#7588bc"/><path data-name="Path 1360" d="M153.345 92.419a21.1 21.1 0 00-4.556-1.72c2.786 3.176 9 15.131 13.864 59.822a581.726 581.726 0 01-.073-11.12 115 115 0 00-2.317-23.436c-2.5-12.187-4.991-19.708-6.918-23.55" fill="#7588bc"/><path data-name="Path 1361" d="M87.695 129.425l-1.154 16.721a4.494 4.494 0 001.969 4.084l3.814 2.482a3.09 3.09 0 003.445-.031l4.956-3.349a4.321 4.321 0 001.85-3.281l1.189-16.625z" fill="#7588bc"/><path data-name="Path 1362" d="M139.556 130.382v16.5a4.859 4.859 0 002.058 3.97l3.453 2.435a5.04 5.04 0 006.093-.214l5.073-4.139a6.1 6.1 0 002.24-4.93l-.455-13.622z" fill="#7588bc"/><path data-name="Path 1363" d="M96.449 48.412c-2.847.937-4.126 5.094-2.858 9.285s4.6 6.83 7.451 5.893 4.126-5.094 2.857-9.285-4.6-6.83-7.45-5.893" fill="#d78c74"/><path data-name="Path 1364" d="M113.8 10.671s0-.048-.014-.128l.014.128" fill="#381911"/><path data-name="Path 1365" d="M145.178 23.53c-1.606-9.874-29.463-14.54-37.67-.981-2.615 6.289-6.87 18.025-8.287 29.682v-.2s-7.586 31 20 32.933 30.659-12.622 29.486-30.75c.031-10.2-1.459-23.1-3.535-30.688" fill="#e5a185"/><g data-name="Group 1001"><g data-name="Group 1000" opacity=".38"><g data-name="Group 999" clip-path="url(#j)" transform="translate(98.952 46.779)"><g data-name="Group 758"><g data-name="Group 757"><g data-name="Group 756" clip-path="url(#j)"><path data-name="Path 1366" d="M10.07.001C4.593-.074.087 4.701.005 10.666S4.292 21.528 9.77 21.601s9.984-4.7 10.066-10.665S15.543.076 10.07.001" fill="#e5a185"/></g></g></g><g data-name="Group 761"><g data-name="Group 760"><g data-name="Group 759" clip-path="url(#k)" transform="translate(.062 .067)"><path data-name="Path 1367" d="M10.004-.002c-5.443-.075-9.921 4.67-10 10.6s4.262 10.8 9.705 10.87 9.921-4.67 10-10.6S15.445.073 10.003-.001" fill="#e5a084"/></g></g></g><g data-name="Group 764"><g data-name="Group 763"><g data-name="Group 762" clip-path="url(#l)" transform="translate(.124 .135)"><path data-name="Path 1368" d="M9.94.002C4.532-.073.082 4.643.001 10.533s4.237 10.727 9.646 10.8 9.858-4.641 9.939-10.531S15.348.075 9.94.002" fill="#e59f83"/></g></g></g><g data-name="Group 767"><g data-name="Group 766"><g data-name="Group 765" clip-path="url(#m)" transform="translate(.186 .202)"><path data-name="Path 1369" d="M9.877.002C4.503-.072.077 4.613 0 10.467s4.211 10.658 9.585 10.732 9.8-4.611 9.876-10.465S15.251.076 9.876.002" fill="#e49e83"/></g></g></g><g data-name="Group 770"><g data-name="Group 769"><g data-name="Group 768" clip-path="url(#n)" transform="translate(.248 .27)"><path data-name="Path 1370" d="M9.814.002C4.474-.071.081 4.584 0 10.402s4.184 10.591 9.524 10.664 9.733-4.582 9.813-10.4S15.153.075 9.813.002" fill="#e49d82"/></g></g></g><g data-name="Group 773"><g data-name="Group 772"><g data-name="Group 771" clip-path="url(#o)" transform="translate(.31 .337)"><path data-name="Path 1371" d="M9.752.002C4.446-.071.081 4.554.002 10.334s4.156 10.523 9.463 10.6 9.67-4.553 9.75-10.332S15.058.079 9.752.002" fill="#e49c81"/></g></g></g><g data-name="Group 776"><g data-name="Group 775"><g data-name="Group 774" clip-path="url(#p)" transform="translate(.371 .405)"><path data-name="Path 1372" d="M9.689.002C4.417-.071.08 4.525.001 10.267s4.131 10.455 9.4 10.528 9.609-4.523 9.688-10.265S14.959.075 9.689.003" fill="#e49b80"/></g></g></g><g data-name="Group 779"><g data-name="Group 778"><g data-name="Group 777" clip-path="url(#q)" transform="translate(.434 .472)"><path data-name="Path 1373" d="M9.626.002C4.389-.07.08 4.496.001 10.202s4.1 10.388 9.34 10.46 9.547-4.494 9.625-10.2S14.866.075 9.626.003" fill="#e49a80"/></g></g></g><g data-name="Group 782"><g data-name="Group 781"><g data-name="Group 780" clip-path="url(#r)" transform="translate(.496 .54)"><path data-name="Path 1374" d="M9.563.002C4.363-.069.079 4.466.001 10.134S4.078 20.453 9.28 20.525s9.484-4.464 9.562-10.132S14.765.073 9.562.002" fill="#e3997f"/></g></g></g><g data-name="Group 785"><g data-name="Group 784"><g data-name="Group 783" clip-path="url(#s)" transform="translate(.558 .607)"><path data-name="Path 1375" d="M9.5.002C4.331-.069.079 4.437 0 10.067S4.05 20.319 9.219 20.39s9.421-4.436 9.5-10.066S14.669.072 9.501.002" fill="#e3987e"/></g></g></g><g data-name="Group 788"><g data-name="Group 787"><g data-name="Group 786" clip-path="url(#t)" transform="translate(.62 .675)"><path data-name="Path 1376" d="M9.437.002C4.303-.069.078 4.408.001 10.002s4.023 10.182 9.158 10.252 9.359-4.406 9.436-10S14.572.071 9.438 0" fill="#e3977d"/></g></g></g><g data-name="Group 791"><g data-name="Group 790"><g data-name="Group 789" clip-path="url(#u)" transform="translate(.681 .742)"><path data-name="Path 1377" d="M9.374.002c-5.1-.07-9.3 4.377-9.373 9.932s4 10.116 9.1 10.186 9.3-4.377 9.373-9.932-4-10.116-9.1-10.186" fill="#e3967c"/></g></g></g><g data-name="Group 794"><g data-name="Group 793"><g data-name="Group 792" clip-path="url(#v)" transform="translate(.744 .81)"><path data-name="Path 1378" d="M9.312.002C4.246-.067.077 4.349.002 9.867s3.969 10.048 9.035 10.118 9.234-4.347 9.311-9.866S14.378.071 9.312.002" fill="#e2957c"/></g></g></g><g data-name="Group 797"><g data-name="Group 796"><g data-name="Group 795" clip-path="url(#w)" transform="translate(.806 .877)"><path data-name="Path 1379" d="M9.248.002C4.216-.067.075 4.32 0 9.802s3.943 9.98 8.975 10.049 9.172-4.317 9.247-9.8S14.28.071 9.248.002" fill="#e2947b"/></g></g></g><g data-name="Group 800"><g data-name="Group 799"><g data-name="Group 798" clip-path="url(#x)" transform="translate(.867 .945)"><path data-name="Path 1380" d="M9.185.002C4.185-.067.075 4.29 0 9.734s3.916 9.912 8.914 9.98 9.11-4.288 9.184-9.731S14.183.071 9.185.002" fill="#e2937a"/></g></g></g><g data-name="Group 803"><g data-name="Group 802"><g data-name="Group 801" clip-path="url(#y)" transform="translate(.93 1.013)"><path data-name="Path 1381" d="M9.123.001C4.159-.067.076 4.26.002 9.666s3.888 9.844 8.852 9.912 9.047-4.259 9.122-9.665S14.087.069 9.124.001" fill="#e29279"/></g></g></g><g data-name="Group 806"><g data-name="Group 805"><g data-name="Group 804" clip-path="url(#z)" transform="translate(.991 1.08)"><path data-name="Path 1382" d="M9.057.001C4.128-.067.073 4.231-.002 9.601s3.862 9.777 8.791 9.844 8.984-4.229 9.059-9.6S13.986.069 9.057.001" fill="#e29179"/></g></g></g><g data-name="Group 809"><g data-name="Group 808"><g data-name="Group 807" clip-path="url(#A)" transform="translate(1.054 1.148)"><path data-name="Path 1383" d="M8.997.001c-4.895-.067-8.922 4.2-9 9.532s3.835 9.708 8.73 9.776 8.923-4.2 9-9.532S13.892.069 8.997.001" fill="#e19078"/></g></g></g><g data-name="Group 812"><g data-name="Group 811"><g data-name="Group 810" clip-path="url(#B)" transform="translate(1.116 1.215)"><path data-name="Path 1384" d="M8.933.001C4.073-.066.073 4.172 0 9.466s3.809 9.64 8.669 9.707 8.861-4.171 8.933-9.465S13.794.068 8.933.001" fill="#e18f77"/></g></g></g><g data-name="Group 815"><g data-name="Group 814"><g data-name="Group 813" clip-path="url(#C)" transform="translate(1.177 1.283)"><path data-name="Path 1385" d="M8.873.001c-4.826-.067-8.8 4.141-8.87 9.4s3.782 9.573 8.608 9.639 8.8-4.141 8.87-9.4S13.699.068 8.873.001" fill="#e18e76"/></g></g></g><g data-name="Group 818"><g data-name="Group 817"><g data-name="Group 816" clip-path="url(#D)" transform="translate(1.24 1.35)"><path data-name="Path 1386" d="M8.807.001C4.015-.065.071 4.113 0 9.333s3.755 9.5 8.547 9.571 8.736-4.112 8.807-9.332S13.599.072 8.807.001" fill="#e18d75"/></g></g></g><g data-name="Group 821"><g data-name="Group 820"><g data-name="Group 819" clip-path="url(#E)" transform="translate(1.302 1.418)"><path data-name="Path 1387" d="M8.745.001C3.987-.065.072 4.083.001 9.267s3.728 9.437 8.486 9.5 8.673-4.082 8.744-9.266S13.503.064 8.745.001" fill="#e18c75"/></g></g></g><g data-name="Group 824"><g data-name="Group 823"><g data-name="Group 822" clip-path="url(#F)" transform="translate(1.363 1.485)"><path data-name="Path 1388" d="M8.683.001C3.959-.064.073 4.055.002 9.201s3.7 9.368 8.424 9.434 8.61-4.054 8.681-9.2S13.407.066 8.683.001" fill="#e08b74"/></g></g></g><g data-name="Group 827"><g data-name="Group 826"><g data-name="Group 825" clip-path="url(#G)" transform="translate(1.426 1.553)"><path data-name="Path 1389" d="M8.62.001C3.93-.064.072 4.025.002 9.133s3.674 9.3 8.363 9.366 8.548-4.024 8.619-9.132S13.309.067 8.62.001" fill="#e08a73"/></g></g></g><g data-name="Group 830"><g data-name="Group 829"><g data-name="Group 828" clip-path="url(#H)" transform="translate(1.487 1.62)"><path data-name="Path 1390" d="M8.557.001C3.902-.063.071 3.996.002 9.066s3.647 9.233 8.3 9.3 8.486-3.995 8.555-9.066S13.21.067 8.557 0" fill="#e08972"/></g></g></g><g data-name="Group 833"><g data-name="Group 832"><g data-name="Group 831" clip-path="url(#I)" transform="translate(1.55 1.688)"><path data-name="Path 1391" d="M8.494.001C3.873-.063.071 3.966.002 9.001s3.621 9.166 8.242 9.23 8.424-3.965 8.492-9S13.115.066 8.494.002" fill="#e08872"/></g></g></g><g data-name="Group 836"><g data-name="Group 835"><g data-name="Group 834" clip-path="url(#J)" transform="translate(1.612 1.755)"><path data-name="Path 1392" d="M8.43.001C3.843-.062.069 3.937 0 8.933s3.594 9.1 8.181 9.16 8.361-3.936 8.43-8.931S13.017.062 8.43.001" fill="#df8771"/></g></g></g><g data-name="Group 839"><g data-name="Group 838"><g data-name="Group 837" clip-path="url(#K)" transform="translate(1.673 1.823)"><path data-name="Path 1393" d="M8.368.001C3.815-.062.068 3.907.001 8.866s3.567 9.03 8.12 9.093 8.3-3.907 8.367-8.866S12.921.064 8.368.001" fill="#df8670"/></g></g></g><g data-name="Group 842"><g data-name="Group 841"><g data-name="Group 840" clip-path="url(#L)" transform="translate(1.736 1.89)"><path data-name="Path 1394" d="M8.304.001C3.786-.061.068 3.878.004 8.801s3.54 8.962 8.058 9.024 8.236-3.877 8.3-8.8S12.821.063 8.303.001" fill="#df856f"/></g></g></g><g data-name="Group 845"><g data-name="Group 844"><g data-name="Group 843" clip-path="url(#M)" transform="translate(1.797 1.958)"><path data-name="Path 1395" d="M8.242.001C3.758-.061.068 3.849.001 8.733s3.514 8.893 8 8.955 8.174-3.847 8.242-8.732S12.729.062 8.243 0" fill="#df846f"/></g></g></g><g data-name="Group 848"><g data-name="Group 847"><g data-name="Group 846" clip-path="url(#N)" transform="translate(1.859 2.025)"><path data-name="Path 1396" d="M8.178.001C3.728-.06.067 3.819 0 8.666s3.486 8.826 7.936 8.887 8.112-3.818 8.178-8.665S12.628.063 8.178.001" fill="#df836e"/></g></g></g><g data-name="Group 851"><g data-name="Group 850"><g data-name="Group 849" clip-path="url(#O)" transform="translate(1.922 2.093)"><path data-name="Path 1397" d="M8.116.001C3.7-.06.067 3.79.001 8.601s3.459 8.758 7.875 8.819 8.049-3.789 8.115-8.6S12.531.062 8.116.001" fill="#de826d"/></g></g></g><g data-name="Group 854"><g data-name="Group 853"><g data-name="Group 852" clip-path="url(#P)" transform="translate(1.983 2.16)"><path data-name="Path 1398" d="M8.053.004C3.672-.056.067 3.763.001 8.536s3.433 8.69 7.814 8.751 7.987-3.759 8.052-8.532S12.434.065 8.053.004" fill="#de816c"/></g></g></g><g data-name="Group 857"><g data-name="Group 856"><g data-name="Group 855" clip-path="url(#Q)" transform="translate(2.045 2.228)"><path data-name="Path 1399" d="M7.99.001C3.643-.059.066 3.731.001 8.467s3.406 8.622 7.753 8.682 7.924-3.73 7.989-8.466S12.337.061 7.99.001" fill="#de806b"/></g></g></g><g data-name="Group 860"><g data-name="Group 859"><g data-name="Group 858" clip-path="url(#R)" transform="translate(2.107 2.295)"><path data-name="Path 1400" d="M7.928-.002C3.615-.061.066 3.698.002 8.398s3.379 8.554 7.692 8.614 7.862-3.7 7.926-8.4S12.241.058 7.928-.002" fill="#de7f6b"/></g></g></g><g data-name="Group 863"><g data-name="Group 862"><g data-name="Group 861" clip-path="url(#S)" transform="translate(2.169 2.363)"><path data-name="Path 1401" d="M7.859 0C3.58-.059.059 3.672-.004 8.332s3.353 8.487 7.632 8.546 7.8-3.672 7.863-8.332S12.139.059 7.86 0" fill="#de7e6a"/></g></g></g><g data-name="Group 866"><g data-name="Group 865"><g data-name="Group 864" clip-path="url(#T)" transform="translate(2.232 2.431)"><path data-name="Path 1402" d="M7.801 0C3.556-.058.064 3.642.001 8.266s3.326 8.418 7.57 8.477 7.737-3.642 7.8-8.266S12.046.059 7.801 0" fill="#dd7d69"/></g></g></g><g data-name="Group 869"><g data-name="Group 868"><g data-name="Group 867" clip-path="url(#U)" transform="translate(2.293 2.498)"><path data-name="Path 1403" d="M7.739 0C3.529-.058.064 3.613.001 8.2s3.3 8.35 7.509 8.409 7.675-3.613 7.738-8.2S11.948.059 7.739 0" fill="#dd7c68"/></g></g></g><g data-name="Group 872"><g data-name="Group 871"><g data-name="Group 870" clip-path="url(#V)" transform="translate(2.355 2.566)"><path data-name="Path 1404" d="M7.675.001C3.499-.057.063 3.584 0 8.133s3.272 8.283 7.448 8.34 7.612-3.583 7.675-8.132S11.851.058 7.675.001" fill="#dd7b68"/></g></g></g><g data-name="Group 875"><g data-name="Group 874"><g data-name="Group 873" clip-path="url(#W)" transform="translate(2.417 2.633)"><path data-name="Path 1405" d="M7.613 0C3.472-.056.063 3.555.001 8.066s3.245 8.215 7.387 8.272 7.55-3.554 7.612-8.066S11.755.057 7.613 0" fill="#dd7a67"/></g></g></g><g data-name="Group 878"><g data-name="Group 877"><g data-name="Group 876" clip-path="url(#X)" transform="translate(2.479 2.701)"><path data-name="Path 1406" d="M7.55.001C3.443-.055.063 3.525.001 8.001s3.218 8.147 7.326 8.2 7.487-3.524 7.549-8S11.658.054 7.55.001" fill="#dd7a66"/></g></g></g><g data-name="Group 881"><g data-name="Group 880"><g data-name="Group 879" clip-path="url(#Y)" transform="translate(2.541 2.768)"><path data-name="Path 1407" d="M7.491.001C3.418-.055.066 3.496.005 7.933s3.191 8.079 7.265 8.135 7.424-3.5 7.485-7.932S11.564.056 7.49.001" fill="#dc7965"/></g></g></g><g data-name="Group 884"><g data-name="Group 883"><g data-name="Group 882" clip-path="url(#Z)" transform="translate(2.603 2.836)"><path data-name="Path 1408" d="M7.425.001C3.386-.055.062 3.467.002 7.866s3.165 8.011 7.2 8.067 7.362-3.466 7.423-7.865S11.46.056 7.425.001" fill="#dc7864"/></g></g></g><g data-name="Group 887"><g data-name="Group 886"><g data-name="Group 885" clip-path="url(#aa)" transform="translate(2.665 2.903)"><path data-name="Path 1409" d="M7.361.001c-4.005-.055-7.3 3.436-7.36 7.8s3.138 7.943 7.143 8 7.3-3.436 7.36-7.8-3.138-7.943-7.143-8" fill="#dc7764"/></g></g></g><g data-name="Group 890"><g data-name="Group 889"><g data-name="Group 888" clip-path="url(#ab)" transform="translate(2.728 2.971)"><path data-name="Path 1410" d="M7.298.001C3.327-.053.06 3.408-.002 7.733s3.111 7.875 7.082 7.93 7.238-3.407 7.3-7.732S11.269.055 7.298.001" fill="#dc7663"/></g></g></g><g data-name="Group 893"><g data-name="Group 892"><g data-name="Group 891" clip-path="url(#ac)" transform="translate(2.789 3.038)"><path data-name="Path 1411" d="M7.235.001C3.299-.053.059 3.378 0 7.667s3.085 7.807 7.021 7.861 7.175-3.378 7.234-7.666S11.17.055 7.234 0" fill="#db7562"/></g></g></g><g data-name="Group 896"><g data-name="Group 895"><g data-name="Group 894" clip-path="url(#ad)" transform="translate(2.851 3.106)"><path data-name="Path 1412" d="M7.172.001C3.272-.053.059 3.349 0 7.601s3.058 7.74 6.96 7.793 7.113-3.349 7.172-7.6S11.074.054 7.172.001" fill="#db7461"/></g></g></g><g data-name="Group 899"><g data-name="Group 898"><g data-name="Group 897" clip-path="url(#ae)" transform="translate(2.913 3.173)"><path data-name="Path 1413" d="M7.109.001C3.241-.053.059 3.319 0 7.533s3.031 7.672 6.9 7.725 7.051-3.319 7.109-7.532-3.03-7.672-6.9-7.725" fill="#db7361"/></g></g></g><g data-name="Group 902"><g data-name="Group 901"><g data-name="Group 900" clip-path="url(#af)" transform="translate(2.975 3.241)"><path data-name="Path 1414" d="M7.046.001C3.212-.052.058 3.291 0 7.467s3 7.6 6.837 7.656 6.988-3.29 7.046-7.466-3-7.6-6.837-7.656" fill="#db7260"/></g></g></g><g data-name="Group 905"><g data-name="Group 904"><g data-name="Group 903" clip-path="url(#ag)" transform="translate(3.037 3.308)"><path data-name="Path 1415" d="M6.983.001C3.183-.051.057 3.261 0 7.401s2.977 7.536 6.777 7.589 6.926-3.261 6.983-7.4S10.783.054 6.983.002" fill="#db715f"/></g></g></g><g data-name="Group 908"><g data-name="Group 907"><g data-name="Group 906" clip-path="url(#ah)" transform="translate(3.099 3.375)"><path data-name="Path 1416" d="M6.921.001C3.156-.051.057 3.232.001 7.333s2.95 7.468 6.716 7.52 6.864-3.231 6.92-7.331S10.687.054 6.921.002" fill="#da705e"/></g></g></g><g data-name="Group 911"><g data-name="Group 910"><g data-name="Group 909" clip-path="url(#ai)" transform="translate(3.161 3.443)"><path data-name="Path 1417" d="M6.857.001c-3.731-.052-6.8 3.2-6.858 7.265s2.923 7.4 6.655 7.451 6.8-3.2 6.858-7.265S10.588.052 6.857.001" fill="#da6f5d"/></g></g></g><g data-name="Group 914"><g data-name="Group 913"><g data-name="Group 912" clip-path="url(#aj)" transform="translate(3.223 3.51)"><path data-name="Path 1418" d="M6.795.001C3.095-.05.056 3.173.001 7.201s2.9 7.333 6.594 7.383 6.739-3.172 6.794-7.2S10.489.052 6.796.001" fill="#da6e5d"/></g></g></g><g data-name="Group 917"><g data-name="Group 916"><g data-name="Group 915" clip-path="url(#ak)" transform="translate(3.285 3.578)"><path data-name="Path 1419" d="M6.732.001C3.07-.049.056 3.144.001 7.133s2.87 7.264 6.532 7.314 6.676-3.143 6.731-7.132S10.394.05 6.732 0" fill="#da6d5c"/></g></g></g><g data-name="Group 920"><g data-name="Group 919"><g data-name="Group 918" clip-path="url(#al)" transform="translate(3.347 3.645)"><path data-name="Path 1420" d="M6.669.001C3.041-.049.055 3.114.001 7.066s2.843 7.2 6.471 7.246 6.614-3.113 6.668-7.065S10.297.047 6.669.001" fill="#da6c5b"/></g></g></g><g data-name="Group 923"><g data-name="Group 922"><g data-name="Group 921" clip-path="url(#am)" transform="translate(3.409 3.713)"><path data-name="Path 1421" d="M6.606.001c-3.594-.05-6.552 3.084-6.605 7s2.816 7.128 6.41 7.178 6.552-3.084 6.605-7S10.2.051 6.606.001" fill="#d96b5a"/></g></g></g><g data-name="Group 926"><g data-name="Group 925"><g data-name="Group 924" clip-path="url(#an)" transform="translate(3.471 3.781)"><path data-name="Path 1422" d="M6.543 0a7.047 7.047 0 106.349 7.11A6.752 6.752 0 006.543 0" fill="#d96a5a"/></g></g></g><g data-name="Group 929"><g data-name="Group 928"><g data-name="Group 927" clip-path="url(#ao)" transform="translate(3.533 3.849)"><path data-name="Path 1423" d="M6.478 0a6.98 6.98 0 106.288 7.042A6.689 6.689 0 006.478 0" fill="#d96959"/></g></g></g><g data-name="Group 932"><g data-name="Group 931"><g data-name="Group 930" clip-path="url(#ap)" transform="translate(3.595 3.916)"><path data-name="Path 1424" d="M6.418 0a6.912 6.912 0 106.227 6.974A6.623 6.623 0 006.418 0" fill="#d96858"/></g></g></g><g data-name="Group 935"><g data-name="Group 934"><g data-name="Group 933" clip-path="url(#aq)" transform="translate(3.657 3.983)"><path data-name="Path 1425" d="M6.354 0a6.844 6.844 0 106.166 6.9A6.559 6.559 0 006.354 0" fill="#d86757"/></g></g></g><g data-name="Group 938"><g data-name="Group 937"><g data-name="Group 936" clip-path="url(#ar)" transform="translate(3.719 4.051)"><path data-name="Path 1426" d="M6.294 0a6.776 6.776 0 106.1 6.837A6.493 6.493 0 006.294 0" fill="#d86657"/></g></g></g><g data-name="Group 941"><g data-name="Group 940"><g data-name="Group 939" clip-path="url(#as)" transform="translate(3.781 4.118)"><path data-name="Path 1427" d="M6.228.001a6.709 6.709 0 106.044 6.768A6.427 6.427 0 006.228.001" fill="#d86556"/></g></g></g><g data-name="Group 944"><g data-name="Group 943"><g data-name="Group 942" clip-path="url(#at)" transform="translate(3.843 4.186)"><path data-name="Path 1428" d="M6.166.001a6.641 6.641 0 105.983 6.7 6.363 6.363 0 00-5.983-6.7" fill="#d86455"/></g></g></g><g data-name="Group 947"><g data-name="Group 946"><g data-name="Group 945" clip-path="url(#au)" transform="translate(3.905 4.253)"><path data-name="Path 1429" d="M6.103.001a6.573 6.573 0 105.922 6.631A6.3 6.3 0 006.103.001" fill="#d86354"/></g></g></g><g data-name="Group 950"><g data-name="Group 949"><g data-name="Group 948" clip-path="url(#av)" transform="translate(3.967 4.321)"><path data-name="Path 1430" d="M6.039.001A6.505 6.505 0 1011.9 6.564 6.233 6.233 0 006.039.001" fill="#d76253"/></g></g></g><g data-name="Group 953"><g data-name="Group 952"><g data-name="Group 951" clip-path="url(#aw)" transform="translate(4.029 4.388)"><path data-name="Path 1431" d="M5.977.003a6.438 6.438 0 105.8 6.495 6.169 6.169 0 00-5.8-6.495" fill="#d76153"/></g></g></g><g data-name="Group 956"><g data-name="Group 955"><g data-name="Group 954" clip-path="url(#ax)" transform="translate(4.091 4.456)"><path data-name="Path 1432" d="M5.914 0a6.37 6.37 0 105.738 6.426A6.1 6.1 0 005.914 0" fill="#d76052"/></g></g></g><g data-name="Group 959"><g data-name="Group 958"><g data-name="Group 957" clip-path="url(#ay)" transform="translate(4.153 4.523)"><path data-name="Path 1433" d="M5.851-.003a6.3 6.3 0 105.678 6.358A6.039 6.039 0 005.851-.003" fill="#d75f51"/></g></g></g><g data-name="Group 962"><g data-name="Group 961"><g data-name="Group 960" clip-path="url(#az)" transform="translate(4.215 4.591)"><path data-name="Path 1434" d="M5.789.001a6.234 6.234 0 105.616 6.29A5.973 5.973 0 005.789.001" fill="#d75e50"/></g></g></g><g data-name="Group 965"><g data-name="Group 964"><g data-name="Group 963" clip-path="url(#aA)" transform="translate(4.277 4.658)"><path data-name="Path 1435" d="M5.725.001a6.166 6.166 0 105.555 6.221A5.909 5.909 0 005.725.001" fill="#d65d50"/></g></g></g><g data-name="Group 968"><g data-name="Group 967"><g data-name="Group 966" clip-path="url(#aB)" transform="translate(4.339 4.726)"><path data-name="Path 1436" d="M5.663.001a6.1 6.1 0 105.494 6.153A5.844 5.844 0 005.663.001" fill="#d65c4f"/></g></g></g><g data-name="Group 971"><g data-name="Group 970"><g data-name="Group 969" clip-path="url(#aC)" transform="translate(4.401 4.793)"><path data-name="Path 1437" d="M5.599.001a6.031 6.031 0 105.434 6.084A5.778 5.778 0 005.6 0" fill="#d65b4e"/></g></g></g><g data-name="Group 974"><g data-name="Group 973"><g data-name="Group 972" clip-path="url(#aD)" transform="translate(4.463 4.861)"><path data-name="Path 1438" d="M5.536.001a5.963 5.963 0 105.372 6.016A5.714 5.714 0 005.536.001" fill="#d65a4d"/></g></g></g><g data-name="Group 977"><g data-name="Group 976"><g data-name="Group 975" clip-path="url(#aE)" transform="translate(4.525 4.928)"><path data-name="Path 1439" d="M5.473.001a5.9 5.9 0 105.312 5.948A5.649 5.649 0 005.473.001" fill="#d5594c"/></g></g></g><g data-name="Group 980"><g data-name="Group 979"><g data-name="Group 978" clip-path="url(#aF)" transform="translate(4.587 4.996)"><path data-name="Path 1440" d="M5.41.001a5.828 5.828 0 105.25 5.88A5.584 5.584 0 005.41.001" fill="#d5584c"/></g></g></g><g data-name="Group 983"><g data-name="Group 982"><g data-name="Group 981" clip-path="url(#aG)" transform="translate(4.648 5.063)"><path data-name="Path 1441" d="M5.348.001a5.76 5.76 0 105.189 5.811A5.52 5.52 0 005.348.001" fill="#d5574b"/></g></g></g><g data-name="Group 986"><g data-name="Group 985"><g data-name="Group 984" clip-path="url(#aH)" transform="translate(4.711 5.131)"><path data-name="Path 1442" d="M5.28.001a5.692 5.692 0 105.128 5.743A5.454 5.454 0 005.28.001" fill="#d5564a"/></g></g></g><g data-name="Group 989"><g data-name="Group 988"><g data-name="Group 987" clip-path="url(#aI)" transform="translate(4.773 5.198)"><path data-name="Path 1443" d="M5.222.001a5.624 5.624 0 105.067 5.675A5.389 5.389 0 005.222.001" fill="#d55549"/></g></g></g><g data-name="Group 992"><g data-name="Group 991"><g data-name="Group 990" clip-path="url(#aJ)" transform="translate(4.835 5.266)"><path data-name="Path 1444" d="M5.159 0a5.556 5.556 0 105.006 5.606A5.325 5.325 0 005.159 0" fill="#d45449"/></g></g></g><g data-name="Group 995"><g data-name="Group 994"><g data-name="Group 993" clip-path="url(#aK)" transform="translate(4.897 5.334)"><path data-name="Path 1445" d="M5.096.001a5.489 5.489 0 104.945 5.537A5.258 5.258 0 005.096.001" fill="#d45348"/></g></g></g><g data-name="Group 998"><g data-name="Group 997"><g data-name="Group 996" clip-path="url(#aL)" transform="translate(4.958 5.401)"><path data-name="Path 1446" d="M5.034 0a5.421 5.421 0 104.884 5.469A5.194 5.194 0 005.034 0" fill="#d45247"/></g></g></g></g></g></g><g data-name="Group 1247"><g data-name="Group 1246" opacity=".38"><g data-name="Group 1245" clip-path="url(#aM)" transform="translate(125.376 47.625)"><g data-name="Group 1004"><g data-name="Group 1003"><g data-name="Group 1002" clip-path="url(#aM)"><path data-name="Path 1447" d="M10.951 0a10.8 10.8 0 1010.653 10.95A10.8 10.8 0 0010.951 0" fill="#e5a185"/></g></g></g><g data-name="Group 1007"><g data-name="Group 1006"><g data-name="Group 1005" clip-path="url(#aN)" transform="translate(.067 .067)"><path data-name="Path 1448" d="M10.883 0a10.735 10.735 0 1010.586 10.883A10.735 10.735 0 0010.883 0" fill="#e5a084"/></g></g></g><g data-name="Group 1010"><g data-name="Group 1009"><g data-name="Group 1008" clip-path="url(#aO)" transform="translate(.135 .135)"><path data-name="Path 1449" d="M10.814.004a10.668 10.668 0 1010.518 10.81A10.668 10.668 0 0010.814.004" fill="#e59f83"/></g></g></g><g data-name="Group 1013"><g data-name="Group 1012"><g data-name="Group 1011" clip-path="url(#aP)" transform="translate(.202 .202)"><path data-name="Path 1450" d="M10.746.001a10.6 10.6 0 1010.453 10.745A10.6 10.6 0 0010.746.001" fill="#e49e83"/></g></g></g><g data-name="Group 1016"><g data-name="Group 1015"><g data-name="Group 1014" clip-path="url(#aQ)" transform="translate(.27 .27)"><path data-name="Path 1451" d="M10.677-.002a10.532 10.532 0 1010.387 10.68A10.533 10.533 0 0010.677-.002" fill="#e49d82"/></g></g></g><g data-name="Group 1019"><g data-name="Group 1018"><g data-name="Group 1017" clip-path="url(#aR)" transform="translate(.337 .337)"><path data-name="Path 1452" d="M10.609.001a10.465 10.465 0 1010.32 10.608A10.465 10.465 0 0010.609.001" fill="#e49c81"/></g></g></g><g data-name="Group 1022"><g data-name="Group 1021"><g data-name="Group 1020" clip-path="url(#aS)" transform="translate(.405 .405)"><path data-name="Path 1453" d="M10.54.001A10.4 10.4 0 1020.793 10.54 10.4 10.4 0 0010.54.001" fill="#e49b80"/></g></g></g><g data-name="Group 1025"><g data-name="Group 1024"><g data-name="Group 1023" clip-path="url(#aT)" transform="translate(.472 .472)"><path data-name="Path 1454" d="M10.473.001A10.33 10.33 0 1020.66 10.472 10.33 10.33 0 0010.473.001" fill="#e49a80"/></g></g></g><g data-name="Group 1028"><g data-name="Group 1027"><g data-name="Group 1026" clip-path="url(#aU)" transform="translate(.54 .54)"><path data-name="Path 1455" d="M10.403.001a10.262 10.262 0 1010.12 10.4 10.263 10.263 0 00-10.12-10.4" fill="#e3997f"/></g></g></g><g data-name="Group 1031"><g data-name="Group 1030"><g data-name="Group 1029" clip-path="url(#aV)" transform="translate(.607 .607)"><path data-name="Path 1456" d="M10.336.001A10.195 10.195 0 1020.39 10.335 10.194 10.194 0 0010.336.001" fill="#e3987e"/></g></g></g><g data-name="Group 1034"><g data-name="Group 1033"><g data-name="Group 1032" clip-path="url(#aW)" transform="translate(.675 .675)"><path data-name="Path 1457" d="M10.267 0a10.127 10.127 0 109.987 10.265A10.126 10.126 0 0010.267 0" fill="#e3977d"/></g></g></g><g data-name="Group 1037"><g data-name="Group 1036"><g data-name="Group 1035" clip-path="url(#aX)" transform="translate(.742 .743)"><path data-name="Path 1458" d="M10.199 0a10.06 10.06 0 109.921 10.2A10.06 10.06 0 0010.199 0" fill="#e3967c"/></g></g></g><g data-name="Group 1040"><g data-name="Group 1039"><g data-name="Group 1038" clip-path="url(#aY)" transform="translate(.81 .81)"><path data-name="Path 1459" d="M10.13 0a9.992 9.992 0 109.854 10.128A9.992 9.992 0 0010.13 0" fill="#e2957c"/></g></g></g><g data-name="Group 1043"><g data-name="Group 1042"><g data-name="Group 1041" clip-path="url(#aZ)" transform="translate(.877 .878)"><path data-name="Path 1460" d="M10.062.001a9.925 9.925 0 109.787 10.06A9.925 9.925 0 0010.062.001" fill="#e2947b"/></g></g></g><g data-name="Group 1046"><g data-name="Group 1045"><g data-name="Group 1044" clip-path="url(#ba)" transform="translate(.945 .945)"><path data-name="Path 1461" d="M9.996.001a9.857 9.857 0 109.721 9.991A9.857 9.857 0 009.996.001" fill="#e2937a"/></g></g></g><g data-name="Group 1049"><g data-name="Group 1048"><g data-name="Group 1047" clip-path="url(#bb)" transform="translate(1.013 1.013)"><path data-name="Path 1462" d="M9.924.001a9.79 9.79 0 109.654 9.923A9.789 9.789 0 009.924.001" fill="#e29279"/></g></g></g><g data-name="Group 1052"><g data-name="Group 1051"><g data-name="Group 1050" clip-path="url(#bc)" transform="translate(1.08 1.08)"><path data-name="Path 1463" d="M9.855.001a9.722 9.722 0 109.588 9.855A9.721 9.721 0 009.855.001" fill="#e29179"/></g></g></g><g data-name="Group 1055"><g data-name="Group 1054"><g data-name="Group 1053" clip-path="url(#bd)" transform="translate(1.148 1.148)"><path data-name="Path 1464" d="M9.786.001a9.655 9.655 0 109.52 9.786A9.655 9.655 0 009.786.001" fill="#e19078"/></g></g></g><g data-name="Group 1058"><g data-name="Group 1057"><g data-name="Group 1056" clip-path="url(#be)" transform="translate(1.215 1.215)"><path data-name="Path 1465" d="M9.719.001a9.587 9.587 0 109.454 9.718A9.587 9.587 0 009.719.001" fill="#e18f77"/></g></g></g><g data-name="Group 1061"><g data-name="Group 1060"><g data-name="Group 1059" clip-path="url(#bf)" transform="translate(1.283 1.283)"><path data-name="Path 1466" d="M9.651.001a9.52 9.52 0 109.387 9.65A9.521 9.521 0 009.651.001" fill="#e18e76"/></g></g></g><g data-name="Group 1064"><g data-name="Group 1063"><g data-name="Group 1062" clip-path="url(#bg)" transform="translate(1.35 1.35)"><path data-name="Path 1467" d="M9.583.002a9.452 9.452 0 109.321 9.581A9.452 9.452 0 009.583.002" fill="#e18d75"/></g></g></g><g data-name="Group 1067"><g data-name="Group 1066"><g data-name="Group 1065" clip-path="url(#bh)" transform="translate(1.418 1.418)"><path data-name="Path 1468" d="M9.514.001a9.385 9.385 0 109.254 9.514A9.386 9.386 0 009.514.001" fill="#e18c75"/></g></g></g><g data-name="Group 1070"><g data-name="Group 1069"><g data-name="Group 1068" clip-path="url(#bi)" transform="translate(1.485 1.485)"><path data-name="Path 1469" d="M9.446.001a9.317 9.317 0 109.188 9.445A9.317 9.317 0 009.446.001" fill="#e08b74"/></g></g></g><g data-name="Group 1073"><g data-name="Group 1072"><g data-name="Group 1071" clip-path="url(#bj)" transform="translate(1.553 1.553)"><path data-name="Path 1470" d="M9.377.002a9.249 9.249 0 109.121 9.376A9.25 9.25 0 009.377.002" fill="#e08a73"/></g></g></g><g data-name="Group 1076"><g data-name="Group 1075"><g data-name="Group 1074" clip-path="url(#bk)" transform="translate(1.62 1.62)"><path data-name="Path 1471" d="M9.309.002a9.182 9.182 0 109.055 9.307A9.182 9.182 0 009.309.002" fill="#e08972"/></g></g></g><g data-name="Group 1079"><g data-name="Group 1078"><g data-name="Group 1077" clip-path="url(#bl)" transform="translate(1.688 1.688)"><path data-name="Path 1472" d="M9.24.002a9.114 9.114 0 108.988 9.239A9.115 9.115 0 009.24.002" fill="#e08872"/></g></g></g><g data-name="Group 1082"><g data-name="Group 1081"><g data-name="Group 1080" clip-path="url(#bm)" transform="translate(1.755 1.755)"><path data-name="Path 1473" d="M9.172.002a9.047 9.047 0 108.922 9.171A9.046 9.046 0 009.172.002" fill="#df8771"/></g></g></g><g data-name="Group 1085"><g data-name="Group 1084"><g data-name="Group 1083" clip-path="url(#bn)" transform="translate(1.823 1.823)"><path data-name="Path 1474" d="M9.103.002a8.979 8.979 0 108.855 9.1 8.98 8.98 0 00-8.855-9.1" fill="#df8670"/></g></g></g><g data-name="Group 1088"><g data-name="Group 1087"><g data-name="Group 1086" clip-path="url(#bo)" transform="translate(1.89 1.89)"><path data-name="Path 1475" d="M9.035.002a8.912 8.912 0 108.789 9.034A8.911 8.911 0 009.035.002" fill="#df856f"/></g></g></g><g data-name="Group 1091"><g data-name="Group 1090"><g data-name="Group 1089" clip-path="url(#bp)" transform="translate(1.958 1.958)"><path data-name="Path 1476" d="M8.967.002a8.844 8.844 0 108.722 8.965A8.845 8.845 0 008.967.002" fill="#df846f"/></g></g></g><g data-name="Group 1094"><g data-name="Group 1093"><g data-name="Group 1092" clip-path="url(#bq)" transform="translate(2.025 2.025)"><path data-name="Path 1477" d="M8.898.002a8.777 8.777 0 108.656 8.9 8.777 8.777 0 00-8.656-8.9" fill="#df836e"/></g></g></g><g data-name="Group 1097"><g data-name="Group 1096"><g data-name="Group 1095" clip-path="url(#br)" transform="translate(2.093 2.093)"><path data-name="Path 1478" d="M8.83.001a8.709 8.709 0 108.588 8.829A8.71 8.71 0 008.83.001" fill="#de826d"/></g></g></g><g data-name="Group 1100"><g data-name="Group 1099"><g data-name="Group 1098" clip-path="url(#bs)" transform="translate(2.16 2.161)"><path data-name="Path 1479" d="M8.761.001a8.642 8.642 0 108.523 8.76A8.642 8.642 0 008.761.001" fill="#de816c"/></g></g></g><g data-name="Group 1103"><g data-name="Group 1102"><g data-name="Group 1101" clip-path="url(#bt)" transform="translate(2.228 2.228)"><path data-name="Path 1480" d="M8.693.001a8.574 8.574 0 108.455 8.692A8.575 8.575 0 008.693.001" fill="#de806b"/></g></g></g><g data-name="Group 1106"><g data-name="Group 1105"><g data-name="Group 1104" clip-path="url(#bu)" transform="translate(2.295 2.296)"><path data-name="Path 1481" d="M8.624.001a8.507 8.507 0 108.39 8.623A8.506 8.506 0 008.624.001" fill="#de7f6b"/></g></g></g><g data-name="Group 1109"><g data-name="Group 1108"><g data-name="Group 1107" clip-path="url(#bv)" transform="translate(2.363 2.363)"><path data-name="Path 1482" d="M8.555.003a8.44 8.44 0 108.322 8.555A8.44 8.44 0 008.555.003" fill="#de7e6a"/></g></g></g><g data-name="Group 1112"><g data-name="Group 1111"><g data-name="Group 1110" clip-path="url(#bw)" transform="translate(2.431 2.431)"><path data-name="Path 1483" d="M8.486 0a8.372 8.372 0 108.257 8.487A8.371 8.371 0 008.486 0" fill="#dd7d69"/></g></g></g><g data-name="Group 1115"><g data-name="Group 1114"><g data-name="Group 1113" clip-path="url(#bx)" transform="translate(2.498 2.498)"><path data-name="Path 1484" d="M8.418-.003a8.3 8.3 0 108.189 8.418A8.305 8.305 0 008.418-.003" fill="#dd7c68"/></g></g></g><g data-name="Group 1118"><g data-name="Group 1117"><g data-name="Group 1116" clip-path="url(#by)" transform="translate(2.566 2.566)"><path data-name="Path 1485" d="M8.35.001a8.237 8.237 0 108.122 8.35A8.237 8.237 0 008.35.001" fill="#dd7b68"/></g></g></g><g data-name="Group 1121"><g data-name="Group 1120"><g data-name="Group 1119" clip-path="url(#bz)" transform="translate(2.633 2.633)"><path data-name="Path 1486" d="M8.281.001a8.17 8.17 0 108.056 8.281A8.17 8.17 0 008.281.001" fill="#dd7a67"/></g></g></g><g data-name="Group 1124"><g data-name="Group 1123"><g data-name="Group 1122" clip-path="url(#bA)" transform="translate(2.701 2.701)"><path data-name="Path 1487" d="M8.216.001a8.1 8.1 0 107.989 8.213A8.1 8.1 0 008.216.001" fill="#dd7a66"/></g></g></g><g data-name="Group 1127"><g data-name="Group 1126"><g data-name="Group 1125" clip-path="url(#bB)" transform="translate(2.768 2.768)"><path data-name="Path 1488" d="M8.144.001a8.034 8.034 0 107.923 8.145A8.035 8.035 0 008.144.001" fill="#dc7965"/></g></g></g><g data-name="Group 1130"><g data-name="Group 1129"><g data-name="Group 1128" clip-path="url(#bC)" transform="translate(2.836 2.836)"><path data-name="Path 1489" d="M8.076.001a7.967 7.967 0 107.856 8.076A7.967 7.967 0 008.076.001" fill="#dc7864"/></g></g></g><g data-name="Group 1133"><g data-name="Group 1132"><g data-name="Group 1131" clip-path="url(#bD)" transform="translate(2.903 2.903)"><path data-name="Path 1490" d="M8.007.001a7.9 7.9 0 107.79 8.008A7.9 7.9 0 008.007.001" fill="#dc7764"/></g></g></g><g data-name="Group 1136"><g data-name="Group 1135"><g data-name="Group 1134" clip-path="url(#bE)" transform="translate(2.971 2.971)"><path data-name="Path 1491" d="M7.939.001a7.832 7.832 0 107.723 7.939A7.832 7.832 0 007.939.001" fill="#dc7663"/></g></g></g><g data-name="Group 1139"><g data-name="Group 1138"><g data-name="Group 1137" clip-path="url(#bF)" transform="translate(3.038 3.038)"><path data-name="Path 1492" d="M7.87.001a7.764 7.764 0 107.657 7.871A7.765 7.765 0 007.87.001" fill="#db7562"/></g></g></g><g data-name="Group 1142"><g data-name="Group 1141"><g data-name="Group 1140" clip-path="url(#bG)" transform="translate(3.106 3.106)"><path data-name="Path 1493" d="M7.803.001a7.7 7.7 0 107.59 7.8 7.7 7.7 0 00-7.59-7.8" fill="#db7461"/></g></g></g><g data-name="Group 1145"><g data-name="Group 1144"><g data-name="Group 1143" clip-path="url(#bH)" transform="translate(3.173 3.173)"><path data-name="Path 1494" d="M7.734.001a7.629 7.629 0 107.523 7.734A7.629 7.629 0 007.734.001" fill="#db7361"/></g></g></g><g data-name="Group 1148"><g data-name="Group 1147"><g data-name="Group 1146" clip-path="url(#bI)" transform="translate(3.241 3.241)"><path data-name="Path 1495" d="M7.666.001a7.562 7.562 0 107.457 7.666A7.562 7.562 0 007.666.001" fill="#db7260"/></g></g></g><g data-name="Group 1151"><g data-name="Group 1150"><g data-name="Group 1149" clip-path="url(#bJ)" transform="translate(3.308 3.308)"><path data-name="Path 1496" d="M7.598.002a7.494 7.494 0 107.39 7.6 7.5 7.5 0 00-7.39-7.6" fill="#db715f"/></g></g></g><g data-name="Group 1154"><g data-name="Group 1153"><g data-name="Group 1152" clip-path="url(#bK)" transform="translate(3.375 3.375)"><path data-name="Path 1497" d="M7.53.001a7.427 7.427 0 107.324 7.529A7.427 7.427 0 007.53.001" fill="#da705e"/></g></g></g><g data-name="Group 1157"><g data-name="Group 1156"><g data-name="Group 1155" clip-path="url(#bL)" transform="translate(3.443 3.444)"><path data-name="Path 1498" d="M7.461.001a7.359 7.359 0 107.257 7.46A7.359 7.359 0 007.461.001" fill="#da6f5d"/></g></g></g><g data-name="Group 1160"><g data-name="Group 1159"><g data-name="Group 1158" clip-path="url(#bM)" transform="translate(3.51 3.511)"><path data-name="Path 1499" d="M7.393.001a7.292 7.292 0 107.191 7.391A7.291 7.291 0 007.393.001" fill="#da6e5d"/></g></g></g><g data-name="Group 1163"><g data-name="Group 1162"><g data-name="Group 1161" clip-path="url(#bN)" transform="translate(3.578 3.579)"><path data-name="Path 1500" d="M7.325 0a7.224 7.224 0 107.124 7.323A7.225 7.225 0 007.325 0" fill="#da6d5c"/></g></g></g><g data-name="Group 1166"><g data-name="Group 1165"><g data-name="Group 1164" clip-path="url(#bO)" transform="translate(3.645 3.646)"><path data-name="Path 1501" d="M7.256.001a7.157 7.157 0 107.057 7.254A7.156 7.156 0 007.256.001" fill="#da6c5b"/></g></g></g><g data-name="Group 1169"><g data-name="Group 1168"><g data-name="Group 1167" clip-path="url(#bP)" transform="translate(3.714 3.714)"><path data-name="Path 1502" d="M7.187.001a7.089 7.089 0 106.991 7.186A7.088 7.088 0 007.187.001" fill="#d96b5a"/></g></g></g><g data-name="Group 1172"><g data-name="Group 1171"><g data-name="Group 1170" clip-path="url(#bQ)" transform="translate(3.781 3.781)"><path data-name="Path 1503" d="M7.118.001a7.022 7.022 0 106.925 7.117A7.021 7.021 0 007.118.001" fill="#d96a5a"/></g></g></g><g data-name="Group 1175"><g data-name="Group 1174"><g data-name="Group 1173" clip-path="url(#bR)" transform="translate(3.849 3.849)"><path data-name="Path 1504" d="M7.05.001a6.954 6.954 0 106.858 7.049A6.954 6.954 0 007.05.001" fill="#d96959"/></g></g></g><g data-name="Group 1178"><g data-name="Group 1177"><g data-name="Group 1176" clip-path="url(#bS)" transform="translate(3.916 3.916)"><path data-name="Path 1505" d="M6.981.001a6.887 6.887 0 106.791 6.98A6.886 6.886 0 006.981.001" fill="#d96858"/></g></g></g><g data-name="Group 1181"><g data-name="Group 1180"><g data-name="Group 1179" clip-path="url(#bT)" transform="translate(3.983 3.983)"><path data-name="Path 1506" d="M6.913.001a6.819 6.819 0 106.725 6.912A6.819 6.819 0 006.913.001" fill="#d86757"/></g></g></g><g data-name="Group 1184"><g data-name="Group 1183"><g data-name="Group 1182" clip-path="url(#bU)" transform="translate(4.051 4.051)"><path data-name="Path 1507" d="M6.845.001a6.751 6.751 0 106.657 6.844A6.751 6.751 0 006.845.001" fill="#d86657"/></g></g></g><g data-name="Group 1187"><g data-name="Group 1186"><g data-name="Group 1185" clip-path="url(#bV)" transform="translate(4.118 4.118)"><path data-name="Path 1508" d="M6.776.001a6.684 6.684 0 106.592 6.775A6.684 6.684 0 006.776.001" fill="#d86556"/></g></g></g><g data-name="Group 1190"><g data-name="Group 1189"><g data-name="Group 1188" clip-path="url(#bW)" transform="translate(4.186 4.186)"><path data-name="Path 1509" d="M6.708.001a6.616 6.616 0 106.524 6.707A6.616 6.616 0 006.708.001" fill="#d86455"/></g></g></g><g data-name="Group 1193"><g data-name="Group 1192"><g data-name="Group 1191" clip-path="url(#bX)" transform="translate(4.253 4.253)"><path data-name="Path 1510" d="M6.639.001a6.549 6.549 0 106.458 6.638A6.548 6.548 0 006.639.001" fill="#d86354"/></g></g></g><g data-name="Group 1196"><g data-name="Group 1195"><g data-name="Group 1194" clip-path="url(#bY)" transform="translate(4.321 4.321)"><path data-name="Path 1511" d="M6.571.001a6.481 6.481 0 106.391 6.57A6.481 6.481 0 006.571.001" fill="#d76253"/></g></g></g><g data-name="Group 1199"><g data-name="Group 1198"><g data-name="Group 1197" clip-path="url(#bZ)" transform="translate(4.388 4.388)"><path data-name="Path 1512" d="M6.502.001a6.414 6.414 0 106.325 6.5 6.413 6.413 0 00-6.325-6.5" fill="#d76153"/></g></g></g><g data-name="Group 1202"><g data-name="Group 1201"><g data-name="Group 1200" clip-path="url(#ca)" transform="translate(4.456 4.456)"><path data-name="Path 1513" d="M6.437.001a6.346 6.346 0 106.258 6.433A6.346 6.346 0 006.437.001" fill="#d76052"/></g></g></g><g data-name="Group 1205"><g data-name="Group 1204"><g data-name="Group 1203" clip-path="url(#cb)" transform="translate(4.523 4.523)"><path data-name="Path 1514" d="M6.365.001a6.279 6.279 0 106.192 6.364A6.278 6.278 0 006.365.001" fill="#d75f51"/></g></g></g><g data-name="Group 1208"><g data-name="Group 1207"><g data-name="Group 1206" clip-path="url(#cc)" transform="translate(4.591 4.591)"><path data-name="Path 1515" d="M6.297.003a6.211 6.211 0 106.125 6.3 6.212 6.212 0 00-6.125-6.3" fill="#d75e50"/></g></g></g><g data-name="Group 1211"><g data-name="Group 1210"><g data-name="Group 1209" clip-path="url(#cd)" transform="translate(4.658 4.658)"><path data-name="Path 1516" d="M6.228 0a6.144 6.144 0 106.059 6.228A6.144 6.144 0 006.228 0" fill="#d65d50"/></g></g></g><g data-name="Group 1214"><g data-name="Group 1213"><g data-name="Group 1212" clip-path="url(#ce)" transform="translate(4.726 4.726)"><path data-name="Path 1517" d="M6.16-.003a6.076 6.076 0 105.992 6.159A6.076 6.076 0 006.16-.003" fill="#d65c4f"/></g></g></g><g data-name="Group 1217"><g data-name="Group 1216"><g data-name="Group 1215" clip-path="url(#cf)" transform="translate(4.793 4.793)"><path data-name="Path 1518" d="M6.092.001a6.009 6.009 0 105.93 6.093A6.008 6.008 0 006.097.003" fill="#d65b4e"/></g></g></g><g data-name="Group 1220"><g data-name="Group 1219"><g data-name="Group 1218" clip-path="url(#cg)" transform="translate(4.861 4.861)"><path data-name="Path 1519" d="M6.019 0a5.941 5.941 0 105.859 6.022A5.941 5.941 0 006.019 0" fill="#d65a4d"/></g></g></g><g data-name="Group 1223"><g data-name="Group 1222"><g data-name="Group 1221" clip-path="url(#ch)" transform="translate(4.928 4.929)"><path data-name="Path 1520" d="M5.955 0a5.874 5.874 0 105.792 5.954A5.874 5.874 0 005.955 0" fill="#d5594c"/></g></g></g><g data-name="Group 1226"><g data-name="Group 1225"><g data-name="Group 1224" clip-path="url(#ci)" transform="translate(4.996 4.996)"><path data-name="Path 1521" d="M5.886 0a5.806 5.806 0 105.727 5.884A5.806 5.806 0 005.887-.001" fill="#d5584c"/></g></g></g><g data-name="Group 1229"><g data-name="Group 1228"><g data-name="Group 1227" clip-path="url(#cj)" transform="translate(5.063 5.064)"><path data-name="Path 1522" d="M5.819 0a5.739 5.739 0 105.659 5.818A5.741 5.741 0 005.819 0" fill="#d5574b"/></g></g></g><g data-name="Group 1232"><g data-name="Group 1231"><g data-name="Group 1230" clip-path="url(#ck)" transform="translate(5.131 5.131)"><path data-name="Path 1523" d="M5.749 0a5.671 5.671 0 105.593 5.749A5.671 5.671 0 005.749 0" fill="#d5564a"/></g></g></g><g data-name="Group 1235"><g data-name="Group 1234"><g data-name="Group 1233" clip-path="url(#cl)" transform="translate(5.199 5.199)"><path data-name="Path 1524" d="M5.68 0a5.6 5.6 0 105.526 5.681A5.6 5.6 0 005.68 0" fill="#d55549"/></g></g></g><g data-name="Group 1238"><g data-name="Group 1237"><g data-name="Group 1236" clip-path="url(#cm)" transform="translate(5.266 5.266)"><path data-name="Path 1525" d="M5.612.001a5.536 5.536 0 105.46 5.612A5.536 5.536 0 005.612.001" fill="#d45449"/></g></g></g><g data-name="Group 1241"><g data-name="Group 1240"><g data-name="Group 1239" clip-path="url(#cn)" transform="translate(5.334 5.334)"><path data-name="Path 1526" d="M5.544.001a5.469 5.469 0 105.393 5.543A5.469 5.469 0 005.544.001" fill="#d45348"/></g></g></g><g data-name="Group 1244"><g data-name="Group 1243"><g data-name="Group 1242" clip-path="url(#co)" transform="translate(5.401 5.401)"><path data-name="Path 1527" d="M5.475.001a5.4 5.4 0 105.327 5.475A5.4 5.4 0 005.475.001" fill="#d45247"/></g></g></g></g></g></g><path data-name="Path 1528" d="M154.646 49.226c-2.82-1.015-6.227 1.53-7.61 5.686s-.219 8.346 2.6 9.36 6.227-1.531 7.611-5.685.218-8.346-2.6-9.361" fill="#e5a185"/><path data-name="Path 1529" d="M154.947 59.036a6.4 6.4 0 01-7.758-.545 27.871 27.871 0 01-5.733 16.891c-4.035 5.427-12.744 7.21-19.21 6.963-15.426-.59-19.477-5.312-22.638-11.68 2.165 6.983 7.493 13.452 19.623 14.3 22.477 1.57 28.68-7.8 29.572-21.124a3.843 3.843 0 00.834.432c2.819 1.015 6.226-1.531 7.61-5.686a11.2 11.2 0 00.574-3.163 6.976 6.976 0 01-2.874 3.612" fill="#d78c74"/><path data-name="Path 1530" d="M149.969 56.764l2.58.373a5.775 5.775 0 013-5.421c-4.9-1.777-5.583 5.048-5.583 5.048" fill="#d78c74"/><g data-name="Group 1250"><g data-name="Group 1249" opacity=".72"><g data-name="Group 1248" clip-path="url(#cp)" transform="translate(127.224 35.6)"><path data-name="Path 1531" d="M2.033 0s-4.8 9.7.349 15.821c0 0 4.24 1.554 5.814 1.458 1.17-.071 5.165-2.125 5.165-2.125s2.047-4.371 1.684-7.118S2.032 0 2.032 0" fill="#d78c74"/></g></g></g><path data-name="Path 1532" d="M112.963 66.343s-.455 1.515.288 2.26 2.889 2.692 9.556 2.374c6.289-.3 9.143-2.621 9.7-3.694a3.717 3.717 0 00-.076-2.634z" fill="#ce826e"/><g data-name="Group 1253"><g data-name="Group 1252" opacity=".72"><g data-name="Group 1251" clip-path="url(#cq)" transform="translate(104.554 36.081)"><path data-name="Path 1533" d="M14.232 0s1.909 9.344-3.664 15.352c0 0-6.165.839-7.547.363-1.239-.427-2.94-3.974-2.94-3.974a8.825 8.825 0 01.44-4.187C1.321 5.096 14.231 0 14.231 0" fill="#d78c74"/></g></g></g><path data-name="Path 1534" d="M105.077 44.289c5.717-3.565 10.772-1.642 13.321-3.958.972-.884.372-4.59.372-4.59-13.693 1.478-13.693 8.548-13.693 8.548" fill="#422e26"/><path data-name="Path 1535" d="M129.26 35.6s-1.84 3.664-1.16 4.656c2.12 3.077 9.782 1.185 14.151 4.81 0 0 1.072-6.2-12.995-9.465" fill="#422e26"/><path data-name="Path 1536" d="M133.09 64.381v.022a.132.132 0 000-.022" fill="#6c332e"/><path data-name="Path 1537" d="M119.113 54.838s-4.05-2.968-5.5 2.2 8.849 8.276 11.7 2.879-4.506-15.506-4.506-15.506 1.438 6.215-1.688 10.426" fill="#e5a185"/><path data-name="Path 1538" d="M150.314 50.123h-2.776c-.5 5.327-2.317 8.679-4.4 10.788a6.047 6.047 0 01-6.341 1.4 33.914 33.914 0 00-16.7-2.386s-15.393 8.375-19.062-1.507a28.108 28.108 0 01-1.523-8.3c-3.453 14.035-4.984 36.024 24.087 36.016 29.528-.007 25.528-22.675 25.528-22.675-1.416-4.975 1.187-13.337 1.187-13.337m-16.668 19.054c-1.808 2.12-5.171 4.032-10.061 4.323q-.694.041-1.352.041a17.412 17.412 0 01-10.107-2.954 2.441 2.441 0 01-.109-3.946 34.729 34.729 0 0011.229 1.149 26.77 26.77 0 009.984-2.462 2.5 2.5 0 01.416 3.849" fill="#4f372d"/><g data-name="Group 1256"><g data-name="Group 1255" opacity=".2"><g data-name="Group 1254" clip-path="url(#cr)" transform="translate(113.714 48.653)"><path data-name="Path 1539" d="M7.393 0a10.98 10.98 0 01-2 6.185S1.46 3.392-.007 8.037a36.755 36.755 0 006.436 1A26.489 26.489 0 008.215.07L7.386.001" fill="#fff"/></g></g></g><path data-name="Path 1540" d="M125.755 9.66c-28.58 1.9-24.424 33.571-24.424 33.571 1.7-9.42 7.588-21.1 12.087-21.333a17.171 17.171 0 009.76 3.316c5.235.105 12.494-3.7 12.494-3.7 5.222-.122 11.2 16.044 11.893 29.072.159 2.981 2.748-.459 2.748-.459s3.446-42.319-24.559-40.463" fill="#4f372d"/><path data-name="Path 1541" d="M140.693 12.126c-8.451-12.9-35.987-9.152-35.987-9.152-2.671 14.633 7.559 17.932 7.559 17.932s23.841-4.249 27.448-1.7 10.651 23.007 10.651 23.007 6.094-21.356 1.6-29.211c-3.3-5.766-11.273-.873-11.273-.873" fill="#4f372d"/><path data-name="Path 1542" d="M115.359 0a7.941 7.941 0 001.769 3.907s28.876 19.617 23.565 8.219S115.359 0 115.359 0" fill="#4f372d"/><path data-name="Path 1543" d="M145.373 8.202c-1.625.251-2.007 1.019-2.007 1.019 1.169-2.136.363-5.046.363-5.046-3.173 1.817-2.859 4.35-2.859 4.35-1.554-3.258-6.343-4.268-6.343-4.268.155 2.691 3.026 5.437 3.182 5.521l2.489 3.79 5.15-.81-.508-2.3a2.824 2.824 0 00.537-2.256" fill="#4f372d"/><path data-name="Path 1544" d="M105.479 14.111c-8.4 2.554-5.967 36.007-5.967 36.007 1.7-9.42 9.406-27.99 13.906-28.221a29.672 29.672 0 01-7.939-7.786" fill="#422e26"/><g data-name="Group 1259"><g data-name="Group 1258" opacity=".12"><g data-name="Group 1257" clip-path="url(#cs)" transform="translate(138.155 11.879)"><path data-name="Path 1545" d="M.005.004c.013 0 .044-.006 0 0z" fill="#fff"/></g></g></g><g data-name="Group 1262"><g data-name="Group 1261" opacity=".12"><g data-name="Group 1260" clip-path="url(#ct)" transform="translate(138.155 11.567)"><path data-name="Path 1546" d="M.006 0z" fill="#fff"/></g></g></g><g data-name="Group 1265"><g data-name="Group 1264" opacity=".11"><g data-name="Group 1263" clip-path="url(#cu)" transform="translate(104.297 3.8)"><path data-name="Path 1548" d="M44.418 6.6c-1.029.164-2.115.419-3.235.675a23.364 23.364 0 01-8.223.649c-3.183-.427-5.976-1.85-8.8-3.277-1.428-.717-2.848-1.447-4.321-2.081-3.148-1.35-6.862-2.674-10.333-2.56a14.579 14.579 0 00-4.983 1.228A10.74 10.74 0 00.965 3.612a9.837 9.837 0 00-.966 1.131 17.66 17.66 0 00.414 3.146c.109-.088.221-.18.341-.273A10.643 10.643 0 012.88 6.405a9.409 9.409 0 012.844-.721c4.13-.317 7.965 1.34 11.694 2.881 1.527.631 3.079 1.365 4.722 2.046a51.219 51.219 0 005.131 1.906 18.245 18.245 0 009.744.345c.414-.115.824-.211 1.221-.333a27.705 27.705 0 004.153-1.757c1.194-.615 2.216-1.175 3.117-1.6a11.285 11.285 0 011.691-.676 5.094 5.094 0 00-2.782-1.895" fill="#e5912f"/></g></g></g><g data-name="Group 1268"><g data-name="Group 1267" opacity=".12"><g data-name="Group 1266" clip-path="url(#cv)" transform="translate(138.093 11.883)"><path data-name="Path 1549" d="M0 .001z" fill="#fff"/></g></g></g><path data-name="Path 1550" d="M113.503 58.483c.589 4.248 9.231 6.306 11.8 1.434a5.211 5.211 0 00.375-.932 25.665 25.665 0 01-12.178-.5" fill="#d78c74"/><g data-name="Group 1271"><g data-name="Group 1270" opacity=".19"><g data-name="Group 1269" clip-path="url(#cw)" transform="translate(120.081 75.01)"><path data-name="Path 1551" d="M1.758.55a15.556 15.556 0 005.031-.5 1.589 1.589 0 012 1.624c-.1 1.067-.988 2.23-4.173 2.607-3.265.386-4.32-.672-4.574-1.793A1.609 1.609 0 011.761.551"/></g></g></g><path data-name="Path 1552" d="M109.975 50.849c-4.022-.33-5.338-3.027-5.338-3.027s-.366 5.19 4.779 5.479a7.59 7.59 0 007.943-5.232s-3.2 3.124-7.384 2.78" fill="#381911"/><path data-name="Path 1553" d="M134.885 51.219c-5.288-.1-7.054-2.994-7.054-2.994s-.145 5.874 5.986 5.793c6.379-.083 7.248-4.418 7.248-4.418s-1.975 1.7-6.179 1.618" fill="#381911"/><path data-name="Path 1554" d="M126.616 208.752c20.151-8.794 61.655-38.024 74.224-36.492s21.922 15.906 15.791 26.944c-4.582 8.247-67.552 40.912-67.552 40.912-19.212 5.738-18.843.962-26.366.971-6.288.007-9.659 4.013-22.277-.153-35.173-11.612-79.963-28.58-75.214-50.075 5.825-26.365 34.7-11.343 47.826-4.9s38.182 29.511 53.567 22.8" fill="#787b9b"/><path data-name="Path 1555" d="M121.334 228.552c4.219-2.334 19.446.732 31.1-5.449 8.869-4.7 14.115.263 15.931 9.4s-3.241 15.378-9.4 17.218c-5.427 1.621-37.492-.2-39.715-1.373-11.177-5.884-2.275-17.388 2.079-19.8" fill="#d6d6d6"/><path data-name="Path 1556" d="M110.326 222.028s11.306 6.607 19.008 7.358c5.376.524 6.233 15.687-3.679 16.351-5.946.4-23.759-8.176-23.759-8.176z" fill="#a8a8a8"/><path data-name="Path 1557" d="M144.462 229.049c-4.115.366-9.113.609-11.91 0-5.323-1.149-6.055 4.6-6.974 9.5s1.494 6.986 5.979 7.588c5.135.689 9.214-.009 14.276-.4.869-5.7-.066-11.34-1.371-16.7" fill="#d6d6d6"/><path data-name="Path 1558" d="M147.525 228.262c3.27 2.249 4.163 15.29 1.661 18.175-2.044 2.357-14.55 2.313-14.742-1.365s3.234-11.445.254-16.376c-.7-1.158 10.526-2.017 12.826-.435" fill="#e8e8e8"/><path data-name="Path 1559" d="M25.222 190.859c5.825-26.366 34.9-12.314 45.935-3.577 6.408 5.073 27.592 23.46 42.858 33.621-3.15 9.893-6.446 15.914-11.958 24.95l-.16-.015s-82.5-28.614-76.676-54.979" fill="#8185a5"/><path data-name="Path 1560" d="M120.388 231.004c-4.219-2.334-19.446.732-31.1-5.448-8.869-4.7-14.115.263-15.93 9.4s3.241 15.378 9.4 17.218c5.427 1.621 37.492-.2 39.714-1.372 11.177-5.884 2.275-17.389-2.079-19.8" fill="#e3e4e5"/><path data-name="Path 1561" d="M131.4 224.481s-11.306 6.607-19.008 7.358c-5.376.524-6.233 15.687 3.679 16.351 5.946.4 23.76-8.176 23.76-8.176z" fill="#bcbcbc"/><path data-name="Path 1562" d="M97.263 231.501c4.115.366 9.113.609 11.91 0 5.323-1.15 6.055 4.6 6.974 9.5s-1.494 6.985-5.978 7.588c-5.135.689-9.215-.009-14.276-.4-.869-5.7.066-11.34 1.37-16.7" fill="#d6d6d6"/><path data-name="Path 1563" d="M94.202 230.714c-3.271 2.249-4.164 15.291-1.661 18.175 2.043 2.357 14.549 2.314 14.741-1.365s-3.234-11.445-.254-16.376c.7-1.158-10.527-2.017-12.826-.435" fill="#f4f4f4"/><path data-name="Path 1564" d="M202.628 173.283c12.57 1.533 20.9 14.884 14.764 25.921s-75.7 49.906-82.619 48.321c-11.745-2.687-15.859-16.872-12.263-25.492 14.818-4.6 68.475-50.17 80.119-48.75" fill="#8185a5"/><path data-name="Path 1565" d="M126.616 208.752c20.151-8.794 59.3-40.007 71.873-38.474s24.916 17.339 18.785 28.376c-4.581 8.246-68.194 41.462-68.194 41.462-19.212 5.738-18.843.962-26.366.971-6.288.007-9.659 4.013-22.277-.153-35.173-11.612-79.963-28.58-75.214-50.075 5.825-26.365 34.7-11.343 47.826-4.9s38.182 29.511 53.567 22.8" fill="#2b3033"/><path data-name="Path 1566" d="M118.851 227.795c6.533-5.358 11.5 3.839 34.1-5.975 11.1-4.819 20.678.208 21.956 10.734 1.43 11.778-7.813 16.5-13.884 17.81s-41.988-.452-44.334-1.895c-9.925-6.1-2.062-17.214 2.158-20.674" fill="#e8e8e8"/><path data-name="Path 1567" d="M118.228 227.808c5.968-5.346 10.535 3.861 31.2-5.911 10.144-4.8 19.125.21 20.313 10.738 1.33 11.781-4.231 15.567-11.6 18.167-5.378 1.9-39.182-.466-41.331-1.913-9.093-6.12-2.431-17.629 1.424-21.082" fill="#c6cacc"/><path data-name="Path 1568" d="M121.334 228.552c4.219-2.334 19.446.732 31.1-5.449 8.869-4.7 14.115.263 15.931 9.4s-3.241 15.378-9.4 17.218c-5.427 1.621-37.492-.2-39.715-1.373-11.177-5.884-2.275-17.388 2.079-19.8" fill="#49535e"/><path data-name="Path 1569" d="M110.326 222.028s11.306 6.607 19.008 7.358c5.376.524 6.233 15.687-3.679 16.351-5.946.4-23.759-8.176-23.759-8.176z" fill="#7b859b"/><path data-name="Path 1570" d="M144.462 229.049c-4.115.366-9.113.609-11.91 0-5.323-1.149-6.055 4.6-6.974 9.5s1.494 6.986 5.979 7.588c5.135.689 9.214-.009 14.276-.4.869-5.7-.066-11.34-1.371-16.7" fill="#49535e"/><path data-name="Path 1571" d="M147.525 228.262c3.27 2.249 4.163 15.29 1.661 18.175-2.044 2.357-14.55 2.313-14.742-1.365s3.234-11.445.254-16.376c-.7-1.158 10.526-2.017 12.826-.435" fill="#dcdee2"/><path data-name="Path 1572" d="M25.222 190.859c6.163-26.288 34.9-12.314 45.935-3.577 6.408 5.073 27.592 23.46 42.858 33.621-3.15 9.893-6.446 15.914-11.958 24.95l-.16-.015s-83.181-27.223-76.675-54.979" fill="#363c42"/><path data-name="Path 1573" d="M122.427 231.762c-6.533-5.358-11.056 2.325-33.657-7.49-11.1-4.818-20.678.209-21.955 10.734-1.43 11.779 7.554 17.957 13.625 19.266s40.362-1.612 42.7-3.073c9.5-5.951 3.51-15.977-.71-19.437" fill="#f4f4f4"/><path data-name="Path 1574" d="M122.7 231.36c-5.994-5.346-11.2 3.018-32.1-6.421-10.974-4.956-17.045-.292-18.643 10.182-2 13.084 6.91 17.943 12.486 19.241s36.868-1.4 39.026-2.851c9.129-6.119 3.106-16.7-.765-20.151" fill="#dcdee2"/><path data-name="Path 1575" d="M120.388 231.004c-4.219-2.334-13.2 2.08-31.1-5.448-9.254-3.892-14.115.263-15.93 9.4s3.241 15.378 9.4 17.218c5.427 1.621 37.492-.2 39.714-1.372 11.177-5.884 2.275-17.389-2.079-19.8" fill="#525b66"/><path data-name="Path 1576" d="M131.4 224.481s-11.306 6.607-19.008 7.358c-5.376.524-6.233 15.687 3.679 16.351 5.946.4 23.76-8.176 23.76-8.176z" fill="#959caf"/><g data-name="Group 1274"><g data-name="Group 1273" opacity=".08"><g data-name="Group 1272" clip-path="url(#cx)" transform="translate(120.675 224.481)"><path data-name="Path 1577" d="M1.014 16.351a21.363 21.363 0 002.865 5.524 162.069 162.069 0 0015.281-6.342L10.729 0A84.76 84.76 0 01.053 5.12c-.051 3.748-.28 7.652.961 11.23"/></g></g></g><path data-name="Path 1578" d="M198.486 170.278c12.57 1.533 26.135 13.828 18.9 28.925-5.455 11.387-75.7 49.906-82.62 48.321-11.745-2.687-15.859-16.872-12.263-25.492 14.818-4.6 64.335-53.175 75.979-51.755" fill="#363c42"/><path data-name="Path 1579" d="M97.263 231.501c4.115.366 9.113.609 11.91 0 5.323-1.15 6.055 4.6 6.974 9.5s-1.494 6.985-5.978 7.588c-5.135.689-9.215-.009-14.276-.4-.869-5.7.066-11.34 1.37-16.7" fill="#525b66"/><path data-name="Path 1580" d="M94.202 230.714c-3.271 2.249-4.164 15.291-1.661 18.175 2.043 2.357 14.549 2.314 14.741-1.365s-2.972-10.505.008-15.435c.7-1.158-10.788-2.957-13.088-1.375" fill="#dcdee2"/><path data-name="Path 1581" d="M54.149 154.903c-.992-.922.651-2.9 1.337-4.975.807-2.434.892-4.991 2.707-6.1 3.358-2.047 12.05.282 17.117 6.1s4.422 12.494 2.457 15.934c-1.85 3.238-7.944 10.892-10.892 11.681-3.328.889-5.009-.24-5.009-.24s9.749-3.674 5.007-15.617c-3.381-8.517-12.724-6.782-12.724-6.782" fill="#b6bdce"/><path data-name="Path 1582" d="M193.841 153.517c.993-.922-1.385-2.828-2.071-4.9-.807-2.433-.892-4.991-2.707-6.1-3.358-2.047-12.051.282-17.117 6.1s-4.422 12.494-2.457 15.934c1.85 3.238 7.944 10.892 10.892 11.681 3.328.889 5.01-.239 5.01-.239s-11.542-3.716-5.747-15.186c3.959-7.835 14.2-7.289 14.2-7.289" fill="#b6bdce"/><path data-name="Path 1583" d="M28.324 163.882s6.6-.712 10.949-3.551 15.527-10.065 26.525-2.2 3.438 18.174-3.75 19.266-33.417.864-40.191-1.633c-3.1-1.142 6.467-11.886 6.467-11.886" fill="#e5a185"/><g data-name="Group 1277"><g data-name="Group 1276" opacity=".44"><g data-name="Group 1275" clip-path="url(#cy)" transform="translate(21.235 154.576)"><path data-name="Path 1584" d="M44.559 3.559c-11-7.869-22.176-.645-26.525 2.2S7.089 9.305 7.089 9.305-2.475 20.05.622 21.191c6.774 2.5 33 2.724 40.191 1.633s14.747-11.4 3.75-19.266m-4.51 4.687c-5.123 1.971-18.384 4.375-23.545 3.621-4.384-.64-3.82-2.663-2.574-3.074a59.013 59.013 0 008.411-3.538c5.37-2.743 9.585-5.612 16.427-3.412 4.137 1.33 6.4 4.433 1.281 6.4" fill="#d78c74"/></g></g></g><path data-name="Path 1585" d="M21.852 175.768s-16.259-6.711-19.744-10.822c-1.522-1.8-2.213-16.563-2.095-17.356.32-2.144 3.885-3.894 4.973-3.025 0 0 2.4-7.917 5.367-10.025 1.805-1.282 3.595-.545 4.019.651 0 0 1.751-.869 2.919 1.466a1.961 1.961 0 012.526 1.135c1.006 1.827.673 3.907.983 5.193s1.795 7.392 2.455 9.485 6.3 6.07 7.708 10.374-1.092 13.425-9.11 12.925" fill="#e5a185"/><g data-name="Group 1280"><g data-name="Group 1279" opacity=".44"><g data-name="Group 1278" clip-path="url(#cz)" transform="translate(0 133.867)"><path data-name="Path 1586" d="M30.963 28.979c-1.409-4.305-7.047-8.28-7.708-10.374s-2.146-8.2-2.456-9.486.024-3.366-.982-5.193a1.962 1.962 0 00-2.526-1.135c-1.168-2.334-2.918-1.466-2.918-1.466-.425-1.2-2.214-1.933-4.019-.651-2.969 2.108-5.367 10.024-5.367 10.024C3.9 9.829.334 11.579.013 13.723c-.118.793.574 15.557 2.1 17.353 3.486 4.114 19.744 10.826 19.744 10.826 8.018.5 10.518-8.619 9.11-12.924m-7.345-.313c-1.83 1.96-13.607 4.86-15.67 4.892s-4.6-1.954-5.627-3.216S.376 14.013.376 14.013c.918-2.594 3.89-2.708 3.89-2.708a14.017 14.017 0 00-.284 2.922 95.039 95.039 0 001.679 10.035c.472 1.794 1.434 1.3 1.021-.417S4.808 13.711 5.176 12.162a51.444 51.444 0 013.155-8.216c1.222-2.382 3.144-4.091 4.715-3s.348 4.864-.035 6.326a65.45 65.45 0 00-1.774 8.53 57.273 57.273 0 001.3 8.053c.364 1.455 1.314 1.589 1.162.094s-.957-5.144-1.048-7.951a32.393 32.393 0 011.109-8.242 46.677 46.677 0 00.78-5.885c1.167-.579 1.855.5 2.4 1.737s.347 9.632.357 10.617 1.268 7.278 1.64 8.777 1.464 1.92 1.305.381-1.292-7.189-1.542-9.204-1.256-11.773.119-10.873c.921.6 1.217 3.176 1.218 4.342a22.692 22.692 0 00.843 4.457c.355 1.411 1.814 8.889 3.059 10.581a4.473 4.473 0 01-.322 5.977" fill="#d78c74"/></g></g></g><g data-name="Group 1283"><g data-name="Group 1282" opacity=".17"><g data-name="Group 1281" clip-path="url(#cA)" transform="translate(0 146.918)"><path data-name="Path 1587" d="M30.963 15.925c-1.409-4.3-7.047-8.28-7.708-10.374-.359-1.138-.961-3.461-1.487-5.552-.482.882-1.294 1.054-3.212.967a6.6 6.6 0 01-6.231 1.269 12.46 12.46 0 01-7.884-.468 3.789 3.789 0 01-4.44-.8c-.018 2.249.679 15.37 2.108 17.056 3.486 4.114 19.744 10.826 19.744 10.826 8.018.5 10.518-8.62 9.11-12.925" fill="#d78c74"/></g></g></g><g data-name="Group 1286"><g data-name="Group 1285" opacity=".77"><g data-name="Group 1284" clip-path="url(#cB)" transform="translate(30.747 163.161)"><path data-name="Path 1588" d="M1.09 5.876A10.571 10.571 0 001.457.001C1.07.095.701.179.357.252A8.734 8.734 0 01.039 5.31a.694.694 0 00.415.861.491.491 0 00.641-.295" fill="#d78c74"/></g></g></g><path data-name="Path 1589" d="M219.701 162.571s-6.6-.712-10.949-3.551-15.527-10.065-26.524-2.2-3.439 18.174 3.75 19.266 33.417.864 40.191-1.633c3.1-1.142-6.467-11.886-6.467-11.886" fill="#e5a185"/><g data-name="Group 1289"><g data-name="Group 1288" opacity=".44"><g data-name="Group 1287" clip-path="url(#cy)" transform="translate(176.68 153.266)"><path data-name="Path 1590" d="M9.297 22.824c7.187 1.092 33.417.865 40.189-1.633 3.1-1.141-6.467-11.886-6.467-11.886s-6.6-.712-10.949-3.551-15.526-10.066-26.524-2.2-3.44 18.174 3.75 19.266m2.037-20.977c6.843-2.2 11.058.669 16.427 3.412a58.886 58.886 0 008.411 3.538c1.247.411 1.81 2.434-2.574 3.075-5.162.753-18.423-1.65-23.545-3.621s-2.857-5.073 1.28-6.4" fill="#d78c74"/></g></g></g><path data-name="Path 1591" d="M226.167 174.457s16.259-6.712 19.745-10.826c1.521-1.8 2.213-16.56 2.095-17.353-.32-2.144-3.885-3.894-4.974-3.025 0 0-2.4-7.917-5.366-10.025-1.8-1.282-3.595-.545-4.02.652 0 0-1.751-.869-2.918 1.465a1.962 1.962 0 00-2.526 1.135c-1.006 1.827-.673 3.907-.982 5.193s-1.8 7.392-2.456 9.485-6.3 6.07-7.707 10.374 1.091 13.425 9.109 12.925" fill="#e5a185"/><g data-name="Group 1292"><g data-name="Group 1291" opacity=".44"><g data-name="Group 1290" clip-path="url(#cz)" transform="translate(216.686 132.557)"><path data-name="Path 1592" d="M9.481 41.902S25.74 35.19 29.225 31.076c1.521-1.8 2.213-16.56 2.1-17.353-.321-2.144-3.885-3.894-4.974-3.025 0 0-2.4-7.917-5.367-10.024-1.8-1.282-3.594-.546-4.019.651 0 0-1.751-.869-2.919 1.465a1.961 1.961 0 00-2.526 1.135c-1.006 1.827-.673 3.907-.982 5.193s-1.8 7.392-2.456 9.486-6.3 6.069-7.708 10.374 1.092 13.424 9.11 12.924M7.397 22.688c1.244-1.692 2.7-9.17 3.059-10.581a22.694 22.694 0 00.843-4.457c0-1.166.3-3.738 1.217-4.342 1.375-.9.368 8.857.119 10.873s-1.382 7.668-1.54 9.207.932 1.118 1.3-.381 1.63-7.793 1.641-8.777-.186-9.382.356-10.617 1.23-2.316 2.4-1.737a46.635 46.635 0 00.779 5.885 32.424 32.424 0 011.111 8.242c-.092 2.806-.9 6.454-1.049 7.951s.8 1.361 1.162-.094a57.259 57.259 0 001.3-8.053 65.539 65.539 0 00-1.773-8.53c-.384-1.462-1.606-5.234-.036-6.326s3.493.616 4.715 3a51.426 51.426 0 013.155 8.217c.367 1.549-1.093 9.967-1.506 11.682s.55 2.211 1.021.417a95.065 95.065 0 001.679-10.035 14.018 14.018 0 00-.284-2.922s2.971.114 3.89 2.708c0 0-.915 15.067-1.945 16.328s-3.564 3.248-5.627 3.216-13.84-2.933-15.67-4.892a4.473 4.473 0 01-.322-5.977" fill="#d78c74"/></g></g></g><g data-name="Group 1295"><g data-name="Group 1294" opacity=".17"><g data-name="Group 1293" clip-path="url(#cA)" transform="translate(216.686 145.608)"><path data-name="Path 1593" d="M.372 15.925c1.409-4.3 7.047-8.28 7.708-10.374.359-1.138.961-3.461 1.487-5.552.482.882 1.294 1.054 3.212.967a6.6 6.6 0 006.23 1.269 12.46 12.46 0 007.884-.468 3.79 3.79 0 004.441-.8c.018 2.249-.679 15.37-2.108 17.056C25.74 22.137 9.481 28.849 9.481 28.849c-8.017.5-10.518-8.62-9.109-12.925" fill="#d78c74"/></g></g></g><g data-name="Group 1298"><g data-name="Group 1297" opacity=".77"><g data-name="Group 1296" clip-path="url(#cC)" transform="translate(215.561 161.851)"><path data-name="Path 1594" d="M.623 5.876A10.577 10.577 0 01.256.001c.387.094.757.178 1.1.251a8.734 8.734 0 00.318 5.058.694.694 0 01-.414.861.492.492 0 01-.641-.295" fill="#d78c74"/></g></g></g><g data-name="Group 1301"><g data-name="Group 1300" opacity=".11"><g data-name="Group 1299" clip-path="url(#cD)" transform="translate(.905 145.68)"><path data-name="Path 1595" d="M0 2.205S1.751-.328 2.619.034c.317.133 0 1.843.2 2.662.159.634-2.575.128-2.825-.491" fill="#fff"/></g></g></g><g data-name="Group 1304"><g data-name="Group 1303" opacity=".11"><g data-name="Group 1302" clip-path="url(#cE)" transform="translate(5.953 135.03)"><path data-name="Path 1596" d="M.029 12.652a11.089 11.089 0 01.157-2.828C.472 8.268 2.649 2.66 3.878 1.309s3.03-2.211 3.071.286-1.925 8.6-2.293 10.729-4.341 1.475-4.627.329" fill="#fff"/></g></g></g><g data-name="Group 1307"><g data-name="Group 1306" opacity=".11"><g data-name="Group 1305" clip-path="url(#cF)" transform="translate(13.064 136.269)"><path data-name="Path 1597" d="M1.778.028c-.073.037-.136 2.457-.573 4.614s-1.256 5.35-1.2 6.716 3.63 1.092 3.849 0a50.343 50.343 0 00-.191-9.61C3.257.056 1.998-.081 1.779.028" fill="#fff"/></g></g></g><g data-name="Group 1310"><g data-name="Group 1309" opacity=".07"><g data-name="Group 1308" clip-path="url(#cG)" transform="translate(18.469 137.908)"><path data-name="Path 1598" d="M.085.382a51.808 51.808 0 000 5.787c.191 2.593.573 3.74 1.447 3.44s.273-2.621 0-4.149S.986.46.549.109.085.382.085.382" fill="#fff"/></g></g></g><g data-name="Group 1313"><g data-name="Group 1312" opacity=".11"><g data-name="Group 1311" clip-path="url(#cH)" transform="translate(244.398 144.43)"><path data-name="Path 1599" d="M2.937 2.145S.975-.326.105.036c-.318.132.211 1.781.007 2.6-.159.634 2.575.128 2.825-.491" fill="#fff"/></g></g></g><g data-name="Group 1316"><g data-name="Group 1315" opacity=".11"><g data-name="Group 1314" clip-path="url(#cI)" transform="translate(235.171 133.755)"><path data-name="Path 1600" d="M7.084 12.617a26.869 26.869 0 00-.368-2.786c-.286-1.556-2.5-7.227-3.726-8.579S.042-.856 0 1.641s2.089 8.517 2.457 10.647 4.341 1.475 4.627.329" fill="#fff"/></g></g></g><g data-name="Group 1319"><g data-name="Group 1318" opacity=".11"><g data-name="Group 1317" clip-path="url(#cJ)" transform="translate(231.13 134.848)"><path data-name="Path 1601" d="M2.05.029c.073.037.164 2.7.6 4.859a42.911 42.911 0 011.147 6.634c-.054 1.365-3.385 1.037-3.6-.054a51.048 51.048 0 01.082-9.733C.685.043 1.835-.08 2.053.029" fill="#fff"/></g></g></g><g data-name="Group 1322"><g data-name="Group 1321" opacity=".07"><g data-name="Group 1320" clip-path="url(#cK)" transform="translate(227.782 136.704)"><path data-name="Path 1602" d="M1.801.412s-.014 3.078-.2 5.671-.267 3.719-1.14 3.419-.273-2.621 0-4.149.273-4.894.71-5.249.635.307.635.307" fill="#fff"/></g></g></g><g data-name="Group 1325"><g data-name="Group 1324" opacity=".06"><g data-name="Group 1323" clip-path="url(#cL)" transform="translate(75.084 226.415)"><path data-name="Path 1603" d="M.006 10.533S.777-1.515 9.506.16c6.262 1.2 7.316 3.275 7.316 3.275s-2.577 2.491-2.919 9.393c-.248 5.022-14.225 4.367-13.9-2.294" fill="#fff"/></g></g></g><g data-name="Group 1328"><g data-name="Group 1327" opacity=".03"><g data-name="Group 1326" clip-path="url(#cM)" transform="translate(34.27 180.9)"><path data-name="Path 1604" d="M0 5.163S10.509-2.59 21.242.904s42.075 32.361 56.379 39.494c0 0-2.249 5.721-3.909 6.1s-24.385-9-32.9-10.372S6.351 15.426-.002 5.163" fill="#fff"/></g></g></g><g data-name="Group 1331"><g data-name="Group 1330" opacity=".03"><g data-name="Group 1329" clip-path="url(#cN)" transform="translate(123.698 179.047)"><path data-name="Path 1605" d="M.441 43.904a17.715 17.715 0 002.3 13.39s77.2-41.406 83.92-55c0 0-15.144-.81-24.078-2.293 0 0-24.9 18.017-41.125 31.363C5.47 44.514.444 43.905.444 43.905" fill="#fff"/></g></g></g></g></g></g></g></g></g></g></svg>