<svg xmlns="http://www.w3.org/2000/svg" xmlns:xlink="http://www.w3.org/1999/xlink" width="305" height="227" viewBox="0 0 305 227"><defs><clipPath id="a"><rect width="305" height="227" transform="translate(911 125)" fill="#fff"/></clipPath><clipPath id="b"><rect width="217.358" height="315.93" fill="none"/></clipPath></defs><g transform="translate(-911 -125)" clip-path="url(#a)"><g transform="translate(943.973 131)"><g clip-path="url(#b)"><path d="M199.427,285.5l-47.809-3.975,1.118,23.9h0c-.866,12.038-1.577,25.483-2.159,39.482h13.13c.413-14.873.9-27.844,1.294-37.33,7.791,1.236,15.3,2.207,21.227,2.905-.718,10.559-1.258,22.231-1.662,34.425h13.6c.281-28.691.887-49.263.887-49.263h0Z" transform="translate(-27.09 -29.453)" fill="#c18662"/><path d="M199.427,285.5l-47.809-3.975,1.118,23.9h0c-.866,12.038-1.577,25.483-2.159,39.482h13.13c.413-14.873.9-27.844,1.294-37.33,7.791,1.236,15.3,2.207,21.227,2.905-.718,10.559-1.258,22.231-1.662,34.425h13.6c.281-28.691.887-49.263.887-49.263h0Z" transform="translate(-27.09 -29.453)" fill="none" stroke="#000" stroke-linecap="round" stroke-linejoin="round" stroke-width="1.073"/><path d="M156.452,165.816s7.461-32.347,58.821-7.839c0,0,26.233,28.129,14.705,44.066,0,0,2.468,89.915-36.436,54.229Z" transform="translate(-28.147 -15.568)" fill="#272226"/><path d="M156.452,165.816s7.461-32.347,58.821-7.839c0,0,26.233,28.129,14.705,44.066,0,0,2.468,89.915-36.436,54.229Z" transform="translate(-28.147 -15.568)" fill="none" stroke="#000" stroke-linecap="round" stroke-linejoin="round" stroke-width="1.073"/><path d="M208.325,165.57s8.928,1.876,36.353,30.5c15.528,16.208,15.731,31.641-23.932,27.384V209.488s22.4,2.328,24.189.838c0,0-14.758-19.095-35.119-30.832Z" transform="translate(-37.479 -17.322)" fill="#3d7ca1"/><path d="M208.325,165.57s8.928,1.876,36.353,30.5c15.528,16.208,15.731,31.641-23.932,27.384V209.488s22.4,2.328,24.189.838c0,0-14.758-19.095-35.119-30.832Z" transform="translate(-37.479 -17.322)" fill="none" stroke="#000" stroke-linecap="round" stroke-linejoin="round" stroke-width="1.073"/><path d="M127.576,166.864s-63.549,46.819-88.12-5.717l-12.968,9.167s30.179,58.274,101.088,1.639Z" transform="translate(-4.765 -16.859)" fill="#3d7ca1"/><path d="M127.576,166.864s-63.549,46.819-88.12-5.717l-12.968,9.167s30.179,58.274,101.088,1.639Z" transform="translate(-4.765 -16.859)" fill="none" stroke="#000" stroke-linecap="round" stroke-linejoin="round" stroke-width="1.073"/><path d="M29.375,164.918l-6.141-10.307S8.964,157.624,8.4,130.76l17.566-4.984h6.676s7.548,19-1.1,26.082l4.151,9.549Z" transform="translate(-1.511 -13.159)" fill="#f6ae82"/><path d="M29.375,164.918l-6.141-10.307S8.964,157.624,8.4,130.76l17.566-4.984h6.676s7.548,19-1.1,26.082l4.151,9.549Z" transform="translate(-1.511 -13.159)" fill="none" stroke="#000" stroke-linecap="round" stroke-linejoin="round" stroke-width="1.073"/><path d="M158.012,46.075s-7.661,11.155-8.686,18.606c0,0,1.618,13.441.349,20.983l1.8,1.441s16.723-31.529,15.358-38.98-8.824-2.05-8.824-2.05" transform="translate(-26.865 -4.622)" fill="#482d28"/><path d="M158.012,46.075s-7.661,11.155-8.686,18.606c0,0,1.618,13.441.349,20.983l1.8,1.441s16.723-31.529,15.358-38.98S158.012,46.075,158.012,46.075Z" transform="translate(-26.865 -4.622)" fill="none" stroke="#000" stroke-linecap="round" stroke-linejoin="round" stroke-width="1.073"/><path d="M150.821,267.394l-4.2-94.01c0-4.412,3.277-7.989,7.317-7.989h41.84c4.038,0,7.317,3.577,7.317,7.989l-4.2,95.988Z" transform="translate(-26.377 -17.304)" fill="#fff"/><path d="M150.821,267.394l-4.2-94.01c0-4.412,3.277-7.989,7.317-7.989h41.84c4.038,0,7.317,3.577,7.317,7.989l-4.2,95.988Z" transform="translate(-26.377 -17.304)" fill="none" stroke="#000" stroke-linecap="round" stroke-linejoin="round" stroke-width="1.073"/><path d="M188.48,144.579v21.634s-5.156,5.326-13.261,0l5.312-21.634Z" transform="translate(-31.523 -15.126)" fill="#ec9e72"/><path d="M188.48,144.579v21.634s-5.156,5.326-13.261,0l5.312-21.634Z" transform="translate(-31.523 -15.126)" fill="none" stroke="#000" stroke-linecap="round" stroke-linejoin="round" stroke-width="1.073"/><path d="M150.131,91.47s-4.474-6.988-11.191-3.734c0,0-6.288,3.635-.146,8.8,2.272,1.909,5.947,2.386,10.317,2.075Z" transform="translate(-24.486 -9.088)" fill="#e6856a"/><path d="M150.131,91.47s-4.474-6.988-11.191-3.734c0,0-6.288,3.635-.146,8.8,2.272,1.909,5.947,2.386,10.317,2.075Z" transform="translate(-24.486 -9.088)" fill="none" stroke="#000" stroke-linecap="round" stroke-linejoin="round" stroke-width="1.073"/><path d="M192.673,128.446c4.9-5.75,4.889-9.792,4.889-14.2l-.4-61.258c0-4.411-3.275-7.987-7.315-7.987H159.235c-4.065,0-3.049,8.209-3.049,8.209-.977,23.512-15.493,50.992-15.493,50.992-10.126,25.171,11.27,36.073,16.962,37.18,0,0,22.8,4.783,35.019-12.932" transform="translate(-24.829 -4.708)" fill="#f6ae82"/><path d="M192.673,128.446c4.9-5.75,4.889-9.792,4.889-14.2l-.4-61.258c0-4.411-3.275-7.987-7.315-7.987H159.235c-4.065,0-3.049,8.209-3.049,8.209-.977,23.512-15.493,50.992-15.493,50.992-10.126,25.171,11.27,36.073,16.962,37.18C157.655,141.378,180.455,146.161,192.673,128.446Z" transform="translate(-24.829 -4.708)" fill="none" stroke="#000" stroke-linecap="round" stroke-linejoin="round" stroke-width="1.073"/><path d="M206.18,94.426s6.3-7.17,13.5-2.106c0,0,6.645,5.42-1.282,10.165-2.928,1.751-7.24,1.579-12.219.364Z" transform="translate(-37.093 -9.469)" fill="#e6856a"/><path d="M206.18,94.426s6.3-7.17,13.5-2.106c0,0,6.645,5.42-1.282,10.165-2.928,1.751-7.24,1.579-12.219.364Z" transform="translate(-37.093 -9.469)" fill="none" stroke="#000" stroke-linecap="round" stroke-linejoin="round" stroke-width="1.073"/><path d="M164.887,93.335s-18.35,20.57-25.16,9.923c0,0-1.686-6.033,9.76-7.048s13.928-3.46,13.928-3.46,2.376-1.574,1.472.586" transform="translate(-25.122 -9.645)" fill="#e6856a"/><path d="M164.887,93.335s-18.35,20.57-25.16,9.923c0,0-1.686-6.033,9.76-7.048s13.928-3.46,13.928-3.46S165.791,91.175,164.887,93.335Z" transform="translate(-25.122 -9.645)" fill="none" stroke="#000" stroke-linecap="round" stroke-linejoin="round" stroke-width="1.073"/><path d="M164.259,75l-1.038-.029-.466,0c-.162-.007-.332.028-.5.018a8.053,8.053,0,0,0-1.035.15,7.3,7.3,0,0,0-1,.283c-.159.058-.309.134-.463.19s-.287.141-.425.2-.269.114-.375.182-.212.113-.3.156c-.172.084-.283.127-.283.127s.031-.116.107-.31a2.866,2.866,0,0,1,.407-.751,2.327,2.327,0,0,1,.365-.435,3.183,3.183,0,0,1,.484-.409,3.633,3.633,0,0,1,.59-.331,3.217,3.217,0,0,1,.661-.21,3.408,3.408,0,0,1,2.415.4,2.529,2.529,0,0,1,.852.763" transform="translate(-28.493 -7.717)"/><path d="M199.814,281.29l-.247,5.887-47.652-3.987-.173-3.878Z" transform="translate(-27.3 -29.221)" fill="#1f1b1c"/><path d="M199.814,281.29l-.247,5.887-47.652-3.987-.173-3.878Z" transform="translate(-27.3 -29.221)" fill="none" stroke="#000" stroke-linecap="round" stroke-linejoin="round" stroke-width="1.073"/><path d="M146.616,274.684v-101.3c0-4.411,3.277-7.989,7.317-7.989h8.814L159.353,284.5Z" transform="translate(-26.377 -17.304)" fill="#3d7ca1"/><path d="M146.616,274.684v-101.3c0-4.411,3.277-7.989,7.317-7.989h8.814L159.353,284.5Z" transform="translate(-26.377 -17.304)" fill="none" stroke="#000" stroke-linecap="round" stroke-linejoin="round" stroke-width="1.073"/><path d="M157.172,165.395s-10.91,74.591-10.91,86.439l-1.607-13.862,7.014-72.577Z" transform="translate(-26.025 -17.304)" fill="#272226"/><path d="M157.172,165.395s-10.91,74.591-10.91,86.439l-1.607-13.862,7.014-72.577Z" transform="translate(-26.025 -17.304)" fill="none" stroke="#000" stroke-linecap="round" stroke-linejoin="round" stroke-width="1.073"/><path d="M209.925,173.384l-2.444,101.3L185.127,284.5c-2.869-35.745,7.11-119.108,7.11-119.108h10.371c4.038,0,7.317,3.577,7.317,7.989" transform="translate(-33.212 -17.304)" fill="#3d7ca1"/><path d="M209.925,173.384l-2.444,101.3L185.127,284.5c-2.869-35.745,7.11-119.108,7.11-119.108h10.371C206.647,165.395,209.925,168.972,209.925,173.384Z" transform="translate(-33.212 -17.304)" fill="none" stroke="#000" stroke-linecap="round" stroke-linejoin="round" stroke-width="1.073"/><path d="M205.242,165.395s-4.324,55.162,5.563,80.638v11.976s-17.3-15.938-9.564-92.614Z" transform="translate(-35.846 -17.304)" fill="#272226"/><path d="M205.242,165.395s-4.324,55.162,5.563,80.638v11.976s-17.3-15.938-9.564-92.614Z" transform="translate(-35.846 -17.304)" fill="none" stroke="#000" stroke-linecap="round" stroke-linejoin="round" stroke-width="1.073"/><path d="M168.885,285.172l9.932,1.337-.644-8.084-8.865.8Z" transform="translate(-30.384 -29.129)" fill="#eea234"/><path d="M168.885,285.172l9.932,1.337-.644-8.084-8.865.8Z" transform="translate(-30.384 -29.129)" fill="none" stroke="#000" stroke-linecap="round" stroke-linejoin="round" stroke-width="1.073"/><path d="M184.095,89.77s-.258-.755-.6-1.829c-.182-.536-.389-1.153-.656-1.754a2.748,2.748,0,0,0-.966-1.337.669.669,0,0,0-.551.007,2.885,2.885,0,0,0-.714.43c-.231.2-.468.4-.678.618s-.407.435-.6.624l-.905.993c-.226.242-.367.373-.367.373s.048-.193.153-.521a9.233,9.233,0,0,1,.534-1.32,7.431,7.431,0,0,1,.472-.83,6.16,6.16,0,0,1,.659-.869,3.243,3.243,0,0,1,1-.752,1.745,1.745,0,0,1,1.494-.027,2.5,2.5,0,0,1,1.032,1.018,5.312,5.312,0,0,1,.477,1.143,9.059,9.059,0,0,1,.323,2.047,8.406,8.406,0,0,1-.107,1.986" transform="translate(-32.033 -8.727)"/><path d="M184.095,89.77s-.258-.755-.6-1.829c-.182-.536-.389-1.153-.656-1.754a2.748,2.748,0,0,0-.966-1.337.669.669,0,0,0-.551.007,2.885,2.885,0,0,0-.714.43c-.231.2-.468.4-.678.618s-.407.435-.6.624l-.905.993c-.226.242-.367.373-.367.373s.048-.193.153-.521a9.233,9.233,0,0,1,.534-1.32,7.431,7.431,0,0,1,.472-.83,6.16,6.16,0,0,1,.659-.869,3.243,3.243,0,0,1,1-.752,1.745,1.745,0,0,1,1.494-.027,2.5,2.5,0,0,1,1.032,1.018,5.312,5.312,0,0,1,.477,1.143,9.059,9.059,0,0,1,.323,2.047,8.406,8.406,0,0,1-.107,1.986" transform="translate(-32.033 -8.727)"/><path d="M166.194,88.718s-.457-.633-1.087-1.542c-.321-.449-.691-.969-1.115-1.451-.406-.474-.933-.936-1.292-.952a.679.679,0,0,0-.522.191,3.018,3.018,0,0,0-.559.647c-.165.268-.335.535-.474.813s-.266.55-.4.794l-.585,1.247c-.148.3-.244.478-.244.478s-.008-.2,0-.548a9.764,9.764,0,0,1,.139-1.434,7.85,7.85,0,0,1,.217-.948,6.754,6.754,0,0,1,.385-1.045,3.547,3.547,0,0,1,.746-1.052,1.794,1.794,0,0,1,1.416-.522,2.323,2.323,0,0,1,1.267.624,5.127,5.127,0,0,1,.773.931,8.7,8.7,0,0,1,.878,1.843,8.354,8.354,0,0,1,.453,1.926" transform="translate(-28.77 -8.723)"/><path d="M207.873,209.341s-7.547-16.778-12.728-3.248c0,0-1.276,4.262.3,5.374,0,0,1.395,1.122.714,2.135,0,0-3.777,5.008.5,5.818,0,0,5.142,4.736,7.866,1.015,0,0,.623,3.515,4.4.879l8.984,2.231.373-6.02s-8.691-4.753-10.408-8.186" transform="translate(-35.014 -21.01)" fill="#f6ae82"/><path d="M207.873,209.341s-7.547-16.778-12.728-3.248c0,0-1.276,4.262.3,5.374,0,0,1.395,1.122.714,2.135,0,0-3.777,5.008.5,5.818,0,0,5.142,4.736,7.866,1.015,0,0,.623,3.515,4.4.879l8.984,2.231.373-6.02S209.59,212.774,207.873,209.341Z" transform="translate(-35.014 -21.01)" fill="none" stroke="#000" stroke-linecap="round" stroke-linejoin="round" stroke-width="1.073"/><path d="M218.012,212.538l.425,18.164,5.205.559.937-17.851Z" transform="translate(-39.222 -22.236)" fill="#72acc8"/><path d="M218.012,212.538l.425,18.164,5.205.559.937-17.851Z" transform="translate(-39.222 -22.236)" fill="none" stroke="#000" stroke-linecap="round" stroke-linejoin="round" stroke-width="1.073"/><path d="M158.377,111.465s.461.087,1.269.184c.4.064.895.095,1.451.17.564.035,1.193.11,1.882.139s1.434.071,2.222.075c.786.037,1.616-.033,2.471-.035.855-.043,1.735-.125,2.626-.21.886-.137,1.8-.2,2.683-.424l1.338-.261c.443-.1.873-.244,1.306-.363s.861-.244,1.285-.364c.413-.155.823-.307,1.225-.456s.8-.286,1.183-.451.745-.35,1.1-.521.711-.332,1.051-.489c.332-.174.64-.37.944-.545.6-.364,1.172-.661,1.656-.971l1.219-.869,1.09-.743-.921.975c-.3.306-.667.677-1.087,1.1-.442.4-.977.793-1.553,1.241-.292.218-.588.463-.911.687-.335.2-.683.4-1.04.614l-1.1.646c-.38.218-.8.364-1.206.553s-.834.361-1.259.546c-.431.167-.88.295-1.329.434s-.9.291-1.36.4l-1.393.3c-.929.218-1.877.267-2.8.389-.928.081-1.845.081-2.728.089-.885-.032-1.739-.057-2.542-.167a21.338,21.338,0,0,1-2.255-.336c-.7-.112-1.322-.3-1.879-.427-.553-.161-1.033-.3-1.422-.441a11.087,11.087,0,0,1-1.211-.471" transform="translate(-28.493 -11.02)"/><path d="M198.6,82.273s-2.682,6.928-8.677,7.394a111.5,111.5,0,0,0,2.874-42.2s-21.38,5.961-31.164,4.845c0,0-19.845-7.265-11.932-32.415,0,0,6.791-18.443-5.929-10.992,0,0,14.92-19,17.861.251,0,0-1.008,16.7,9.5,13.721s42.22-7.63,33.007,19.943c0,0-3.489,32.607-.873,38.277,0,0-3.071-.163-4.663,1.175" transform="translate(-25.865 -0.056)" fill="#482d28"/><path d="M198.6,82.273s-2.682,6.928-8.677,7.394a111.5,111.5,0,0,0,2.874-42.2s-21.38,5.961-31.164,4.845c0,0-19.845-7.265-11.932-32.415,0,0,6.791-18.443-5.929-10.992,0,0,14.92-19,17.861.251,0,0-1.008,16.7,9.5,13.721s42.22-7.63,33.007,19.943c0,0-3.489,32.607-.873,38.277C203.26,81.1,200.189,80.935,198.6,82.273Z" transform="translate(-25.865 -0.056)" fill="none" stroke="#000" stroke-linecap="round" stroke-linejoin="round" stroke-width="1.073"/><path d="M186.962,75.151s-.131-.118-.366-.3a10.383,10.383,0,0,0-.968-.684c-.2-.131-.426-.244-.656-.367a7.314,7.314,0,0,0-.743-.305,4,4,0,0,0-.8-.179,4.894,4.894,0,0,0-.835-.047c-.279.04-.562.059-.838.125a8.221,8.221,0,0,0-.813.247c-.254.125-.52.21-.762.321-.232.138-.461.256-.677.364-.436.21-.764.469-1.031.6s-.417.221-.417.221.085-.157.254-.419c.086-.129.189-.29.318-.465a3.049,3.049,0,0,1,.465-.558c.186-.191.393-.4.622-.6a8.69,8.69,0,0,1,.8-.543,5.55,5.55,0,0,1,.953-.424,5.994,5.994,0,0,1,1.069-.2,4.433,4.433,0,0,1,1.091.1,3.948,3.948,0,0,1,1,.363,4.269,4.269,0,0,1,.822.547,4.2,4.2,0,0,1,.624.622,4.618,4.618,0,0,1,.439.6,4.727,4.727,0,0,1,.273.507,2.852,2.852,0,0,1,.182.468" transform="translate(-32.033 -7.526)"/><path d="M41.1,157.981l5.8,9.914-18.431,10.7-6.143-8.612Z" transform="translate(-4.017 -16.528)" fill="#72acc8"/><path d="M41.1,157.981l5.8,9.914-18.431,10.7-6.143-8.612Z" transform="translate(-4.017 -16.528)" fill="none" stroke="#000" stroke-linecap="round" stroke-linejoin="round" stroke-width="1.073"/><path d="M15.648,137.169c.287,1.357,1.376,2.252,2.418,1.989l12.824-3.239a2.409,2.409,0,0,0,1.373-2.946l-5.7-34.847a2.33,2.33,0,0,0-2.783-1.9l-15.284,3.86a2.556,2.556,0,0,0-1.739,3.037Z" transform="translate(-1.205 -10.06)" fill="#2f282c"/><path d="M15.648,137.169c.287,1.357,1.376,2.252,2.418,1.989l12.824-3.239a2.409,2.409,0,0,0,1.373-2.946l-5.7-34.847a2.33,2.33,0,0,0-2.783-1.9l-15.284,3.86a2.556,2.556,0,0,0-1.739,3.037Z" transform="translate(-1.205 -10.06)" fill="none" stroke="#000" stroke-linecap="round" stroke-linejoin="round" stroke-width="1.073"/><path d="M16.366,134.064a1.961,1.961,0,0,0,2.191,1.752l11.663-2.945a2.153,2.153,0,0,0,1.26-2.623L26.462,99.341a2.087,2.087,0,0,0-2.52-1.668l-13.9,3.508a2.3,2.3,0,0,0-1.592,2.709Z" transform="translate(-1.51 -10.212)" fill="#3fafcc"/><path d="M16.366,134.064a1.961,1.961,0,0,0,2.191,1.752l11.663-2.945a2.153,2.153,0,0,0,1.26-2.623L26.462,99.341a2.087,2.087,0,0,0-2.52-1.668l-13.9,3.508a2.3,2.3,0,0,0-1.592,2.709Z" transform="translate(-1.51 -10.212)" fill="none" stroke="#000" stroke-linecap="round" stroke-linejoin="round" stroke-width="1.073"/><path d="M38.32,133.435s-1.069-15.072-2.454-17.68c0,0-1.045-4.657-5.312,0a8.932,8.932,0,0,1-4.178,1.118s-.941,7.079,5.969,3.539l.948-.9.966,5.9" transform="translate(-4.738 -11.894)" fill="#f6ae82"/><path d="M38.32,133.435s-1.069-15.072-2.454-17.68c0,0-1.045-4.657-5.312,0a8.932,8.932,0,0,1-4.178,1.118s-.941,7.079,5.969,3.539l.948-.9.966,5.9" transform="translate(-4.738 -11.894)" fill="none" stroke="#000" stroke-linecap="round" stroke-linejoin="round" stroke-width="1.073"/><path d="M8.353,130.441s-1.18-1.576,2.209-3.538a26.249,26.249,0,0,0,6.827-4.285s5.8-6.149,4.608,2.608c0,0-1.26,5.914-9.069,6.654" transform="translate(-1.467 -12.609)" fill="#f6ae82"/><path d="M8.353,130.441s-1.18-1.576,2.209-3.538a26.249,26.249,0,0,0,6.827-4.285s5.8-6.149,4.608,2.608c0,0-1.26,5.914-9.069,6.654" transform="translate(-1.467 -12.609)" fill="none" stroke="#000" stroke-linecap="round" stroke-linejoin="round" stroke-width="1.073"/><path d="M18.917,118.824s-5.441,8.672-13.4,5.641c0,0-1.422-2,1.971-3.964a26.182,26.182,0,0,0,6.825-4.282s5.769-5.773,5.24,1.258c-.028.354-.25.563-.631,1.347" transform="translate(-0.939 -11.926)" fill="#f6ae82"/><path d="M18.917,118.824s-5.441,8.672-13.4,5.641c0,0-1.422-2,1.971-3.964a26.182,26.182,0,0,0,6.825-4.282s5.769-5.773,5.24,1.258C19.52,117.831,19.3,118.041,18.917,118.824Z" transform="translate(-0.939 -11.926)" fill="none" stroke="#000" stroke-linecap="round" stroke-linejoin="round" stroke-width="1.073"/><path d="M16.576,111.906s-5.443,8.674-13.405,5.641c0,0-1.424-2,1.974-3.964a26.214,26.214,0,0,0,6.822-4.284s5.769-5.772,5.24,1.26c-.026.353-.25.563-.63,1.347" transform="translate(-0.517 -11.202)" fill="#f6ae82"/><path d="M16.576,111.906s-5.443,8.674-13.405,5.641c0,0-1.424-2,1.974-3.964a26.214,26.214,0,0,0,6.822-4.284s5.769-5.772,5.24,1.26C17.18,110.912,16.956,111.123,16.576,111.906Z" transform="translate(-0.517 -11.202)" fill="none" stroke="#000" stroke-linecap="round" stroke-linejoin="round" stroke-width="1.073"/><path d="M14.234,105.457s-5.44,8.671-13.4,5.639c0,0-1.42-2,1.969-3.963a26.248,26.248,0,0,0,6.826-4.284s5.768-5.772,5.239,1.262c-.025.352-.251.561-.632,1.347" transform="translate(-0.097 -10.527)" fill="#f6ae82"/><path d="M14.234,105.457s-5.44,8.671-13.4,5.639c0,0-1.42-2,1.969-3.963a26.248,26.248,0,0,0,6.826-4.284s5.768-5.772,5.239,1.262C14.841,104.462,14.616,104.672,14.234,105.457Z" transform="translate(-0.097 -10.527)" fill="none" stroke="#000" stroke-linecap="round" stroke-linejoin="round" stroke-width="1.073"/></g></g></g></svg>